<?xml version="1.0" encoding="utf-8"?>
<!-- Generator: Adobe Illustrator 27.4.0, SVG Export Plug-In . SVG Version: 6.00 Build 0)  -->
<svg version="1.1" id="Layer_1" xmlns="http://www.w3.org/2000/svg" xmlns:xlink="http://www.w3.org/1999/xlink" x="0px" y="0px"
	 viewBox="0 0 720 720" style="enable-background:new 0 0 720 720;" xml:space="preserve">
<style type="text/css">
	.st0{fill:#BABABA;}
	.st1{fill:#373E4B;}
	.st2{fill:#C7C7C7;}
	.st3{fill:#ED4F38;}
	.st4{fill:#D9A29F;}
	.st5{fill:#4E978F;}
	.st6{fill:#327D84;}
	.st7{fill:#FB695A;}
	.st8{fill:#52B2AF;}
	.st9{fill:#DFDFD1;}
	.st10{fill:#69BCB7;}
	.st11{fill:#C54049;}
	.st12{fill:#53B3AE;}
	.st13{fill:#8ED0CA;}
	.st14{fill:#E77A74;}
	.st15{fill:#FB694F;}
	.st16{fill:#9AC1B7;}
	.st17{fill:#595F5F;}
	.st18{fill:#404752;}
	.st19{fill:#65BDB6;}
	.st20{fill:#64BAB3;}
	.st21{fill:#D5C280;}
	.st22{fill:#EBA92C;}
	.st23{fill:#EDBE52;}
	.st24{fill:#191C1F;}
	.st25{fill:#EEC456;}
	.st26{fill:#A0CDC4;}
	.st27{fill:#C37981;}
	.st28{fill:#252021;}
	.st29{fill:#F0B84C;}
	.st30{fill:#23272D;}
	.st31{fill:#F4C459;}
	.st32{fill:#F8859A;}
	.st33{fill:#F67184;}
	.st34{fill:#E0B3B7;}
	.st35{fill:#F4C2BF;}
	.st36{fill:#94CCC2;}
	.st37{fill:#F3BE4C;}
</style>
<rect x="-0.1" y="0.8" class="st0" width="720" height="720"/>
<g>
	<path class="st1" d="M207.3,200.7c0.1-16.5,0.3-33.1,0.4-49.6c0.2-27.9,0.4-55.8,0.6-83.7c0-6.5,0.1-13,0.2-19.6
		c0-1.4-0.5-3.1,1.1-4.1c0,0,0.1-0.1,0.1-0.1c0.3,0.3,0.7,0.5,0.8,1c2,2.7,4.4,5,6.8,7.2c0.1,0.3,0.2,0.5,0.5,0.6l0.2,0.3
		c0.2,0.3,0.5,0.5,0.7,0.8l0.1,0.1c0.3,0.3,0.6,0.5,0.9,0.9l0,0c0.4,0.3,0.7,0.6,0.8,1.1c0.3,0.8,0.8,1.3,1.4,1.7
		c0,0.3,0.1,0.4,0.4,0.4c0,0.2,0.2,0.4,0.4,0.5c0.1,0.3,0.2,0.5,0.5,0.5c0,0.2,0.1,0.3,0.3,0.4c0.1,0.3,0.3,0.5,0.6,0.6
		c0,0.2,0.1,0.3,0.3,0.3c0.2,0.2,0.4,0.5,0.6,0.7l0.2,0.2c0.2,0.2,0.5,0.5,0.7,0.7l0.1,0.2c0.3,0.2,0.6,0.5,0.8,0.8l0.1,0.1
		c0.3,0.2,0.6,0.5,0.8,0.9l0,0c0.3,0.3,0.6,0.5,0.9,0.9l0,0c0.3,0.3,0.6,0.6,0.9,0.9l0,0c0.4,0.2,0.7,0.5,0.9,0.9l0,0
		c0.4,0.2,0.7,0.5,0.9,0.9l0,0c0.4,0.2,0.7,0.5,0.9,0.9l0,0c0.4,0.2,0.7,0.5,0.9,0.9l0,0c0.4,0.3,0.7,0.6,0.8,1.1
		c0.5,1.1,1.4,2,2.4,2.7c0.1,0.1,0.2,0.2,0.3,0.3c0.1,0.3,0.3,0.5,0.6,0.6c0.1,0.1,0.2,0.2,0.4,0.4c0.1,0.3,0.2,0.5,0.5,0.5
		c0.1,0.1,0.3,0.3,0.4,0.4c0.1,0.3,0.2,0.4,0.5,0.5c0.1,0.2,0.2,0.4,0.5,0.5c0,0.2,0.2,0.4,0.4,0.4c0.1,0.2,0.3,0.4,0.5,0.5
		c0,0.2,0.2,0.4,0.4,0.4c0.1,0.2,0.3,0.4,0.5,0.5c0,0.2,0.1,0.3,0.4,0.4c0.1,0.2,0.3,0.4,0.6,0.6c0,0.2,0.1,0.3,0.3,0.3
		c0.2,0.2,0.4,0.4,0.6,0.6c0,0.2,0.1,0.3,0.3,0.3c0.2,0.2,0.4,0.4,0.6,0.6c0,0.2,0.1,0.3,0.3,0.3c0.2,0.2,0.4,0.5,0.6,0.6
		c0,0.2,0.1,0.3,0.3,0.3c0.2,0.3,0.4,0.5,0.6,0.6l0.3,0.3c0.2,0.2,0.4,0.5,0.6,0.6l0.2,0.2c3.2,0.9,5.5,3.1,7.6,5.5
		c13,14.5,26.1,29.1,38.7,44c2.5,2.9,5.1,4.7,9,4.2c11.4-1.6,23,0,34.4-1.7c0.6-0.1,1.2-0.1,1.8-0.1c8.2-0.2,16.3,0.6,24.5,0
		c2.3-0.2,4.6,0.1,5.9,2.5c0.6,2.1,0.9,4.1,0.9,6.3c0,19.2,0.1,38.5,0,57.7c0,0.6,0,1.2-0.1,1.8c-0.5,3.1-1.5,6.1-1.5,9.4
		c-0.1,2.7-1.6,3.3-4,2.1c-1.2-0.6-2.1-1.7-3.1-2.6c-3.8-3.5-6.9-7.6-10.3-11.5c-3.2-3.7-6.6-7.1-10-10.6c-4-4.1-8.3-8-11.8-12.6
		c-0.7-1-1.6-1.8-2.5-2.6c-10-8.4-18.7-18.2-28-27.2c-1.1-1.1-2.2-2.1-3.2-3.2c-1.9-2.1-4-2.4-6.5-1.1c-3.5,1.8-7.1,3.4-10.5,5.4
		c-14.5,8.4-28.1,18-40.7,28.9c-7.8,6.8-15.4,13.7-22.4,21.2c-1.1,1.2-2.3,2.4-3.6,3.4c-1,0.7-2,1.6-3.3,1.1
		C206.8,203.3,207.8,201.8,207.3,200.7z"/>
	<path class="st2" d="M247,83.4c-0.4,0-0.6-0.3-0.6-0.6C246.5,83,246.8,83.2,247,83.4z"/>
	<path class="st2" d="M246,82.5c-0.4,0-0.6-0.2-0.6-0.6C245.6,82.1,245.8,82.3,246,82.5z"/>
	<path class="st2" d="M245.1,81.6c-0.4,0-0.6-0.2-0.6-0.6C244.7,81.2,244.9,81.4,245.1,81.6z"/>
	<path class="st2" d="M244.2,80.7c-0.4,0-0.6-0.2-0.6-0.6C243.9,80.2,244.1,80.4,244.2,80.7z"/>
	<path class="st2" d="M243.3,79.8c-0.4,0-0.6-0.2-0.6-0.6C243,79.3,243.2,79.5,243.3,79.8z"/>
	<path class="st2" d="M242.4,78.9c-0.4,0-0.6-0.2-0.6-0.6C242.1,78.4,242.3,78.6,242.4,78.9z"/>
	<path class="st2" d="M241.5,77.9c-0.3,0-0.5-0.2-0.5-0.5C241.2,77.5,241.4,77.7,241.5,77.9z"/>
	<path class="st2" d="M240.5,77c-0.3,0-0.5-0.2-0.5-0.5C240.3,76.6,240.4,76.7,240.5,77z"/>
	<path class="st2" d="M239.6,76c-0.3,0-0.5-0.2-0.5-0.5C239.4,75.7,239.5,75.8,239.6,76z"/>
	<path class="st2" d="M238.7,75.1c-0.3,0-0.4-0.1-0.4-0.4C238.5,74.7,238.6,74.9,238.7,75.1z"/>
	<path class="st2" d="M237.8,74.1c-0.3,0-0.4-0.1-0.4-0.4C237.6,73.8,237.7,74,237.8,74.1z"/>
	<path class="st2" d="M236.9,73.2l-0.3-0.1c0,0-0.1-0.3-0.1-0.3C236.7,72.9,236.8,73,236.9,73.2z"/>
	<path class="st2" d="M234.1,70.1c-0.5-0.2-0.8-0.5-0.8-1.1C233.6,69.4,233.9,69.8,234.1,70.1z"/>
	<path class="st2" d="M233.3,69.1c-0.6,0-0.9-0.3-0.9-0.9C232.7,68.5,233,68.8,233.3,69.1z"/>
	<path class="st2" d="M232.4,68.2c-0.6,0-0.9-0.3-0.9-0.9C231.8,67.6,232.1,67.9,232.4,68.2z"/>
	<path class="st2" d="M231.5,67.3c-0.6,0-0.9-0.4-0.9-0.9C230.9,66.7,231.2,67,231.5,67.3z"/>
	<path class="st2" d="M230.6,66.4c-0.6-0.1-0.9-0.4-0.9-0.9C230,65.7,230.3,66.1,230.6,66.4z"/>
	<path class="st2" d="M229.7,65.4c-0.5-0.1-0.8-0.4-0.9-0.9C229.1,64.8,229.4,65.1,229.7,65.4z"/>
	<path class="st2" d="M228.8,64.5c-0.5-0.1-0.8-0.4-0.9-0.9C228.2,63.9,228.5,64.2,228.8,64.5z"/>
	<path class="st2" d="M227.9,63.6c-0.5-0.1-0.8-0.4-0.8-0.9C227.3,63,227.6,63.3,227.9,63.6z"/>
	<path class="st2" d="M227,62.7c-0.5-0.1-0.7-0.3-0.8-0.8C226.4,62.1,226.7,62.4,227,62.7z"/>
	<path class="st2" d="M226,61.7c-0.4-0.1-0.6-0.3-0.7-0.7C225.6,61.2,225.8,61.4,226,61.7z"/>
	<path class="st2" d="M225.1,60.7c-0.2-0.2-0.4-0.4-0.6-0.7C224.7,60.3,224.9,60.5,225.1,60.7z"/>
	<path class="st2" d="M224.2,59.7c-0.3-0.1-0.5-0.3-0.6-0.6C223.9,59.3,224.1,59.5,224.2,59.7z"/>
	<path class="st2" d="M223.3,58.8c-0.3,0-0.5-0.2-0.5-0.5C223,58.3,223.2,58.5,223.3,58.8z"/>
	<path class="st2" d="M222.4,57.8c-0.3,0-0.4-0.2-0.4-0.4C222.1,57.4,222.3,57.6,222.4,57.8z"/>
	<path class="st2" d="M220.5,55.7c-0.5-0.2-0.8-0.6-0.8-1.1C220,54.9,220.2,55.3,220.5,55.7z"/>
	<path class="st2" d="M219.7,54.5c-0.5-0.1-0.8-0.4-0.9-0.9C219.1,53.9,219.4,54.2,219.7,54.5z"/>
	<path class="st2" d="M218.8,53.5c-0.4-0.1-0.7-0.3-0.7-0.8C218.3,53,218.5,53.3,218.8,53.5z"/>
	<path class="st2" d="M217.8,52.4c-0.3-0.1-0.5-0.3-0.5-0.6C217.5,52,217.7,52.2,217.8,52.4z"/>
	<path class="st2" d="M210.5,44.6c-0.5-0.2-0.8-0.5-0.8-1C209.9,43.9,210.2,44.3,210.5,44.6z"/>
	<path class="st3" d="M369.1,718c-1.8,0.1-3.6,0.2-5.4,0.2c-36.3,0-72.7,0-109,0c-2.6,0-5.1-0.1-7.7-0.1c-1.9-0.8-3.2-2.2-4.1-4.1
		c-11.6-25.3-25.2-49.6-36.1-75.2c-0.3-0.7-0.5-1.4-0.7-2.2c-0.2-0.9-0.2-1.8-0.6-2.6c-2.9-5.8-5.1-12-8.2-17.7
		c-1.2-2.3-1.8-4.8-2.6-7.3c-2-6.7-5-13-7.9-19.4c-3.1-6.9-5.8-14-8.8-21c-0.7-1.7-1.3-3.4-2.4-4.9c-4.7-6.7-7.6-14.2-10.1-21.8
		c-5-15.3-11.4-30-17.9-44.7c-1.2-2.8-2.8-5.5-1.5-8.7c1.4-1.2,1.2-2.6,0.6-4.1c-0.8-2.1-0.6-4.2,0.1-6.2c0.3-0.9,0.6-1.7,1.1-2.5
		c1.1-1.7,2.6-3.1,4.8-2.7c2.1,0.4,2.8,2.1,3.1,4c0.4,2.1,0.7,4.2,0.2,6.3c-0.2,0.9-0.4,1.8-0.5,2.7c-0.2,2.3,0.3,3.1,2.6,3.5
		c1.9,0.3,3.9,0.3,5.9-0.2c2.8-0.7,5.7-0.5,8.6-0.5c0.8,0,1.5,0,2.3,0.2c1.2,0.3,2.6,0.6,2.8,1.9c0.3,1.4-0.9,2.1-2,2.7
		c-1.3,0.7-2.8,1.2-4.3,1.3c-1.7,0.1-3.4,0.1-4.8-0.2c0.9,0,2.1,0.4,3.2,0.4c1.1,0,2.1,0.7,2.4,1.8c0.5,1.3-0.4,2.3-1.3,3.1
		c-0.7,0.6-1.5,1-2.3,1.5c-2.6,1.7-2.8,2.3-1.6,5.2c0.2,0.4,0.4,0.8,0.6,1.2c2.6,4.1,4.5,8.6,6,13.2c1.2,3.8,3.6,5.8,7.4,6.5
		c3,0.5,5.9,1.1,9,0.2c3.5-1,6.4,0.5,8.1,3.6c1.6,2.8,3.6,5.1,5.7,7.5c2.8,3.2,3.7,7.2,4,11.4c0.1,2,0.3,3.9,0.7,5.8
		c0.5,3,2.3,4.2,5,4.3c2.7,0.2,5.4,0.6,8.1,0.9c2.3,0.3,4.5,0.5,6.7,1.3c1.6,0.6,3.2,0.4,4.9,0c2-0.5,3.2-1.6,3.7-3.6
		c1.2-4.7,2.4-9.4,2.8-14.2c0.1-1.8,0.4-3.6,0.9-5.4c0.3-0.9,0.5-1.7,1.2-2.4c1.5-1.7,3-1.4,3.7,0.7c0.4,1.3,0.2,2.7,0.2,4.1
		c0,11.5,0,23,0,34.6c0,1.2-0.1,2.4,0.1,3.6c0.5,3.4,1.6,4.3,5.2,4.2c0.6,0,1.2-0.1,1.8-0.1c24.6-0.3,49.1,1.7,73.6,0.9
		c12.3-0.4,24.5,1.3,36.8,1c1.5,0,3,0.1,4.4,1c1.6,1.1,2.3,2.7,2.6,4.6c1.7,9,2.6,17.9,1.2,27c-0.2,1.4-0.3,2.7-0.3,4.1
		c-0.1,20.4,0.2,40.8-0.6,61.2c-0.1,3.5,0.1,7,0.8,10.4c-0.4,6-0.1,11.9-0.2,17.9C370.9,714.4,371.1,716.6,369.1,718z"/>
	<path class="st4" d="M369.1,718c0-7.8,0.1-15.6,0.1-23.5c0.5-1.5,0.3-3,0.3-4.5c0-5.5,0-10.9,0-16.4c0-3.9,1.3-5.8,5-6.3
		c3.7-0.5,6.8-2.5,10.3-3.3c0.7-0.2,1.5-0.5,2-1.1c2.6-2.8,5.3-5.5,6.4-9.3c0.8-2.8,1.7-5.5,2.2-8.3c1-5.3,4.4-7.8,9.7-7
		c7.8,1.1,15.6,1.7,23.5,1.5c2.9-0.1,5.7-0.1,8.6,0.6c1.5,0.4,3,0.2,4.5,0.2c4.1,0,8.2,0,12.3,0c3.8,0,7.5,1.1,11.3,0.9
		c3.6-0.2,7.3-0.5,10.9,0.2c4.6,0.8,9.3,0.8,14,1.3c4.8,0.6,9.6,1.4,14.5,1.2c2.6-0.1,5.1,0.5,7.7,0.9c3.9,0.5,7.8,0.9,11.7,1.3
		c2.3,1.6,1,3.3,0.3,5.1c-3.3,8.7-6.8,17.3-10.9,25.7c-0.3,0.5-0.2,1.2-0.3,1.8c-3.1,7.4-6.7,14.5-9.5,22c-1.6,4.1-3.3,8.1-4.9,12.2
		c-0.8,2-1.8,3.8-3.9,4.8c-32.4,0-64.8,0.1-97.2,0.1C388.2,718.2,378.6,718.1,369.1,718z"/>
	<path class="st5" d="M207.8,636.3c2.3,5.2,4.6,10.5,7,15.7c4.1,8.8,8.1,17.6,12.5,26.1c4.4,8.4,8.4,17.1,12.7,25.5
		c2.4,4.7,4.6,9.6,6.8,14.4c-0.9,0.1-1.8,0.2-2.6,0.3c-2,0-3.9-0.1-5.9-0.1c-32,0-64,0-95.9,0c-1.8,0-3.6-0.1-5.5-0.1
		c-0.3-1.5-0.4-3-0.8-4.4c-3.2-12.1-5.8-24.4-7.9-36.8c-1.1-6.2-1.6-12.6-2.4-18.9c-0.8-6.6-0.3-13.3-1.4-19.9c-0.2-1.5,0-3,0-4.5
		c0.9-0.6,1.9-1,3-1c9.8,0.1,19.6-0.7,29.5,0.5c5.4,0.7,10.9,0.7,16.3,0.1c9.4-1.2,18.7-0.4,28.1-0.7
		C204.3,632.5,206.5,633.6,207.8,636.3z"/>
	<path class="st6" d="M494.9,718.1c3.8-9.3,7.7-18.6,11.5-28c1.6-3.9,3.4-7.7,5.6-11.3c2.4-3.1,5.9-3.4,9.4-3.5
		c11.3-0.4,22.6,1,33.9,1.5c11.8,0.5,23.5,2.1,35.2,2.2c4.9,0,5.6,0.9,5.2,5.5c-1.7,9.5-3.6,18.9-5.8,28.3c-0.4,1.8-0.7,3.5-1,5.3
		c-0.5,0.1-1,0.1-1.5,0.2c-1.6,1.8-3.7,1.8-5.8,1.8c-26.5,0.1-52.9,0.1-79.4,0c-2.1,0-4.3,0-5.8-1.9
		C496,718.3,495.4,718.2,494.9,718.1z"/>
	<path class="st7" d="M251.7,586.2c-1.5,0-3,0.2-4.5,0c-2.3-0.2-2.5-0.5-2.8-2.7c-0.1-1.2,0-2.4,0-3.6c0-12.9,0-25.8,0-38.7
		c0-1.3,0.4-2.7-0.6-4.1c-1.4,1-1,2.5-1.3,3.7c-0.3,1.2-0.6,2.4-0.7,3.6c-0.2,4.4-0.9,8.7-2.3,12.9c-0.3,1-0.4,2.1-0.6,3.1
		c-0.5,2.2-1.6,3.7-4.1,4.3c-2.7,0.6-5.3,1.1-7.9-0.3c-0.7-0.4-1.4-0.6-2.2-0.7c-3.6-0.4-7.2-0.7-10.8-1c-0.9-0.1-1.8-0.2-2.7-0.3
		c-2.4-0.5-4-1.6-4.3-4.5c-0.2-2.2-0.8-4.5-0.7-6.7c0.2-3.5-1.4-6.5-2.5-9.6c-0.4-1.2-1.2-2.1-2.4-2.6c-2-0.9-3-2.5-3.5-4.5
		c-0.1-0.6-0.4-1.1-0.7-1.7c-1.9-3.4-3.2-4-7-2.8c-2.1,0.7-4.1,1-6.2,0.3c-1.4-0.5-2.9-0.7-4.4-0.9c-3.8-0.5-5.9-2.8-6.9-6.3
		c-0.4-1.3-0.8-2.6-1.3-3.9c-1.5-3.5-2.7-7.1-4.9-10.2c-0.9-1.2-1.5-2.7-1.7-4.2c-0.4-2.2-0.2-3.8,2.5-4.5c1.7-0.5,3.5-0.8,5-2.6
		c-2.6-1.8-5-3-8-1.4c-1.3,0.7-2.5,0.6-3.5-1c1.7-1.5,3.6-1,5.3-1c2,0,3.9-0.3,5.8-1.1c1.7-0.7,3.6-0.5,5.2-1.7
		c-2.9-0.9-7.8-1.2-11.2-0.4c-2.6,0.6-5.1,0.6-7.7,0.4c-3.4-0.2-4.8-2.2-4.2-5.5c0.1-0.3,0.1-0.6,0.3-0.9c1.5-2.7,0.8-5.6,0.4-8.4
		c-0.1-1.1-0.1-2.3-1.3-2.6c-1.3-0.3-2.4,0.5-3,1.7c-1.3,2.6-2.7,5.1-1.4,8.2c0.4,1,0.8,2,0.9,3c0.2,1.3,0.1,1.3-2.5,1.9
		c-2.9,0-3.1-2.5-3.8-4.4c-0.6-1.5-0.7-3.2-1.3-4.8c4.8-20.3,9.7-40.7,14.5-61c2.7-11.3,5.4-22.7,8-34c1.2-5,1.5-5.7,5.9-7.9
		c3.2-1.7,6.4-3.5,9.9-4.6c0.5,0.2,1.1,0.5,1.7,0.5c0.4,0,0.8,0.1,1.2,0.2c2.8,1.2,5.1,3.4,8.1,4.3c0.4,0.1,0.8,0.2,1.2,0.4
		c0.6,0.2,1.2,0.5,1.8,0.8c0.4,0.2,0.8,0.5,1.1,0.8c7.9,4.4,16.5,7.3,24.9,10.7c7.3,2.9,14.8,5.1,22.3,7.4c2.3,0.7,4.8,1.3,5.3,4.3
		c0.9,11.2,0.8,22.4,0.1,33.6c-0.2,3.9-0.5,7.8-0.5,11.8c0.2,15.3-0.6,30.6,0.6,45.8c0.7,4-0.8,7.7-1,11.6
		c-3.1,8.2-3.2,16.4-0.2,24.7c1,3.9,0.5,7.8,0.6,11.7c0.1,11.7,0.1,23.3,0,35c0,3.6,0,7,3.9,8.8
		C251.6,584.8,251.7,585.5,251.7,586.2z"/>
	<path class="st8" d="M258.9,317c-3.1-0.6-6,0.5-8.9,1c-14.7,2.5-29.3,5.6-43.8,9.2c-7.8,1.9-15.5,3.8-23.3,5.7
		c-0.4,0.1-0.9,0.2-1.3,0.3c-3.6,0.6-3.9,0.2-2.7-3.5c0.8-2.6,1.5-5.2,2-7.9c1-4.6,1.7-9.2,2.7-13.8c1.5-7.1,3.2-14.2,4.8-21.2
		c1.7-7.5,3.4-15,5.2-22.5c0.8-3.2,1.2-6.5,2.6-9.6c1.5-3.7,1.9-7.7,2.8-11.5l0.1-0.3c0.7-2.4,1.1-4.8,1.6-7.2
		c0.1-0.3,0.1-0.6,0.2-1c1.3-3.5,2-7.1,2.6-10.8l0.1-0.2c1.5-2.8,1.6-6.1,3-9c0.4-0.8,0.5-1.7,1.1-2.5c1.9-2.6,4.8-2.8,7-0.5
		c1,1,1.5,2.3,1.9,3.6c1,3.3,1.8,6.7,2.6,10.1c0.4,1.6,0.4,3.3,0.1,5c-0.3,2-0.5,3.9-1.2,5.8c-1.5,3.9,0.3,7.4,1.2,11.1
		c0.4,1.5,1.7,2.1,2.8,2.8c3,2,6.3,3.7,9.5,5.4c2.7,1.4,4.8,3.1,6.2,5.7c1.3,2.5,3.5,4.1,5.6,5.8c5,4,5.2,7,1,11.8
		c-1.2,1.4-2.5,2.6-3.8,3.9c-2.1,2.2-4.2,4.3-5.7,7c-1.8,3.4-5,5.2-8.4,6.6c-1.1,0.5-2.3,0.8-3.2,1.6c-0.5,0.4-0.9,0.9-0.8,1.5
		c0.1,1,0.8,1.1,1.6,1.2c2.3,0.1,4.5,0.6,6.8,0.4c2-0.2,3.5-0.9,4.5-2.7c1.1-1.8,2.3-3.6,3.7-5.2c0.6-0.7,1.1-1.4,1.8-2
		c1.8-1.6,3.7-1.9,5.7-0.4c0.8,0.6,1.3,1.7,2.5,1.8c1.1-1,0.8-2.3,0.6-3.4c-0.9-8.2-1.4-16.5-1.6-24.8c-0.5-17.6-2.2-35.1-0.1-52.6
		c0.7-5.6,2.6-7.6,8-9c3.9-0.9,7.8-0.4,11.7-0.3c12.1,0.2,24.2,0.7,36.3-0.3c5-0.4,9.9,1,14.9-0.2c2.3-0.5,4.2-1.1,6.1-2.6
		c8.1-6.4,17.8-3.7,21.2,6c1.9,5.4,2.8,11.1,4.3,16.5c1.3,4.8,0.3,11.5,6.7,14.3c2.8,1.2,5,1.7,7.3-0.9c1.1-1.2,2.5-3,4.5-1
		c1.8,4.2,0.7,8.6,1,12.9c0.1,1.8,0.1,3.6,0.2,5.4c-0.6,3.8-1.1,7.6-0.3,11.4c0.1,1.3-0.1,2.5-0.6,3.7c-1,1.8-2.9,2.4-4.5,3.6
		c-2.9,2.1-2.7,4.3,0.7,5.6c1.4,0.6,2.8,1.1,3.4,2.7c0.3,1,0.1,1.9-0.5,2.7c-2,1.9-4.6,2-7.2,2.4c-14.2,1.9-27.9,5.5-39.8,14
		c-3.7,2.7-6.7,6.1-9.9,9.3c-2.4,2.4-5.1,3.4-8.5,3.5c-9.4,0.4-18.5,2.6-27.8,4c-4.6,0.7-9.3,1.2-13.9,2
		C260.4,317.9,259.6,317.5,258.9,317z"/>
	<path class="st9" d="M258.9,317c4.3-0.7,8.7-1.3,13-2c6-1,11.9-1.9,17.9-2.9c4.3-0.8,8.7-1.6,13.1-1.6c2.8,0,4.9-1,6.7-3.1
		c3.4-3.7,6.9-7.3,11-10.2c9-6.5,19.2-10.4,30-12.4c5.8-1.1,11.7-1.9,17.5-2.8c3-2.6,6.7-1.8,10-1.5c20.6,1.6,38.8,9.1,54,23.3
		c1.7,1.6,3.8,2.4,6,3c5,1.4,10.1,2.1,15,3.6c0.4,0.1,0.8,0.2,1.2,0.4c0.6,0.2,1.1,0.5,1.7,0.7c0.8,0.1,1.5,0.3,2.3,0.4
		c0.6,0.1,1.2,0.2,1.7,0.3c1,0.2,2,0.3,3,0.5c0.7,0.1,1.3,0.2,2,0.3c6.9,1.4,13.7,3.3,20.6,5c2.1,0.5,4.6,0.9,5.3,3.6l0,0.5
		c-2,2.3-4.5,1.2-6.8,0.7c-7.5-1.9-15-3.6-22.5-5.2c-0.7-0.1-1.3-0.4-1.9-0.8c-1-0.5-2.1-0.5-3.2-0.6c-0.6-0.1-1.2-0.4-1.8-0.6
		c-0.8-0.2-1.7-0.2-2.5-0.4c-5.4-1.2-11-1.4-15.7-4.1c1.8,3.5,7,9.2,11.5,12.3c0.8,0.5,1.4,1.2,1.4,2.2c-0.1,0.5-0.4,0.8-0.8,1.1
		c-0.7,0.3-1.4,0.4-2.1,0.4c-0.7-0.1-1.4-0.4-2.1-0.6c-6.2-1.5-12-4-18.1-5.6c-3.2-0.8-6.4-1.8-9.6-2.6c-3.7-0.9-7.4-1.6-11.1-2.5
		c-0.6,0.1,0.2,0.7,0,0.1c-0.1-0.3,0-0.4,0.2-0.3c9.5,2.4,19,4.7,28.4,7.6c1,0.3,2.1,0.4,2.7,1.4c1,3.8-0.7,7.1-2.2,10.4
		c-3.4,7.4-8.6,13.1-15.5,17.3c-12.5,7.8-25,15.4-39.7,18.3c-4,0.8-8,1.4-12.1,1.2c-2-0.3-4-0.4-6-0.7c-0.8-0.2-1.6-0.4-2.4-0.6
		c-0.6-0.1-1.1-0.3-1.7-0.5c-0.7-0.2-1.4-0.5-2.1-0.7c-0.4-0.1-0.7-0.2-1-0.3c-0.8-0.3-1.6-0.7-2.5-0.7c-0.4,0-0.7-0.1-1-0.2
		c-0.7-0.2-1.3-0.4-2-0.6c-0.4-0.1-0.7-0.2-1-0.3c-0.7-0.2-1.3-0.6-2-0.7c-0.4-0.1-0.7-0.1-1.1-0.3c-0.9-0.3-1.9-0.4-2.9-0.5
		c-16.9-5.1-30.7-14.3-38.8-30.4c-1.3-2.6-2.8-2.7-5-2.3c-0.3,0.1-0.6,0.2-0.9,0.3c-2,0.8-4.8,2.7-5.9-0.2c-1-2.5,2.6-2.6,4.2-3.8
		c1.1-0.7,2.6-0.8,3.6-1.9c-1.5-0.9-3-0.2-4.3,0.1c-9.5,2.3-19.5,2.1-28.8,5.3c-1,0.3-2.1,0.3-3.1,0.1c-2.6-1.3-4.9-0.2-7.4,0.6
		c-1.6,0.5-3.2,1-4.8,1.1c-1.5,0-3.1,0.1-4.2-1.3c-0.3-0.2-0.6-0.4-0.8-0.6c0.3-1.2,1.2-1.9,2.2-2.1c8.7-1.5,16.7-6.5,26.1-4
		c3.5,0.9,7.3-1.4,10.9-2.3c5.1-1.2,10.3-1.9,15.2-3.9c-7.8,1.2-15,4.4-22.8,5.8c-1.3,0.2-2.8,1.3-3.4-0.6c-0.5-1.5,0.9-2.5,2-3.2
		c1.9-1.2,4.2-1.8,6.3-2.5c7.2-2.5,14.5-4.5,20.4-6.4c-11.8,1.8-24.9,4-38,5.8c-1.9,0.3-4,0.5-5.3-1.6
		C258.9,317.3,258.9,317.1,258.9,317z"/>
	<path class="st10" d="M368.1,233.9c-1.2,1.6-2.3,3.2-3.5,4.7c-0.7,0.9-1.5,1.3-2.8,1.2c-3.3-0.3-6-1.9-8.7-3.5
		c-1.3-0.8-1.9-2.3-2.7-3.6c-0.4-0.7,0-1.4,0.3-2.2c0.9-2.7,0.9-2.7-1.3-4.5c-0.3-0.3-0.8-0.5-1.1-0.8c-0.9-0.8-1.3-1.9-0.6-2.8
		c1.4-1.9,1.1-3.6,0.1-5.5c-0.5-1.1-1-2.2-1.2-3.4c-0.4-3.4-2-6.3-2.9-9.5c-0.5-1.9-1.7-3.2-3.5-4c-1-0.4-1.9-1-2.9-1.3
		c-4.4-1.7-8.4-0.7-11.5,2.7c-1.6,1.7-3.3,2.5-5.5,2.5c-1.2,0-2.4,0-3.6,0.3c-2.7,0.7-5.4,0.8-8.1,0c-1.5-0.4-3-0.4-4.5-0.1
		c-5.6,1.1-11.1,0.8-16.7,0.2c-0.9-0.1-1.8-0.3-2.7-0.2c-6.9,0.8-13.8,0.9-20.8-0.2c-4-0.6-7.8,0.6-11.5,1.9
		c-1.7,0.6-2.5,2.4-2.5,4.1c-0.1,4.5-1.3,9-1.1,13.6c0.2,6.4,0,12.7,0.1,19.1c0,3.3-0.2,6.6,0.7,9.9c0.4,1.6,0.2,3.3,0.2,5
		c0.1,2.7-0.2,5.5,0.7,8.1c0.4,1.2,0.1,2.4-0.2,3.6c-0.8,3.1-0.6,6.3,0,9.4c0.9,4.6,1.6,9.2,1.3,14c-0.1,1.2-0.1,2.4-0.8,3.5
		c-0.4,0.6-0.9,0.8-1.5,0.3c-1.8-1.3-2.8-3.1-4.1-4.8c-0.8-1-1.9-1.1-2.6,0.1c-1.8,2.8-4.5,4.9-5.8,8.1c-0.8,2-2.4,3.1-4.6,3.1
		c-2.1,0.1-4.2,0.8-6.2-0.4c-0.8-0.5-1.8,0.1-2.7,0.2c-0.9,0.1-1.8,0-2.7-0.1c-0.9-0.2-1.5-1.1-1.3-2.1c0.4-2.6,1.8-4.5,4.3-5.4
		c1.1-0.4,2.4-0.6,3.4-1.1c3-1.5,5.8-3.2,6.9-6.7c0.5-1.5,1.6-2.5,2.7-3.6c1.8-1.8,3.6-3.6,5.5-5.5c0.5-0.5,1.1-1.1,1.6-1.6
		c3.2-3.5,3-5.9-1.2-7.8c-2.4-1.1-3.4-3.8-5.9-4.9c-0.4-0.2-0.5-1-0.7-1.6c-0.6-2.4-2.1-3.8-4.3-4.8c-4.5-2.2-8.8-4.7-13.2-7.1
		c-1-0.6-1.5-1.4-1.5-2.6c0-1.4-0.3-2.7-0.9-4c-1.1-2.1-1.1-4.3-0.5-6.6c0.7-2.6,1.1-5.3,1.8-8c0.3-1.1,0.2-2.1-0.1-3.1
		c-1-3.6-2-7.3-3-11c-0.2-0.7-0.3-1.5-0.7-2.2c-1.1-2-3.5-2.9-4.9-0.1c-1.4,2.7-3.1,5.2-3.7,8.3c-0.2,1.1-0.7,2-1.8,2.4
		c-0.1-2.9,0.9-5.6,1.5-8.4c1.1-4.8,2.3-9.6,2.4-14.6c0.6,0.7,0,1.9,1.2,2.6c2.1-2,4.3-4.1,6.4-6.2c7.6-7.6,15.6-14.8,23.7-21.9
		c8.4-7.4,17.5-13.9,26.9-20c7.5-4.8,15.1-9.5,23.2-13.3c4.8-2.2,3.5-2.5,7.6,1.4c6.9,6.8,13.7,13.7,20.6,20.5
		c0.6,0.6,1.3,1.3,1.9,1.9c12.8,11.8,24.6,24.6,36.4,37.4c3.2,3.5,6.3,6.9,9.5,10.4c0.4,0.4,0.8,0.9,1.3,1.3
		c0.2,0.2,0.6,0.3,0.8,0.2c0.2-0.1,0.5-0.4,0.5-0.6c0.1-1.4,0.1-2.7,0.2-4.1c0.1-1.7-0.2-3.3,0.4-5c1.7,0.9,2,2.5,2.1,4.2
		c0.2,6.6,0.2,13.2,0,19.9C370,231.2,369.7,232.9,368.1,233.9z"/>
	<path class="st11" d="M141.8,479.7c1.1,1,2,2.1,2.5,3.5c0.7,1.9,1.7,3.7,2.5,5.6c0.1,2.3,1,4.4,1.9,6.5c1,2.4,2.1,4.7,3.1,7.1
		c2.3,5.3,4.7,10.5,6.9,15.8c2.2,5.3,4.3,10.7,6.1,16.2c2.1,6.3,4.4,12.6,7,18.8c0.9,2.1,1.8,4.2,3.2,6c2.7,3.7,4.5,7.9,6.2,12.1
		c0.7,1.8,1.5,3.6,2.3,5.4c0.4,0.8,0.9,1.6,1.1,2.5c1.2,4.9,3.7,9.3,5.7,13.8c2.6,6,5.2,11.9,6.9,18.2c1.1,4,3.4,7.4,5,11.2
		c2,4.6,4,9.1,5.5,13.9c-1.4-1.5-3.1-2.1-5.2-2.1c-7.4,0.2-14.8,0-22.2,0.4c-5.7,0.2-11.5,0.8-17.2,0.5c-11.6-0.6-23.3-0.6-34.9-0.7
		c-1.4,0-2.7,0-3.9-0.9c-0.2-12.3-0.2-24.5,0.4-36.8c0.4-8.2,0.6-16.4,1.3-24.5c0.6-6.2,1.3-12.4,2.1-18.5
		c1.1-8.6,2.3-17.1,3.6-25.6c1.7-11.4,4-22.7,6.6-33.9C139.6,489.4,140.7,484.6,141.8,479.7z"/>
	<path class="st12" d="M295.4,330.5c-0.8,1.2-2.6,0.7-3.6,2.1c0.8,0.5,1.6,0.3,2.3-0.1c2.2-1.2,4.6-1.5,6.9-2.2
		c1.5-0.5,2.3,0.1,2.5,1.6c0.1,1.1,0.2,2,1,2.9c0.7,0.7,1.2,1.7,1.7,2.7c6,10.5,14.9,17.7,25.9,22.4c3.5,1.5,6.9,3.2,10.6,4
		c0.7,0.9,2,0,2.7,0.9l0.1,0c0.8,0.8,2,0,2.7,0.8c0.3,0.1,0.6,0.2,0.8,0.2c0.6,0.3,1.3,0.2,1.9,0.6c0.3,0.1,0.6,0.2,0.9,0.2
		c0.8,0.7,1.9,0,2.7,0.7c0.3,0.1,0.6,0.2,0.9,0.2c0.6,0.4,1.3,0.2,1.8,0.6c0.6,0.1,1.2,0.1,1.8,0.2c0.5,0.5,1.3,0.3,1.8,0.7
		c2.2,0.3,4.4-0.1,6.4,1c4.3,4.2,3,9.1,1.8,14c-2,2-2.9,0.2-3.8-1.2c-0.8-1.3-1.2-2.8-1.5-4.3c-0.5-2.5-2-3.4-4.3-4
		c-10.4-2.4-20.8-5.3-31.1-8.1c-3.5-0.9-6.5-0.1-9.7,0.8c-0.9,0.3-1.8,0.8-1.7,1.8c0.1,1.1,1,1.4,1.9,1.6c2.1,0.3,4.2,0.2,6.3,0.2
		c6.5,0.2,10.5,3.8,11,10.2c0.4,5.7,0.2,11.5,0.5,17.2c0.1,2.5-0.8,4.8-2.5,6.7c-2.3,2.6-1.1,3.7,1.4,5c6.3,3.2,13.3,2.5,20,3.6
		c2.1,0.3,4.3-0.2,6.3,0.5c3.1,1.1,4.4-2.3,6.9-2.3c2.1,1.8,1.9,3.8,0.5,5.9c-3.2,2-6.8,1.1-10.1,0.8c-6-0.5-12-0.9-18-1.5
		c-26-1.3-51.5-5.5-77-10.5c-4.6-0.9-9-2.4-13.5-3.6c-1.8-0.5-3.3-1.5-4.5-2.9c-1.5-1.4-3.6-1.6-5.4-2.1
		c-14.7-4.3-28.8-9.8-42.9-15.9c-1.7-0.7-3.2-1.6-4.6-2.8c1-1.7,2.8-1.7,4.4-1.7c1.5,0,3.2,0.2,4.4,1c10.3,7.3,23.1,8.9,34.2,14.3
		c5.6,2.7,11.8,3.5,18,4.1c2.1,0.2,2.8-0.6,2.6-2.5c-0.2-1.9-0.2-3.8,1.2-5.2c2.5-2.5,2.1-4.9,0.7-7.8c-2.2-4.8-5-9.4-2.2-15.1
		c1-1.9-0.9-2.7-2.5-2.6c-2.4,0.1-4.8,0.6-7.1,1.6c-1.4,0.6-2.7,1.4-4.1,1.9c-1.4,0.5-3.1,1.4-4.2-0.1c-1.1-1.6,0.4-2.8,1.4-3.9
		c0.3-0.3,0.7-0.6,1.2-0.9c-3.2,1.4-5.7,3.5-8.5,5.3c-1.9,1.2-3.7,2.7-6.2,2.2c-0.4-0.2-0.7-0.5-0.9-0.9c-0.2-2.2,1.8-3.4,2.6-5.5
		c-3.2-1.3-5.9,0-8.3,1.8c-4.4,3.2-9.2,5.2-14.4,6.5c-2.3,0.6-4.9,1.7-6.4-1.2c-1.2-2.3,0.7-6.3,3.5-7.5c3.9-1.6,7.8-3,11.7-4.8
		c12.6-4.7,25.2-9.4,37.9-13.9c0.5-0.2-0.2,0.1,0.3-0.1c-0.2,0.1-0.4,0.1-0.6,0.1c-7.6,2.6-15,5.6-22.5,8.2
		c-5.2,1.8-10.4,3.7-15.5,5.9c-9,2.5-16.2,8.9-25,11.9c-1.9,0.7-3.8,2-6,0.6c-0.5-0.6-1.2-0.8-2-0.8c-0.9,0-1.8-0.2-2.5-0.8
		c1-4.4,8.2-10.7,12.5-11.7c7.4-1.7,14.2-4.7,19.8-10.1c3.6-3.4,8.5-4.4,13-6.1c8.7-3.4,17.7-5.9,26.5-8.8c2.8-0.8,5.7-1.6,8.5-2.4
		c1.2-0.3,2.3,0.1,3.4,0.8c0.3,2.2-1.5,2.8-3,3.4c-17.6,6.8-33.7,16.6-51.3,23.3c-0.3,0.1-0.6,0.1-1,0c0.1,0.1,0.2,0.2,0.3,0.4
		c0.3-0.3,0.6-0.4,1-0.4c14.2-6.3,28.4-12.7,43-17.9c4.9-1.7,9.5-4.5,14.3-6.9c4.1-2,8.3-3.5,12.8-4.1c1.1-0.2,2.6-0.7,3.2,0.8
		c0.4,1.2-0.2,2.4-1,3.3c-1.2,1.4-2.9,2.2-4.7,2.6c4-0.9,6.3-4.7,10.1-5.8c1.9-0.5,3.7-1.5,5.6-1.6
		C293.4,328.4,295.3,328,295.4,330.5z"/>
	<path class="st8" d="M226.1,369.5c2.8-1.1,5.4-2.7,7.8-4.5c3.1-2.4,6.5-4.6,10.5-5c0.4,0,1,0.1,1.2,0.4c0.4,0.5,0.2,1.2-0.3,1.6
		c-1.7,1.3-3.4,2.5-5.2,3.7c-0.3,0.2-0.7,0.5-0.5,1.3c2-0.4,3.9-1.5,5.6-2.6c2.9-1.9,6.4-1.5,9.5-2.7c1.2-0.4,4.3,1.8,4.7,3.1
		c0.1,0.3,0.1,0.6,0,0.9c-0.1,0.4-0.3,0.9-0.5,1.2c-3.4,5.6-2.5,4-0.4,10c0.7,2.1,1.8,4.2,2.7,6.3c0.5,1.2,2.2,1.9,1.8,3.5
		c-0.3,1.2-1.6,1.7-2.5,2.5c-1.8,1.5-2.6,3.2-1.7,5.6c0.3,0.7,0.4,1.5,0.5,2.2c0.2,1.4-0.6,2.5-2,2.4c-3.7-0.3-7.5-0.6-11.2-1.4
		c-1.9-0.4-3.7-1.3-5.7-1.2c-0.7,0-1.6-0.1-2.2-0.5c-4.9-2.8-10.2-4.6-15.4-6.6c-1.1-0.4-2.2-1-3.5-1c-3.9-0.2-7.3-1.8-10.5-4
		c-1.8-1.2-3.6-2.2-5.4-3.3c-2.4-1.5-5-2.1-7.8-1.9c-0.8,0.1-1.5,0-2.3,0.1c0,0,0,0,0,0c-0.4-0.6-1.3-0.4-1.7-0.9l-0.1,0
		c-3-2.2-6-4.5-9.8-5.4l-0.3-0.2c-0.2-0.2-0.3-0.4-0.3-0.6c0-0.2,0.1-0.3,0.2-0.3c0.4-0.7,1.1-0.8,1.9-0.8
		c9.1-3.9,18.2-7.8,27.2-11.7c1.3-0.5,2.5-1,3.9-1l0.1,0.1c-2.5,2.1-5.7,2.8-8.6,4.1c-3.8,1.7-3.9,1.6-4.9,5.6
		c-0.2,0.6-0.3,1.2-0.4,1.8c-0.1,0.8,0.5,1.1,1.2,1.1c0.7,0,1.5-0.3,2.2-0.5c2.5-0.7,4.9-1.4,7.4-2.2c1.1-0.4,2.2-0.9,3.3-1.5
		c1.2-0.7,2.3-1.5,3.4-2.3c5-3.3,5-3.3,10.9-3.5c1,0,1.8,0.1,2.2,1.1c0.6,1.3,0.4,2.3-0.7,3.2c-0.7,0.6-1.5,1-2.2,1.6
		C227.4,367.8,226.8,368.7,226.1,369.5c-0.9,0.7-2,1.2-2.9,1.9c-1,0.7-2,1.3-3,2c-1.6,1-3,2.3-4.5,3.5c1.5-1.3,3-2.5,4.6-3.6
		c1-0.7,2-1.3,2.9-2C224.2,370.7,225.2,370.2,226.1,369.5z"/>
	<path class="st8" d="M258.9,317.4c4,0.5,7.8-0.8,11.7-1.3c10.6-1.4,21.2-3.2,31.9-4.8c1.9-0.3,3.6,0.2,4.9,1.3
		c-3,1.5-6.1,3.2-9.6,4.1c-2.2,0.6-4.3,1.3-6.5,2c-4.7,1.6-9.5,3.1-14.2,4.7c-0.7,0.2-1.4,0.6-2.1,0.9c-0.4,0.2-0.8,0.5-0.5,1
		c0.1,0.2,0.5,0.3,0.8,0.2c0.4-0.1,0.8-0.3,1.3-0.5c7.6-3.1,15.4-5.3,23.3-7.4c1.1-0.3,2.4-0.3,3.6-0.5c-0.3,4.1-0.6,4.6-3.8,5.7
		c-0.3,0.1-0.6,0.2-0.9,0.2c-6.9,1.2-13.5,3.2-20.5,3.8c-2.4,0.2-4.8,0.6-7.2,1c-0.8,0.1-1.5,0.3-2.2-0.3c-1.2-0.9-2.3-0.4-3.4,0
		c-6.7,2.1-13.4,3.6-20.3,4.9c-4.4,0.9-8.9,1.7-13.3,2.6c-6.6,1.4-13.4,2.4-19.9,4.3c-8.1,2.3-16.3,4.6-24.4,6.8
		c-4.8,1.3-9.5,2.7-14.7,4.2c0.1-3.6,1.1-6.5,2-9.5c0.2-0.6,0.8-1,0.9-1.6c0.2-3.1,2.5-3.7,4.9-4.5c6.9-2.2,14-3.6,21.1-5.4
		c14.5-3.6,29.2-6.6,43.9-9.5c3-0.6,6-1,9-1.3C256.1,318.4,257.5,317.9,258.9,317.4z"/>
	<path class="st8" d="M250.6,333c0,0.3,0.1,0.8,0,0.8c-1.9,0.8-3.9,1.6-5.9,2.4c-5.4,2-10.9,3.8-16.1,6.2c-0.9,0.4-2,0.6-3,0.9
		c-2.3,0.7-4.7,1.1-6.7,2.5c-1.1,0.7-2.6,0.8-3.8,1.3c-1.5,0.5-2.8,1.2-3.3,2.8c-0.4,1.5-1.5,2.2-2.8,2.8c-2.6,1.3-5.1,2.6-7.8,3.8
		c-1.3,0.6-2.5,1.1-3.6,1.8c-1.9,1.2-3.9,2.3-6.4,1.4c-1-0.4-2.1,0.2-2.9,1c-0.6,0.5-1.2,1-1.6,1.6c-2.1,3-5,5.2-7.9,7.4
		c0,0-0.3,0-0.3,0l-0.3-0.1c-0.5,0.1-0.9,0.5-1.2,0.8c-0.5,0.2-1,0.3-1.5,0.5c-0.4,0.2-0.8,0.3-1.2,0.3c-2.3-0.9-3.7-3-5.5-4.5
		c0.1-0.6,0.1-1.2,0.2-1.9c0.3-0.5,0.2-1.2,0.6-1.7c0.2-3.2,1.3-6.2,2-9.3c0.3-1.3,1-2.2,2.3-2.6c1.4-0.5,2.8-1,4.3-1.4
		c11.9-3.3,23.8-6.7,35.8-9.8c9.9-2.6,20-4.4,30.1-6.1c0.8-0.1,1.5-0.3,2.1-0.8C247.6,333,249.1,333,250.6,333z"/>
	<path class="st7" d="M174.2,370.2c0.4,0.2,0.9,0.4,1.3,0.6c0.4,0.8,0.8,1.7-0.3,2.3c-2.1,1.1-4.3,2.2-6.5,3.2
		c-1,0.5-1.8-0.2-1.6-1.4c0.2-1.8,0.5-3.6,0.7-5.4C170.3,365.5,172.1,369.5,174.2,370.2z"/>
	<path class="st10" d="M203.3,223.9c0.3,3.9,0.1,7.6-2.6,10.8C200.8,230.9,201.9,227.4,203.3,223.9z"/>
	<path class="st10" d="M198.8,243.1c0.2,4.1-0.4,8-2.8,11.5C196.5,250.7,197.1,246.7,198.8,243.1z"/>
	<path class="st12" d="M174.2,370.2c-0.5-0.2-1.2-0.2-1.6-0.5c-1.6-1.3-3.2-1.2-4.8,0c0.2-1,0.2-2.2,1-3c1.3-0.1,2.6-0.4,3.5,1.2
		C172.7,368.7,173.5,369.4,174.2,370.2z"/>
	<path class="st10" d="M200.5,235.7c0.3,2.6,0,5-1.6,7.2C198.6,240.3,199.2,237.9,200.5,235.7z"/>
	<path class="st12" d="M169.5,363.1c0.1,0.7-0.1,1.2-0.6,1.7C168.9,364.2,169.1,363.6,169.5,363.1z"/>
	<path class="st12" d="M181.3,372.1c0.1,0.3,0.1,0.6,0.1,0.9c-0.5-0.2-0.9-0.5-1.4-0.7C180.5,372.2,180.9,372.1,181.3,372.1z"/>
	<path class="st12" d="M177,370.4c0.4-0.3,0.8-0.6,1.2-0.8C177.8,369.9,177.4,370.1,177,370.4z"/>
	<path class="st13" d="M368.1,233.9c0-8.6,0.1-17.1,0.1-25.7c0-0.9-0.1-1.8-0.2-2.7c-0.1-5.9-0.1-11.8-0.2-17.7c0-10-0.1-20,0-29.9
		c0-6.8,0.3-13.6,0.4-20.4c1,0.9,1.9,1.6,3.6,1.3c5-0.9,10.1-1.8,15.2-1.5c0.8,0,1.5,0.1,2.3,0c5.7-1.3,11.4-0.6,17.1-0.9
		c10.3,0,20.5,0,30.8,0.1c1.8,0,3.7-0.3,5.2,0.9c2.3,0,4.4,0.7,6.4,1.9c21.4,13,42.2,26.8,60.8,43.6c4.9,4.5,9.8,8.9,14.3,13.6
		c0.8-2.9-1.8-6.8,2.5-8.9c-1.2,18.2,5,35.2,8.8,52.6c0.8,3.7,1.9,7.3,2.2,11.1c-1.7,0.6-2.7-0.5-3.3-1.7c-1.9-3.5-4.2-2.7-6.7-0.9
		c-6.3,4.5-12.5,9.2-18,14.6c-10.6,10.7-22.9,19.4-34,29.6c-5.9,5.5-10.8,11.9-17,17c-1.2,0.9-2.1,2.3-3.8,2.4c-0.8,0-1.5,0.1-2.3,0
		c-5.3-1.2-10.6-2.4-15.9-3.7c-2.2-0.5-4.1-1.7-5.8-3.3c-11.4-10.5-24.4-18-39.7-20.9c-7.6-1.4-15.2-2.5-23-2.2c0-0.8,0-1.7,0-2.5
		c-2.5-3.7-2.7-7.4,0.1-11c0-1.2,0-2.4,0.1-3.6c0.7-4,0.7-7.9,0-11.9C368.2,246.6,368.1,240.2,368.1,233.9z"/>
	<path class="st14" d="M524.7,647.3c-4.8,2.2-9.6,0-14.3-0.3c-8.9-0.7-17.7-1.9-26.6-2.5c-15.1-1.1-30.2-1.2-45.3-2.1
		c-11.6-0.7-23.3,0.2-34.8-2.3c-3.6-0.8-6.1,1.5-6.4,5.3c-0.6,7.2-3.1,13.7-8.4,18.6c-3.4,3.2-8.2,4.3-12.9,5c-4.8,0.7-6,1.7-6,6.6
		c0,4.9,0,9.7-0.1,14.6c0,1.5,0.2,3.1-0.7,4.4c-0.1-1.2-0.2-2.4-0.2-3.6c0-22.6,0-45.2,0-67.8c0-2.3,0.2-4.5,0.6-6.8
		c0.7-4.3,0.5-8.8,0.2-13.2c-0.3-4.2-1.1-8.4-1.7-12.6c-0.1-0.9-0.6-1.7-0.9-2.6c0.3-1.3,1.3-2,2.4-2.5c0.9-0.3,1.8-0.4,2.7-0.4
		c23.4-0.1,46.9-0.2,70.3,0.1c2,0.7,4.1,0.9,6.2,0.4c0.9-0.2,1.8-0.5,2.7-0.4c9.8,1.2,19.6-0.5,29.3-0.4c9.8,0.1,19.6,0.2,29.4,0.3
		c8.8,0.1,11.4-2,12.5-10.6c1-7.7,2.1-15.5,0.1-23.2c-0.2-0.9-0.1-1.8,0.2-2.7c0.5-1,1.3-1.1,2.3-0.7c0.8,0.4,1.5,1.1,2.2,1.6
		c1.7,1.3,3.4,1.2,5-0.1c1.8-1.4,3.5-2.9,5.7-3.6c1.3-0.4,1.7-1.6,1.9-2.9c0.1-1.1,0.3-2.1,0.7-3.1c1.2-2.4,3.7-2.8,5.6-0.9
		c1,1,1.5,2.3,2,3.5c0.8,2.2,0.9,4.5,0.9,6.7c-0.1,2.6,0.3,5.1,0.9,7.7c0.2,0.9,0.4,1.8,0.8,2.6c0.5,0.9,0.7,2.2,2.1,2.1
		c1,0,1.3-1.1,1.8-1.9c0.5-0.9,0.9-1.9,1.3-2.9c0.7-1.7,1.4-3.3,2.4-4.9c0.8-1.5,1.7-2.9,3.5-3.4c0.2,0,0.5,0,0.7,0
		c0.5,0.2,0.7,0.5,0.7,1.1c-0.2,0.6-0.3,1.2-0.5,1.8c-0.2,0.3-0.4,0.6-0.6,1c-0.4,1.3-0.8,2.5-1.2,3.8c-0.3,0.2-0.4,0.4-0.5,0.7
		c-0.8,2.2-1.9,4.2-2.2,6.5c-0.3,0.2-0.5,0.5-0.6,0.8c-0.4,1.2-1.2,2.3-1.2,3.6c-0.2,0.3-0.4,0.6-0.6,0.9c-0.1,0.3-0.2,0.7-0.3,1
		c-0.3,0.2-0.4,0.4-0.5,0.7c-0.1,0.6-0.3,1.2-0.4,1.8c-0.2,0.3-0.4,0.7-0.7,1c-0.1,0.3-0.1,0.6-0.2,0.9c-0.2,0.3-0.4,0.6-0.6,0.9
		c-0.1,0.6-0.2,1.2-0.3,1.7c-0.2,0.4-0.4,0.7-0.7,1c-0.1,0.3-0.1,0.6-0.2,0.9c-0.2,0.3-0.4,0.6-0.6,0.9c-0.1,0.6-0.2,1.2-0.4,1.7
		c-0.2,0.3-0.4,0.7-0.6,1c-0.1,0.3-0.2,0.6-0.3,1c-0.2,0.3-0.4,0.5-0.6,0.9c-0.1,0.6-0.2,1.2-0.4,1.7c-0.2,0.3-0.4,0.7-0.6,1
		c-0.1,0.4-0.2,0.7-0.3,1.1c-0.3,0.2-0.5,0.4-0.6,0.7c-0.1,0.6-0.3,1.2-0.4,1.8c-0.2,0.3-0.4,0.6-0.6,0.9c-0.1,0.6-0.2,1.2-0.4,1.8
		c-0.2,0.3-0.4,0.6-0.6,0.9c-0.4,1.3-1.2,2.5-1.2,3.9c-0.7,1.1,0.6,2.1,0.1,3.2c-4.7,14.5-10.2,28.7-16.9,42.5
		C527.3,645.4,526.6,647,524.7,647.3z"/>
	<path class="st15" d="M562.9,548.8c-2.7,2.6-3.7,6.2-5.3,9.4c-0.9,1.8-1.5,3.6-2.5,5.3c-1,1.9-2.6,2-3.9,0.3
		c-1.3-1.7-2.3-3.6-2.7-5.7c-0.8-3.6-1.2-7.2-1-10.8c0.2-2.7-0.9-5-2.1-7.3c-0.4-0.8-1.1-1.1-1.9-0.9c-0.9,0.1-1.3,0.8-1.4,1.6
		c-0.1,1.2-0.1,2.4-0.1,3.6c0,1.8-0.8,3.2-2.5,3.3c-2.5,0.2-4.1,1.6-5.6,3.4c-1.9,2.1-4.3,1.8-6.7,1.2c-0.5-0.1-1-0.7-1.3-1.2
		c-0.7-1-1.4-2-2.1-3c-2.4-1.1-2.7-3.5-3.4-5.6c-2.3-7.1-3.1-14.4-2.6-21.9c0.2-2.4,0-4.8-0.6-7.2c0.1-19.4-0.2-38.7,0.2-58.1
		c-0.3-4.1-0.1-8.1-0.1-12.2c0-9.1,0-18.1,0-27.2c0-4.2,0.1-8.4-0.7-12.6c-0.5-3-0.2-6-0.1-9c0-1.4,0.5-2.6,1.2-3.8
		c1.7-3.7,5.5-4.2,8.6-5.9c2.5-1.4,5.2-2,7.8-3.2c1.1-0.4,2.2-0.7,3.1-1.5c6.1-2.8,12-6,17.8-9.5c2.5-1.5,5.1-4.1,8.5-1.7
		c3.2,2.8,2.3,6.9,3.3,10.4c2.4,8.1,4,16.5,5.9,24.7c0.1,0.6,0.1,1.3-0.4,1.7c-0.5,0.4-1.2,0.2-1.7-0.2c-3.3-2.4-6.7-4.7-9.9-7.2
		c-6.8-5.2-14.1-9.8-21.4-14.4c2.4,3,5.6,5.1,8.7,7.4c7.6,5.7,15.4,11.2,23.2,16.7c2.1,1.5,3.5,3.3,4,5.8
		c4.8,20.8,9.5,41.6,14.4,62.4c0.6,2.6,0.3,4.9-0.7,7.4c-3.8,9.5-8,19-10.7,28.9c0,0,0.1,0,0.1,0c-0.2,0.3-0.5,0.6-0.7,1
		c-0.1,0.5-0.2,1-0.2,1.5c-0.1,0.5-0.4,0.9-0.8,1.3c-0.1,0.2-0.2,0.4-0.1,0.7c-0.1,0.4-0.4,0.8-0.7,1.1c-0.1,0.3-0.1,0.6-0.2,0.9
		c-0.2,0.2-0.4,0.5-0.5,0.8c-0.1,0.5-0.3,1-0.4,1.6c-0.1,0.5-0.4,0.9-0.8,1.3c-0.2,0.2-0.2,0.5-0.1,0.7c-0.2,0.3-0.4,0.7-0.6,1
		c-0.1,0.3-0.2,0.6-0.3,0.9c-0.5,0.6-0.3,1.4-0.8,1.9c-0.2,0.2-0.2,0.4-0.2,0.7c-0.4,0.7-0.2,1.5-0.8,2.1l0,0
		c-0.5,0.5-0.4,1.2-0.7,1.8c-0.2,0.2-0.3,0.4-0.2,0.7c-0.3,0.7-0.3,1.5-0.8,2.1l0,0.1c-0.6,0.4-0.4,1.2-0.8,1.7
		c-0.2,0.2-0.2,0.4-0.2,0.7c-0.3,0.7-0.3,1.5-0.7,2.1l-0.1,0.1c-0.5,0.4-0.5,1.1-0.8,1.7c-0.1,0.3-0.1,0.6-0.2,0.9
		c-0.5,0.5-0.3,1.3-0.8,1.8c-0.1,0.2-0.2,0.5-0.2,0.8c-0.2,0.4-0.4,0.7-0.7,1.1c-0.1,0.3-0.1,0.6-0.2,0.9c-0.3,0.3-0.5,0.6-0.6,1
		l-0.3,0C563.3,547.5,563.7,548.5,562.9,548.8z"/>
	<path class="st16" d="M524.7,647.3c3.2-7.3,6.6-14.6,9.6-22.1c3.1-7.6,5.8-15.3,8.7-22.9c0.2-0.6,0.6-1,0.8-1.6
		c0.7-0.4,0.3-1.4,1-1.8c3.5-4.7,4.8-10.4,7.1-15.6c6.6-15.3,14-30.2,21.5-45c2.2-4.4,6.9-7,10.2-10.7c1.8-2,5-0.7,6.4,1.8
		c4,7.5,5.3,15.7,5.7,24c0.7,16.3,3,32.5,3.1,48.8c0.1,8.4,1.1,16.8-0.2,25.3c-0.4,2.7,0,5.4,1.5,7.9c1.5,1.1,0.9,2.7,0.8,4.1
		c-0.3,5.8-1.5,11.7-0.7,17.5c-0.7,4.1-0.6,8.3-2,12.4c-1.1,3.2-1.6,6.7-1.5,10.3c0.1,1.6,0.4,3.4-0.8,4.8c-0.1-0.5-0.1-0.9-0.2-1.4
		c-0.1-1.2-0.6-2-1.9-2.1c-1.4-0.1-2.7-0.1-4.1-0.1c-8.3,0-16.6-0.8-24.8-1.7c-0.5,0-0.9-0.1-1.4-0.1c-7.4-0.4-14.8-0.7-22.2-1.1
		c-5-0.3-9.9-0.7-14.9-0.7c-4.9,0-9.6,0.4-14.4,1.5c-0.3-1.9,0.5-3.5,1.2-5.2c2-4.4,3.9-8.8,5.8-13.2c0.7-1.5,1.2-3.1,1.8-4.6
		c0.9-2.6,1.7-5.1,3.5-7.2C524.6,648.3,524.6,647.7,524.7,647.3z"/>
	<path class="st17" d="M600.2,657c-0.8-0.8-0.9-1.9-0.8-2.9c0.1-3.7,0.2-7.5,0.5-11.2c0.2-2.5,0.5-5,0.2-7.6c0.1-2.7,0.2-5.3,0.3-8
		c0.9-1.8,0-3.8,0.6-5.6c0.1-3,0.2-6,0.3-9c0.7-11.6,0.6-23.3,0-34.9c0-6.6,0-13.2,0-19.9c0.3-0.3,0.5-0.3,0.7,0.1
		c0.5,12.4,1.3,24.8,1.3,37.2c-0.1,13-0.3,26.1-1.1,39.1C601.6,641.9,600.8,649.5,600.2,657z"/>
	<path class="st16" d="M601.3,577.9c0.5,0.9,0.6,2,0.6,3.1c0,9.6,0,19.2,0,28.8c0,1.1-0.1,2.1-0.6,3
		C601.1,601.1,601,589.5,601.3,577.9z"/>
	<path class="st16" d="M602,558.1c-0.2,0-0.5-0.1-0.7-0.1c-0.3-0.5-0.6-1-0.9-1.6c-0.1-0.3-0.1-0.6-0.1-0.9c0.3-6.2-0.6-12.4-1-18.6
		c-0.4-0.6-0.4-1.1,0-1.7c0.4-0.4-0.4-0.3,0.1-0.5c0.3-0.1,0.6-0.4,0.7-0.1c0.6,2.2,0.5,4.5,0.7,6.7
		C601.3,546.9,602.3,552.5,602,558.1z"/>
	<path class="st16" d="M601,621.7c0.1,1.9,0.2,3.8-0.6,5.6C600.3,625.4,599.9,623.5,601,621.7z"/>
	<path class="st16" d="M598.5,520.6c-0.1,0.2-0.2,0.7-0.3,0.7c-0.6,0.1-0.5-0.4-0.6-0.8c0-0.3,0-0.6,0-0.8c0.1-0.2,0.3-0.4,0.5-0.7
		c0.1,0.2,0.3,0.5,0.4,0.7C598.5,520,598.5,520.3,598.5,520.6z"/>
	<path class="st2" d="M544.8,598.9c-0.1,0.7-0.3,1.4-1,1.8c0.1-0.9,0.1-1.9,0.9-2.5C544.8,598.5,544.8,598.7,544.8,598.9z"/>
	<path class="st2" d="M572.1,527c0-0.7,0.3-1.4,0.8-1.9C572.9,525.8,572.7,526.5,572.1,527z"/>
	<path class="st2" d="M571.2,529.8c0.3-0.7,0.6-1.4,0.8-2.1C572,528.5,571.8,529.2,571.2,529.8z"/>
	<path class="st2" d="M570.4,531.5c0-0.7,0.2-1.3,0.7-1.8C571.1,530.4,570.9,531.1,570.4,531.5z"/>
	<path class="st2" d="M569.4,534.3c0-0.8,0.2-1.5,0.8-2.1C570.2,533,570,533.7,569.4,534.3z"/>
	<path class="st2" d="M568.5,536.1c0-0.7,0.2-1.3,0.8-1.7C569.3,535.1,569.1,535.6,568.5,536.1z"/>
	<path class="st2" d="M599.3,535.3c0,0.6,0,1.1,0,1.7C598.6,536.4,598.6,535.8,599.3,535.3z"/>
	<path class="st2" d="M567.6,538.9c0-0.8,0.2-1.5,0.7-2.1C568.4,537.6,568.2,538.3,567.6,538.9z"/>
	<path class="st2" d="M566.8,540.6c-0.1-0.7,0.2-1.3,0.8-1.7C567.3,539.5,567,540.1,566.8,540.6z"/>
	<path class="st2" d="M565.8,543.4c-0.1-0.7,0.2-1.4,0.8-1.8C566.6,542.3,566.4,542.9,565.8,543.4z"/>
	<path class="st14" d="M562.9,548.8c0.2-0.7,0.4-1.3,1-1.7c0,0.6,0,1.3,0,1.9c-0.2,0.1-0.4,0.1-0.6,0.2
		C563.1,549,563,548.9,562.9,548.8z"/>
	<path class="st2" d="M546,594.3c0.2-0.3,0.4-0.6,0.6-0.9C546.3,593.7,546.1,594,546,594.3z"/>
	<path class="st2" d="M546.9,591.6c0.2-0.3,0.4-0.6,0.6-0.9C547.3,591,547.1,591.3,546.9,591.6z"/>
	<path class="st2" d="M547.8,588.8c0.2-0.2,0.4-0.5,0.6-0.7C548.2,588.4,548,588.6,547.8,588.8z"/>
	<path class="st2" d="M548.7,587c0.2-0.3,0.4-0.7,0.6-1C549,586.4,548.8,586.7,548.7,587z"/>
	<path class="st2" d="M549.6,584.3c0.2-0.3,0.4-0.6,0.6-0.9C550,583.7,549.8,584,549.6,584.3z"/>
	<path class="st2" d="M550.5,582.5c0.2-0.3,0.4-0.7,0.6-1C550.9,581.8,550.7,582.1,550.5,582.5z"/>
	<path class="st2" d="M551.4,579.7c0.2-0.3,0.4-0.6,0.6-0.9C551.8,579.1,551.6,579.4,551.4,579.7z"/>
	<path class="st2" d="M552.2,578c0.2-0.3,0.5-0.7,0.7-1C552.7,577.3,552.4,577.6,552.2,578z"/>
	<path class="st2" d="M553.2,575.2c0.2-0.3,0.4-0.6,0.6-0.9C553.6,574.6,553.4,574.9,553.2,575.2z"/>
	<path class="st2" d="M554.1,573.4c0.2-0.3,0.4-0.7,0.7-1C554.5,572.7,554.3,573.1,554.1,573.4z"/>
	<path class="st2" d="M555.1,570.6c0.2-0.2,0.4-0.5,0.5-0.7C555.5,570.1,555.3,570.4,555.1,570.6z"/>
	<path class="st2" d="M555.9,568.8c0.2-0.3,0.4-0.6,0.6-0.9C556.3,568.2,556.1,568.5,555.9,568.8z"/>
	<path class="st2" d="M557.8,564.3c0.2-0.3,0.4-0.6,0.6-0.8C558.2,563.7,558,564,557.8,564.3z"/>
	<path class="st2" d="M560.6,557c0.2-0.2,0.4-0.5,0.5-0.7C561,556.5,560.8,556.8,560.6,557z"/>
	<path class="st2" d="M562.3,552.5c0.2-0.3,0.4-0.6,0.6-1C562.7,551.8,562.5,552.1,562.3,552.5z"/>
	<path class="st2" d="M563.3,549.2c0.2-0.1,0.4-0.1,0.6-0.2c-0.1,0.2-0.3,0.5-0.5,0.7C563.3,549.5,563.3,549.3,563.3,549.2z"/>
	<path class="st16" d="M564.2,547.1c0.2-0.3,0.4-0.7,0.6-1C564.6,546.4,564.4,546.8,564.2,547.1z"/>
	<path class="st2" d="M565,545.2c0-0.5,0.3-0.8,0.7-1.1C565.4,544.5,565.2,544.8,565,545.2z"/>
	<path class="st2" d="M573.3,524.2c0.2-0.3,0.4-0.7,0.6-1C573.6,523.5,573.5,523.9,573.3,524.2z"/>
	<path class="st2" d="M574,522.5c0.3-0.4,0.5-0.8,0.8-1.3C574.5,521.6,574.2,522,574,522.5z"/>
	<path class="st2" d="M575.1,519.6c0.2-0.3,0.4-0.6,0.5-0.8C575.5,519.1,575.3,519.3,575.1,519.6z"/>
	<path class="st2" d="M575.9,517.9c0.2-0.4,0.4-0.8,0.7-1.1C576.3,517.1,576.1,517.5,575.9,517.9z"/>
	<path class="st2" d="M576.7,516.1c0-0.6,0.3-1,0.8-1.3C577.2,515.2,576.9,515.7,576.7,516.1z"/>
	<path class="st2" d="M577.7,513.3c0-0.5,0.2-0.8,0.7-1C578.2,512.7,577.9,513,577.7,513.3z"/>
	<path class="st18" d="M526.4,187.5c-0.7,2.4-0.4,4.8-0.5,7.2c-0.1,1.6-0.2,3.2-0.2,4.8c-1.3,0.2-1.8-0.7-2.4-1.3
		c-5.8-6-11.8-11.7-18.2-17.1c-9-7.6-18.1-15.1-27.9-21.6c-8.3-5.5-16.7-10.9-25-16.3c-3.2-2-6.4-3.9-9.7-5.8
		c1.3-0.5,2.4-1.2,3.2-2.3c5.3-7.7,11.9-14.2,17.8-21.4c0.5-0.6,0.8-1.2,1.3-1.8c7.7-7.1,15-14.4,22.3-21.8c2-2,4-4.1,6-6.2
		c11.5-11.4,22.9-22.8,34.4-34.2c0.4-0.4,0.7-0.9,1.1-1.4c0,0,0,0,0,0c0.2-0.3,0.4-0.4,0.7-0.1c0.7,4.8,0.4,9.6,0.4,14.4
		c0,8-0.1,16-0.2,23.9c0,1.2,0.2,2.4,0.3,3.6c-0.2,5.7-0.3,11.5-0.5,17.2c0,0,0.1,0,0.1,0c-0.9,2-0.1,4.2-0.5,6.3
		c-0.3,2.5-0.4,4.9-0.1,7.4c-0.4,9.5-1.2,19-1.1,28.5c0,2.6-0.3,5.1-0.5,7.7C526.5,167.2,526.2,177.4,526.4,187.5z"/>
	<path class="st19" d="M454.7,312.1c0.8-2,2.1-3.6,4-4.8c1.3-0.8,2.4-1.9,3.3-3.1c2.8-3.6,5.8-7.1,9.3-9.9c4-3.2,7.3-7.2,11.6-10.1
		c0.4-0.3,0.7-0.6,1-0.9c4.1-4.5,9.1-7.9,14-11.5c1.1-0.8,2.1-1.8,3-2.7c6.5-6.8,13.7-12.8,21.1-18.6c2.5-2,5.2-3.6,7.8-5.4
		c2.1-1.4,2.9-1,4.3,1.3c1,1.7,1.4,3.7,3.3,4.8c2.1,8.7,4.3,17.3,6.3,26c2.3,10,4.5,20.1,6.8,30.1c2.1,9.1,4.3,18.3,6.4,27.4
		c0.2,0.7,0.3,1.5,0.4,2.2c0.1,1-0.8,1.7-1.8,1.5c-0.6-0.1-1.2-0.3-1.8-0.4c-20.6-5.5-41.2-11-61.8-16.4c-0.3-0.1-0.6,0-0.9,0
		c-5.9-2-12-3.2-18-4.7c-3.1-0.8-6.2-1.4-9.3-2c-0.4-0.2-0.7-0.5-1.1-0.7c-1.1-0.1-2.3-0.1-3.4-0.2c-0.4-0.2-0.7-0.5-1.1-0.8
		c-0.9-0.1-1.7-0.2-2.6-0.3C455.2,312.7,454.9,312.5,454.7,312.1L454.7,312.1z"/>
	<path class="st19" d="M461,315.5c4.3,0.2,8.3,1.6,12.4,2.5c5,1.1,9.9,2.5,14.9,3.7c0.9,0.2,1.8,0.3,2.7,0.4
		c0.5,0.6,1.2,0.9,1.9,1.1c9.8,2.7,19.5,5.3,29.3,8c9.3,2.5,18.7,5,28,7.5c1.9,0.5,3.7,1.2,5.6,1.7c1.8,0.5,2.8,1.6,3.2,3.4
		c1.4,6.5,2.9,13,4.3,19.5c0.3,1.3-0.4,1.9-1.8,1.5c-0.7-0.2-1.4-0.5-2.1-0.7c-0.4-0.2-0.7-0.5-1.1-0.7c-0.6-0.1-1.1-0.2-1.7-0.3
		c-0.4-0.1-0.8-0.4-1-0.8c-0.3,0-0.5-0.1-0.8-0.1c-0.4-0.2-0.7-0.4-1.1-0.7c-1.2-0.4-2.3-0.8-3.5-1.1c-0.4-0.1-0.8-0.5-1.1-0.7
		c-0.3,0-0.5-0.1-0.8-0.1c-0.4-0.2-0.7-0.5-1.1-0.7c-0.3,0-0.5-0.1-0.8-0.2c-0.6-0.5-1.4-0.3-2-0.8c-0.2,0-0.5-0.1-0.7-0.2
		c-0.6-0.4-1.4-0.2-1.9-0.8l0,0c-0.5-0.5-1.4-0.4-1.9-0.8c-0.2,0-0.5-0.1-0.7-0.1c-0.4-0.3-0.7-0.6-1.1-0.8
		c-0.5-0.1-1.1-0.1-1.6-0.2c-0.4-0.2-0.7-0.5-1.1-0.8c-0.5-0.1-1.1-0.1-1.6-0.2c-0.4-0.1-0.8-0.5-1.1-0.8c-0.2,0-0.5-0.1-0.7-0.1
		c-0.4-0.2-0.8-0.5-1.1-0.8c-0.5-0.1-1.1-0.1-1.6-0.2c-0.4-0.1-0.8-0.5-1.1-0.8c-0.3,0-0.5-0.1-0.8-0.1c-0.4-0.2-0.7-0.5-1.1-0.8
		c-1.2-0.3-2.3-0.7-3.5-1c-0.4-0.2-0.7-0.5-1.1-0.8c-1.2-0.4-2.3-0.7-3.5-1.1c-0.4-0.2-0.8-0.5-1.1-0.8c-2.1-0.7-4.1-1.4-6.2-2
		c-0.5-0.1-0.8-0.4-1.1-0.7c-1.2-0.4-2.3-0.7-3.5-1.1c-0.6-0.3-1.4-0.2-1.9-0.8l0,0c-0.7-0.8-2,0-2.7-0.9l0,0
		c-0.8-0.8-2-0.1-2.8-0.9c-0.3-0.1-0.5-0.1-0.8-0.1c-0.4-0.2-0.7-0.5-1.1-0.7c-0.3,0-0.5-0.1-0.8-0.1c-0.6-0.5-1.4-0.3-2-0.8
		c-0.5-0.1-1.1-0.1-1.6-0.2c-0.4-0.2-0.7-0.5-1.1-0.7c-0.5-0.1-1.1-0.1-1.6-0.2c-0.4-0.2-0.7-0.5-1.1-0.7c-0.5,0-1.1-0.1-1.6-0.1
		c-0.4-0.2-0.7-0.5-1.1-0.7c-0.5-0.1-1.1-0.1-1.6-0.2c-0.6-0.4-1.4-0.3-2-0.8c-0.6,0-1.1-0.1-1.7-0.1c-0.4-0.2-0.7-0.5-1.1-0.8
		c-0.6,0-1.1-0.1-1.7-0.1c-0.4-0.2-0.7-0.5-1.1-0.7c-0.9-0.1-1.7-0.2-2.6-0.3c-0.4-0.2-0.7-0.4-1-0.7c-1.8-0.3-3.6-0.7-5.4-1
		c-0.4-0.2-0.7-0.5-1-0.8c-0.6-0.1-1.1-0.1-1.7-0.2c-0.4-0.2-0.7-0.5-1-0.8c-0.6,0-1.2-0.1-1.7-0.1c-0.5-0.5-1.4-0.3-1.9-0.8
		c-1.4-0.4-2.9-0.8-4.3-1.1c-1.6-1.2-0.5-2.7-0.3-4.1c0.3-2.9,0.7-5.7-2.9-7c-0.8-0.3-2.6-1.2-0.6-2.6c1,0.1,2,0.2,2.9,0.3
		c0.1,0.3,0.4,0.4,0.7,0.5c1.3,0.1,2.5,0.3,3.8,0.4C460.4,315.2,460.7,315.4,461,315.5z"/>
	<path class="st20" d="M563.6,368.7c-3,0.2-5.2,2.1-7.7,3.4c-2.4,1.2-4.7,2.7-7,4.1c-3.6,2.1-7.4,3.9-11.3,5.3
		c-2.4,0.4-4.5-0.5-6.4-1.6c-3.7-2.1-7.2-4.4-10.8-6.7c-2.1-1.4-3.3-3.1-2.9-5.7c0.4-2-0.5-3.6-1.4-5.1c-1.4-2.3-3.1-3-5.8-2.3
		c-1.2,0.3-2.3,0.9-3.3,1.4c-2.4,1.2-4.6,1-6.8-0.4c-2.8-1.8-5.7-3.4-8.7-5c-7.1-3.7-13.9-7.9-20.9-11.9c-1.1-0.6-2.1-1.2-3.1-1.9
		c-0.7-0.5-1.4-1.1-1.9-1.9c-1.4-2.3-0.7-4.1,1.8-4.9c2.4-0.8,4.8-0.4,7.1,0.3c1.2,0.3,2.2,0.9,3.4,0.1c0.3-0.2,0.7-0.3,1-0.1
		c5.7,1.4,11.3,3.5,16.9,5.3c8.6,2.8,17,6.3,25.5,9.7c2.4,1,4.8,1.8,7.2,2.7c0.2,0.2,0.4,0.3,0.6,0.4c2.2,0.8,4.5,1.5,6.7,2.3
		c0.2,0.2,0.4,0.4,0.6,0.5c8.6,3.3,17.2,6.7,25.8,10c0.3-0.1,0.5-0.1,0.7,0.1c0.3,0.1,0.6,0.2,0.9,0.3c0.3,0.2,0.6,0.5,0.9,0.8
		c0,0,0.1,0.1,0.1,0.1C564.6,368.3,564.1,368.5,563.6,368.7z"/>
	<path class="st19" d="M478.6,335.6c0.4,0.6,0.8,1.1,1.4,1.9c-2,0.3-3.7,0.2-5.5-0.3c-2.4-0.7-4.8-0.5-7.2-0.3c-1,0.1-1.4,1.1-1,2
		c0.5,1,1.4,1.6,2.3,2.1c8.9,5.2,17.7,10.3,26.6,15.5c2.2,1.3,4.5,2.5,6.7,3.8c1.3,0.8,2.5,0.7,3.8-0.2c1-0.7,2.1-1.2,3.2-1.7
		c2.4-1.1,4.7-0.8,7,0.2c0.4,0.2,0.9,0.4,1.1,0.8c1,2.4,3.1,4.6,2.1,7.6c-0.8,2.3,0.1,3.7,2.1,4.9c5.4,3.3,10.7,6.9,16.4,9.6
		c-0.8,1-1.9,0.9-3,0.6c-2.2,0.7-3.8-0.4-5.5-1.5c-4-2.7-8.3-5-12.3-7.7c-1.1-0.8-2.3-1.4-3.5-2c-1.2-0.6-2.4-1.7-3.4,0.2
		c-3.7,2-6.9,0.3-6.7-3.8c0.1-2.1-0.6-3-2.3-3.8c-2.9-1.3-5.6-3.1-8.3-4.7c-1.6-1-3.1-1.8-5.1-1c-1.6,0.6-3.3,0.2-4.9-0.2
		c-2.2-0.5-4.4-0.9-7-1.2c0.2,1.7,1.3,2.5,2.3,3.3c3.4,2.8,6.6,5.8,10.1,8.5c0.5,0.4,0.9,0.8,1.4,1.1c2.4,1.5,2.8,1.4,3.8-1.2
		c0.7-2,1.7-3.5,3.6-4.4c1.5-0.6,3-0.7,4.3,0.2c1.3,0.8,1.9,1.9,1.5,3.4c-0.3,0.9-0.1,1.8,0.4,2.6c1,1.9,1.5,3.9,1.7,6.1
		c0.1,1.4,0.8,2.5,1.7,3.6c3.1,3.9,4.1,8.6,4.3,13.5c-1.1,2.1-3.2,2.5-5.2,3.1c-1.9,0.5-3.8,1.1-5.7,0.6c-3.8-2.3-5.8-6.8-10.5-7.8
		c-1.4-6.4-7.4-9.1-10.8-13.9c-0.7-1.4-1.4-2.7-2.6-3.7c-6.6-5.6-10-13.9-16.4-19.7c-2.3-2.1-3.1-5.3-3-8.3c0.1-2.8-0.4-5.3-1.3-7.9
		c0-0.4,0.2-0.8,0.4-1.2c0.5-0.7,1-1.4,1.7-1.9c0.3-0.2,0.8-0.1,0.8-0.6c-0.4,0.1-0.9,0.1-1.3,0.1c-3.7-0.3-7.2-1.5-10.8-2.4
		c-0.6-0.1-1.2-0.3-1.8-0.6c-1.5-0.6-3.1-1-4.7-1.5c-0.6-0.2-1.1-0.5-1.7-0.9c-0.5-0.4-0.8-0.9-1.2-1.4c-1.6-1.3-3.6-1.4-5.5-2
		c-8.5-2.7-17.2-4.8-25.9-6.9c-0.5-0.1-1.2,0-1.4-0.7c0.7-0.5,1.5-0.4,2.2-0.3c8.8,2.3,17.7,3.9,26.3,6.8c4.4,1.5,9.1,2.4,13.6,3.5
		c0.2,0.1,0.4,0.2,0.6,0.3c0.6,0.1,1.3,0.2,1.9,0.3c2.8-0.4,5.5-0.1,7.3,2.4c0.7,0.3,1.4,0.5,2.1,0.8c0.2,0,0.4,0,0.5,0.1
		c6.8,2,13.5,4,20.3,6C478.5,335.3,478.5,335.4,478.6,335.6z"/>
	<path class="st13" d="M452.7,313.8c-0.2,0.5-0.1,0.9,0.4,1.1c1.7,0.5,3.4,1,5.4,1.6c-0.5,3.7,0.3,7.5-1.9,11
		c-0.4,0.1-0.7,0.1-1.1,0.2c-2.3-0.1-4.3-1.5-6.5-1.8c-0.9-1.1-2.2-1.5-3.5-1.8c-1.7-0.4-3.4-1.1-5.2-1.6c-2.4-0.6-3.4-2.2-3.8-4.5
		c-0.2-1.6-0.7-3.3-0.6-4.9c0.1-1.3-0.7-2.2-1.2-3.5c4.7,1.1,9.3,2,13.8,3.1C449.9,312.9,451.5,312.6,452.7,313.8z"/>
	<path class="st2" d="M449,325.8c2.4-0.1,4.6,0.4,6.5,1.8c0,0.2,0,0.5,0,0.7c-2.5-0.5-5-1.2-7.3-2.4
		C448.5,325.8,448.7,325.7,449,325.8z"/>
	<path class="st13" d="M502,341.3c1,0,2,0.1,2.7,0.9C503.7,342.2,502.7,342.2,502,341.3z"/>
	<path class="st13" d="M499.2,340.4c1,0,2,0.1,2.8,0.9C501,341.3,500,341.2,499.2,340.4z"/>
	<path class="st13" d="M544.7,357.7c0.8,0,1.4,0.3,2,0.8C545.9,358.5,545.2,358.3,544.7,357.7z"/>
	<path class="st13" d="M542.1,356.7c0.7,0,1.4,0.3,1.9,0.8C543.2,357.6,542.5,357.4,542.1,356.7z"/>
	<path class="st13" d="M540.1,355.9c0.8,0,1.4,0.2,1.9,0.8C541.3,356.7,540.6,356.5,540.1,355.9z"/>
	<path class="st13" d="M504.7,342.2c0.6,0.3,1.3,0.5,1.9,0.8C505.9,343,505.2,342.8,504.7,342.2z"/>
	<path class="st13" d="M494.6,338.7c0.8,0,1.4,0.2,2,0.8C495.8,339.4,495.2,339.2,494.6,338.7z"/>
	<path class="st13" d="M482.8,334.9c0.8,0,1.4,0.3,2,0.8C484,335.8,483.3,335.5,482.8,334.9z"/>
	<path class="st13" d="M461,328.6c0.8,0,1.4,0.3,1.9,0.8C462.1,329.4,461.5,329.1,461,328.6z"/>
	<path class="st13" d="M464.6,329.5c0.3,0.3,0.7,0.5,1,0.8C465.3,330,464.9,329.7,464.6,329.5z"/>
	<path class="st2" d="M564.7,367.6c-0.3-0.3-0.6-0.5-0.9-0.8C564.1,367.1,564.4,367.4,564.7,367.6z"/>
	<path class="st2" d="M562.9,366.6c-0.2,0-0.5,0-0.7-0.1c0,0,0.4-0.2,0.4-0.2L562.9,366.6z"/>
	<path class="st13" d="M558.4,363.2c0.4,0.2,0.7,0.5,1.1,0.7C559.1,363.7,558.7,363.5,558.4,363.2z"/>
	<path class="st13" d="M555.7,362.2c0.3,0.3,0.7,0.5,1,0.8C556.4,362.7,556,362.5,555.7,362.2z"/>
	<path class="st13" d="M553.8,361.4c0.4,0.2,0.7,0.5,1.1,0.7C554.5,361.9,554.2,361.6,553.8,361.4z"/>
	<path class="st13" d="M549.3,359.5c0.4,0.2,0.7,0.5,1.1,0.7C550,360,549.6,359.8,549.3,359.5z"/>
	<path class="st13" d="M547.4,358.7c0.4,0.2,0.7,0.5,1.1,0.7C548.1,359.2,547.8,358.9,547.4,358.7z"/>
	<path class="st13" d="M536.4,356.5c-0.3-0.1-0.5-0.2-0.6-0.5C536.1,356.1,536.3,356.2,536.4,356.5z"/>
	<path class="st13" d="M538.3,355.1c0.4,0.3,0.7,0.5,1.1,0.8C539,355.6,538.6,355.3,538.3,355.1z"/>
	<path class="st13" d="M535.6,354.1c0.4,0.3,0.7,0.5,1.1,0.8C536.3,354.6,536,354.3,535.6,354.1z"/>
	<path class="st13" d="M532.9,353.1c0.4,0.3,0.7,0.5,1.1,0.8C533.6,353.6,533.2,353.4,532.9,353.1z"/>
	<path class="st13" d="M529.1,353.7c-0.3-0.1-0.5-0.2-0.6-0.4C528.8,353.4,529,353.5,529.1,353.7z"/>
	<path class="st13" d="M531.1,352.2c0.4,0.3,0.7,0.5,1.1,0.8C531.8,352.7,531.4,352.5,531.1,352.2z"/>
	<path class="st13" d="M528.3,351.3c0.4,0.3,0.7,0.5,1.1,0.8C529.1,351.8,528.7,351.6,528.3,351.3z"/>
	<path class="st13" d="M526.5,350.4c0.4,0.3,0.7,0.5,1.1,0.8C527.2,350.9,526.9,350.7,526.5,350.4z"/>
	<path class="st13" d="M521.9,348.6c0.4,0.3,0.7,0.5,1.1,0.8C522.7,349.1,522.3,348.9,521.9,348.6z"/>
	<path class="st13" d="M517.4,346.8c0.4,0.3,0.7,0.5,1.1,0.8C518.1,347.3,517.8,347,517.4,346.8z"/>
	<path class="st13" d="M510.1,344c0.4,0.2,0.7,0.5,1.1,0.7C510.9,344.5,510.5,344.3,510.1,344z"/>
	<path class="st13" d="M497.3,339.6c0.4,0.2,0.7,0.5,1.1,0.7C498.1,340,497.7,339.8,497.3,339.6z"/>
	<path class="st13" d="M491.9,337.7c0.4,0.2,0.7,0.5,1.1,0.7C492.6,338.2,492.2,338,491.9,337.7z"/>
	<path class="st13" d="M489.1,336.8c0.4,0.2,0.7,0.5,1.1,0.7C489.9,337.3,489.5,337,489.1,336.8z"/>
	<path class="st13" d="M486.4,335.9c0.4,0.2,0.7,0.5,1.1,0.7C487.1,336.4,486.8,336.2,486.4,335.9z"/>
	<path class="st13" d="M478.6,335.6c-0.1-0.1-0.1-0.3-0.1-0.4c0.3,0,0.5,0.2,0.6,0.4C479,335.6,478.6,335.6,478.6,335.6z"/>
	<path class="st13" d="M480.1,334.1c0.4,0.3,0.7,0.5,1.1,0.8C480.8,334.6,480.4,334.3,480.1,334.1z"/>
	<path class="st13" d="M477.3,333.2c0.4,0.2,0.7,0.5,1.1,0.7C478,333.7,477.7,333.4,477.3,333.2z"/>
	<path class="st13" d="M473.8,332.2c0.3,0.3,0.7,0.5,1,0.8C474.4,332.7,474.1,332.4,473.8,332.2z"/>
	<polygon class="st2" points="458.1,329.1 457.9,329.2 457.6,329.1 457.9,328.9 	"/>
	<path class="st13" d="M467.3,330.4c0.3,0.3,0.7,0.5,1,0.8C468,330.9,467.7,330.7,467.3,330.4z"/>
	<path class="st2" d="M529.2,48c-0.2,0.1-0.5,0.2-0.7,0.1C528.6,47.8,528.8,47.7,529.2,48z"/>
	<path class="st21" d="M369.1,586.9c-0.6,0.4-1.3,0.8-1.9,1.2c-14.9-0.3-29.7-0.7-44.6-0.9c-11.1-0.2-22.2,0.2-33.2-0.3
		c-12.6-0.6-25.2-0.4-37.7-0.7c-1.3-1-2.9-0.7-4.4-0.9c-1.4-0.2-1.9-0.6-2-2c-0.1-1.5-0.1-3-0.1-4.5c0-15.9,0.1-31.8,0.1-47.7
		c0-0.8-0.1-1.5-0.1-2.3c-1.4-8.2-1.3-16.4,0.1-24.5c0.3-3.7,0.7-7.4,1-11.1c0.9-1.6,1.7-3.1,3.5-4c11.4-5.5,22.5-11.6,33.9-17.3
		c0.8-0.4,1.7-0.7,2.6-0.8c2.8,0.4,6.6-1.3,7.9,2.6c1.2,3.8-2.2,5.2-4.6,6.9c-0.9,0.7-2.3,1.2-2,2.7c0.3,1.2,1.6,1.2,2.6,1.6
		c4.2,1.5,8.7,1,13.1,1.1c4.7,0.1,9,1.1,13.3,2.8c2.5,1,4,2.3,2.5,5.1c-1.2,2.3-0.3,3.4,1.8,4.1c0.3,0.1,0.6,0.2,0.9,0.3
		c8.6,1.1,16.2,4.5,23.2,9.4c2.9,2.1,6.2,0.7,9-1c2.8-1.7,5.3-2.7,8.2-0.1c2,1.8,3,0,3.2-1.8c0.4-3.2-0.3-6.4,0.5-9.5
		c0.4-1.8,0.9-4.5,3.7-1.6c1.1,2.5,0.7,5.1,0.7,7.6c0,19.9,0.1,39.7,0,59.6c0,4.8,1.5,9.6,0.4,14.5
		C371,579.2,370.4,583.1,369.1,586.9z"/>
	<path class="st22" d="M286.2,472.4c-12,6.2-24.1,12.3-36.1,18.5c-1.3,0.7-2.6,1.5-3.9,2.3c-1.2-5.5-1-11.1-1-16.7
		c0-11.8,0-23.6,0-35.4c0-2.3,0.1-4.5,0.5-6.8c0.3-1.6,0.3-3.3,0.3-5c0.1-9.7,0.1-19.3,0.1-29c3.3-0.2,6.2,1.3,9.2,2.2
		c7.7,2.3,15.6,3.8,23.5,5.1c10.3,1.7,20.6,3.4,30.9,5c4.5,0.7,9,1.3,13.5,1.5c4.8,0.2,9.7,0.6,14.5,0.9c1.1,0.1,2.1,0.1,3.1,0.7
		c7.3,1.5,14.8,1.6,22.3,2.3c4.4,0.4,6.5,1.7,6.1,6c-0.4,5,0.2,10.4-2.7,15c-2.2,3.5-5.2,5.7-9.7,5.7c-4.8-0.1-9.2,1.9-13.5,3.6
		c-16.8,6.8-33.9,13.1-50,21.5C291.2,471.1,288.5,471.3,286.2,472.4z"/>
	<path class="st3" d="M245.2,504.3c0,8.2-0.1,16.3-0.1,24.5c-1-0.3-1.6-0.9-1.6-1.9c-0.1-1.1-0.1-2.1-0.1-3.2c0-4.4,0-8.7,0-13.1
		C243.4,508.3,243.8,506.2,245.2,504.3z"/>
	<path class="st12" d="M181.7,373.2c0.6,0,1.2,0,1.8,0c2.7,0.1,4.9,1,6.4,3.3c0.5,0.7,1.1,1.4,1.6,2.1
		C187.9,377.5,184.7,375.6,181.7,373.2z"/>
	<path class="st12" d="M191.6,378.6c0.7,0.1,1.3,0.3,1.7,0.9C192.5,379.7,192,379.2,191.6,378.6z"/>
	<path class="st23" d="M293.9,266.6c-0.3,0.8-0.7,1.3-1.6,1.1c-1.9-0.4-3.6-1.4-5.3-2.4c-6.2-3.8-11.6-8.5-16.5-13.9
		c-2.5-2.8-5-5.6-7.4-8.5c-1.6-1.4-3-2.9-4.2-4.7l0.1,0.1c-0.7-0.9-1.2-1.9-1.9-2.8l0.1,0.1c-2.3-2.4-2.5-3.9,1.2-5.3
		c10.3-4,20.8-5.8,31.8-5.7c3.5,0,4.6,1.6,4,4.8c-2.1,11.1-2.4,22.1,0.2,33.2C294.7,264,294.8,265.4,293.9,266.6z"/>
	<path class="st24" d="M293.9,266.6c-2.1-4.7-3.2-9.7-3.2-14.9c0-1.7-0.1-3.3-0.1-5c-0.1-6.3,0-12.7,2-18.8c0.6-2,0.3-2.3-1.9-2.4
		c-12.1-0.3-23.7,1.7-34.7,6.8c-0.2,1.4,1.4,2,1.2,3.4c-1.5,0-1.8-1.4-2.5-2.3c-0.7-0.9-0.4-1.7,0.7-2.2c3.5-1.8,7.2-3.2,11-4.2
		c7.9-2.2,16-3.2,24.2-2.8c4,0.2,8.1,0.9,12.1,1.4c4.1-1.4,7.5,0.8,10.5,2.9c5.9,4.1,11.6,8.6,15.9,14.6l0-0.1c0.4,0.3,0.8,0.6,1,1
		l-0.2-0.1c0.8,0.4,0.7,1,0.5,1.7c-0.3,0.3-0.7,0.4-1.2,0.5c-2.8-0.5-4.2-2.7-6.1-4.4c-3.9-3.5-7.7-7.1-13-9.8c0,4.5-0.1,8.4,0,12.3
		c0.2,7.2-1.1,14.1-3.5,20.9c-0.6,1.7-1.2,3.4-0.2,5.2c-1.4,1-2.9,0.7-4.3,0.3c-1-0.3-2-0.9-3-0.8
		C296.4,269.9,295,268.4,293.9,266.6z"/>
	<path class="st25" d="M306.2,270.2c-1.2-0.2-2.3-0.4-3.4-0.6c-0.6-1,0.1-1.5,0.4-2.1c1.3-2.2,2.1-4.7,2.7-7.2
		c1.5-5.7,2.2-11.6,2.1-17.5c0-4.5,0-9-0.8-13.5c0.8-0.7,1.4-0.1,2,0.2c5.7,2.6,10.4,6.7,14.9,11c1.8,1.8,3.3,3.9,5.5,5.4
		c1.4,1.4,2.7,2.8,3.8,4.5l-0.1-0.1c0.6,0.7,1.1,1.5,1.9,2c0.3,0.3,0.5,0.6,0.6,0.9c-0.2,0.8,0,1.5,0.3,2.2c0,0.4-0.1,0.8-0.1,1.2
		l-0.1,0.1c-0.7,0.2-1.5,0.4-2.1,0.8c-4.8,3-10,5.4-15.1,8c-0.3,1-1.4,0.8-1.9,1.4l0.1-0.1c-0.5,0.6-1.4,0.4-1.9,1l0.1-0.1
		C312.5,269,309.3,269.6,306.2,270.2L306.2,270.2z"/>
	<path class="st10" d="M368.1,268.4c0,3.7-0.1,7.3-0.1,11c-1.9-0.6-3.7-1-5.7-1c-1.9,0-2.4-0.8-1.9-2.6c0.2-0.6,0.7-1.1,0.6-1.7
		c-0.2-3,1.5-4.2,4.1-4.9C366.1,269,367.1,268.7,368.1,268.4z"/>
	<path class="st10" d="M328.9,243.1c-2.3-1.5-4-3.7-5.9-5.5c-4.2-4-8.7-7.5-14.1-9.7c-2.1-0.9-4.2-1.5-6.4-2.3
		c0.4-1.4,1.5-2,2.8-1.7c4.7,1.1,9.4,2.3,12.2,6.8c0.5,0.7,1.2,1.4,1.9,1.9c3.2,2.1,5.5,5.1,8.2,7.7
		C328.5,241,328.9,242,328.9,243.1z"/>
	<path class="st10" d="M368.2,252.9c0.3,0.7,0.8,1.4,0.8,2.1c0.1,2.6,0.1,5.2,0,7.7c0,0.7-0.5,1.4-0.8,2.1
		C368.2,260.9,368.2,256.9,368.2,252.9z"/>
	<path class="st24" d="M306.2,270.3c3-1.2,6-2.4,9.2-2.8C312.7,269.6,309.4,269.9,306.2,270.3z"/>
	<path class="st24" d="M258.9,238.3c2.1,0.9,2.8,3.1,4.2,4.7C260.7,242.3,259.7,240.4,258.9,238.3z"/>
	<path class="st24" d="M333.6,250.3c-1.8-1.1-2.8-2.8-3.8-4.5c0,0,0.1-0.1,0.1-0.1c0.3-0.4,0.7-0.4,1,0c0.5,0.7,1,1.5,1.5,2.2
		C332.9,248.6,333.5,249.3,333.6,250.3z"/>
	<path class="st10" d="M335.1,251.2c1,0.3,1.8,1,2.4,1.8c0.2,0.4,0.4,0.8-0.2,1c-0.2,0.1-0.6-0.1-0.8-0.2c-0.7,0-0.8-0.6-1.2-1
		l0.1,0.1C334.9,252.5,334.8,251.9,335.1,251.2z"/>
	<path class="st10" d="M287.2,217.7c0.5,0,0.9-0.2,1.3-0.1c0.4,0.1,0.4,0.4,0.1,0.5c-0.2,0.1-0.5,0.2-0.8,0.1
		C287.6,218.2,287.5,218,287.2,217.7z"/>
	<path class="st24" d="M257.1,235.6c1.2,0.5,1.9,1.4,1.9,2.8C257.5,238,256.9,237.1,257.1,235.6z"/>
	<path class="st24" d="M335.1,251.2c0.1,0.6,0.2,1.2,0.3,1.8c-1.2-0.6-1.8-1.5-1.9-2.8C334,250.5,334.6,250.9,335.1,251.2z"/>
	<path class="st10" d="M330.9,245.7c-0.3,0-0.7,0-1,0c-0.1-0.6-0.1-1.2-0.2-1.8C330.5,244.3,331.5,244.4,330.9,245.7z"/>
	<path class="st24" d="M315.3,267.5c0.3-1,1.1-1,1.9-1C316.9,267.6,316.1,267.5,315.3,267.5z"/>
	<path class="st24" d="M317.1,266.6c0.3-0.9,1.3-0.9,1.9-1.4C318.9,266.4,318.1,266.6,317.1,266.6z"/>
	<path class="st24" d="M335.3,252.9c0.6,0,0.9,0.6,1.2,1c-0.1,0.5-0.1,0.9-0.2,1.4C335.7,254.6,335.2,253.9,335.3,252.9z"/>
	<path class="st10" d="M329.9,244c-0.6-0.1-0.9-0.4-1-1C329.2,243.3,329.6,243.6,329.9,244z"/>
	<path class="st10" d="M336.2,256.5c0.1,0.1,0.2,0.1,0.2,0.2C336.4,256.6,336.3,256.6,336.2,256.5
		C336.2,256.5,336.2,256.5,336.2,256.5z"/>
	<path class="st26" d="M445.6,327.6c4,0.7,7.8,1.7,11.6,3.1c0.7,1.6-0.3,2.9-0.8,4.3l-0.5,0l-0.5,0c-2,0.7-4.2,0-6.6,0.6
		c1.5,2.2,3.3,3.9,4.5,6c0.6,1,1.4,2,1.9,3.1c0.6,1.3,0.9,2.6,0.8,4c-0.3,3.3-2.2,5.1-5.5,4.6c-2.4-0.4-4.8-0.6-7.2,0.1
		c-1,0.3-2.1,0.2-3.1-0.2c-2.6-0.9-5.3-1.1-8-1.8c-4.7-1.4-9.6,2.6-9.5,7.5c0,0.9,0.1,1.8,0.4,2.7c0.7,2,1,4.1,0.6,6.3
		c-0.3,1.7,0.1,3,1.7,3.8c3.2,1.9,3.8,4.9,3.5,8.3c-0.3,3.3-1.2,6.6-2.1,9.8c-0.5,1.8-1.7,3.2-3.1,4.4c-2.6,2.3-5.5,4.3-8.7,5.7
		c-2.3,0.9-4.5,1.5-7.1,0.9c-2.6-0.6-3-0.3-2.8,2.4c0.2,2.1-0.6,4.3,0.6,6.2c0.2,3.7,3.7,4,6,5.5c0.3,0.5,0.3,0.9,0.1,1.4
		c-1.1,1.7-3.1,2-4.8,2.1c-6.3,0.4-12.4,1.9-18.8,0.9c-3.7-0.6-7.5-0.5-11.2,0.2c-2.4,0.4-4.8,0.8-7.1-0.4c-0.5-0.3-0.8-0.7-1-1.3
		c-0.1-1.8,0.5-3.8-0.8-5.4c-3.5-3.6-1.5-8-1.9-12c1-3.3,1.3-6.6,0.1-9.9c-0.2-2-0.2-3.9,1.6-5.3c0-4.9,0.4-9.8-0.8-14.6
		c13.1-1,25.5-4.5,36.8-11.4c4.8-2.9,10-5,14.4-8.5c2.5-1.9,5-3.8,7.5-5.8c0.5-0.4,0.9-0.8,1.3-1.3c3.3-5.1,7.1-9.8,8.2-16
		c0.2-0.9,0.6-1.7,0.9-2.6c0.6,0.1,1.3,0.2,1.9,0.3c0.3,0.1,0.6,0.3,0.8,0.6c1.9,0.4,3.7,0.8,5.6,1.2
		C445,327.1,445.3,327.3,445.6,327.6z"/>
	<path class="st8" d="M295.4,330.5c-0.8-1-1.8-0.8-2.9-0.6c-3.9,0.9-7.4,2.7-10.9,4.4c-2.2,1.1-4.4,2-6.6,2.9
		c-0.4,0.2-0.9,0.3-1.3-0.1c0.3-1.2,1.3-1.7,2.2-1.9c2.8-0.8,4.1-2.8,4.7-5.6c-2-0.3-3.9,0.3-5.2,1.2c-3.2,2-7,2.7-10.2,4.8
		c-1.6,1.1-3.3,2.1-5.4,2.3c-0.7,0.1-1.5,0.4-2,0.9c-3,3.2-7.2,3.8-11,5.1c-11.3,3.9-22.3,8.6-33.5,12.9c-2,0.8-3.9,1.6-6.1,1.7
		l0-0.1c3.4-2.2,6.9-4.2,10.6-5.9c5.3-2.5,10.8-4.7,15.9-7.6c4.2-2.4,8.2-5.2,12.7-6.9c4.4-1.7,8.7-3.4,13.1-5
		c1.1-0.4,2.3-0.8,3.1-1.7c7-1.9,14.1-3,21.2-4c5.4-0.8,10.6-2,16-3.1c0.6-0.1,1.2-0.3,1.8-0.3c0.7,0,1.1,0.4,1.3,1.1
		c0.4,1.6,0,2.7-1.4,3.5C299.5,329.6,297.6,330.5,295.4,330.5z"/>
	<path class="st27" d="M368.2,317.4c-1-0.9-2-1.8-3-2.8c-4.2-4.3-8.4-8.7-13.2-12.4c-0.3-0.3-0.6-0.7-0.8-1c0.1-1.1,1-1,1.7-1.1
		c11-1.2,22-0.8,33.1-0.9c0.8,0,1.5,0,2.3,0c0.8,0.1,2-0.3,2.3,0.9c0.2,1-0.7,1.6-1.4,2.1c-0.2,0.2-0.5,0.4-0.7,0.6
		c-3.6,2.7-6.9,5.9-10,9.2c-0.6,0.6-1.4,1.1-2.1,1.7c-0.5,0.3-1,0.7-1.4,1.1c-2.2,2.1-3.7,2-4-1.3c-0.1-1-0.6-2-0.5-2.3
		C369.9,312.9,373.2,316.6,368.2,317.4z"/>
	<path class="st28" d="M368.2,317.4c0.6-0.6,1.6-0.8,1.6-2c-0.1-2.6,0.5-5.1-0.1-7.7c-0.1-0.4-0.1-0.9,0.7-1.2
		c0.2,1.3,0.4,2.6,0.5,3.9c0.2,1.3,0.4,2.7,0.6,4c0.2,1.4,1,1.7,2.2,1c0.9-0.5,1.4-1.7,2.6-1.6c-3.1,3.4-4.6,7.4-4.6,12
		c0,3-0.1,6.1-0.2,9.1c-0.1,2.3,0.9,4.1,2.5,5.6c1.9,1.8,4.2,2.9,6.9,3.2c2.9,0.4,5.4-0.4,7.4-2.5c0.4-0.4,0.9-0.9,1.3-1.3
		c2-2.3,2.7-2.6,3-1.8c0.5,1.4-0.6,2.2-1.3,3.2c-5.3,7.8-14,5.9-18.7,2.1c-0.6-0.5-1.1-1-1.6-1.6c-0.7-0.9-1.4-1-2.3-0.2
		c-0.5,0.5-1.1,1.1-1.6,1.6c-2.3,2-5,3.3-8.1,4c-3.3,0.7-6.3,0.1-9-2c-1.2-0.9-1.8-2.1-0.7-3.5c1,0,1.6,0.8,2.4,1.2
		c4.4,2.5,8.8,2.1,12.7-1.1c0.7-0.6,1.3-1.3,1.9-1.9c2.1-1.8,3-4.1,3-6.8c0-3.6,0.1-7.3,0.1-10.9
		C369.5,320.4,369.3,318.8,368.2,317.4z"/>
	<path class="st26" d="M354.5,367.6c-1,0.1-2,0.1-2.7-0.7C352.8,366.8,353.7,366.9,354.5,367.6z"/>
	<path class="st26" d="M348.1,365.8c-1,0.1-2,0.1-2.7-0.8C346.4,364.9,347.4,365,348.1,365.8z"/>
	<path class="st26" d="M345.3,365c-1,0-2-0.1-2.7-0.9C343.7,364,344.7,364.1,345.3,365z"/>
	<path class="st26" d="M360.9,369.4c-0.7,0.1-1.3-0.1-1.8-0.7C359.8,368.6,360.4,368.8,360.9,369.4z"/>
	<path class="st26" d="M357.2,368.5c-0.7,0.1-1.4-0.1-1.8-0.6C356.1,367.7,356.7,368,357.2,368.5z"/>
	<path class="st26" d="M350.8,366.6c-0.7,0.1-1.4,0-1.9-0.6C349.7,365.9,350.3,366.1,350.8,366.6z"/>
	<path class="st13" d="M454.7,312.1c0.3,0.2,0.6,0.5,1,0.7C455.3,312.6,455,312.4,454.7,312.1z"/>
	<path class="st13" d="M458.2,313.1c0.4,0.3,0.7,0.5,1.1,0.8C458.9,313.6,458.5,313.4,458.2,313.1z"/>
	<path class="st13" d="M456.4,314.5c-0.3,0-0.6-0.2-0.7-0.5C456,314.1,456.2,314.3,456.4,314.5z"/>
	<path class="st13" d="M462.7,314.1c0.4,0.2,0.7,0.5,1.1,0.7C463.4,314.5,463.1,314.3,462.7,314.1z"/>
	<path class="st13" d="M461,315.5c-0.3-0.2-0.6-0.4-0.9-0.5C460.5,315.1,460.8,315.3,461,315.5z"/>
	<path class="st13" d="M446.3,325.5c-0.2,0-0.4-0.1-0.6-0.3C446,325.2,446.2,325.3,446.3,325.5z"/>
	<path class="st3" d="M172.1,572.3c-0.2,0.4-0.5,0.7-1,0.6c-0.3-0.1-0.6-0.3-0.7-0.5c-1.3-2.4-2.6-4.8-3.8-7.2
		c-0.2-0.4-0.2-0.9-0.2-1.3c0-0.3,0.2-0.6,0.4-0.7c0.2-0.1,0.7-0.2,0.8,0c0.5,0.4,1,0.8,1.2,1.3c1,2.3,1.9,4.8,3.3,6.9
		C172.2,571.6,172.1,572,172.1,572.3z"/>
	<path class="st29" d="M286.2,472.4c2.9-2.5,6.2-4.2,9.7-5.8c2.3-1.1,4.6-2.3,7-3.4c4.8-2.3,9.6-4.4,14.6-6.2
		c4.5-1.7,9-3.6,13.4-5.5c6-2.5,11.9-5.3,18.3-6.9c1-0.2,2-0.6,3-1.1c1.8-0.9,3.7-1.3,5.7-0.5c1.4,0.5,2.7,0.1,3.8-0.9
		c1.3-1.3,2.6-2.5,3.8-3.9c1.1-1.3,1.8-2.8,1.8-4.6c0-2.4,0-4.8,0.8-7.2c0.2-0.7,0.1-1.5,0.1-2.3c-0.1-3.5-1.8-5.2-5.3-5.4
		c-6.8-0.6-13.5-1.3-20.3-1.9c-0.5-0.1-1-0.6-1.5-0.9c2,0.1,3.9,0.2,5.9,0.4c5.7,0.5,11.4,1,17.2,1.5c1.6,0.1,3.3-0.1,5-0.1
		c-0.1,0.2,0,0.4,0.1,0.6c2.7,2,2.1,5,1.8,7.5c-0.8,6.8-0.5,13.5,0.1,20.2c0.3,3.2-0.3,6.3-0.4,9.5c-1,10.3-0.3,20.7-0.6,31.1
		c-0.1,2.2,0.3,4.6-2.1,6c-0.9,1.2-0.7,2.6-0.7,3.9c0,2.9,0,5.8,0,8.6c0,1.1-0.1,2.1-0.8,3c-2.3,3-3.3,2.7-5.4,0.5
		c-0.9-0.9-1.1-2.9-2.8-2.6c-1.1,0.2-2.1,1.2-3,2c-2,1.6-4.4,2-6.7,2.5c-2.4,0.5-4.6-0.6-6.3-2c-2.5-1.9-5.4-3.3-7.9-5.2
		c-1.6-1.2-3.4-1.9-5.5-1.7c-3.6,0.4-6.8-1.4-10.1-2.2c-1.2-0.3-2-1.3-2.7-2.3c-0.7-0.9-0.7-2,0.1-2.9c0.6-0.7,1.3-1.3,1.9-1.9
		c0.4-0.5,0.2-1.3-0.5-1.4c-2.2-0.1-4-1.2-6-1.9c-1.7-0.6-3.5-1-5.3-1c-2.9,0-5.7,0.3-8.6-0.4c-0.7-0.2-1.5,0.1-2.2,0.3
		c-1.5,0.3-3,0.1-4.4-0.6c-1.1-0.5-2.2-0.9-3.5-0.8c-1.6,0.1-2.3-0.7-2.8-2.4c-0.4-1.4,0-2.7,1.4-3.5c1.9-1,3.7-2,5.3-3.4
		c0.3-0.3,0.8-0.5,1.1-0.8c1.2-1.2,0.7-3.2-1-3.6c-1.2-0.2-2.4-0.2-3.6-0.3C287.4,472.4,286.8,472.4,286.2,472.4z"/>
	<path class="st8" d="M368.2,399.7c0,4.2,0,8.3,0,12.5c0.1,3.2-1.4,5.1-4.6,4.6c-7.6-1.2-15.3-1.1-22.9-2.5
		c-3.4-0.6-6.2-2.4-9.2-3.7c-1.6-0.6-2.7-2.3-1-3.5c5.8-4.1,4.2-10.2,4.2-15.7c0-3-0.1-6-0.2-9.1c-0.2-6-3.3-9.1-9.2-9.1
		c-2.7,0-5.5,0-8.2-0.3c-1.2-0.1-3.2-0.3-3-2.1c0.1-1.8,0-4.3,2.6-4.7c4.3-0.7,8.3-2.6,13.2-0.7c4.5,1.7,9.6,2.5,14.4,3.6
		c6.1,1.4,12,3.9,18.3,4.8c1.8,0.3,2.5,1.8,2.9,3.6c0.5,2.6,0.6,5.5,2.6,7.6c0,1.8,0.1,3.6,0.1,5.4
		C368.9,393.4,368.9,396.6,368.2,399.7z"/>
	<path class="st8" d="M214.3,358.5c3.7-3.1,8.5-3.8,12.8-5.3c8.8-3.1,17.1-7.3,26.3-9.2l0.1,0.1c-1.9,1.8-4.6,2.2-6.9,3.2
		c-4.3,1.8-8.7,3.2-13.1,4.8c-4.4,1.6-8.8,3.1-13,5c-1.9,0.9-4,1.1-6.1,1.6C214.4,358.7,214.3,358.5,214.3,358.5z"/>
	<path class="st8" d="M300.4,363.9c-0.5-0.2-1.1-0.3-1.3-0.6c-1-1.3-2.1-2.6-2.9-4c-0.4-0.6,0.2-1.3,0.8-1.4c2.3-0.5,4.8-0.6,7-1.7
		c0.5-0.3,1.2,0,1.6,0.5c0.6,0.6,0.8,1.4,0.4,2.1c-0.4,0.8-1,1.5-1.6,2.1c-0.7,0.8-1.5,1.5-2.3,2.2
		C301.5,363.5,300.9,363.7,300.4,363.9z"/>
	<path class="st8" d="M285.4,341.7c-0.2-0.2-0.3-0.2-0.4-0.4c-0.1-0.1,0-0.3,0-0.4c0.2-0.2,0.3-0.5,0.6-0.7
		c4.4-2.9,9.2-5.2,13.9-7.5c0.4-0.2,0.9-0.3,1.3-0.3c0.5,0,0.9,0.3,0.9,0.8c0,0.3,0,0.7-0.2,0.8c-0.6,0.5-1.2,0.9-1.9,1.2
		c-4.4,2-8.7,4.1-13.1,6.1C286.3,341.6,285.8,341.7,285.4,341.7z"/>
	<path class="st8" d="M240.7,357.5c-0.3,1-1.9,1.7-2.8,1.3c-0.1-0.1-0.2-0.2-0.2-0.3c-0.1-0.7,0.4-1.1,0.9-1.4
		c0.7-0.3,1.4-0.5,2.1,0C240.6,357.2,240.6,357.4,240.7,357.5z"/>
	<path class="st8" d="M205.1,359.5c0.5-0.6,1.1-0.8,1.8-0.9c0,0,0,0.1,0,0.1C206.5,359.2,205.9,359.4,205.1,359.5L205.1,359.5z"/>
	<path class="st8" d="M253.4,344c0.2-0.2,0.4-0.6,0.9-0.4c0,0,0,0.2-0.1,0.3c-0.2,0.1-0.5,0.2-0.7,0.2
		C253.5,344.1,253.4,344,253.4,344z"/>
	<polygon class="st8" points="205.2,359.5 204.9,359.7 205.1,359.5 	"/>
	<path class="st12" d="M220.7,373.2c-1.4,2.4-3.7,3.9-5.8,5.6c-0.8,0.7-1.8,1-2.9,1.1c-0.2,0-0.6-0.2-0.7-0.4
		c-0.1-0.2,0.1-0.6,0.3-0.8c0.2-0.2,0.5-0.4,0.7-0.5c1.4-0.7,2.5-1.6,3.6-2.7C217.2,374.3,218.8,373.4,220.7,373.2L220.7,373.2z"/>
	<path class="st12" d="M223.4,371.4c-0.6,1.1-1.5,1.7-2.7,1.8c0,0,0,0,0,0C221.2,372,222.1,371.4,223.4,371.4L223.4,371.4z"/>
	<path class="st12" d="M223.4,371.3c0.6-1.1,1.5-1.7,2.7-1.8c0,0,0,0,0,0C225.6,370.6,224.7,371.2,223.4,371.3
		C223.4,371.4,223.4,371.3,223.4,371.3z"/>
	<path class="st30" d="M408.1,248.3c0-0.8,0.5-1.4,1.1-1.9c4.5-5,9.4-9.5,14.9-13.2c7.5-4.9,15.8-7.6,24.7-8.1
		c13.4-0.7,26.6,1.3,39.4,5.1c0.6,0.2,1.1,0.5,1.6,0.8c0.4,0.3,0.6,0.7,0.3,1.1c-0.9,1.2-1.8,2.4-2.7,3.6c-4.4,6-8.7,12-14.1,17.1
		c-1.8,1.7-3.4,3.8-5.9,4.8c-0.9-3,1.4-4.5,3-6.1c4.9-4.8,9-10.2,12.8-15.9c1.4-2.1,1.1-3.1-1.5-3.6c-8.2-1.6-16.5-2.5-24.8-3.1
		c-2.1-0.2-2.8,0.5-2.5,2.6c0.4,2.4,0.8,4.8,1.2,7.2c1.5,7.5,0.5,14.8-1.5,22c-0.5,1.9-0.8,3.5,0.5,5.1c-6,4.1-12.7,5.2-19.8,4.6
		c-4.8-0.4-9.5-1.6-14.1-3.3c-6.7-2.5-13-5.7-18.7-10c-1-0.7-0.8-1.1,0.8-2.1c0.2,0,0.4,0,0.6,0c4.6,1.5,8.5,4.6,12.9,6.6
		c5.6,2.5,11.3,4.4,17.3,5.1c1.6,0.2,3.3,0.5,5.1-0.6c-5.7-10.5-6.4-21.8-5.1-33.5c-2.5-0.1-4.2,1.1-5.9,2.2
		c-4.9,3.1-9.3,6.7-13.4,10.7c-1.6,1.6-3,3.5-5.6,3.3C408.4,248.6,408.3,248.4,408.1,248.3z"/>
	<path class="st31" d="M454.7,265.7c-1.3,0.3-2.6,0.6-3.9,1c-0.8-0.5-0.3-1-0.1-1.5c2.5-5.3,3.4-10.9,3.6-16.7
		c0.2-5.8-0.4-11.5-1.8-17.1c-0.2-0.9-0.5-1.8-0.7-2.6c-0.2-1.1,0.3-1.7,1.5-1.7c0.5,0,0.9,0,1.4,0c10.6,0.6,21.2,1.7,31.5,4.3
		c0.3,0.1,0.6,0.1,0.9,0.2c0.8,0.3,1,1.1,0.4,1.8c-2.3,2.4-4,5.3-5.9,8c-3.6,5.3-7.9,10-12.5,14.4c-0.6,0.6-1.6,1-1.6,2
		c0,0,0.1-0.1,0.1-0.1c-1.3,1-2.8,1.9-3.8,3.3c-0.7,0.4-1.4,0.8-2.2,1.3c-1.2,0.4-2.3,1.2-3.3,1.9l0.1-0.1c-0.5,0.6-1.4,0.4-1.9,1
		l0.1-0.1c-0.5,0.6-1.4,0.4-1.9,1L454.7,265.7z"/>
	<path class="st30" d="M402.8,254.9c1-2.5,2.8-4.7,5.3-6.6c0,0,0.1,0.1,0.1,0.1C408.8,252.7,407.3,254.4,402.8,254.9L402.8,254.9z"
		/>
	<path class="st30" d="M463.7,260.8c0.6-1.8,2-2.8,3.8-3.3C466.7,259.1,465.1,259.9,463.7,260.8z"/>
	<path class="st30" d="M458.2,263.9c0.7-1.3,1.9-1.8,3.3-1.9C460.7,263.1,459.5,263.7,458.2,263.9z"/>
	<path class="st30" d="M454.6,265.7c0.4-0.8,1.2-0.9,1.9-1C456.1,265.6,455.4,265.7,454.6,265.7z"/>
	<path class="st30" d="M456.4,264.8c0.4-0.9,1.2-0.9,1.9-1C457.9,264.6,457.2,264.9,456.4,264.8z"/>
	<path class="st32" d="M368,492.5c0.1-10.1,0.2-20.2,0.2-30.3c0-2.4,0.1-4.8,0.9-7.1c1.5-2.3,3.8-3,6.3-2.7
		c14.6,1.6,29.3,0.7,44,0.7c14.2,0,28.4,2.1,42.5,1.8c15.5-0.4,31.1-1.8,46.6-1.7c3.6,0,7.3,0.2,10.6,1.9c0,3.6,0.1,7.2,0.1,10.8
		c0,16.1,0,32.2,0,48.4c-1.2,3.3-3.4,5.6-6.6,7.1c-0.8,0.4-1.6,0.8-2.4,1.4c-3.7,2.7-7.8,4.6-12.4,5.2c-1.4,0.2-2.6,0.9-3.5,1.9
		c-2,2-4.4,2.7-7.1,2.4c-1.4-0.2-2.7,0.1-4,0.7c-2,0.8-3.8,0.4-5.5-1c-2.6-2.2-4.9-4.5-5.8-7.9c-0.2-0.6-0.3-1.2-0.5-1.7
		c-1.5-3.2-3-4-6.5-3.4c-1.8,0.3-3.5,1.1-5.3,1.4c-3.1,0.6-4.5,2.6-5.5,5.3c-1.3,3.6-1.4,7.4-2.3,11.1c-0.8,3.4-1.1,6.9-1,10.4
		c0.1,2.3,0,4.5-0.6,6.8c-0.2,0.7-0.3,1.5-0.2,2.3c0.1,7.9-0.4,15.7,0.3,23.6c0.3,2.8,0,5.5-2.2,7.5c-1.5,1.5-3,0.8-4.5,0
		c-1.4-1.9-1.7-4.2-2.4-6.3c-2.5-7.2-4.7-14.4-7.8-21.3c-3.9-8.9-5.8-18.5-7.1-28.1c-0.7-4.9-2.4-6.1-6.4-3.1
		c-8.7,6.3-17.6,12.5-24.2,21.2c-6.8,9-15.1,16.6-22.2,25.2c-1.1,1.3-2.4,3-4.5,1.6c-0.1-2.9,0-5.7-0.8-8.5c-0.4-1.6-0.2-3.3-0.2-5
		c0-21.6,0-43.2-0.1-64.8C368.1,496.1,368,494.3,368,492.5z"/>
	<path class="st33" d="M448.3,587.1c0.3-3.9,0.2-7.8,0.1-11.7c-0.3-6.2-0.1-12.4-0.1-18.6c0-1.2,0-2.5,0.3-3.6
		c0.6-2.1,0.7-4.2,0.6-6.3c-0.1-3.7,0.1-7.3,1-10.8c1-3.9,0.7-8.2,2.6-11.9c0.3-0.5,0.4-1.1,0.6-1.7c0.8-2.1,1.9-3.5,4.5-3.8
		c2.4-0.2,4.8-1,7-1.9c4.4-1.9,7.7,1.8,8.8,5.4c0.1,0.4,0.1,0.9,0.2,1.4c0.3,2,1.3,3.7,2.9,4.9c0.6,0.4,1.3,0.9,1.8,1.4
		c0.8,0.7,1,2,2.2,2.2c1.3,0.2,1.8-0.9,2.6-1.6c0.8-0.6,1.7-0.7,2.6-0.5c0.9,0.1,1.8,0.5,2.6,0.6c1.4,0.3,2.7,0.1,3.6-1.2
		c0.4-0.5,0.8-0.9,1.2-1.4c1.3-1.3,2.7-2.1,4.8-2.1c3,0,5.9-1,8.4-2.9c1.8-1.4,3.7-2.6,5.8-3.5c2.7-1.1,4.6-3.4,6.9-5.1
		c0.9,3.8,0.8,7.7,0.3,11.6c-0.1,0.9-0.1,1.8,0.1,2.7c0.4,1.5,0.5,3,0.5,4.5c0.1,3.5,1.8,6.7,2.5,10.1c0.3,1.6,1.2,3.1,1.1,4.8
		c-0.1,1.9,0.9,3.5,1.6,5.1c0.9,2.3,1.5,4.6,0.3,7c-0.7,1.4-0.5,2.9-0.3,4.4c0.4,2.4,0.3,4.8-0.3,7.2c-0.5,2.2-0.9,4.4-1.3,6.7
		c-0.1,0.4-0.1,0.9-0.3,1.3c-1.6,5.4-4.3,7.3-9.9,7.4c-9.1,0-18.2,0.3-27.2-0.1c-4.7-0.2-9.3,0.1-13.9,0.1c-1.3,0-2.7,0.1-4,0.4
		c-3.1,0.8-6.4,0.9-9.5,0.3C455.5,587.2,451.9,587.2,448.3,587.1z"/>
	<path class="st34" d="M369.2,576.2c1.1-0.1,1.9-0.7,2.5-1.7c2.7-4.1,6-7.6,9.6-10.9c4.8-4.4,8.6-9.8,12.7-14.8c2.4-3,5-5.7,7.8-8.3
		c3.8-3.4,7.9-6.5,11.9-9.8c1.5-1.2,3.1-2.5,4.6-3.7c1.3-1,2.8-1.8,4.4-2.2c2.9-0.8,5.3,0.8,5.4,3.7c0.2,5,1.4,9.8,2.4,14.7
		c0.9,4.7,2.4,9.1,3.8,13.5c0.3,1,0.6,2,1.1,3c3.9,7.5,5.7,15.7,8.6,23.5c0.5,1.4,0.3,2.7-0.3,3.9c-22.9,0-45.9,0-68.8,0
		c-2,0-3.9-0.2-5.9-0.2c-1.3-2-1-4.2-0.6-6.4C368.7,579,368.9,577.6,369.2,576.2z"/>
	<path class="st35" d="M519.2,455.1c-1.4,0.8-2.8,1.2-4.4,0.7c-2.7-0.8-5.4-0.6-8.1-0.6c-3.5,0-7,0-10.4,0c-2,0-3.9,0.1-5.9,0.5
		c-1.3,0.3-2.7,0.3-4.1,0.3c-3.9,0.1-7.9,0-11.8,0.1c-2.4,0-4.8,0.3-7.2,0.6c-5.6,0.5-11.2,0.7-16.7-0.3c-0.6-0.1-1.2-0.3-1.8-0.3
		c-7.1,0.3-14.2-0.9-21.3-0.9c-14.8-0.1-29.7,0-44.5-0.1c-2.1,0-4.2,0-6.3-0.6c-2.6-0.7-5.1-0.1-7.6,0.5c-0.1-2.1-0.1-4.2-0.2-6.3
		c-0.1-3.2-0.1-6.3-0.5-9.4c-0.3-2.4-0.4-4.8,0-7.2c0.7-4.6,0.5-9.3,0.6-13.9c5.2-0.5,10.4-1.3,15.7-1.3c3,0,6,1.2,8.9,0.7
		c2.8-0.5,5.6-0.8,8.5-0.8c3.3,0,6.5-0.6,9.7-1.7c0.3-0.7,0.9-1.1,1.6-1.3c1.9-0.1,3.6-0.7,5.5-1.1c0.9-0.2,1.8-0.3,2.8-0.5
		c1.2-0.1,2.3-0.4,3.4-0.7c22.8-4.4,45.9-7.8,68-15.5c2-0.7,4-1.5,6.1-0.3c2.8-0.8,5.7-1.6,8.5-2.4c0.8-0.2,1.8-0.4,2.3-1.2
		c3.2-3.5,5.3-4.1,9.2-2.3c-1.1,3.9-0.8,7.8-0.6,11.7c0.6,8,0.5,16,0.6,24C519.4,435.4,519.2,445.3,519.2,455.1z"/>
	<path class="st20" d="M519.2,389.9c-3.2,0.2-6,2-9.2,2.3c-1.4-2.5-2.7-5.1-2.7-8.1c0-1.5-0.8-2.6-2.1-3.3c-2.1-1.1-2.5-2.9-2.4-5
		c0.1-1.7-0.2-3.3-1-4.8c-0.7-1.2-0.7-2.5-0.5-4c0.3-2-1.6-3.5-3.4-2.7c-1.8,0.9-3.4,2-3.3,4.4c0,0.8,0,1.5-0.1,2.3
		c-0.2,1.5-1.1,2.1-2.6,1.5c-1.2-0.5-2.5-1.1-3.6-1.9c-2.2-1.6-4.3-3.4-6.3-5.2c-1.5-1.3-2.8-2.7-4.5-3.8c-2.3-1.5-3.9-3.8-5.2-6.2
		c-0.3-0.6-0.4-1.2,0-1.7c0.4-0.5,1.1-0.7,1.6-0.4c3.7,1.9,8,1.5,11.8,2.9c0.9,0.3,1.8,0.3,2.1-1c0.2-1.1,0.9-1.1,1.6-0.7
		c5.2,3.2,10.3,6.3,15.4,9.6c0.8,0.5,0.9,1.2,0.1,1.8c-0.9,0.8-1.3,1.6-0.7,2.8c0.7,1.3,1.8,1.5,3.1,1.5c1.7,0,2.2-0.6,1.5-2.2
		c-0.2-0.5-0.5-1-0.8-1.5c0.2-0.2,0.3-0.3,0.5-0.3c0.1,0,0.3,0,0.4,0.1c2.9,1.6,5.8,3.2,8.7,4.9c3.4,2,6.7,4.1,10,6.2
		c2.3,1.5,4.5,3,6.8,4.5c-3.5,3.6-8.5,4-12.6,6.5C521.1,389,520.2,389.4,519.2,389.9z"/>
	<path class="st19" d="M511.1,348.6c2.1-0.1,3.7,1.1,5.6,1.7c2.7,1,5.4,2,8.1,3c0.7,0.3,1.4,0.6,2,1c0.4,0.2,0.8,0.6,0.5,1.1
		c-0.1,0.2-0.5,0.4-0.7,0.4c-1.7,0.2-3.3,0.1-4.9-0.5c-3.2-1.3-6.5-2.4-8.9-5.2C512.3,349.5,511.7,349.1,511.1,348.6L511.1,348.6z"
		/>
	<path class="st19" d="M506.5,346.7c1.7,0,3.3,0.5,4.5,1.8c0,0,0,0,0,0C509.3,348.6,507.7,348.1,506.5,346.7L506.5,346.7z"/>
	<polygon class="st19" points="506.5,346.8 506.3,346.5 506.5,346.7 	"/>
	<path class="st36" d="M404.6,409.6c-0.5-0.6-0.8-1.3-0.9-2c-0.1-1.1,0.1-2.2-0.2-3.2c-0.9-2.3-0.1-4.5,0.4-6.7
		c0.3-1.1,1.4-1.5,2.1-0.7c2.6,3.1,5.2,2.4,8.5,0.9c3.4-1.5,6.1-3.8,9-6c1.1-0.8,1.8-2,2-3.4c0.3-2.1,0.8-4.2,1.4-6.2
		c0.6-2.1,0.5-4.2,0.4-6.3c-0.1-1.3-0.7-2.3-2-2.8c-0.9-0.3-1.7-0.6-2.6-1c-1.5-0.6-1.7-1.2-1.3-2.9c0.2-0.7,0.4-1.5,0.7-2.2
		c0.6-1.4,0.5-2.6-0.2-3.9c-0.4-0.8-0.8-1.7-0.9-2.6c-0.1-2.4-0.9-5,0.8-7c1.9-2.4,4.5-4,7.4-5c1.2-0.4,2.4-0.2,3.5,0.5
		c1.3,0.9,2.8,1.2,4.3,1.2c0.6,0,1.3-0.1,1.8,0.2c2.3,1.5,4.4,1.6,6.7,0c0.8-0.6,2.1-0.3,3.1,0.1c0.9,0.3,1.7,0.7,2.5,1
		c1.3,0.4,2.3-0.1,2.9-1.4c0.7-1.6,0.7-3.3-0.2-4.8c-1.4-2.3-2.9-4.6-4.5-6.8c-0.5-0.7-1.5-0.9-2.3-1.3c-0.9-0.5-1.4-1.2-1.4-2.2
		c0-0.8,0.2-1.6,1.1-1.8c2.5-0.6,5.1-0.1,7.6,0.2c0.4,0.1,0.8,0.8,1.2,1.3c0.4,0.5,0.7,1.1,1.2,1.3c1.9,1.1,2.1,2.2,1.5,4.5
		c-1.2,4.4,0.4,8.3,3.7,11.4c1.1,1,2.2,2,3.4,3.1c1,0.9,1.9,2,2.4,3.3c1.9,4.4,4.9,8,8.4,11.2c1.1,1,2.1,2.1,3.2,3.3
		c0.3,0.4,0.2,0.8-0.1,1.2c-2.4,0.8-3.5-1.1-5.1-2.1c-5.2-3.3-8.6-9-14.5-11.4c-1.5-0.8-3.1-1.3-3.1,1.3c0,9.3-2.2,18.2-3.3,27.3
		c-0.5,4.1-1.7,6.9-5.6,9c-5,2.7-10.2,4.4-15.7,5.5C422.8,405.5,413.5,406.7,404.6,409.6z"/>
	<path class="st20" d="M461,359.4c1.3,0.7,2.6,1.4,3.8,2.4c2.9,2.4,5.8,4.7,8.7,7.2c2,1.6,3.8,3.4,5.7,5.1c3.7,2.9,6.8,6.4,10.2,9.7
		c1.1,1,1.1,1.9,0.4,3.2c-0.4,0.8,0.3,1.7,1,1.5c3-0.7,4.5,0.9,5.8,3.2c0.8,1.4,2.4,2.3,2.6,4.2c-7.2,3-14.7,5.4-22.4,7.2
		c-14.6,3.5-29.4,6.4-44.2,9.2c-2.7,0.5-5.4,0.7-8.1,1.1c-0.8,0.6-1.9,0.1-2.7,0.6c-0.9,0.1-1.9,0.2-2.8,0.2
		c-1.7,0.9-3.7-0.2-5.4,0.7c-0.6,0.1-1.3,0.1-1.9,0.2c-0.3-0.1-0.6-0.2-0.9-0.3c-1.7-3.8,1.3-4.4,3.7-5.1c8.7-2.7,17.6-4.2,26.6-5.6
		c0.3,0,0.6,0,0.9-0.1c8.8-1.4,9.5-1.5,10.2-10.6c0.6-8.6,4.8-15.7,7.5-23.4c1-2.9,2.4-5.5,0.6-8.5C460.1,360.9,460.4,360,461,359.4
		z"/>
	<path class="st36" d="M456.5,334.9c0-1.5,0-2.9,0.8-4.3c1.1-0.1,2.1,0.1,3,1.3C458.4,332.3,457.6,333.8,456.5,334.9z"/>
	<path class="st36" d="M439.1,325.8c-0.3-0.2-0.5-0.4-0.8-0.6C438.6,325.4,438.9,325.6,439.1,325.8z"/>
	<path class="st36" d="M445.6,327.6c-0.3-0.2-0.6-0.4-0.9-0.6C445,327.2,445.3,327.4,445.6,327.6z"/>
	<path class="st19" d="M461,359.4c0.1,1.9,1.6,2.8,2.6,4.1c1.3,1.7,1.3,2.5-0.5,4.2c-1,0.9-1.4,1.9-1.7,3.1
		c-0.5,1.8-1.1,3.4-1.7,5.2c-0.7,2-1.3,3.8-3.2,5.2c-1.4,1.1-1.6,3.2-1.9,5c-0.7,4.2-1.2,8.4-0.9,12.6c0.2,2.7-1,4.3-3.4,5.2
		c-1.1,0.5-2.2,0.8-3.5,1c-7,1.2-14,2.3-20.9,3.6c-4.3,0.8-8.4,2.4-12.7,3.1c-1.5,0.2-2.3,1.4-2.3,3c-0.1,0-0.3,0.1-0.4,0.1
		c-4.8,0.2-5.5-0.4-5.9-5.3c1.2-2.2,3.1-3.2,5.5-3.6c4.6-0.9,9.2-1.8,13.8-2.7c4.4-0.9,8.9-1.7,13.3-2.5c3.2-0.6,6-2.1,8.7-3.8
		c0.8-0.5,1.3-1.4,2.3-1.3c2.3,0.2,2.7-1.3,3.3-3c0.8-2.2,0.5-4.5,0.9-6.7c0.7-3.8,1-7.8,1.5-11.6c0.6-4.8,1.1-9.6,1-14.4
		c0-0.6,0.2-1.2,0.3-1.8c0.4-1.5,1.5-1.9,2.7-1.1C458.9,357.8,459.9,358.6,461,359.4z"/>
	<path class="st12" d="M368.2,399.7c0-3.1,0-6.2,0-9.4C369.4,393.4,369.4,396.6,368.2,399.7z"/>
	<path class="st21" d="M291.7,482.5c-0.3,0.4-0.7,0.5-1.1,0.2c-0.1-0.1-0.1-0.6,0.1-0.7c0.2-0.2,0.6-0.2,0.8-0.2
		C291.8,481.9,291.9,482.2,291.7,482.5z"/>
	<path class="st37" d="M402.7,254.8c2.2-1.8,4.3-3.7,5.5-6.3c1.6-0.4,2.3-1.9,3.4-2.9c4.6-4.6,9.4-9,15-12.4
		c2.5-1.5,5.1-2.7,7.7-3.7c1.2-0.5,1.7,0,1.6,1.2c-0.3,2.1-0.7,4.2-0.9,6.3c-0.4,5.6,0,11.2,0.9,16.8c0.8,4.8,2.6,9.3,5.7,13.2
		c0.8,1,0.5,1.7-0.8,1.8c-6.1,0.3-12.1-0.8-17.9-2.6c-6.7-2.1-13-5-18.7-9.2C403.6,256.2,402.9,255.7,402.7,254.8z"/>
	<path class="st26" d="M413.8,414.9c1.7-1.2,3.5-0.8,5.4-0.7C417.5,415.4,415.6,415.1,413.8,414.9z"/>
	<path class="st26" d="M421.9,414c0.8-0.8,1.7-0.8,2.7-0.6C423.8,414,422.9,414.2,421.9,414z"/>
	<polygon class="st19" points="178.7,329.6 28.5,369.6 21.2,372.9 175.9,333 178.7,333.3 	"/>
	<polygon class="st19" points="172.9,350.3 9.9,392.4 6.9,395.4 11.1,395.4 14.1,392.6 149.4,357.6 171.5,353.8 	"/>
	<polygon class="st19" points="589.1,483.4 591.2,493.2 595.8,524.2 595.8,533.3 590.1,522.5 583.6,506.6 585.2,492.9 	"/>
	<polygon class="st19" points="557.3,336.9 631,358.6 703.4,379.9 708.4,385.7 557.3,340.4 555.5,338.4 	"/>
	<polygon class="st19" points="563.4,363.1 681.3,397.9 687.3,399.7 564.7,367.6 	"/>
</g>
</svg>
