<?xml version="1.0" encoding="utf-8"?>
<!-- Generator: Adobe Illustrator 27.4.0, SVG Export Plug-In . SVG Version: 6.00 Build 0)  -->
<svg version="1.1" id="Layer_1" xmlns="http://www.w3.org/2000/svg" xmlns:xlink="http://www.w3.org/1999/xlink" x="0px" y="0px"
	 viewBox="0 0 720 720" style="enable-background:new 0 0 720 720;" xml:space="preserve">
<style type="text/css">
	.st0{fill:#7A8C8B;}
	.st1{fill:#7820EF;}
	.st2{fill:#854BDD;}
	.st3{fill:#A5AB7C;}
	.st4{fill:#646D3D;}
	.st5{fill:#4E5A4D;}
	.st6{fill:#8C2EFA;}
	.st7{fill:#172317;}
	.st8{fill:#1E291F;}
	.st9{fill:#7D9F3C;}
	.st10{fill:#B5C586;}
	.st11{fill:#608E2C;}
	.st12{fill:#618D29;}
	.st13{fill:#C9DBB9;}
	.st14{fill:#90BD9E;}
	.st15{fill:#A0B963;}
	.st16{fill:#8332F9;}
	.st17{fill:#C259AB;}
	.st18{fill:#E217D5;}
	.st19{fill:#4020B1;}
	.st20{fill:#5A2092;}
	.st21{fill:#7457F8;}
	.st22{fill:#A48FD4;}
	.st23{fill:#6B962D;}
	.st24{fill:#5E842F;}
	.st25{fill:#6C853D;}
	.st26{fill:#D7C5CE;}
	.st27{fill:#D3BECB;}
	.st28{fill:#C2A3E8;}
	.st29{fill:#6B962E;}
	.st30{fill:#83A844;}
	.st31{fill:#ABB875;}
	.st32{fill:#81A53D;}
	.st33{fill:#769E39;}
	.st34{fill:#7CA13B;}
	.st35{fill:#95B166;}
	.st36{fill:#B7C38C;}
	.st37{fill:#E52ED0;}
	.st38{fill:#0D0E0D;}
	.st39{fill:#E53ACE;}
	.st40{fill:#131712;}
	.st41{fill:#161314;}
	.st42{fill:#7E68D1;}
	.st43{fill:#3D2D4C;}
	.st44{fill:#EF29DE;}
	.st45{fill:#F033DF;}
	.st46{fill:#7B5FD8;}
</style>
<rect x="1.1" y="0.6" class="st0" width="720" height="720"/>
<g>
	<path class="st1" d="M369.1,720.8c-58.2,0-116.5,0-174.7,0c-0.5-0.6-1-1.1-1.3-1.8c-4.5-12.2-9.1-24.4-13.1-36.8
		c-0.2-0.6-0.4-1.3-0.6-1.9c-0.2-0.6-0.4-1.2-0.5-1.8c-0.2-0.6-0.4-1.1-0.6-1.7c-0.4-1.1-0.8-2.2-1.3-3.3c-0.3-0.6-0.5-1.2-0.7-1.8
		c-0.2-0.4-0.3-0.8-0.4-1.2c-1.7-5.2-3.5-10.4-5.9-15.4c-0.3-0.6-0.5-1.1-0.7-1.7c-0.2-0.6-0.4-1.1-0.5-1.7
		c-0.1-0.3-0.2-0.7-0.3-1.1c-0.2-0.5-0.4-1.1-0.6-1.6c-0.2-0.3-0.3-0.7-0.5-1.1c-0.3-0.6-0.6-1.1-0.8-1.7c-0.1-0.5-0.2-0.9-0.4-1.3
		c-10.4-20-17.7-41.3-24.6-62.7c-4.7-14.6-12-28.2-16.1-43.1c-0.7-2.3-1.2-4.7-2-7c-0.1-0.5-0.2-1-0.1-1.5c0.1-1.5,0.8-2.9,0.8-4.5
		c0.1-0.5,0.3-1,0.5-1.4c0.4-0.5,0.8-1.1,1.2-1.6c1.2-1.5,3.2-1.5,4.7-2.6c1.5-1.1,1.6-3.2,3-4.4c2.3-2.1,5.2-1.9,7.3,0.5
		c1.7,2,2,4.4,1.5,6.9c-0.6,2.9-0.7,5.8-0.1,8.7c0.5,2.9,0.9,5.8,3.2,8c0.7,0.7,1.2,1.6,1,2.6c-0.2,1.3-1.1,1.9-2.4,2.1
		c1,0,1.8-0.3,2.6-0.9c1.4-0.9,3.1-1,4.7-1.1c5.9-0.1,11.8-0.1,17.6,0c1.3,0,2.6,0.2,3.8,0.7c1.6,0.7,3,1.7,3,3.5
		c0,1.7-1.6,2.3-3,2.9c-1.1,0.4-2.2,0.7-3.3,0.7c-1.6,0.1-2.7,0.6-3.2,2.4c-0.6,2.7-2.8,3.8-5.3,4.5c-2.1,0.6-4.2,0.8-6.3,1.1
		c-3.3,0.5-3.9,1.7-2.8,4.7c0.3,0.8,0.7,1.5,1.1,2.2c3.2,5.3,6.5,10.6,9.6,15.9c0.9,1.5,2.3,2.2,3.8,2.9c1.5,0.7,3.2,0.7,4.7,1.3
		c2.5,0.9,4.6,1.1,6.6-1.2c2-2.2,4.6-2.1,7.2-0.6c1.4,0.8,2.7,1.8,4.1,2.7c1.8,1,2.6,2.8,1.5,4.6c-1.9,3.2-0.6,5.5,1.5,7.9
		c2.4,2.7,3.5,5.9,3.2,9.5c-0.2,2.5,0.3,4.9,0.7,7.3c0.4,2.4,0.2,4.9,0.3,7.3c0.1,2.5,1.3,3.9,3.7,4.5c1.6,0.4,3.2,0.5,4.9,0.5
		c3.6,0.1,7.2-0.2,10.8,0.5c2.3,0.4,4.2-0.3,5.6-2.1c0.8-1,1.7-2,2.6-2.9c1.9-1.8,2.6-4,2.7-6.6c0.4-6.7,0.9-13.4,2.6-19.9
		c0.5-1.7,0.3-3.6,0.3-5.4c0.1-5.1-0.3-10.1,0.8-15.1c-0.7-5.4,0.4-10.7,0.2-16.1c-0.2-4.8,0.9-9.4,1.9-14c0.3-1.3,0.6-2.5,1.7-3.5
		c0.6-0.5,1.1-0.5,1.8-0.2c1.2,1.1,1.1,2.5,1.2,3.9c0.1,0.9,0.5,1.8,0.5,2.7c-0.2,16.3,0.2,32.6-0.2,48.9c-1.1,4.7-2.1,9.4-0.7,14.3
		c-0.3,7-0.2,14,0,21.1c-1,4.9-0.8,10-0.8,15c0,2.6,0.4,5.2,2.4,7.1c2.4,1.3,5,1.6,7.6,1.6c4.6,0,9.2,0,13.7,0
		c4.2,0,8.5-0.1,12.7,0.8c2.1,0.4,4.2,0.2,6.4,0.2c15.4,0,30.7,0,46.1,0c3.3,0,6.5-0.1,9.8,0.7c1.7,0.4,3.6,0.3,5.4,0.3
		c5.7,0,11.4,0,17.2,0c2.3,0,4.6-0.1,6.9,0.4c4.1,1.2,6,4.1,6.6,8.2c1.5,9.9,2,19.7,0.7,29.7c-0.7,5.5-0.2,11.1-0.3,16.6
		C371.1,716.9,371.1,719.2,369.1,720.8z"/>
	<path class="st2" d="M369.1,720.8c0-5.4,0-10.8,0-16.2c0-3.3,0.2-6.5,0.7-9.7c0.6-4,0.2-8.2,0.3-12.2c0.1-6.1-1.4-12-2.1-17.9
		c-0.1-0.9-0.7-1.4-1.6-1.7c-0.8-0.3-1.5-0.6-2.2-0.9c0.5-1.2,1.5-1.7,2.7-2c2.6-1.4,5.4-1.2,8.2-1.2c21.9,0,43.8,0,65.8,0
		c7.1,0,7.5-0.7,6.1-7.8c-1-5.1-3.2-10-2.1-15.4c0.4-1.8-1.3-2.5-2.3-3.4c-5.1-4.6-6.2-10.9-7.3-17.2c-0.3-1.5,0.2-2.9,1.4-4.1
		c4.5,0,4.9,4,5.6,6.7c1.2,4.7,3.4,7.7,8,9.6c4.5,1.8,6,6,5.1,10.6c-1.2,5.8,0.2,11.4,0.2,17.1c0,3.4,2.3,3.7,5,3.9
		c7.5,0.6,14.9,0.6,22.4,0.1c13-0.8,26.1,0,39.2-0.2c7.5-0.1,10.9-3.7,12-11.2c1.2-8.3,0.2-16.7,1.9-24.9c0.3-1.3,0.3-2.6,1.1-3.7
		c5.3-1,9.7-3.9,14.5-6c6.4-2.8,10.4-0.3,11.8,6.5c0.7,3.5,1,7,3.5,10.9c3.3-7.3,6.9-13.5,9.5-20.4c8.7-23,16-46.6,24.8-69.6
		c0.8-2.1,1.3-5,4.8-4.2c0.1,1-0.2,1.9-0.5,2.9c-2.3,6.5-4.5,12.9-6.7,19.4c-1.5,4.3-2.7,8.7-4.3,13c-3.2,9.1-6.6,18.1-9.9,27.1
		c-0.6,1.7-1.4,3.3-1.4,5.2c1,2.1,0.4,4.2-0.3,6.2c-2.4,6.8-4.5,13.6-7.1,20.3c-4.2,11.2-8.6,22.2-12.1,33.6
		c-2.9,9.4-5.9,18.7-9.1,27.9c-2.6,7.7-5.4,15.4-8.3,23c-0.9,2.4-2.2,4.4-4.3,5.8C484.3,720.8,426.7,720.8,369.1,720.8z"/>
	<path class="st3" d="M541.9,720.8c6.5-16.8,12.3-33.8,17.7-50.9c4.4-14,9.6-27.8,14.6-41.6c2.5-6.7,4.7-13.6,7.1-20.4
		c0.5-1.4,0.7-2.9,1.7-4c4.1-6.6,6.7-14,10-21.1c3.1-6.6,6.7-13.1,10.1-19.6c0.8-1.5,2.2-2.4,3.8-3c1.9-0.7,3.4,0.1,3.6,2.1
		c0.4,6.3,0.9,12.4,2.6,18.7c1.6,5.8,2.2,12.4,2,18.3c-0.3,7.1,2.5,14,0.7,21.2c-1.3,5.2,0.5,10.7,1,16c0.5,5.4,0.7,10.7,0.8,16.1
		c0,2,0.3,3.9,1.9,5.3c1.4,1.5,1,3.4,1,5.1c0,11.6,0.6,23.2-0.2,34.6c-0.5,7.7,0.2,15.5-1.8,23.1
		C592.9,720.8,567.4,720.8,541.9,720.8z"/>
	<path class="st4" d="M105,720.8c0-1.3,0-2.6,0-3.9c1.4-1,3-1.1,4.7-1.1c6-0.1,12.1-0.4,18.1,0.2c9.8,1.1,19.5,0.4,29.3,0.7
		c2.6,0.1,5.2,0,7.8-0.6c1.6-0.4,3.2-0.3,4.9-0.3c6.2,0,12.4,0,18.6,0c2.6,0,4.8,0.6,6.1,3.1c0,0.6-0.1,1.3-0.1,1.9
		C164.6,720.8,134.8,720.8,105,720.8z"/>
	<path class="st5" d="M618.4,720.8c-0.6-4.6,0-9.1,0.2-13.6c0.2-4.4,0.7-8.8,0.8-13.1c0.2-12,0.4-24.1,0-36.1
		c0.2-5.9,0.2-11.8-0.2-17.6c-0.7-4-0.2-8-0.3-12.1c0-0.8,0.1-1.6,1.3-1.4c0.2,14.7,1.5,29.4,1.2,44.1c-0.2,8.7-0.1,17.3-0.2,26
		c-0.1,6.4-0.6,12.7-0.8,19.1c-0.1,1.6,0,3.3,0,4.9C619.7,720.8,619.1,720.8,618.4,720.8z"/>
	<path class="st6" d="M605.9,536.3c-1.4,0.5-1.9,1.6-2.3,2.9c-2.4,7.4-5.3,14.7-8.1,21.9c-0.8,2.1-1.3,4.4-1.8,6.6
		c-1.2,5.1-3.8,9.7-5.2,14.7c-0.9,3.1-2.1,6.2-3,9.3c-0.8,3-2.4,5.7-3.5,8.6c-1.5,4.3-3,8.6-4.5,12.9c-0.7,2.1-1.7,4.2-2.9,6.2
		c-1.3,2.2-2.2,4.7-3.3,7.1c-1,2.1-1.9,4.2-3,6.2c-0.8,1.5-2.1,1.5-3,0.1c-2.1-3.6-3-7.6-3.6-11.6c-0.3-1.6-0.5-3.2-1-4.8
		c-0.6-1.8-1.9-2.6-3.7-2.5c-3.2,0.1-6.1,1.1-8.6,3c-0.5,0.4-0.9,0.9-1.4,1.3c-3.2,2.6-5.1,2.7-8.8,0.5c-2.8-0.1-3.4-2.2-4-4.2
		c-3.1-10-5.3-20-5.2-30.7c0.4-24,0.2-48.1,0.1-72.1c0-4.2,1-8.5-0.2-12.7c0.4-11.4,0.8-22.8-0.1-34.2c-0.9-11.2-0.4-22.4-0.7-33.7
		c-0.1-2.4-0.1-4.9,1.1-7.1c1.2-2.5,3.5-3.7,5.9-4.9c12.8-6.1,25.4-12.6,37.5-19.9c1.6-1,3.3-2.2,5.4-1.1c1.9,0.8,2.5,2.5,2.9,4.2
		c2.6,12.6,5.2,25.3,7.8,37.9c0.1,0.3,0.2,0.6,0.2,1c0.1,0.8,0.3,1.7-0.4,2.3c-0.8,0.7-1.5-0.1-2.2-0.5c-0.4-0.2-0.8-0.7-1.3-0.1
		c0.2,1.1,1.1,1.6,1.9,2.1c2.7,1.9,3.9,4.6,4.5,7.8c2.4,12,5,24,7.5,36c2.8,13.3,5.5,26.5,8.3,39.8
		C607.8,531.3,608.1,534,605.9,536.3z"/>
	<path class="st7" d="M243.3,62.5c0,0.3,0.1,0.5,0.4,0.6c0.1,0.3,0.4,0.6,0.6,0.8l0.1,0.2c0.3,0.3,0.6,0.6,0.8,1l0,0
		c0.4,0.3,0.8,0.6,0.9,1.1l-0.1-0.1c0.6,0.3,0.9,0.7,1,1.3c0,0.3,0.1,0.6,0.4,0.7c0.1,0.3,0.3,0.6,0.6,0.7l0.1,0.2
		c0.3,0.3,0.5,0.6,0.8,0.9l0,0c0.3,0.2,0.6,0.4,0.9,0.4c0.2,0,0.3,0.1,0.5,0.1c0.3,0.1,0.6,0.3,0.9,0.5c0.3,0.2,0.5,0.5,0.7,0.8
		c0.2,0.3,0.4,0.5,0.6,0.8c0.2,0.3,0.4,0.5,0.6,0.8c0.2,0.2,0.5,0.5,0.7,0.8c0.1,0.1,0.2,0.3,0.4,0.4c0.3,0.3,0.5,0.5,0.7,0.8
		c0.1,0.1,0.2,0.3,0.3,0.5c0.5,0.6,0.9,1.3,1.5,1.8c0.3,0.3,0.6,0.6,0.9,1c0.3,0.4,0.6,0.8,0.8,1.1c0.2,0.2,0.3,0.4,0.5,0.5
		c9.4,10.9,18.1,22.3,26.8,33.7c3.3,4.2,6.9,6.3,12.4,6.1c20.7-0.6,41.4-2.2,62.1-2.1c2.6,0,5.3-0.3,7.2,2.2c-0.1,0.3,0,0.6,0.2,0.8
		c1.7,2,1.3,4.5,1.9,6.8c0.1,1.6-0.1,3.1-0.2,4.6c-1.2,4.3-1.4,8.6-1.4,13c0.1,20.3,0,40.7,0,61c0,2.1,0.2,4.2-0.3,6.3
		c-0.2,0.6-0.5,1-0.9,1.4c-0.5,0.3-1,0.5-1.6,0.4c-0.3-0.1-0.5-0.1-0.8-0.2c-0.5-0.2-0.9-0.4-1.4-0.7c-0.2-0.1-0.4-0.3-0.6-0.4
		c-0.4-0.3-0.7-0.6-1-1c-1-1.1-1.9-2.3-2.9-3.5c-0.3-0.3-0.5-0.6-0.8-0.9c-0.1-0.1-0.2-0.3-0.4-0.5c-0.3-0.3-0.5-0.6-0.7-0.9
		c-0.1-0.1-0.2-0.3-0.4-0.4c-0.3-0.3-0.5-0.6-0.7-0.9c-0.5-0.6-0.9-1.2-1.4-1.8c-0.3-0.3-0.5-0.6-0.7-0.9c-0.1-0.1-0.2-0.3-0.4-0.4
		c-0.3-0.3-0.5-0.6-0.7-0.9c-0.6-0.8-1.2-1.6-1.8-2.3c-0.3-0.3-0.5-0.6-0.7-0.9c-0.1-0.1-0.2-0.3-0.4-0.5c-0.3-0.3-0.5-0.6-0.8-0.9
		c-0.1-0.1-0.3-0.3-0.4-0.4c-0.3-0.3-0.6-0.6-0.8-0.9c-0.6-0.8-1.3-1.6-1.9-2.4c-0.3-0.3-0.5-0.6-0.8-0.9c-0.1-0.2-0.3-0.3-0.4-0.5
		c-0.3-0.3-0.5-0.6-0.8-1c-0.6-0.8-1.2-1.6-1.8-2.4c-0.3-0.3-0.5-0.6-0.8-0.9c-0.1-0.1-0.2-0.3-0.4-0.5c-0.3-0.3-0.5-0.6-0.8-0.9
		c-0.1-0.1-0.3-0.3-0.4-0.4c-0.3-0.3-0.6-0.6-0.9-0.9c-1.2-1.3-2.4-2.7-3.5-4c-0.3-0.3-0.5-0.6-0.8-1c-0.1-0.1-0.2-0.3-0.4-0.5
		c-0.3-0.3-0.5-0.6-0.8-0.9c-0.1-0.1-0.3-0.3-0.4-0.4c-0.3-0.3-0.6-0.6-0.9-0.9c-0.2-0.1-0.3-0.3-0.5-0.4c-0.3-0.3-0.6-0.6-0.9-0.9
		c-6.6-7.7-13.4-15.2-20.3-22.6c-7-7.5-14.1-14.9-20.7-22.9c-0.4-0.5-0.9-1-1.3-1.5c-1.3-1.6-2.9-1.9-4.8-1.1
		c-2.6,1.1-5,2.4-7.4,3.8c-14,8.2-26.9,17.9-39.1,28.6c-5.4,4.7-10.9,9.3-15.5,14.9c-4,4.9-8.9,9.1-13.4,13.6
		c-2.8,2.8-5.6,5.5-8.1,8.5c-1.3,1.6-2.7,3.4-5.2,2.9c-1.4-0.7-2.2-1.8-2.7-3.3c-0.5-2.4-0.4-4.9-0.4-7.3c0-8,0-16,0-24
		c0-3.4,0-6.8,0.7-10.2c0.5-2.6,0.3-5.2,0.3-7.8c0-42.6,0-85.3,0-127.9c0-2.3,0-4.6,0.1-6.9c0.1-1.6,0-3.3,1.2-4.6
		c0.5-0.6,1.1-0.7,1.7-0.4l0-0.1c0.4,0.2,0.7,0.5,0.9,0.9l0.2,0.2c0.3,0.2,0.5,0.5,0.7,0.8c0.8,1.7,2,2.9,3.4,4.1
		c0.1,0.3,0.3,0.5,0.6,0.7l0.3,0.3c0.3,0.3,0.5,0.5,0.8,0.8l0.1,0.1c0.3,0.2,0.6,0.5,0.7,0.9c0.6,1.1,1.3,2.2,2.3,3
		c0.2,0.3,0.4,0.5,0.6,0.8c0.6,1.2,1.3,2.3,2.3,3.1c0.2,0.3,0.5,0.6,0.7,0.9l0.2,0.2c0.3,0.2,0.5,0.5,0.7,0.9c0.8,1,1.6,2,2.4,3.1
		c0.1,0.3,0.3,0.5,0.6,0.7c0,0.2,0.1,0.4,0.3,0.4c0.3,0.2,0.5,0.5,0.7,0.8l0.1,0.1c0.3,0.2,0.6,0.6,0.7,0.9c0.5,1.3,1.5,2.2,2.5,3
		c0.1,0.3,0.2,0.5,0.5,0.6c0.1,0.3,0.2,0.5,0.5,0.5c0.2,0.2,0.3,0.3,0.5,0.5c0,0.3,0.1,0.4,0.4,0.5c0.2,0.2,0.5,0.4,0.7,0.7l0.2,0.2
		c0.3,0.2,0.5,0.5,0.7,0.8c0.7,1.2,1.5,2.4,2.6,3.2c0.1,0.1,0.2,0.3,0.3,0.4c0,0.3,0.2,0.5,0.5,0.6c0.2,0.2,0.4,0.4,0.6,0.6l0.3,0.3
		c0.3,0.2,0.5,0.5,0.8,0.8l0.1,0.1c0.3,0.2,0.6,0.5,0.7,0.9c0.6,0.7,1.1,1.4,1.7,2.2l0.3,0.3c0.2,0.2,0.5,0.5,0.7,0.7l0.3,0.3
		c0.1,0.3,0.2,0.5,0.5,0.7c0.2,0.2,0.3,0.4,0.5,0.6c0,0.2,0.1,0.3,0.3,0.3c0.3,0.2,0.6,0.5,0.8,0.8l0.1,0.1c0.3,0.3,0.6,0.6,0.9,0.9
		l0,0c0.4,0.2,0.6,0.6,0.8,1c0.6,1.2,1.6,2.2,2.7,3.1c0.1,0.1,0.2,0.3,0.4,0.4c0.1,0.3,0.2,0.5,0.5,0.6c0,0.3,0.2,0.5,0.5,0.5
		c0,0.2,0.1,0.4,0.3,0.4c0.1,0.3,0.4,0.5,0.7,0.7l0.2,0.3c0.3,0.3,0.5,0.6,0.8,0.9l0.1,0.1c0.4,0.3,0.7,0.6,0.9,1l0,0
		c0.5,0.2,0.8,0.6,1,1.1l-0.1-0.1C242.9,61.4,243.2,61.8,243.3,62.5z"/>
	<path class="st8" d="M455.9,110.4c1-0.9,2-1.8,2.5-3.2c0.4-4.4,3.3-7.1,6.4-9.7c0.5-0.4,1.1-0.7,1.6-1.1l0-0.1
		c0.2-0.3,0.5-0.6,0.8-0.9l0.2-0.2c0.7-3.9,3.1-6.8,5.7-9.5c15.9-17,30.9-34.6,46.6-51.8c5-5.4,9.9-10.9,14.7-16.4
		c1.9-2.2,3.6-5.2,7.4-4.7c0.1,1.8,0.3,3.5,0.4,5.3c0.5,6.5,0.3,13.1,0.2,19.6c-0.1,10.9,1.4,21.8,1.4,32.7c0,23-0.9,46-2,69
		c-0.9,18.1-1.1,36.1-1.9,54.2c-1,3.8-3,3.7-5.6,1.4c-4.2-3.7-7.3-8.3-11.3-12.2c-16.9-16.9-35-32.3-54.6-46
		c-2.3-1.6-4.6-3.2-6.7-4.9c-0.3-0.3-0.7-0.6-1-0.9c-0.3-0.3-0.6-0.5-0.9-0.8c-0.2-0.1-0.3-0.3-0.5-0.4c-0.3-0.2-0.6-0.5-1-0.6
		c-0.5-0.3-0.9-0.6-1.4-1c-0.5-0.3-0.9-0.6-1.4-0.9c-0.3-0.2-0.6-0.3-0.9-0.5c-0.5-0.3-0.9-0.5-1.4-0.8c-0.5-0.3-0.9-0.6-1.3-0.9
		c-0.3-0.2-0.6-0.4-0.8-0.6c-0.1-0.1-0.3-0.2-0.4-0.3c-0.4-0.3-0.8-0.7-1.2-0.9c-0.3-0.2-0.6-0.4-0.9-0.6c-0.4-0.3-0.8-0.7-1.1-1.1
		c-0.3-0.5-0.4-1-0.2-1.6c0.6-0.5,1.4-0.3,2.1-0.5c1.4-0.4,1.9-1.7,2.4-2.9l0.2-0.2c0.6-0.9,1.2-1.8,1.7-2.7c0,0,0.2-0.3,0.2-0.3
		c0.3-0.6,0.5-1.1,0.8-1.7l0.1-0.2c0.3-0.3,0.6-0.6,0.9-0.9L455.9,110.4z"/>
	<path class="st9" d="M577.9,398.1c-5.6,3.3-11.3,6.5-16.8,10.1c-3.4,2.2-7.2,3.8-10.8,5.6c-6.1,3-12.3,6-18.4,9.1
		c-0.4,0.2-0.8,0.6-1.2,0.8c-2,2-4.4,3.2-7,4.3c-15.7,6.3-31.7,12-48.1,16.2c-3.3,0.8-6.7,1.5-10,2.1c-5.2,0.9-10,2.7-15.1,3.9
		c-8.4,1.9-17,3.1-25.5,4.6c-2.4,0.4-4.8,1.2-7.2,1c-1.9-0.1-3.9-0.5-5.8-0.5c-3.8-0.1-5.4-1.3-6.1-4.4c-0.8-3.3,0.3-6.5,2.8-8.3
		c1.2-0.8,2.6-1.2,4.1-1.6c3.7-0.8,7.3-1.6,11-2.2c6-1.1,11.8-2.7,17.7-3.8c2.3-0.4,4.4-1.2,6.4-2.4c1.8-1.1,3.7-2.1,5.7-2.9
		c1.9-0.8,2.8-2.2,2.8-4.2c0-4.3,0.7-8.5,1.2-12.7c0.8-6.7,0.4-13.4,1.6-20c0.2-1.3,0.1-2.6,0.2-3.9c0-1,0-2,0.3-2.9
		c0.8-3.6,2.9-4.6,6.1-2.8c2.9,1.6,5.5,3.6,7.5,6.2c1.9,2.5,4.1,4.6,6.3,6.8c6.3,6,12.3,12.2,18.4,18.3c1.3,1.3,1.9,3.1,3,4.1
		c-2.2-3.6-5.6-6.7-8.8-9.8c-5-4.9-9.7-10.1-15.1-14.7c-2.5-2.1-4.4-4.9-6.2-7.5c-2.3-3.3-4.3-7-6.2-10.5c-1.7-3.1-1.7-6.6-2.2-10
		c-0.2-1.4,0.1-3-0.7-4.3c-1.3-2.3-0.9-4.4,1-6.1c0.3-0.2,0.3-0.6,0.2-1.1c-6.6-2.5-13.7-4.1-20.4-6.5c-0.4-0.2-0.8-0.4-1.2-0.6
		c-0.4-0.2-0.8-0.4-1.1-0.6c-0.4-0.2-0.7-0.3-1.1-0.5c-0.5-0.2-1.1-0.5-1.6-0.7c-0.4-0.1-0.7-0.2-1-0.4c-0.5-0.2-1-0.4-1.5-0.6
		c-0.5-0.1-1-0.3-1.5-0.5c-0.5-0.1-1-0.3-1.5-0.5c-0.7-0.2-1.4-0.2-2.1-0.5c-0.5-0.1-1.1-0.3-1.6-0.5c-0.5-0.1-1.1-0.3-1.6-0.5
		c-0.5-0.1-1.1-0.3-1.6-0.4c-0.7-0.2-1.5-0.4-2.2-0.5c-0.6-0.1-1.2-0.2-1.8-0.4c-0.9-0.2-1.7-0.4-2.6-0.6c-0.7-0.1-1.4-0.4-2.1-0.6
		c-3.7-1.2-7.6-2-11.4-3c-1.7-0.5-3.5-1-4.7-2.4c-0.7-0.7-1.2-1.6-0.9-2.6c0.4-1.1,1.4-1.2,2.4-1.3c1.7-0.1,3.2,0.4,4.8,0.9
		c11.8,3.8,24.2,5.5,35.5,11c0.7,0.4,1.6,0.3,2.4,0.5c9.4,2.7,18.7,5.9,28,9c10.8,3.7,21.7,7.1,32.4,11.3c7.9,3.1,15.8,6.2,23.4,9.9
		c2.6,1.3,5.4,2.4,8.1,3.6c8.6,3.7,17.2,7,25.6,11.1c2.5,1.2,5.1,2.1,7.7,3.1c2.1,0.8,4.2,1.9,6.2,3c1,0.5,1.9,1.2,2.3,2.4
		c0.1,0.1,0.2,0.3,0.3,0.4C579.7,397.4,579.7,397.4,577.9,398.1z"/>
	<path class="st10" d="M447.8,120c0.3,0.4,0.6,0.7,0.9,1.1c0.3,0.2,0.6,0.4,0.9,0.7l0.1,0.1c0.4,0.6,1.3,0.3,1.7,1l0.2,0.2
		c0.4,0.2,0.8,0.4,1.2,0.7c0.6,0.4,1.2,0.8,1.8,1.2c0.3,0.3,0.7,0.6,1.1,0.8c0.3,0.2,0.6,0.3,0.9,0.5c0.4,0.1,0.6,0.3,0.8,0.6
		c0.7,0.5,1.5,0.9,2.2,1.4c0.4,0,0.6,0.2,0.7,0.6l0.2,0.2c0.3,0.2,0.6,0.4,0.8,0.7l0.1,0.1c-0.3,2.6-2.3,2.3-4,2.2
		c-1.5-0.1-2.9-0.7-4.1-1.5c-2.3-1.4-4.3-0.8-6.3,0.7c-1.7,1.3-3,3-4.2,4.8c-1.4,2-2.9,4-5.5,4.7c-1.9,0.5-2.4,2-2.8,3.6
		c-0.4,1.4-0.4,2.9-0.5,4.4c-0.1,2.7-1.1,5.1-3.3,6.8c-2.2,1.7-3.6,3.7-4.2,6.4c-0.6,2.6-2.1,4.5-4.7,5.2c-3,0.8-4.6,2.9-5.8,5.5
		c-6.9,14.6-14.7,28.8-22.4,43.1c-1.7,3.2-3.4,6.3-5.4,9.3c-1,1.5-1.9,3.1-2.5,4.8c-0.5,1.4-1.2,2.7-2,3.9c-1.5,2-2.8,4-3.7,6.3
		c-1.1,2.7-2.4,3.4-4.3,3.2c-2-0.3-3.5-2-4-4.4c-0.2-1-0.2-2-0.2-2.9c0-1.6-0.1-3.3-0.6-4.9c-0.7-2.7-1.3-5.3-1.1-8.2
		c0.2-2.6-0.7-5.1-2.6-7.1c-0.1-0.6-0.1-1.1,0.1-1.7c0.5-25.5,0.1-51,0.2-76.5c0-1.9-0.3-3.9,0.3-5.8c0.1-1.4,0.3-2.8,0.4-4.2
		c0.8-2.2-0.2-4.6,0.7-6.8c1-0.9,2.3-1,3.6-1c2.4,0,4.8-0.1,7.2-0.1c1.6-2.2,4-2,6.2-2c3.1,0,6.2-0.3,9.3-0.2
		c8.3,3,16.9,2.1,25.4,2.1C429.8,119.8,438.8,118.7,447.8,120z"/>
	<path class="st11" d="M278.7,339.8c-9.2,3.6-18.2,8-27.8,10.6c-9.7,2.7-19.6,5-29.5,7c-11.5,2.4-22.8,5.5-33.9,9.1
		c-4.9,1.6-9.9,3.2-14.9,4.5c-4.7,1.3-9.3,2.8-13.9,4.6c-0.9,0.3-1.7-0.3-1.5-1.2c0.5-2.7,0.9-5.5,1.7-8.1c0.8-2.6,2-5.1,3.1-7.7
		c0.3-0.1,0.7-0.2,1-0.3c0.3-0.2,0.6-0.4,1-0.6c0.7-0.2,1.3-0.3,2-0.5c0.3-0.2,0.6-0.4,0.9-0.5c1.9-0.5,3.8-1,5.7-1.5
		c0.8-1.9,2.6-2.5,4.3-2.9c6.4-1.7,12.8-3.8,19.4-4.8c8,0.2,15.8-1.8,23.4-3.9c7.5-2.2,15.1-3.6,22.8-5.1c3.4-0.6,6.6-1.5,9.8-2.7
		c1.4-0.4,2.7-1.1,4.2-1.2c1.4,0.2,2.9,0.9,4.3-0.2c0.8-0.4,1.7-0.6,2.6-0.5c1.9,0.5,3.8,0.3,5.7,0.2c2.5-0.1,6.9-3.5,6.4,3.1
		C275.5,338.1,278.2,338.3,278.7,339.8z"/>
	<path class="st12" d="M167.6,355.5c-0.9,0.2-1.9,0.3-2.8,0.5c-0.4,0.2-0.7,0.4-1.1,0.5c-0.4,0-0.8,0-1.2,0
		c-1.2-2.1-1.2-4.3-0.5-6.6c1-3.1,1.4-6.4,2.2-9.5c0.2-1,0.5-1.9,0.8-2.9c0.2-1,0.5-1.9,0.5-2.9c0.1-0.5,0.3-1,0.5-1.4
		c2-4.4,2.6-9,3.3-13.7c0.7-5.1,2.1-9.7,5.8-13.6c4.6-4.9,4.3-11.8,6.4-17.8c1-2.9,0.8-6.9,4.9-6.6c3.7,0.2,3.9,3.8,4.2,6.8
		c0.1,0.8,0,1.7,0.4,2.4c6.2,11.6,2.4,23.3,0.1,34.9c-0.6,3-1.4,6-1.8,9.3c1.7-1.6,3.7-2.4,6-2.3c2.3,0.1,3.9,1.3,5.4,3
		c3.7,4.4,8.4,3.9,13.5,2.9c3.1-0.6,7-2.5,8.4,2.8c-0.3,1.5-1.5,2-2.8,2.3c-15.4,3.8-31,6.4-46.3,10.8c-1.2,0.3-2.6-0.2-3.8,0.4
		c-0.3,0-0.5,0-0.7,0.2C168.5,355,168.1,355.3,167.6,355.5z"/>
	<path class="st13" d="M578.2,394.7c0.3,0.1,0.6,0.1,0.9,0.2c-0.3,0.3-0.6,0.7-1,1c-5.7-2.4-11.4-4.8-17.1-7.2
		c-8.2-3.5-16.5-7-24.6-10.7c-7.6-3.4-15.1-6.8-22.8-10c-11.6-4.7-23.4-8.9-35.3-12.7c-10.1-3.2-20-6.6-30.1-10
		c-1.2-0.4-2.4-0.9-3.7-1.3c0.1-0.8,0.5-1.4,1.2-1.9c6.6-0.7,12,3.2,18.1,4.8c4.8,1.2,9.4,2.8,13.9,4.6c3,1.2,6.3,1.9,9.4,2.9
		c7.9,2.6,15.7,5.5,23.6,8.3c3.7,1.3,7.3,2.9,11,4.1c3.4,1.2,6.6,2.7,9.9,4.3c7.6,3.5,15,7.3,22.8,10.3c7,2.7,13.7,6.2,20.5,9.4
		c0.9,0.4,1.7,1,2.3,1.8C577.7,393.2,577.8,394,578.2,394.7z"/>
	<path class="st13" d="M720.2,447.3c0.3,0.1,0.6,0.1,0.9,0.2c-0.3,0.3-0.6,0.7-1,1c-5.7-2.4-11.4-4.8-17.1-7.2
		c-8.2-3.5-16.5-7-24.6-10.7c-7.6-3.4-15.1-6.8-22.8-10c-11.6-4.7-23.4-8.9-35.3-12.7c-10.1-3.2-20-6.6-30.1-10
		c-1.2-0.4-2.4-0.9-3.7-1.3c0.1-0.8,0.5-1.4,1.2-1.9c6.6-0.7,12,3.2,18.1,4.8c4.8,1.2,9.4,2.8,13.9,4.6c3,1.2,6.3,1.9,9.4,2.9
		c7.9,2.6,15.7,5.5,23.6,8.3c3.7,1.3,7.3,2.9,11,4.1c3.4,1.2,6.6,2.7,9.9,4.3c7.6,3.5,15,7.3,22.8,10.3c7,2.7,13.7,6.2,20.5,9.4
		c0.9,0.4,1.7,1,2.3,1.8C719.7,445.9,719.8,446.7,720.2,447.3z"/>
	<path class="st14" d="M169.5,354.5c6.5-2.1,13.2-3.6,19.8-5.3c7.7-1.9,15.4-4,23.2-6c3.1-0.8,6.4-0.9,9.4-2.3
		c0.8-1.5,2.2-2.4,3.8-2.8c6.1-1.5,12.3-2.8,18.6-3.5c1.3-0.1,2.6-0.1,3.8,0.6c0.5,0.3,0.7,0.8,0.8,1.3c-0.4,2.6-2.5,2.1-4.2,2.3
		c-0.7,0-1.4,0.1-2.1,0.4c-1.1,0.3-2.2,0.6-3.3,0.6c-0.7,0-1.3,0.3-2,0.4c-0.9,0-1.8,0.3-2.7,0.5c-1,0.1-1.8,0.5-2.8,0.7
		c-7.3,1.6-14.5,3.4-21.7,5.1c-1.1,0.2-2.3,0-3.4,0.4c-0.6,0.2-1.2,0.3-1.8,0.6c-0.6,0.2-1.2,0.4-1.8,0.6c-0.8,0.1-1.6,0.2-2.4,0.5
		c-0.6,0.2-1.2,0.4-1.8,0.5c-0.8,0-1.6,0.1-2.4-0.2c-7.9,2.1-15.9,4.2-23.8,6.4C171.7,354.5,170.6,354.6,169.5,354.5z"/>
	<path class="st14" d="M77.9,376.7c6.5-2.1,13.2-3.6,19.8-5.3c7.7-1.9,15.4-4,23.2-6c3.1-0.8,6.4-0.9,9.4-2.3
		c0.8-1.5,2.2-2.4,3.8-2.8c6.1-1.5,12.3-2.8,18.6-3.5c1.3-0.1,2.6-0.1,3.8,0.6c0.5,0.3,0.7,0.8,0.8,1.3c-0.4,2.6-2.5,2.1-4.2,2.3
		c-0.7,0-1.4,0.1-2.1,0.4c-1.1,0.3-2.2,0.6-3.3,0.6c-0.7,0-1.3,0.3-2,0.4c-0.9,0-1.8,0.3-2.7,0.5c-1,0.1-1.8,0.5-2.8,0.7
		c-7.3,1.6-14.5,3.4-21.7,5.1c-1.1,0.2-2.3,0-3.4,0.4c-0.6,0.2-1.2,0.3-1.8,0.6c-0.6,0.2-1.2,0.4-1.8,0.6c-0.8,0.1-1.6,0.2-2.4,0.5
		c-0.6,0.2-1.2,0.4-1.8,0.5c-0.8,0-1.6,0.1-2.4-0.2c-7.9,2.1-15.9,4.2-23.8,6.4C80.1,376.8,79,376.8,77.9,376.7z"/>
	<path class="st15" d="M395.6,119c2.9-0.1,5.9-0.1,8.8-0.2c11.6,0,23.2,0.1,34.8,0.1c3.4,0,6.9-0.3,10.3,0.4c-0.4,0.6-1,0.7-1.7,0.7
		c-2.8,0-5.5,0-8.3,0c-1,0-2-0.1-2.9,0c-3.9,0.6-7.7,1.1-11.6,0c-0.7-0.2-1.6-0.1-2.4,0.1c-6.1,1.5-12.3,0.6-18.5,0.7
		c-0.8,0-1.8-0.5-2.4-0.2C399.1,121.9,397.3,120.7,395.6,119z"/>
	<path class="st3" d="M618.3,618.7c-0.8-0.9-0.8-2.1-0.9-3.2c-0.1-4.5,0.3-9.1-0.9-13.5c-0.1-0.3,0-0.6,0-1c0-1.7,0.6-3.2,1.3-2.7
		c0.9,0.7,0.7,1.7,0.6,2.6c-0.2,3.4,0.6,6.7,0.9,10.1c-0.6,1.5-0.2,3.1-0.3,4.6C618.8,616.7,619.3,617.8,618.3,618.7z"/>
	<path class="st3" d="M620.3,626.8c-1,1.1-0.9,2.4-0.9,3.7c-0.1,3.3-0.1,6.5-0.1,9.8c-1.7-5.6-0.6-11.3-0.6-17
		c0.2-0.4,0.6-0.6,1-0.6C620.6,623.9,620.4,625.3,620.3,626.8z"/>
	<path class="st5" d="M619.7,622.7c-0.3,0.2-0.7,0.4-1,0.6c-0.1-1.5-0.2-3-0.3-4.6c0.1-1.6,0.1-3.3,0.2-4.9c0-1,0.1-2,0.8-2.8
		C619.4,614.9,619.5,618.8,619.7,622.7z"/>
	<path class="st14" d="M369,120.9c-0.1,2.3,0.6,4.6-0.7,6.8c-0.4-2.2-0.3-4.5-0.1-6.8C368.5,120.9,368.7,120.9,369,120.9z"/>
	<path class="st14" d="M271.9,90.5c-0.3-0.3-0.7-0.7-1-1C271.3,89.8,271.6,90.2,271.9,90.5z"/>
	<path class="st14" d="M272.9,91.5c-0.3-0.3-0.7-0.7-1-1C272.2,90.8,272.6,91.1,272.9,91.5z"/>
	<path class="st14" d="M273.9,92.4c-0.3-0.3-0.7-0.7-1-1C273.2,91.8,273.6,92.1,273.9,92.4z"/>
	<path class="st14" d="M275.8,95.4c-0.3-0.3-0.7-0.7-1-1C275.2,94.7,275.5,95.1,275.8,95.4z"/>
	<path class="st14" d="M276.8,96.4c-0.3-0.3-0.7-0.7-1-1C276.2,95.7,276.5,96,276.8,96.4z"/>
	<path class="st14" d="M270,88.5c-0.3-0.3-0.7-0.7-1-1C269.3,87.9,269.6,88.2,270,88.5z"/>
	<path class="st14" d="M467.1,95.5c-0.1,0.5-0.2,0.9-0.8,0.9C466.6,96.1,466.9,95.8,467.1,95.5z"/>
	<path class="st14" d="M269,86.6c-0.3-0.3-0.7-0.7-1-1C268.3,85.9,268.6,86.2,269,86.6z"/>
	<path class="st14" d="M263.1,79.7c-0.3-0.3-0.7-0.7-1-1C262.4,79,262.8,79.4,263.1,79.7z"/>
	<path class="st14" d="M455.9,110.4c0,0-0.2,0.2-0.2,0.2C455.8,110.6,455.9,110.4,455.9,110.4z"/>
	<path class="st14" d="M454.9,111.5c0,0-0.1,0.2-0.1,0.2C454.8,111.6,454.9,111.5,454.9,111.5z"/>
	<path class="st14" d="M250.3,69.9c0,0.4,0,0.7-0.1,1.1c-0.5-0.1-0.8-0.5-0.9-1C249.7,69.9,250,69.9,250.3,69.9z"/>
	<polygon class="st14" points="454,113.3 454,113.6 453.8,113.6 	"/>
	<path class="st14" d="M452,116.3c0,0-0.2,0.2-0.2,0.2C451.9,116.5,452,116.3,452,116.3z"/>
	<path class="st14" d="M248.3,68.7c-0.2-0.2-0.4-0.5-0.6-0.7C247.9,68.2,248.1,68.5,248.3,68.7z"/>
	<path class="st14" d="M247.2,67.3c-0.6-0.2-1-0.7-1-1.3C246.6,66.4,246.9,66.9,247.2,67.3z"/>
	<path class="st14" d="M246.3,66.1c-0.6-0.1-0.9-0.5-0.9-1.1C245.7,65.4,246,65.7,246.3,66.1z"/>
	<path class="st14" d="M245.4,65c-0.5-0.1-0.8-0.4-0.8-1C244.8,64.4,245.1,64.7,245.4,65z"/>
	<path class="st14" d="M244.4,63.8c-0.4-0.1-0.6-0.3-0.6-0.8C243.9,63.3,244.2,63.6,244.4,63.8z"/>
	<path class="st14" d="M243.3,62.5c-0.6-0.3-1-0.7-1-1.4C242.6,61.6,243,62,243.3,62.5z"/>
	<path class="st14" d="M242.4,61.2c-0.6-0.1-0.9-0.5-1-1.1C241.7,60.5,242,60.9,242.4,61.2z"/>
	<path class="st14" d="M241.4,60.2c-0.6-0.1-0.8-0.5-0.9-1C240.8,59.5,241.1,59.8,241.4,60.2z"/>
	<path class="st14" d="M240.4,59c-0.5-0.1-0.7-0.4-0.8-0.9C239.9,58.5,240.2,58.8,240.4,59z"/>
	<path class="st14" d="M239.4,57.9c-0.4-0.1-0.6-0.3-0.7-0.7C239.1,57.4,239.3,57.6,239.4,57.9z"/>
	<path class="st14" d="M238.4,56.8c-0.3,0-0.5-0.2-0.5-0.5C238.2,56.4,238.3,56.6,238.4,56.8z"/>
	<path class="st14" d="M237.4,55.7l-0.3-0.1c0,0-0.1-0.3-0.1-0.3C237.2,55.4,237.3,55.6,237.4,55.7z"/>
	<path class="st14" d="M234.4,52.3c-0.5-0.1-0.8-0.5-0.8-1C233.9,51.6,234.1,51.9,234.4,52.3z"/>
	<path class="st14" d="M233.6,51.2c-0.6,0-0.9-0.4-0.9-0.9C233,50.6,233.3,50.9,233.6,51.2z"/>
	<path class="st14" d="M232.6,50.2c-0.5-0.1-0.8-0.3-0.8-0.8C232,49.7,232.3,49.9,232.6,50.2z"/>
	<path class="st14" d="M231.5,49.1c-0.3,0-0.5-0.2-0.5-0.6C231.2,48.6,231.4,48.8,231.5,49.1z"/>
	<path class="st14" d="M230.4,47.8l-0.2-0.1c0,0,0-0.2,0-0.2C230.2,47.6,230.4,47.8,230.4,47.8z"/>
	<polygon class="st14" points="229.5,46.8 229.2,46.8 229.2,46.5 	"/>
	<path class="st14" d="M270.9,89.5c-0.3-0.3-0.7-0.7-1-1C270.3,88.8,270.6,89.2,270.9,89.5z"/>
	<path class="st14" d="M167.6,355.5c0.4-0.3,0.8-0.6,1.3-0.8C168.4,354.9,168,355.2,167.6,355.5z"/>
	<path class="st14" d="M163.6,356.4c0.4-0.2,0.7-0.3,1.1-0.5C164.4,356.1,164,356.2,163.6,356.4z"/>
	<path class="st14" d="M166.9,356.8c-0.3,0.2-0.6,0.3-0.9,0.5C166.3,357.1,166.6,357,166.9,356.8z"/>
	<path class="st14" d="M164,357.8c-0.3,0.2-0.7,0.4-1,0.6C163.4,358.1,163.7,358,164,357.8z"/>
	<path class="st16" d="M125.6,525.4c0-4.3,1.4-8.3,2.2-12.5c5.6-26.6,11.4-53.2,17.1-79.8c1.2-5.6,2.2-11.2,3.5-16.7
		c0.5-2,0.6-4.2,2.3-5.8c0.2-0.2,0.5-0.6,0.4-0.8c-1.5-3.5,1.1-6.6,0.8-10c1.6-2.6,3.8-2.8,6.4-1.8c2.3,0.9,4.6,1.7,6.7,3.1
		c21.3,14.1,44.7,23.7,68.7,31.9c2.5,0.9,5.7,1.3,5,5.3c-0.5,1.1-1,2.2-0.8,3.3c0.9,5.5-0.4,11-0.4,16.6c0.1,24.6,0.1,49.2,0.1,73.8
		c0,2.1,0,4.2-0.1,6.4c-0.1,1.8-0.3,3.6-2.1,4.6c-1.4,1.7-0.8,3.8-1.2,5.7c-1.1,4.8-1.9,9.6-1.6,14.5c0.1,2.6,0.3,5.2-0.6,7.8
		c-0.1,0.3-0.2,0.7-0.1,1c1.2,7.8-1.1,15.6-0.3,23.4c0.1,1.3-0.2,2.6-0.6,3.8c-0.9,2.7-1.1,5.4-1.4,8.2c-0.4,4.1-0.9,8.1-1,12.2
		c-0.1,2.3-1,4.5-3.2,5.8c-1.2,0.7-1.9,1.8-2.5,2.9c-1.5,2.6-4,3.6-6.7,2.9c-3.9-1-7.8-0.7-11.7-0.7c-2.3,0-4.5-0.3-6.8-0.9
		c-1.8-0.5-2.8-1.6-3.2-3.3c0-0.2-0.1-0.3-0.1-0.5c0.6-6.1-1.6-12-0.9-18c0.3-2.7-0.6-5.1-2.4-6.6c-2-1.7-2.8-4-4-6.1
		c-1.1-1.9-0.7-2.6,1.3-3.9c0.4-0.2,0.9-0.4,1.2-0.7c0.4-0.3,0.3-1.6-0.2-1.7c-2.7-0.2-4.2-2.2-6-3.8c-1.2-1.1-2.9-0.7-3.9,0.6
		c-0.4,0.5-0.7,1.1-1,1.7c-0.9,1.7-2.6,2.4-4.2,1.8c-3.9-1.5-8.3-1.7-12-4c-0.4-0.3-0.9-0.4-1.2-0.8c-0.3-0.3-0.8-0.9-0.7-1.2
		c0.6-2.4-1-3.6-2.3-5c-0.5-0.5-1.1-0.9-1.3-1.5c-1.6-4.7-5.1-8.3-7.2-12.8c-1.8-3.9-0.3-6.7,4.2-6.9c2.5-0.1,4.9-0.4,7.2-1.1
		c0.9-0.3,1.9-0.6,2.8-1c1.1-0.5,1.8-1.7,0.5-2.6c-0.3-0.2-0.5-0.4-0.8-0.6c-0.6-0.4-0.9-0.9-0.7-1.6c0.3-0.7,1-0.9,1.6-0.9
		c1.1-0.1,2.3-0.2,3.4-0.1c2.2,0.1,4.2-0.7,6.2-1.2c0.2-0.1,0.4-0.5,0.4-0.7c0-0.3-0.2-0.6-0.4-0.8c-0.8-0.9-2-1.1-3.1-1.1
		c-7.2,0-14.4-0.1-21.6,0.1c-2.7,0.1-5.4,1.2-8.2,0.8c-0.8-0.1-1.6-0.3-2.3-0.5c-0.2-0.1-0.3-0.5-0.4-0.8c0-0.1,0.2-0.3,0.3-0.3
		c1.6-0.2,3.2-0.2,4.8-0.4c0.6-0.1,1.4-0.3,1.5-1c0-0.4-0.4-1-0.7-1.1c-2.2-0.9-3.1-2.7-3.4-4.9c-0.4-2.7-1.1-5.4-1.5-8.2
		c-0.4-2.2,0.6-4.2,1.1-6.2c0.6-2.2,0-3.8-1.3-5.4c-1.6-1.7-3.6-1.6-5,0.3c-0.6,0.8-0.8,1.8-0.8,2.8c-0.1,1-0.3,1.9-1,2.7
		c-0.5,0.5-1.1,1.1-1.7,0.8C128.2,521.8,127,523.9,125.6,525.4z"/>
	<path class="st17" d="M367.3,661.7c-1,0.1-2.1,0.2-3.1,0.4c-8.6-0.1-17.3,0.1-25.9-0.4c-21.4-1.1-42.7-0.3-64.1-1.1
		c-9.9-0.4-19.9-0.5-29.8-0.8c-2.9-0.1-5.8-0.6-8.7-0.9c-1-6.3-0.2-12.6-0.5-18.9c-0.1-1.9,0.5-3.9-0.4-5.8c0-7.1,0-14.3,0-21.4
		c1.1-4.5,0-9.2,0.6-13.7c0.1-16.7,0.2-33.5,0.3-50.2c0.5-0.5,0.7-1.2,1-1.9c0.8-2,2.6-2.9,4.3-3.9c8.3-4.9,16.7-9.6,25.2-14.2
		c2-1.1,3.9-2.4,5.8-3.6c2.1-1.3,4.3-2.4,6.6-3.2c1.7-0.5,3.5-0.7,5.3-0.3c1.9,0.4,3.4,1.4,3.9,3.3c0.5,2.1-0.1,3.9-1.9,5.2
		c-1,0.7-2.3,1.1-3,2.3c3.3-1.6,3.7-1.8,5,0.8c1.1,2.1,2.8,2.5,4.5,3.4c3.9,1.9,7.9,3,12.2,3.5c1,0.1,1.9,0.4,2.9,0.7
		c3.5,1.2,6.1,3.2,6.7,7.1c0.3,1.9,1.2,3.3,2.5,4.7c1.8,1.8,3.8,3,6.5,2.9c3.3-0.1,6.5,0.5,9.7,1.3c1.7,0.4,3.5,0.8,5.3,0.6
		c2.4-0.3,4.5,0.5,6.1,2.4c0.6,0.7,1.2,1.5,2.2,1.9c2.7,1.2,4.7,2.5,7.3-1c0.3-0.4,0.6-0.8,1-1.1c2.2-1.8,3.5-1.7,5.5,0.4
		c0.9,1,1.4,2.2,2.2,3.3c0.5,0.7,1.1,1.4,2,1.1c0.9-0.3,0.9-1.2,1-2c0.1-1,0-2,0-2.9c0-5.1,0-10.1,0-15.2c0-1.6,0-3.3,0.8-4.8
		c0.9-1.6,1.1-1.6,3.6,0c1,2.7,0.7,5.5,0.7,8.2c0,25.1,0,50.2,0,75.3c0,6.2-0.3,12.4,0.8,18.5c-0.2,3.7-0.3,7.4-0.7,11.1
		C370,656,369.2,659,367.3,661.7z"/>
	<path class="st18" d="M367.9,538.1c-0.9,1.5-0.7,3.2-0.7,4.8c0,6.9,0,13.7-0.1,20.6c0,1.5,0.8,3.8-1.1,4.3c-1.9,0.5-3.7-1-5.1-2.4
		c-0.7-0.7-1-1.7-1.4-2.6c-1.9-4.1-1.9-4.1-4.5-0.6c-3,4.2-9.5,3.9-12.1-0.8c-1.2-2.1-2.2-3-4.6-2.2c-1.6,0.6-3.2,0.3-4.8-0.2
		c-3-0.8-6.1-2.2-9.1-1.6c-5.3,0.9-8.3-1.9-11.3-5.3c-0.8-0.9-1.5-1.9-1.2-3.1c1-4-1.7-5.3-4.6-6.2c-2.8-0.8-5.7-1.3-8.6-1.7
		c-2.2-0.3-4.1-0.9-5.9-2.3c-0.6-0.5-1.6-1.2-2.1-1c-4,1.2-5.2-0.3-4.3-4.2c0.2-0.8-0.8-1.3-1.8-1.2c-1.6,0.3-2.5,1.3-3.1,2.8
		c-0.3,0.9-1.2,2.3-2,1.7c-1.4-1-0.5-2.4,0.4-3.3c1.8-1.8,3.9-3.5,5.8-5.3c0.9-0.9,1-2,0.6-3.2c-0.4-1-1.2-1.5-2.2-1.7
		c-2.5-0.4-4.9,0-7.1,1.2c-13.4,7.7-26.9,15.4-40.3,23.1c-0.7,0-0.7-0.6-1-1c0-1.3-0.1-2.5-0.1-3.8c0-6,0.1-12.1,0.1-18.1
		c0-23.1,0.1-46.1,0.1-69.2c0-2.8-0.1-5.6,0.4-8.3c0.2-1.1-0.1-2.3-0.2-3.4c-0.1-1.6-0.2-3.3-0.2-4.9c0-1.7,1.2-2.2,2.6-2.3
		c2.2-2,4.6-1,6.9-0.3c5.6,1.8,11.3,3.3,17,4.6c8.3,1.8,16.6,3.6,25,4.8c6,0.9,11.9,2,17.8,3.2c7.2,1.5,14.4,2.7,21.8,2.5
		c4.4-0.1,8.8,0.7,13.1,1.3c6,0.7,12,1.4,18,1.9c3.7,0.3,7.6,0.1,10.9,2.4c3,2.5,2.6,5.9,2.2,9.1c-1.4,11.9-0.7,23.8-0.5,35.8
		c-0.5,9.9-0.1,19.8-0.3,29.6C370.1,534.1,370.6,536.7,367.9,538.1z"/>
	<path class="st19" d="M117.7,563.5c0-3.1,0.9-6.1,1.5-9.1c1.4-7,3-13.9,4.4-20.9c0.2-0.8,0.3-1.6,0.9-2.2c1,2.6,2.2,5.1,3.1,7.7
		c1.6,4.4,3.2,8.9,4.6,13.4c1.4,4.7,3.5,9.2,5.5,13.6c1.6,3.6,3,7.2,4.3,10.9c1.6,4.5,3.2,8.9,4.7,13.4c1.9,5.9,3.7,11.8,5.6,17.7
		c1.4,4.3,3.1,8.6,4.6,12.9c1.2,3.4,2.6,6.7,5.1,9.4c0.3,0.4,0.6,0.8,0.8,1.2c2,4.8,4.2,9.5,4.9,14.7c-2.2,1.8-2.8,4.5-3,7
		c-0.2,3.1-0.7,6.2-0.7,9.3c-0.1,2.3-0.1,4.6,0.4,6.8c1.8,7.5-6.4,14.4-14.1,11.4c-3.7-1.5-7.2-3.1-9.8-6.2c-0.3-0.4-0.7-0.7-1-1.1
		c-1.5-1.9-3.2-3.3-5.8-2.4c-3,1-5.8,2.3-6.7,5.8c-0.3,1.4-0.3,2.9-0.4,4.4c0,4.2,0,8.5,0,12.7c0,2.6,0.3,5.2,1.5,7.6
		c0.8,1.8,1.3,3.7,1.3,5.7c0,5.2-3.5,8.7-8.7,8.4c-2.9-0.2-5.9-0.4-8.8-0.8c-4.4-0.5-6.3-2.7-6.5-7.1c-0.1-1.3-0.1-2.6,0-3.9
		c0.9-9.6,0.1-19.3,0.5-28.9c0.4-8.5,0.3-16.9,1.3-25.4c0.3-2.1,0.4-4.2,0.4-6.3c0.1-4.4,1.6-8.7,1.2-13.1c1.4-3.9,0.4-8.1,1.8-12
		c0.2-0.4,0.1-1,0.1-1.5c0-5.4,1.3-10.6,1.7-15.9c0.3-3.9,1.3-7.7,1.3-11.6c0-3.1,0.9-6.1,1.3-9.2C116,574.4,117,569,117.7,563.5z"
		/>
	<path class="st20" d="M117.7,563.5c0.6,4.6-0.9,9.1-1.3,13.6c-0.4,4.4-1,8.7-1.5,13.1c-0.5,4.4-1,8.7-1.5,13.1
		c-0.5,4-1.1,8.1-1.3,12.1c-0.1,3.1-1,6.1-1.2,9.2c-0.2,4.2-1.2,8.4-1.5,12.6c-0.4,4.9-1.6,9.7-1.3,14.6c0.1,2.3,0,4.5-0.6,6.8
		c-0.4,1.7-0.3,3.6-0.3,5.4c0,10.1,0,20.3-0.1,30.4c0,2.6,0,5.2-0.7,7.8c-0.4,1.4-0.2,2.9-0.3,4.4c-0.3,3.9,2.5,5.7,5.5,6.3
		c0.6,0.1,1.3,0.1,2,0.1c2.4,0,4.8,0.1,7.3,0.7c3.8,0.9,6.6-1.7,6.8-5.6c0.1-2-0.3-3.9-1.4-5.6c-1.3-2.2-1.6-4.5-1.6-7.1
		c0.1-5.6,0.1-11.1,0-16.7c-0.1-4.3,1.7-7.2,5.7-8.8c0.8-0.3,1.5-0.7,2.3-1c4.6-1.7,5.3-1.6,8.1,2.4c3.1,4.4,7.6,6.6,12.5,8
		c2.1,0.6,4.3,0.5,5.8-1.5c0.2-0.3,0.4-0.5,0.7-0.7c3-1.5,3.7-4,2.8-7c-0.9-3.2-0.6-6.5-0.5-9.7c0.1-2.2,0.4-4.4,0.3-6.7
		c-0.2-2.5,1-5.1,2.4-7.3c0.8-1.3,2-0.6,3.1-0.1c0,0,0.1,0.1,0.1,0.1c0.6,0.5,0.4,1.3,0.9,1.9l0.1,0.2c0.6,0.4,0.5,1.2,0.8,1.8
		c0.1,0.4,0.1,0.8,0.2,1.2c0.3,0.2,0.6,0.5,0.8,0.8c0.1,0.7,0.1,1.4,0.2,2.2c2.4,5.5,3.7,11.3,6.8,16.5c0,0.4,0.1,0.7,0.1,1.1
		c0.3,0.3,0.6,0.5,0.8,0.9c0.4,1.4,0.8,2.7,1.2,4.1c0.3,0.2,0.5,0.5,0.8,0.8c0.1,0.7,0.2,1.4,0.3,2.1c0.3,0.3,0.5,0.5,0.8,0.8
		c3,9.8,6.7,19.4,10.2,29.1c1.1,3.1,2.4,6.1,2.8,9.4c-1.3-0.8-2.6-1.2-4.2-1.2c-7.3,0.1-14.7-0.3-22,0.4
		c-11.1,0.9-22.1,0.8-33.2,0.4c-8.8-0.3-17.6-0.6-26.3-0.7c-1.3,0-2.6-0.3-3.7-0.9c-0.6-25.5-0.1-51,2.1-76.4
		c2.1-23.9,4.8-47.7,9.1-71.3C116.6,567.3,116.7,565.3,117.7,563.5z"/>
	<path class="st16" d="M234.7,634.3c1.1,1.6,0.8,3.4,0.8,5.2c0.1,6.5,0.1,13,0.1,19.5c-1.1-1.2-1-2.7-1-4.2
		C234.6,648,234.6,641.1,234.7,634.3z"/>
	<path class="st19" d="M177.6,670.7c-0.6-0.6-1.4-1-1.6-1.7c-2-4.8-4.7-9.4-5.1-14.8c1.3,0.9,1.6,2.4,2.1,3.7
		C174.5,662.2,176,666.4,177.6,670.7z"/>
	<path class="st16" d="M235.3,599.2c0.1,4.6,0.9,9.2-0.6,13.7c0-3.3,0-6.7,0-10C234.6,601.6,234.6,600.3,235.3,599.2z"/>
	<path class="st16" d="M124.7,530.3c-0.2-1.5-0.2-2.9,0.8-4.1C125.6,527.6,125.9,529.1,124.7,530.3z"/>
	<path class="st16" d="M235.6,546.9c0.3,0.3,0.7,0.7,1,1c-0.4,0.3-0.7,0.7-1.1,1C235.6,548.3,235.6,547.6,235.6,546.9z"/>
	<path class="st19" d="M168.7,648.1c-0.6-0.5-0.8-1.1-0.9-1.9C168.6,646.7,168.8,647.3,168.7,648.1z"/>
	<path class="st19" d="M169.7,650c-0.3-0.6-0.6-1.2-0.8-1.8C169.5,648.7,169.7,649.3,169.7,650z"/>
	<path class="st19" d="M170.6,652c-0.3-0.3-0.5-0.6-0.8-0.8C170.1,651.5,170.4,651.7,170.6,652z"/>
	<path class="st19" d="M178.5,672.6c-0.3-0.3-0.5-0.6-0.8-0.9C178,672.1,178.2,672.3,178.5,672.6z"/>
	<path class="st19" d="M180.4,677.5c-0.3-0.3-0.5-0.5-0.8-0.8C179.9,677,180.2,677.3,180.4,677.5z"/>
	<path class="st19" d="M181.5,680.5c-0.3-0.3-0.5-0.6-0.8-0.8C181,679.9,181.2,680.2,181.5,680.5z"/>
	<path class="st21" d="M367.9,538.1c0.1-8.1,0.2-16.2,0.3-24.4c0-2.6,0.1-5.2,0.1-7.8c0-1.3,0.1-2.6,0.8-3.8
		c2.2-3.6,5.9-2.6,8.9-2.3c12.9,1.5,25.8,0.7,38.6,0.7c14.8,0,29.6,0.8,44.4,1.8c12,0.8,24.1-0.6,36.1-1.3c7.3-0.5,14.7-0.4,22-0.3
		c4.1,0,8-0.5,11.8-1.9c0,2.8,0.1,5.5,0.1,8.3c0,26.8,0.1,53.5-0.1,80.3c0,5.8,0.9,11.3,2.3,16.9c0.9,3.5,1.8,6.9,2.8,10.4
		c0.4,1.4,0.7,2.9,1.8,4c-0.1,3.1-0.1,6.2-0.7,9.3c-0.5,2.7-0.2,5.5-0.3,8.3c0,2.6,0.1,5.2-0.7,7.8c-0.4,1.4-0.3,2.9-0.3,4.4
		c0,2-0.5,3.9-1.6,5.6c-0.7,1.1-1.4,2.2-2,3.4c-1.2,2.3-3.1,3.3-5.5,3.5c-1,0.1-2,0.1-2.9,0.1c-9.7,0-19.3,0-29,0
		c-3.7,0-7.5,0-11.2,0c-2.1,0-4.2,0.2-6.3,0.6c-3.2,0.7-6.6,0.7-9.8,0.1c-2.9-0.6-5.8-0.7-8.8-0.7c-1,0-2,0-2.9-0.1
		c-1.3-0.1-2.1-0.8-2.4-2.1c-0.2-0.8-0.6-1.6-0.5-2.4c0.4-4.1-0.4-8.1-0.4-12.2c0-2.1,0-4.2,0.6-6.3c0.3-1.2,0.4-2.6,0.3-3.9
		c-0.3-2.5-1.6-4.2-4-5.1c-1.4-0.5-2.7-1.1-4.1-1.6c-2.1-0.8-3.6-2.3-3.9-4.6c-0.5-3.3-1.6-6.3-3.3-9.1c-0.5-0.8-0.3-1.9-1-2.7
		c-1.6-0.5-2.2-1.9-2.6-3.3c-0.8-2.3-1.5-4.8-1.2-7.2c0.6-3.8-0.2-7.5-0.1-11.3c0-3-0.5-3.3-3.5-2.6c-3.6,0.8-6.7,2.6-9.4,5.1
		c-8.2,7.9-16.4,15.9-23.6,24.9c-1.7,2.2-3.4,4.4-4.9,6.8c-2.8,4.5-6,8.5-9.7,12.3c-1.5,1.5-2.9,3.1-4.2,4.8c-1,1.3-2.2,2.5-3.7,3.2
		c-2,1-3.8,1.1-4.9-1.3c-1-3.8-1-7.7-1-11.6c0-29.2-0.1-58.4-0.1-87.6C368.1,541.4,367.9,539.8,367.9,538.1z"/>
	<path class="st22" d="M369.2,642.3c1.8,1.1,3.4,1,4.8-0.6c0.2-0.2,0.5-0.4,0.7-0.7c4.5-5.2,9-10.3,13.4-15.6
		c1.9-2.4,3.3-5.3,5.1-7.7c5-6.6,10.6-12.8,16.6-18.6c2.8-2.7,5.6-5.5,8.3-8.3c4.2-4.3,9.5-6.2,15.2-7.2c1.5-0.3,2.7,0.9,2.3,2.4
		c-0.9,3.2-1,6.4,0,9.6c0.1,0.4,0.1,1,0,1.4c-1.5,3.6-0.2,7.1,0.6,10.6c0.3,1.1,0.5,2.2,0.8,3.3c-0.3,2.3-0.2,4.5,0.6,6.8
		c1,2.9,1.7,6,2.8,8.9c0.9,2.4,2.5,4.2,5.1,4.9c0.5,0.1,1,0.2,1.4,0.5c1.3,0.8,1.9,2.6,0.8,3.7c-1.8,1.9-1.5,3.8-0.9,5.9
		c0.5,2.1,1,4.1,1.6,6.2c1.1,3.6,1.2,7.4,1.9,11.1c0.2,1.1-0.5,1.9-1.6,2c-1.3,0.1-2.6,0.2-3.9,0.2c-23.9,0-47.8,0-71.6,0
		c-2,0-3.9-0.3-5.8,0.7c0-1.3-0.1-2.6,0.1-3.9C368.3,652.6,369,647.5,369.2,642.3z"/>
	<path class="st23" d="M368.3,457.7c-10.1-0.7-20.2-1.4-30.2-3c-7.6-1.2-15.3-0.9-22.9-1.8c-4.9-0.6-9.7-1.4-14.5-2.4
		c-5.4-1.1-10.9-2.1-16.4-2.9c-11.5-1.7-22.8-4.1-33.9-7.1c-4.1-1.1-8.1-2.4-12.2-3.6c-2.7-1.9-6.1-2.3-9.1-3.3
		c-9.6-3.2-19-7-28.3-10.9c-12.9-5.5-25.2-12.3-37-19.8c-2.6-1.6-5.5-2.8-8.3-4c-1.4-0.6-2.5,0.2-3.6,1c0.2-4.4,1.7-8.6,2.4-13
		c0.2-1.1,0.4-2.2,0.7-3.3c1.5-5.8,0.5-5.3,6.5-7.3c9.8-3.2,19.7-6,29.4-9.1c14.9-4.8,30.2-8.1,45.6-11.2c4.5-0.9,8.9-2,13.4-2.7
		c0.2,1.2-0.8,1.2-1.4,1.4c-8,2.4-15.5,5.9-23.3,8.8c-5.8,2.2-11.1,5.5-16.7,8.2c-0.6,0.3-1.1,0.8-1.5,1.2c-0.1,0.1-0.1,0.5,0,0.8
		c0,0.1,0.3,0.2,0.4,0.2c0.8-0.3,1.5-0.6,2.2-0.9c3.8-2,7.5-4,11.3-5.9c6.9-3.5,14.3-5.6,21.3-8.6c4.5-1.9,9-3.8,13.7-5.3
		c4.5-1.5,9.2-2.5,13.8-3.2c7.8-1.1,15.5-2.4,23-4.6c1.4-0.4,2.9-0.5,4.3-0.7c0.2,0.1,0.4,0.2,0.6,0.3c1.8,2.9,0.9,4.8-2.2,6.1
		c-2.5,1.1-5.2,1.7-7.4,2.9c-0.1,0,0.1,0,0.2-0.1c2.8-1.3,5.8-3.2,8.7-2.9c3.8,0.3,3.2,4.9,4.6,7.4c8.2,14.5,19.7,24.9,35.4,30.9
		c8.3,3.2,16.6,5.9,25.2,7.8c2.7,0.6,5.5,1.4,6.4,4.6c1.4,4.4,1.4,8.9,1.5,13.5c0.2,12.3-0.7,24.7,0.5,37c0.2,1.9-0.4,3.5-1.7,4.9
		C368.8,457.4,368.6,457.5,368.3,457.7z"/>
	<path class="st24" d="M278.7,339.8c-2.4-0.1-4.7-1.3-7.2-0.7c-0.4,0.1-1-0.4-1-0.9c0-0.4,0.4-0.9,0.7-1.1c1-0.7,2.5-0.6,3.5-1.8
		c-1.8-0.6-3.4-0.2-4.9,0.2c-2.2,0.6-4.5,0.9-6.7-0.3c1.1-2,3.1-2.3,5-2.6c9.6-1.7,19.2-3.4,28.8-4.8c2.5-0.4,4.8,0.2,7,1.4
		c1.4,1.8,0,2.4-1.2,3.3c-3.5,2.8-8,3.3-11.7,5.5c-1.8,0.5-3.5,1-5.3,0.1c-1.8-0.4-3.2,0.9-4.9,0.9
		C279.3,337.6,279.6,339.8,278.7,339.8L278.7,339.8z"/>
	<path class="st25" d="M295.5,342.9c-4.5,0.9-9,1.6-13.4,2.7c-4.4,1.2-8.9,1.8-13.4,2.7c-0.2,0-0.3,0.1-0.5,0
		c-0.4-0.1-1.1-0.2-1.3-0.5c-0.4-0.6,0.2-0.8,0.7-1c4.2-1.7,8.5-3.3,12.7-5.1c2.1-0.9,4.4-1.2,6.3-2.7c0.9-1.6,2.8-1.2,4.1-1.9
		c0.6-0.3,1.1-0.7,1.7-1.1c0.8-0.3,1.7-0.2,2.6-0.3c0.9-0.1,1.6-0.6,2.5-0.6c0.4,0.1,0.8,0.2,1.2,0.5c0.5,0.5,0.7,1.1,0.8,1.8
		c0.1,0.4,0,0.9,0,1.3c-0.1,0.8-0.5,1.6-0.8,2.4c-0.2,0.4-0.4,0.7-0.6,1.1c-0.3,0.3-0.6,0.6-1,0.7c-0.2,0.1-0.4,0.1-0.6,0.2
		C296.2,343.3,295.8,343.2,295.5,342.9z"/>
	<path class="st26" d="M297.3,341.7c0.2-0.3,0.3-0.7,0.5-1c0-0.7,0.1-1.4,0.5-2c0-0.3,0.2-0.6,0.4-0.8c0.2-0.6,0.6-1.1,1.3-1.2
		c0.8-0.1,1.6,0.3,2.3,0.6c2.5,1.1,3.7,2.5,3.4,4.1c-0.4,2.2-2.2,3-4.1,3.7c-1.4,0.5-2.8,0.5-4.2-0.4c0,0-0.3-0.1-0.3-0.1
		c-0.3-0.4-0.5-0.7-0.8-1c-0.3-0.2-0.4-0.3-0.3-0.5c0.1-0.2,0.1-0.3,0.2-0.3l0.1-0.1C296.8,342.5,297.1,342.1,297.3,341.7z"/>
	<path class="st11" d="M278.8,339.8c0-2.5,1.3-3.6,4.1-3.7c-0.8,1.1-1.5,1.9-2.1,2.7C280.2,339.5,279.6,339.8,278.8,339.8z"/>
	<path class="st26" d="M291.5,337.7c-1.6,0.5-3.2,1-4.9,1.5c-0.3-0.4-0.6-0.8-0.9-1.1c1.6-0.5,3.1-1.5,4.9-1.2
		C291.4,336.6,291.7,336.9,291.5,337.7z"/>
	<path class="st27" d="M296.4,342.8c0,0.3,0.1,0.5,0.1,0.8c-0.3-0.2-0.6-0.5-0.9-0.7C295.8,342.8,296.1,342.8,296.4,342.8z"/>
	<path class="st28" d="M531,498.9c-1.2,1.2-0.1,3.4-1.7,4.4c-1.4,0.8-2.8-0.3-4.3-0.3c-9.6,0.2-19.2-0.8-28.8,0.7
		c-0.5,0.1-1,0.1-1.5,0.1c-9.6,0.3-19.2,0.7-28.8,0.9c-3.3,0.1-6.5,0.2-9.7-0.7c-0.5-0.1-1-0.1-1.5-0.1c-13-0.8-26.1-1.2-39.1-1.1
		c-9.8,0.1-19.6,0-29.4-0.1c-1.6,0-3.3-0.1-4.9-0.4c-4.1-0.7-8.1-0.6-12.2-0.2c-0.7-1.2-0.7-2.5-0.7-3.8c-0.1-7.1-0.1-14.3-0.2-21.4
		c0-3.6,0.1-7.1,0.5-10.7c0.4-2.9,0.4-5.8-0.4-8.7c0-0.2,0.1-0.4,0.2-0.6c2.2-2.5,5.2-2.4,8.1-2.5c12.5-0.1,24.9-0.1,37.4-0.5
		c1,0,2,0.1,2.9-0.4c14.3-2.1,28.6-4.4,42.6-8.3c5.3-1.5,10.8-2.4,16.2-3.7c10.7-2.7,21.3-5.9,31.6-10c6.8-2.7,13.7-5.1,20.5-7.6
		c0.9-0.3,1.9-0.4,2.8-0.6c-0.7,2.2-0.6,4.5-0.6,6.8c0.1,7.7-0.2,15.3,0.3,23C531.2,468.6,530.7,483.8,531,498.9z"/>
	<path class="st29" d="M248.4,336.1c-3,0.4-6,0.7-9,1.2c-5.9,1.1-11.7,2.4-17.5,3.5c-0.8-1.4-2-2.2-3.6-1.6
		c-3.7,1.3-7.7,1.4-11.5,2.1c-0.6,0.1-1.5,0.3-1.9,0c-2.2-1.8-5.2-2.8-6.6-5.5c-0.7-1.4-1.6-1.9-3.1-1.9c-2.4,0-4.4,0.8-5.8,3
		c-0.7,1-1.2,2.3-2.9,2.8c0.6-4.1,1.1-7.9,1.8-11.7c1.2-6.7,2.8-13.4,3.9-20.1c0.6-4.2,0.6-8.4-1.7-12.3c-1.5-2.5-2.2-5.4-2-8.5
		c0.1-1.5-0.2-2.9-1.1-4.2c-0.6-0.8-2-0.8-2.6,0c-0.7,0.9-1.2,2-1.1,3.2c0.1,2.5-0.6,4.8-1.6,7.1c-0.7,1.6-1.1,3.4-1.3,5.2
		c-0.2,2.5-1.4,4.7-2.5,6.8c-0.5,1-1.2,2-2.2,2.5c-2.4,1.2-3.3,3.5-4.1,5.8c-0.3,1.1-0.8,2.2-0.8,3.3c-0.1,4.8-2.1,9.2-2.4,13.9
		c-0.1,1.2-0.4,2.2-1.6,2.9c-0.1-0.9-0.1-1.8-0.2-2.7c0.3-0.5,0.3-1.1,0.5-1.6c0.2-1.1,0.3-2.2,0.5-3.3c0.7-0.8,0.1-2,0.7-2.8
		c0.1-1,0.2-2,0.3-3c0.8-0.8,0-2.1,0.8-2.9c0.1-0.6,0.1-1.2,0.2-1.9c0.7-0.9,0-2.1,0.8-3c0.1-1,0.2-1.9,0.3-2.9
		c-0.2-0.8,0.1-1.5,0.8-2.1c0.1-0.3,0.2-0.6,0.1-1c0.8-0.8,0-2.1,0.8-2.9c0.1-0.9,0.1-1.8,0.2-2.8c0.4-0.7,0.2-1.6,0.8-2.2
		c0-0.3,0.1-0.7,0.1-1c0.8-0.8,0-2.1,0.8-2.9c0.1-0.6,0.1-1.3,0.2-1.9c0.8-0.9,0-2.2,0.9-3c0.1-0.3,0.2-0.6,0.1-0.9
		c0.7-0.9,0.1-2.1,0.7-2.9c0.1-0.7,0.2-1.3,0.2-2c0.9-1.2-0.1-2.8,0.9-4c0.1-0.3,0.2-0.6,0.1-0.9c0.9-1.2-0.2-2.8,0.9-4l0.1-0.1
		c0.7-3.2-0.4-6.8,2-9.7l0-0.1c0-3-0.4-6.2,1.9-8.8l0.1-0.1c0.5-2.9,0-6.1,1.9-8.7c0.1-0.3,0.2-0.6,0.1-0.9c0.9-2.9-0.2-6.2,1.8-8.9
		l0-0.1c0.8-0.8,0.1-2,0.8-2.8c0.1-0.7,0.3-1.4,0.4-2.2c0.2-0.5,0.2-0.9,0.2-1.4c0-0.5,0-1,0.4-1.3c0.1-0.4,0.3-0.8,0.4-1.2
		c0.1-0.4,0.2-0.7,0.2-1.1c0-0.6,0-1.1,0.3-1.6c0.1-0.7,0.3-1.5,0.4-2.2c0.3-0.4,0.2-0.9,0.2-1.4c0-0.5,0-1,0.3-1.4
		c0.2-0.7,0.3-1.5,0.5-2.2c0.1-0.3,0.1-0.6,0.1-0.9c0-0.3,0.1-0.6,0.3-0.8c0.2-1.1,0.4-2.1,0.5-3.2c0.1-0.3,0.2-0.6,0.2-0.9
		c0-0.3,0.1-0.6,0.3-0.8c0.2-1.1,0.4-2.2,0.7-3.3c0-0.3,0-0.6,0-0.8c0-0.3,0.1-0.5,0.3-0.8c0.2-1.1,0.4-2.1,0.5-3.2
		c0-0.3,0.2-0.5,0.4-0.7c0.2-1.9,0.3-3.7,0.5-5.6c0.6,0.4,0.7,1.5,1.6,1.5c4.7,3,7.4,7.2,9.1,12.7c2.8,9.5,4.2,19,2.3,28.8
		c-0.5,2.6,0.3,4.8,2.1,6.6c0.3,0.4,0.5,0.9,0.7,1.4c0.6,3.4,2.9,5.7,5.4,7.9c1.2,1.1,2.7,1.9,4,2.9c1.9,1.4,3.7,1.9,5.7,0.1
		c0.7-0.7,1.6-1.2,2.6-1.4c3-0.8,4.8,0.9,4.2,4c-0.2,1-0.6,1.9-1.2,2.7c-1.4,1.8-0.8,3.3,0.5,4.8c1.2,1.4,2.2,2.8,3.6,4
		c0.6,0.5,1.3,1.2,2.1,0.9c0.9-0.3,0.9-1.3,0.8-2.1c0-0.5-0.1-1-0.1-1.5c-0.6-8.5-0.4-17-0.4-25.5c0-4.1,0.2-8.2-0.4-12.2
		c-0.1-0.8-0.1-1.6,0-2.4c0.7-4.4,0.5-8.8,0.4-13.2c-0.1-4.5,0.8-8.8,1.2-13.2c0.3-3.4,2.5-5.2,5.7-5.9c3.5-0.7,7-1.5,10.7-1.5
		c8,0,16-0.4,24,0.1c7.2,0.5,14.3,0.7,21.5,0.1c4.3-0.4,8.8-0.3,13.2-0.2c2.9,0,5-0.8,6.4-3.5c1.1-2.3,3.1-3.7,5.1-5.1
		c2.5-1.8,5.1-2,7.9-0.8c5.9,2.4,10.1,6.6,12.7,12.4c1.4,3.1,2.6,6.3,2.9,9.8c0.1,1.8,0.8,3.5,1.6,5.1c2.7,5.3,4.4,10.9,6,16.5
		c0.3,0.9,0.1,2,1.3,2.5c1.1,0.5,2.2,0.3,3.4,0c1-0.3,1.6-1.2,2.3-1.8c1.1-0.8,2.2-1.5,3.6-1.2c1.4,0.3,2.3,1.2,2.9,2.4
		c1.2,5,0.6,10,0.6,15.1c0,10.2,0.5,20.5-0.6,30.7c-0.3,2.6,0.2,5.2,0.6,7.8c0,3.1-0.1,6.3-3.1,8.3c-3.4,1.7-7.2,1.8-10.9,2.4
		c-8.4,1.4-16.4,4-24.3,7c-11.2,4.1-19,12.3-26.3,21.2c-2,2-4.3,2.3-7.1,2.6c-12.8,1.1-25.4,4-38.1,6.2
		C256.6,335.6,252.7,337.5,248.4,336.1z"/>
	<path class="st30" d="M368,232.9c-0.7-0.3-1.5-0.9-2.3-0.5c-0.5,0.3-1.1,0.8-1.3,1.3c-0.7,2.6-2.5,3.2-4.9,3
		c-1.6-0.1-3.3,0.2-4.8-0.5c-1.4-0.6-2-1.9-1.1-3.1c1.2-1.5,1.1-2.5-0.2-3.8c-0.4-0.4-0.8-1.1-0.9-1.7c-0.9-4.3-2.5-8.4-4.7-12.2
		c-0.5-0.8-0.9-1.8-0.9-2.8c-0.2-3.4-1.3-6.6-2.3-9.9c-0.4-1.3-0.8-2.4-1.5-3.6c-2.8-4.6-6.8-7.8-11.6-10.1
		c-1.8-0.8-3.5-0.8-4.9,0.8c-0.5,0.6-1.2,1.2-1.9,1.5c-1.8,0.8-2.9,2.1-3.3,4c-0.7,2.9-2.7,3.8-5.4,3.9c-3.3,0.1-6.5-0.3-9.7,0.7
		c-6.3-1.8-12.6,1-18.9,0.3c-0.5-0.1-1,0-1.5-0.1c-5.1-1.4-10.4-0.8-15.6-0.9c-5.1-0.1-10.1-0.1-15.2,0c-4.1,0.1-8.1,0.8-12,1.9
		c-2.1,0.6-2.3,0.9-2.5,3c-0.9,7.3-1,14.6-1.1,22c-0.1,4-0.2,8.1,0,12.1c0.3,4.9,0,9.8,0,14.7c0,7-0.1,14,0.9,21c0.1,0.5,0,1,0,1.5
		c0,1.2-0.3,2.3-1.5,2.9c-1.2,0.6-2.2,0.1-3.1-0.8c-1.5-1.5-3.1-2.9-4.4-4.6c-1-1.3-2-2.5-3.3-3.5c-1.5-1.1-1.5-2.3-0.3-3.8
		c0.6-0.8,1.4-1.4,2-2.2c0.6-0.8,1-1.7,1.4-2.6c0.3-0.7-0.4-1.6-1.3-1.6c-0.9,0-1.7,0.2-2.2,0.9c-0.5,0.6-0.8,1.4-1.2,2.1
		c-0.9,1.1-2,1.7-3.4,1.3c-1.3-0.4-2.5-0.7-3.6-1.5c-1.7-1.3-3.5-2.4-5.1-3.7c-3.1-2.6-5.6-5.5-5.1-9.9c0.3-0.1,0.4-0.2,0.4-0.2
		c0.1-0.1,0,0-0.4,0.2c-1-0.6-2.1-1-2.9-1.7c-1.2-1-1.8-2.3-0.8-3.9c0.4-0.7,0.8-1.5,0.5-2.3c-1.1-3,0.3-5.8,0.8-8.6
		c0.4-2.1,0.5-4.1,0-6.2c-1.2-4.7-2.3-9.5-3.5-14.2c-0.3-1.3-0.7-2.5-1.2-3.7c-0.6-1.6-1.4-3-3-3.7c-2.2-0.9-2.7-2.6-2.6-4.7
		c1.8-3.4,4.7-5.8,7.3-8.5c11.3-11.8,22.3-23.9,34.8-34.5c14.1-11.9,29-22.7,45.3-31.5c1.6-0.9,3.2-1.7,4.8,0.2
		c14.1,17.2,30.5,32.3,44.5,49.6c0.2,0.4,0.5,0.7,0.9,1l0.1,0.1c0.3,0.3,0.5,0.6,0.9,0.9l0.1,0.2c0.3,0.3,0.5,0.6,0.8,0.8l0.2,0.2
		c0.3,0.2,0.5,0.5,0.7,0.8c1.4,1.7,2.8,3.3,4.2,5c0.2,0.3,0.5,0.6,0.8,0.9l0.2,0.2c0.3,0.2,0.5,0.5,0.7,0.8l0.2,0.2
		c0.3,0.2,0.5,0.4,0.7,0.8c0.8,1,1.5,2,2.3,3c0.3,0.3,0.6,0.7,0.9,1l0.1,0.1c0.3,0.3,0.6,0.5,0.8,0.9c0.7,1,1.5,1.9,2.2,2.9
		c0.3,0.4,0.6,0.7,0.9,1l0,0.1c0.3,0.3,0.6,0.6,0.9,1l0.1,0.1c0.3,0.2,0.5,0.5,0.7,0.9c0.8,1,1.5,1.9,2.3,2.9c0.2,0.4,0.5,0.7,0.9,1
		l0.1,0.1c0.3,0.2,0.5,0.5,0.7,0.9c0.4,0.6,0.9,1.3,1.3,1.9c0.2,0.4,0.5,0.7,0.8,1l0.1,0.1c0.3,0.2,0.6,0.6,0.8,0.9l0.2,0.2
		c0.3,0.1,0.6,0.4,0.7,0.7c1.1,1.3,2.2,2.6,3.3,3.9c0.3,0.4,0.6,0.7,0.9,1l0.1,0.1c0.3,0.3,0.6,0.6,0.8,0.9l0.1,0.2
		c0.4,0.2,0.6,0.5,0.7,0.9l0.2,0.2c0.8,0.4,1.4,1.1,2,1.7l0.2-0.1C370.3,221.7,371.3,227.3,368,232.9z"/>
	<path class="st29" d="M368,216.2c-1-0.1-1.8-0.6-2-1.7c0.8-0.5,1-1.3,1-2.1c0-1.5,0.1-2.9,0.1-4.4c0-20.2,0-40.4,0-60.6
		c0-3.9,0.1-7.8,0.1-11.7c0-1.3-0.1-2.6,0.7-3.8c0.1,0.6,0.2,1.3,0.2,1.9C368.1,161.3,368.1,188.7,368,216.2z"/>
	<path class="st14" d="M251.1,71.9c0.7,0.3,1.1,0.9,1.2,1.7C251.6,73.3,251.2,72.7,251.1,71.9z"/>
	<path class="st14" d="M256.3,78.7c0.3,0.3,0.6,0.6,0.8,0.9C256.7,79.5,256.4,79.2,256.3,78.7z"/>
	<path class="st14" d="M253.3,74.8c0.3,0.4,0.6,0.7,0.9,1.1C253.6,75.7,253.3,75.4,253.3,74.8z"/>
	<path class="st14" d="M252.5,73.8c0.3,0.3,0.5,0.6,0.8,0.9C253,74.4,252.7,74.1,252.5,73.8z"/>
	<path class="st14" d="M250.2,70.9c0.3,0.4,0.7,0.8,1,1.1C250.6,71.9,250.3,71.5,250.2,70.9z"/>
	<path class="st29" d="M333.8,175.8c-0.3-0.3-0.6-0.7-0.9-1C333.2,175.2,333.5,175.5,333.8,175.8z"/>
	<path class="st29" d="M334.7,176.8c-0.3-0.3-0.6-0.6-0.9-0.9C334.1,176.2,334.4,176.5,334.7,176.8z"/>
	<path class="st29" d="M335.6,177.8c-0.3-0.3-0.5-0.6-0.8-0.8C335.1,177.2,335.3,177.5,335.6,177.8z"/>
	<path class="st29" d="M336.5,178.8c-0.2-0.3-0.5-0.5-0.7-0.8C336,178.3,336.3,178.5,336.5,178.8z"/>
	<path class="st29" d="M341.5,184.7c-0.3-0.3-0.5-0.6-0.8-0.9C341,184,341.3,184.4,341.5,184.7z"/>
	<path class="st29" d="M342.4,185.7c-0.3-0.3-0.5-0.5-0.7-0.8C341.9,185.1,342.2,185.4,342.4,185.7z"/>
	<path class="st29" d="M343.3,186.7c-0.2-0.3-0.4-0.5-0.7-0.8C342.9,186.1,343.1,186.4,343.3,186.7z"/>
	<path class="st29" d="M346.5,190.6c-0.3-0.3-0.6-0.7-0.9-1C345.9,190,346.2,190.3,346.5,190.6z"/>
	<path class="st29" d="M347.3,191.6c-0.3-0.3-0.5-0.6-0.8-0.9C347,190.8,347.3,191.1,347.3,191.6z"/>
	<path class="st29" d="M350.5,195.5c-0.3-0.3-0.6-0.7-0.9-1C350,194.6,350.3,195,350.5,195.5z"/>
	<path class="st29" d="M351.4,196.5c-0.3-0.3-0.6-0.6-0.9-1C351,195.7,351.3,196,351.4,196.5z"/>
	<path class="st29" d="M352.2,197.5c-0.2-0.3-0.5-0.6-0.7-0.9C351.9,196.7,352.2,197,352.2,197.5z"/>
	<path class="st29" d="M355.3,201.4c-0.3-0.3-0.6-0.7-0.9-1C354.9,200.5,355.3,200.9,355.3,201.4z"/>
	<path class="st29" d="M356.1,202.4c-0.2-0.3-0.5-0.6-0.7-0.9C355.8,201.6,356.1,201.9,356.1,202.4z"/>
	<path class="st29" d="M358.2,205.3c-0.3-0.3-0.6-0.7-0.8-1C357.7,204.6,358,205,358.2,205.3z"/>
	<path class="st29" d="M359.1,206.3c-0.3-0.3-0.5-0.6-0.8-0.9C358.6,205.7,358.8,206,359.1,206.3z"/>
	<path class="st29" d="M359.9,207.3c-0.2-0.2-0.4-0.5-0.7-0.7C359.5,206.8,359.7,207,359.9,207.3z"/>
	<path class="st29" d="M364.2,212.2c-0.3-0.3-0.6-0.7-0.9-1C363.6,211.5,363.9,211.9,364.2,212.2z"/>
	<path class="st29" d="M365,213.2c-0.3-0.3-0.5-0.6-0.8-0.9C364.5,212.6,364.8,212.9,365,213.2z"/>
	<path class="st29" d="M365.9,214.2c-0.2-0.3-0.5-0.6-0.7-0.9C365.4,213.7,365.6,214,365.9,214.2z"/>
	<path class="st15" d="M368,232.9c0.1-5.6,0.1-11.2,0.2-16.8c1.2,0.3,2.3,0.8,2.5,2.1c0.4,2.2,1.7,4.3,0.8,6.7
		c-0.3,1-0.1,1.9,0.3,2.9c1.5,3.5,2.2,7.1,1.4,11c-0.4,1.7,1.5,3.5,3.3,3.5c0.3,0,0.7-0.2,0.8-0.4c0.4-0.5,0.7-1.1,0.8-1.7
		c0.6-2.8,1.6-5.3,3.9-7.1c0.8-0.6,1.4-1.5,1.5-2.5c0.3-2.6,1.9-4.5,3.1-6.6c2.4-4.1,4.7-8.2,7-12.4c3.1-5.6,5.9-11.3,9.2-16.8
		c3.4-5.8,5.4-12.3,9.2-17.8c0.5-0.8,0.8-1.8,1.1-2.7c0.7-2,1.7-3.9,2.9-5.7c1.2-1.8,2.1-3.3,4.9-3c2.7,0.3,3.8-1.5,3.4-4.5
		c-0.2-1.3,0-2.2,1.1-2.9c0.5-0.3,1-0.9,1.2-1.4c0.4-1.4,1.2-2.2,2.7-2.5c1.5-0.3,2.2-1.3,2.4-2.8c0.2-1.3,0.4-2.5,0.3-3.9
		c-0.2-2.8,0.7-5.5,1.8-8c0.5-1,1.3-1.5,2.4-0.8c1.3,0.8,2.1,0.3,2.9-0.8c0.9-1.4,1.9-2.7,2.8-4c0.9-1.6,2.2-2.8,3.6-4
		c3.8-3.2,4.6-3.2,9-0.7c2.2,1.3,4.3,2.5,6.8,0.6c2.3,1.5,4.7,2.9,7,4.5c22.9,16,44.1,34.1,63,54.7c1.9,2,3.7,4.1,5.5,6.2
		c0.3,0.4,0.7,0.7,1.2,0.5c1,1.1,0.6,2.5,0.9,3.7c1.2,6.4,2.5,12.8,3.8,19.2c2,9.8,4,19.5,6,29.3c0.8,3.8,1.7,7.7,2.5,11.5
		c0.3,1.3,0.3,2.6,0.5,3.9c-3.5,0.5-3.8-2.5-4.8-4.5c-3.3-6.3-4.7-6.6-10.1-1.9c-8.5,7.6-17.3,14.9-24.7,23.6
		c-5,5.9-11.8,9.8-17.3,15.2c-11.8,11.5-22.1,24.4-33.8,36c-2.8,0.1-5.5-0.3-8.1-1.3c-1.4-0.5-2.8-0.7-4.3-1
		c-1.9-0.4-3.8-0.9-5.3-2.2c-4.2-5.7-6-11.8-3.4-18.3c-2.6,1.4-4.6-0.9-6.6-2.5c-5.8-4.8-10.2-11-15.1-16.7
		c-4.9-5.7-10.4-10.9-15.8-16.1c-2.9-2.8-6-3.6-9.7-1.3c-2.9,1.9-6.3,2.7-9.8,2.9c-2.6,0.2-5.1,1-7.5,2.1c-2.7,1.2-4.5,2.9-4.5,6.2
		c0,1.7,0.1,4.1-2.7,4.4c0-2.8-0.1-5.6-0.1-8.3C368,263.9,368,248.4,368,232.9z"/>
	<path class="st15" d="M451.4,122.9c-0.7-0.1-1.3-0.4-1.7-1C450.4,122,451.1,122.2,451.4,122.9z"/>
	<path class="st15" d="M449.6,121.8c-0.3-0.2-0.6-0.5-0.9-0.7C449.2,121.1,449.5,121.4,449.6,121.8z"/>
	<path class="st15" d="M452.7,123.7c-0.4-0.2-0.8-0.4-1.2-0.7C451.9,123.3,452.3,123.5,452.7,123.7z"/>
	<path class="st15" d="M455.6,125.7c-0.4-0.3-0.7-0.5-1.1-0.8C455.1,124.9,455.4,125.2,455.6,125.7z"/>
	<path class="st15" d="M457.3,126.8c-0.3-0.2-0.5-0.4-0.8-0.6C456.8,126.4,457,126.6,457.3,126.8z"/>
	<path class="st15" d="M460.2,128.8c-0.3-0.1-0.6-0.3-0.7-0.6C459.9,128.2,460.1,128.4,460.2,128.8z"/>
	<path class="st15" d="M461.3,129.7c-0.3-0.2-0.6-0.5-0.8-0.7C460.9,129,461.2,129.2,461.3,129.7z"/>
	<path class="st31" d="M416.9,453.9c-2.9,1.3-6,0.9-9,1.8c-3,0.9-6.1,1-9.2,1c-6.7,0-13.3,0.1-20,0.2c-3.4,0.1-6.8,0.2-10.2,0.4
		c0.2-2.3,0.3-4.5-0.1-6.8c-0.4-2.4-0.2-4.9-0.3-7.3c-0.1-10.4-0.2-20.8-0.1-31.2c0-3.8-1.2-7.4-0.8-11.2c1.1-2.2,3.2-2.6,5.3-2.9
		c12.9-1.8,24.1-7.6,35.3-14c7.1-4,14.2-7.9,20.1-13.7c2.8-2.8,5.2-5.8,6.5-9.6c0.2-1,0.6-1.8,1.1-2.6c2.1-2.3,2-5.3,2.7-8.1
		c0.1-0.4,0.2-0.9,0.4-1.3c0.4-0.8,0.9-1.5,1.5-2.2c0.5-0.4,1.2-0.6,1.8-0.6c8.5,2.3,16.9,4.9,25.4,8c-1.1,1.2-2.4,2.7-3,3.1
		c-3.6,2.4,0.4,3.5,0.5,5.2c0.1,1.9-0.5,3.8-0.3,5.8c0.7,7.6,5.6,13,9.2,19.1c5.8,9.9,15.3,16.4,22.8,24.8c3.3,3.7,6.6,7.5,9.8,11.2
		c-0.2,0.2-0.5,0.5-0.7,0.7c-2-2-4.1-3.9-6-6c-10.2-12-21.9-22.5-33.8-32.6c-1-0.8-2.1-1.9-3.5-1.3c-1.5,0.6-0.9,2.3-1,3.5
		c-1,13.3-2,26.7-3.1,40c-0.2,2.2-1.5,3.1-3.4,4.2c-13.1,7.4-28,8.2-42.2,11.5c-4.8,1.1-6.7,4.4-4.9,9.1c0.4,1,1.2,1.6,2.3,1.6
		C412.4,453.8,414.6,453.8,416.9,453.9z"/>
	<path class="st26" d="M441.9,345.8c-0.4,0.3-0.7,0.7-1.1,1c-0.7,0.5-0.5,1.4-1,2l0,0c-1.7,1.1-3.5,0.5-5.2-0.1
		c-1.2-0.5-2.4-1-3.6-1.4c-1.7-0.5-3.3-1.2-5.3-0.3c0.3,2.3,2.2,2.9,3.5,3.9c1.6,1.2,3.4,1.9,5,3c1.6,1.1,3.3,2.3,2.6,4.7
		c-0.3,0.6-0.7,1.2-1,1.9c-1.6,2.4-3,0.9-4.4-0.3c-3.2-2.9-6.4-5.7-11-2.1c-1,0.8-2.5,0.8-3.7,0c-1.6-1.1-0.9-2.5-0.6-4
		c0.9-4.4,0.3-5.1-4.1-5.5c-4.6-0.4-8.9,1.9-13.5,1.2c-1.6-0.2-1.6,1.2-1.6,2.3c-0.1,2.6,0.6,5.1,0.9,7.7c0.4,3.2,0.4,6.4-4.2,6.5
		c-0.4-0.3-0.6-0.6-0.8-1c-0.1-0.3-0.3-0.6-0.4-0.9c0,0.1-0.3-0.3-0.3-0.2c-0.2,0.1-0.4,0.2-0.6,0.4c0,0-0.3,0.3-0.3,0.3
		c-0.2,0.3-0.4,0.5-0.6,0.8c-0.7,0.7-1.4,1.4-2.2,1.9c-0.5,0.4-1.1,0.6-1.7,0.9c-0.4,0.1-0.9,0.2-1.3,0.2c-1.7,0-3.5,0-5.2,0
		c-0.4,0-0.8-0.1-1.3-0.2c-0.6-0.2-1.2-0.4-1.7-0.7c-0.4-0.1-0.8-0.3-1.1-0.6c-0.6-0.3-1.1-0.7-1.7-1c-1.3-1-2.4-2.2-3.3-3.7
		c-0.4-0.7-0.6-1.4-0.6-2.2c0-5.5,0-10.9,0-16.4c0-1.1,0-2.1,0.3-3.1c0.2-0.7,0.4-1.5,0.7-2.2c0.2-0.7,0.5-1.3,0.9-1.9
		c3.9-7.4,10.1-12.9,16-18.8c-2.1-1.7-4.2-1.1-6-1c-8.6,0.3-17.2-0.8-25.8,0.8c-3.8,0.7-2.6,1.7-0.7,3.3c1.7,1.7,2.9,3.7,4.2,5.7
		c0.4,0.9,0.6,1.8-0.1,2.7c-3.6,1.9-6-0.6-8.1-2.7c-2.5-2.5-4.9-4.3-8.6-5c-5.8-1.2-9.8-5.9-9.7-10.7c-3.1,1.1-5.8,3.1-9,3.8
		c-1.7,0.4-3.9,1.3-4.8-0.7c-0.8-1.7,0.9-2.9,2.2-3.9c2.9-2.1,5.5-4.6,8.5-6.5c7.8-4.4,16.4-6.1,25.1-7.7c3.4-0.6,6.8-0.9,10.2-1.4
		c9.9-3.9,19.6-1.3,29.2,0.9c13.8,3.1,25.6,10.2,35.9,19.9c4,3.8,8.1,7.5,12.5,10.9c4.6,2,9.7,2.6,14.4,3.9c1.1,0.3,2.2,0.4,3.3,0.7
		c0.5-0.4,1-0.6,1.6-0.7c0.8,0,1.6,0.1,2.3,0.3c0.4,0,0.8,0.1,1.1,0.2c0.4,0.1,0.8,0.2,1.1,0.3c0.9,0.4,1.8,0.7,2.7,0.7
		c0.6,0,1.2,0.1,1.7,0.2c0.7,0.2,1.4,0.6,2.1,0.8c0.4,0,0.7,0.1,1.1,0.2c0.7,0.3,1.3,0.6,2.1,0.7c0.6,0.1,1.1,0.1,1.7,0.3
		c0.7,0.2,1.4,0.6,2.2,0.7c0.6,0.1,1.2,0.1,1.8,0.3c0.6,0.2,1.1,0.5,1.7,0.7c0.6,0.3,1.1,0.8,1.4,1.4c0.1,0.5,0,0.9-0.2,1.3
		c-0.3,0.3-0.7,0.6-1.1,0.8c-0.9,0.3-1.7,0.4-2.6,0.3c-0.6-0.1-1.3-0.2-1.9-0.3c-0.8-0.2-1.6-0.4-2.4-0.6c-0.6-0.1-1.2-0.3-1.7-0.5
		c-0.9-0.5-2-0.3-2.9-0.5c-0.6-0.1-1.2-0.3-1.7-0.5c-0.6-0.2-1.1-0.4-1.7-0.6c-0.7-0.3-1.4-0.7-2.2-0.8c-0.6-0.1-1.2-0.1-1.7-0.3
		c-0.9-0.3-1.8-0.8-2.8-0.8c-0.4,0-0.8-0.1-1.2-0.2c-0.7-0.3-1.5-0.6-2.3-0.7c-0.6,0-1.2-0.1-1.9-0.3c-0.6-0.2-1.2-0.5-1.9-0.6
		c-2.3-0.1-4.4-1-6.7-1.2c-1.9-0.3-3.7-0.9-5.9-1.5c-1,3,0.2,5.9,0.1,8.8c0.1,0.5,0.2,1,0.4,1.5c0.2,0.3,0.4,0.5,0.6,0.8
		c0.2,0.2,0.4,0.5,0.6,0.8c0.2,0.3,0.3,0.6,0.3,0.9c-0.3,0.4-0.7,0.8-1,1.2c-2.5-0.1-4.8-0.8-7-1.7c-8-3.3-16.3-5.1-24.6-7.3
		c-4.1-1.1-8.3-2.2-12.8-3.4c0.7,1.6,1.8,2.2,3.1,2.5c4.2,1,8.5,2.1,12.7,3.3c0.8,0.2,1.5,0.6,2.2,0.9c0.4,0.3,0.8,0.6,1.3,0.6
		c0.9-0.3,1.8-0.1,2.6,0.3c0.4,0.3,0.8,0.6,1.3,0.7c0.9,0.1,1.8,0.3,2.6,0.4c0.3,0.2,0.7,0.4,1,0.6c0.7,0.1,1.3,0.2,2,0.3
		c0.4,0.2,0.8,0.6,1.3,0.7c0.9,0.2,1.8,0.3,2.7,0.5c0.3,0,0.6,0.2,0.7,0.5c0.7,0.1,1.5,0.3,2.2,0.4c0.3,0.2,0.7,0.3,1,0.5
		c0.3,0.1,0.6,0.3,1,0.4c0.6,0.3,1.4,0.2,2,0.6c0.3,0.2,0.6,0.3,0.9,0.5c0.3,0.1,0.6,0.3,0.7,0.6
		C441.5,345.8,441.9,345.8,441.9,345.8z"/>
	<path class="st27" d="M439.9,344.7c-0.7,0.1-1.4-0.1-2-0.6C438.7,344,439.4,344,439.9,344.7z"/>
	<path class="st27" d="M419.6,338.8c-0.4-0.2-0.9-0.4-1.3-0.6C418.7,338.3,419.1,338.5,419.6,338.8z"/>
	<path class="st27" d="M423.5,339.7c-0.4-0.2-0.9-0.5-1.3-0.7C422.6,339.3,423,339.5,423.5,339.7z"/>
	<path class="st27" d="M427.1,340.8c-0.3-0.2-0.6-0.4-1-0.6C426.4,340.3,426.7,340.5,427.1,340.8z"/>
	<path class="st27" d="M430.3,341.7c-0.4-0.2-0.8-0.4-1.3-0.7C429.6,341,430,341.3,430.3,341.7z"/>
	<path class="st27" d="M433.7,342.7c-0.3-0.1-0.5-0.3-0.7-0.5C433.4,342.2,433.6,342.4,433.7,342.7z"/>
	<path class="st27" d="M437,343.7c-0.3-0.2-0.7-0.3-1-0.5C436.3,343.3,436.7,343.5,437,343.7z"/>
	<path class="st27" d="M441.5,345.8c-0.3-0.2-0.5-0.4-0.7-0.6C441.1,345.3,441.3,345.5,441.5,345.8z"/>
	<path class="st15" d="M441,131.8c-0.2,1.1-1.2,1.8-2,1.5c-0.9-0.3-1-1.1-0.9-2c0.2-0.9,0.8-1.3,1.7-1.2
		C440.6,130.1,441.1,131,441,131.8z"/>
	<path class="st32" d="M466.3,331.9c-0.3,0-0.7,0-1,0c-0.6-0.5-1.4-0.3-2-0.8c-0.6-0.1-1.2-0.2-1.8-0.4c-0.1-1.7,0.4-3.3,1.6-4.5
		c12.4-11.8,22.5-26,35.9-36.8c7.1-5.8,13.5-12.2,19.9-18.7c4.9-5,10.6-9,15.4-14.1c1.5-1.5,3.1-2.9,5-3.9c5-2.7,5.1-2.7,8.1,2.5
		c1.5,2.6,1.7,6,4.4,8c2.3,10.5,4.6,21,6.8,31.5c2.5,11.9,4.9,23.9,7.3,35.9c0.5,2.7,1,5.4,1.4,8.2c-6.9,3.8-13.8,7.4-22.1,7.1
		c-3.3-0.1-6.3,1.4-9.2,3.1c-4.5,2.7-7.4,2.1-9.7-2.5c-3.1-6.4-7.7-10.3-15-10.8c-3.7-0.3-5.7-3.6-8.4-5.6c-5.4-4.1-6-4.3-10.3,1
		c-4,5-8.8,4.7-14.2,3.4C474.5,333.4,470.7,331.2,466.3,331.9z"/>
	<path class="st33" d="M470.4,334.7c0.6,0.1,1.2,0.2,1.8,0.3c0.3,0.4,0.7,0.7,1.2,0.7c1.2,0.1,2.5,0,3.7,0.6
		c0.4,0.1,0.8,0.3,1.1,0.5c0.9,0.1,1.9,0.2,2.8,0.4c0.4,0.2,0.8,0.4,1.2,0.6c0.9,0.1,1.8,0.3,2.8,0.4c0.7,0.2,1.4-0.1,2-0.4
		c1-0.3,1.9-0.2,2.9,0.2c11.3,3.7,22.7,7,34.1,10.3c4.7,1.4,9.4,2.6,13.9,4.4c4.7,1.8,9.7,2.6,14.5,4.2c4.8,1.6,9.6,3,14.4,4.5
		c2,0.7,3.9,1.6,5.4,3.2c1.3,1.6,1.6,3.5,2,5.4c1.6,7.3,3,14.6,4.5,21.8c0.2,0.8,0.3,1.6-0.5,2.2c-0.3,0.3-0.7,0.3-1,0
		c-9.7-4.3-19.2-9-29-13c-6.3-2.6-12.4-5.7-18.7-8.5c-4.2-1.8-8.4-3.5-12.6-5.2c-12.7-5-25.7-9.5-38.7-13.7c-5-1.6-9.8-3.4-14.8-5.1
		c-1.2-3.1-0.3-6.1,0.3-9.1c0.5-2.4,2.2-3.4,4.2-3c-4.1,0.7-8.5-0.5-12.9-1.7c-2.2-0.6-4.4-1.3-6-3.1c-0.6-0.6-1.3-1.7,0.5-1.8
		c2.7-0.2,5.1,1.2,7.8,1.4c0.4,0.1,0.7,0.3,1,0.6c0.7,0.1,1.4,0.2,2,0.3c0.6,0.3,1.4,0.2,2,0.6c0.3,0.1,0.6,0.1,0.9,0.3
		c0.9,0.7,2.1,0.2,3.1,0.6c0.6,0.2,1.2,0.4,1.8,0.6C468.9,334.5,469.7,334.5,470.4,334.7z"/>
	<path class="st34" d="M466.3,331.9c2.6-1.2,5.1-1.7,7.8,0c2.7,1.7,5.7,2.2,8.9,2.1c3.4-0.1,6-1.1,7.8-4.1c1-1.7,2.4-3.1,4-4.2
		c2.4-1.6,3.9-2,6,0.2c2.5,2.6,6,3.9,8,7.1c0.6,0.9,1.7,1,2.7,0.9c5.7-0.6,9.6,2.5,13.3,6.1c1.2,1.2,2.1,2.5,2.5,4.1
		c0.3,1.1,0.7,2.2,1.2,3.2c1.2,2,3.6,2.4,5.3,0.8c3.5-3.1,7.7-4.1,12.1-4.4c2.3-0.1,4.5,0.1,6.8-0.6c2.4-0.6,4.7-1.2,6.7-2.8
		c1-0.8,2.3-1.2,3.4-1.9c1.5-0.8,2.8-0.5,4.2,0.3c1.3,2.5,1.4,5.4,2,8c1,4.1,1.8,8.3,2.7,12.4c0.2,1.1,0.5,2.3-0.6,3.1
		c-5.1,0.9-9.1-2.9-13.9-3.2c-21.4-6.9-43-12.7-64.4-19.5c-0.7-0.1-1.3-0.4-2-0.7c-0.6-0.2-1.3-0.3-1.9-0.5
		c-0.4-0.1-0.8-0.2-1.2-0.3c-0.8-0.3-1.5-0.7-2-1.3c-0.7-0.1-1.4-0.2-2-0.3c-0.4-0.2-0.7-0.4-1-0.6c-0.6-0.1-1.3-0.2-1.9-0.3
		c-0.6-0.4-1.4-0.3-2-0.7c-0.6-0.1-1.3-0.2-1.9-0.3c-0.6-0.4-1.4-0.2-1.9-0.8c-0.3,0-0.7-0.1-1-0.1c-0.6-0.5-1.5-0.3-2.1-0.8
		c-0.6-0.1-1.3-0.2-1.9-0.3c-0.9-0.6-2.1,0-2.9-0.7l-0.5,0L466.3,331.9z"/>
	<path class="st14" d="M488.8,338c0.6,0,1.3,0,1.9-0.1c0.3,0.3,0.6,0.5,1,0.6c9.7,3,19.3,6.1,29,8.8c13.2,3.7,26.1,8.2,39.4,11.5
		c3.8,1,7.5,2.4,11.2,3.6c0.2,0.7,1.7,0.9,0.8,2.1c-5.3-1.6-10.6-3.2-15.8-4.8c-3.7-1.1-7.5-2.2-11.2-3.3
		c-5.3-1.6-10.5-3.3-15.8-4.9c-12.6-3.8-25.2-7.5-37.8-11.3c-0.9-0.3-1.9-0.5-2.6-1.3C488.2,338.7,488.2,338.4,488.8,338z"/>
	<path class="st14" d="M574.3,364.4c0.6,0,1.3,0,1.9-0.1c0.3,0.3,0.6,0.5,1,0.6c9.7,3,19.3,6.1,29,8.8c13.2,3.7,26.1,8.2,39.4,11.5
		c3.8,1,7.5,2.4,11.2,3.6c0.2,0.7,1.7,0.9,0.8,2.1c-5.3-1.6-10.6-3.2-15.8-4.8c-3.7-1.1-7.5-2.2-11.2-3.3
		c-5.3-1.6-10.5-3.3-15.8-4.9c-12.6-3.8-25.2-7.5-37.8-11.3c-0.9-0.3-1.9-0.5-2.6-1.3C573.7,365.2,573.7,364.8,574.3,364.4z"/>
	<path class="st14" d="M51,408c0.5-0.3,1.1-0.7,1.6-1c0.4,0.1,0.8,0.1,1.2,0c9.8-2.5,19.6-4.9,29.4-7.6c13.2-3.7,26.6-6.6,39.7-10.7
		c3.7-1.2,7.6-1.8,11.4-2.7c0.5,0.5,2-0.1,1.7,1.4c-5.3,1.4-10.7,2.8-16,4.2c-3.8,1-7.5,2-11.3,3c-5.3,1.4-10.7,2.6-16,4
		c-12.7,3.3-25.4,6.7-38.2,10c-0.9,0.2-1.9,0.6-2.9,0.3C50.9,408.9,50.7,408.6,51,408z"/>
	<path class="st14" d="M577.2,394c0.3,0,0.7,0,1,0c0,0.2,0,0.5,0,0.7C577.9,394.4,577.5,394.2,577.2,394z"/>
	<path class="st24" d="M248.3,337c1.6,0,3.3,0,4.9,0c-3.5,2.3-7.6,2.8-11.6,3.3c-10.4,1.3-20.2,5-30.4,6.9c-3.7,0.7-7.4,1.2-11,2.3
		c-1.3,0.4-2.6,0.4-3.7-0.5c0.9-0.1,1.8-0.2,2.7-0.4c0.3-0.2,0.6-0.4,1-0.5c1-0.2,1.9-0.3,2.9-0.5c0.3-0.1,0.6-0.3,0.9-0.3
		c0.7-0.2,1.5-0.4,2.2-0.6c0.8-0.7,1.9-0.3,2.8-0.6c3.4-1.5,7.2-1.9,10.8-2.7c4.3-0.9,8.5-1.8,12.8-2.7c0.6-0.3,1.4-0.3,2-0.6
		c0.9-0.1,1.9-0.3,2.8-0.4c0.3-0.1,0.6-0.2,0.9-0.3c1.3-0.2,2.7-0.5,4-0.7c0.3-0.1,0.6-0.2,0.9-0.3
		C244.8,337.8,246.9,338.5,248.3,337z"/>
	<path class="st24" d="M257.3,336.1c1.2-0.1,2.4-0.2,3.6-0.3c0.3,0.5,0.2,1-0.4,1.1C259.3,337,258.2,337,257.3,336.1z"/>
	<path class="st14" d="M166.2,337.9c-0.2-0.9-0.4-1.9,0.4-2.7c0,0.9,0.1,1.9,0.1,2.8L166.2,337.9z"/>
	<path class="st29" d="M166.2,337.9c0,0,0.5,0.1,0.5,0.1c0.1,0.5,0.1,0.9-0.3,1.3C166.3,338.9,166.3,338.4,166.2,337.9z"/>
	<path class="st30" d="M194.2,203.5c0,0.3-0.2,0.5-0.4,0.7c-0.1-0.2-0.2-0.4-0.2-0.7C193.7,203.5,193.9,203.5,194.2,203.5z"/>
	<path class="st14" d="M177.6,280c0.1,1.4,0,2.8-0.9,4C176.7,282.6,176.5,281.1,177.6,280z"/>
	<path class="st14" d="M171.8,307.5c0.1,0.8-0.1,1.5-0.8,2.1C170,308.2,170.1,308.1,171.8,307.5z"/>
	<path class="st14" d="M169.8,317.3c0.2,1.1,0,2.1-0.8,2.9C168.8,319.2,168.9,318.1,169.8,317.3z"/>
	<path class="st14" d="M174.7,294.7c0.1,1.1-0.1,2.1-0.8,2.9C173.7,296.6,173.8,295.5,174.7,294.7z"/>
	<path class="st14" d="M168.7,323.3c0.2,1,0.1,2-0.7,2.8C167.9,325.1,167.9,324.1,168.7,323.3z"/>
	<path class="st14" d="M170.7,312.4c0.1,1.1,0,2.2-0.8,3C169.8,314.3,169.8,313.3,170.7,312.4z"/>
	<path class="st14" d="M172.7,303.6c0.1,1.1-0.1,2.1-0.8,2.9C171.8,305.4,171.8,304.4,172.7,303.6z"/>
	<path class="st14" d="M175.7,289.8c0.1,1.1-0.1,2.1-0.9,3C174.7,291.7,174.8,290.6,175.7,289.8z"/>
	<path class="st14" d="M176.6,286c0.1,1.1,0,2.1-0.7,2.9C175.7,287.8,175.7,286.8,176.6,286z"/>
	<path class="st14" d="M187.4,234.9c0.1,1.1,0,2-0.8,2.8C186.5,236.7,186.6,235.7,187.4,234.9z"/>
	<path class="st14" d="M190.3,221.1c0,0.6-0.1,1.3-0.1,1.9c-0.2,0.4-0.4,0.4-0.7,0C189.5,222.3,189.7,221.6,190.3,221.1z"/>
	<path class="st14" d="M167.5,329.4c0.2,0.7,0,1.2-0.5,1.6C166.9,330.4,167,329.8,167.5,329.4z"/>
	<path class="st14" d="M173.7,298.7c0.1,0.8-0.2,1.6-0.8,2.2C172.8,300,173.1,299.2,173.7,298.7z"/>
	<path class="st14" d="M188.4,229.9c0,0.7,0,1.3-0.1,2l-0.3,0.3l-0.4-0.3C187.6,231.2,187.8,230.5,188.4,229.9z"/>
	<path class="st14" d="M189.3,226c0,0.6-0.1,1.3-0.1,1.9c-0.2,0-0.4,0-0.6,0C188.6,227.2,188.7,226.6,189.3,226z"/>
	<path class="st14" d="M193.2,207.4c0,0.4,0,0.7,0,1.1c-0.2,0-0.4,0-0.6,0C192.8,208.1,193,207.8,193.2,207.4z"/>
	<path class="st30" d="M192.6,208.5c0.2,0,0.4,0,0.6,0c0,0.2-0.1,0.4-0.3,0.5C192.7,208.9,192.6,208.7,192.6,208.5z"/>
	<path class="st14" d="M192.2,212.3c0,0.3,0,0.7,0,1c-0.2,0-0.5,0-0.7,0C191.8,213,192,212.6,192.2,212.3z"/>
	<path class="st30" d="M191.5,213.3c0.2,0,0.5,0,0.7,0c0,0.3-0.2,0.6-0.5,0.7C191.6,213.8,191.6,213.6,191.5,213.3z"/>
	<path class="st14" d="M191.2,217.2c0,0.3,0,0.7,0,1c-0.2,0-0.4,0-0.6,0C190.8,217.9,191,217.6,191.2,217.2z"/>
	<path class="st30" d="M190.6,218.2c0.2,0,0.4,0,0.6,0c0,0.3-0.1,0.5-0.4,0.7C190.7,218.7,190.6,218.5,190.6,218.2z"/>
	<path class="st30" d="M189.5,223c0.2,0,0.5,0,0.7,0c-0.2,0.3-0.3,0.6-0.5,0.9C189.6,223.6,189.5,223.3,189.5,223z"/>
	<path class="st30" d="M188.6,227.9c0.2,0,0.4,0,0.6,0c-0.1,0.3-0.3,0.6-0.4,0.8C188.6,228.5,188.6,228.2,188.6,227.9z"/>
	<path class="st30" d="M187.6,232c0.2,0,0.5-0.1,0.7,0c-0.2,0.3-0.3,0.5-0.5,0.8C187.7,232.5,187.6,232.2,187.6,232z"/>
	<path class="st35" d="M449.6,329.9c0,0.2-0.1,0.4-0.1,0.5c2.2,1,4.3,2,6.6,2.6c4.2,1,8.4,2.2,12.8,3.3c-3.5,1.9-3.6,1.9-3.6,5.4
		c0,2.5,0,4.9-1.8,6.8c-6.1-1.3-11.7-4.4-17.8-5.8c0,0-0.3-0.1-0.3-0.1l-0.3,0c-0.6-0.1-1-0.4-1.4-0.8c-0.3-0.1-0.5-0.1-0.8-0.1
		c-0.5-0.2-0.9-0.6-1.1-1.2c-0.2-2.1-0.2-4.2-0.5-6.2c-0.3-1.6,0-3.1,0.2-4.7c0.2-1.6,0.6-2.1,1.8-1.7
		C445.4,328.6,447.8,328.4,449.6,329.9z"/>
	<path class="st11" d="M208.9,346.1c-0.8,0.6-1.8,0.6-2.8,0.6C206.9,346,207.9,346,208.9,346.1z"/>
	<path class="st11" d="M234.5,340.1c-0.6,0.5-1.3,0.6-2,0.6C233.1,340.5,233.8,340.3,234.5,340.1z"/>
	<path class="st11" d="M243.1,338.4c-0.2,0.2-0.5,0.3-0.9,0.3C242.5,338.6,242.8,338.5,243.1,338.4z"/>
	<path class="st11" d="M238.2,339.4c-0.3,0.1-0.6,0.2-0.9,0.3C237.6,339.6,237.9,339.5,238.2,339.4z"/>
	<path class="st11" d="M203.9,347.3c-0.3,0.1-0.6,0.2-0.9,0.3C203.3,347.5,203.6,347.4,203.9,347.3z"/>
	<path class="st11" d="M200.1,348.1c-0.3,0.2-0.6,0.3-1,0.5C199.5,348.4,199.8,348.3,200.1,348.1z"/>
	<path class="st27" d="M304.2,330.1c0.6-0.3,1.1-0.8,1.7-0.9c4.9-1,9.9-1.9,14.8-2.8c1.9-0.3,3.9-0.4,5.8-0.7c0.2,0,0.5-0.5,0.4-0.7
		c0-0.2-0.4-0.5-0.7-0.5c-1.6,0.2-3.2,0.5-4.8,0.6c-2.9,0.1-3.4-0.3-4.5-3.3c-0.1-0.3-0.2-0.6-0.3-0.9c-0.5-0.8-1.1-1.1-2-0.6
		c-1.6,0.9-3.2,1.7-4.7,2.5c-1.5,0.8-2.9,1.4-4.6,1.3c4.6-6.7,10.6-11.9,17.4-16.2c2.6-1.7,5-3.7,8.1-4.3c-2.9,3.7-6.4,6.8-10,9.9
		c1.1,0.8,2,0,2.8-0.2c1.5-0.5,3.2-0.9,4.5-1.8c2.5-1.7,5.4-2.2,8-3.6c0.4-0.2,1-0.1,1.3,0.1c0.5,0.3,0.2,0.8-0.1,1.2
		c-0.5,0.7-1.1,1.3-1.5,1.9c-1.5,2.6-1.3,3.7,1.5,4.9c1.5,0.6,3,1.3,3.9,2.7c0.8,1.2,2,1.5,3.4,1.5c0.3,0,0.7,0,1,0
		c2.8-0.3,4.6,1,6,3.3c1.3,2.4,3.7,3.6,5.9,5c0.9,0.5,1.9,0.4,2.8,0.2c0.2,0,0.5,0,0.7,0c0.5,0.1,0.9,0.2,1.3,0.5
		c1,0.7,1.7,1.7,2,2.9c4.8,7,4.4,15,4,22.9c-0.1,2.1-1.5,3.6-2.9,4.9c-2,1.9-4,3.8-5.6,6.1c-2.6,4-6.4,1.8-9.7,1.8
		c-0.6,0.7-0.3,1.2,0.3,1.6c2.6,1.7,5.5,1.9,8.4,1c2.3-0.7,4.6-1.7,6.2-3.6c0.5-0.6,1.1-1.2,1.7-1.7c1.6-1.4,3.2-1.3,4.9-0.3
		c1.1,0.7,2,1.7,2.9,2.6c2.3,2.2,5.1,2.5,8.1,2.6c2.7,0.1,4.7-0.9,6.5-2.7c1.1-1.1,2.1-2.6,4.1-2.1c0.5,0.6,1.1,0.6,1.7,0.1
		c1.5-1.4,1.9-3.4,1-4.9c-1.9-3.2-0.7-6.7-1.5-9.9c-0.1-0.4,0-1,0.1-1.4c0.3-1.4,1.7-2.2,3-1.8c0.5,0.1,0.9,0.4,1.3,0.7
		c1.2,0.8,2.4,0.9,3.7,0.3c3.7-1.6,7.6-1.3,11.5-1.3c2,0,3.3,0.9,4.2,2.7c1.3,2.6,1.4,2.6-0.5,5c-0.3,0.4-0.6,0.8-0.8,1.2
		c-0.1,0.4-0.1,1,0.1,1.3c0.3,0.3,0.9,0.4,1.3,0.3c1.1-0.1,1.7-0.9,2.3-1.6c2.2-2.4,3.1-2.6,5.9-1.2c1.4,0.7,2.8,1.6,4.3,2.3
		c1.1,0.6,1.5,1.6,1.9,2.7c0.5,1.5,1.6,1.4,2.8,0.9c-0.1,3.3-1.7,5.9-3.9,8.2c-1.3,1.4-2.6,2.9-4.2,4.1c-3.7,2.9-6.9,6.5-11.2,8.6
		c-1.3,0.7-2.5,1.4-4,1.8c-1.2,0.3-2.4,1-3.5,1.7c-11.6,7.8-24.1,13.4-38.2,14.9c-1.3,0.1-2.5,0.5-3.8,0.8c-1.1-1.2-2.7-1.1-4.1-1.4
		c-9-1.6-17.6-4.4-26.1-7.9c-5.1-2.2-10.2-4.3-14.9-7.3c-9.1-5.8-15.8-13.5-21-22.8c-0.5-0.9-0.7-1.9-1.4-2.6
		c-1.6-1.5-2-3.1-1.5-5.2c0.3-1.1-0.7-1.9-1.8-1.5c-2.8,0.8-5.6,1.8-8.4,2.8c-1.5,0.5-2.9,1.2-5.4,1.9c2.9-2.8,5.9-3.4,8.4-4.6
		c1.2-0.6,2.4-0.9,3.7-1.4c2-0.8,3.2-2.2,2.9-4.5c-0.1-0.5-0.1-1-0.1-1.5c2.1-0.8,4.3-1.6,6.4-2.5c0.3-0.1,0.6-0.7,0.7-1.2
		c0.1-0.6-0.3-0.9-0.8-1c-1.5-0.3-2.7-1-3.7-2.2c-0.2-0.2-0.9,0-1.4,0c-0.1-0.6-0.3-1.2-0.4-1.8c-0.4-1-0.5,0.1-0.8,0.1
		c-0.6,0.8-1.3,0.7-2.1,0.6c-1-0.2-1.9-0.6-2.7,0.4c-0.2,0.6-0.6,0.7-1.1,0.6c-0.3-0.3-0.6-0.5-0.9-0.8c0.2-0.2,0.5-0.5,0.7-0.7
		c2-1.5,4.7-1.3,6.6-2.7C299.8,331.9,301.9,330.8,304.2,330.1z"/>
	<path class="st26" d="M292.6,337c0.8-1.2,1.7-1.2,2.7-0.4C294.5,336.8,293.5,336.9,292.6,337z"/>
	<path class="st26" d="M297.5,336.1c0.3-0.2,0.6-0.5,0.9-0.7c0,0.2,0,0.4-0.1,0.7l-0.4,0.1L297.5,336.1z"/>
	<path class="st27" d="M298.3,338.7c-0.2,0.7-0.3,1.3-0.5,2C297.8,340,297.7,339.2,298.3,338.7z"/>
	<path class="st27" d="M297.3,341.7c-0.3,0.4-0.6,0.7-0.9,1.1C296.7,342.4,297,342,297.3,341.7z"/>
	<path class="st36" d="M443.7,326.1c-3.1,0-5.7-1.1-7.8-3.4c-4-4.3-8.3-8.3-13-11.8c-5.8-4.2-11.8-8.2-18.6-10.5
		c-6.5-2.3-13-4.1-19.8-4.9c-3.9-0.5-7.8-0.7-11.6-0.8c-2.3-0.1-4.6-0.1-6.8-0.2c1.3-0.7,2.2-1.7,2.1-3.4c-0.1-1.1,0-2.2,0.1-3.3
		c1.1-1.4,0.8-3.1,0.8-4.7c0-1.3,0-2.6,0.1-3.9c0-0.9,0.4-1.5,1.3-1.9c4.7-2.1,9.4-4.5,14.8-4.2c2.2,0.1,4-1.2,5.9-2.2
		c1.2-0.6,2.3-1.3,3.4-1.9c1.2-0.7,2.5-0.8,3.7-0.3c2.1,0.9,4.1,1.9,5.8,3.6c4.2,4.3,8.8,8.3,12.7,12.9c3.3,3.8,7,7.3,9.6,11.6
		c0.8,1.3,1.9,2.2,2.9,3.2c2.5,2.3,4.8,4.8,7.4,7c1.3,1.1,2.5,1.3,4,0.5c1.3-0.7,2.7-1.2,4-1.7c0.2-0.1,0.7,0.1,0.8,0.4
		c0.1,0.2-0.1,0.7-0.3,0.8c-1,0.6-2,1.1-3,1.5c-1.4,0.6-2,1.7-1.8,3.1c1,6.5-1,6.5,2.9,13.2C443.6,325.1,443.6,325.6,443.7,326.1z"
		/>
	<path class="st37" d="M287.9,276c-0.4,0.6-0.9,1-1.6,0.7c-2.4-0.9-4.7-2-6.8-3.6c-1.4-1.1-2.6-2.4-4.4-2.9
		c-1.1-0.7-2.2-1.2-3.2-2.1l0.1,0.1c-0.4-0.3-0.8-0.7-1.1-1.1l0.1,0.1c-0.4-0.3-0.8-0.7-1.1-1.1l0.1,0.1c-0.4-0.3-0.8-0.7-1.1-1.1
		l0.1,0.1c-0.4-0.3-0.8-0.6-1.1-1.1l0.1,0.1c-0.4-0.3-0.8-0.6-1.1-1.1l0.1,0.1c-4.6-5-9-10.2-12.8-15.8l0.1,0.1
		c-1.9-3.3-4.5-6-6.6-9.1c-1.8-2.7-1.6-4.7,1.7-6.2c10.1-4.6,20.7-6.8,31.8-6.7c6.3,0,7.6,1.7,6.2,7.9c-2.8,12.5-1.9,25,0.8,37.4
		C288.7,272.5,289.2,274.3,287.9,276z"/>
	<path class="st38" d="M287.9,276c-2.2-5.2-3.5-10.5-3.6-16.1c-0.1-5.2-0.2-10.5-0.2-15.7c0-4.9,0.7-9.8,2.1-14.5
		c0.2-0.8,0.2-1.6,0.3-2.7c-13.9-1.4-26.9,1.4-39.6,7.5c1.1,3.1,3.1,5.7,4.9,8.4c1,1.5,2.4,2.7,2.5,4.7c-1.8-0.5-2.3-2.3-3.2-3.5
		c-2-2.6-3.8-5.3-5.6-8c-1.1-1.6-0.9-2.3,0.7-3.2c3.8-1.9,7.6-3.7,11.7-4.9c6.4-1.9,13-3.4,19.7-3.5c11.6-0.2,22.8,1.4,32.6,8.3
		c0.9,0.7,1.8,1.4,2.7,2.1c5.7,4.9,10.6,10.6,15.1,16.6c0.5,0.7,0.8,1.4,0.4,2.2c-2.3,0.4-3.6-1.2-4.8-2.7
		c-3.8-4.5-8.1-8.5-12.3-12.6c-0.9-0.9-1.9-1.9-3-2.5c-0.8-0.5-1.6-1.1-2.8-1.2c-0.6,1.6-0.2,3.3-0.2,4.8
		c0.4,11.5-0.6,22.8-3.9,33.9c-0.1,0.5-0.4,0.9-0.4,1.4c-0.1,1.6,0.3,2,2,1.8c1.1-0.2,2.2-0.7,3.2-1.1c4.6-1.8,8.9-4.1,13.2-6.5
		c2.1-1.2,4.2-2.8,6.8-1.6c-0.5,1.1-1.2,1.9-2.2,2.5c-5.5,3.8-11.5,6.8-17.7,9.3c-5.1,2-10.2,1.9-15.3,0.2c-0.8-0.3-1.4-0.7-1.8-1.5
		C289,277.2,288.4,276.6,287.9,276z"/>
	<path class="st39" d="M326.3,267.3c-4.1,2.3-8.2,4.7-12.3,6.9c-4,2.2-8.2,3.9-12.7,4.8c-1.3,0.2-2.5,0.5-3.7-0.3c0-0.4-0.1-0.7,0-1
		c4-8.4,5.2-17.4,5.7-26.5c0.3-6.8,0-13.6-0.8-20.7c3.5,0.9,6,2.9,8.5,4.8c5.5,4.2,10,9.4,14.3,14.7c1,1.3,2.1,2.5,3.2,3.7
		c1.3,2.3,2.6,4.5,3.8,6.8c0.9,1.8,0.8,2.2-0.7,3.2C329.8,265,328,266.1,326.3,267.3z"/>
	<path class="st38" d="M254.3,247.5c0.9,0,1.4,0.7,1.8,1.3c3.2,4.6,6.8,8.9,10.5,13.2c0.3,0.3,0.3,0.8,0.5,1.3
		c-0.6-0.3-1.2-0.4-1.7-0.9c-4.1-4.1-7.7-8.7-10.8-13.5C254.3,248.5,254.4,247.9,254.3,247.5z"/>
	<path class="st38" d="M271.9,268.1c1.5,0,2.3,1.1,3.1,2.1C273.6,270.1,272.6,269.3,271.9,268.1z"/>
	<path class="st38" d="M267,263.2c0.8-0.1,1.1,0.3,1.1,1.1C267.4,264.2,267.1,263.9,267,263.2z"/>
	<path class="st38" d="M268,264.2c0.8-0.1,1.1,0.3,1.1,1.1C268.4,265.2,268,264.8,268,264.2z"/>
	<path class="st38" d="M269,265.2c0.8,0,1.1,0.3,1.1,1.1C269.4,266.1,269,265.8,269,265.2z"/>
	<path class="st38" d="M270,266.1c0.8,0,1.1,0.3,1.1,1.1C270.5,267.1,270.1,266.7,270,266.1z"/>
	<path class="st38" d="M270.9,267.1c0.8,0,1.1,0.3,1.1,1.1C271.6,267.8,271.3,267.5,270.9,267.1z"/>
	<path class="st29" d="M209.1,248.6c1.2-1.1,2.6-1.1,4-0.7c0.5,0.1,1,0.5,0.8,1c-0.1,0.3-0.7,0.5-1.1,0.6
		C211.4,249.6,210.2,249.1,209.1,248.6C209.1,248.5,209.1,248.6,209.1,248.6z"/>
	<polygon class="st29" points="232,255.5 232.2,255.2 232.3,255.5 	"/>
	<path class="st40" d="M468.3,270.1c-0.1,0.3-0.2,0.7-0.4,0.9c-6.1,4.4-12.7,7.8-20.2,9c-7,1.1-13.6-0.5-20.1-2.8
		c-3.2-1.1-6.3-2.6-9.4-3.9c-4.5-0.7-7.8-3.3-10.7-6.6c-1.1-1.6-3.9-2.2-3.6-4.2c0.2-1.5,2-2.8,3.1-4.3c4.5-6.5,9.7-12.3,15.3-17.8
		c7.3-7.2,16-11.7,26-13.8c1.7-0.4,3.5-0.6,5.3-0.7c14.5-0.9,28.7,0.8,42.5,5.4c0.9,0.3,1.8,0.7,2.7,1.1c0.8,0.4,1.2,1.2,0.6,2
		c-7.6,11-14.5,22.5-24.8,31.4C472.5,267.5,470.8,269.5,468.3,270.1c-0.9-2.2,0.6-3.5,2-5c1.2-1.3,2.8-2.3,4.1-3.5
		c4.4-4.2,8.1-9,11.5-13.9c1.7-2.4,3.2-4.9,4.8-7.4c0.6-1,1.3-1.9,1.6-3c0.6-1.7,0.6-1.8-1-2.6c-0.9-0.4-1.8-0.7-2.8-0.9
		c-5.9-1.5-11.8-2.6-17.8-2.9c-2-0.1-3.9-0.6-5.8-0.8c-3.4-0.2-4.1,0.4-3.5,3.9c0.8,4.2,0.9,8.4,1.6,12.6c0.3,1.9,0.6,3.9,0.3,5.9
		c-0.9,6.4-0.9,13-3.6,19.5c1.7-0.4,2.8-1.4,4.1-1.9C465.2,269.4,466.8,268.7,468.3,270.1z"/>
	<path class="st36" d="M407.5,266.7c3.6,2.2,7.1,4.4,10.7,6.6c-0.6,0.2-1.3,0.7-1.7,0.6C412.6,272.6,409.1,270.8,407.5,266.7z"/>
	<path class="st27" d="M436.9,358.6c-0.8-1.5-2-2.6-3.5-3.3c-3.8-1.6-6.9-4.2-10.2-6.4c-0.4-0.9,0.1-1.4,0.5-1.9
		c0.7-0.9-0.4-2.5,1-3c0.9-0.4,1.9,0.3,2.9,0.4c4.5,0.4,8.3,2.9,12.4,4.4c0.1,2.4,0,4.8-0.9,7.2C438.4,357,437.9,357.9,436.9,358.6z
		"/>
	<path class="st27" d="M439.8,348.7c0-0.8,0.3-1.5,1-2C440.7,347.5,440.5,348.3,439.8,348.7z"/>
	<path class="st41" d="M393.5,365.1c-1.5,1.5-2.9,3.1-4.4,4.5c-1.5,1.4-3.2,2-5.3,2.1c-5.2,0.2-9.6-1.3-12.8-5.6
		c-0.3-0.4-0.7-0.7-1.2-1.3c-1.4,0.8-2.3,2.2-3.5,3.2c-3.4,2.9-7.2,5-11.9,4.7c-2.9-0.2-5.3-1.5-7.1-3.7c-0.6-0.7-0.6-1.5-0.4-2.3
		c0.2-0.7,0.8-1,1.5-1.1c0,0,0.5,0,0.5,0c0.3,0,0.6,0.1,0.9,0.3c0,0,0.4,0.3,0.4,0.3c0.3,0.2,0.5,0.4,0.8,0.6
		c0.3,0.2,0.6,0.3,0.9,0.5c0.5,0.2,1,0.3,1.5,0.5c0.3,0.2,0.7,0.4,1,0.5c1.1,0.4,2.2,0.4,3.3-0.3c0.3-0.2,0.6-0.4,1-0.6
		c0.5-0.2,1-0.4,1.5-0.7c0.3-0.2,0.6-0.3,0.9-0.4c0.3-0.2,0.6-0.3,0.9-0.4c0.3-0.2,0.5-0.3,0.8-0.5c0.2-0.2,0.5-0.4,0.7-0.6
		c0,0,0.3-0.3,0.3-0.4c0.2-0.3,0.4-0.5,0.6-0.8c0.1-0.1,0.2-0.3,0.3-0.4c0.2-0.3,0.4-0.6,0.6-0.9c0.4-0.7,0.7-1.3,1.1-2.1
		c0.1-0.4,0.3-0.8,0.6-1.2c0.1-0.2,0.3-0.4,0.4-0.6c1.9-6.1,0.7-12.4,0.7-18.5c-0.1-0.5-0.3-0.9-0.4-1.3c-0.1-0.2-0.1-0.4-0.2-0.7
		c0-0.4,0-0.8,0.1-1.2c0.1-0.3,0.4-0.6,0.6-0.9c0.2-0.2,0.3-0.5,0.2-0.9c-0.1-0.3-0.1-0.5-0.1-0.5c-0.1-0.6-0.1-1.2,0-1.9
		c0.6-1.3,0.7-3.3,2.4-3.2c2.4,0.2,1.7,2.7,2.4,4.2c0.2,0.4,0.3,0.8,0.5,1.2c0.3,1,0.2,2.1,0.2,3.2c0,0.4-0.1,0.8-0.2,1.2
		c-0.1,0.6-0.2,1.2-0.3,1.8c-0.4,0.6-0.4,1.4-0.7,2.1c-0.7,5.4-0.7,10.9-0.5,16.4c0,0.8,0.4,1.5,0.6,2.3c0.2,0.4,0.4,0.7,0.7,1.1
		c0.5,1.4,1.5,2.2,2.7,3c0.5,0.1,0.9,0.4,1.3,0.9l0.1,0c0.5,0.6,1.4,0.4,1.9,0.9l0.1,0c2.4,0.9,4.8,0.6,7.2,0.1
		c0.3,0.1,0.5-0.1,0.6-0.3c0.4-0.3,0.8-0.5,1.2-0.7c0.9-0.3,1.5-0.9,1.9-1.8c0.1-0.5,0.5-0.9,1-1.2l0,0.1c0.3-0.4,0.5-0.7,0.8-1.1
		c0.5-0.4,0.9-0.9,1.4-1.2c0.8-0.6,1.3-0.3,1.6,0.7c0.1,0.4,0,0.9,0.1,1.4c-0.2,0.4-0.5,0.7-0.7,1.1
		C393.6,364.5,393.4,364.8,393.5,365.1z"/>
	<path class="st27" d="M396.6,334c-3.2-0.2-5.1,0.9-6,4.3c-1.1,4-6.4,7.4-10.6,7.5c-1.5,0-2.6-0.5-2.8-1.5c-0.2-1.1,0.2-1.9,1.1-2.5
		c0.3-0.2,0.5-0.4,0.8-0.5c1.9-1.1,2.7-2.8,2.7-4.9c-0.2-5.3-0.1-5,4.8-8c2.1-1.3,3.9-2.7,5.1-5c2-3.7,5-3.9,7.8-0.8
		c0.3,0.4,0.6,0.8,0.9,1.2c1.6,2.1,1.7,2.1-0.4,3.7C397.8,329,396.6,331.2,396.6,334z"/>
	<path class="st42" d="M369.2,333c0,0.6,0,1.3,0,1.9c0.2,0.4,0.1,0.7-0.3,0.9c-0.3,0-0.6,0.1-0.8,0.3c-4-2.1-5-7.2-9-9.3
		c-1.7-1-2.8-2.5-3.8-4.2c-3.2-5.4-3.2-5.4,3-6.1c2.6-0.3,5.2-0.7,7.8-0.8c2.8,0,4.2,1.3,4.4,4.1C370.9,324.4,370.1,328.7,369.2,333
		z"/>
	<path class="st43" d="M369.2,333c-0.1-3.9-0.2-7.8-0.3-11.6c-0.2-4.8-0.7-5.2-5.5-4.6c-2.9,0.4-5.8,0.6-8.7,0.9
		c-1,0.1-1.4,1-0.9,1.7c0.8,1,1.8,1.9,1.6,3.4c-1.8-1.6-3.6-3.3-5.4-4.9c-0.2-0.2-0.2-0.6-0.2-0.9c0-0.4,0.2-0.5,0.6-0.6
		c5.4-0.3,10.7-0.8,16.1-1c6.8-0.2,13.7-0.1,20.5-0.2c1.1,0,2.3,0,3.4,0c0.6,0,1.4,0,1.6,0.8c0.2,0.7-0.3,1.2-0.8,1.6
		c-1,0.9-2,1.7-2.9,2.6c-4.6,4.1-8.8,8.7-12.4,13.8c-0.8,1.2-1.8,2.3-1.9,3.9l-0.3,0.2l-0.4,0c-0.4-1.1-0.8-2.2-1.1-3.3
		c2.4-6.1,7.6-10.4,11.1-15.7c-0.4-0.7-0.9-0.9-1.3-0.9c-11.7-0.2-9.5-0.6-8.4,9.1c0.3,2.7,0.2,5.2-1.4,7.4c-1.8-1-0.8-2.9-1.5-4.6
		C370.1,331.3,369.7,332.1,369.2,333z"/>
	<path class="st27" d="M396.6,333.9c0.8,0.3,1.6,0.5,2.3,0.8c1.5,0.8,1.7,1.6,0.7,3.1c-0.3,0.5-0.7,1.1-1.1,1.6
		c-0.5,0.7-1,1.3-1.9,0.9c-0.8-0.4-1-1.3-0.9-2.1C395.9,336.8,396.3,335.4,396.6,333.9z"/>
	<path class="st43" d="M359.2,326.9c0.3-0.1,0.7-0.4,0.8-0.3c3.1,2.8,6.3,5.7,8.2,9.6c0.1,0.2,0.1,0.5,0,0.7c-3-0.2-3.6-2.9-4.9-4.9
		c-0.3-1-0.9-1.6-1.8-2c-0.5-0.2-0.9-0.6-1.1-1.2c0,0,0.1-0.1,0.1-0.1C360,328.1,359.6,327.5,359.2,326.9z"/>
	<path class="st27" d="M383,366.3c-0.7-0.1-1.2-0.2-1.1-0.8c0-0.2,0.4-0.6,0.6-0.6c0.4-0.1,0.9,0,1.3,0.1c0.1,0,0.3,0.7,0.2,0.8
		C383.7,366,383.2,366.1,383,366.3z"/>
	<path class="st27" d="M386.2,367.5c-2.4,1.3-4.9,1.3-7.2-0.1C381.4,367.4,383.8,367.4,386.2,367.5z"/>
	<path class="st27" d="M377,356.1c0.1,0.1,0.3,0.2,0.3,0.3c0.1,0.4-0.1,0.6-0.5,0.6c-0.1,0-0.3-0.1-0.3-0.3
		C376.4,356.3,376.6,356.1,377,356.1z"/>
	<path class="st35" d="M466.4,333.7c-1.1,0.2-2.2,0.2-3.1-0.6C464.5,333,465.5,333,466.4,333.7z"/>
	<path class="st32" d="M467.2,332.1c1.1-0.1,2.1,0,2.9,0.7C469.1,332.9,468,332.8,467.2,332.1z"/>
	<path class="st35" d="M470.4,334.7c-0.8,0.2-1.5,0.1-2.2-0.4C469,334.1,469.7,334.3,470.4,334.7z"/>
	<path class="st32" d="M475.1,334c0.7,0,1.4,0.2,1.9,0.8C476.2,334.9,475.6,334.6,475.1,334z"/>
	<path class="st32" d="M478.9,335c0.8,0,1.5,0.2,2,0.7C480.1,335.8,479.5,335.6,478.9,335z"/>
	<path class="st35" d="M462.4,332.8c-0.7,0.1-1.4-0.1-2-0.6C461.2,332,461.9,332.3,462.4,332.8z"/>
	<path class="st32" d="M485.9,336.9c0.7,0.2,1.3,0.4,2,0.7c-0.1,1-0.9,0.7-1.4,0.7c-0.2-0.1-0.3-0.3-0.5-0.4
		C486.1,337.6,486,337.3,485.9,336.9z"/>
	<path class="st15" d="M463.3,331.1c0.8-0.1,1.4,0.2,2,0.8C464.5,332,463.8,331.7,463.3,331.1z"/>
	<path class="st27" d="M372.3,342.8c-0.1-0.8,0.1-1.5,0.7-2.1C373,341.5,372.8,342.2,372.3,342.8z"/>
	<path class="st32" d="M472,333.1c0.8,0,1.5,0.2,2.1,0.8C473.3,334,472.6,333.6,472,333.1z"/>
	<path class="st27" d="M378.9,367.3c-0.8,0-1.4-0.3-1.9-0.9C377.7,366.4,378.4,366.7,378.9,367.3z"/>
	<path class="st35" d="M458.4,332c-0.3-0.2-0.7-0.4-1-0.6C457.8,331.5,458.1,331.7,458.4,332z"/>
	<path class="st35" d="M473.4,335.7c-0.4-0.2-0.8-0.5-1.2-0.7C472.6,335.2,473,335.4,473.4,335.7z"/>
	<path class="st35" d="M478.2,336.8c-0.4-0.2-0.8-0.3-1.1-0.5C477.4,336.4,477.8,336.6,478.2,336.8z"/>
	<path class="st32" d="M482.8,336c0.3,0.2,0.7,0.4,1,0.6C483.5,336.4,483.2,336.2,482.8,336z"/>
	<path class="st35" d="M482.1,337.7c-0.4-0.2-0.8-0.4-1.2-0.6C481.4,337.3,481.8,337.5,482.1,337.7z"/>
	<path class="st27" d="M373.2,338.2c0.3,0,0.5-0.1,0.7-0.2c-0.2,0.3-0.5,0.6-0.7,0.9C373.2,338.6,373.2,338.4,373.2,338.2z"/>
	<path class="st35" d="M486,338.7c-0.4-0.2-0.8-0.4-1.1-0.6c0.3-0.1,0.7-0.2,1-0.2c0,0,0,0,0,0c0.3,0.2,0.5,0.3,0.4,0.6
		C486.2,338.6,486.1,338.7,486,338.7z"/>
	<path class="st13" d="M441.9,340.6c0.4,0.4,0.7,0.8,1.1,1.2C442.6,341.4,442.2,341,441.9,340.6z"/>
	<path class="st13" d="M443.7,341.9c0.5,0.3,0.9,0.6,1.4,0.8C444.6,342.4,444.2,342.1,443.7,341.9z"/>
	<path class="st27" d="M373,362.5c-0.4-0.2-0.7-0.5-0.7-1.1C372.5,361.8,372.7,362.2,373,362.5z"/>
	<path class="st27" d="M391.5,362.5c0,0.6-0.2,0.9-0.8,1.1C391,363.2,391.3,362.8,391.5,362.5z"/>
	<path class="st27" d="M390.8,363.5c-0.1,0.6-0.4,1-1,1.2C390.2,364.3,390.5,363.9,390.8,363.5z"/>
	<path class="st27" d="M393.9,364.4c-0.1-0.6,0.2-0.9,0.7-1.1C394.3,363.6,394.1,364,393.9,364.4z"/>
	<path class="st27" d="M376.9,366.4c-0.6,0-1-0.3-1.3-0.9C376.1,365.8,376.5,366.1,376.9,366.4z"/>
	<path class="st27" d="M388,366.5c-0.2,0.5-0.6,0.7-1.2,0.7C387.2,366.9,387.6,366.7,388,366.5z"/>
	<path class="st26" d="M486,338.7c-0.1-0.3-0.2-0.6-0.1-0.9c0.7-0.1,1.3-0.2,2-0.2c0.3,0.1,0.6,0.2,0.9,0.4c0,0.3,0,0.7,0.1,1
		C487.9,338.9,487,338.8,486,338.7z"/>
	<polygon class="st35" points="474.2,338.6 473.9,338.4 474.3,338.2 	"/>
	<path class="st32" d="M491.7,338.5c-0.3-0.2-0.7-0.4-1-0.6C491,338.1,491.4,338.3,491.7,338.5z"/>
	<path class="st26" d="M363.2,332c2.1,1.2,2.9,3.6,4.9,4.9c0,0,0,0.1,0,0.1c0.3,0.5,0.5,1.1,0.4,1.7c0,5.8,0,11.7,0,17.5
		c0,1.4,0.4,2.9-0.5,4.2l0,0.1c-0.3,0.4-0.7,0.8-0.8,1.3c-0.1,0.8-0.7,1.3-1.3,1.7c-0.2,0.4-0.4,0.6-0.8,0.8l-0.1,0.1
		c-0.2,0.4-0.5,0.7-0.9,0.9l-0.1,0.1c-0.2,0.4-0.5,0.6-0.9,0.9l-0.1,0.1c-0.4,0.7-1.4,0.4-1.8,1.1l0,0c-0.6,0.5-1.5,0.3-2,0.9
		l-0.2,0.2l-0.3-0.1c-1.9,0.5-3.8,0.6-5.7,0c-0.3,0.1-0.6,0-0.7-0.3c-0.4-0.3-0.8-0.6-1.4-0.7c-0.3,0-0.5-0.1-0.6-0.4
		c-0.4-0.1-0.6-0.4-0.8-0.7l-0.1-0.1c-0.4-0.3-0.7-0.5-1-0.8c0,0,0,0,0,0c0.5-0.5,1.1-0.8,1.7-0.5c1.3,0.6,2.6,1.3,4,1.8
		c2.1,0.7,3.8,0.3,4.5-1.6c1.1-2.9,3.1-4.8,5.6-6.4c2-1.3,3-3.3,2.9-5.8c-0.1-2.4-0.1-4.9,0-7.3c0.2-4.4-1.1-8.2-4-11.5
		C362.5,333.4,362.6,332.7,363.2,332z"/>
	<path class="st26" d="M317.3,337c0,0.2,0,0.4-0.1,0.4c-2.1,1.1-4.4,2-6.8,2.2c-0.6,0-1.3-0.4-1.3-1.1c0-0.4,0.4-0.8,0.7-1.2
		c0.1-0.1,0.3-0.2,0.4-0.3c0.9-0.4,1.7-1,2.7-0.6c1.3,0.5,2.5,0.2,3.8,0.1C316.8,336.4,317.1,336.8,317.3,337z"/>
	<path class="st26" d="M302.7,332.8c-0.1-0.1-0.3-0.2-0.3-0.2c0-0.3,0.2-0.5,0.5-0.4c0.1,0,0.3,0.1,0.3,0.2
		C303.3,332.8,303.1,332.9,302.7,332.8z"/>
	<polygon class="st26" points="330.7,324.5 331,324.7 330.7,324.8 	"/>
	<path class="st26" d="M360.4,328.8c0.6,0.1,0.9,0.6,1.1,1.2C361.1,329.6,360.7,329.2,360.4,328.8z"/>
	<path class="st44" d="M440.5,231.1c0.5,0.8,0.3,1.6,0.2,2.4c-1.4,7.3-0.9,14.6-0.3,21.9c0.4,4.9,1.2,9.7,3.2,14.2
		c1,2.3,2,4.4,3.5,6.4c0.9,1.2,0.5,1.8-0.8,1.9c-3.5,0.4-6.9-0.2-10.2-0.9c-11.4-2.1-21.6-6.9-30.3-14.5c0.1-0.5,0-0.9,0.2-1.1
		c6.4-8.5,13.2-16.6,21.5-23.3c2.9-2.4,6-4.5,9.4-6.1C438,231.6,439.2,231,440.5,231.1z"/>
	<path class="st45" d="M468.3,270.1c-1.3-0.2-2.1,0.7-3.1,1.3c-2.6,1.7-5.2,3.3-8.2,4.2c-0.7-0.8,0-1.5,0.3-2.2
		c3.3-8.7,4.1-17.7,3.6-26.9c-0.2-4.9-0.9-9.7-2.2-14.5c-0.2-0.8-0.4-1.6-0.5-2.4c-0.1-1,0.4-1.6,1.3-1.6c1.6,0,3.3-0.1,4.9,0.1
		c9.6,0.9,19.1,1.9,28.4,4.4c1.4,0.4,2.8,0.7,4.1,1.7c-5.7,7.8-9.9,16.5-16.4,23.6c-3.5,3.9-7.2,7.5-11.4,10.7
		C468.6,269,468.2,269.5,468.3,270.1C468.2,270.2,468.3,270.1,468.3,270.1z"/>
	<path class="st27" d="M368.1,360.4c0-7.5,0-15,0-22.4c0.4-0.4,0.7-0.3,0.8,0.3c0.6,6.5,0.4,13,0.1,19.5
		C368.9,358.7,369,359.7,368.1,360.4z"/>
	<path class="st27" d="M353.1,368.4c1.9,0,3.8,0,5.7,0C356.9,369.7,355,369.7,353.1,368.4z"/>
	<path class="st27" d="M361.3,367.4c0.4-0.7,1-1,1.8-1.1C362.7,367,362.1,367.4,361.3,367.4z"/>
	<path class="st27" d="M359.3,368.3c0.5-0.6,1.2-0.9,2-0.9C360.9,368.3,360.1,368.4,359.3,368.3z"/>
	<path class="st43" d="M369,335.8c0.1-0.3,0.2-0.6,0.3-0.9C369.8,335.5,369.7,335.8,369,335.8z"/>
	<path class="st43" d="M368.9,338.2c-0.3,0-0.5-0.1-0.8-0.3c0-0.3,0-0.7,0-1C368.6,337.2,368.9,337.6,368.9,338.2z"/>
	<path class="st27" d="M367.2,361.7c0.3-0.4,0.5-0.8,0.8-1.3C368,361,367.7,361.4,367.2,361.7z"/>
	<path class="st27" d="M365.1,364.3c0.3-0.3,0.5-0.5,0.8-0.8C365.9,363.9,365.6,364.2,365.1,364.3z"/>
	<path class="st27" d="M364.2,365.3c0.3-0.3,0.6-0.6,0.9-0.9C364.9,364.9,364.7,365.2,364.2,365.3z"/>
	<path class="st27" d="M348.4,365.4c0.3,0.3,0.7,0.5,1,0.8C349.1,366,348.8,365.7,348.4,365.4z"/>
	<path class="st27" d="M363.2,366.2c0.3-0.3,0.6-0.6,0.9-0.9C364,365.9,363.7,366.2,363.2,366.2z"/>
	<path class="st27" d="M349.6,366.4c0.3,0.2,0.5,0.5,0.8,0.7C349.9,367.1,349.7,366.8,349.6,366.4z"/>
	<path class="st27" d="M351,367.5c0.5,0.2,0.9,0.4,1.4,0.7C351.8,368.2,351.3,368,351,367.5z"/>
	<path class="st46" d="M372.1,334.9c-0.5-5-0.8-10-1.9-14.9c-0.1-0.5-0.1-1-0.1-1.5c0-1.2,0.5-1.8,1.6-2c0.3,0,0.6-0.1,1-0.1
		c4.4,0.1,8.8,0.1,13.1,0.2c0.7,0,1.4,0.2,1.5,0.9c0.1,0.4-0.2,0.9-0.5,1.3c-0.9,1-1.8,1.8-2.7,2.8c-2.1,2.3-4.2,4.5-6,7
		C376.4,331,374.4,333,372.1,334.9L372.1,334.9z"/>
</g>
</svg>
