<?xml version="1.0" encoding="utf-8"?>
<!-- Generator: Adobe Illustrator 27.4.0, SVG Export Plug-In . SVG Version: 6.00 Build 0)  -->
<svg version="1.1" id="Layer_1" xmlns="http://www.w3.org/2000/svg" xmlns:xlink="http://www.w3.org/1999/xlink" x="0px" y="0px"
	 viewBox="0 0 720 720" style="enable-background:new 0 0 720 720;" xml:space="preserve">
<style type="text/css">
	.st0{fill:#7D69A8;}
	.st1{fill:#A99BCE;}
	.st2{fill:#FBF3DA;}
	.st3{fill:#C3D7CE;}
	.st4{fill:#E5A192;}
	.st5{fill:#8A7F8E;}
	.st6{fill:#FC6571;}
	.st7{fill:#E95F83;}
	.st8{fill:#D4CBB6;}
	.st9{fill:#E24336;}
	.st10{fill:#F3BE56;}
	.st11{fill:#DFD8BE;}
	.st12{fill:#FAE7CC;}
	.st13{fill:#E2A390;}
	.st14{fill:#FBF3D9;}
	.st15{fill:#7D748D;}
	.st16{fill:#B73B53;}
	.st17{fill:#B7B0AC;}
	.st18{fill:#FBD2A3;}
	.st19{fill:#7B7289;}
	.st20{fill:#FCF4D9;}
	.st21{fill:#A2AFB4;}
	.st22{fill:#F7DFC0;}
	.st23{fill:#E8DCBF;}
	.st24{fill:#FAE1BB;}
	.st25{fill:#BDD4CB;}
	.st26{fill:#FDF6DD;}
	.st27{fill:#FCF4DA;}
	.st28{fill:#F9E5C0;}
	.st29{fill:#F9D399;}
	.st30{fill:#F5D78C;}
	.st31{fill:#030219;}
	.st32{fill:#DA587D;}
	.st33{fill:#69B0B7;}
	.st34{fill:#F69B97;}
	.st35{fill:#D2A6A2;}
	.st36{fill:#FEC753;}
	.st37{fill:#F5BE99;}
	.st38{fill:#93C5C4;}
	.st39{fill:#A49999;}
	.st40{fill:#ABB7B1;}
	.st41{fill:#C5A463;}
	.st42{fill:#E7A188;}
	.st43{fill:#D0C4B1;}
	.st44{fill:#ADB5AF;}
	.st45{fill:#C0D4CA;}
	.st46{fill:#EAAB95;}
	.st47{fill:#67ADB3;}
	.st48{fill:#EAE3E9;}
	.st49{fill:#DDE1E6;}
	.st50{fill:#8D969E;}
</style>
<rect x="1.1" y="0.6" class="st0" width="720" height="720"/>
<circle class="st1" cx="139.4" cy="156.7" r="116.1"/>
<path class="st2" d="M361.4,115.1c2.8,0,5.6-0.3,8,1.7c1.3,1,1.6,2.5,1.4,4c-0.5,4.5-0.4,9.3-2,13.5c-3.2,8.4-3.4,17-3.4,25.7
	c0.1,14.1-0.2,28.2,0.2,42.2c0.1,5.6,0.9,6.3,6.3,5.7c4.9-0.5,7.2,1.3,7.9,6.3c0.5,4,0.7,8,1.6,11.9c0.8,3.4,1.9,6.7,4.3,9.4
	c1.3,1.4,2,3.2,2.4,5c0.7,3.6,2.7,5.9,6,7.5c8,4,14.3,10.4,21.2,15.8c4.7,3.7,9.2,6.2,15.6,5.9c9.4-0.4,18.7-0.9,27.8-3.7
	c0.5-0.2,1-0.3,1.6-0.4c1.3-0.1,2.9-0.5,3.4,1.2c0.4,1.3-1,2.1-2.1,2.6c-5.5,2.7-11.5,3.5-17.5,4.2c-6.1,0.7-12.1,0.9-18.3,1.2
	c1.4,1.7,3.4,1.7,5.1,1.9c16.5,2.2,32.7,5.9,49,9.1c1.9,0.4,4.1,0.5,5,2.8c-1.5,2.3-3.8,1.7-5.8,1.3c-12.9-2.3-25.8-5-38.7-7.1
	c-3.3-0.5-6.6-1-9.9-1.4c-0.8-0.1-1.9-0.7-2.3,0.7c-0.8,2.6,2.2,9.3,4.8,10.5c12.9,6,26.8,9.4,39.6,15.5c4.6,2.2,9.3,4.2,14,6.1
	c2.6,1.8,5.8,2.2,8.4,3.9c1,0.7,2.4,1.3,1.9,2.7c-0.5,1.5-2.2,1.3-3.5,1c-4.1-1-7.6-3.2-11.4-4.9c-1.5-0.6-2.9-1.4-4.5-1.8
	c-3.7-0.6-6.7-2.7-9.9-4.3c-4.2-1.9-8.4-3.5-12.9-4.6c-5.6-2-11.2-4.1-16.8-6.3c-1.5-0.2-2.8-0.9-4.2-1.3c-1.3-0.4-2.9-1.4-3.7,0.6
	c-0.8,1.8-1.1,3.7,1.1,4.9c3.2,1.8,6.6,3.4,9.7,5.3c1.3,0.4,2.3,1.2,3.5,1.8c1.8,1.3,3.9,2.2,5.9,3.1c5.1,2.9,10.3,5.8,15.2,9.1
	c6.2,3.3,11.3,8.1,16.8,12.4c0.9,0.7,1.9,1.5,2.6,2.5c0.5,0.8,0.9,1.7,0.3,2.6c-0.7,0.9-1.6,0.8-2.6,0.5c-1.5-0.4-2.5-1.5-3.7-2.4
	c-14.7-11.8-31.2-20.9-48.1-29.1c-2.1-1-3.7-1.1-5,1.3c-1.3,2.3-2,4.2,0.8,6.1c7.4,5.2,14.3,10.9,20.6,17.3c1.4,1.5,4,3.3,2.2,5.2
	c-1.6,1.7-3.6-0.8-5-2c-6.7-5.4-12.9-11.4-20.1-16c-3.1-2-5.6-2-8.8-0.1c-8.8,5.2-17.9,5.9-26.9,0c-1.7-1.1-3.2-2.4-4.1-4.3
	c-2.4-4.9-6.5-7.6-11.7-8.9c-10.1-2.6-15.6-9.6-15.6-20c0-1.9-0.3-3.7-0.1-5.6c0-2.1,1.3-3.4,2.6-4.8c0.8-0.9,2-1.5,2.5-2.6
	c1.9-4.3,5.2-6.6,9.9-7.2c0.9-0.1,1.8-0.6,2.6-1.1c2.9-1.8,3-3,0.4-5.1c-3.1-2.5-6.5-4.1-10.6-4.2c-5.2,0-10.4,0-15.7,0
	c-3.8,0-6.9,1.7-9.9,4c-1.9,1.4-1.8,2.7,0,4.2c1.5,1.3,3.3,1.7,5.2,1.8c2.8,0.2,4.8,1.6,6,4c1.2,2.3,2.8,4.2,4.5,6.1
	c1.3,1.4,2.5,2.8,2.5,4.9c1.4,14.1-5.4,23.2-17.6,29c-3.7,1.8-7,3.9-10,6.7c-6.5,6-13.8,9.2-22.8,5.7c-5.8-2.3-11.2-1.9-16.2,2.1
	c-0.7,0.6-1.6,0.9-2.5,1.2c-0.9,0.3-1.9,0.5-2.6-0.4c-0.7-0.9-0.4-1.8,0.1-2.6c1.1-1.9,2.7-3.3,4.2-4.8c2.1-2,1.9-3.9,0.1-5.9
	c-1.8-2.1-2.7-5.6-6.8-3.7c-5.1,2.3-10.1,5-15,7.7c-7.4,4.2-14.4,8.9-21.3,13.7c-4.6,3.2-4.5,3.6,0.2,7c1.4,1,3,1.9,4.6,2.4
	c3.6,1.1,5.8,3.6,7.7,6.7c1.7,2.8,1.2,5-1.3,7c-2.2,1.8-4.7,3.1-7,4.8c-1,0.7-2.1,1.5-1.3,2.9c0.6,1.1,1.8,1.4,2.8,1
	c12.9-4.9,25.5,0.3,38.2,0.9c1.9,0.1,3.8,0.6,5.6,0.2c7.6-1.6,15.2-0.6,22.9-0.6c9.1,0.1,16.9,4.9,25.4,7.2c0.8,0.2,1.5,0.6,2.2,1
	c7.1,4.1,13.8,4.3,21-0.6c6.8-4.7,14.5-6.4,22.9-2.8c5,2.2,6.2,3.4,4.6,8.7c-1.1,3.8-1.4,7.6-1.7,11.5c-0.2,2.9,0.8,3.8,3.6,3.9
	c6.3,0.1,12.6-0.7,18.8-1.3c6.1-0.5,8.4,1,9.6,6.9c1,5.3,2,5.9,7.3,5.4c5.9-0.6,11.7-1.6,17.3-3.6c1.7-0.6,3-1,2.5-3.3
	c-1-5.2,1.4-7.7,6.7-6.9c1.9,0.3,2.8,0.3,3.2-1.8c0.2-1,1.5-1.4,2.5-1.9c17.8-7.9,32.7-19.7,45.2-34.6c5.7-6.8,11.4-13.5,15-21.8
	c0.4-1,1.5-1.5,2.2-2.3c4.4-4.4,4-8.6-1.5-11.6c-3.3-1.8-6.4-3.9-9-6.7c-0.8-0.9-1.9-1.8-1.4-3.1c0.5-1.5,2-1,3.1-1.1
	c0.5,0,1.1,0.2,1.6,0c2-0.4,4.5-1.1,4.8-3c0.3-2.2-2.5-1.8-4-2.4c-2.4-1-4.9-1.2-7.4-2c-7.9-2.2-15.9-4.2-23.9-6
	c-1.9-0.4-4.1-0.4-4.8-2.8c1.4-1.8,3.3-1.5,5.1-1.1c4.2,0.7,8.5,1.4,12.5,2.8c7.4,2.4,15.3,2.4,22.8,4.3c3.4,0.9,4.8-0.8,3.8-4.3
	c-2-6.6-1.2-12.9,1.4-19.2c0.9-2.1,1.1-4.4,1.5-6.6c0.3-1.8,0.3-4.2,3.2-4.3c1.5,1.1,1.9,2.8,2.4,4.5c3.2,10.6,5.5,21.4,7.6,32.3
	c1.8,9.3,2.7,18.8,5.3,28c0.7,2.4,1.6,4.9,0.4,7.4c-1.1,1.4-2.4,0.6-3.7,0.5c-2-0.1-3.6,0.9-4.7,2.5c-1.1,1.6,0.2,2.7,1.1,3.9
	c1.9,2.4,2,5,0.7,7.5c-1.7,3.5-0.6,6.1,2.1,8.5c1,0.9,2,1.7,2.9,2.8c1.2,1.5,1.6,3.1,0.5,4.8c-1,1.5-2.6,1.8-4.3,1.3
	c-3.5-0.9-6.7-2.8-10.1-3.7c-1.9-0.1-3.3-2.1-5.4-1.3c-6,4.7-9.3,11.7-14.6,17.1c-1.1,1.1-0.5,2.5-0.4,3.8c0.3,2.8-0.5,4.6-3.8,3.7
	c-1.9-0.6-2.9,0.1-3.2,1.9c-0.7,3.3-2.6,5.9-4.9,8.1c-2.2,2.1-2.1,4.1-0.3,5.9c3.1,3,3.1,6.2,1.6,9.9c-2,5.1,0.6,8.2,6.1,7.4
	c0.9-0.1,1.9-0.1,2.8-0.3c4.9-0.8,6.9,0.2,8.8,4.6c5.1-4.2,10.6-5.9,17.3-3.9c3.2,1,5.5-2.1,7.7-4.2c1.5-1.5,2.5-3.5,4.3-4.8
	c1.1-0.9,2.3-1.8,3.8-1.1c1.5,2,0,3.6-1,5c-8.2,11.7-17,22.9-28,32.2c-5,4.2-9.9,8.5-15.3,12.3c-1.3,0.9-2.3,2.4-4.2,1.5
	c-1.4-2.3,0.4-3.8,1.3-5.4c-0.8-5.1-0.9-10.3-1.6-15.6c-1.9,6.7-9.8,8-11.9,14.5c-0.8,2.4-3.9,2.1-5.8,3c-4,1.8-8.6,1.5-12.9,0.7
	c-2.2-0.4-2.5-2.7-1.7-4.7c1-2.3,1.7-4.8,3.4-6.8c0.7-0.9,1.9-1.9,1-3.2c-0.7-1-2-0.4-3-0.4c-10,0.2-19.9,2.3-29.9,2.3
	c-7,0-15.8-8.4-16.2-15.4c-0.2-3.6,2.2-6.3,5.7-7.1c5.4-1.3,10.9-2.4,15.5-6.1c2.4-1.9,5.4-0.8,8.1-1.6c6.9-2,14.2-2.6,21.2-0.6
	c3.5,1,5.9-0.7,8.5-2.3c1-0.6,0.7-1.5,0.2-2.5c-2.7-5.7-2.7-6,2-10.3c-3.7,2.4-7.4,4-12.1,2.8c-2.1-0.6-4.4,1.6-6.3,3.2
	c-1.7,1.3-3.5,2.5-5.4,3.6c-5.3,3.6-11.2,5.9-17.4,7.2c-0.7,0.4-1.4,0.8-2.1,1.4c-5.1,3.2-7.7,3.1-11.8-0.8
	c-1.4-1.3-2.9-1.8-4.7-1.7c-10.4,0.6-20.8,1.3-30.6,5.3c-2.9,1.2-5.8,0.8-8.7-0.2c-5.5-1.9-11.1-2.8-17-2.4
	c-3.2,0.2-6.4-0.1-9.6-0.7c-7.7-0.6-15.3-2.1-22.8-4c-1.3-0.3-2.5-1-3.3-2.1c-1.8-3.4,0.2-5.8,2.4-8.5c-1.6-1-3.4-1.2-5-1.2
	c-16.9,0.2-33.2-3.3-49.7-6.2c-4.4-0.8-8.1-1.8-11.6-4.6c-2.3-1.9-5.5-2-8.4-2.3c-6.5-0.7-13-0.8-19.5-1.8c-2-0.3-3.8,1.2-6.7,2.1
	c7.3,4,12,10.6,20.2,11.9c4.6,0.7,6.8,5.3,5.7,10.8c-0.4,2-0.7,3.8,1.3,4.9c2.1,1.1,3.2-0.6,4.4-1.7c5.2-4.5,11.6-2.4,13,4.4
	c0.4,1.9,1.3,3,2.8,4c2.8,2,6.1,4.4,5.4,8.3c-0.8,4.2-5,4.3-8.4,4.8c-4.3,0.6-8.6,1.1-12.1-2.4c-1-1-2.4-0.9-3.8-1
	c-2.8-0.2-5.1,2-7.8,1.5c-2.5-0.5-4.8-1.6-7.7-1.1c0.4,4.8,2.6,8.5,7.2,10c8.7,2.8,16.4,7.7,25,10.9c5.9,2.2,12,3.9,17.9,6.1
	c3,1.1,5.4,2.9,7.6,5.2c2.7,2.9,3.2,6,1.1,9.5c-3.2,5.6-1.4,9.7,4.7,11.2c2.3,0.6,3.5,1.6,3.2,4.2c-0.4,3.1,1.4,5.1,4.1,6.1
	c5.5,2,11.6,2.2,16.9,5c0.4,0.2,0.8,0.3,1.2,0.2c7.3-3,13.6,1.1,20.2,2.7c3.4,0.8,6.7,1.9,10.2,2c3.5,0.1,6.8,1.2,9.8,3.1
	c6.9,4.3,14.3,6.5,22.6,5.1c2.2-0.4,3.1-1.2,3.1-3.2c0-2,0.4-4,0.9-6c2.1-8.5,7.8-12,16.6-12.1c11.2-0.1,22.5-1.1,33.1-5.4
	c2.8-1.1,6.1-1.1,8.3-3.6c7.1-5.6,15.1-9.8,23.2-13.6c0.9-0.1,1.6,0,2.3,0.6c0.6,2.7-1.8,3.3-3.3,4.4
	c-18.7,14.5-40.7,21.8-62.8,29.1c-1,0.3-2.1,0.5-3.1,0.9c-0.4,0.2-0.7,0.3-1.2,0.9c1.8,2.6,5,3.2,7.5,4.6c1.4,0.8,3.7,1,3.5,3.3
	c-0.3,2.3-2.5,2.6-4.4,2.8c-6.7,0.6-13.4,0.9-20,1.5c-1.7-0.4-3.3,0-4.8,0.6c-0.6,0.2-1.3,0.2-1.9,0.2c-0.8-0.1-1.6,0.1-2.4,0.2
	c-3.6,0.5-7,1.1-10.7-1.2c-3.9-2.3-8.9-1.6-13.4-1.9c-4.9-0.3-9.9-0.3-14.9,0c-13.6,0.6-27-1.5-40.5-2.9c-3.8-0.4-7.5-0.3-11.2-0.4
	c-5.2-0.1-9.3-2.4-12.5-6.3c-2.6-3.2-1.9-5.2,1.9-6.7c2.1-0.8,4.5-0.9,6.8-2.6c-3.7-2.1-7.4-3.4-11.1-4.6
	c-6.5-2.2-12.1-5.8-17.4-9.9c-1.7-1.3-3.7-2.8-2.6-5.3c1-2.4,3.4-2.1,5.6-2.1c7.4,0.1,14.7,0.3,21.8-2.3c1.1-0.4,2.3-0.8,3.3-1.5
	c0.7-0.4,1.6-0.7,1.5-1.7c-0.1-0.9-1-1.2-1.8-1.4c-6-2-11.9-4.5-18.1-5.4c-7.8-1.2-14.8-3.8-20.3-9.6c-3.2-3.3-7.9-3.8-11.8-5.8
	c-4.9-2.5-9.9-4.8-14.6-7.6c-2.9-1.7-4-1.2-3.9,2.2c0.3,7.6-1.8,14.9-2,22.4c-0.2,8.2-5.3,14.1-12.1,15.6c-1.5,0.2-2.9-0.3-4.3-0.9
	c-13.4-5.9-26.7-11.9-38.8-20.2c-18.5-12.7-32.1-29.3-39.8-50.5c-1.4-3.8-2.8-7.5-5.6-10.5c-1.2-5.7,0.4-11.2,1.4-16.6
	c2.8-15.5,6.2-30.8,9.9-46.1c0.3-1.3,0.7-2.6,1.8-3.5c3.9-0.7,2.7,2.3,2.3,3.8c-2.7,11.6-4.1,23.5-7,35.1c-0.7,2.8-1,5.5,0,8.3
	c0.7,1.9,0.3,3.7-0.5,5.5c-1.1,2.2-0.3,3.6,2,4.3c4.4,1.3,7.5,4.1,10.4,7.8c2.4,3.1,5.8,5.6,10.4,4.5c1.7-0.4,3.3,0,4.4,1.3
	c3.4,3.9,6.8,2.8,10.2,0.1c2.2-1.8,4.2-1.9,6,0.2c2.7,3.2,5.9,2.7,9.1,1.6c5.5-1.9,7-1,7.6,4.6c0.4,3.5,1.7,6.8,3.7,9.6
	c2.9,4,6.1,7.8,9,11.8c2.8,3.8,5.1,3.6,7.7-0.4c1.6-2.5,3.6-4.3,6.7-4.7c2.1-0.2,2.7-1.4,2.7-3.3c0-5.2,0.4-10.5-0.4-15.7
	c-0.8-5.6-1.1-11.1,1.9-16.4c1.1-2,0.5-4.5,0.1-6.7c-0.2-1.2-0.9-1.6-2-1.3c-4,0.8-4.2-1.5-3.7-4.5c0.7-3.7-4.3-8.9-8-8.4
	c-3.9,0.6-4.9-0.1-4.7-4.1c0.2-2.5-0.2-4-2.9-4.7c-2.4-0.7-2.5-1.2-4.7-5c-1.6,1.5-3,3.1-4.9,4c-1.4,0.7-2.8,1.1-4.2,0
	c-1.4-1.1-1.3-2.5-1-4c0.7-2.9,2.7-4.9,5.2-6.8c-7.2,4.9-10.5,3.9-13.7-4.3c-0.5-1.2-0.8-2.6-1.1-3.9c-2-9.2-5.7-17.5-12-24.6
	c-2.9-3.3-7.3-3.8-10.4-0.7c-1.8,1.8-3.4,3.7-4.3,6.2c-1.1,3.2-2.8,5.8-6.8,5.8c-2.4,0-3.3,3.9-6.3,2.6c-1.2-1.6-0.5-3.5-0.7-5.3
	c2-6.1,2.7-12.6,4.1-18.9c0.2-0.8,0.6-1.8,0-2.3c-3.1-2.5-1.1-3.9,0.9-5.4c1.1-0.8,1.2-2.3,1.6-3.6c1.2-4.4,2.1-8.9,3.3-13.3
	c1.8-6.1,2.8-12.4,6.7-17.7c2.8-0.7,3.4,1.7,4.2,3.4c3.3,6.9,7.6,13.2,12.7,19c1.8,2.1,3.5,4.4,6.6,4.9c0.7,0.1,1.4,0.5,1.6,1.1
	c2.3,6.4,8.3,9.3,12.9,13.3c3.7,3.1,7.9,5.5,11.3,9.1c1.5,1.6,3.2,1.6,5.1,0.8c19.5-8.4,39.4-15.6,59.8-21.5
	c4.5-1.3,6.6-4.6,6.7-9.3c0.1-2.5-1.6-2.1-3-1.9c-8.3,0.7-16.5,1.7-24.8,2.7c-18,2.2-35.9,4.1-53.8,7.3c-1.9,0.3-4.8,1-5.2-1.4
	c-0.4-2.3,2.6-2.7,4.5-3c17.9-2.7,35.7-5.6,53.7-7.9c8.9-1.1,17.8-2.5,26.7-3.4c2.5-0.2,4.3-1.2,5.7-3.7c2.3-3.9,6.6-6.1,9.4-9.8
	c3.7-4.9,7.3-9.9,11.8-14.2c3.1-3,3.5-7.5,5.8-11c3.6-1.2,3.7-3.5,2.3-6.5c-1.7-3.7-1.7-8-4.3-11.5c-5.2-7-12.6-8.6-20.5-9.3
	c-1.9-0.2-4.1,0.4-5.4-1.8c1.2-3.7,4.3-3.2,7-3.1c4.2,0.1,8.3,0.2,12.4,0.1c4.1-0.1,5.1-1,5.7-5.1c0.3-1.7,0.5-3.4,1-5.1
	c0.9-2.8,2.7-4.5,5.7-4.9c6.2-0.9,6.1-1,7.3-7.6c-0.1-3.2,0.7-6.1,2.3-8.8c1.4-2.4,3.2-2.3,4.4,0.2c0.8,1.6,0.9,3.3,1.1,5.1
	c0.5,3.9,3.6,2.8,5.9,2.9c2.3,0.2,4.4-0.2,4.4-3.2c0.2-13.5,0.4-27-1.9-40.4c-0.7-3.8-3.6-6.8-4-10.8c-0.3-3.2-0.7-6.4-0.1-9.6
	c0.2-0.4,0.5-0.8,0.9-1c1.6-0.5,3.1-1,4.7-1.4C349.4,113.2,355.4,113.9,361.4,115.1z"/>
<path class="st3" d="M534.3,260.8c-1.5,5.8-2.2,11.8-5,17.2c-1.1,2,0.5,3.2,3,4.2c-5,1.7-4.2,4-2.4,7.2c1,1.7,1.9,4.5,0.3,6.4
	c-1.6,1.9-4.1,1.3-6.4,0.9c-13.3-1.7-26-6-39.3-7.7l0,0c-8.2-2.8-16.9-3.7-25.4-5.6c-11-2.4-22-4.2-33.1-5.7
	c-2.6-0.4-3.6-2.1-3.3-4.2c0.4-2.5,2.3-0.8,3.6-0.7c11.1,0.2,22.2-0.3,32.9-4c1.2-0.4,2.4-1.1,3.5-2c-4.7,1.1-9.4,2.6-14.2,3.2
	c-8.1,1.1-16.3,1.5-24.4,1.1c-3.9-0.2-6.2-3.5-9.1-5.6c-8-5.8-14.9-13.1-24-17.4c-1.1-0.5-2.5-1.1-2.7-2.2
	c-1.1-7.1-7.1-12.1-8.5-19.1c-0.8-4.2-1.4-8.4-1.6-12.7c-0.2-4.5-1.8-5.7-6.1-4.9c-7.3,1.3-8,0.6-8.1-7.7
	c-0.1-14.8-0.1-29.5-0.3-44.3c-0.1-5.3,0.7-10.4,1-15.6c0.3-4.5,3.5-8.3,3.5-13.1c0-4,1.4-7.9,1.1-11.9c2.6-0.5,5.1,0.3,7.5,0.8
	c7.5,1.5,14.9-0.3,22.3-0.2c3.3,0,6.7-1.6,10-2.5c14.5-4,28.2-9.8,41.4-16.8c0.6-0.3,1.2-0.7,1.8-1c5.1-2.6,5.5-2.6,9.2,1.1
	c1.1-4,3-5.7,6-5.6c2.7,0,3.6,1.5,2.4,3.9c-0.7,1.4-2.1,2.5-2.2,4.2c0.1,2.4-2,3-3.5,4c-9.7,6.4-19.3,13.2-28.9,19.7
	c-2.3,1.5-5.7,3-5.2,6c0.4,2.8,3.9,3.3,6.4,4.1c19.8,6.9,35.8,19.1,49.4,34.7c0.3,0.3,0.5,0.6,0.8,0.9c2.8,3.2,3.5,3.1,4.8-1.1
	c6-19.8,10.7-39.8,12.8-60.5c0.5-4.6,0.4-9.1-0.3-13.6c-0.7-4.4-2.3-5.6-6.7-5.8c-2.3-0.1-4.8,1.2-7-0.5c-1.8-1.9-3.5-0.1-5.2,0.1
	c-0.7,0.1-1.4,0.1-1.6-0.7c-0.2-0.8,0.2-1.4,0.9-1.6c5.6-1.1,10.7-4.5,16.9-3c5.3,1.3,7.9,4.6,9,9.5c1.8,7.6,0.6,15.2-0.3,22.7
	c-2.3,18.1-8,35.7-10.4,53.8c-1.4,10.6-0.4,21.2,6.6,30.4c9,11.7,14.5,25.2,20.2,38.6c0.7,1.6,1.2,3.3,2.4,4.6
	c3.8,2.8,3.7,7.4,5.1,11.3C534.7,256.3,536,258.6,534.3,260.8z"/>
<path class="st4" d="M490.3,88.6c2.5-0.6,4.9-1.1,7.5-1c5.2,0.1,7.1,2.2,7.9,7.5c1.2,8.2,0.3,16.3-1.1,24.3
	c-2.9,17.3-6.4,34.4-11.9,51.1c-1.9,5.8-2.3,6-6.3,1.4c-6.6-7.5-13.3-14.7-21.4-20.5c-9-6.5-18.4-12.5-29.2-15.7
	c-3.1-0.9-7.4-1.7-7.9-5.3c-0.5-3.6,3.6-5.3,6.3-7.1c11.2-7.6,22.4-15.1,33.6-22.7C475,96.1,482.2,91.6,490.3,88.6z"/>
<path class="st5" d="M165.2,720.7c-1.8-0.5-3.6-1.1-5.4-1.6c-2.5-0.7-4.7-1.7-6.2-4c-1.5-2.3-4.1-2.3-6.5-2.5
	c-6.3-0.7-12.6,0.3-18.8-0.1c-2.7-0.1-5.4-0.3-6.7-3.4c-9.7-9.5-19.5-18.9-27.7-29.9c-1.8-2.5-3.4-5.1-4.9-7.8
	c1-2.6,3.3-2.4,5.4-2.4c10.4,0.3,20.9-0.4,31.3,0.7c8.6,0.9,17.1-0.8,25.7-0.7c5.2,0.1,10.4,0.8,15.6,1.2c1.4,0.3,1.9,1.7,3.3,2.5
	c0.6-2.6-0.7-5.1-0.2-7.5c0.2-0.4,0.4-0.7,0.7-1c2.6-2.2,5.3-3.7,8.7-1.7c2.8,1.7,3.5,4.5,2.5,8.9c-1.7,7.1-0.9,7.8,6.5,7.4
	c2.2-0.1,3.5-1.9,5.5-2.2c3.9,1.2,4.8,4.8,6.1,7.9c3.4,7.5,6.9,14.9,12.1,21.2c2.2,2.7,3.6,5.6,4.8,8.7c0.8,2.1,0.8,4.1,0.1,6.1"/>
<path class="st6" d="M45.9,565.1c-1.2-10.2-2.2-20.4-1.8-30.7c0.2-4.3,0.7-8.5,1.7-12.6c2.2-0.2,2.8,1.7,3.8,3
	c2.6,3.7,4.9,7.6,8,11.1c7.7,8.6,16.9,14.8,28.1,17.9c3.6,1,7.1,2.5,10.6,3.7c2.2,0.7,3.1,0.1,2.3-2.3c-0.4-1-0.8-2-1.1-3
	c-0.7-2.4,0-4.2,2.4-5.2c3.9-1.7,8-3.2,8.9-8.3c0.3-1.5,2.2-2.2,3.6-1.9c5.4,0.8,10.7,0.1,16-0.6c0.8-0.1,1.6,0.2,2.3,0.6
	c3.5,4.5,4.3,10,6.1,15.2c1.8,5.2,3.3,10.5,5.9,15.3c6.4,10.8,12.1,22,17.7,33.2c1.1,2.2,2.6,4.5,0.7,7.1c-4,2.9-8.8,2.5-13.1,2.6
	c-8.8,0.2-17.6,1.3-26.4,1.1c-1.7-0.1-3.5,0.1-5.1-0.8c-0.9-0.6-1.3-1.5-0.8-2.4c1.6-3.4,1-7,0.8-10.5c-0.1-2.5-1-3.1-3.1-3.5
	c-7.7-1.4-15.1-3.7-21.9-7.7c-8.1-4.8-17.1-3.9-25.8-4.7c-4-0.4-8-0.8-12-1c-1.8-0.1-3.3-0.9-4.6-2.2
	C47.1,574,47.5,569.3,45.9,565.1z"/>
<path class="st7" d="M168.3,671.5c-12.6-1-25.1-0.3-37.7-0.2c-12.3,0.1-24.6-0.4-36.9-0.5c-1.6,0-3.2-0.4-4.7,0.7
	c-13.3-16.8-23.5-35.4-30.7-55.6c-1.6-4.4-2.9-8.9-3.8-13.5c1.8-2.1,4-1.1,6-0.7c12.7,2.6,25.7,3.9,38.5,6.2
	c2.8,0.5,5.6,0.4,8.3-0.5c1.2,0.1,2.1,0.8,2.9,1.7c2.2,3.1,3.4,6.6,4.5,10.2c1.4,4.9,0.4,6.9-4.5,8.5c-1.8,0.6-3.2,1.2-3.7,3.2
	c-0.5,1.7-0.4,3,1.3,4.1c3.7,2.3,7.4,4.3,11.9,4.6c3.6,0.2,7,1.6,10.7,1.4c2-0.1,3.5,1.2,4.4,3c0.3,0.6,0.7,1.2,0.8,1.8
	c2.3,11.9,11.8,13.1,21.2,14.3c3.7,0.5,7.5-0.2,11.2,0.3c3.1,0.4,3.6,1.4,2.6,4.5l0,0C169.6,667.1,172.2,670.4,168.3,671.5z"/>
<path class="st8" d="M103.4,720.5c3.2-4.9,8.1-8.8,14.4-10.2c1.3-0.3,2.7-0.1,3.7-1.2c5.7,3.2,11.8,1.3,17.7,1.5
	c3.9,0.1,7.7,0.1,11.6,0.8c2.3,0.4,4.1,1.1,4.6,3.7c0.3,1.7,1.9,1.8,3.1,2.1c3.3,0.9,6.5,1.8,9.8,2.8"/>
<path class="st9" d="M107.9,608c-3.3,3.6-7.3,1.8-10.8,1.2c-13.5-2.5-27.2-3.4-40.5-6.8c-0.6-0.2-1.3,0-2,0
	c-3.2-6-3.3-12.7-4.6-19.1c-0.3-1.7-0.5-3.4-0.7-5.1c9.6,1.4,19.3,2.1,29,2.4c3.7,0.1,7.2,0.9,10.4,2.6c8.9,4.7,18.1,8.5,28.2,9.8
	c0.8,0.1,1.5,0.5,2.6,0.9c-2,2.4-2.2,4.5-0.9,7.3c1.3,3-0.8,5.9-2.8,8.2c-0.8,1.3-2,1.3-3.3,1.1C110.6,610.1,109.9,607.8,107.9,608z
	"/>
<path class="st10" d="M611.1,616.9c-1.8-0.5-3.4,1-5.1,0.2c-2.2-1.1-0.2-2.9-0.7-4.2c-0.5-0.4-1.1-0.4-1.6-0.2
	c-7.6,2.4-15.6,2.2-23.3,3.9c-6.3,1.4-8.2-0.6-6.3-6.6c0.9-2.8,0.4-4.4-2.8-4.7c-2.9-0.3-5.2-1.5-6-4.5c-0.6-2.2,2-4.3,0.8-6
	c-1.1-1.7-3.7,0-5.6-0.5c-1.7-0.5-3.2-1.2-3.7-3.1c0-5.6,2-10.7,3.2-16c3.1-13.7,5.4-27.5,7.2-41.4c0.9-7,1.2-14.1,2.9-20.9
	c0.2-0.9-0.2-1.8-0.3-2.8c0.3-8.4-0.5-16.8,0.5-25.2c0.1-0.7,0-1.3,0.2-2c0.8-2.1,2.8-2.7,4.7-3.5c14.1-6.4,25.4-16.2,34.2-29
	c1-1.4,1.8-3.1,4-2.8c5,13.9,9.2,28.1,10.1,42.8c1.2,19.1,4.3,38.2,2.8,57.5c-0.3,3.9-1,7.7-1.5,11.5"/>
<path class="st11" d="M719.3,649.9c-7.6,8.9-15,18-23.6,25.9c-7.9,7.2-16.6,13.6-26.4,18.1c-7.7,3.5-15.5,6.6-23.6,9
	c-1.9,0.6-3.9,1.4-5.6-0.4c-2.3-3.5-2.4-7.6-2.9-11.6c-1.1-7.9-1.8-15.9-3.2-23.8c-0.3-1.9-0.2-3.7,1.2-5.3c0.8-0.5,1.5-1.2,2.4-1.4
	c11.2-2.6,21-8.1,30.8-14c9.5-5.7,18-12.4,26-20c7.8-7.4,13.3-16.4,18-25.9c1-2,1.4-4.4,3.4-5.8c1.5-0.7,2.9-0.3,4.3,0.2"/>
<path class="st12" d="M613.4,447.4c-0.6,0.7-1.5,1.2-1.9,2c-6.6,11.4-16.5,19.5-27.2,26.7c-3.9,2.6-8.3,4.2-12.5,6.2
	c-3.1-3-2.1-7.1-2.5-10.6c-1.8-16.2-1.6-32.6-4.7-48.7c-0.2-1.1-0.2-2.1,0-3.2c1.7-4.2,5.6-6.3,8.7-9.2c4.1-3.8,8.3-7.6,11.9-11.9
	c1.4-1.7,2.6-3.9,5.4-3.4c1,1.7,1.6,3.7,3.4,4.8c3.8,7.3,7.5,14.7,11.4,21.9c3.8,7.1,5.9,14.9,7.9,22.6
	C613.7,445.5,613.4,446.5,613.4,447.4z"/>
<path class="st13" d="M719.3,596.4c-1.2-0.5-2.4-1.1-3.7-1.6c1.4-4.2,2.8-8.4,4.1-12.6"/>
<path class="st14" d="M396.6,720.2c0.2-1.4,0.2-2.9,0.2-4.4c-0.1-2.9,0.3-5.9,2.9-7.9c3.7-1.2,7.3-2.2,11.2-2.7
	c5.5-0.7,8.9-5.2,8.7-11.3c-0.4-10.8,3.1-10.5,11.1-10.7c6-0.1,11.7-0.6,17.1-3.3c1.2-0.6,2.6-0.9,3.9-0.4c8.9,3.5,18.2,3,27.5,2.6
	c4.3-0.2,8.9-0.9,12.8,1.9c0.8,1,0.7,2.1,0.3,3.1c-2.4,8.8-6.2,16.8-11.9,24c-2.2,2.8-3.2,5.6-2.6,8.8"/>
<path class="st15" d="M475.6,719.8c-0.9-3,0.4-5.8,1.9-7.5c6.3-7.4,10.4-15.7,13.3-24.8c0.1-0.2,0.3-0.5,0.4-0.7
	c2-1.8,4.4-1.6,6.8-1.7c13.8-0.4,27.8-0.2,41.1-3.7c13.8-3.6,27.6-7.6,40.9-13.1c2.3-0.9,4.7-2.3,7.3-0.9c1.4,1.4,0.4,2.7-0.3,4
	c-3.7,6.5-7.5,12.8-12.7,18.4c-5.1,5.5-8.2,12.5-13.5,17.9c-3.9,4-7.5,8.3-12.8,10.6c-2.1,0.1-3.4-1.3-5-2.3
	c-5.9-3.8-14.2-3.6-19.6,0.7c-1.8,1.4-3.6,2.6-5.6,3.6"/>
<path class="st16" d="M549,720.8c-0.7-1-1.3-2.1-0.7-3.4c8.5-6.6,15.2-14.8,21.4-23.7c6-8.5,13-16.3,17.8-25.6
	c0.2-2.1,1.1-3.3,3.5-2.6c5.9,0.1,11.8,0.2,17.6,0.3c1.4,0.9,1.6,2.4,1.7,3.9c1,12.1-1.1,23.8-4.4,35.3c-0.3,1-0.9,1.9-1.4,2.9
	c-1.5,1.7-3.6,2.2-5.8,2.2c-2.7,0-3.7,1.3-3.7,3.9c0,2,0.1,3.9,0.1,5.9"/>
<path class="st17" d="M514.4,720.2c2.9-1,5.5-2.5,7.8-4.7c5.4-5.1,16.7-5.2,22.7-0.3c1,0.8,1.8,2,3.3,2.1c0.8,0.9,1.5,1.7,2.1,2.6"
	/>
<path class="st18" d="M590.7,395.4c-2.7,2-4.6,4.8-6.8,7.2c-5.5,5.8-11.4,11.2-17.8,16c-2.4-1.7-2-4.5-2.5-6.9
	c-0.9-4.7-0.9-9.5-2-14.2c-0.3-0.6-0.4-1.3-0.5-1.9c-0.8-6.3-2.6-12.5-3.4-18.8c-0.1-0.4-0.2-0.8-0.2-1.2c0-1.3-0.6-2.4-0.8-3.7
	c0-0.4-0.1-0.9-0.1-1.3c-2.1-8-3.9-16-5.7-24.1c-0.5-2-1.4-4.2,0.6-6c13,18.1,28,34.8,39.3,54.2
	C590.8,394.9,590.8,395.1,590.7,395.4z"/>
<path class="st19" d="M292.5,721c-0.3-2.8-0.5-5.7-0.7-8.5c0-0.9-0.4-1.6-0.7-2.4c-0.3-1.1-0.9-2-0.9-3.2c1.9-5.6,0.8-11.1-1.1-16.4
	c-1.8-4.9-1.9-10.2-4-15.1c-1-2.3-1.6-5.2,0.5-7.2c2-2,4.7-1,6.9-0.3c11.3,3.7,22.9,6.4,34.5,9.3c21.7,5.4,43.7,7.8,66,7.2
	c9.7-0.3,10.1,0.5,8.7,10c-0.4,2.9-0.9,5.8,0,8.7c0.6,2,0.3,4-1.7,5.3c-1.5,3.3-2.3,6.7-1.5,10.4c0.1,0.4,0.1,0.9,0.1,1.4"/>
<path class="st19" d="M398.6,720.2c0,0.3,0,0.5-0.1,0.8"/>
<path class="st20" d="M215.8,719.8c0.7-1.3,0.5-2.4,0-3.7c-1.5-3.9-3.2-7.6-6-11c-5-6-8.1-13.1-11.3-20.2c-1.2-2.8-3-5.3-4.6-8
	c-4.1-3.2-5.4-8.1-7.1-12.7c-0.3-0.9,0.2-1.8,1-2.4c1.9-1,3.9-0.8,5.9-0.7c15.8,0.7,31.5,2.4,47.3,3.1c8.8,0.4,11.4,3.8,10.6,12.7
	c-0.9,9.5-2.8,18.8-3.3,28.3c-0.3,5,0.8,6.5,5.7,6.4c7.6-0.1,15.3,0.4,22.9-0.6c4.6-0.6,9.3,0.3,13.9-0.4c0.7,0.2,1.3,0.6,1.8,1.1
	c0.2,0.5,0.7,1,0.6,1.5c-0.3,2.4-0.2,4.7,0.2,7"/>
<path class="st21" d="M714.2,653.7c-6.7,7.6-13,15.7-20.5,22.4c-15.2,13.5-33.3,21.6-52.9,26.7c-0.2,0.2-0.4,0.3-0.6,0.5
	c-0.8,2.3-0.2,11.3,0.8,16.9c0.1,0,0.2,0,0.3,0c3.3,0,6.6-0.3,9.8-0.3c3.2-0.1,6.4,0.3,9.6,0c0.6-0.1,1.1,0,1.6,0.1
	c7.8-1.9,15.5-4.2,22.5-8.2c12.3-7,23.7-15.1,33-25.9c0.6-0.7,1.2-1.2,1.8-1.5l0-37.1C717.9,649.3,716.1,651.5,714.2,653.7z"/>
<path class="st22" d="M220.5,477.4c7.9-1.9,11.4-9,11.2-14.8c-0.3-7.9,2.3-15.6,1.9-23.6c-0.3-4.4,1.4-5,5.1-2.7
	c7.3,4.5,14.9,8.3,23.1,11.1c2,0.7,3.6,1.7,5,3.2c5.1,5.7,11.7,8,19.1,9.1c7.4,1.1,14.5,3.8,21.4,6.6c3.4,1.4,0.2,3.5-1.1,4.3
	c-4,2.5-8.6,4.2-13.3,4.2c-5,0-10.1,1.5-15.1,0.2c-1.2-0.3-3-0.5-3.6,1c-0.7,1.8,1.1,2.5,2.2,3.4c7.8,6.5,17,10,26.4,13.3
	c0.9,0.3,1.8,0.6,2.7,0.9c1,0.4,2.3,0.7,2.4,1.9c0.1,1.4-1.3,1.5-2.3,1.8c-2.8,0.9-5.6,1.7-8.5,2.4c-1.8,0.4-2.3,1-1,2.7
	c3.2,4.4,7.1,7.2,12.7,7c11.5-0.3,22.8,2.1,34.3,2.9c8.3,0.6,16.6,0.4,24.9,0.2c5.9-0.1,11.8,0.6,17.6,1c2,0.1,4.7,0,5.8,2.7
	c0.5,1.3,1.5,0.6,2.4,0.5c2.6-0.3,5.3-0.6,7.9-0.9c0.2,2.2-1.5,2.7-3,3c-8.4,1.8-16.2,5.5-24.6,7.3c-1.1,0.3-2.8,0.3-2.4,2
	c0.4,1.5,1.9,1.2,3.1,1c4.1-0.8,8.1-1.9,12.1-3c2.6-0.8,5.2-1.5,7.9-1.4c4.2,0,5.5,1.2,6.1,5.3c0.6,4.4,0.9,4.7,5.3,3.4
	c13.6-4,27.7-4.8,41.5-7.1c4.3-0.7,5.3,0.4,4.6,4.3c-4.3,4.6-10.1,7-15.5,9.9c-18.5,9.8-38.5,14.6-58.9,17.9c-2.5,0.4-6.5-0.2-6.5,3
	c0,2.1,4,1.7,6.3,1.9c16.9,1.8,34,1.4,50.8,4.1c0.9,0.1,1.9,0.2,2.8,0.5c1.9,1.2,4.2,1.7,6.1,3c3.8,2.6,3.7,5.6-0.6,7.5
	c-5.4,2.4-11.3,3.5-17,5c-4.1,1.2-8.3,2.4-12.4,3.3c-6.5,1.5-11.2,5.7-15,10.8c-2.1,2.8-4.3,5.4-7.2,7.9c6.9-1.8,13.4-4.2,19.9-6.3
	c6.9-2.1,13.8,2,15.4,9.2c-0.1,2.4-1.7,3.9-3.4,5.2c-8.4,6.7-16.2,14-23.7,21.7c-2.1,2.1-4.5,3.9-6.9,5.5c-3.7,2.4-6.4,5.6-8.6,9.4
	c-1.8,3.2-4.4,4.6-8.2,4.8c-10.3,0.5-20.4,3.3-30.6,4.8c-6.8,1-16.4-3.6-19.9-9.5c-2.7-4.6-1.4-7.6,3.9-8.8c1.5-0.4,3.1-0.4,4.8-1.4
	c-18.4-3-34.5-10.8-49.2-21.4c-0.4-0.3-0.9-0.6-1.4-0.8c-1.2-0.5-2.3-1.9-3.6-0.9c-1.1,0.9-0.2,2.3,0,3.4c0.3,2.2,1.1,4.5-0.9,6.4
	c-2.8,1.6-5.9,1.7-9,1.7c-9.9,0-19.9,0.1-29.8,0c-9-0.1-17-3.6-24.7-7.7c-0.7-0.4-1.4-0.9-1.9-1.5c-2-2.3-4.6-4.7-3.4-8.1
	c1.2-3.6,4.8-2.7,7.7-2.8c1.6-0.1,3.2,0,4.8,0c3.6,0,5.4-1.7,5.7-5.3c0.5-5.9,1.4-6.6,7.2-6.7c4.6-0.1,9.1-0.1,13.7,0
	c2.9,0,4.2-1.2,4.1-4.1c0-2.7-0.1-5.4,0.1-8c0.2-3.1,1.7-4.9,4.9-5.3c3.2-0.4,6.4-0.4,9.6,0c3.8,0.4,5.4,3.1,6.1,6.5
	c2.1,9.3,2.1,9.3,11.7,9.4c5.1,0,10.1,1,15.2,0.9c3.3-0.1,4.4-1.6,3.7-4.5c-0.9-3.8-1.6-7.3,1.5-10.6c1-1.1-0.1-1.6-1-2
	c-10.7-4.3-21.5-8.3-32.9-10.2c-4-0.7-6.9-2.2-8.2-6.1c-1.3-3.8-4.8-7-3.4-11.6c1.4-2.2,3.7-2.5,5.9-3c1.8-0.4,2.3-1.3,2-3.1
	c-1-6-0.9-6.1-7-7.2c-8.7-1.6-17.5-2.4-26.1-4.4c-3.4-0.8-6.7-1.8-10-3.1c-3.8-1.5-4.1-3-1.6-6.4c2.2-3.1,5.1-4.4,8.9-4.4
	c8.4,0.1,16.8,0.1,25.4,0c-0.3-2.3-5-2.4-2.6-5.3c1.5-1.8,4.3-1.3,7.1-2.2c-5.4-1.4-10.2-2.8-14.9-4.6c-4.8-1.9-7.6-4.7-7.3-10.2
	c0.2-3.1-1.4-4.8-4.6-5.5c-3-0.7-6.5-0.5-8.8-3.4C220.2,484.6,220.5,481,220.5,477.4z"/>
<path class="st23" d="M357.4,283.3c1.2,5.5,0,11.6,3.8,16.6c2.8,3.7,5.7,6.9,10.7,7.6c6.3,0.9,11,4.2,13.8,10.3
	c1.6,3.6,5.7,5.7,9,6.2c6.9,1.1,14.2,1.6,20.3-3.4c3.7-3,4.7-2.8,8.9-0.2c8.6,5.3,15.7,12.5,23.5,18.7c0.4,0.3,0.8,0.6,1.5,1.1
	c-0.2-1.9-1.5-2.6-2.3-3.5c-6.7-7-14.1-13.1-22.1-18.5c-2.3-1.6-3-2.8-1.3-5.5c3.6-5.9,3.4-5.9,9.8-2.8
	c15.7,7.6,30.8,16.3,44.7,26.8c2,1.5,3.4,4.2,6.9,4.4c-1.3-3.1-4-4.2-6.1-5.9c-4.5-3.7-9.3-7.1-13.9-10.7c1.3-1.9,3.7-2.1,5.3-3.4
	c1.5-1.2,1.8-2.2,0.1-3.4c-4.4-2.9-7.5-7.6-12.8-9.4c-1.3-0.4-2.8-1.2-2.2-3.2c4.4,1.3,8.8,2.5,12.8,4.8c2.7,2.6,5.4,5.4,9.7,4.1
	c5.5,1,9.8,4.7,15,6.3c1.1,0.3,2.1,1.3,3.5,0.5c-2.8-2.7-7-2.6-9.7-5.2c1.9-3.1,1.9-3.2-1.9-4.8c-13.2-5.6-26.4-11.1-40.1-15.4
	c-2.2-0.7-4.3-1.5-6.3-2.6c-0.8-0.4-1.9-0.9-1.5-2.1c0.3-1,1.4-1.1,2.4-1.1c1.6,0,3.2,0.4,4.7,0.9c15,4.7,29.5,10.5,43.9,16.8
	c7.2,3.1,11.3,2.3,16.7-3.7c2.7-3,5.6-5.6,9.6-6.6c4.1,0,7.8,1.7,11.7,2.8c2.4,0.6,2.6,2.7,0.6,4.2c-3,2.2-6,4.8-10.3,2.3
	c3.3,3.7,6.6,6.9,11,8.9c6.3,3,6.4,10.4,0.6,14.3c-0.5,0.4-1.4,0.6-1.6,1.1c-4.4,11.3-12.8,19.7-20.7,28.6
	c-6.3,7.1-13.7,12.5-21.4,17.9c-6.3,4.5-12.5,8.4-19.8,11c-3.3,1.2,0.1,3.3-0.1,5.2c-3.1-1.3-6-3.2-9.5-1.4
	c-1.7,0.9-2.5,1.5-1.1,3.6c2.4,3.8,1.6,4.9-2.6,6.1c-5.9,1.7-11.9,3-18,3.8c-6.1,0.8-8.4-0.7-9-6.8c-0.5-5-2.5-6.4-7.4-5.7
	c-6.9,0.9-13.8,1.4-20.8,1.5c-3.6,0-4-1.7-4-4.8c0-5.2,1.4-10.2,2.5-15.2c0.5-2.3,0-3.1-2.3-3.6c-3-0.6-5.9-1.6-8.9-2.6
	c-1.8-0.6-3.3-0.4-5.1,0.3c-4.9,1.8-9.8,3.7-14.1,6.7c-4.2,3-8.5,2.5-12.9,0.4c-8.6-4-17.6-7.3-26.8-9.4c-8-1.8-16.5-1.8-24.7-0.6
	c-6.3,1-12.3,0-18.3-0.9c-9.6-1.5-18.9-3.5-28.4,0.3c-2.3,0.9-4.2,0-5.3-2.3c-1.2-2.5,0.8-3.4,2.2-4.4c2.5-1.8,5.2-3.3,7.8-5
	c1.8-1.2,2-2.4,0.7-4.6c-2.2-3.6-4.8-5.9-8.9-6.8c-3.2-0.7-5-3.9-8-5.2c-1.3-0.6-0.6-1.9,0.2-2.7c1.7-1.5,3.4-3.1,5.3-4.3
	c11.5-7.4,22.8-15,35.3-20.7c3.6-1.6,5.5-1.4,7.6,2.3c3.9,6.7,4.2,6.5-1.4,12.2c-1,1-2.5,1.7-2.5,4.1c2.8-1.6,5.3-2.9,7.7-4.4
	c2.8-1.7,5.4-2.4,8.7-1.2c3.8,1.3,7.7,2.4,11.7,2.8c3.8,0.4,7.5-1.2,10.3-3.6c6.1-5.1,12.9-8.9,19.7-13c6.5-4,11.6-9.9,11.6-18.5
	c0-2.1,0.5-4.2,0.8-6.4C356.3,282.8,356.9,282.8,357.4,283.3z"/>
<path class="st24" d="M301.8,117.5c3.8,0.3,7.5,0.6,11.3,0.9c3.9,3.7,2.8,8.8,3.1,13.3c0.7,13.1,1.4,26.2,1,39.3
	c-0.2,6.6,0.1,6.9,6.4,8.6c1.2,0.3,2.3,0.7,3.1,1.6c0.2,1.8-0.3,3.4-0.6,5.1c-0.5,2.8-2,3.7-4.7,3.8c-6.8,0.2-7.5,0.9-8.3,7.3
	c-0.9,7.7-1.2,7.9-8.9,7.9c-4.8,0-9.6,0-14.4,0c-1.4,0-2.7,0.3-3.3,1.8c-0.6,2.2-2.5,2-4.1,2.2c-5.6,0.8-11.3,1.6-16.6,3.6
	c-2.6,1.1-5.1,2.1-7.8,2.9c-1.5,0.4-2.5,1.2-3.3,2.5c-4.2,3.6-9.2,3-14.2,2.8c-1.9-0.1-3.7-0.5-5.6-0.6c-3.9-0.3-6.3,0.6-6.8,5.2
	c-0.3,3.5-2.5,4.4-6.3,3.4c-5.9-1.7-11-5-16.3-7.8c-4.8-2.6-9.6-5.4-14.7-7.5c-3.7-1.6-4.3-4.4-3.8-7.9c1-3.1,2.9-5.8,4.9-8.2
	c7.4-8.7,7.5-18.8,5.9-29.2c-2.4-15.7-6.7-31.1-9.2-46.8c-0.5-3.2-0.8-6.4-1.1-9.5c-0.4-6.4-0.8-12.9,0.3-19.2
	c1.5-9.1,8-13.8,17.2-12.9c4.9,0.5,9.7,1.7,14.5,3.2c13.5,4.3,25.9,10.9,38,18.1C270.9,108,284.6,113,299,116
	C300.1,116.3,301,116.7,301.8,117.5z"/>
<path class="st23" d="M188.3,206.1c-0.7,4.2,1.6,5.4,5.2,6.9c7.4,3.2,14.5,7.4,21.5,11.4c2.8,1.6,5.9,2.4,8.9,3.7
	c2.4,1,2.9-0.8,3.1-2.8c0.6-6.4,0.7-6.3,6.9-6.5c4-0.1,7.9,1.2,12,0.9c3.1-0.2,6.1-0.7,8.7-2.5c3.7-2.4,7.2-1.4,10.3,1.1
	c3.6,2.8,5.7,6.7,7.8,10.6c7.9,14.9,21.9,18,35.6,7.8c1.1-0.8,2.2-1.6,3.5-1.9c1.2-0.1,2.3,0,3,1.1c-0.4,4.2-1.8,8.3-4.7,11.3
	c-3.8,3.8-7.2,8-10.3,12.3c-3.1,4.1-6.7,7.6-10.6,10.9c-0.4,0.3-1.1,0.8-1.1,1.1c0.7,5-3.5,4.1-5.9,4.4c-13.3,1.9-26.8,3.3-40.1,5.1
	c-14.3,2-28.5,4.3-42.8,6.5c-0.8,0.1-1.6,0.2-2.1,1.7c6.3-1,12.3-2.1,18.3-2.9c12-1.6,24.1-3.1,36.1-4.5c10.2-1.2,20.4-2.2,30.6-3.6
	c3-0.4,3.8,0,2.9,3c-0.5,1.5-0.7,3.1-1,4.7c-0.7,3.4-2.4,5.7-6,6.7c-19.2,5.4-38.2,11.8-56.3,20.1c-6.6,3-10.1,2-15.1-2.8
	c-5.4-5.2-12.1-9.2-17.7-14.4c-1.3-1.3-3.8-2-2.5-4.7c0.2-0.4,0-0.8-0.5-0.8c-7.6-0.7-9.5-7.8-13.5-12.4c-3.6-4-5.9-8.9-8-13.9
	c-0.4-0.9-0.6-1.8-1.7-2c-1.9-1.6-0.8-3.5-0.3-5.2c1.6-5.8,4.4-11.2,6.9-16.6c4.6-9.9,9.2-19.8,14.6-29.4
	C184.8,208.7,185.4,206,188.3,206.1z"/>
<path class="st25" d="M451.5,530.5c0.2-1.6,1.1-3.2-2-2.7c-14.9,2.8-30.2,3.3-44.8,7.9c-4.4,1.4-5.4,0.5-5.4-4.3
	c0-5.2-0.3-5.8-5.5-4.9c-5.8,0.9-11.4,2.7-17.1,4.1c-1.4,0.3-2.9,0.5-4.3,0.6c-2.1,0.2-2.7-0.9-3-2.8c-0.3-1.9,0.4-3.1,2-3.2
	c7.6-0.5,14.2-4.7,21.5-6.2c2.9-0.6,6.4-0.4,8.8-2.9c0.5,0,1.1,0,1.6,0c1.7,0.3,3.3-0.2,4.8-0.8c7-0.6,14-1.1,21.1-1.7
	c1-0.1,2.4,0,2.5-1.4c0.1-1.3-1.4-0.9-2.2-1.2c-3.3-1.7-6.8-3.2-9.9-5.2c-1.7-1.2-1.6-2,0.2-2.7c1.7-0.7,3.6-1.1,5.3-1.7
	c15.1-5,30.2-10.1,44.4-17.3c8-4,15-9.6,22.3-14.7c0.3-1.4,1.5-2,2.5-2.7c2.1-1.4,4-3,5.9-4.6c2.1-1,3.2-3.8,6-3.3
	c7.5-6,15.4-11.6,22.3-18.2c10-9.6,19-20.2,26.1-32.3c-0.2-1.6,0.7-2.7,1.6-3.8c1.1-0.9,1.6-2.3,2.2-3.5c1.2-1.5,1.5-3.9,4.1-4
	c2.1,7.1,2.4,14.5,3.4,21.8c-0.6,4.8,1.7,9.1,1.8,13.9c0.1,4.6,1.1,9.3,1.2,13.9c0.2,9.8,1.6,19.4,2.4,29.1c0.2,2.3,0.2,4.5,0.3,6.8
	c-0.1,0.5-0.1,1-0.2,1.5c-5.5,7-12.9,12-19.7,17.6c-13,10.6-28.3,16.6-44.3,21c-12.2,3.3-24.5,5.7-36.8,8.2
	c-5.4,1.1-11,0.3-16.4,1.1C453.3,531.9,452.2,531.5,451.5,530.5z"/>
<path class="st26" d="M338.9,408.2c6.6,3.1,13.7,3.5,20.7,4.8c1.7,0.3,3.4,0.6,5.1,0.8c3,2.6,6.6,1.3,10,1.4
	c2.1,0.1,4.3-0.1,6.4-0.2c1.3,0,2.7,0.4,3,1.6c1,5.2,6.3,7.5,7.8,12.4c0.6,2,1.8,2.1,2.9,0.1c0.7-1.4,1.8-2.6,3.5-1.9
	c1.6,0.6,1.9,2.2,1.7,3.7c-0.4,3.5-0.8,6.7,1.9,9.7c1.3,1.5-0.1,3.3-1,4.8c-1.6,2.6-2.4,4.9,1.3,6.4c1.3,0.5,1.9,1.8,2.7,2.9
	c1.9,2.7,4.4,3.8,7.6,4.9c6.9,2.4,11.6,1.3,16-4.7c1.7-2.3,4.5-3.4,4.4-7.2c-0.1-2.6,2.5-4.9,5.2-4.7c8,0.7,15.7-0.7,23.5-1.9
	c4.2-0.7,6.5,1.7,8.4,4.8c1.9,2.9,0.8,5.3-1.1,7.7c-1.6,1.9-1.6,2.8,1.3,3.1c4.4,0.5,6,3.7,3.6,7.5c-2.3,3.6-5.2,6.8-9.8,7.8
	c-2.2,0.4-2.7,1.7-2.2,3.8c1.3,5.3-0.4,7.9-5.8,8.6c-4.5,0.5-8.4,2.6-12.6,4.1c-3.6,1.2-7.2,2.1-11,1.7c-10.6-1.3-18.7,3.8-26.7,9.7
	c-1.4,1-1.2,2.2-0.8,3.6c0.8,3.1-0.2,5.3-3.5,6.1c-3.2,0.8-4.9-0.9-5.5-3.8c-0.5-2.7-2.5-2.6-4.5-3.1c-2.1-0.5-5.9,0.2-3.9-4.2
	c0.2-0.3,0.1-0.6-0.1-0.5c-4.1,1-4.8-5-8.9-4.3c-2,0.3-2.6-1.4-2.4-3.3c0.2-2.1-1-3.8-2.8-3.6c-2.2,0.2-2.8,2.2-2.2,4.3
	c0.9,3.1,0.1,6.2-0.4,9.2c-0.6,3.1-3,4.1-4.7,1.7c-3.7-5.3-7.5-6-13.3-3.5c-3,1.3-7.1-0.1-10.7-0.5c-3.5-0.4-4.9-3.4-4.8-6.5
	c0.1-4.6-2.2-6.3-6.4-7c-5.9-1-10.9-3.3-13.8-9.2c-1-2.1-1.8-3.9-0.1-5.9c1.8-2.1,1.2-3.6-0.7-5.4c-3.4-3.5-5.1-8.1-7.2-12.4
	c-1.3-2.6-0.7-5.9,1.2-8c3.6-4,2.4-8.3,1.1-12.5c-0.9-2.9-2.3-5.9,1.1-7.9c3.2-1.9,6.2-1,8.5,1.9c0.5-7.4,5-12.9,9.1-18.3
	C332.6,403.3,336.1,404.3,338.9,408.2z"/>
<path class="st27" d="M338.9,408.2c-2.6-1.5-5.3-3.8-8.1-0.8c-1.7,1.9-2.8,4.4-4,6.7c-0.7,1.3-0.9,3.1-2,3.9c-2.7,2-3.2,4-1.5,6.8
	c0.7,1.2,0.2,2.4-1.2,3c-1.6,0.6-2.2-0.4-2.5-1.7c-0.9-3.9-4.1-3-6.1-2.3c-2.5,0.9-1.9,2.9-1.1,5.5c1.4,4.4,4.2,9.2-0.5,14.1
	c-3.4,3.4-2.7,7.4,0.6,11.2c1.2,1.4,1.7,3,2.2,4.7c0.5,1.5,1.2,2.9,2.7,3.8c3.4,2.1,3.8,4.3,0.8,6.8c-2,1.7-1.1,2.4-0.2,4.2
	c3.1,6.6,9,8,15.2,9.2c3.3,0.7,5.7,1.6,5.2,6.3c-0.7,6,1.5,6.7,7.8,7c4.9,0.2,9.4,0.6,13.4-2.7c1-0.8,1.9,0.2,2.6,1.2
	c1.5,2,3.1,4.1,4.8,5.9c1.2,1.3,2.6,1.5,2.4-0.8c-0.2-3.5,2-6.9-0.3-10.6c-1.2-2,1.6-3.8,3-5.2c1.4-1.4,2.9,0.1,3.6,1.3
	c1,1.5,5.2,2.2,1.5,5.4c-0.9,0.8,0.7,1.2,1.6,1c3.1-0.8,4.9,0.7,6,3.4c0.4,1,0.6,1.6,2,0.9c1.3-0.7,3.1-2.2,4.1,0.1
	c1.1,2.5-2,2.2-3.3,3.6c2.4,0.8,4.7,1.6,7,1.2c2.6-0.4,2.8,0.3,2.7,2.7c-0.3,3.5,1.2,4.7,4,4.1c3.1-0.7,4-2.5,2.1-5.2
	c-1.6-2.2-1.2-2.8,1-4.1c4-2.3,7.7-5.2,12.1-7.1c5.2-2.2,10.3-4,16.2-3.1c6.1,0.9,11.5-2,17-4.1c1.9-0.7,3.7-1.4,5.8-1.5
	c5.3-0.2,6.7-2.3,4.9-7.2c-1.2-3.2,0.2-5.2,3.6-5.6c3.5-0.3,9.5-5.8,10-9c0.4-2.3-2.5-4.1-5-3.2c-0.9,0.3-1.6,1.9-2.8,0.7
	c-0.9-0.9,0.2-2,0.2-3.1c0-1.4,0.6-2.5,1.8-3.4c2.3-1.7,2.7-3.5,0.7-6.1c-3.9-4.9-5.6-5.7-12.1-3.8c-5.7,1.7-11.5,2.2-17.5,1.9
	c-3.4-0.2-5.7,2.5-4.7,5.7c0.7,2.3,0.1,3.6-2.2,4.2c-3.1,0.9-4.8,3.2-6.4,5.8c-1.8,2.9-4.4,3.9-7.4,2.7c-2.7-1.1-5.4-1.8-8.4-2.1
	c-2.2-0.2-5.7-1.7-6.5-5c-0.3-1.2-0.7-2.2-2-2.8c-1.2-0.6-3.2,0.2-3.7-1.8c-0.5-2.1-0.1-4.4,1.3-5.7c3.1-2.9,2.4-4.9-0.9-6.7
	c-1.2-0.7-1.3-1.6-0.5-2.7c1.3-1.8,0.5-3.9,1-5.9c0.2-0.9,0-2-1.3-2.1c-0.8,0-1.6,0.7-1.6,1.5c-0.1,1.6,0.5,3.6-2,3.5
	c-2.4-0.1-3.5-1.9-3.8-4c-0.4-2.2-1.2-3.7-3.4-4.6c-2.4-1-2.8-3.6-3.2-5.7c-0.5-2.6-1.8-3.3-4.2-3.2c-3.7,0.2-7.4,0.3-11.1,0.6
	c-1.9,0.2-3.2-0.1-3.5-2.2c4.8,1.2,9.6,0.9,14.4,0.8c4.2-0.1,8.3,0.6,12.2,2c3.3,1.2,6.4,1.3,9.7-0.3c6.3-3.3,13.5-3.2,20.3-3.9
	c3.7-0.4,7.4-1.2,11.2-1c1.4,0.1,2.5,0.2,3.5,1.5c3.3,4.4,5.8,4.6,10.2,1.2c0.2-0.2,0.5-0.2,0.8-0.2c0.8,0.2,1.6,0.5,1.6-0.8
	c6.2-1.7,12.2-4,17.7-7.2c0.5,2,1.3,3,3.9,2.3c3-0.9,5.4-2.2,7.3-4.8c-2.1-0.9-4.5,1.2-6.3-0.7c2.6-2.4,5.3-4.4,9.2-3.4
	c2.4,0.6,4.8,0.1,6.7-1.7c1.7-1.6,4-1.9,6.4-2.5c-0.1,2.3-0.9,3.5-2.6,4.4c-4.6,2.5-4.9,4.5-0.8,7.7c1.7,1.3,1.6,2,0.3,3.4
	c-3.3,3.4-8.2,3.5-12.5,2.9c-3.7-0.4-7.6-1.1-11.5-0.7c-4.6,0.5-8.7,3.5-13.5,2.2c-0.5-0.1-1.4,0.1-1.8,0.4
	c-4.6,4.7-10.7,5.7-16.7,6.6c-2.8,0.4-5.1,4.7-3.5,7.6c2.3,4.4,4.8,8.6,9.1,11.5c1.5,1,3,1,4.6,1c10.7,0,21.2-1.9,31.9-2.8
	c1.6-0.1,2.9-0.3,3.9,1.1c1,1.6,0.3,3.3-0.8,4c-2.9,1.9-2.6,5.4-4.6,7.8c-1.3,1.6,0,3.2,2,3.2c3.2,0,6.4-1.8,9.7-0.1
	c0.8,0.4,1.8-0.8,2-1.7c0.4-2.1,0.9-2.3,2.8-1c1.6,1.1,2-0.8,2.3-1.8c1-3,2.2-5.3,5.7-6.5c2.8-1,3.8-4.2,4.8-6.9
	c0.3-0.8-0.2-1.9,1.1-2.1c1.1-0.2,1.8,0.5,2.3,1.3c0.6,1,1.5,2.1,1.2,3.3c-0.9,4.2-0.6,8.2,0.8,12.3c0.2,0.5-0.3,1.3-0.4,1.9
	c-1.9,0.7-3-0.4-4-1.7c-0.6-0.8-0.6-2.4-2.1-1.8c-1.3,0.4-1.7,1.8-1.6,3c0.1,3.2,0.2,6.3-0.3,9.5c-1.4,2.1-3.7,3.2-5.7,4.7
	c-1.1-2.4-4-3.5-4.3-6.5c-0.2-1.4-1.7-0.9-2.7-0.8c-1.7,0.3-3.6,0.6-4.4,2.4c-0.5,1.2,0.7,1.9,1.4,2.6c1.5,1.3,3.6,2,4.4,4
	c-2.2,2.7-5.7,3.3-8.5,5.1c-4.7,2.9-9.4,5.8-14.1,8.6c-2.3,2.2-6.2,1.1-8.1,4c-7.9,3.7-16.5,4.7-24.9,5.2c-3.7,0.2-7.8,2.2-11.9-0.1
	c-2.1-1.2-10.4,4.8-11.2,7.7c-0.9,3.3-2.3,6.6-1.8,10.2c0.4,3.2-1.1,4.7-4.2,3.9c-2-0.5-3.7,0.4-5.5,0.5c-6.6,0.4-12.3-2.4-17.8-5.5
	c-2.6-1.5-5.2-3.1-8.1-3.1c-8.2,0.1-15.2-4-23-5.4c-2.7-0.5-5.3-2.1-7.8,0.6c-0.7,0.8-2.1,0.7-3-0.1c-4.6-3.9-10.6-3.1-15.8-4.9
	c-4.2-1.4-6.8-4.3-5.8-8.8c0.6-2.7-1.4-1.7-2.4-1.8c-6.3-0.6-9.7-6.8-6.6-12c3.4-5.6,1.3-11.4-5.3-13.5c-9.7-3-19.3-6.1-28.4-10.5
	c-5.8-2.8-11.6-5.3-17.6-7.6c-3-1.2-6-3.7-6-7.9c0-0.6-0.4-1.3-0.7-1.8c-0.5-0.8-2.4-0.9-1.6-2.3c0.7-1.2,2.3-1,3.3-0.7
	c2.3,0.7,5.1-0.8,7.1,1.7c0.9,1.1,2.2-0.2,3.3-0.6c4-1.5,8-2.6,11.2,1.6c1,1.3,2.5,1.3,4.1,1.1c2.1-0.3,4.2-0.2,6.3-0.5
	c2.9-0.5,6.8-0.8,6.6-3.8c-0.2-2.5-2.2-6-5.8-6.8c-1.9-0.4-3.2-1.9-2.8-3.3c0.9-2.9-1.1-3.9-2.6-5.4c-3-3-4.9-3-7.5,0.2
	c-1,1.2-2.1,2-3.4,2.7c-1.7,0.9-2.2,0.6-4.1-0.7c-5-3.4,0.3-6.3-0.6-9.4c-0.9-3.4-2.9-6.4-6.6-6c-1.6,0.2-2.5-0.7-3.6-1.3
	c-5.8-3.1-10.2-8.2-16.1-11.1c-0.5-0.2-1-1-1-1.6c0-0.7,0.8-1.1,1.5-1c1.9,0.2,3.4-0.7,5.1-1.6c1.4-0.8,3.2-1.3,4.9,0.1
	c0.6,0.5,1.8,0.6,2.7,0.5c6.9-0.4,13.6,0.6,20.3,1.8c0.8,0.1,1.8,0.2,2.3,0.7c6.5,6.6,15.5,5.2,23.5,7.1c12.3,2.9,24.9,4.4,37.6,4.2
	c2.2,0,4.5,0.5,6.7,0.9c0.8,0.1,1.7,0.3,1.9,1.2c0.2,0.9-0.7,1.4-1.4,1.8C339.7,403,338.5,405.1,338.9,408.2z"/>
<path class="st27" d="M146.5,327.6c1.2-0.1,2-0.7,2.7-1.6c1-1.5,1.6-2.7,4.3-2c2.9,0.7,4-2.6,4.9-5c2.3-6.6,5.7-9.2,12.4-9.6
	c1.5-0.1,2.4,0.6,3,1.5c3.4,5.4,8.6,9.7,10.6,15.9c1.3,3.9,2.4,7.9,3.3,11.9c0.8,3.6,2.7,6.3,4.9,9.1c1.4,1.7,3.1,2.1,4.3,0.3
	c1.3-2,3.6-2.2,5.2-3.6c0.6-0.5,1.5-1,2.1,0c0.6,0.9,0.1,1.7-0.8,2.3c-2.8,1.8-5.6,3.7-6.3,7.4c-0.2,0.9-0.7,1.8,0.3,2.6
	c1.1,0.8,2,0.2,2.9-0.4c2.1-1.3,3.9-2.8,5.2-4.9c0.4-0.7,1-1.3,2-0.9c0.8,0.4,0.3,1.1,0.2,1.7c-0.1,2.7,1.1,4.7,3.9,5
	c3.7,0.3,4.6,2.1,3.5,5.4c-0.4,1.2-1,2.7,0.3,3.7c1.5,1.2,2-0.7,2.9-1.3c1.5-1,2.5,0,3.5,1c2.4,2.2,4.6,4.7,8,5.5
	c-0.4,1.5-2,2-1.9,3.6c0,1.3-1.5,2.7-0.4,3.8c1,1,2.2-0.4,3.2-0.9c2-0.8,2.7-0.1,2.8,1.9c0.1,2.6,0.6,5.3,0.5,7.9
	c0,2.2-2.2,3.5-2.7,5.9c-0.7,3.3-0.5,6.4,0,9.4c1,6,0.4,12,0.6,18c0.1,2.1-0.3,4-3,3.6c-3.8-0.5-5.5,1.8-7,4.7
	c-2.1,4.1-5.9,5-8.5,1.2c-4.5-6.6-10.9-11.9-13.4-19.8c-0.5-1.6-1.5-3.2-0.8-5c0.4-1.1,0.6-2.1-0.6-2.8c-1.2-0.7-2.8-1.2-3.7,0
	c-1.9,2.4-4.6,0.8-6.7,1.6c-3.6,1.4-3.9-1.9-5.4-3.4c-1.3-1.3-2.4-1.7-3.5,0.2c-1.4,2.3-4,2.5-6.2,3.3c-2.1,0.7-3.8-0.3-5.1-2.1
	c-1.6-2.2-3.5-3.3-6.1-1.3c-0.5,0.4-1.2,0.9-1.8,0.4c-2.8-2.7-7.4-2.9-9.2-6.8c-1.6-3.7-4.8-5.2-8.3-6.2c-5.1-1.5-5.5-2.3-3.1-7
	c0.5-1,1.4-1.9,0.7-3c-3-4.8-0.7-9.4,0.4-14c2.5-10.8,3.5-21.9,6.7-32.6c0.2-0.8,0-1.6-0.7-2.2C145.8,329.3,145.7,328.4,146.5,327.6
	z"/>
<path class="st28" d="M129.6,338.3c4.8-3.9,9.1-8.3,13.4-12.6c1-1,1.9-2.2,3.4-2.7c1.1,1.5,0.8,3.1,0,4.6c0,0.8,0,1.6,0,2.4
	c-2.7,9.5-4.3,19.3-6.5,28.9c-2.6,10.8-4.8,21.6-6.1,32.7c-0.2,1.7-0.2,3.5-0.3,5.2c-3.1,12.6-5.2,25.3-5.5,38.3
	c-0.1,0.4-0.3,0.8-0.6,1.2c-1.6,1.1-2.9,0.4-4.2-0.5c-1.2-1.5-2.3-3-4.1-3.7c-7.8-2.9-13-8.6-17.7-15.1c-5.6-7.7-10.7-15.7-15.2-24
	c-0.4-2,0.5-3.7,1.6-5.2c6.9-10,13.9-19.9,21.8-29.2c4.3-5.1,8.9-9.9,13.2-15.1C124.6,341.3,126.6,339.1,129.6,338.3z"/>
<path class="st29" d="M127.1,435.6c-1.9-6.2-0.1-12.2,1.1-18.2c0.8-4.1,1.4-8.1,1.3-12.3c-0.1-3.4,0.9-6.4,4-8.2
	c2.5,0.6,3.5,2.4,4.1,4.8c4.6,16.4,14.2,29.8,25.6,42c5.9,6.3,12.8,11.7,20.5,15.9c12,6.5,23.8,13.3,36.7,17.9
	c3,3.3,1.4,6.9,0.8,10.5c-2.4,1.9-4.9,0.4-7.3,0c-15.5-3.1-29.5-10.3-43.5-17.3c-13.2-6.7-24.7-15.5-35.1-25.8
	C132.5,441.8,130.6,438.1,127.1,435.6z"/>
<path class="st30" d="M326.8,181.1c-1.6,0-3.2,0.1-4.8-0.2c-5.2-1-6.5-2.5-6.4-7.8c0.3-13.8-0.4-27.5-0.9-41.3
	c-0.2-4.5-1-9-1.5-13.5c8.4-0.7,16.7-1.5,25.1-2.2c0.9,1.6,0.5,3.4,0.7,5.1c0.5,4,0.3,8.2,3.3,11.7c2.4,2.8,1.6,6.7,2.1,10.1
	c1.6,11.8,1,23.8,1,35.7c0,0.4,0.1,0.9-0.1,1.2c-2.7,4.1-6.8,1.4-10.2,2c-2,0.4-3.3-0.7-3.3-3c0-2.6-0.1-5.3-1.7-8.1
	C328,174.1,327.5,177.6,326.8,181.1z"/>
<path class="st26" d="M562.7,396.8c-1.1,1.6-2.2,3.3-3.4,4.9c-1,0.9-2.1,1.1-3.3,0.4c-1.3-1.1-2.8-1.2-4.7-1.4
	c1.6,0.2,2.9,0.2,4.1,0.9c1.2,0.8,2.4,1.5,1.7,3.3c-0.6,1.2-1.1,2.5-2.3,3.3c-1.4-0.1-2.2,1-3.3,1.6c-4-0.1-7.6,0.1-11,3.3
	c-2.6,2.5-7.1,1.7-10.8,2.1c-2.9,0.4-5.8,0.8-8.7,1.5c-4.1,1-8.4,0.8-12.6,1.1c-2.8,0.2-4.7-2.6-4.1-5.6c0.6-3.4,1.3-6.8-0.2-10.2
	c-0.7-1.6,0.4-3.3,1.8-4.1c3.8-2.1,6.9-5.3,11.5-6.1c3.2-0.5,5.6-0.9,8.6,1.1c2.7,1.9,6.2,0.5,9.4-0.1c1.5-0.3,0.9-1.3,0.4-2.1
	c-1-1.6-2.6-2.2-4.2-2.9c-4.6-2-5.8-4.1-4.5-8.8c0.9-3.2-0.6-5.2-2.7-7c-3.8-3.3-4.1-4.7,0.3-7.3c2.9-1.6,4.7-3.3,5.1-6.6
	c2-0.7,3.2,1.2,4.8,1.6c5.9,2.7,11.9,5.3,18.4,6.3c2.8,0.4,3.4,3.1,4.9,4.9c0,0.3,0,0.6,0,0.8c-0.3,1.2,0,2.3,0.8,3.2
	c0,0.3,0,0.5,0,0.8c-0.7,1.7,0.5,3.8-1.4,5.2c-0.4,0.3-0.4,1.1-0.1,1.5c2.8,3.8,2.8,8.8,5.5,12.7
	C562.7,395.8,562.7,396.3,562.7,396.8z"/>
<path class="st3" d="M513.7,297.1c-4.4,3.9-8.7,8.1-13.3,11.7c-3.5,2.7-7.3,2.8-11.7,0.9c-15.9-7.3-32.2-13.8-49.1-18.6
	c-0.7-0.2-1.5-0.2-2.4,0.2c8.4,3,16.9,5.9,25.2,9.1c8.2,3.2,16.4,6.6,24.5,10c1.5,0.6,4,0.9,3.7,3c-0.3,1.9-2.5,2.1-4.3,2.2
	c-5.8-1.3-10.8-4.5-16.3-6.6c-6.2-2.4-12.2-5.4-18.6-7.3c-7.2-2.1-14-5.2-21-8c-2-0.8-3.1-2-2.9-4.2c0.2-2.6-0.6-5-1.4-7.4
	c-0.8-2.4,0.2-2.8,2.3-2.5c14.5,2.3,28.9,4.6,43.3,7.6c4.3,0.9,8.6,1.9,13,1.9c0,0,0,0,0,0c6.2,2.4,13,2.8,19.3,4.8
	C507.2,294.9,510.7,295.2,513.7,297.1z"/>
<path class="st23" d="M236.5,333.2c-0.1,0-0.5,0-0.9-0.2c-5.7-2.4-11.4-4.8-17-7.3c-0.7-0.3-1.3-1-1.8-1.5c-4.7-4.6-4.4-5.9,1.6-8.4
	c18.3-7.7,36.8-14.6,55.9-19.9c6.4-1.8,6.1-1.7,10,3.1c2.2,2.7,1.1,3.9-1.2,5.3c-7.9,4.7-16.1,9.1-23.8,14.2
	c-6.7,4.4-14.4,7.2-19.6,13.7C239,333.1,237.9,333.3,236.5,333.2z"/>
<path class="st27" d="M529.7,358.2c0.4,1,0.7,2,1.1,3c0.8,2.1,0.5,3.5-2.1,3.4c-1.5,0-2.8,0.4-4.1,1.3c-2.5,1.8-3.8,2.7,0.2,4.5
	c3.9,1.7,4.5,5.6,3,9.9c-1,2.8,0.4,5.2,3.3,5.7c3.3,0.6,5,2.7,7,4.9c1.7,1.9,1,3.1-1,3.3c-3.2,0.2-6.3,1.4-9.6,1
	c-0.8-0.1-2,0-2.3-0.4c-3.1-5.2-8-1.8-10.6-0.7c-3,1.3-6.5,2.9-9.1,5.5c-1.2,1.2-0.6,2.4-0.2,3.7c1,3.1,1.3,6.1,0.1,9.4
	c-1.1,2.9,1.4,4.1,3.7,4.2c2.6,0.1,5.5,0,7.9-0.8c5.5-1.9,11.3-1.9,16.8-3.2c0.8-0.2,1.5-0.4,2.3-0.2c2.1,0.7,3.4,0,4.6-1.9
	c2.2-3.4,7-3.7,10.5-1c-2.6,4.3-6.3,7.4-10.3,10.2c-1,0.7-1.6,0.7-2.4,0c-2.2-2-4.5-2.9-7.2-0.9c-0.5,0.3-1.3,0.4-1.9,0.3
	c-3.2-0.3-5.5,0.9-6.5,4.1c-0.3,1-1.1,1.6-2.2,1.4c-1.1-0.2-1.3-1-1.3-2.1c0-3.4-2-5-5.5-4.7c-1.3,0.1-2.6,0.4-4,0.6
	c-5.7,0.9-6.2,0.6-8.5-4.5c-0.7-1.5-0.4-2.5,0.4-4c1.7-3,3.2-6.1-1-9c-3-2-2.2-5.4,0.4-7.9c2-1.9,3.7-4.1,4.3-7.1
	c0.7-4.1,1.9-4.6,5.6-3.1c0.6,0.3,1.2,0.7,1.8,0c0.5-0.7,0.6-1.7,0.1-2.3c-2.3-3.1-0.1-4.6,1.8-6.7c3.2-3.5,6-7.5,9-11.2
	C525.7,361.1,527,358.9,529.7,358.2z"/>
<path class="st31" d="M314.7,236c-1.1-0.1-2.2-0.1-3.2-0.2c-1.3-1.4-0.6-3-0.3-4.6c0.5-2.5,0.4-5.1,0.3-7.6
	c-0.1-1.4-0.8-2.2-2.3-2.2c-1.4,0-2.3,0.7-2.4,2.1c-0.2,2.5-0.6,5-1.6,7.4c-2.9,6.6-9.1,10-15.5,8.5c-6.2-1.5-11.3-8.5-10.9-15.1
	c0.1-1.6,0.4-3.2,2.1-4.1c1.1-0.4,2.1,0.1,3.1,0.3c1,0.2,1.9,0.2,2.6-0.6c0.4-0.5,0.3-1-0.1-1.4c-0.9-0.9-1.8-1-2.9-0.3
	c-0.4,0.3-0.9,0.6-1.3,0.9c-2,1.3-3.9,2.8-6.5,3c-1.2,0.1-1.9,0.8-2.6,1.7c-0.7,0.8-1.3,2-2.5,1.6c-1.3-0.4-1.6-1.7-1.9-2.9
	c-0.1-0.3-0.1-0.5-0.1-0.8c0-0.2-3.5-9.6-3.6-9.7c6.1-2.6,12.5-4,19.1-4.4c0.9,0,1.8-0.4,2.6-0.6c5.1-0.1,10.1,0,15.1,1.5
	c6.6,1.9,11.3,5.9,13.8,12.3c1.9,4.8,2.4,10.1,5.4,14.9C318.4,235.8,316.6,235.9,314.7,236z"/>
<path class="st32" d="M357.4,283.3c-0.5,0-1,0-1.6,0c-2.2-4.6-7.1-7.3-8.6-12.4c-0.3-1-1.9-0.8-2.9-0.9c-1.5-0.1-3-0.1-4.3-0.6
	c-2.5-1-5.1-2.7-5.6-5.3c-0.4-2,2.7-2.5,4.2-3.8c2.8-2.6,6.2-3.5,10-3.5c5.3,0,10.7,0,16,0c5.5,0,9.5,3.1,13.4,6.4
	c1.1,1,1.3,1.9,0.2,3c-2,2.3-4.3,4.1-7.4,4.3c-3.3,0.2-5.7,1.2-6.9,4.7C362.8,278.6,358.8,280,357.4,283.3z"/>
<path class="st3" d="M454.9,305.1c0.2,0.3,0.4,0.9,0.7,0.9c6.4,1.8,10.4,7.2,15.6,10.8c3.5,2.4,3.5,2.7-0.1,5.1
	c-2,1.3-3.9,2.8-6.6,2.5c-5.1-3-10.2-6-15.3-8.9c-1.3-2.1-3.6-2.3-5.6-3.1c-1.4,0-2.2-1.1-3.3-1.7c-2.7-3.6-4.8-7.4-2.4-12
	C443.6,300.8,449.2,303,454.9,305.1z"/>
<path class="st27" d="M557.8,371.1c-1.5-0.1-2.4-1.1-3.1-2.3c-0.5-0.8-1.1-1.5-2.1-1.6c-6.8-0.5-12.4-4.2-18.1-7.4
	c3.4,0.3,6.2,2.3,9.4,3.3c1.6,0.5,3.5,1.6,4.7-0.4c1.2-2-0.4-3.1-1.9-4.1c-1.3-0.9-2.3-2.2-3.5-3.3c-2.1-2.1-2.8-4.4-1.2-7.2
	c1.7-3,2.4-5.8-1.2-8.3c-1.8-1.3-1.8-3.3,0-5.2c2.9-3,5.6-3.4,8.8-1.2c0.9,2.3,0.5,5,1.7,7.2c1.3,9.3,4.3,18.3,6,27.5
	C557.7,369,557.7,370.1,557.8,371.1z"/>
<path class="st23" d="M437.9,298.7c-0.1,4.2,1.9,8,2.4,12c-3.6-1.8-7.1-3.6-10.7-5.3c-3.8-1.9-1.9-4.8-1.2-7.3
	c0.9-2.9,3-1.7,4.9-0.9C434.9,297.7,436.4,298.2,437.9,298.7z"/>
<path class="st26" d="M489.5,469.4c-1.9,0.3-2.8-1.4-4.2-2.1c-2.1-1-4.4-2.9-3.8-5c0.5-1.9,3.2-3,5.6-3.3c1.1-0.2,2.1-0.3,3.2-0.4
	c0.5-0.1,1.1-0.2,1.5,0c2.5,1.1-1.3,4.7,1.8,5.1c4,0.5,1.9,2.4,1.5,4.1c-1,0.6-1.8,1.7-3.2,1.7C491.1,469.4,490.3,469.4,489.5,469.4
	z"/>
<path class="st26" d="M500.8,462.9c-0.4-0.2-1.1-0.4-1-0.5c0.5-3.9-1.1-7.8,0.3-11.7c0.6-1.6,1.9-2.7,3.7-2.6
	c1.5,0.1,1.8,1.4,1.8,2.7c0.1,2,1.8,2.5,3.2,3.2c-0.8,1.6-2.7,2.6-2.4,4.7C504.4,459.9,503.4,462.5,500.8,462.9z"/>
<path class="st26" d="M470.9,402.5c1.4-0.3,2.9-0.7,4.3-0.9c1.6-0.2,3.8-1.9,4.7,0c0.7,1.6-1.9,2.5-2.8,3.9
	c-2.2,3.7-6.5,3.1-9.7,4.7c-0.8,0.4-1.9-0.3-2.4-1.1c-1-1.5,0.7-2.4,1.1-3.5C467.5,404.4,469.2,403.4,470.9,402.5z"/>
<path class="st3" d="M477.4,314c0.4,1,0.8,2.6-0.9,2.2c-3.3-0.8-6.4-2.4-9.1-4.4c-0.2-0.2,0.2-1.2,0.3-1.8
	C471,311.3,473.9,313.5,477.4,314z"/>
<path class="st26" d="M458.9,487.1c1.3-4,5.1-3.1,8.1-4C465.2,486.4,461.4,485.4,458.9,487.1z"/>
<path class="st27" d="M316.7,495c-0.3,1.1-1.2,0.9-2,0.9c-1.1,0-1.8-0.7-1.8-1.7c0-1,0.8-1.4,1.6-1.2
	C315.7,493.1,316.5,493.8,316.7,495z"/>
<path class="st23" d="M443.6,312.4c2.4,0,4.8,0.1,5.6,3.1C447.3,314.5,445.2,313.9,443.6,312.4z"/>
<path class="st27" d="M260.1,428.8c-0.8,0-1.2-0.4-1.2-1.2c0-0.7,0.4-1.2,1.1-1.4c0.8-0.2,1.3,0.2,1.3,0.9
	C261.4,427.9,261,428.6,260.1,428.8z"/>
<path class="st27" d="M283,422.4c0.1,0.6-0.2,1.2-0.7,1.2c-1.1,0.1-1.6-0.7-1.9-1.6c-0.2-0.6,0.2-1.1,0.7-1.2
	C282.3,420.7,282.7,421.6,283,422.4z"/>
<path class="st27" d="M542.5,328.1c0,0.7-0.1,1.4-1,1.2c-0.7-0.1-1.1-0.6-1.1-1.4c0-0.7,0.4-1.3,1.1-1.3
	C542.3,326.8,542.4,327.5,542.5,328.1z"/>
<path class="st22" d="M408.2,515.3c-1.5,1.2-2.9,2.3-4.8,0.8C404.8,515.2,406.5,515.2,408.2,515.3z"/>
<path class="st27" d="M272.7,417.1c0,0.7-0.3,1.2-0.9,1.1c-0.3,0-0.7-0.4-0.7-0.7c-0.1-0.6,0.3-1,0.9-0.9
	C272.2,416.6,272.5,417,272.7,417.1z"/>
<path class="st26" d="M448.4,413c0.8,0,1.5,0.1,2.3,0.1c-1.3,0.4-2.4,1.9-3.9,0.7C447.3,413.5,447.9,413.3,448.4,413z"/>
<path class="st30" d="M339.1,115.8c1.1-0.8,2.3-0.6,3.5-0.4C341.5,116.1,340.3,115.8,339.1,115.8z"/>
<path class="st31" d="M400.7,238.1c-2.5-0.8-5-0.8-7.6-0.8c-2.1,0-2.4-0.8-1.3-2.4c2.1-3,2.9-6.5,3.9-10c3.2-11,15-18.4,26.4-16.7
	c7.4,1.1,14.8,1.8,22,4.3c0.8,0.3,1.5,0.5,2,1.1c-4.8,1.1-6,2.4-4.4,8.6c1.1,4-0.9,6.3-2.2,9.2c-1.7-1.4-1.3-3.4-1.6-5.2
	c-0.3-1.9-0.5-4-3.2-3.8c-2.5,0.2-2.3,2.2-2.4,3.9c-0.9,9.5-6.5,14.8-15,14.2c-7.2-0.6-13.2-8.2-12.1-15.4c0.2-1.4,0.7-2.6,2-3.3
	c1.1-0.4,2.1,0,3.1,0.1c1,0.1,1.9,0,2.3-1.1c0.2-0.5,0.1-1.1-0.4-1.4c-0.8-0.5-1.5-0.1-2.2,0.4c-0.6,0.5-1.2,1-2,1.4
	c-1.1,0.2-2,0.8-3,1.2c-4.6,2-5.5,4-4.8,9C400.7,233.6,402.8,235.8,400.7,238.1z"/>
<path class="st33" d="M408.1,222.1c-4,5.6,1.2,16,8.5,17c8.2,1.1,14-4.1,14.1-12.8c0-2.6-0.6-5.5,3.6-5.8c2.7-0.2,4.2,0.6,4.9,3.4
	c0.6,2.5,0.2,5.1,0.3,7.6c-1.2,5.5-5.3,8.6-9.8,10.8c-8.6,4.1-17.1,2.9-25.2-1.8c-1.3-0.7-2.5-1.5-3.7-2.3c-0.7-3.1-2-6.1-2.1-9.3
	c-0.1-5.6,1.8-7.3,9.2-8.3C408.6,221,408.5,221.5,408.1,222.1z"/>
<path class="st27" d="M555.8,308c-1.7,0.6-2.6-0.4-4-0.7C553.5,306.4,554.5,307.3,555.8,308z"/>
<path class="st34" d="M123.9,434.8c0.9,0.9,1.9,1.4,3.1,1.6c1.7,1.2,1.4,3,1.3,4.7c-0.6,7.5-1.4,14.9-1.1,22.4
	c0.2,6.1-1.1,12.2-0.8,18.4c0.9,16.7,0.9,33.4,4.6,49.8c0.4,1.8,1,3.7-0.7,5.3c-5.8,0.8-11.5,2.4-17.4,0.9c-1.3-0.3-3.4-0.4-3.2,1.8
	c0.4,3.8-2.4,4.9-4.9,6.5c-2,1.3-5.2,1.1-6.2,3.2c-1.1,2.3,1.5,4.3,2.1,6.7c0.8,3.2,0,4.2-3.4,3.2c-21.1-5.6-39.4-15.3-50.1-35.6
	c-0.4-0.7-0.9-1.3-1.3-2c-0.8-7.9,1.8-15.4,2.6-23c1.3-11.8,3.9-23.4,6.3-35c0.8-4,2.7-7.8,3.2-12c3.8-9.1,7.6-18.3,11.4-27.4
	c2.8-0.4,3.6,1.9,4.8,3.6c4.1,5.6,7.5,11.7,12.8,16.4c2.2,1.9,4.4,3.8,7.8,3.2c2.2-0.4,4,1.4,5.9,2.3c1.2,0.6,2.5,1.5,3.8,0.6
	c1.4-1.1,0.3-2.5-0.1-3.7c-1.5-4.2-2.8-8.4-3.4-12.8c-0.7-4.5,0.4-5.2,4.7-5.7C112.9,427.3,118.3,431.1,123.9,434.8z"/>
<path class="st29" d="M76.5,408.2c3.6-5,6-10.8,10.2-15.4c4.5,4.3,6.4,10.4,10,15.3c4.5,6.1,8.6,12.5,14.1,17.8
	c2.3,2.3,5.2,3.2,7.9,4.6c2,1.1,4,2.1,5.1,4.3c-1.1-0.4-2.4-0.6-3.3-1.3c-5-4.3-11.1-3.6-17-3.9c-2.2-0.1-1.8,1.2-1.6,2.7
	c0.7,5.2,2.1,10.2,4.1,15.1c0.6,1.5,1.7,3,0.2,4.4c-1.4,1.3-3.3,1-4.9,0.3c-1.2-0.5-2.3-1.4-3.4-2c-0.8-0.5-1.7-1.4-2.4-1.3
	c-8.7,1.9-11.4-5.6-15.7-10.2c-4-4.3-6.2-10-10.5-14.1C70.6,418.4,74.3,413.6,76.5,408.2z"/>
<path class="st35" d="M187.7,662.7c1.4,5.1,5,9.2,6.3,14.3c-1.3,1-1.4,3.4-3.6,3.3c-3.3-0.2-6.7,0.8-9.9-0.7c-2-0.9-2-2.6-1.5-4.4
	c0.5-1.7,1-3.3,1.6-4.9c1.1-2.8,0.3-4.8-1.9-6.7c-2.1-1.7-3.8-0.2-5.6,0.4c-0.9,0.3-1.7,0.7-2.5,1.1c0.3-2.5-0.9-3.2-3.2-3.2
	c-5.3-0.2-10.7,0.5-16-0.7c-4.9-1.1-9.2-3.4-13.6-5.7c-1.2-0.6-1.7-1.6-1.7-2.9c0-2.9-1.8-5.3-2.5-8c-0.5-1.8-1.9-2.2-3.7-2.2
	c-8.1-0.2-16.1-1.2-23.1-5.9c-1.3-0.9-3.3-1.7-2.5-3.5c1-2.3,0.3-5.9,4.2-6.3c1.1-0.1,2.2-0.1,3.1-0.5c2-0.9,3.3-2,2.3-4.7
	c-1.5-3.8-2.7-7.8-4.1-11.7c0.7-0.9,1.5-0.6,2.3-0.3c1.3,0,2.5,0,3.8,0c14.6,0.1,29.1-0.2,43.5-2.3c0.6-0.1,1.2-0.5,1.8-0.7
	c1.7-0.2,2.3,1.2,2.9,2.3c3.9,7,7.8,14,10.6,21.5c3.6,9.5,7.4,18.9,11.9,28C187.2,659.5,188,660.9,187.7,662.7z"/>
<path class="st35" d="M168.3,671.5c1.6-1.9,1-4.5,2.3-6.5c0.4,1.9,0.9,3.9,1.3,5.8c0.4,1.7,1,3.9-1.3,4.3
	C167.8,675.6,168.5,673.1,168.3,671.5z"/>
<path class="st36" d="M130.3,537c-2.1-9.8-3.9-19.7-4.3-29.7c-0.5-12.7-2.1-25.3-0.7-38.1c0.9-8-0.1-16.1,1-24.1
	c0.4-2.9,0.5-5.9,0.7-8.8c0.1-0.3,0.1-0.5,0.1-0.8c1.7-0.9,2.8,0,3.8,1.3c12,15.6,27.9,26.2,45.3,35c14.4,7.3,29.1,13.5,45.1,16.1
	c3,1.5,6.4,1.9,9.7,2.4c3.6,0.6,5.1,2.8,4.7,5.8c-0.8,5.9,2.2,8.4,7.3,10.1c4.5,1.5,8.9,3,13.5,3.9c1.3,0.3,3.4,0.4,3.2,2.4
	c-0.2,1.8-2.2,1-3.4,1.2c-2.2,0.4-4.5,0.7-6.9,1.1c0.7,1.9,2.4,1.6,3.6,2.2c1.1,0.5,2.6,0.8,2.3,2.3c-0.3,1.4-1.7,1.6-2.9,1.6
	c-3.9,0-7.8,0-11.7,0c-4.3,0-8.6,0.3-12.9-0.1c-4.4-0.4-7.3,1.1-9.7,4.6c-1.2,1.8-1.5,2.3,0.9,3.2c10.7,4.1,22.1,5.1,33.2,7
	c1.4,0.2,2.9,0.6,4.3,0.7c4.2,0.3,7.9,0.9,6.6,6.5c-0.5,2.1,3.9,3.6,0.9,5.7c-1.7,1.1-4.1,1.1-6.1,1.6c-0.9,0.2-1.8,0.5-2.7,0.8
	c-2.6,7.4-3.2,15.2-3,22.9c0.1,6-0.6,7.4-6.7,7.6c-8.2,0.3-16.3-0.6-24.5-1.1c-6.3-0.4-12.7-1.1-18.8-0.2c-12.6,1.8-24.5-1-36.4-4.4
	c-6.6-1.8-13-4.1-19.7-5.5c-1.8-0.4-3.2-1.3-4.5-2.5c-4.3-6.3-5.3-13.9-8-20.8C132.3,543.6,131.3,540.3,130.3,537z"/>
<path class="st37" d="M141.5,567.7c10.8,1.3,20.9,5.6,31.4,8.1c9.5,2.3,19,3.6,28.9,2.5c11.3-1.2,22.7,0.3,34,1.1
	c4.1,0.3,8.3,0.1,12.5,0.2c2.4,0.1,3-1.2,2.6-3.4c-1.5-6.7,0.2-13.3,1-19.8c0.3-2.2,1.1-4.4,3.2-5.7c0.4,5.4,3.8,9.6,5.8,14.4
	c0.5,1.3,2.1,1.6,3.5,1.7c10.4,0.8,19.9,5.1,29.7,8.3c2.5,0.8,5,1.8,7.5,3c1.8,0.8,3.2,1.8,0.3,3.4c-2.9,1.5-3.8,4-2.3,7.1
	c0.1,0.1,0.1,0.3,0.1,0.4c2.2,7.5,1.4,8.5-6.2,8.6c-7.2,0.1-14.4-1.2-21.6-0.9c-2.9,0.1-4.3-1.4-4.7-4.6
	c-1.8-12.9-0.9-11.3-12.4-11.3c-6,0-6,0-6,6c0,2.5,0,5.1,0,7.6c0,2.8-1.2,4.2-4.2,4.1c-5.6-0.1-11.3,0.1-16.9-0.1
	c-3-0.1-4.2,0.9-3.9,3.9c0.2,2.1,0.5,4.3-1.4,6c-1.4,1.4-2.8,2.3-4.9,2.2c-3.3-0.1-6.7-0.1-10.1,0c-2.4,0.1-3.4,1.1-2.1,3.6
	c1.7,3.3,4,5.9,7.6,7.4c8.3,3.5,16.6,6.5,26,5.9c7.9-0.5,15.8-0.2,23.7,0c3.5,0.1,6.9-0.9,10.4-0.9c2.5-0.3,2.8,1.7,3.2,3.2
	c2,7.5,4.9,14.7,7.5,22c1.8,5,1.1,10.3,2,15.5c0.3,1.7-0.4,3.8-2.6,4.6c-2.3,0.9-2.1,2.2-0.4,3.4c3,2.2,5.2,4.4,2.4,8.3
	c-0.4,0.6-0.3,1.3,0.2,1.9c2.1,2.2,2.2,5.4,3.7,7.9c2.1,3.5,1.1,6.9-0.1,10.1c-1.5,4.2-3.4,0-5-0.5c-1.2,5.3,0.2,6.5,5.2,5.1
	c0.8-0.2,1.5-0.6,2.3-0.1c0.3,0.8,0.7,1.5,1,2.3c-0.2,0.6-0.6,1.1-1,1.6c-12.9,1.5-25.9,1.8-38.9,1.6c-4.4-0.1-6.5-2.5-6-6.9
	c1.2-10.2,2.4-20.4,3.7-30.6c0.3-2.5-0.6-4.8-0.9-7.1c-0.2-1.7-1.7-1.7-3-2c-5.9-1.3-11.9-1-17.8-1.4c-13.6-1-27.2-1.7-40.8-2.5
	c-5.6-8-8.6-17.2-12.1-26.1c-4.1-10.5-9.1-20.5-14.6-30.3c-1.2-5-4-9.3-6.3-13.7C150.4,584.2,145.9,575.9,141.5,567.7z"/>
<path class="st6" d="M111.9,609.3c-0.8,0.1-1.5,0.2-2.3,0.3c-0.6-0.5-1.2-1.1-1.8-1.6C110.1,605.9,110.7,608.4,111.9,609.3z"/>
<path class="st38" d="M451.5,530.5c12.7-0.3,25.2-2.2,37.6-5.1c12.4-2.9,24.7-5.8,36.6-10.6c10.3-4.1,19.7-9.7,28.1-16.8
	c5.3-4.5,10.6-9,15.9-13.4c0.5-0.4,1.2-0.5,1.8-0.7c0,8.9-0.1,17.7-0.1,26.6c-4.3,6.8-8.6,13.6-14.9,18.7c-6,4.8-11.9,9.5-18,14.2
	c-3,2.3-4.3,4.8-4.5,8.7c-0.4,8.3-3.1,16.3-4.9,24.4c-1.2,5.5-3.1,10.8-4.3,16.3c-0.4,1.9-1.2,3.6-3.1,4.5
	c-12.4,4-21.3-3.2-30.3-9.6c-2.2-1.6-4-2.8-6.8-2.5c-1.9,0.2-3.9-0.2-5-2c-1.1-1.8,0-2.9,1.6-3.8c1.1-0.7-0.1-1-0.4-1.5
	c-1.2-1.9-1.1-4.1-1.6-6.1c-0.5-2,0.8-3.4,2.8-3.7c5.2-0.6,10.4-1.4,15.6-0.9c3.8,0.3,4.7,3.1,4.2,6.7c1.2-0.8,2.2-1.7,3.5-1.9
	c3.5-0.6,6.1-1.3,3.3-5.8c-1.1-1.8,0.2-3.8,2.2-4.8c-6.9,4.1-14.5,6-22.4,6c-18.2-0.1-36.2,1.1-54.3,2.6c-1,0.1-1.9-0.1-2.7-0.6
	c-13.2-1.1-26.3-2.3-39.5-3.2c-6.5-0.4-13.1-0.6-19.5-1.6c-1.7-0.3-4-0.2-4-2.4c0-1.9,1.8-3.4,3.6-3.8c3.2-0.8,6.6-1.1,9.8-1.7
	C406.8,552.3,430.3,544.6,451.5,530.5z"/>
<path class="st39" d="M590.9,665.6c-1.6,0.3-2.5,1.4-3.5,2.6c-5-0.2-9.1,2.7-13.6,4.2c-5.8,1.9-11.6,4-17.5,5.7
	c-6.1,1.8-12.2,3.8-18.4,5.5c-7,1.9-14.3,1.5-21.4,2.3c-8.4,1-16.8,1-25.2,0.9c0.2-0.8,0.4-1.6,0.7-2.5c-0.6-1.8,0.1-3.4,0.7-5
	c7.1-17.1,13.6-34.4,18.6-52.2c0.3-0.6,0.7-1,1.2-1.4c10.8-4.7,21.4-9.8,32.1-14.6c3-1.3,5.1-3.3,6.2-6.4c1.2-3.1,2.5-6.2,3.6-9.4
	c0.6-1.7,1-3.8,3.5-3.7c2.3,2.3,5,1,7.6,0.8c3.7-0.2,4.1,0.5,2.6,3.8c-0.7,1.4-1.4,2.9-2.1,4.3c0.3,6.9-1.1,10.1-7.8,11.6
	c-6.8,1.6-9.1,5.7-10.7,11.7c-2.3,8.4-6.8,16-10.5,23.9c-0.9,2-3.2,4.7-2,6.1c1.5,1.9,4.5,0.1,6.7-0.4c14.8-3.6,29.7-7.3,44.6-10.2
	c3.7-0.7,7-2.7,10.5-3.9c3.8-1.3,5.8-0.2,6.3,3.1c-1.3,7.1-5.8,12.5-9.4,18.4C592.8,662.4,591.3,663.7,590.9,665.6z"/>
<path class="st40" d="M557.9,591.7c-2.9,4-3.7,8.8-5.5,13.3c-1.6,3.9-3.9,6.3-7.9,7.8c-9.3,3.7-18.1,8.7-27.5,12.3
	c-1.4,0.5-2.6,1.4-4.2,1.3c-1-1.2-0.6-2.6-0.2-3.8c2.6-8.8,5.6-17.5,9-26c2.7-5,3.2-10.7,4.7-16c2.4-8.7,4.1-17.6,6.1-26.5
	c0.2-0.9,0.6-2,0.3-2.7c-1.5-4.3,1.2-6.4,4-8.6c6.6-5.2,13.3-10.2,19.9-15.5c2.2-1.7,4.2-3.7,5.7-6.2c2.4-4.1,5.5-7.5,9.1-10.6
	c-0.2,2.7-0.4,5.3-0.7,8C567.9,543.1,564.3,567.6,557.9,591.7z"/>
<path class="st41" d="M603.1,642.5c-1.5-3.1-4-2.9-6.4-1.6c-10.8,5.5-22.8,6.2-34.3,8.9c-5.7,1.4-11.3,3.1-17,4.5
	c-3.8,0.9-7.6,1.4-11.4,2.3c-2.4,0.5-2.7-0.2-1.7-2.2c2-4.2,3.8-8.5,6-12.7c4.3-8.2,7.6-16.8,10.3-25.6c0.7-2.1,1.8-3.1,4.2-3.6
	c3-0.5,5.8-2,8.7-3c2.3-0.7,2.3-2.7,2.8-4.5c0.4-1.5,0.6-3.2,1.7-4.4c1.5,2,3.1,3.4,5.9,3.3c4.1-0.1,5.4,2.2,3.9,6
	c-0.3,0.6-0.6,1.2-0.9,1.8c-1.3,3-0.2,4.8,2.8,3.9c8.4-2.4,17.2-1.5,25.5-4.5c0.7-0.3,1.6-0.3,2.3-0.5c1.3-0.3,2.1,0.4,2.6,1.4
	c0.6,1.1-0.2,1.7-1,2.3c-0.5,0.4-1.2,0.7-1.2,1.8c1.6,0.5,2.9-0.2,4.1-1.2c0.8-0.6,1.5-1.2,2.5-0.6c1.2,0.8,0.8,1.8,0.4,2.8
	c-2,5.6-4,11.3-6.2,16.9C605.7,636.9,604.3,639.7,603.1,642.5z"/>
<path class="st42" d="M604,707.7c0.5-4.9,1.8-9.6,3.1-14.4c2.4-9.1,1.3-18.3,1.4-27.4c5.1-2.2,10.7-1.5,16-2.4
	c3.5-0.5,7.1-1,10.6-1.7c1.7,13.7,3.1,27.4,5.6,40.9c0,0,0,0.1,0,0.1c-1.5,1.8-3.8,2-5.8,2.3c-8.6,1.3-17.2,2.1-25.8,3.7
	C607.3,709.2,605.4,709.4,604,707.7z"/>
<path class="st43" d="M512.1,627.2c-1.2,7-3.2,13.8-5.5,20.4c-1.9,5.3-4,10.5-5.9,15.7c-2.6,7.2-5.6,14.1-8.8,21
	c-6.4-1-12.7-1.2-19.2-0.1c-1.7,0.3-3.5-0.1-5.2-0.4c-2.9-0.4-5.7-1.5-8.7-0.4c-1.4,0.5-3.3,0.2-4.2-0.7c-3.2-3.1-5.9-1.7-9.2,0
	c-4.2,2.1-9,2.6-13.7,2.1c-2.6-0.3-5,0.4-7.6,0.4c-3.1,0-2.9,2.7-3.1,4.7c-0.3,2.2,0.4,4.4,0,6.8c-0.9,5.5-5.8,11.3-13.4,10.3
	c-1.4-0.2-2.7,0.1-3.7,1.2c-1.3,1.3-2.6,1.1-4,0.3c1.5-4.7-2.3-9.3-0.1-14c0.1-0.1,0-0.3,0-0.4c1.1-8.2,1.1-8.2-7.4-8.1
	c-10.8,0.1-21.8,0.5-32.5-0.9c-14.7-2-29.3-4.4-43.6-8.6c-9.1-2.7-18.3-4.8-27.4-7.3c-4.4-1.3-3.4,1.5-2.9,3.6
	c1.7,6.9,3.4,13.7,5.5,20.5c1.6,5,2.2,9.8-0.3,14.6c-1.6,1.4-3.1,2.7-5.6,2.4c-1.9-0.3-3.6-0.8-3.8-2.8c-0.2-2.3-1.2-5,1.2-6.7
	c1.2-0.8,3.1-2.2,2.8,1.2c-0.1,1,0,2.2,1.2,2.1c1.4-0.1,0.5-1.5,0.8-2.2c2.1-4.3-0.9-7.9-1.5-11.8c-0.3-2-1.8-2.9-2.9-4.2
	c-1.1-1.3-2.1-2.3,0.3-3.6c2.6-1.4,1.7-4-0.3-4.6c-3.1-0.9-3-4.3-6-5c2.6-2,6.3-1.1,6.9-3.9c0.5-2.2-1.2-4.7-1.1-7
	c0.3-12.4-7.5-22.5-9.4-34.2c-0.1-0.4-0.7-0.7-1.1-1.1c0.3-2.5-0.6-4.8-1.2-7.1c-0.4-1.5-1-3.1,0.3-4.1c1.5-1.2,3.1-0.1,4.4,0.8
	c3.6,2.3,7,4.9,10.7,7.1c13,7.9,26.9,13.9,42.1,16.2c1,0.2,2.6-0.1,2.6,1.3c0,1.4-1.6,1.2-2.5,1.4c-2.3,0.5-4.7,1-7.1,1.5
	c-3.1,0.6-3.9,2.4-2.6,5.2c2.9,6,8.7,8.6,14.2,10.4c3.6,1.2,8.3-0.9,12.5-1.6c8.4-1.3,16.7-3.7,25.4-3.6c2.9,0,4-2.1,5-4
	c2.4-4.7,6.1-8.1,10.4-10.8c2.1-1.3,3.9-2.8,5.6-4.6c7.7-8,15.8-15.6,24.6-22.3c1.1-0.8,2-1.8,2.2-3.2c1.1-1.3,2.6-1.8,4.1-2.4
	c4.8-2,9.6-4.2,12.5-8.9c1.1-1.8,2.9-3,5.1-2.2c2.3,0.8,2.7,2.8,2.9,4.8c0.5,4.6-1.8,7.9-4.9,11c-2.6,2.6-5.2,5.2-7.2,8.9
	c3.6,0.7,6.5-0.4,9.5-1c5-1,9.9-2.6,14.9-3.1c5.7-0.6,7.6,1.4,5.4,6.6c-2,4.7-2.2,9.6-2.8,14.5c-0.3,2.3,0.6,3.2,3,2.9
	c10.7-1.1,21.3-2.6,31-7.6c4.8-2.4,9.9-4,15.2-5.3C509.6,626.5,510.9,626,512.1,627.2z"/>
<path class="st44" d="M593.3,720.2c0-2.8,0-5.6-0.1-8.4c-0.1-2.4,0.8-3.4,3.2-3.2c2.5,0.2,5-0.3,7.5-0.9c6.9-0.9,13.7-1.8,20.6-2.7
	c5.4-0.7,10.8-1.4,16.2-2.1c0.1,5.8,1.6,11.6,1.8,17.4"/>
<path class="st27" d="M562.7,395.3c-1.7-1.1-2.7-2.6-3.3-4.7c-0.7-2.6-2.4-5-3.7-7.5c-0.8-1.5-2.4-3.1,1-3.5c1.9-0.2-0.4-3.3,2-3.6
	C560.9,382.2,560.8,388.9,562.7,395.3z"/>
<path class="st27" d="M558.6,375.1c-2-0.6-1.8-1.8-0.8-3.2C558.5,372.9,558.8,374,558.6,375.1z"/>
<path class="st43" d="M291.4,711.6c-0.6-1.1-0.1-1.5,1-1.6c0.6,0.5,0.7,1.1,0.5,1.8C292.4,711.7,291.9,711.7,291.4,711.6z"/>
<path class="st45" d="M512.1,627.2c-8.9,2.2-17.1,6-25.6,9.3c-8.3,3.2-17.2,3.8-25.9,5c-2.5,0.3-3.6-1.1-3.3-3.3
	c0.9-5.9,0.5-12.1,3.6-17.5c0.6-1,1.5-2.1,0.4-3.3c-1-1-2.2-0.7-3.4-0.5c-8.1,1.6-16.2,3.2-24.4,4.9c-1.2,0.3-2.4,0.7-3.2-0.7
	c-0.8-1.4-0.2-2.6,0.8-3.6c3-3.2,5.8-6.6,9-9.7c2.5-2.4,2.9-5.3,2.7-8.5c-0.1-1.5-0.4-3.1-2.2-3.4c-1.5-0.3-2.6,0.7-3.2,2
	c-3.2,6.4-9.5,8.2-15.5,10.6c-0.7,0.3-1.6,0.1-2.4,0.2c-0.5-2.4-1.7-4.2-4-5.2c-0.2-0.1-0.6-0.2-0.7-0.4c-3.2-5.4-7.4-2.8-11.5-1.5
	c-5.9,1.9-11.7,3.7-17.6,5.6c-1.3,0.4-2.7,1.2-4.5,0.1c1.6-1.5,3.1-2.9,4.7-4.2c4.3-3.6,6.5-9.1,11.2-12.5c2.1-1.5,3.9-3.1,6.4-3.8
	c10.3-2.9,20.6-5.8,30.8-8.7c1.8-0.5,4.6-0.6,4.7-3c0.1-2.2-2.6-2.7-4.3-3.7c-1.1-0.7-2.6-0.7-3.3-2.1c10.5-1.1,21-1.8,31.4-3.4
	c6.5-1,12.6,1.1,18.9,0.9c9.7-0.3,19.1-2.4,28-6.1c1.2-0.5,2.4-1.1,4.3-2c-1.6,1.7-2.7,2.7-3.5,3.9c-1.1,1.7-2.3,3.3,0.5,4.9
	c2.3,1.3,1.6,3.2-0.4,4.4c-1.1,0.7-2.4,1.3-3.7,1.4c-2.2,0.1-4,0.3-4.3,3c-0.1,0.7-0.6,1.6-1.6,1.4c-0.9-0.2-1.1-1.1-1.2-1.9
	c0-0.3,0-0.5,0-0.8c0.2-6.5,0.2-6.5-6.3-6.4c-3.6,0.1-7.3-0.6-10.8,0.5c-3.4,1-3.8,2.2-1.1,4.3c2.5,1.8-0.2,2.2-0.6,3.2
	c0.1,0.2,0.2,0.6,0.4,0.7c1.4,0.6,3.9,0.4,3.8,2.2c0,1.9-2.3,1-3.7,1.3c-0.7,0.1-1.4,0.1-1.6,0.9c-0.2,1,0.5,1.4,1.3,1.8
	c1.7,0.7,3.4,0.7,5.1,0.2c1.6-0.5,2.9-0.4,3.9,1c2.1,3.1,5.4,4.7,8.6,6.4c2.1,1.2,4.2,2.3,6.1,3.9c3.8,3.2,8.4,1.7,12.8,1.5
	c1.3-0.1,2.6-0.4,3.9,0.3c1.3,1.3,0.3,2.5-0.1,3.7c-2.9,8.7-5.8,17.4-8.7,26.2C512.6,626.7,512.3,626.9,512.1,627.2z"/>
<path class="st27" d="M502.7,316.7c-0.5,0.1-0.9,0.3-1.2,0.3c-0.5-0.1-1-0.4-0.8-1c0.1-0.2,0.7-0.3,1-0.2
	C502,315.9,502.3,316.3,502.7,316.7z"/>
<path class="st46" d="M194.1,103.5c-0.4-3.2,0.2-6.7,0.8-10.1c0.8-4.7,2.9-6.4,7.6-6.6c8.3-0.3,14.8,4.1,21.5,8
	c14.6,8.7,28,19.2,41.6,29.4c1.2,0.9,2.5,1.5,3.7,2.4c2.8,1.9,2.7,4.2-0.1,6c-1.2,0.8-2.6,1.4-4,1.7c-13.8,3.9-25.7,11-36,21
	c-6,5.8-11.7,11.8-17.2,18c-3.2,3.7-3.9,3.4-5.2-1.1c-5.7-19.4-9.4-39.2-11.9-59.2C194.3,109.9,193.9,106.9,194.1,103.5z"/>
<path class="st47" d="M264.8,212c0.9,0.1,1.9,0.2,2.8,0.3c4,0.6,4.7,1.7,3,5.5c-1,2.3-1.5,4.5,0,7.6c1.1-4.1,3.6-5.2,7.1-5.2
	c1.3,0,2.6-1.3,3.9-2c0.8,0.7,0.8,1.5,0,2.2c-4.3,6.1,1.4,17.1,9.3,17.8c8.1,0.7,13.7-4.7,14.3-13.7c0.2-2.5-0.2-5.1,3.9-4.9
	c2.6,0.1,3.5,1,3.9,3.2c0.9,4.5-0.1,8.7-1.4,13c-5,5.3-11.2,7.9-18.5,8.1c-9.4,0.3-15.8-4-20.3-11.7c-1.4-2.4-2.5-5-4-7.4
	c-3.2-5.2-7.4-8.8-14.1-7.5c-0.2-2.4,2-2.1,3.3-2.7C260.1,213.6,262.5,212.9,264.8,212z"/>
<path class="st27" d="M555.5,401.7c1.3,0,2.6,0,3.9,0c-0.5,1.2-0.9,2.6-2.3,3.2C556.6,403.9,556,402.8,555.5,401.7z"/>
<path class="st26" d="M416.9,419.5c0.3-2.6,1.3-4.9,3.8-5.2c2.7-0.3,5.6,0.5,6.3,3.7c0.7,3.2,0.9,6.5,1.2,9.8c0,0.4,0,0.8-0.2,1.1
	c-0.5,0.8-8.9-0.2-9-1.1C418.6,424.9,418.2,422,416.9,419.5z"/>
<path class="st26" d="M271.8,439.6c3.1,0,8.1,4.9,8.1,7.8c0,2.2-1.5,2-2.7,1.4c-3-1.4-5.9-3.1-8.1-5.6c-0.5-0.5-0.9-1.1-0.5-1.7
	C269.3,440.2,270.6,439.9,271.8,439.6z"/>
<path class="st26" d="M399.1,424c-0.4,1.3-1,2.4-2.4,2.3c-1.3-0.1-2.1-1.1-2.1-2.4c0-1.5,1.2-2,2.5-1.9
	C398.4,422.1,399,422.8,399.1,424z"/>
<path class="st26" d="M412.9,456.5c0,1.1-0.2,2.3-1.7,2.1c-1.1-0.2-2.2-0.6-2.1-2c0.1-1.2,0.7-2.4,2.2-2.4
	C412.9,454.2,412.9,455.4,412.9,456.5z"/>
<path class="st26" d="M433.9,441.9c-0.2-0.2-0.8-0.4-0.9-0.8c-0.3-0.6,0.2-1.1,0.8-0.9c0.4,0.1,0.9,0.6,1.1,1
	C435,441.6,434.6,441.8,433.9,441.9z"/>
<path class="st26" d="M301.8,449.5c0.3,0.3,0.5,0.5,0.7,0.8c0.1,0.1-0.2,0.4-0.3,0.6c-0.3-0.2-0.6-0.4-0.8-0.7
	C301.3,450.2,301.6,449.9,301.8,449.5z"/>
<path class="st26" d="M219.4,407.8c-1,5.3-0.3,10.6,0.3,15.9c0.1,1.5,0.7,3.9-1.4,4c-2.3,0.2-1.8-2.2-1.7-3.7
	c0.1-3.4-2.4-5.2-4.2-7.5c-1-1.3-2.2-0.6-3.2,0.2c-1.4,1.1-2.4,0.8-3.4-0.5c-1-1.5-0.3-3.2,0.9-3.3c4.8-0.4,5.6-5.5,9.3-7.2
	c0.8-0.4,1.3-1.5,2.4-0.8C219.4,405.6,219.8,406.6,219.4,407.8z"/>
<path class="st27" d="M141.6,301.9c0.8-0.8,1.8-2,3.6-1.3C143.8,301.1,142.7,301.5,141.6,301.9z"/>
<path class="st27" d="M547.4,401.1c2.6-1.7,4.6-2.1,6.7-1.5c0.8,0.2,1.4,0.9,1.4,1.8c0,1-1.2,1.1-1.7,1
	C551.8,402.1,550,401.6,547.4,401.1z"/>
<path class="st48" d="M281.6,220.5c0-0.7,0-1.5,0-2.2c1.4-2.8,3.3-3.2,5.7-1.4c1.6,1.2,2.1,3,0.5,4.4
	C285.6,223.3,283.3,223.5,281.6,220.5z"/>
<path class="st49" d="M408.1,222.1c-0.1-0.5-0.1-1.1-0.2-1.6c0-1,0.6-1.7,1.3-2.3c1.3-1.2,2.8-1.3,4.3-0.4c1.5,0.9,1.6,2.3,1.2,3.8
	c-0.5,1.6-1.8,2.1-3.4,2.2C409.9,223.8,408.7,223.5,408.1,222.1z"/>
<polygon class="st3" points="467.6,92.6 484.3,86.4 491.1,86.4 490.3,88.6 478.7,94.1 467.8,100.6 465.5,96 "/>
<line class="st50" x1="661.7" y1="720" x2="719.9" y2="720"/>
</svg>
