<?xml version="1.0" encoding="utf-8"?>
<!-- Generator: Adobe Illustrator 27.4.0, SVG Export Plug-In . SVG Version: 6.00 Build 0)  -->
<svg version="1.1" id="Layer_1" xmlns="http://www.w3.org/2000/svg" xmlns:xlink="http://www.w3.org/1999/xlink" x="0px" y="0px"
	 viewBox="0 0 720 720" style="enable-background:new 0 0 720 720;" xml:space="preserve">
<style type="text/css">
	.st0{fill:#687CA5;}
	.st1{fill:#FBF3D8;}
	.st2{fill:#F5B39E;}
	.st3{fill:#ED7067;}
	.st4{fill:#EDA28D;}
	.st5{fill:#FAF2D6;}
	.st6{fill:#D9D7C5;}
	.st7{fill:#FDDEB2;}
	.st8{fill:#B6C8BD;}
	.st9{fill:#C8CBBC;}
	.st10{fill:#DAD7C5;}
	.st11{fill:#8D9C96;}
	.st12{fill:#859F9F;}
	.st13{fill:#E79299;}
	.st14{fill:#324244;}
	.st15{fill:#1C2839;}
	.st16{fill:#9CAFAC;}
	.st17{fill:#81A0A2;}
	.st18{fill:#F9C0A5;}
	.st19{fill:#297FA9;}
	.st20{fill:#FDDBAB;}
	.st21{fill:#D3D0BE;}
	.st22{fill:#F5C4A4;}
	.st23{fill:#EA854C;}
	.st24{fill:#D3D2BF;}
	.st25{fill:#739993;}
	.st26{fill:#FBF2D9;}
	.st27{fill:#FBF4DB;}
	.st28{fill:#A89082;}
	.st29{fill:#8D9E95;}
	.st30{fill:#9FA99E;}
	.st31{fill:#A6B0A5;}
	.st32{fill:#2E3C64;}
	.st33{fill:#BDBFB2;}
	.st34{fill:#DAD7C6;}
	.st35{fill:#C8CC5F;}
	.st36{fill:#64AB9E;}
	.st37{fill:#EDAB99;}
	.st38{fill:#EB7C72;}
	.st39{fill:#B9BDAF;}
	.st40{fill:#B5AD9D;}
	.st41{fill:#F6CF40;}
	.st42{fill:#85B2AC;}
</style>
<rect class="st0" width="720" height="720"/>
<g>
	<path class="st1" d="M474.8,123.6c8.6-6.1,16.4-13,24.7-19.5c9.9-7.7,19.1-16.3,29.8-23c1.9-0.5,3.8-1,5.7-1.3
		c10.6-1.4,18.5,5.9,18.8,17.8c0.2,7.6-1.4,15-2.6,22.4c-1.7,11.2-3.6,22.4-5.5,33.6c-0.2,5.6,3.6,6.5,8.1,6.7
		c2.3,0.1,6.1,0.1,5.8,2.6c-0.4,2.9-4.1,1.8-6.5,1.6c-7.9-0.9-7.9-0.8-8.3,6.9c-0.6,10.3,1.1,20,4.9,29.5c4.3,10.7,7,22,11.4,32.7
		c2.8,6.8,5.9,13.4,9.3,19.9c7.9,14.7,16.3,29.3,23.2,44.6c3.7,8.1,6.8,16.3,9,24.8c3.7,14.9,10,28.8,16.8,42.5c0.3,0.7,0.7,1.3,1,2
		c8.5,19.5,17.7,38.6,24.1,58.9c0.6,1.8,1.7,3.7,0.5,5.7c-4,0.2-6.1,2.9-7.7,6.1c-1.7,3.1-4.3,5.4-7.3,7.3
		c-6,3.8-12.4,6.9-18.7,10.1c-6.4,3.1-10.1,2.2-14.6-3.3c-2.7-3.3-5.1-6.7-5.3-11.3c-1.3,0.2-1.6,1.2-2.2,1.9
		c-5.6,7.3-12,14-18.6,20.2c-4.4,4.1-7.9,8.9-12.5,12.7c-1.2,1-2.4,2.3-3.6,3.2c-4.8,3.8-6.3,3.8-11.3,0.6c-8-5.2-16-10.6-24.6-14.6
		c-1.2-0.6-2.5-1.4-3.6,0.1c-1,1.3-1,2.4,0.5,3.4c1.6,1.3,1.4,3-0.2,4.1c-2.9,1.8-2.1,3.8-0.8,6c2.7,4.7,4.8,9.6,7.2,14.4
		c1.8,3.5,1.3,5.1-1.9,7.2c-5.5,3.6-11.2,6.1-17.6,1.7c-1-0.8-2.3-1-3.6-0.7c-0.6,0.1-1.5,0.4-1.8,0c-2.9-2.9-6-0.6-8.9-0.7
		c-2.9-0.1-4.3,1.5-5.1,4c-0.5,1.4-1,2.9-1.3,4.3c-1.9,7.2-8.8,7.8-14.1,10c-7.6,3.1-16,3.4-24.1,4.8c-10.6,1.8-21.2,2.3-31.8,2.9
		c-2.1,0.1-4.2,0.2-6.4-0.1c-3.3-0.3-5.7-1.8-6.5-5.2c-0.6-2.6-2.2-3.6-4.6-4.2c-7.5-1.6-11.2-8.1-8.6-15.4c1.1-3,1.3-5.9,1-9
		c-0.7-6.5,0.3-12.6,4.9-17.8c0.2-0.2,0.3-0.5,0.5-0.6c3.7-1.9,5.5-4.1,3.4-8.7c-1-2.3,1.8-4,4.2-4c6-0.2,12-1.9,18.1-0.2
		c1.7,0.5,3.4,0,4.4-1.9c0.8-1.3,2-2.3,3.7-1.9c1.8,0.4,2.5,1.9,2.9,3.5c1.2,5.2,0.7,10.6,1.3,16.1c2.8-4.8,5.9-9.4,6.2-15
		c0.3-4.8,1.8-8.1,6.4-9.8c3.4-1.4,6.9-2.3,10.6-2.9c6.7-1.2,12.9-4.5,19.3-6.7c2.5-0.9,4.9-1.8,7.3-2.9c2.1-1,4.1-1,5.9,0.7
		c1.3,1.2,2.8,1.5,4.5,0.9c12.5-5.1,25.6-9.1,37.6-15.4c13.2-6.8,24.1-16.8,33.7-28.4c4.8-5.8,8.3-12.1,10.8-19
		c1.1-3.1,0.8-5.8-1.4-8.7c-3.2-4.3-6-8.8-8.1-13.8c-1.1-2.6-2.1-2.7-3.7-0.4c-2.8,4-6,7.6-9.5,10.9c-2.3,2.1-4.7,2.6-7.5,1
		c-5.7-2.9-12-4.9-17-9c-2-1.6-3.4-3.4-3.5-6.2c-0.5-8.7-2.3-17.5,0.6-26.2c0.9-2.7-0.4-5.2-2.4-7.1c-3.3-3.1-4.2-7.5-6.2-11.4
		c-1.1-2.3,0.2-4.3,1.5-6.2c4.1-5.9,9.6-10.4,14.4-15.7c3.3-3.7,4.6-7.8,5.3-12.7c1-7-1.1-13.8-0.4-20.6c0.3-2.6-0.9-4.5-3-5.9
		c-6-3.8-11.3-8.5-17.2-12.5c-3.9-2.7-5-2.5-6.3,2c-0.8,2.7-2.4,3.6-5,3.1c-0.4-0.1-0.8-0.2-1-0.3c-2.3-0.6-5.1-1.6-6.7,0.1
		c-1.6,1.8,0.9,4.1,1.2,6.2c0.9,4.6-0.4,9-2,13.2c-0.5,1.2-1.8,1.7-3.1,1.4c-6.2-1.4-12.5-2-18.4-4.2c-2.5-1-4.7-2-4.3-5.2
		c1.1-2.8,3-5.1,3.8-8.1c0.1-0.4,0.3-0.7,0.4-1c1-6.6,1-6.6,7.9-6.6c3.3,0,6.7-0.2,9.8-1.1c-5-1.3-9.4-4.2-13.8-6.9
		c-3.7-2.4-7.5-4.3-12.1-4.3c-0.6,0.1-1.2,0.3-1.8,0.2c-8.1-1.8-14.3,1.6-19.6,7.2c-0.5,0.5-1,0.8-1.5,1c-6,2.4-10.9,0.5-15.2-3.8
		c-2.3-2.3-4.9-4.2-7.3-6.4c-1.9-1.8-3.1-1.4-4.3,0.7c-0.6,1-1.4,2.1-2.2,3c-3.3,3.9-6,4.9-8.9,3.5c-3.8-1.8-5.6-5.3-4.8-9.9
		c0.7-3.7,1.3-7.3,2.2-10.9c0.4-1.6,0.5-3.2,1-4.8c1.5-4.5-1.5-6.9-3.9-9.7c-0.9-1-2.1-0.9-3-0.1c-1.7,1.4-3.9,2.6-4.9,4.5
		c-2.6,4.8-6.6,9.1-6.9,15c-0.2,3.3-1.7,5.9-4.4,7.9c-2.3,1.7-3.7,4.4-5.6,6.5c-4,4.4-8.6,8-14.9,8.1c-1.5-0.6-2.8-1.7-3.7-2.9
		c-6.1-7.1-13.5-10.8-23.1-9.2c-4.8,0.8-8.9,2.7-12.8,5.5c-3.9,2.9-8.4,4.9-12.7,5.8c4.3,1.3,9.2,1,14.2,1c1.3,0,2.8-0.2,3.7,1.1
		c1.1,2.3,0.7,4.8,1.1,7.2c1.8,9.4,14.8,14.3,22.2,10.7c5.1-2.4,9.6-5.2,11.1-11.1c0.2-0.7,0.7-1.3,1.3-1.8c4.4-1.2,7,1.9,9.6,4.4
		c1.9,1.8,3.1,1.9,5.3,0.7c10.2-5.8,21.3-7.4,32.7-6.4c5.3,0.5,9.7,3.7,14,6.7c2.4,1.6,4.3,2.1,6.5-0.3c3.1-3.3,6.8-1.8,10.5-0.8
		c2.8,2,4.8,4.7,6.5,7.6c-2.6,5.2-2.6,5.3,1.7,10c1.3,1.4,2.8,2.9,4.2,4.3c2,2.1,3.5,4.3,1.8,7.3c-0.7,1.1,0,1.8,1,2.4
		c0.8,0.4,1.6,0.8,2.3,1.2c1.7,1.2,3,2.8,2.8,4.9c-0.3,2.3-2.1,2.9-4,3.4c-0.7,0.2-1.4,0.3-2.4,1c1.4,1.2,3.1,1.4,4.7,2
		c5.2,2.2,5.7,4.8,4.3,10.4c-2.1,8.1-7.7,11.3-15,12.3c-4.7,0.7-9.5-0.5-14.1-1.9c-1.5-0.5-2.9-1.5-4.5-1.8
		c-2.4-0.8-4.8-1.7-7.4-1.2c-7.3-4.2-13.8-9.2-18.5-16.3c-2.9-4.1-3.2-8.8-2.5-13.6c1.5-5.9,5.4-9.9,10.5-13
		c1.2-0.8,2.7-1.3,3.8-2.3c2.5-2,2.3-4.4-0.3-6c-1.8-1.1-3.8-1.9-5.9-2.1c-6.7-0.9-13.4-1-20,0.5c-2.2,0.5-4.8,1-4.9,3.8
		c-0.2,2.6,1.9,4.2,4,4.8c6.8,2.5,9.5,8.3,12.1,14.3c1.3,7.4-0.5,13.7-6.2,18.8c-5,4.6-10,9.2-15.9,12.7c-1,0.2-2.3,0.3-3.2,1
		c-3.8,2.7-7.8,4-12.5,2.7c-2.4-0.7-4.5,1.2-6.3,2.7c-10.6,8.7-20.9,17.7-29.5,28.3c-0.7,0.9-1.3,1.8-2.3,2.5c-1,0.7-1.9,1.4-3,0.6
		c-1.2-1-0.7-2.2-0.1-3.3c0.2-0.4,0.4-0.7,0.7-1c5.4-7.3,11.2-14.3,18.3-20.2c3.2-2.7,5.9-5.9,9-8.7c-2.7,0.5-4.8,1.9-6.8,3.6
		c-3.9,3.2-8.3,5.9-12.2,9.2c-0.5,0.4-1,0.9-1.5,1.1c-1,0.5-2.3,1.6-3.3,0.3c-0.8-1,0.1-2.1,0.8-3c1.1-1.5,2.6-2.7,3.8-4.1
		c1-1.1,2.4-2.2,2.4-4.5c-5.5,1.4-10.9,2.5-15.7,5.6c-2.4,1.6-4.7,3.4-6.9,5.1c-4.1,3-5.1,2.7-6.2-2.3c-1.4-0.1-2.6,1-3.8,1.2
		c-1,0.3-2,0.7-2.8-0.3c-0.6-0.8-0.5-1.8,0.1-2.5c2.8-3.5,1.1-5.8-1.9-8c-1.6-1.1-3-2.6-4.7-3.7c-2.2-1.6-4.4-1.8-6.7-0.6
		c-3.5,1.9-6.1,1.9-8.8-1.9c-1.7-2.3-5.2-3.1-8.2-4.2c-1.1-0.4-2.4-0.7-3.6-1c-4.5-1.1-4.4-1.1-3.5-5.6c0.7-3.3,0.1-6.6-2.5-8.9
		c-2-1.9-3-4.1-3.8-6.7c-1-3.6-2.7-6.9-4.4-10.3c-4.1-8.2-6.2-17-8.5-25.8c-0.3-1.1-0.9-2.1-1.1-3.1c-0.3-1.7,0.3-3.1,0.9-4.7
		c5.5-14.6,10.2-29.7,15.2-44.5c4.5-13.1,4.2-26.5,1.2-40c-0.5-2.3-2.7-2.9-3.5-4.7c-1.1-2.3,2.9-2.7,2-5c-1.2-3.4-0.7-7-0.7-10.6
		c-1.6-9.9-3.4-19.8-4.8-29.7c-0.8-5.1-1.1-10.4,1-15.4c3.3-7.9,11.2-11.5,19.2-8.5c7.9,2.9,14.3,8.5,20.8,13.5
		c17.5,13.5,34.9,27.1,52.4,40.6c1.1,1,2.2,1.8,3.9,1.8c12.6-0.1,25.4-0.1,38-0.2c2-1.3,4.2-1.4,6.4-1.4c21.1,0,42.2-0.1,63.3,0.1
		c4,0,7.2-0.9,10.2-3.4c2.5-2.2,5.2-4.2,7.9-6.2C471.6,124.4,472.9,123.2,474.8,123.6z"/>
	<path class="st2" d="M656.3,474.5c3.1,9.7,4.9,19.8,6,29.9c1.3,13.2,1.9,26.4,2.5,39.6c0.4,2-0.3,4.1,0.4,6.1c0,0.7,0,1.3,0,2
		c-0.1,3.2-0.1,6.5-0.2,9.6c-6.3,8.5-12.5,17-20.2,24.2c-15.7,14.7-33,27-52.7,35.7c-4.8,2.1-9.5,4.4-14.5,6
		c-1.9,0.6-3.9,1.8-6.1,0.6c-1.1-1.9,0-3.6,0.8-5.2c6.9-14.7,12.7-29.9,16.5-45.8c0.8-3,1.5-6.1,1.8-9.1c0.4-4.6,2.7-7.7,6.4-10.4
		c15.6-11.5,28.4-25.6,38.5-42.1c1.4-2.4,2.7-4.8,3.9-7.2c4.9-9.9,10-19.7,13.5-30.2C653.4,476.4,654.2,474.8,656.3,474.5z"/>
	<path class="st3" d="M571.8,628.1c20.6-6.5,39.5-16.4,56.7-29.8c13.2-10.2,24.7-21.8,34-35.6c0.5-0.8,0.8-3,2.5-1
		c0.7,5.2-1,10.4-0.6,15.6c-1.6,10.6-3.8,21-6.7,31.4c0.1,2.5-0.4,4.8-1.2,7.2c-4.5,13.9-11.2,26.7-18.8,39.2
		c-1,1.5-1.7,3.4-3.9,3.7c-3.1,4.5-6.4,8.8-9.5,13.3c-6.7-0.2-13.1-2.3-19.7-3.8c-5.7-1.3-11.3-3.1-17-4.2c-4.8-1-9.8-1.2-14.6-2.1
		c-6.2-1-10.3-4.5-14.2-8.7c-0.5-1-0.4-2,0-2.9c2.9-6.8,6.6-13.4,9.9-20.2C569.4,629.1,570.2,628,571.8,628.1z"/>
	<path class="st4" d="M571.1,715.4c-11.1,4.7-22.7,7.7-34.6,9.6c-1.3,0.2-2.7,0.2-4,0.4c-2.7-3.1-0.2-6.7-0.6-10
		c4.4-18.3,12.8-34.9,20.8-51.7c1.1-2.5,2.1-5,3.4-7.5c0.8-1.4,1.3-3,3.2-3.3c2.3,1.4,4.7,2.7,6.3,5.1c0.5,0.7,1.3,1.4,2.1,1.4
		c4.5,0.4,8.7,3,12.9,2.9c7.8-0.4,14.7,2.8,22.1,4.2c6.4,1.2,12.7,2.9,19.1,4.5c1,0.2,1.7,0.9,2.7,1.3c-6.7,9.9-15.6,17.6-24.8,24.9
		C590.6,704.2,580.7,709.7,571.1,715.4z"/>
	<path class="st5" d="M656.3,474.5c-2.4,2.9-2.9,6.5-4.2,9.8c-3.2,8.5-7.3,16.5-11.5,24.5c-1.2,1-2.7,1.1-4.2,1
		c-11.6-1.2-23.2-2.6-34.7-4.4c-2.4-0.4-4.4-0.4-5.9,1.8c-0.2,0.3-0.5,0.7-0.9,0.8c-6.7,1.8-6.6,7.5-7.3,12.7
		c-1.3,8.2-2.3,9.1-10.6,9c-4.8,0-9.4,0.9-14.1,0.9c-2.9,0-5.1,1.3-6.8,3.9c-1.6,2.5-3.2,5-4.6,7.6c-3,6.1-7.6,10.2-14.5,11
		c-8.3,1-14.5,6-21.4,9.9c-1,0.6-1.9,1.2-2.9,1.7c-1.3,0.7-2.8,1.2-4.2,0.4c-1.2-1.9,0.1-3.3,0.9-4.8c3.4-6.1,7.5-11.8,12-17.1
		c4.5-5.3,7.4-11.5,10.6-17.5c0.5-0.9,1.4-1.9,0.5-2.7c-1-0.8-1.8,0.3-2.6,0.9c-2.7,1.8-5.3,3.7-7.9,5.6c-2.9,2.2-6.1,2.6-9.5,1.3
		c-4.6-1.7-9-3.4-13.7-4.9c-3.7-1.1-4.3-0.6-4.6,3.3c-0.2,3.3,1.3,6,2.8,8.7c2.6,4.8,2.1,6.6-2.8,9.4c-6.6,3.9-13.3,7.2-20.8,8.9
		c-2.6,0.6-5,1.5-7.3,2.8c-2.7,1.4-5.3,2.6-8.6,1.7c-1.5-0.4-2.9,0.6-4.3,1.1c-6.3,2.8-12.6,5.2-19.2,7c-4.4,1.2-6.2,0.3-7.7-4
		c-0.3-0.7-0.5-1.4-0.7-2.2c-1.8-6.7-2.1-7-8.9-6.1c-4,0.5-7.9,0.6-11.9,0.6c-4.7,0.1-6.2-1.1-7.3-5.7c-1.4-6-0.4-12.1-1-18.2
		c-0.2-2.2,0-4.5-0.5-6.7c-1.1-5.3-1.9-5.9-7.3-5.5c-6.7,0.5-13.2,0.2-19.7-1.3c-1.3-0.3-3.5,0.1-3.2-2.5c0.5-0.5,1-0.8,1.6-0.9
		c5.2-1.4,6.3-3.4,4.3-8.7c-2.9-7.3-6.2-14.4-8-22.1c-0.9-3.7-1-7.6-2-11.3c-0.2-0.8-0.1-1.5,0.1-2.2c1.6-7.4,11.7-14.6,19.2-14.1
		c8.1,0.7,16.3,1.8,24.4,0.8c1.7-0.2,3.4,0.2,5.2,0.4c3.6,0.3,7-0.3,10.4-2c5.8-2.9,12.3-3.9,18.6-4.9c1.1-0.2,2.2,0.1,2.9,1.1
		c-4,1.4-5.2,4-5.4,8.5c-0.2,6.6-4.1,12.1-7.1,17.8c-0.3,0.6-0.9,1-1.5,0.8c-0.8-0.4-0.9-1.1-0.9-1.9c0-2.9-0.2-6,0-8.9
		c0.2-3-0.8-5.9-0.8-8.8c0-1.1-0.5-1.9-1.5-2.3c-1.2-0.5-2,0.3-2.5,1.1c-1.6,3.2-4.3,3.1-7.3,2.5c-5.7-1.2-11.4,0.3-17,0.7
		c-3.2,0.2-3.6,2.3-1.4,5.4c2,2.9,1.6,4.4-1.3,5.3c-4.7,1.4-6.6,5.4-7.5,9.4c-1,4-1.5,8.3-0.3,12.5c0.5,1.7,0.1,3.6-1,5.3
		c-2.5,4.3-1.2,10.7,2.4,14c1,0.9,2.1,0.8,3.1,0.8c4,0.2,7,1.4,7.4,6.1c0.3,3.2,2.9,3.3,5.2,3.6c4,0.4,7.9-0.6,11.9-0.7
		c15.8-0.1,31.3-3,46.7-6.1c3.1-0.7,6.4-1.3,8.7-3.9c0.3-0.3,0.6-0.7,0.9-0.7c6.7,0.7,6.2-5,7.3-8.7c1.4-4.5,2.7-6,7.4-6
		c1.9,0,3.7-0.4,5.4-1.2c1-0.5,2-1.5,3-0.6c1.3,1.1-1.3,1.6-0.5,3.2c3.8-2.6,6.7-0.2,9.8,1.9c1.7,1.1,4.1,0.7,6.2,0.1
		c1.4-0.4,2.9-1,4.2-1.6c5.5-2.6,6.1-3.6,3.4-8.8c-2.2-4.3-3.7-8.9-6.6-12.9c-0.5-0.6-0.8-1.3-1-2c-0.8-2.3-1.4-4.4,2-5
		c0.9-0.2,1.8-0.6,1.6-1.7c-0.1-1-1-0.9-1.8-1c-2-0.3-2.5-1-1.4-2.9c2.8-5,3.5-5.4,8-1.8c2.4,1.9,5.3,2,7.7,3.5
		c5.5,3.5,11,7.1,16.4,10.8c3.7,2.6,4.3,2.8,7.8-0.1c4.8-3.9,9.4-8,13.2-12.9c2.3-2.9,5.1-5.4,7.9-7.8c6.4-5.5,11.2-12.2,16.5-18.5
		c0.8-0.9,1-2.7,2.7-1.8c1.3,0.7,0.6,1.9,0.3,3c-0.4,1.4,0.1,2.7,0.6,4c1.3,3.3,3.9,5.7,6,8.5c2.3,3.1,5.7,3.6,9.4,1.9
		c8-3.7,15.9-7.7,23.2-12.5c1.9-1.2,2.9-3,4-4.8c0.9-1.2,1.5-2.6,2.3-3.8c1.6-2.7,3.6-4,6.6-2C651.1,445.6,653.7,460.1,656.3,474.5z
		"/>
	<path class="st6" d="M215.1,287.9c3.3-7,6.7-14.1,10.2-21.4c-5.9-1-11.4,0.3-17,0.4c3.9-1.8,8.2-1.4,12.2-1.9
		c6.7-0.8,7.5-1,9.9-8.5c-6.7,0.4-13.4,1.3-20.2,0.6c1.2-1.2,2.7-1.1,4.2-1.2c4.8,0,9.6,0,14.5-0.7c1.9-0.3,3-0.7,3.9-2.6
		c1.3-3,3.1-5.9,4.8-8.7c1.3,0.6,1.4,1.8,1.8,3c1.1,3.7,2,7.4,2.9,11.1c2,7.7,6,14.6,8.8,22c0.6,1.3,1.1,2.8,1.3,4.3
		c0.2,1.5,1,2.4,2.1,3.3c4.3,3.4,5.2,9.2,2.4,14.2c4.7,1.5,9.8,1.8,13.7,5.1c1,1,1.9-1,3-0.5c-0.1,4.9,1.6,6.1,5.8,3.6
		c4.5-2.6,8.1-0.7,11.4,2.1c1.7,1.3,3.2,2.9,4.9,4.3c1.5,1.2,2.9,3.6,0.6,5.8c-0.9,0.9-1.6,1.8-1.7,3.7c2.2-1,3.9-1.9,5.6-2.8
		c0.8-0.4,1.6-1,2.5-0.4c1,0.7,0.2,1.5,0.1,2.4c-0.2,1-1.2,2-0.2,2.8c1.2,0.9,2-0.5,2.8-1.2c6.5-6,14.2-9.5,22.5-11.6
		c1.3-0.3,2.9-0.8,3.8,0.6c0.9,1.2-0.6,2.2-1.1,3.2c-1.9,3.3-5.5,5.2-7,8.9c4.3-3.2,8.7-6.5,12.8-9.7c3.1-2.5,6.2-5,10.1-6.1
		c0.8-0.2,2-1.1,2.7,0.2c0.4,0.9-0.3,1.8-1,2.3c-3.7,2.6-6.5,6.2-9.9,9c-5.3,4.6-10.4,9.5-14.5,15.3c-1,1.5-2.3,2.9-3.5,4.4
		c-0.8,1-1.8,1.7-1,3.9c3-3.4,5.9-6.4,8.6-9.5c4.4-5,9-9.9,14.3-14.2c3.6-2.9,7.2-6,10.7-9.1c3.1-2.8,6.5-4.2,10.6-2.3
		c1.7,0.8,3.1-0.1,4.6-0.9c2.3-1.2,4.4-2.9,7.1-3c0.8,2.2-1.1,3-2.2,4.3c-0.6,0.7-2.1,1-1.4,2.3c0.5,1,1.7,0.8,2.8,0.7
		c2.4-0.2,4.7-0.9,6.7-2.1c3-1.9,6.1-3.8,9.4-5.3c6.1-2.7,12-2.6,18,0.4c4.1,2.1,7.9,4.7,12.1,6.7c3.1,1.6,6.1,1.6,9.5-0.1
		c-3-1.5-5.6-3.2-8-5.2c-1-0.8-2.6-1.3-1.9-3.1c2.7-1.5,5-0.1,7.4,0.8c3.2,2.6,6.8,4,10.9,4.1c2.5,0.1,4.5,1.2,6.3,2.8
		c1.5,1.3,3.1,2.5,4.5,3.9c6.8,8.1,15.5,14.5,21.3,23.7c1.7,2.1,2.9,4.5,4.1,6.9c0.5,1,1,2-0.2,2.9c-2.7,0.1-4.3-1.7-6-3.3
		c-5.2-4.8-15.4-6.6-21.8-3.6c-2.2,1-4.2,0.9-6-0.6c-4.8-3.9-10.7-5.6-16.2-8.3c-2.5-1.2-4.7-0.8-6.2,1.5c-2.9,4.1-6.4,6.7-11.7,4.3
		c-0.2-0.1-0.6-0.2-0.8-0.1c-9.4,4.2-17.2-2.5-25.8-4c-1.8-0.3-3.4-1-5.4-0.3c-9.5,3.3-19.2,5.8-29.1,7.7c-3.8,0.7-5.3,2.5-6,5.9
		c-1,5.2-2.5,6.1-7.8,5.1c-2.9-0.5-5.7-1.6-8.7-1.9c-3.7-0.4-5.2,1.3-4.2,4.8c1.6,5.5,3.3,10.9,4.7,16.4c0.6,2.1,1.8,3.5,3.7,4.4
		c10.3,4.8,20.4,9.2,32.1,5c3.1-1.1,6.6-0.7,9.4,1c12,7.1,25,5,37.8,4.8c3.6-0.1,7.3-1.9,10.7,0.6c-2.6,3.6-1.4,7.2,0.3,10.7
		c0.7,1.4,1,3,1.1,4.7c0.3,3.3-1.2,5.1-4.6,5.6c-5.9,0.9-11.8,0.7-17.8,0.8c-8.6,0.1-17.1-0.2-25.6-0.8c-6.7-0.5-13.2-2.2-19.9-1.2
		c-3.4,0.3-6.5-1.2-9.7-1.7c-21.1-3.8-41.3-10.2-59.8-21.2c-7.5-4.5-14.4-9.7-20.5-15.9c-12.4-12.4-24.4-25.1-33.1-40.5
		c-6.6-11.7-10.8-24.2-12.8-37.6C214.3,292.1,214.2,290,215.1,287.9z"/>
	<path class="st7" d="M442.8,453.7c-6.7,0.2-13.6,1.6-19.4,4.3c-5.4,2.6-10.3,2.7-15.9,2.6c-5.3-0.1-10.6,0.3-15.9-0.1
		c-4.3-0.3-8.7-0.5-12.9-0.9c-3-0.2-5.6,0.7-8,3.1c-2.1,2.2-3.9,4.5-5.9,6.7c-1.8,1.9-2.5,4.2-1.2,6.8c1.5,3.1,1,6.7,1.9,10.2
		c1.8,7,4.8,13.6,7.5,20.2c1.2,2.9,1.1,5.5,1,8.4c-0.1,1.9-1.4,2.9-3.2,2.9c-1.6,0.1-3.2,0-4.8,0c-0.9,1.1-2.1,1.4-3.3,1.3
		c-12.3-1-24.5-2.4-36.1-6.7c-1.7-1.3-3.8-1.8-5.8-2.4c-8.7-2.3-17.1-5.1-25-9.4c-2.3-1.2-4.8-1.9-7.3-2.8
		c-5.2-1.7-9.5-5.3-14.1-8.2c-0.9-0.6-1.6-1.6-1.3-2.5c0.8-3.1-0.4-6.1-0.7-9.2c-0.1-1.6,0.3-3.2,1.5-4.5c2.1-2.2,4.8-1.6,6.3,1.3
		c0.8,1.5,0.7,3.4,1.9,4.8c0.7,0.8,1.3,1.6,2.5,1.2c1-0.3,1-1.3,1-2.2c0-4.8-0.2-9.3-5.4-12.4c-7.4-4.4-6.8-16.4,0.8-20.5
		c3.8-2,7.2-4.3,10.1-7.5c2.3-2.6,5-2.5,8.2-1.5c8.8,2.6,17.3,6.1,26.3,8.4c3.6,0.9,7.2,1.9,11,1.8c2.2,0,3.6-1,4.3-2.9
		c1.7-4.7,4.1-9.1,4.8-14.1c1-6.5,4-12.3,5.6-18.5c0.2-0.8,0.5-1.4,1.4-1.5c15.5,1.9,31.1,2.8,46.7,2.9c6.8,0.1,13.6-0.6,20.2-1.8
		c7.6-1.4,15.3-1.3,22.9-2.1c13.6-1.3,27.1-3.3,40.2-7.1c1.4-0.4,2.9-0.8,4.4-1c1.1,0,2.2,0.2,3.3,0.3c1.7,0.1,2.7,1.1,3.1,2.8
		c0.4,1.4,0.1,2.9-1.1,3.6c-2.7,1.6-2.6,3.9-2,6.5c1.2,6.1,1.6,12.3,3,18.3c1.2,5.2-0.1,7.9-3.3,9.7c-1.7,1-3.3,1.1-4.6-0.8
		s-2.8-2-4.8-1.1c-9,3.7-18.2,7.1-27.3,10.6C449.7,451.7,446.3,452.7,442.8,453.7z"/>
	<path class="st5" d="M453.2,450.7c3.3-2.5,7.5-3.1,11.2-4.8c5.5-2.3,11-4.4,16.6-6.6c1.6-0.7,3-1,4.3,0.8c0.8,1.1,1.4,2.6,3.1,1.8
		c1.7-0.8,3.4-1.9,3.5-4c0.1-2.1,0.4-4.4-0.3-6.3c-2.1-6.3-1.7-12.9-3.3-19.3c-0.6-2.4-0.5-5.1,2.9-5.8c1-0.2,1.4-1,1-1.9
		c-0.4-1-0.5-2.3-2-2.4c-1-0.1-2-0.1-2.9-0.1c-0.2-2,1.5-2.4,2.8-2.9c9.2-3.7,18.3-8,27.6-11.4c8.8-3.2,15.3-9.6,22-15.7
		c1.5-1.4,1.3-2.7-0.8-3.2c-6.2-1.8-11.1-6.5-17.7-7.7c-4.7-0.9-6.3-4.8-5-9.3c1-4.1,1.2-8.4,1.6-12.5c0.2-1.8-0.8-2.6-2.5-2.1
		c-2.4,0.7-4.6,2-6.8,2.9c-1.3,0.5-1,1.5-0.7,2.6c0.3,1,0.8,2.3-0.6,2.9c-1.1,0.7-2.2,0-3.1-0.6c-3.2-2.1-6.3-4.5-9.6-6.4
		c-2.8-1.6-5.3-2.6-8.5-1.3c-1.5,0.6-3.1,0.3-4.8-0.1c1.2,2.5,2.4,4.8,3.7,6.9c0.9,1.5,1.8,3,0.6,4.8c-2.7,0.8-3.1-1.8-4.7-2.9
		c-0.6-0.8-1.4-1.3-2.1-2c-2.3-2.5-4.6-5.1-8-1.5c-0.5,0.5-1.3,0.5-1.9-0.3c-2.9-4.6-6.2-8.7-10.6-11.9c-1.9-1.3-3.1-3.2-4.4-5
		c-3.1-4.8-7.9-7.9-12.1-11.6c-2.6-2.4-6.7-1.5-9.9-2.9c-2-0.9-3.9-1.5-4.9-3.6c4.7,2.9,10.2,2.8,15.2,4.1
		c5.1,1.4,14.3-4.5,15.5-9.6c0.3-1.1,1-2.3,1.5-3.4c1.7-3.6,0.8-6-3-7.4c-2-0.8-4-1.3-6-2.1c-0.8-0.3-1.8-0.5-1.6-1.7
		c0.2-1,1-1.3,1.9-1.5c1-0.3,2.2-0.4,3.2-0.7c1.1-0.3,2.7-0.2,2.9-1.8c0.2-1.5-0.7-2.6-1.7-3.6c-1.2-1.1-2.9-1.5-4.4-2
		c-2-0.7-2.5-1.8-0.9-3.1c2.7-2.3,1.2-4-0.5-5.9c-2.3-2.3-4.7-4.6-6.6-7c-3.9-4.9-3.7-5,0.8-8.7c3.4-0.7,6,2,9.1,2.2
		c0.6,0.1,1.1,0.4,1.8,0.5c0.9,0.3,1.6,1.1,2.5,0c3.5-1.4,7.1-2.8,10.3-4.9c0.5-0.4,1.1-0.5,1.7,0.1c-0.3,2.2,0.8,3.2,2.8,3.7
		c5.5,1.1,10.6,4.1,16.5,3.1c0.2,0,0.5,0,0.8,0.1c1.1,0.4,1.9,2.9,3.2,1.3s2.1-3.6,1.7-5.9c-0.1-0.6-0.6-1.5-0.3-1.8
		c3.3-3.6-0.1-6.6-1-9.6c-1-3.5-0.6-4.4,3-4.5c2.2-0.1,4.5-0.2,6.6,0.9c2.3,1.1,3.8,0.5,4-2.4c0.5-5.3,3.1-6.5,7.5-3.2
		c6.3,4.7,12.3,9.7,18.9,13.8c2,1.2,2.9,2.9,2.8,5.3c-0.2,3.5-0.7,7.1,0.2,10.4c1,3.6-0.2,6.9,0.1,10.2c0.8,9.5-5.3,14.8-11,20.2
		c-3.8,3.6-6.7,7.9-10.3,11.8c-0.7,0.7-1,1.8-0.4,2.5c2.7,3.2,2.5,8,5.9,10.9c3.5,3,4.6,6.9,2.8,11.4c-2.9,7-0.1,14.3-0.4,21.4
		c-0.2,6.3,4.2,8.7,8.7,10.9c3.8,2.1,7.9,3.6,11.8,5.6c2.1,1,3.6,0.9,5.3-0.9c3.9-3.9,7.5-7.9,10.6-12.5c0.7-1,1.3-2.3,2.9-2
		c1.3,0.3,1.3,1.6,1.8,2.7c2.6,5.8,5.7,11.3,9.7,16.2c2,2.4,1.6,4.8,0.9,7.3c-2.7,8.4-7.2,15.6-12.8,22.4c-7.4,9-16.6,15.9-25.7,23
		c-6.3,4.9-14.1,7.1-21.5,10.1c-7.6,2.9-15.3,5.9-22.9,8.9c-2.4,1-4.5,1.5-6.3-1c-1-1.4-2.5-1.2-4.1-0.6c-6.8,2.7-13.6,5.3-20.4,8
		C457.8,449.6,455.6,450.6,453.2,450.7z"/>
	<path class="st8" d="M493.4,151.8c5.2-4.8,12.1-7.1,17.3-11.7c-4.2,0.6-7.6,2.9-11.3,4.5c-2.7,1-5.2,2.1-8,2.7
		c-3.9,0.9-7.1,3.3-10.3,5.8c-1,0.8-2.1,1.3-3,2.1c-1.5,1-3,0.8-4.5-0.3c-1.5-1-1.9-2.6-1.4-4.3c1.1-5.1,4.2-8.9,7.5-12.9
		c6.2-7.4,14.3-12.9,19.7-21.1c2.1-3.1,5.9-4.8,8.7-7.4c6.2-5.7,12.1-11.8,18.9-16.7c2.9-2.1,5.9-4.3,9.9-3.1
		c6.2,1.7,8.8,5.1,8.7,12.8c-0.1,6.7-0.8,13.6-1.6,20.3c-1.4,11.5-3.5,23-5.7,34.4c-0.4,2.2-1,3.6-3.6,3.7
		c-8.7,0.1-17.4-0.2-25.9-2.2c-0.8-0.2-2,0.2-2.1-1c-0.1-1,0.9-1.4,1.5-1.9c1.6-1,4.8-1.7,4.2-3.5c-0.7-2.2-3.7-0.9-5.7-1
		C502.3,150.4,498,152.1,493.4,151.8z"/>
	<path class="st9" d="M260.6,90.2c3.9-2.6,7.7-1.5,11.2,0.5c7.2,4,13.5,9.1,20,14.2c4.7,3.6,9.5,7.1,13.7,11.4
		c6.9,6.9,11.8,15.4,16.3,23.9c1.9,3.6,2.4,8.2,4.1,12.2c0.8,1.8-0.6,2-1.9,2.2c-5,0.6-9.1-1.9-13.2-4.2c-1.5-0.9-2.8-2-4.6-2.2
		c-0.7,1,0.2,1.3,0.7,1.8c1.3,1.3,2.4,2.6-0.6,3.1c-0.9,0.2-2,0.6-2,1.4c0.3,3.8-2.5,2.9-4.5,2.9c-5.5,0-11.1,0-17.3,0
		c2,2.8,4.6,3.8,6.7,5.3c1.8,1.2,2.3,2.3,0.6,4.1c-2.2,2.4-4.6,4.6-7.8,5.5c-0.7,0.2-1.8,0.6-1.9,1c-0.9,4.8-5.5,5.3-8.6,7.6
		c-1.1,0.9-2.9,1.9-3.8-0.1c-0.9-1.7-1-3.9,1.2-4.8c2.3-1,4.8-1.6,7-2.9c-1.4,0-3-0.4-4.3,0.1c-4.2,1.5-5.1-0.7-5.7-4.1
		c-0.9-5.9-2.4-11.8-3.8-17.5c-1.3-5.8-2.9-11.7-4.6-17.4c-0.3-1-0.1-2-0.1-2.9c2.2-0.9,4.5-1,5.5-4c0.9-2.3,3.6-1.6,5.6-1.1
		c4.9,1.3,9.6,3.4,14.9,5.7c-1.5-2.7-3.3-4.8-0.8-7.2c1.8-1.7,3.4-3.3,6.4-3c3,0.3,4.6-2.5,3.4-5.5c-0.5-1.1-1.2-2.2-2.2-2.9
		c-6.9-6-13.9-12-21.3-17.4C266.6,93.6,262.9,92.9,260.6,90.2z"/>
	<path class="st10" d="M357.7,234.3c6.5-1.7,11.9-4.9,15.6-10.6c0.8-1.2,1.6-2.8,2.8-3.4c4.7-2.5,5.2-6.7,5.5-11.3
		c0-0.1,0-0.3,0-0.4c2.7-4.6,4.4-9.7,8-13.5c1-1.1,2.4-2,3.6-3.1c1-1,2.1-1.7,3.7-1.2c2.7,0.9,6.7,7.8,6.1,10.6
		c-1.2,6.2-2.5,12.4-3.7,18.5c-0.8,3.8,1.6,5.6,4.2,7.4c2.7,1.8,4.3-0.2,5.7-1.6c1.7-1.6,3.1-3.5,4.4-5.5c1.9-3,2.5-3.1,5.1-0.7
		c2.9,2.7,6,5.1,8.7,7.9c3.7,3.7,8.2,4.1,12.9,3.1c0.3,0.3,0.6,0.7,0.4,1c-2,4.8-2.9,9.7-3.2,14.7c-0.8,0.4-1.6,0.7-2.5,0.2
		c-3.5-2-6.2-0.9-8.4,2.1c-1.7,2.3-3.3,1.9-5.2,0.4c-1.8-1.4-3.9-2.7-5.8-4c-6.4-4.3-13.4-4.6-20.7-3.5c-5.5,0.8-11,1.6-16.2,3.9
		c-2.2,1-4.2,2.1-6,3.6c-1.7,1.3-2.6,1-3.8-0.9c-2.2-3.4-5.5-5.5-9.6-6.4C357.9,239.4,356.3,237.1,357.7,234.3z"/>
	<path class="st11" d="M260.6,90.2c7,1.4,12,6.2,17.4,10.4c4.5,3.5,8.7,7.2,13,11c2.2,1.9,4.1,3.8,3.5,7.5c-0.6,3.6-2.3,4.8-5,3.9
		c-3.8-1.4-4.6,2.3-6.5,3.5c-1.3,0.9,1,2.9,1.9,4.2c0.5,0.8,0.9,1.4,1.5,2.5c-2.4,0.6-4.1-0.5-5.7-1.2c-4.2-1.9-8.5-3.5-12.9-4.8
		c-2.2-0.7-3.9-0.7-4.3,2.7c-0.6,4.3-3.6,1.6-5.8,1.4c-1.8-10.3-3.6-20.5-3-31C255,96.1,255.5,91.6,260.6,90.2z"/>
	<path class="st12" d="M419.8,306.6c3.9,3.4,8.2,6.3,13.1,8.7c-6,3.6-11.3,2.9-16.6-0.7c-2.5-1.7-5.1-3-7.7-4.6
		c-7.1-4.2-14.1-3.3-21.1,0.7c-4.2,2.3-7.7,5.9-12.9,6c-0.9,0-1.7,0.4-2.6,0c-1.1-0.6-3.1,0.1-3.4-1.7c-0.3-1.5,1.3-2.3,2.4-3
		c1.5-1,2.9-2.3,3.9-3.9c6-4.2,11.5-9,16.9-14c4.8-4.6,5.1-10.5,4.8-16.5c1-1,1.9-0.8,2.9,0c-1.4,10.6,4.9,17.1,12.4,22.9
		C414.4,302.6,417.1,304.5,419.8,306.6z"/>
	<path class="st13" d="M399.4,277.5c-1,0-1.9,0-2.9,0c-1.1-1.9-2.3-3.8-3.2-5.8c-1.6-3.2-3.8-5.5-7.4-6.7c-3.2-1-6.6-3.1-6.1-6.9
		c0.5-3.9,4.3-4.6,7.7-5.1c6.7-1,13.5-1.1,20.2,0.1c1.4,0.3,2.9,0.9,4.2,1.4c2.1,0.9,4,1.8,4.1,4.7c0.1,2.9-1.6,4.3-3.8,5.3
		C406.2,267.1,401.8,271.4,399.4,277.5z"/>
	<path class="st14" d="M357.7,234.3c0.9,2.4,1.2,4.9,1.5,7.5c-1.6,7.8-6.7,12.2-14.1,14.2c-11.7,3.2-22.4-5-22.5-17.1
		c0-0.8,0-1.5,0.1-2.2c-0.6-4.8,2.1-8.1,4.8-11.5c1-1.2,2.4-2.2,3.4-3.4C343.1,218.8,350.7,225.8,357.7,234.3z"/>
	<path class="st15" d="M437.5,246.2c-1.3-5.6-0.1-10.8,2.9-15.7c4.1-4.4,8.2-8.7,14.6-9.3c2.9-0.3,5.7,0.4,8.5,0.5
		c6.4,2.9,10.1,9,9.5,16.1c-0.1,1.8,0.3,3.7-0.3,5.5c-0.8,2.8-2.1,5.2-3.8,7.5c-3.5,2.9-7.6,4.8-12.1,5.8c-0.7,0.8-1.4,0.6-2.1,0.1
		c-4.1-0.3-7.6-2.1-11.2-3.7C441.1,251,439.1,248.8,437.5,246.2z"/>
	<path class="st16" d="M472.7,243.2c1.2-9-3.1-15.7-9.2-21.6c4.3-0.9,8.1,0.6,11.5,2.9c5.5,3.8,11.3,7,18.3,9.1
		c-4.1,2.3-8.2,2.9-12.4,2.8c-0.5,0-1,0-1.5,0c-1.8,0.2-4-0.8-5.4,0.5c-1.3,1.1-0.3,3.3-0.7,4.9C473.3,242.5,473,242.8,472.7,243.2z
		"/>
	<path class="st17" d="M330.9,221.6c0,0.6,0.4,1.2-0.2,1.7c-4.1,3.5-6.1,8.3-8,13.1c-5.1-0.3-10.4,0.8-15.5-0.7
		c-1.6-0.5-3.4-0.7-5.3-2.2c8.2-1.5,14.4-6,20.8-10.1C325.1,222.1,327.9,221.5,330.9,221.6z"/>
	<path class="st18" d="M215.1,287.9c1,6.1,1.9,12.3,3.5,18.3c4.8,18.3,14.1,33.9,26.9,47.7c5.3,5.7,10.3,11.8,15.9,17.2
		c4,3.9,8.5,7.2,12.9,10.6c9.7,7.5,20.7,12.4,32,16.7c10.7,4.1,21.9,7.1,33.3,9c0.4,0.1,0.7,0.4,1,0.6c2.5,2.1,2.8,3.7,0.2,5.1
		c-8.7,4.8-17,10.6-27.9,6.4c-4.8-1.9-5.7-1.2-8.8,2.9c-3.2,4.3-6.6,8.5-11.1,11.4c-1,0.7-1.7,1.5-2.1,2.6c-2.8,6.6-8.7,9.3-14.6,12
		c-7.6,3.4-16.1,4.4-24.1,6.7c-3.3,1-5-1-4-4.4c0.5-1.5,1-3,1.5-4.6c-1.4,4.9-2.9,9.9-7.3,13.2c-2.6,1.9-2.4,4.9-2.3,7.8
		c-2,1.4-3.3-0.1-4.4-1.3c-4.3-4.9-9.4-9-14.2-13.5c-0.2-3.8-2.1-6.7-4.3-9.6c-4.6-6.2-8.8-12.6-11.9-19.8
		c-1.9-4.3-3.3-8.7-4.3-13.4c-0.4-1.9-0.3-3.8,1.8-4.8c2.2-1,3.9-0.3,5.1,1.6c1.2,1.8,2.5,2.8,4.9,1.7c2.1-0.9,3,0.8,2.9,2.6
		c-0.2,2.1,0.9,2.2,2.5,2.1c3.2-0.2,6.4-0.8,9.6-1.4c0.8-0.2,2-0.1,2-1.2c0.1-1.2-1.1-1.5-2.1-1.8c-2.4-1-4.8-0.6-7.3-0.1
		c-1.7,0.4-3.2-0.2-4.3-1.6c-0.9-1.2-1-2.7-0.1-3.9c1.5-2.1,3.3-3.8,6.2-3.4c1.2,0.2,2.5,0.4,3.7,0.3c0.8,0,1.6,0.1,2-0.8
		c0.5-1-0.2-1.7-0.9-2.3c-1.8-1.4-3.6-2.8-3-5.8c-3,3.2-6.2,6-8.3,9.7c-2,3.5-5,3.1-6.7-0.4c-0.7-1.5-1.3-2.9-2.5-4.1
		c-1.1-1.2-0.6-2.9-1-4.3c-1.5,0.1-2,1.3-2.9,2.2c-2.6,2.8-4.7,2.8-7-0.3c-1-1.4-1.8-2.9-2.3-4.7c-1.4-4.4-2.4-8.8-3.7-13.3
		c-1.2-4.3,0.3-6,4.7-6.2c2.7-0.1,2.8-1.5,2.3-3.5c-0.3-1.1-1.1-1.9-1.9-2.8c-1.1-1.4-2.2-3-2.8-4.8c-1.2-3.9,0.7-7.4,4.6-8.1
		c2.8-0.5,3.7-2,3-4.5c-0.8-2.8-0.4-4.8,2.3-6.3c1.7-1,1.4-2.8,1.3-4.4c-0.6-5.9-1.6-11.8-2.5-17.7c2.4-5.8,4.8-11.5,7.2-17.3
		c0.5-1.1,1-2.2,1-3.5C211.1,294,213.1,291,215.1,287.9z"/>
	<path class="st19" d="M665.1,550.2c-0.7-2-0.5-4.1-0.4-6.1C665.6,546.1,665,548.1,665.1,550.2z"/>
	<path class="st20" d="M508.5,564.9c1.7,0.1,3-0.9,4.5-1.7c5-3.1,10.2-6.3,15.2-9.3c2.7-1.6,5.8-1.2,8.7-1.8
		c7.5-1.3,11.4-6.3,14.6-12.5c0.2-0.5,0.5-0.9,0.7-1.3c2.9-6.5,7.3-9.9,15-9.4c4.8,0.3,9.6-0.7,14.5-0.6c2.4,0.1,3.6-1,4-3.5
		c0.6-4,1.4-8.1,2.1-12.1c0-0.3,0-0.5,0.1-0.8c0.3-1.4,9.7-8.7,11-8.5c12.4,1.8,24.6,3.7,37.1,4.8c1.6,0.1,3.1,0.8,4.8,0.6
		c-5.5,11.9-13.4,22.1-22.2,31.5c-7,7.6-14.5,14.6-23.2,20.3c-2.6,1.7-2.6,4.4-3,6.8c-2.9,17.2-8.6,33.7-15.8,49.5
		c-1.6,3.6-3.6,7-4.6,10.9c-2.3,1.8-2.7,4.7-3.9,7c-2.8,5.1-5.3,10.4-8,15.5c-6.1,4.7-12.1,9.5-19.4,12.4c-3.1,1.2-6.2,1.8-9.4,0.5
		c-5.3-2.2-10.7-3.9-16.1-6c-4.9-1.9-8.3-4.7-6-10.4c0.7-1.7-0.1-2.8-1.9-2.6c-9.7,1.3-14.8-4.6-19.2-11.9c-0.1-0.2-0.3-0.4-0.4-0.7
		c-1.3-4-3-6.7-8.2-4.8c-2.2,0.9-3.7-1.4-4.1-3.8c-0.4-2.2,0.3-4.2,1.1-6.2c8-17.6,17.3-34.3,28.3-50.2
		C505.6,566.1,506.4,564.4,508.5,564.9z"/>
	<path class="st21" d="M508.5,564.9c-5.1,5.8-8.9,12.5-12.8,19c-6.7,11.4-13.4,22.9-18.4,35.2c-0.6,1.3-0.9,2.6-0.9,4
		c0.2,3.1,1.7,4.1,4.7,2.9c4.6-2,4.8-1.6,6.6,2.9c2,5.1,5.2,9.6,9.6,12.9c2.9,2.3,6.7,1.2,10.2,1.3c4.4,0.1,4.6,0.2,2.9,4.5
		c-1.3,3.4-1,6.1,2.7,7.5c7,2.8,14.2,5.4,21.3,7.9c2,0.8,3.8-0.7,5.7-1.3c5.8-2.1,10.6-5.9,15.5-9.4c1.3-1,2.7-1.8,4.4-1.7
		c-0.2,0.8-0.4,1.4-0.7,2.2c-9.4,20.3-20.2,40.1-26,62c-1-0.4-1.4-1.3-1.9-2.2c-1.7-3-4.2-5.3-7.3-6.7c-5.7-2.4-11.4-4.7-18-3.2
		c-3.3,0.8-6.9,0.1-10.4-0.1c-2.4-0.2-3.7-1.7-4.6-3.9c-1-2.7-2-5.3-3-8c-0.7-1.8-1.7-2.9-3.8-2.8c-6.1,0.5-12.1,1.2-18,2.7
		c-1.7,0.4-2.8,1.6-3.6,3c-4.8,7.8-9.8,15.5-12.6,24.4c-0.3,1-0.5,2-1.8,2.1c-2.9-3-1.9-6.9-2.4-10.6c-0.9-6.5,1-12.7,2.4-19
		c1.6-7.4,3.1-14.8,5.5-22c0.7-2,0.5-3.3-2.1-2.4c-12.6,4.8-26.2,5.3-39.4,7.5c-3,0.5-6,0.4-8.8-0.4c-6.5-1.6-13.1,0.1-19.5-2.1
		c-1-0.4-2,0.2-2.8,0.8c-4,2.7-8.2,5.1-12.5,7.5c-3,1.6-4.1,4.1-3.2,7.5c1.5,5.9,1.7,12,2.2,18.1c0.3,1.4,0.3,2.9-0.7,4.2
		c-1.5,1-1.9-0.4-2.4-1.2c-2.6-5.2-6.2-9.9-9.6-14.6c-1.9-2.7-4.5-4.7-7.5-5.9c-7.7-2.9-15.5-4.3-23.8-2.8c-2.9,0.6-4.5,2.2-5.3,4.6
		c-1,2.5,1.3,3.4,2.6,4.8c0.3,0.4-0.1-0.1,0.3,0.3c1.5,1.4,3.8,2.7,3,5.1c-0.8,2.5-3.3,2.2-5.4,2.5c-10,1.3-19.9,3.1-29.2,7.2
		c-4,1.7-6.9,3.9-6.2,8.8c0.2,1.4,0,3-1.1,4.2c-2.1,0.2-2.3-1.5-2.2-2.8c0.7-10.5-4.7-19.2-8.5-28.2c-4.8-11.4-10.6-22.5-16.4-33.5
		c-1.5-2.8-3.4-5.5-2.8-9c1.3-2,3.2-1.3,5-1c3.8,0.8,7.5,1.6,11.3,2.2c2.8,0.5,3.6-0.4,2.9-3.2c-1.2-5-2.3-10.2-1.9-15.5
		c0.1-1.3-0.1-2.8,1.1-3.7c2.3-1.3,4.7-0.2,6.9-0.2c10.2,0.1,20.2,0.4,30.4,0c3.1-0.1,6.1-1,9.2-1c2.3,0.6,4.5,1,6.9,0.2
		c1.6-0.6,3.5-0.1,5.1,0.6c3.5,1.5,6.5-0.1,8.8-2.3c2.2-2,1-4.7,0.2-6.9c-4.9-13.1-9.6-26.4-16.3-38.8c-5.9-11.1-13-21.5-20.5-31.5
		c-3.7-4.9-6.5-10.1-3.7-16.4c1-2.1,0-2.9-2-3.8c-3.1-1.2-7.1-0.8-9.1-4.3c-0.1-1,0.4-2,1.1-2.7c2.6-2.5,5-5,7.3-7.8
		c1.6-2.1,4.4-2.2,7-1.6c-0.5-1.7-2-2.3-2.9-3.3c-0.9-1-1.9-1.9-1-3.2c0.8-1.2,2.1-1.2,3.3-0.7c2.9,1.2,5.8,1.9,8.7,2.9
		c5.1,1.6,10.5,2.8,15.7,4.5c12.8,4.1,26.1,6,39.5,6.7c7.6,2.1,15.3,2.9,23.1,2c5.8-0.6,7-0.1,8.2,5.5c1.2,6.2,1,12.5,1,18.8
		c-0.1,3.5,0.6,6.9,1.7,10.2c0.6,1.7,1.9,1.9,3.6,1.7c6.1-0.4,12.2-0.6,18.2-1c2.9-0.2,4.3,1.2,4.8,4c0.4,2.5,1.1,4.8,1.9,7.2
		c0.7,2,2,2.6,4.1,1.9c7.5-2.6,15.1-4.9,22.2-8.5c0.8-0.4,1.9-1,2.4-0.7c3.5,2.2,6.1-0.1,8.8-1.5c5.5-2.8,11.7-3.3,17.2-5.9
		c4.2-1.9,8.1-4.3,12.2-6.4c2.1-1,2.7-2.6,1.3-4.8c-2.2-3.8-4.6-7.6-3.9-12.5c0.5-3.8,1.4-4.9,5.2-3.7c4.8,1.5,9.4,3.1,14,5.1
		c3.7,1.5,6.8,1.5,10-1.2c2.5-2.2,5.4-3.9,8.1-6c1.4-1.1,2.9-1.9,4.4-0.8c1.7,1.3,0.2,2.9-0.5,4.3c-4.8,11.4-13.3,20.5-20.2,30.7
		C511.8,559.1,510.2,562.1,508.5,564.9z"/>
	<path class="st22" d="M200.9,317.9c3.4,2.7,1.8,6.7,2.9,10.1c0.8,2.5,0.5,5.1,1,7.7c0.7,3.1,0.1,5.3-3.3,6.3
		c-1.7,0.5-1.1,1.8-0.6,3c1.8,4.5,0.2,6.8-4.5,6.8c-2.5,0-4.4,3.8-3,6.6c0.9,1.8,1.8,3.7,3.5,5.1c1.8,1.5,2.5,3.9,1.4,6.1
		c-1,2.4-2.9,1.8-5,1.2c-2.4-0.8-2.9,1.6-2.5,2.9c2.2,6.2,2.5,12.9,5.8,18.7c2,3.6,3.3,3.5,5.8,0.2c0.8-1,1.5-2,2.5-2.8
		c0.9-0.8,1.9-0.3,2.8,0.3c1,0.7,1,1.5,0.3,2.3c-1.4,1.3-1,2.2,0.4,3.1c1.3,0.9,1.7,2.4,2.2,3.8c0.4,1,0.1,2.5,1.7,2.5
		c1.6,0.1,2.5-1,2.9-2.4c1.6-4.5,5.5-6.8,8.7-10c0.3-0.3,0.9-0.3,1.8-0.6c-1.5,3.6,0.2,5.4,2.9,6.8c1.4,0.8,1.8,2.4,1.2,4
		c-0.6,1.7-2,1.4-3.4,1.2c-1.6-0.3-3.2-0.1-4.9-0.7c-1.6-0.5-3,1.7-4.4,2.9c-0.8,0.7-0.7,2.2,0.2,3c1.3,1.3,2.9,1,4.5,0.4
		c3-1.3,5.8,0.1,8.6,1c1.3,0.5,2,1.9,1.7,3.4c-0.3,1.3-1.6,1.3-2.7,1.5c-4.4,0.6-8.8,1.1-13.2,1.8c-2.2,0.3-3.3-0.1-1.8-2.5
		c0.6-1,1.3-2.2,0.2-3c-1.1-0.9-1.6,0.7-2.4,1.1c-3.1,2-4-1-4.8-2.7c-1-1.7-1.8-2.5-3.7-1.7c-1.2,0.5-1.7,1.1-1.4,2.5
		c0.7,2.4,0.3,5,2.4,6.8c0.2,0.2,0.4,0.4,0.5,0.6c1.6,11.7,9.5,20.2,15.8,29.3c1.7,2.5,2.2,4.6,1.2,7.1c0.6,1,0.1,1.9-0.5,2.8
		c-2.8,4.3-4.5,9-6,13.8c-0.2,0.9-0.6,1.7-1,2.6c-1.2,1.3-1.6,3-2.4,4.6c-1.6,2.9-3.6,2.9-5.2,0c-1.5-2.8-2.6-5.7-1.5-8.9
		c0.9-2.6-0.1-4.5-1.9-6.4c-4.5-4.6-9.5-8.4-14.6-12.1c-5.9-4.3-8.9-9.2-6.7-16.8c1.3-4.8-0.4-6.7-5.9-7.7c-2.3-0.5-4.9-2-6.8-1.1
		c-2.8,1.1-0.7,4.2-0.8,6.3c-0.8,16.9,4.1,32.5,12.7,47c6,10.1,13.6,19,20.6,28.2c2.1,2.8,5.2,4.1,7.6,6.6c1,1.9,1.3,4,1.3,6.1
		c-0.4,11.8,1.3,23.4,3.2,34.9c0.3,1.6,0.6,3.1-0.1,4.8c-1.7,2.7-3.7,1.1-5.5,0.2c-5.5-2.9-10.6-6.5-15.7-10.1
		c-15-10.8-28.9-22.8-39.6-38c-3.6-5-6.4-10.6-8.4-16.6c-0.9-5.8,1-11.3,2.3-16.8c3.9-16.4,7.7-32.9,13.7-48.6
		c4.9-12.9,9.3-26.1,14.5-39.1c0.6-1.5,1.2-2.9,2.6-4c4.2-8.9,7.9-18.1,10.6-27.6c3.4-12.5,6.8-25,11.9-36.9
		C200.3,318.6,200.6,318.2,200.9,317.9z"/>
	<path class="st23" d="M142.7,554.4c0.6-5-0.6-10.1-0.8-15.1c-0.4-8.7,1-17.2,0.8-25.9c1.5-4.2,0.2-8.7,1.4-12.8
		c0.5-1.6,0.5-3.4,0.8-5.1c0.2-1-0.2-2.2,0.8-2.9c6.7,16.5,18.5,28.8,31.6,40.3c9.6,8.6,20.1,15.7,31,22.4c1.4,1,2.9,1.9,4.7,2.2
		c2.3,0.4,2.9,2.3,3.2,4c3.9,16.6,10.9,32,18.9,47.1c1.5,2.9,2.7,5.9,3.6,8.9c0.6,1.8,1,3.6-0.4,5.2c-1.7,1.1-3.6,0.5-5.3,0.2
		c-3.7-0.8-7.3-1.9-10.9-3c-8.5-2.3-16.5-5.3-24.5-8.9c-19.5-8.7-36.3-21.1-50.8-36.7c-1-1-2.1-1.7-2.9-2.9
		C142.7,565.7,140.9,560.2,142.7,554.4z"/>
	<path class="st24" d="M110.5,730.9c-20.2-3.1-38.7-10.5-54.5-23.8c-14.8-12.5-26.5-27.5-35.9-44.3c-0.3-0.6-0.8-1-1.1-1.4
		c-1-0.7-1.5-1.6-1.5-2.8c-0.1-4.8-0.6-9.8,0.4-14.6c3-3.4,11.8-5.4,16.5-3.3c8.9,4,18.1,7.5,26.6,12.5c4.4,2.6,9.3,4.1,13.9,6.3
		c8.9,4.5,17.9,9.6,21.8,19.8c1.6,4.2,5.2,4.9,8.7,6.2c1,0.4,1.7-0.3,2-1.1c1.4-3.8,4.6-4.4,7.7-3.2c10.9,3.9,21.9,0.2,32.8,0.5
		c3.5,0.1,4.8-2,5.3-4.8c1.7-9.2,5.2-17.9,8.5-26.6c0.5-1.2,1-2.6,1.9-3.6c2.1-1.4,4.4-1,6.7-1c4.4,1.8,6.5,5.2,6.9,9.8
		c-0.3,7.6-2.9,14.8-3.9,22.3c-0.3,2.6-1.8,4.3-4.1,5.3c-1.7,0.8-3.5,1.1-5.3,1.5c-5.8,1.3-6.5,2.7-4.8,8.4c0.6,1.9,1.5,3.7,2.6,5.3
		c3.3,5.2,4.3,10.7,2.7,16.7c-0.9,3.2-1.1,6.2,3.6,6.5c1,0.1,2.1,0.9,1.8,2.3c-10.9,1.4-21.9,2.9-32.8,4.2
		C128,728.9,119.3,729.9,110.5,730.9z"/>
	<path class="st25" d="M221.8,618.7c5.6,0.7,10.7,3.1,16.4,3.6c0.9-0.4,1.5,0,2.1,0.4c4.2,7.5,8,15.3,12.1,22.9
		c0.7,1.1,0.5,2.4,0.7,3.6c2.7,7.8,7.1,14.7,10.8,22.1c6.2,12.2,11.6,24.7,16.6,37.4c0.9,2.1,1,4.3,1,6.6c0,2.5-0.6,4.9,0.5,7.3
		c1.5,0.9,1.9,2,0.9,3.5c-9.5-0.2-18.4-2.6-27.4-5.8c-6-2.2-11.9-4.9-18.2-6.2c-11.3-3.4-20.2-10.7-28.8-18.3
		c-3.9-3.4-7.4-7.2-11-11c-1.1-1.2-2.8-2.3-1.9-4.4c8.1-6.3,17.8-9.2,26.9-13.2c1.7-0.8,3.5-1.2,5.1-2.3c2.7-1.6,2.8-3,0-4.6
		c-5.6-3.2-10.9-6.9-16.3-10.6c-2.4-1.6-4.7-3.3-5.4-6.4c-0.9-3.6,0.1-5.7,3.5-7.1c0.8-0.4,1.6-0.6,2.5-0.8c6.7-1.7,6.7-1.7,7.9-8.8
		C220.5,624,219.9,621,221.8,618.7z"/>
	<path class="st26" d="M283.1,726c-0.3-1.1-0.6-2.4-0.9-3.5c0-1.7,0.4-3.5,0.1-5.2c-0.9-4.6,1.6-6.7,5.4-8.5
		c10.4-4.8,21.4-6.9,32.6-8.2c1.2-0.1,2.8,0.4,3.3-1c0.7-1.6-1-2.3-2-3.1c-0.7-0.6-1.5-1-2.1-1.6c-1.3-1.6-4.1-2.8-2.8-5.5
		c1.4-2.9,2.9-5.5,6.8-6c6.4-1,12.5-0.7,18.7,0.9c6.5,1.6,12,4.6,15.7,10.5c2.2,3.6,4.7,7,7.1,10.5c1,1.4,0.2,3.2,1.3,4.6
		c2.9,4,2.2,13.1-1.3,16.4c-4,7.4-9,13.7-17.4,16.6c-3,1-6.2,1.8-9.4,1.1c-6-1-12.2,0-18.1-1.7c-5.7-1.5-10.6-7.2-11.3-13.1
		c0.2,5.5-0.5,6.7-5.1,8c-2.5,0.8-4.9,1.5-7.4,2.3c-5.4-1.7-8.7-5.7-11.6-10.3C284.2,728.2,283.6,727.1,283.1,726z"/>
	<path class="st27" d="M448.6,720.2c0.4-7.4,4.8-13.1,8-19.3c1-1.9,2.4-3.5,3.2-5.4c1.9-4.4,5-6.8,9.9-7.1c5-0.4,10-1.7,15-1.9
		c2.6-0.1,3.8,0.9,4.5,3.3c0.9,3,2.2,6.1,3.2,9.1c0.6,1.6,1.3,2.7,3.1,2.5c4.3-0.5,8.6-0.2,12.7-0.3c8.5-0.4,16.7,2,22.8,8.7
		c1.2,1.4,2.2,3,2,5c-0.3,3.5-0.6,7-0.8,10.5c-2.6,4.8-4.8,10.1-9.9,13c-1.1,0.7-2.4,1.1-3.6,1.7c-2.4-0.9-3.9-3-6.2-4.1
		c-2.7-1.2-4.8-1.3-6.7,1.4c-1.8,2.6-4.3,4.5-7.3,5.5c-1.2,0.2-2.6,0.3-3.8,0.5c-1.6,0.2-3.2,0.2-4.8,0c-3.7-1-7.5-0.9-11.3-0.4
		c-8.7,1.2-15.9-1.9-22.5-7.3c-3.2-2.7-4.9-6.2-6.7-9.8C447.9,724.4,446.9,722.5,448.6,720.2z"/>
	<path class="st28" d="M195.7,680.5c9.3,10.4,19.3,20,31.2,27.5c3.4,2.2,7.8,2.7,10.6,6c-10.2,1.6-20.2,3.4-30.4,4.8
		c-12.5,1.8-25,3.2-37.6,4.8c-1.2-2-3.3-1.2-5.1-1.3c-1.9-0.1-3.1-0.6-2.5-2.9c0.5-1.8,0.4-3.7,1-5.5c1.9-6.5-0.5-12-3.9-17.1
		c-2.1-3.1-1.9-6.6-2.4-10c-0.3-1.9,1.4-2.4,2.9-2.9c2.9-0.8,5.8-1.3,8.7-2.2c2.6-0.8,3.5-2.4,3.9-5.1c1-7.3,2.6-14.5,4.6-21.6
		c1.8-0.3,2.4,1.1,2.9,2.3c3.8,6.8,8.4,13.1,13.9,18.6C194.4,677.3,195.8,678.6,195.7,680.5z"/>
	<path class="st29" d="M448.6,720.2c0.3,2,0.6,4,0.9,5.9c-28,0-56.1,0-84.2,0c2-5.3,1.4-10.9,1.3-16.4c0-1.5,0.1-3,0.1-4.5
		c0.7-1.3,1.8-2,3.1-2.5c3.7-1.5,7.3-2.9,10.3-5.8c1.8-1.7,4.2-1.3,6.4-0.8c4.7,1.2,9.4,2.1,14.3,2.7c2.2,0.3,4.2,0.1,6.1-0.9
		c2-1,4-1.9,6.1-2.9c6.8-3.3,14.1-3.8,21.4-2.4c4.1,0.9,7.7,0.6,10.9-2.8c1.7-1.8,2.7-1.5,4.3,0.3c-0.3,6.2-2.9,12.1-2.2,18.3
		C447.7,712.5,448.2,716.4,448.6,720.2z"/>
	<path class="st30" d="M296.5,739.5c0.1-1.5,1.1-2,2.5-2.3c1.7-0.4,3.3-1,4.9-1.4c3.9-1,4.9-3,3.8-6.9c-0.1-0.5-0.5-0.9-0.6-1.3
		c-0.1-0.8-0.3-1.6,0.8-1.8c1-0.2,1.2,0.7,1.5,1.3c0.1,0.1,0.1,0.2,0.1,0.4c0.3,7.4,6.1,10.8,10.8,15c-6.9,0.1-13.9,1-20.6-1.3
		C298.6,740.5,297.3,740.5,296.5,739.5z"/>
	<path class="st31" d="M498.7,743c2.4-3.2,6.3-5.1,8.2-8.8c0.4-0.7,1.3-0.9,2-0.7c4.1,1,8.2,2.2,10,6.7c-4.8,2.9-10.1,3.2-15.5,2.9
		C501.8,743.1,500.3,743.1,498.7,743z"/>
	<path class="st32" d="M490,743.6c1.6,0,3.2,0,4.8,0C493.2,744.2,491.6,744.2,490,743.6z"/>
	<path class="st32" d="M632.9,671.1c1.6,2.5,0.1,4.1-0.5,5.9C631.2,675.1,631.4,673.3,632.9,671.1z"/>
	<path class="st21" d="M515.1,523.2c0,1.8-0.8,2.2-2.2,1.7c-7.5-2.4-14.6-5.6-21.5-9.3c-1.5-0.9-1.3-1.6,0.1-2.4
		c3.7-1.8,7.5-3.3,11.5-4.3c1.1-0.3,2.4-0.1,3,1c2.8,3.8,5.5,7.6,8.3,11.4C514.7,522,514.8,522.7,515.1,523.2z"/>
	<path class="st33" d="M416.6,391.1c-11.3,1.8-22.7,1.5-34.1,1.4c-4.8-0.1-8.8-2.5-12.9-4.5c-4.4-2.2-8.6-2.7-13.2-1
		c-6.3,2.4-12.5,0.9-18.5-1c-2.8-0.9-5.3-2-8.1-2.9c-4.9-1.8-8.4-4.7-9.1-10.5c-0.6-4.7-2.5-9-3.9-13.6c-1.3-4.3,1.4-7.2,5.9-6.4
		c3.4,0.7,6.7,1.6,10.2,2.4c2.9,0.7,4.8,0.3,4.8-3.4c0.2-5.4,1.7-6.7,6.9-7.6c4.7-0.9,9.2-1.6,13.6-3.7c2.1-1,4.8-1,7.2-1.4
		c1.3-0.3,2.9-0.2,4-0.9c8.6-5.4,15.9,0.4,23.5,2.7c3.3,1,6.2,1.7,9.2,0.3c2.2-1,4.4-1.4,6.4-0.1c2.5,1.6,4.1,0.5,5.8-1.3
		c6.2-6.6,6.2-6.4,14.6-2.8c4.5,1.9,9,3.5,12.5,6.9c1.5,1.5,3.3,1,4.7-0.4c2-2.1,4.3-2.4,6.7-1.3c2.4,1,4.9,0.6,7.3,0.9
		c6.1,0.7,9.1,6.1,13.9,8.7c4,2.4,5.5,6.5,6.7,10.6c0.6,2.2-1.6,3.7-3.3,5c-8.7,6.7-18.7,11.3-28.4,16.4c-7.2,3.8-15,5.9-23,7.3
		c-1,0-1.8,0-2.7,0.5c-0.7,0.2-1.4,0.3-2.2,0.3c-1-0.2-1.8,0.2-2.7,0.4C417.9,391.8,417.1,391.7,416.6,391.1z"/>
	<path class="st34" d="M425.6,389.5c11.5-1.9,22-6.4,32-12.2c6.7-3.8,13.4-7.3,19.6-11.8c2.7-1.9,3.2-3.7,1.4-6.5
		c-1.6-2.5-3-5-4.6-7.6c-1.5-3.1-3-6.3-5.2-9c0.4-0.1,0.8,0,1-0.2c5.2-3.5,5.2-3.6,9.7,1c0.7,0.7,1.3,1.5,1.9,2.2
		c0.2,1.6-1,1.6-2.1,1.9c-3.5,1.1-3.5,1.1-1.5,4.4c1,1.8,2.1,3.5,2.9,5.4c0.5,1.7,1.3,2.6,2.8,1c1.7-1.8,3.4-3.7,1.8-6.6
		c-0.4-0.8-0.8-1.6-0.2-2.5c-0.1-4.3-3.7-6.8-4.8-10.6c-0.4-1.1-1.6-1.9-1.6-3.5c2.1-0.5,3.3,2.1,5.4,1.4c1.9-0.6,3.9-1.6,5.7-1.3
		c3.8,0.6,6.8,3.2,10.2,5.2c2.4,1.4,4.6,3.2,6.9,5c0.7-1.9-0.8-2.6-1.1-3.7c-0.4-1.2-0.4-2.7,1-2.8c3.2-0.3,5.6-2.6,8.7-3.3
		c3.1-0.8,4.7,0,4,3c-1,5.1,0.1,10.6-2.8,15.5c-1,1.5,3.2,6.5,5.7,6.3c2.9-0.3,5,1,7.3,2.3c3.7,2,7.3,4.2,11.4,5.3
		c2.5,0.8,2.9,2,0.9,4c-8.3,8.1-17.2,15-28.4,19c-8.7,3.1-17.7,6.5-26,11c-17.4,5.2-35.3,7.9-53.3,9c-13.7,0.9-27.3,3.9-41.1,2.8
		c-13.8-1.1-27.8-0.5-41.4-3.5c-0.9,0.5-1.5,0.5-1.5-0.8c10-0.3,19.8,1.5,29.6,2.2c2,0.1,4,0.3,6,0.1c6.5-0.7,13,0.4,19.6-0.4
		c2.6-0.3,5.3,0,8-0.4c3.4-0.5,3.8-1.3,3.4-4.6c-0.4-3-1.8-5.7-2.9-8.4c-1-2.6-1.6-4.8,1.8-6c0.4-0.2,0.7-0.8,1-1.1
		c0.8,0,1.5,0,2.3,0c0.9,0,1.6-0.2,2.2-0.8c0.8,0,1.5,0,2.3,0C424.2,390.2,425,390.1,425.6,389.5z"/>
	<path class="st22" d="M350.3,409.7c0.5,0.3,1,0.5,1.5,0.8c0.7,1.1,0.8,2.4,0.1,3.5c-3.7,7.4-4.3,15.8-7.2,23.4
		c-0.7,1.6-1.2,3.2-1.9,4.8c-2.4,6.6-3.8,7.4-10.8,6c-9.1-1.8-17.9-4.9-26.7-7.9c-2.7-1-5.5-1.4-8.2-2.7c-2-1-3.8-0.4-5.3,1.4
		c-2.6,3.2-5.6,5.7-9.6,7.3c-6.4,2.6-8,7.4-4.8,13.6c1.2,2.6,1,7,6,6c0.1,0,0.2,0.1,0.3,0.2c2.6,1.6,4.3,14.1,2.3,16.3
		c-1,1.1-2,1.1-3.3,0.4c-2.5-1.5-3.2-3.8-3.7-6.6c-0.2-1.3-0.5-3.2-2.7-2.9c-1.8,0.3-2.8,1.6-2.9,3.4c-0.1,1.1-0.2,2.3,0.2,3.3
		c0.9,2.2,2.1,4.1,0.2,6.5c-0.9,1,0.4,2.1,1.3,2.7c5.4,3.3,10.5,7.5,17.1,8.7c3.6,0.6,6.3,3.5,9.6,4.8c6.9,2.7,13.9,5.5,21.2,7
		c1.2,0.3,2.4,0.6,3.3,1.5c-8-1.4-15.9-3.5-23.7-5.8c-0.6-0.2-1.1-0.5-1.7-0.7c-0.6-0.2-1.4-0.2-1.7,0.4c-0.5,0.9,0.3,1.4,1,1.7
		c2.3,0.8,3.2,2.9,4.8,4.5c0.5,0.5,1.2,1.1,0.5,1.8c-0.4,0.3-1.1,0.3-1.7,0.2c-6.1-1.5-5.9-1.4-9.4,3.5c-1.8,2.5-4.6,4.3-6.8,6.4
		c-0.1,0.1-0.2,0.3-0.3,0.3c-5.2,1-7-3.2-9.5-6.3c-2.4-3-2.1-5.4,0.1-8.1c2.2-2.6,4.8-4.8,6.8-7.4c1.6-2,1.2-3-1-4.1
		c-10.6-4.9-20.5-11-30.2-17.7c-4.1-2.9-7.8-6.1-11.6-9.3c-1-0.9-2.1-1.8-2.1-3.4c-2.7-5.3-2.7-5.5,2.1-9.3c3.2-2.6,5.2-5.9,6.3-9.9
		c0.5-2.1,1-4.3,2.8-5.8c0.5,2.7-0.5,5-1.5,7.3c-0.6,1.4-1.1,3-0.2,4.3c1.2,1.5,2.8,0.2,4.1-0.2c7.2-2.3,14.7-3.2,21.9-6
		c6.3-2.5,11.9-5.5,14.5-12.3c0.4-0.9,1.1-1.7,1.9-2.2c4.9-2.8,8.4-7,11.3-11.6c2.5-3.9,5.6-5.1,9.7-3.4c6.5,2.8,12.5,2.2,18.5-1.1
		c2.8-1.5,5.5-2.8,8.4-4.2c2.3-1.1,2.8-2.7,1-4.7C343.8,408.6,347,409.1,350.3,409.7z"/>
	<path class="st34" d="M473.9,323.8c-0.2,2.3-2.3,2.9-3.4,1.9c-4.6-3.6-9.2-7-12.7-11.7c-0.8-1-0.5-2.1,1.1-1.6
		c5.9,1.9,10.6,5.8,14.6,10.3C473.8,323.1,473.9,323.5,473.9,323.8z"/>
	<path class="st6" d="M477.1,352.2c-3.1-4-2.8-4.9,2.2-5.9c0.9-0.2,1.7-0.1,2.3-0.9c1.6,0.9,2.5,2.5,3.7,3.7c3.4,5,3.4,5.5-0.5,9.7
		c-0.9,1-1.6,2.7-3,2.3c-1.5-0.5-1.6-2.3-1.7-3.8c0.5-1.1,1.9-1.5,2.4-2.8c0.6-1.5-0.4-2.6-1.3-3.5
		C479.3,349.4,478.4,351.7,477.1,352.2z"/>
	<path class="st1" d="M454.7,256.7c0.7,0,1.4-0.1,2.1-0.1c0.4,0.1,1,0.2,0.9,0.8c-0.1,0.3-0.7,0.6-1,0.7
		C455.7,258.1,455.1,257.4,454.7,256.7z"/>
	<path class="st35" d="M340.9,254.6c-8.3-0.1-14.4-5-15.9-12.7c-0.6-2.9-0.6-5,3.5-5.6c3.5-0.6,5.9-1.1,7.3,3
		c0.7,1.9,2.2,4.2,4.6,3.7c2.7-0.6,4-3.1,5.2-5.4c0.8-1.3-0.9-1.2-1.4-1.6c-1.6-1-2-2.5-1.4-4.2c0.3-1,1.1-1.9,2.2-1.7
		c1.7,0.3,3,1.2,3,3.2c0,1.1,0.4,1.6,1.6,1.9c7.6,1.6,9.7,7.9,4.1,13.5C350.4,252.2,346.1,254.9,340.9,254.6z"/>
	<path class="st36" d="M461.4,235.8c1.1-0.6,2.4-0.7,3.6-0.7c5,0.1,6.9,2.5,5.7,7.4c-2.9,11.9-17.9,16.2-27.3,7.8
		c-2.9-2.6-4.9-5.4-4.5-9.6c0.4-4.2,3.9-6.7,8-5.7c1.7,0.4,1.8,1.9,2.3,3c3.5,7.3,3.4,7.3,9.2,1.8
		C459.7,238.7,460.9,237.4,461.4,235.8L461.4,235.8z"/>
	<path class="st36" d="M461.5,235.7c-0.5,0.1-1,0.2-1.5,0.2c-2.4,0.1-3.9-1-3.8-3.5c0.1-1.7,1.3-3.1,3.3-2.7c2.4,0.6,3,2.4,2.4,4.7
		C461.8,234.9,461.6,235.3,461.5,235.7C461.4,235.8,461.5,235.7,461.5,235.7z"/>
	<path class="st37" d="M239.8,467.1c8.8,8,18.4,14.9,28.7,20.9c5.7,3.3,11.3,6.7,17.4,9c2.6,1,2.6,2,0.9,4.1c-2.5,3.1-5.2,6-8.1,8.7
		c-1.7,1.6-2.2,3.3-0.9,5.2c2.4,3.6,4.7,7.3,9.5,8c3.6,1.7,7.5,2.5,11.3,3.6c1.8,0.6,2.8,1.2,1.7,3.1c-3.4,6.5-1.4,11.7,2.8,17.1
		c14.3,18.4,25.6,38.6,33.3,60.7c1.3,3.7,2.9,7.4,4.1,11.1c0.9,2.5,1.8,5.6-0.7,7.2c-2.9,1.9-5.7,5.1-10,2.8c-2-1-4.1-1.5-6.5-0.7
		c-1.4,0.5-3.1,0.7-4.7-0.4c1.6-3.6,5.9-2,8.6-4.2c-1.5-2.5-4.2-3.7-6.2-5.6c-4.2-3.8-3.8-6.3,1.3-8.5c0.5-0.2-0.1,0.1,0.4-0.1
		c6.9-2.9,6.7-2.7,0.9-7.8c-5.9-5.1-12.1-8.4-20.2-9c-8.7-0.7-17.4-2.7-26-5c-5.4-1.5-6.6-3.6-4-8.7c2.9-5.7,5-11.7,8.4-17
		c0.9-1.3,1.2-2.7,0.6-4.2c-3.1-7.6-8.3-13.5-14.5-18.6c-1.9-1.6-4.4-0.4-6.5,0c-3.8,0.7-6.8-0.5-9.7-2.8c-3.1-2.5-3.3-4.9-0.4-7.8
		c5.9-6,5.8-6-2.3-8.3c-9.4-2.7-17.5-8.3-26-12.7c-2.4-1.2-3.3-3.6-3.2-6.3c0.1-4.8-0.6-9.5-2.9-14c-1.9-3.6-0.8-7.8-0.9-11.8
		c0-2.4-0.2-4.7-1.6-6.7c1.1-6.1,3.7-11.5,7.5-16.4c1.6-0.1,2.8,0.8,3.8,1.9c3.2,3.8,7.7,6.4,10.6,10.6
		C237,465.8,238.1,467,239.8,467.1z"/>
	<path class="st22" d="M255,431.3c-0.2-4.3-0.3-8.6,1.9-12.4c0.2-0.3,0.3-0.8,0.6-1c1-0.6-0.7-3.1,2-2.5c2.1,0.5,1.9,2.1,2.2,3.4
		c0.6,2.2-0.8,4.1-1.4,6C259.4,427.6,257.2,429.5,255,431.3z"/>
	<path class="st38" d="M214.3,468.5c2.3-0.2,3.2,0.9,2.9,3.1c-0.1,1.1-0.1,2.3,0,3.3c0.3,5.2-0.9,10.5,2.7,15.4
		c2,2.9,1.3,7.2,1.1,10.9c-0.1,2.1,0.5,3.9,2.3,4.8c8.8,4.2,16.8,10.1,26.4,12.7c2.8,0.8,6.7,0.3,7.4,3.8c0.8,3.4-3,4.8-5,6.7
		c-2.5,2.4-2.5,3.3,0.1,5.5c3.8,3.5,8.2,3,12.5,2c2.6-0.6,4.2-0.3,5.4,2.3c1.2,2.5,4,3.5,5.9,5.4c3.6,3.7,5.1,8.5,7.9,12.5
		c1,1.4,0.7,3-0.4,4.6c-4.1,5.8-6.1,12.7-9.6,18.9c-1.4,2.7-0.8,4.3,2.4,5.1c11.9,3,24,5.1,36.1,6.7c0.3,0,0.6-0.1,0.8,0.1
		c6.7,3.7,12.4,8.6,17.5,14.1c1.1,1.2-0.6,1.5-1.4,1.9c-2.8,1-5.6,2-8.4,3.1c-2.3,0.9-2.6,2.2-0.7,3.8c2.7,2.2,5.4,4.4,8.1,6.6
		c0.7,0.6,1.9,1.1,1.5,2.3c-0.3,0.9-1.4,0.9-2.3,1c-2.9,0.9-6.2,0.9-8.9,2.3c-13.6,2.7-27.4,1.4-41.1,1.5c-2.2,0-4.4-1-6.7-0.7
		c-1.2,1-2.7,1.1-4.2,1c-7.7-1-15.4-2.4-23-4c-1.7-0.4-2.9-1.4-4.2-2.2c-0.5-0.3-1-0.7-1.5-1c-0.3-5.2-2.5-9.8-4.9-14.2
		c-6.6-12-11.8-24.4-16.3-37.3c-1.5-4.4-1.4-9.3-4.1-13.3c-0.8-6.1-1.5-12.2-2.4-18.3c-1-6.4-1.6-12.7-1.3-19.2
		c0.2-3.2-0.5-6.4-0.8-9.6c-0.4-0.5-0.8-1-0.8-1.6c-0.3-13,0.1-25.9,6-37.9C213.7,470.1,213.7,469.2,214.3,468.5z"/>
	<path class="st39" d="M449.4,690.2c-1.9-1.4-3,0-3.9,1.2c-2.1,2.9-4.9,3.6-8.2,3.2c-3.1-0.4-6.4-0.9-9.5-1.3
		c-5.4-0.8-10.6,0.8-14.9,3.5c-7.5,4.8-15,3.6-22.7,1.7c-1.9-0.5-3.8-1-5.8-1.4c-1.2-0.3-2.6-0.5-3.4,0.7c-3.7,4.6-9.2,5.5-14.3,7.4
		c-1.6-3.9-0.2-8.2-1.5-12.1c-0.4-1.2-0.5-2.7-0.8-4c-1.6-6.7-1.2-8.3,4.8-11.4c4-2.1,7.6-4.6,11.4-6.9c1-0.7,2.1-1.5,3.4-1
		c8,2.9,16.6,0.9,24.7,3.3c1.1,0.4,2.7-0.3,4-0.6c10.5-2.1,21.2-2,31.5-5.2c3-1,6.2-1.9,9.2-2.9c2.3-0.8,3.3,0.1,2.6,2.2
		C453.1,674.2,452.1,682.4,449.4,690.2z"/>
	<path class="st40" d="M239.8,623.2c10.5,1.7,20.8,4.1,31.4,5.2c0.5,6.7,0.9,13.5,2.8,20.1c0.9,2.9-0.5,3.9-3.4,3.3
		c-4.8-1-9.7-1.9-14.5-2.9c-1-0.2-1.9-0.7-2.8,0.3C248.4,640.7,243.5,632.2,239.8,623.2z"/>
	<path class="st37" d="M213.7,470.8c-1,7-3.3,13.9-4.1,21.1c-0.4,4.1-0.3,8.2-0.4,12.3c-0.1,2.1-0.2,4.2-0.8,6.3
		c-3.6,0-5.6-2.6-7.4-5c-6.7-8.9-13.9-17.5-19.9-26.9c-6.7-10.6-11.4-22-13.2-34c-0.8-4.8-2.4-10.3-0.8-15.6
		c0.4-1.3-0.5-3.1-0.8-4.7c-0.4-2.7,1.2-4.1,3.6-3c2.8,1.2,5.8,1.1,8.7,2c4.1,1.1,5.5,3.2,5,7.4c-0.1,1.1-0.3,2.2-0.7,3.2
		c-2.2,6.2,1.4,9.8,5.7,13.1c5.6,4.3,11.3,8.4,16.3,13.5c1.9,2,2.9,3.9,1.5,6.6c-1.9,3.6,0.5,6.5,1.7,9.5c0.8,1.7,1.8,0.5,2.4-0.6
		C211.7,474.1,211.7,471.9,213.7,470.8z"/>
	<path class="st18" d="M192.4,366.6c-1.4-1-1.1-1.8-0.4-2.6c0.2-0.2,0.9-0.2,1-0.1C193.5,364.8,192.8,365.6,192.4,366.6z"/>
	<path class="st41" d="M140.4,494.6c-0.2,0.1-0.4,0.5-0.7,0.5c-0.5,0-0.9-0.4-0.8-0.9c0.1-0.3,0.4-0.6,0.7-0.7
		C140.1,493.5,140.4,493.9,140.4,494.6z"/>
	<path class="st41" d="M139.7,482.3c0.3,0.3,0.5,0.5,0.6,0.8c0.1,0.1-0.2,0.4-0.3,0.6c-0.3-0.2-0.6-0.4-0.8-0.7
		C139.3,482.9,139.5,482.6,139.7,482.3z"/>
	<path class="st42" d="M170.4,646.1c-4.2-8.7-8.9-17.1-12.5-26c-5.9-14.6-9.6-29.9-12.7-45.3c-0.2-1-0.1-2.2-0.1-3.3
		c2,0.2,2.9,1.9,4,3.1c14.7,15.6,31.9,27.7,51.6,36.1c6.9,2.9,14.1,5.3,21.2,7.9c0.5,4.4-0.5,8.6-1.2,12.8c-0.4,2.4-1.9,4-4.5,4.4
		c-1.4,0.2-2.9,0.5-4.4,1c-1.8,0.7-4.4,0.6-4.7,3c-0.3,2.6,0.1,5,2.7,6.8c6.2,4.3,12.3,8.8,19,12.4c1.3,0.7,2.8,1.3,2.8,3.1
		c0,1.9-1.1,2.9-2.7,3.6c-3.7,1.6-7.5,3.2-11.3,4.8c-5.9,2.5-12.3,4.1-17.3,8.3c-1.2,1-2.8,1.7-4.5,1.5c-7-7.1-13.5-14.5-18-23.6
		c-0.3-0.7-0.9-1.1-1.3-1.7C175.2,651.6,173,648.8,170.4,646.1z"/>
	<path class="st6" d="M425.6,389.5c-0.6,0.9-1,1.8-2.2,0.8C423.9,389.5,424.8,389.5,425.6,389.5z"/>
	<path class="st6" d="M421.1,390.3c-0.6,0.8-1,1.8-2.2,0.8C419.5,390.3,420.3,390.2,421.1,390.3z"/>
	<path class="st33" d="M477.1,352.2c-0.2-2,0.4-3.5,2.7-3.5c1.5,0,4.8,3.6,4.6,5.2c-0.3,2.4-1.7,3.7-4.3,3.5
		C478.9,355.8,477.7,354.2,477.1,352.2z"/>
	<path class="st21" d="M290.4,501.9c1.8,0.3,3.1,1,2.6,3.1c-0.7,2.4-1.7,4.4-4.2,5.3c-2.5,1-4.8,1.9-5.7,4.8c-0.7,1.9-2.1,1.4-3,0
		c-0.9-1.2-0.8-2.6,0.4-3.7c2.5-2.8,4.9-5.5,7.5-8.2C288.4,502.4,289.2,501.9,290.4,501.9z"/>
</g>
</svg>
