<?xml version="1.0" encoding="utf-8"?>
<!-- Generator: Adobe Illustrator 27.4.0, SVG Export Plug-In . SVG Version: 6.00 Build 0)  -->
<svg version="1.1" id="Layer_1" xmlns="http://www.w3.org/2000/svg" xmlns:xlink="http://www.w3.org/1999/xlink" x="0px" y="0px"
	 viewBox="0 0 720 720" style="enable-background:new 0 0 720 720;" xml:space="preserve">
<style type="text/css">
	.st0{fill:#687CA5;}
	.st1{fill:#AECCC7;}
	.st2{fill:#182E4F;}
	.st3{fill:#2D617D;}
	.st4{fill:#3F7A90;}
	.st5{fill:#C1D6C2;}
	.st6{fill:#93C1BD;}
	.st7{fill:#5EA7A3;}
	.st8{fill:#F7F1DF;}
	.st9{fill:#A9CCC9;}
	.st10{fill:#BBA07F;}
	.st11{fill:#F4F0DE;}
	.st12{fill:#5F898F;}
	.st13{fill:#F43B13;}
	.st14{fill:#EBE0C9;}
	.st15{fill:#F8E4C5;}
	.st16{fill:#FBD5BF;}
	.st17{fill:#F8C2B0;}
	.st18{fill:#C1AA9D;}
	.st19{fill:#F1E2C5;}
	.st20{fill:#BFA696;}
	.st21{fill:#978AA2;}
	.st22{fill:#FC7F8B;}
	.st23{fill:#FC6A38;}
	.st24{fill:#F9C8B6;}
	.st25{fill:#BED9C6;}
	.st26{fill:#9D7B96;}
	.st27{fill:#A3390F;}
	.st28{fill:#6CA1AC;}
	.st29{fill:#D7BD98;}
	.st30{fill:#F8F3DF;}
	.st31{fill:#D8DAC4;}
	.st32{fill:#F7E7CA;}
	.st33{fill:#DECBAB;}
	.st34{fill:#FAF4E4;}
	.st35{fill:#DFA29D;}
	.st36{fill:#680608;}
	.st37{fill:#4B1A07;}
	.st38{fill:#BCD9C9;}
	.st39{fill:#FDD052;}
	.st40{fill:#303148;}
	.st41{fill:#F4C736;}
	.st42{fill:#BF510D;}
	.st43{fill:#BF540E;}
	.st44{fill:#222B40;}
	.st45{fill:#DADEDD;}
</style>
<rect x="0" y="0" class="st0" width="720" height="720"/>
<g>
	<path class="st1" d="M179.5,99.9c-0.2-15.6,1.9-31.1,4.6-46.4c0.8-4.3,1.8-8.5,3.2-12.6c3.5-10.3,9.3-13.7,22.1-10.2
		c21.4,5.8,39.3,18.2,56.2,32.1c5.1,4.2,10.3,8.3,14.8,13.1c4.7,5,10.3,3.4,15.7,3.4c8.6,0,17.1-0.9,25.7-0.5c1.5,1.2,1.7,3,1.4,4.6
		c-1.5,8.6-1.1,17.4-2.3,26c-0.3,1.9-0.2,4.3-2.5,4.9c-2.2,0.6-3.5-1.4-4.7-2.9c-1.3-1.5-2.4-3.1-3.5-4.8c-1.4-2.3-3-4.2-6-2.5
		c-0.5,0.3-1.1,0.1-1.6,0.1c-1.6,0-2.5-3.4-4.2-1.4c-1.9,2.3-4.6,3.9-5.5,7.2c-1.7,6.4-3,12.8-3.2,19.5c0,1.1-0.1,2.3-0.5,3.3
		c-1.1,3.6-3.8,4.6-6.7,2.3c-1.2-0.9-1.7-1.6-3,0.1c-1.8,2.4-4.6,2.4-7.8,1.4c1.9,1.6,2.7,3.4,2.7,5.4c0.1,5.7,0.7,11.5,0.3,17.2
		c-0.3,3.9,0.1,7.5,2.6,10.7c2,2.7,3.3,5.9,4.8,8.9c1.2,2.5,1.8,5.1-0.3,7.5c-0.7,0.7-1.6,1.2-2.6,1.4c-10,1.6-18.9,6.2-28.1,9.8
		c-5.6,2.2-11.3,4-17.4,4.8c-1.7,0.3-3.5,0.5-5,0c-5.9-1.7-9.9,0.8-13.6,5.1c-8.2,9.3-16.7,18.3-23.8,28.3
		c-4.2,5.9-8.7,8.2-15.5,7.1c-3.6,0.2-5.3,2.4-7.3,5.3c-7.9,11.3-9.9,23.4-7,36.7c0.7,3.2,0.4,6.7,0.4,10c-0.5,2.6-2.3,4.1-4.5,5.1
		c-18,7.9-33.4,19.1-46.3,34c-2,2.3-3.8,6.6-8.5,5.4c-0.9-2.6,0.7-4.6,1.8-6.7c12.2-23.9,23.4-48.3,35.1-72.4c1.4-2.9,2.6-5.9,4-8.8
		c0.7-1.6,1.3-3.5,3.2-4.3c0.8-0.6,0.8-1.5,1-2.3c5.2-8.4,8.4-17.7,12.2-26.7c3.1-7.2,6-14.5,10.2-21.2c4.6-7.2,5.2-15.6,7.8-23.4
		c5.6-16.9,3.1-34.2,2-51.4c-0.2-2.9-2.6-1.9-4.2-2.6c1.5-0.8,3.5-0.2,4.5-1.8C179.5,111.9,179.9,105.9,179.5,99.9z"/>
	<path class="st2" d="M187.9,776.2c-0.2,2.8-2.2,2.7-4.2,2.7c-13.3,0.1-26.4-0.8-39.1-5c-15.7-7.3-28.6-17.9-39.6-31.2
		c6.4-8.5,6.2-19,8.3-28.8c1.1-5.4,2.5-10.6,4.2-15.8c1.5-4.6,3.7-5.7,8.4-3.8c5.3,2.1,10.8,4.1,16.2,6c6.6,2.4,13.3,4.3,20,6.4
		c2.2,0.7,4.3,1,6.5-0.3c1.3-0.8,2.8-1.3,4.4-0.9c2,0.7,3,2.5,4.2,4c7.8,10.2,15.3,20.7,23.4,30.8c1.4,1.8,2.8,3.6,2.1,6.1
		c-0.6,1.3-1.6,2.3-2.7,3.2c-7,5.5-10.1,12.9-10.6,21.6C189.2,772.9,189.5,774.9,187.9,776.2z"/>
	<path class="st3" d="M173.1,706.5c-0.8,0.2-1.9,0-2.4,0.5c-3.5,3.3-7.1,1.9-10.9,0.7c-11.6-3.7-23.3-7.3-34.5-12.1
		c-4.3-1.8-4.8-1.3-6.2,2.9c-2.9,8.5-4.3,17.3-5.7,26.2c-0.8,4.6-2.5,9-2.9,13.8c-0.2,2.8-3.2,3.2-5.3,4.2
		c-6.7-5.5-11.1-12.9-15.8-20c-8.3-12.6-15.9-25.6-23.1-38.9c-0.3-0.6-0.5-1.3-0.7-1.9c0-4.5,1-9.2-2.6-13.1
		c-1.4-1.5-0.3-3.3,0.9-4.5c3.7-3.7,7.8-6.8,12.2-9.6c3.3-2,6-0.4,7.9,2.3c2.7,3.9,5.7,7.6,8.8,11.3c3.3,3.9,6.9,7.3,11,10.4
		c5.2,3.9,7,3.7,11.5-0.9c2-2.1,4.1-4.3,6.2-6.3c1.6-1.6,3.4-3,5.6-3.6c2.2-0.1,3.9,1.3,5.7,2.3c7.6,4.1,15.1,8.2,23.1,11.6
		c3.2,1.1,4.6,4,6.7,6.3c3.4,4.7,6.5,9.6,9.8,14.5C173,703.6,174.5,704.8,173.1,706.5z"/>
	<path class="st4" d="M127,668.5c-4.1,3.6-7.9,7.5-11.7,11.5c-4.2,4.5-7.1,4.4-12.4,0.3c-7.6-5.9-13.9-13-19.2-21
		c-3.5-5.2-4.9-5.4-9.6-1.6c-3,2.5-6.1,4.9-9.1,7.4c-1.4,1.2-2.7,2.2,0.1,3.9c2.9,1.9,2.8,10.2,0.4,12.9c-4.9-8.7-8.7-18-11.7-27.5
		c-2.2-7.2-4.1-14.4-4.5-22c0-0.7-0.4-1.3-0.7-1.9c-0.6-5.1-1.2-10.2-1.8-15.3c-0.3-2.4,0.1-4.7,1.6-6.7c0.8-0.7,1.7-0.9,2.7-0.8
		c6,0.3,12.1,0.1,18.1,0.2c4.6,0.1,8,2,10.3,6.1c11.3,20.2,26.7,36.7,44.9,50.8C125.7,665.7,127,666.7,127,668.5z"/>
	<path class="st5" d="M80.6,387.6c4.5-10.3,8.9-20.7,13.4-30.9c2.2-5.1,4.3-10.2,7.5-14.8c2.4,0.2,3.1-2,4.4-3.3
		c1.3-1.4,2.5-2.8,4.6-2.2c5.7,1.5,10.5-0.7,15.1-3.5c1.6-0.9,3.1-2,4.8-2.6c2.2-0.7,4.5-0.6,5.6,1.6c2.1,4.4,4.6,8.7,4.8,13.8
		c0.1,2.4-1.1,4.4-0.1,7.2c0.9,2.4-2.6,3.8-4.8,5c-1.3,0.7-2.7,0.5-4.5,0.3c1.4,2,1.5,4.3-0.8,4.9c-5.3,1.3-8.6,6-13.9,7.1
		c-2.5,0.6-3.2,2.3-2.9,4.8c0.6,5.1,1.8,9.9,5,14.1c1.4,8.4,4.9,16.2,8.8,23.6c12.9,24.7,28.8,47.2,50.7,65
		c13.2,10.8,28,19.2,42.9,27.5c7.5,4.2,15,8.4,22.4,12.6c1.4,0.8,3.5,1.7,2.9,3.6c-0.6,2.2-3,1.7-4.7,1.5
		c-11.6-1.4-22.8-4.5-34.1-7.5c-7.1-0.4-7.1-0.4-9.5,6.5c-1.1,3.3-2.2,6.7-3.3,10c-3.3,10.5-5.1,11.3-15.4,7c-4.8-2-9.1-5.2-14-6.9
		c-13-4.4-22.4-13.7-31.5-23.3c-4.9-5.2-9-11.1-13.9-16.4c-0.8-0.8-1.4-1.8-2.4-2.4c-1.1-0.7-2.3-1.4-3.5-0.3
		c-1.2,1.2-0.8,2.4,0.1,3.8c6.4,9.3,11.2,19.3,16.2,29.3c4.2,8.4,6.7,17.5,11.5,25.5c2.2,3.8,5,7.2,9,9.3c2.2,1.2,4.6,2.2,6.5,3.8
		c2.7,2.2,5.2,2.9,8.4,0.8c2.3-1.5,4.5-0.8,6.7,0.7c3.4,2.4,6,5.4,7.9,9.1c2.3,4.5,5.8,6.9,10.9,7.5c6.4,0.8,12.7,2.2,19.2,2.6
		c4.1,0.3,6.5,2.2,7.2,6.7c1.2,7.8,8,11.2,13.6,15.1c4.1,2.8,8.5,5.5,12.9,8c1.2,0.7,2.6,1.6,2.1,3.2c-0.4,1.4-1.9,1.4-3.2,1.7
		c-2,0.4-5.2-0.4-5.5,1.9c-0.5,3.3-1.5,7.2,0.9,10.1c2.2,2.8,4,5.7,5.7,8.8c1.5,2.9,4,5.1,6.9,6.6c3.6,1.9,6.8,4.5,10.3,6.6
		c2.7,1.6,3.8,4.2,2.1,6.8c-2.1,3.2-2.4,6-0.6,9.3c0.4,0.7,0.3,1.7-0.2,2.4c-2.4,1.3-4.4-0.3-6.2-1.3c-11.6-6.8-24.4-11.4-35.2-19.6
		c-0.4-0.3-1-0.4-1.6-0.6c-23.4-15.5-40.6-35.7-48.4-63.1c-1.4-4.9-4-8.2-8.4-10.9c-25-15.5-45.5-35.6-60.4-61.1
		c-1.8-3.1-3.4-5.5-7.8-4.5c-3,0.7-4.8-2-6.2-4.3c-3.6-5.9-6.5-12.1-9.2-18.4c-6.4-14.9-10.8-30.4-14.1-46.3c-0.3-1.5-0.7-3-1.3-4.4
		c4.4-14.6,9.7-28.8,15.1-43C79.9,390.3,80.2,388.9,80.6,387.6z"/>
	<path class="st6" d="M64.2,434.6c1.8,0.8,2.5,2.3,2.9,4.3c4.2,21.1,10.7,41.5,20.9,60.6c1.1,2.1,2.4,4.1,3.8,6
		c1.1,1.5,2.6,2.3,4.4,1.1c3.2-2,4.8-0.1,6.3,2.4c8.5,14.6,18.6,28,30.9,39.7c9.6,9.1,20,17.2,31.3,23.9c5.1,3,7.2,6.9,8.7,12
		c4.3,14.5,11.4,27.3,21.1,38.8c7.6,9,17.2,15.5,26.1,23c2.2,1.6,3.7,3.8,4.6,6.3c4.1,11.2,8.2,22.4,13,33.3c2.4,5.4-0.1,8-6.5,7.1
		c-16.4-2.2-31.9-7.5-46.4-15.5c-10-5.5-20.1-1.1-23,10c-0.1,0.4-0.4,0.7-0.7,1c-2.1-1.8-3.3-4.6-5.9-5.9c-11-8.2-17.3-19.7-22-32.2
		c-2.4-6.3-2.6-12.9-2.4-19.5c0.1-2.6-0.6-4.4-3.4-5.6c-18.2-7.4-30.5-21.1-39.7-37.9c-4.5-8.2-7.9-16.7-10.6-25.6
		c-3.6-12-8.5-23.7-13.1-35.4c-5.3-13.5-8-27.8-9.5-42.2c-1.3-0.5-1.8,1.5-3,0.9C55,468.1,59,451.2,64.2,434.6z"/>
	<path class="st7" d="M52,485.2c1.6-1.3,1.3-3.5,2.1-5.5c3.9,3.7,2.8,8.4,3.4,12.5c2.8,17.9,7.6,35.1,15.8,51.2
		c1.3,2.7,2.6,5.3,2.2,8.4c-0.1,0.7,0,1.4,0.2,2.1c6.8,17,12,34.8,24.4,49c8.1,9.3,17.2,17.3,29.2,21.4c2,0.7,3.8,1.3,3.5,3.9
		c-2.2,21.8,8.4,38.3,22.1,53.5c0.3,0.3,0.4,0.7,0.6,1.1c-8-2.5-15.1-7-22.6-10.7c-2.1-1-4-2.4-6.1-3.7
		c-15.8-11.6-29.7-25-40.8-41.2c-2.8-4.1-5.7-8.3-8-12.8c-2-3.9-4.9-4.9-8.8-5.1c-7-0.3-14,0.9-20.9-0.9
		c-3.6-31.4-2.8-62.8-0.2-94.3c0.3-4.1,0.1-8.2,1.2-12.1c0.7-1.3-0.1-2.9,0.6-4.2C49.9,493.5,51,489.4,52,485.2z"/>
	<path class="st6" d="M50.1,497.9c0,1.4,0.5,2.9-0.6,4.2C49.4,500.6,49.3,499.2,50.1,497.9z"/>
	<path class="st8" d="M536.3,779.6c-0.9,2.3-1.6,4.8-2.7,7c-2.9,6-7.4,9.7-14.3,9.9c-3.6,0.1-7.2,0.7-10.8,1
		c-4.3,0.3-8.6-0.2-12.8-0.8c-9.4,2.8-19.1,1-28.7,1.2c-4.1,0.1-8.5,1-12.2-1.8c-0.8-0.6-1.6-0.2-2.4,0.2c-2.4,1.1-4.9,1.2-7.4,1.2
		c-13.3-0.1-18.3-3.8-22.5-16.4c-0.3-0.8-0.6-1.5-0.9-2.3c-1-0.8-1.7-1.8-2-3.1c-4.2-17.4-4.9-34.8,0.3-52.2c1-3.5,1.6-7.2,3.9-10.3
		c4-3.8,6.8-8.7,8.8-13.6c3.6-8.8,10.5-14,18.1-18.5c11.9-6.9,24.9-9.8,38.6-9.9c2,0,4,0.2,5.1,2.2c1.1,1.9,0.2,3.5-1,5
		c-1.5,1.8-0.9,3,1,4c3.1,1.6,4.6,4.2,5,7.8c0.3,3.5,2.4,6.6,2.4,10.2c0,1.4,1.4,2.1,2.4,2.8c2.7,1.8,3.5,4.7,3.9,7.6
		c0.2,1.7,0,3.9-1.9,4.2c-3.2,0.6-3,2.8-3.1,5c-0.2,2.7-0.6,5.3-1.2,7.9c-1.2,4.8-3.5,5.7-7.7,3.1c-1.2-0.7-2.1-1.9-3.7-1.8
		c0.5,3.4,1.2,4.5,4.8,4.8c7.7,0.7,14.7,3.4,21.9,5.8c2.3,0.8,4.5,1.7,5.8,3.9c1.6,1.8,3.6,3.1,5.4,4.6c7.8,6.8,10.7,15.5,10,25.5
		C538.3,776,538,778.1,536.3,779.6z"/>
	<path class="st9" d="M161.5,688.7c-1.6-4.3,0.1-7,3.6-9.6c11.5-8.2,11-8.6,22.6-1.9c13.9,7.9,29.1,12.2,44.9,14.7
		c4.5,0.7,6.3-0.5,4.8-3.7c-6.4-13.6-10.4-28.1-16.8-41.7c11,6.7,22.5,12.6,34,18.4c2.8,1.4,5.5,2.9,8.2,4.3c2.1-1,3.8,0.4,5.5,1.3
		c7.6,3.9,13.5,9.9,19.2,16.1c7.2,9.9,11.1,21.3,13.8,33.1c3.1,11.7,4.5,23.7,4.5,35.8c0,2-0.7,3.9-1.1,5.8
		c-0.3,6.1-0.2,12.4-4,17.7c-0.2,0.3-0.5,0.6-0.7,1c-3-1-3.4-3.8-4.3-6.3c-3.8-11.1-9.7-20.4-20.1-26.5c-5.6-3.3-11.6-4.8-17.9-5.8
		c-12.8-1.9-25.7-1.9-38.5,0.3c-4.2,0.7-8.2,1.9-12.1,3.6c-1.6,0.7-3.3,1.7-5.2,0.8c0.2-1.3-0.6-2.1-1.3-3
		c-9.8-11.8-18.5-24.4-27.8-36.6C169.2,700.6,165.4,694.7,161.5,688.7z"/>
	<path class="st10" d="M303.4,761.2c2-13.1-0.7-25.8-2.9-38.5c-0.2-1.2-0.3-2.5-0.5-3.7c3.3-2.8,6.9-1.3,9.9,0.2
		c8.7,4.2,18,5.3,27.3,6.4c13.2,1.5,26.6,1.9,39.9,1.8c7.3,0,14.6-1,21.7-2.1c5.8-0.9,11.5-3.2,17.5-3.9c2-0.2,4-0.3,5,2
		c-4.6,17.1-4.4,34.2-0.4,51.4c0.3,1.3,0.4,2.8,0.6,4.1c-27.5,0-55,0-82.6,0.1c-2.7,0-5.3-0.1-8-0.2c-0.7-0.4-1.7-0.5-2.2-1.1
		c-6.2-7.2-14.8-10.7-23-14.8C304.9,762.4,304.2,761.7,303.4,761.2z"/>
	<path class="st11" d="M202.2,746c8.6-5.3,18.3-6.8,28.1-7.4c11.6-0.7,23.2-0.4,34.6,2.4c17.1,4.1,26.9,15.7,32.3,31.6
		c0.9,2.5,2,4.9,2.9,7.3c-2.7,14.2-12.5,20.4-26.4,16.7c-0.7-0.2-1.5-0.7-2-0.5c-10.6,4.2-21.6,1-32.3,2c-1.7,0.2-2.9-0.5-4.4-0.8
		c-0.9-1.1-2-0.6-3.1-0.5c-6.4,1.1-12.8,1.5-19-0.5c-1.2-0.4-2.2-0.2-3.2,0.2c-6.8,2.5-15-2-18-8.5c-1.8-3.8-2.6-7.9-3.9-11.9
		C186.8,763.4,191.1,753.1,202.2,746z"/>
	<path class="st12" d="M303.4,761.2c5.4,0,9.2,3.7,13.7,5.8c5.6,2.6,10.7,6.2,13.9,11.8c-10,0.1-20.1,0.2-30.1,0.2
		C301.1,772.9,303.3,767.2,303.4,761.2z"/>
	<path class="st13" d="M628.1,725.8c-7.5,10.3-15.8,19.8-24.9,28.7c-2,1.9-3.8,4.1-5.6,6.1c-7.7,5.9-15.6,11.4-24.8,14.7
		c-11.8,4.3-24.2,4.2-36.5,4.3c0.5-4.8,1.3-9.6,0.3-14.5c-1.6-7.8-5.7-13.8-12.3-18.1c-1-0.7-2.3-1.2-2.4-2.7
		c0.6-3.7,3.3-6.1,5.6-8.8c0.2-0.3,0.5-0.6,0.8-0.9c8.3-11,16.7-21.9,24-33.6c0.8-1.3,1.6-2.6,2.9-3.5c3.7-3.1,7.2-3.1,11.9-1.4
		c9.3,3.2,18.8,5.1,28.6,0.3c6.9-3.4,7.9-2.5,12.9,3.3c6,7,10.9,15,18,21.1C627.9,722.1,628.9,723.7,628.1,725.8z"/>
	<path class="st14" d="M581.5,265.1c0.7,2,1.5,3.9,2.1,5.9c2.5,9.4,6.8,18,11.2,26.6c0.9,1.7,2.1,3.3,2.2,5.4
		c3.2,5.3,1.9,10.8,1,16.3c-1,6.2-2.9,12.3-4.3,18.4c-0.8,3.6-3.4,6.9-1.8,10.9c2.3,5.7-4.9,3.4-6,7.2c-2,6.9-6.9,12.4-11.3,18.1
		c-1.4,1.8-2.9,3.4-4.9,4.6c-3.7,1.2-4-2.7-5.8-3.8c3.7,4.5,3.7,4.5,2.1,7.8c-5.8,5.5-12.9,9-20,12.3c-3.2,1.4-5.6,0.1-7.8-2.3
		c-5.4-5.8-5.5-5.8-12.3-1.8c-7.6,4.5-15.1,9.1-22.8,13.5c-8.7,5-18.1,8.4-27.7,10.9c-4.9,1.3-9.8,0.2-14.7-0.3
		c-7.4-0.8-14.6,0.2-21.7,1.6c-1.6,0.3-3.3,0.8-4.5,2.2c-2.3,2.7-5.2,3.7-8.6,3.5c-2.1-0.1-3.4,0.4-3.8,2.8
		c-0.4,3.1-3.1,3.7-5.6,4.3c-3.3,0.8-6.7,0.8-9.9,1.8c-1.9,0.3-3.8,0.3-5.5-0.7c-3.5-4.8-1.3-9.7,4.9-11.1c1.4-0.3,2.9-0.5,3.8-0.5
		c-5.5,1.4-11.5,0.4-17.3-1c-10.2-2.4-20.6-1.3-30.8-3.2c-3.7-0.7-7.6-0.6-11.3-1.1c-3.9-0.6-6.5,0.6-8.7,3.6
		c-1.6,2.1-3.4,4.1-5.7,5.5c-3.8,1.2-7.6-0.6-11.3-0.1c-3.8,3.3-7.6,6.6-6.7,12.5c0.1,0.6-0.4,1-0.8,1.4c-1.5,0.8-3,0.5-4.5,0.2
		c-8.6-2.2-17.1-4.5-24.2-7c1.9,0.8,5,2.3,7.9,4c1.3,0.8,2.8,1.7,2.4,3.6c-0.3,1.8-1.9,2.4-3.4,2.7c-6.9,1.3-13.9,1.6-20.9,1.8
		c-9.1,0.2-18.3,0-27.4,0.1c-0.8,0-1.7-0.1-2.4,0.7c0.3,2.1,2.2,2.7,3.7,3.6c4.4,2.5,9.2,4.3,13.9,6c2.4,0.9,6.1,1.8,4.7,5
		c-1.3,3-4.6,1.4-7.1,0.3c-0.3-0.1-0.5-0.3-0.7-0.5c-1-1.6-2.7-2.3-4.4-3.1c-10.5-4.8-20.8-9.8-30.5-16.1c-3.1-2-6.6-3.1-9.9-4.7
		c-3.6-1.7-3.8-4.3-0.8-6.8c0.4-0.4,0,0.2,0.3-0.2c4.9-7.8,13.4-7.6,21-9.1c1.5-0.3,3.6-0.1,3.8-1.9c0.2-1.6-1.9-1.9-3.1-2.3
		c-9.3-3.5-18.2-8-27.7-11.2c-3.1-1.1-3.9-3.3-2.5-6c1.8-3.3,4.1-5.7,8.7-5.1c5.2,0.7,10.6,0.5,16.2-0.3c-3.2-3.6-7.2-5.3-10.9-7.5
		c-1.8-1.1-3-2.1-2.2-4.3c1.1-2.8,3.2-3.7,6.3-3.9c7.5-0.3,14.9,0.3,22.3,0.7c3.6,0.2,5.4,2,5.8,5.4c0.2,1.5,0.4,3.1,0.2,4.6
		c-0.8,5.3,1.8,8.2,6.2,10.6c10.3,5.3,21.1,9,32.8,11.5c-0.2-2.3-1.7-3.5-2.5-5c-0.9-1.4-1.9-2.8-2.7-4.3c-1-1.8-2.5-3.8-1-5.9
		c1.4-2,3.6-0.9,5.7-0.7c-17.1-9.7-33.8-19.5-49.6-31c-3-2.1-6.3-3.2-8.2-6.8c-1.1-2.2-4-3.4-5.9-5.3c-2.6-2.5-4.7-2-7.2,0.2
		c-6.5,5.8-12.7,11.9-19,17.9c-1,0.6-2.2,1.8-3.3,0.6c-1.2-1.3,0-2.5,0.7-3.6c5.5-6.4,11.6-12.1,18.1-17.5c3-2.4,3.4-4.4,0.3-7
		c-2.5-2.2-4.9-4.6-6.7-7.5c-2.7-4.3-2.3-5.7,2.2-8.4c2.1-1.2,4.3-1.9,6.5-2.9c6.5-5.6,13.1-10.9,21.3-13.9c1.1-0.4,2.9-0.2,2.2-2.2
		c-0.5-1.4-1.6-2.3-3.3-2c-2.8,0.6-5.4,1.6-7.8,3.1c-6.5,4.1-13.8,6.2-21.2,7.9c-12,5.5-22.7,13.3-33.6,20.8
		c-8.7,6.1-17,12.8-25.1,19.7c-1.7,1.4-3.3,3-5.4,3.9c-0.8,0.3-1.7,0.5-2.3-0.4c-0.4-0.6-0.1-1.4,0.2-2c0.7-1.4,1.9-2.5,3-3.5
		c8.1-7.8,16.9-14.7,25.9-21.4c10.7-7.7,21.9-14.4,33.4-20.8c4.1-4.9,9.9-6.8,15.5-8.9c5.3-2,10.6-3.7,15.2-7.1
		c1.4-1,2.9-1.8,4.7-0.6c0.4,3.1,2.5,3.3,4.9,2.5c3.5-1.1,7-2,10.6-2.9c1.2-0.3,2.5-0.6,3.7-0.7c1.8-0.1,3.9-0.3,4.9,1.6
		c1,2-0.4,3.4-1.9,4.6c-3,2.4-4.1,6.4-7.5,8.4c-1.6,0.9-0.5,1.8,0.6,2.3c1.5,0.7,3.2,1.1,4.6,2c2.3,1.4,4.2,3.1,3.4,6.1
		c-0.3,1.3,0,1.8,1.3,1.9c0.7,0,1.4,0.1,2.1,0.4c2.7,1,6.1,1.6,6.8,5c0.6,3.1-2.4,4.4-4.4,6.4c3.2-0.5,6.3-0.2,9.3,0.5
		c7.1,1.6,14.2,1.2,21.3-0.2c1.9-0.4,3.8-1,5.7,0.2c0.3,0.3,0.5,0.7,0.7,1c1.3,2.2,0.4,6.1,3.7,6.5c4.5,0.5,9.4,1.8,13.5-1.3
		c11.3-8.5,24.8-12.8,37.3-19.1c3.2-1.6,6.4-1.5,9.7-0.2c8.6,3.4,16.7,8.1,25.3,11.5c7.9,3.2,15.3,7.9,24.4,6.8
		c1.6-0.2,3.7,0.5,4.3-1.6c0.6-2-1.5-2.4-2.6-3.4c-1.1-1-2.7-1.8-2-3.7c2.7-1.9,5.4-0.5,8.1,0c4.9,0.8,9.8,1.8,12.9-3.7
		c0.3-0.6,1.1-1.1,1.7-1.1c6.9-0.1,13.3-3.4,20.3-3c1.2,0.1,2.1-0.2,3-1c5.4-4.9,11.5-5.2,17.9-2.2c1.7,0.8,3.4,1.3,5.1,1.7
		c4.8,1.9,9,1.1,12.7-2.7c1.8-1.9,4.2-2.9,6.5-3.8c9.6-3.6,17.8-9.3,24.8-16.9c7-7.7,13.9-15.4,17.2-25.7c1.7-5.4,2.4-11,3.1-16.5
		c0.6-5.2,2.7-6.4,7.3-4c5.5,2.9,10.7,6.1,15.9,9.5C579.8,259.5,581.7,261.8,581.5,265.1z"/>
	<path class="st15" d="M581.5,265.1c-0.7-3.1-2.8-4.8-5.6-6.3c-5.3-2.8-10.4-6.2-15.5-9.3c-3.6-2.1-4.7-1.5-4.9,2.5
		c-0.5,13.2-4.7,25.2-13,35.3c-6.1,7.3-12.5,14.5-20.4,19.8c-4.1,2.8-9.1,4.2-13.7,6.2c-2.3,1-4.5,2-6.1,4.2
		c-2.6,3.5-8.5,4.1-12.5,1.6c-3.4-2.6-7.6-3.6-11.2-5.6c-7.1-3.9-11.4-12-10.5-20c0.3-3,2.7-4.3,6.9-3.3c5.5,1.3,10.8,3.1,16,5
		c1,0.4,2.1,0.7,2.4,0.9c-6.8-2.3-14.2-5.4-22.1-6.5c-4.3-0.6-8.2-2.2-10.8-5.9c-2.4-3.4-1.4-6.4,2.6-7.3c2.1-0.4,3-1.1,3.4-3.3
		c0.5-2.8,3.2-2.8,5.5-2.8c4.4,0,8.5,1.6,12.8,2.3c14.5,2.5,29,5,42.8,10.1c-13.8-5.1-28.2-7.6-42.5-10.1c-0.8-0.1-1.7-0.2-2.5-0.5
		c-1.7-0.5-4-0.4-4.2-2.8c-0.2-2.3,1.9-3.1,3.6-3.5c3.6-0.9,3.9-3,2.8-6c-0.4-0.9-0.6-1.9-0.8-2.8c-1.5-6.3-0.4-8,6.2-8.8
		c0.7-0.1,1.4,0,1.9-0.8c-0.6-2.1-2.6-3.1-4.2-4.5c-3.9-3.5-8-6.6-11.6-10.4c-1.8-1.9-3.5-2.5-5.8-0.7c-1.6,1.2-3.4,2.1-5.4,0.5
		c-0.5-1.2,0.4-1.7,0.9-2.6c3.5-5.3,6.8-10.7,7.7-17.1c0.7-4.4,3-6.6,7.4-7.3c4.3-0.7,8.5-1.9,13.3-4c-15.2-3.6-28-11.8-42.9-13.7
		c-3.3-0.4-6.8,0.2-10-1.1c-1.7-1.3-3.8-1.7-5.8-2.5c-3.2-1.3-4.3-3.5-2.7-6.7c0.8-1.7,1.8-3.5,1.1-6.2c-4,3-8.1,5.3-11.9,8
		c-3.6,2.5-7.1,5.1-11.1,6.9c-4.7,2.1-7.4,0.2-7.3-4.9c0.1-4,1.7-7.7,3.4-11.2c1.3-2.6,2.8-5.2,3.7-8c1.2-3.6,1.4-6.9,0.4-10.9
		c-1.5-5.7-2.6-11.8-2.6-17.8c0-2.8-0.5-4.6-3.9-5.3c-5.3-1-7.7-5.2-9.4-9.9c-0.7-1.8-0.9-3.8-2-6c-3.3,3.4-5.9,6.9-8.5,10.4
		c-4,5.5-5,5.8-11,2.8c-1.9-1-6.6,1.9-7.4,5c-1.7,6.6-2.2,12.8,1.2,19.5c4.6,9.1,8,18.9,13.7,27.5c0.8,1.2,1.3,2.5,2.9,3.4
		c1.9-3.4,1.7-7.2,2.4-10.8c0.4-2.1,0.5-4.2,1.7-6c1.5-2.3,3.1-2.3,4.4,0.1c1,1.8,1.1,3.8,1.1,5.7c0.2,7.8,2.5,15.3,3.1,22.9
		c0.8,9.6,5.5,18.6,4.4,28.4c0,0.3,0,0.6,0,0.8c-0.5,3.4,0,7.8-3.9,9.1c-3.9,1.3-5.8-2.5-7.8-5.1c-2.6-3.5-5.3-6.9-7.6-10.6
		c-1.9-2.9-4.3-5.2-7.7-6.2c-2.2-0.7-3.9-2.3-5.6-3.6c-2.7-2.1-5-1.6-5.8,1.5c-3.3,13.5-15.4,19-24.4,27.2c-3.4,3.1-8.2,2.3-12.3,0
		c-1.1-1.6-1.2-3.4-1.1-5.2c0.3-7.1-1.6-13.5-5-19.6c-0.9-1.6-1.8-3.2-1.9-5.1c0.6-6.1,4-10.2,9.3-13.1c6.2-3.3,12.6-6.1,19-9
		c1.8-0.8,3.5-1.7,5.2-2.7c2.3-1.4,3-3.2,1.5-5.6c-9.3-15.5-13.8-32.4-15.6-50.2c-0.4-3.5-1.1-6.9-3.9-9.5c-0.9-0.9-1.6-2.2-1.3-3.4
		c1.4-4.9-0.1-10.5,4.9-14.6c2.8-2.3,3.2-6.7,4.7-10.2c1.2-2.7,2.3-5.4,5.1-7c1.8-1.2,3.8-0.9,5.7-0.9c14-0.1,28.1,0.3,42.1-0.3
		c6.9-0.3,13.8,0.5,20.7,0.3c7.1-0.2,14.3-0.4,21.4,0.6c6.1,0.9,10.7-1.3,15.3-5.6c11.2-10.4,23.1-20,36.2-28
		c4.1-0.3,3.1,2.4,2.3,4.4c-1.5,3.5-4.2,6.3-6.8,9.1c-1.4,1.5-3.1,2.9-4,4.8c-0.5,1-1,2.1-0.3,3.2c0.8,1.2,2,1.3,3.3,1.1
		c9.6-1,10.6,0.3,7,9.3c-2.3,5.8-3.6,12.3-9.8,15.6c4.1,4.5,8.4,6.1,14,3.8c2.5-1.1,5.5-1.3,8.2-2c2.3-0.6,4.5-0.8,6,1.5
		c1.1,1.6,2.4,1,3.7,0.6c3.3-1.2,6.6-2.3,10-3.4c1.3-0.4,2.7-0.9,4.1-0.7c0.8,0.1,1.8,0.2,2.1,1.1c0.4,1-0.5,1.5-1.1,2
		c-1.3,0.9-2.8,1.4-4.2,1.9c-6.1,2.1-12.1,4.5-18.1,7c-5.4,2.3-9.4,5.6-9.2,12.2c0,1.3-0.8,2.4-1,3.7c1.5,0.9,2.6-0.3,3.9-0.6
		c13.3-3.9,26.5-7.7,40.6-5.2c2,0.4,3.9,0.6,5.2,2.4c2.2,0.6,4.5,1.1,6.7,1.7c-2.7,1.3-5.1-0.6-7.7,0.2c-2.3,1-4.7,0.5-7.1,0.2
		c-13.3-1.7-25.6,2.4-37.7,6.9c-0.4,0.1-0.7,0.5-0.6,1.3c1.6,1.5,4.1,1.7,6.3,2.3c1.6,0.5,3.3,0.7,4.8,1.5c1.3,0.7,2.3,1.7,2.2,3.3
		c-0.1,1.6-1.1,2.5-2.5,3.1c-2.2,1-4.6,1-7,1.4c0.5,0.8,1.3,1,2,1.5c2.3,1.8,3.1,3.7,0.4,5.8c-1.7,1.3-1.4,2.4-0.3,3.9
		c4.2,5.6,8.9,10.9,12.5,17c0.9,1.5,2.1,1.6,3.6,1c5.3-1.9,10.6-3.6,15-7.5c1.6-1.5,3.3-3.7,6.2-2.2c-0.8,4.6,1.6,8.1,3.7,12
		c8.2,15.6,15.1,31.9,20.7,48.7c4.3,13,9.8,25.6,13.4,38.9C579.8,260.1,583.1,261.8,581.5,265.1z"/>
	<path class="st16" d="M645.7,403.5c5,14,10.6,27.8,14,42.4c1.9,8.3,3.6,16.6,5.4,24.9c-1.8,0.9-2.9-0.3-4.1-1.2
		c-3.9-3-5.2-2.7-6.8,2.1c-4.7,14-10.4,27.7-17.3,40.7c-7.9,14.8-17.1,28.8-30.4,39.4c-3.6,2.9-7.3,5.7-11.8,7.3
		c-3.5,1.2-4,3.3-2.9,6.5c1.7,4.8,2.9,9.7,3.7,14.7c0.4,2.1,0.8,4.2-0.7,6.1c-3.1,0.7-3.6-1.5-3.8-3.6c-0.5-4.9-2.6-8-7.6-9.2
		c-3.7-0.9-6.7-3.9-12-4.8c4.5,4.4,1.5,7.8,0.8,11.4c-0.4,2.1-1.3,3.9-3.8,3.8c-2.7-0.1-2.9-2.2-2.9-4.3c-1.4,2.5-2.8,4.9-2.9,7.8
		c-0.1,1.3-0.6,2.8-1.8,3.1c-3.7,1.1-4.9,4.3-6.8,7c-2.6,3.9-5.8,7.1-10.9,7.8c-3.4,0.5-6.1,2.8-9,4.4c-6.1,3.3-9,2.8-13.6-2.4
		c-7.2-8.3-13.9-16.9-19.8-26.2c-5.2-8.2-11.8-15.3-16.9-23.6c-1.4-2.3-2.8-4.5-3.3-7.2c-0.5-2.8,0.3-4.9,2.8-6.4
		c10.8-6.9,20.2-15.3,27.6-25.7c3.1-4.4,7.2-7.3,12.3-8.3c16.6-3.3,29.6-13.2,42.6-23c1.5-1.1,2.8-2.8,4.6-2.9
		c4.3-0.4,6.4-3.3,8.7-6.4c8.3-11.3,17-22.3,23.6-34.8c1.4-2.6,3.1-4,6.1-2.2c3.6,4.2,5,9.6,7.7,14.3c0.1,0.5-0.1-0.2,0.1,0.3
		c0,0,0-0.1,0-0.1c-2.7-6.4-6.7-12.1-8.8-18.7c0-8.3,1.5-10.2,10.3-12c1.2-0.3,1.8-0.6,1.6-1.9c-1-4.6,0.8-8.6,2.4-12.6
		c1.6-3.7,0.6-5.9-3.2-7.6c-4.6-2.1-9.4-3.6-14.1-5.6c-2.1-0.9-4.1-1.9-5.8-3.4c-3.2-3-2.6-7.4,1.5-8.7c2.6-0.8,2.7-1.7,1.8-3.8
		c-1-2.3-0.8-4.7,0.1-7c1.6-3.8,4.2-4.3,7.1-1.4c2.5,2.5,3.7,6.2,7.3,9c-1.3-4.7-3.6-7.9-5.8-11c-4.8-6.6-4.8-13.8-3.5-21.3
		c0.9-5,4.8-6.1,9-6.7c6,7.9,9.6,17.1,13.8,25.9c0.9,1.8,1.6,3.2,3.7,3.5c0.7,5.2,3.4,9.7,5.4,14.5c1.9,4.4,3.8,8.7,5.7,13.1
		C645.6,400.8,646.2,402.1,645.7,403.5z"/>
	<path class="st17" d="M347.2,78.7c-2.8,5.5-5.1,11.2-7.3,16.9c-0.2,0.7-0.5,1.6-1,1.8c-6,2.4-2.5,8.7-5.1,12.5
		c-0.6,0.9-0.2,2.4,0.9,3c4.5,2.7,4,7.4,4.8,11.5c1.6,8.9,2.1,18.1,5.2,26.7c2.8,7.6,6,15.1,10.3,22c1.8,2.9,1.7,5-1.4,7
		c-5.4,3.4-11.4,5.4-17,8.1c-3.9,1.9-7.7,3.9-11.5,6.1c-2,1.2-3.3,2.9-4.1,5.2c-0.5,1.4-0.6,3.1-2,4.1c-2.5,0.2-3.1-2-4.4-3.3
		c-1.1-1.1-2.2-2.1-3.4-3c-7.6-6.3-16.1-10-26.2-9.9c-1.4,0-2.8-0.2-3.7-1.5c1.4-5.5-2.4-9.4-4.8-13.3c-3-4.8-3.7-9.4-3.4-15
		c0.3-5.4-0.1-10.9-0.3-16.3c-0.1-1.6-1.2-2.5-2.2-3.5c-1-1.1-2.4-2.1-1.6-4.3c3,2.3,6.1,4.2,9.6,1.3c2-1.6-0.2-3-0.3-4.5
		c0.3-0.3,0.7-0.7,1-1c1.1,1.5,2.2,3.1,3.4,4.5c0.8,0.9,1.5,2.3,3.1,1.6c1.5-0.6,2-2,2.1-3.4c0.2-3.5,0.6-7,0.8-10.5
		c0.3-5.2,3.1-9.9,3.1-15.1c3.7-1.2,4.7-4.9,7-7.3c1.1-1.1,1.6,0.4,1.8,1.3c0.8,2.6,1.8,4.1,4.5,1.5c1.7-1.7,3.1-0.9,4.3,1.1
		c2,3.2,4.3,6.2,6.6,9.2c0.5,0.7,1.1,1.5,2,1.3c0.9-0.3,1-1.2,1-2.1c0.9-10.9,1.7-21.7,2.6-32.6c2.5-0.3,5-0.7,7.5-0.7
		c1.9,0,2.7-0.9,3.3-2.9c0.6,3.9,3.3,3.5,5.8,3.5C341.3,78.6,344.3,78.7,347.2,78.7z"/>
	<path class="st18" d="M544.5,116.6c-9.6-1.9-19.1-2.4-28.7,0c-6.9,1.7-14,2.9-20.6,5.7c-0.8,0.3-1.8,1.3-2.6,0.1
		c-0.5-0.9-0.5-2.1,0.2-2.8c1.6-1.8,1.5-3.8,1.6-6.1c0.2-4.1,2.7-7.2,6.6-9.1c7.2-3.5,14.6-6.5,22.2-9c1.5-0.5,2.9-1.1,4.1-2.4
		c-5,1.6-10,3.3-15,4.9c-1.1,0.3-2.1,0.8-3.2,1c-1.1,0.2-2.4,0.2-2-1.7c0.6-3.2-1.4-2.3-3-1.9c-5.2,1.3-10.3,2.5-15.5,3.9
		c-1.5,0.4-2.8,0.6-3.7-0.9c-1.2-2.2-3.1-3.1-5.4-3.8c-2-0.6-2.3-1.9-0.5-2.8c8.1-4.4,8.1-13.4,11.7-20.3c1.1-2.2-0.7-3.9-3.4-3.5
		c-1.5,0.3-2.9,0.9-4.4,1.3c-2,0.5-3.5-0.5-4.8-1.9c-1.3-1.5-0.6-2.9,0.1-4.3c2.3-4.6,7.1-7.2,9.7-11.6c0.6-1.1,1.5-2,2.1-3.1
		c1-1.6,0.8-3-1.3-3.6c10.3-6.8,21-13,33.3-15.3c6.1-1.1,11,1.1,14.2,6.5c4.1,6.9,5.4,14.7,6.6,22.4c1.6,9.9,2.6,20,3.3,30
		c0.3,4.8-0.3,9.8-0.9,14.7C544.6,107.6,544.7,112.1,544.5,116.6z"/>
	<path class="st19" d="M616.5,342.6c-0.6,1.2-1.6,2.1-2.9,2.3c-4.2,0.6-4.2,3.6-5.1,6.9c-2.7,10.5,3.9,17.5,8.2,25.5
		c0.5,0.9,1.1,1.6,1.5,2.5c0.6,1.3,0.9,2.8-0.5,3.8c-1.7,1.1-2.5-0.2-3.3-1.4c-2-2.9-3.9-5.8-6-8.6c-2.1-2.7-3.3-2.5-4.7,0.6
		c-1.3,3-0.8,5.7,0.8,8.4c0.6,1.1,1.3,2.4,0.3,3.5c-0.8,0.9-1.8,0.2-2.7-0.2c-1.8-0.8-2.6,0.2-3.4,1.5c-1,1.6-1.1,3.1,0.5,4.5
		c2.6,2.3,5.7,3.8,8.9,4.7c5.1,1.5,9.9,3.9,14.7,6.1c1.8,0.8,2.2,2,1.7,3.7c-0.7,2.4-1.4,4.9-2.4,7.2c-1.4,3.1-1.8,6-1,9.4
		c0.6,2.4,0.9,5.5-3.4,3c-1.6-0.9-3-0.4-3.9,1.2c-0.4,0.6-0.8,1.5-1.3,1.6c-5.6,0.5-3.3,4.8-3.8,7.7c-2.4,0.2-2.9-1.8-3.8-3.3
		c-5.2-8.7-10.3-17.3-16.5-25.3c-2.5-3.2-2.9-7.3-5.1-10.5c-3.8-5.6-8.1-10.7-12.3-16c-0.8-1-1.9-1.7-2-3.1
		c6.4-7.6,12.5-15.4,16.5-24.6c1.1-2.5,2.7-4.3,6.1-2.2c-3.1-3-2.2-5.8-1.2-9.1c3.2-10.3,5.8-20.7,7.1-31.4c0.3-2.7-0.7-5.2-0.7-7.9
		c5.5,8.3,8.8,17.6,13.2,26.5C612.3,333.8,614.4,338.2,616.5,342.6z"/>
	<path class="st20" d="M541.3,158c-1.2,0.1-2.1,0.7-2.9,1.6c-5.3,5.7-12.6,7.6-19.4,10.5c-1.8,0.7-2.5,0.1-3.3-1.3
		c-3.6-7-9-12.8-13.8-19c-1.7-2.2-2.6-3.8,1-4.7c0.9-0.2,2.1-0.6,2.1-1.8c0-1-1.1-1.5-1.9-2.1c-1.7-1.1-4-1.5-5.4-3.8
		c3.3-0.7,6.5-0.1,9.6-1.1c1.4-0.5,2.9-0.7,3-2.4c0.1-2-1.8-2-3-2.3c-3.1-0.9-6.3-1.5-9.3-2.5c-1.3-0.4-2.9-1.1-3-2.6
		c-0.1-1.5,1.6-1.8,2.7-2.2c11.3-4.1,22.7-8.1,35-7.5c3.6,0.2,7.2,0.6,10.7,1.7c-0.9,10.3-3.2,20.5-1.6,30.9
		C542.4,152.2,542.6,155.1,541.3,158z"/>
	<path class="st21" d="M179.5,99.9c1.1,6,0.8,12,0.2,18C179.7,111.9,179.6,105.9,179.5,99.9z"/>
	<path class="st22" d="M594.3,586.6c0.2-7.1-2.1-13.8-4.1-20.5c-1.7-5.7-1.5-5.9,4-8.3c8.8-3.8,15.7-10.2,21.9-17.3
		c17.5-20.1,27.6-44,36.3-68.7c2.6-7.3,4.5-7.9,10.1-2.4c0.7,0.7,1.7,1,2.5,1.5c3.5,17.9,5.6,35.9,6,54.2c0.1,3.6-0.4,7.3,0.8,10.8
		c1.6,1.5,1.8,3.4,1.8,5.4c0,14.9,0.7,29.8-0.2,44.7c-0.7,10.8,0.5,21.6-1.4,32.4c-0.3,1.7-0.2,3.4-1.9,4.4c-0.2,0-0.4,0-0.6,0
		c-2.2-1.8-2.7-5.1-6.1-6c-4.8-1.4-7.8-0.6-10.4,3.7c-15.5,26.1-39.3,40.8-67.6,49.4c-1.6,0.5-3.3,0.8-4.8-0.4
		c-0.9-1.9,0.1-3.5,0.9-5c1.7-3.3,3.6-6.5,5.2-9.8c5.2-13.3,6.7-27.1,6.7-41.2c0-8.3,0-16.5,0-24.8
		C593.5,587.8,593.7,587.1,594.3,586.6z"/>
	<path class="st23" d="M580.8,669.1c6-0.2,11.6-2.2,16.9-4.6c15.7-7.1,30.5-15.4,42.2-28.5c4.5-5,9.2-9.7,11.8-16.2
		c1.8-4.3,5.8-6.5,9.8-5.2c5.9,1.9,7.8,1.3,8.1,8.2c-0.1,8.3-2.4,16.3-3.8,24.4c-0.3,1.6-0.4,3.3-0.6,5c-3,9.5-6.1,18.9-10.1,28
		c-4.7,11.8-11.1,22.8-17.7,33.7c-3.7,3.4-5.3,8.6-9.3,11.8c-0.8-2.2-2.3-3.9-4.1-5.3c-5.1-3.9-8.2-9.5-12.3-14.2
		c-2.5-2.9-4.9-5.8-7.2-8.8c-1.5-1.9-3.1-2.1-5.2-1.1c-1.1,0.5-2.4,0.9-3.5,1.5c-9.6,5.5-19.3,2.3-29,0.3c-0.1,0-0.3,0-0.4-0.1
		c-3.9-3.9-7.6-1.7-11.2,0.6c-0.4-0.6-0.6-1.4-0.1-2c7-9.1,12.5-19.5,22.2-26.4C578.4,669.6,579.3,668.7,580.8,669.1z"/>
	<path class="st24" d="M240.8,293c-0.7,0.1-1.6,0-2,0.3c-6.8,6.1-15.9,7.4-23.8,11.1c-3.4,1.6-6.4,3.3-8.8,6.2
		c-6-3.9-9.9-9.8-13.9-15.4c-2.8-4-5.3-4.8-9.7-2.8c-5.1,2.3-10.4,4-15.6,6.1c-1.6,0.6-3.3,1.8-5.1,0.2c-0.4-0.8-0.4-1.7,0-2.5
		c2.1-2.6,5.2-3.2,8-4.3c4-1.6,8.1-3,12.2-4.5c2.7-0.9,3.5-2.2,2-4.9c-5.5-9.8-8.1-20.5-9.5-31.6c-0.4-3.1-1.3-6.4,1.3-9.2
		c0.6,0,1.1-0.2,1.7-0.1c5.9,1.2,8.8-2.2,12.2-6.5c8.7-11.4,17.9-22.3,28-32.5c1.7-1.7,3.8-2.7,6.1-2.2c3.2,0.7,6.4,0.5,9.6,0.9
		c6.6,0.4,12.7,3.2,19.1,4.3c1.8,0.3,3.4,1.3,3.6,3.1c0.6,7.3,4,13.5,7.2,19.9c-0.6,1.6,0.1,2.8,0.8,4.3c3,6,2,9.8-3.5,13.7
		c-1.8,1.3-3.7,2.6-5.4,4c-3.9,3.2-4.3,5.3-1.9,9.8c0.9,1.6,2,3.1,2.9,4.6c2.6,4.5,1.3,7.1-4,7.6c-3.4,0.3-6.7,0-10.1,0.2
		c-1,0.1-2.2-0.1-2.6,1c-0.5,1.2,0.8,1.6,1.5,2.2c3.1,2.8,5.8,6.1,8.6,9.2c3.4,3.7,2.5,6.6-2.2,8.1C245.4,293.9,243,295.1,240.8,293
		z"/>
	<path class="st25" d="M162.4,296.4c0,0.8,0,1.7,0,2.5c0.2,0.9-0.2,1.6-0.8,2.2c-10.4,4-20.1,9.2-29.7,16.4c5,0.6,7.4,3.5,9.2,7
		c1.7,3.2,4.1,3.4,7,1.7c4.7-2.7,9.6-5.3,14.2-8.2c1.2-0.7,2.2-1.8,3.7-1.8c3.7,4.2,7,8.6,6.5,14.6c-4.3,4.7-9.9,7.7-14.6,11.9
		c-4.8,4.4-10.2,8.3-14.2,13.7c10.5-7.8,20.2-16.7,31.2-23.9c2.2,1.5,3.1,3.9,4.5,6c1.2,1.8,2.2,3.6,4.8,3.5c1.6,0,2.3,1,1.7,2.5
		c-0.9,2.4,0.3,4.1,1.6,5.7c2.9,3.6,5.6,7.3,9.1,10.4c0.9,0.8,2,1.6,2,3.1c-0.5,0.8-1,1.6-1.5,2.5c1.2,0.5,1.6-0.7,2.3-0.8
		c3.1,0.5,5.2,2.8,7.5,4.5c3.7,2.7,8.1,4.5,11,8.2c-0.3,1.3-0.1,2.1,1.4,2.9c4.2,2.2,8.2,4.8,12.3,7.3c0.9,0.6,2.2,1.1,1.8,2.5
		c-0.4,1.2-1.7,0.8-2.6,0.8c-6,0-12.1-0.1-18.1-0.3c-2.5-0.1-7,3.6-7,6c0,1.4,0.8,2.2,2.2,2.7c10.7,3.5,20.8,8.4,31.2,12.5
		c1,0.4,2.4,0.6,2.2,2.1c-0.2,1.2-1.2,1.9-2.3,2.2c-4.3,1.2-8.7,2.4-13.2,2.5c-3,0.1-5,1-7,3.1c-1.6,1.7-3.5,3.2-5.3,4.8
		c-1.7,1.5-1.7,3,0.5,3.8c14.2,5.6,26.3,14.9,40.3,20.9c1.9,0.8,4.7,0.6,5.1,3.7c-1.6,1.6-3.5,0.9-5.1,0.3
		c-16.3-5.4-32.1-11.8-46.4-21.4c-1.5-1-3.2-1.8-3.6-3.9c1-2.7,3.4-4.1,5.5-5.6c2-1.4,3.8-2.8,5.4-4.7c3-3.6,6.7-5.3,11.5-5
		c2.4,0.1,4.8,0.2,7.2-1.2c-0.8-1.5-2.3-1.9-3.7-2.4c-8.6-3-16.7-7.4-25.6-9.7c-3-0.8-5.6-2.7-7.9-4.8c-2.3-2.1-2-4.6,0.8-5.8
		c4.6-2,9.7-2.8,14.4-4.7c1-0.4,2.2,0.4,3.2,0.8c2.7,1.1,5.4,1.1,8.6,0.3c-1.8-2.5-3.8-3.8-6.5-3.8c-2,0.1-3.6-0.6-4.7-2.3
		c-2.8-4.3-7.4-6.4-11.4-9.2c-1.9-1.4-3.2-1-5,0.7c-4.7,4.5-7.6,10.5-12.5,14.7c-5,4.1-7.3,10.2-10.5,15.5
		c-3.8,6.2-6.3,13.1-8.8,19.9c-1.7,4.7-3.6,5.2-7.2,1.6c-11-11.3-20.2-23.9-28-37.7c-0.9-1.6-1.6-3.3-2.6-4.8
		c-0.2-0.4-0.5-0.7-1.1-0.8c-3,1.7-2.7,6.8-7,7.4c-5.1-2.5-4.5-7.8-5.9-12.2c-1.5-4.9,0-7.4,5.2-9.1c2.4-0.8,7.1-0.6,7.2-5.4
		c0-1.1,1.6-0.8,2.5-0.3c1.7,0.8,3.4,0.5,3.9-1.1c0.7-2.3-1.3-1.3-2.4-1.5c-0.6-0.1-1.1-0.6-0.8-1.2c0.6-1.2,1.6-2.2,3-1.8
		c2.3,0.8,4.3,0.6,6.2-1.2c1.1-1.1,3.6-1.3,2.7-3.6c-1-2.3-2.6,1.1-4.1-0.3c0-0.2-0.1-0.9,0.1-0.9c4.9-1.7,3.9-5.3,2.8-8.8
		c-0.9-2.8-2.4-5.3-3.1-8.2c-0.6-2.6-2.6-3-5-1.9c-2.8,1.2-5.2,3.2-8,4.6c-4.3,2.1-8.5,3.1-13,1.3c-1.2-0.5-1.9,0.3-2.4,1.1
		c-1.1,1.4-2.1,2.9-3.2,4.4c-0.5,0.7-0.9,1.8-1.8,1.5c-1.1-0.4-0.4-1.7-0.7-2.6c0.4-0.8,0.7-1.6,1.1-2.4c3.4-1.2,5.4-4,7.5-6.6
		c12-14.6,27.1-24.9,44.1-32.8c2.4-1.1,5-2,6.4-4.5C161.4,295.5,162.1,295.6,162.4,296.4z"/>
	<path class="st26" d="M213.9,99.7c-9.1-2.9-17.8-6.7-27.2-8.6c-2.3-0.5-2.6-2.3-2.4-4.2c1.9-13.7,3.8-27.5,8.7-40.5
		c3.6-9.6,8.3-11.6,19.4-8.4c13.1,3.8,24,11.2,33.9,20.4c3.3,3.1,2.3,6.7,2.1,10.2c-0.2,2.3-1.9,0.6-2.8,0.1
		c-4.4-2.4-8.8-4.9-13.3-7.3c-1-0.6-2.3-1.7-3.4-0.6c-1,1-0.5,2.4-0.1,3.6c2.2,6.8,5.2,13.3,6.9,20.3c-1.6,3.6-4.4,3.8-7.2,1.9
		c-2.6-1.8-4.6-3.1-7.8-0.8c-2.4,1.7-5.1,0.2-7.5-1.1c-3.8-2.1-7.3-4.7-12.4-6.2c2.4,5.7,4.8,10.5,8.8,14.5
		C211.4,94.9,214.3,96.3,213.9,99.7z"/>
	<path class="st21" d="M228.8,114.9c3.5,1.8,7.1,3.7,10.6,5.5c-0.6,1.4-1.5,1.2-2.3,1.4c-10.5,2.1-20.8,1.6-31.2-1.1
		c-6.2-1.6-12.6-2.5-19.1-2.4c-2.6,0-3.5-0.9-3.4-3.4c0.1-6.5,0.1-12.9,0-19.4c0-3,1-3.5,3.9-2.8c18.5,4.7,35.4,13.1,51.9,22.4
		c1.2,0.7,2.5,1.3,3.6,2.2c0.9,0.7,3.3,0.8,2.3,2.7c-0.8,1.5-2.2,0.1-3.3-0.4c-3.6-1.6-7.1-3.2-10.7-4.8c-0.6-0.3-1.3-0.4-1.9-0.6
		C229.1,114.4,228.9,114.6,228.8,114.9z"/>
	<path class="st27" d="M262.6,228.9c-4.2-5.8-7.7-11.9-7.3-19.5c0.1-2.3-1.7-2.2-3.1-2.5c-6.4-1.2-12.7-2.7-18.6-5.7
		c7.2-1.7,14.3-3.7,21-6.7c8.7-4,17.5-7.3,26.9-8.7c10.3-0.6,19.8,1.6,28.2,8.1c1.1,0.8,2.3,1.5,3,2.8c0.9,3.1,3.8,5.1,4.8,8.1
		c0.6,1.8,1.7,3.5,0.8,5.6c-1.4,1.8-3.1,1.2-4.4,0c-4.2-4-9.7-6.2-14.4-9.5c-0.8-0.6-1.5-1.3-1.9-2.2c-3.1-6.4-10.2-6.2-12.9,0.4
		c-0.6,1.4-1.4,2.7-3,3.3c-6-0.4-10.5,3.4-15.6,5.6c-1.3,0.6-1.4,1.9-1.7,3.2c-1.6,6.9,0.2,13,4,18.6c1,1.5,2.9,2.8,2.1,5.1
		C266.7,235.1,263.9,233,262.6,228.9z"/>
	<path class="st28" d="M213.9,99.7c-4.9-5.2-10.2-10.1-13-16.8c-0.4-1-1.1-2-1.6-3c-0.5-1.1-0.9-2.2,0.2-3.1
		c0.9-0.8,1.9-0.2,2.7,0.3c3.9,2.1,7.9,4.2,11.8,6.5c3.1,1.9,6,2.5,8.6-0.7c1.8-2.2,3-0.4,4.1,0.7c2.8,2.6,5.5,4.4,8.9,1.1
		c3.9,2.5,8.5,1.3,12.7,2.5c1.7,0.5,4.2,0.1,4.9,1.9c1,2.6,1.8,5.5,1.4,8.2c-0.2,1.6-2.2,3.7-5.2,2.7c-5.4-1.8-9.1-5.8-13.5-9.1
		c-1.2-0.9-1.8-2.5-4-2.5c3.4,4.6,7.9,7.4,11.8,10.9c2.5,2.2,5.2,4.3,6.1,7.9c0.4,1.8,0.8,3.6-0.9,4.5c-2.1,1.2-3.5,4.5-6.9,2.7
		c-1.7-0.9-3.5-1.8-5.2-2.7C229.1,107.6,221.5,103.7,213.9,99.7z"/>
	<path class="st29" d="M162.4,296.4c-0.6-0.3-1.2-0.6-1.8-0.8c-0.8-9.5-2-18.9-2.3-28.4c-0.2-5.8,3.9-10.4,6.3-15.4
		c0.8-1.6,2.1-3.1,2.6-4.8c1.3-4.6,4.5-5.6,8.7-5.3c0,14.9,3.1,28.9,10.8,41.8c1.4,2.3,1.1,3.7-1.7,4.7
		C177.4,290.8,169.9,293.6,162.4,296.4z"/>
	<path class="st30" d="M118.5,389.2c2.2-3.4,4.4-6.8,6.8-10.5c2.1,1.5,2.9,3.8,3.9,5.8c7.8,14.7,17.7,27.9,29.1,40
		c2.7,2.9,3.6,2.3,4.8-1.2c3.9-12.2,10.1-23.4,17.3-34c0.5-0.8,0.6-2.4,2.3-1.8c0.9,1.8-0.2,3.2-1,4.6c-2.4,3.9-4.5,7.9-6.5,12
		c-4.1,7-7.1,14.5-9.6,22.2c-0.7,2.3,0.3,3.5,1.9,4.5c1.5,0.9,2.7,2.5,5.2,2.6c0.2-8.2,1.1-16.2,5.9-23.3c2-1.8,3.7-0.8,5.1,0.8
		c5.3,6.5,12.1,11.2,18.5,16.5c1.1,0.9,2.3,1.7,2.4,3.3c16.7,11.8,35.2,19.8,54.9,25.2c1.2,0.8,2.6,0.9,4,1c1,0.1,2.4,1.2,2.8-0.4
		c0.3-1.3-1.1-1.8-2.1-2.2c-5.8-1.8-11.4-4.1-16.7-6.9c-1.9-1-3.5-2.3-5-3.8c-0.7-0.7-1.6-1.4-1-2.5c0.5-1,1.5-1.1,2.5-1.1
		c1.1,0,2.2,0,3.4,0c14,0,28.1,0.3,42.1-0.9c1.8-0.2,3.6-0.6,5.4-0.8c1.1-0.1,2.5,0,2.9-1.3c0.4-1.5-1.2-1.7-2.1-2.2
		c-3.4-1.7-6.8-3.4-10.2-5.1c-1.2-0.6-2.7-0.9-3.5-2.3c1-1.4,2.2-0.7,3.3-0.3c9.5,2.7,18.9,5.4,28.3,8c1.3,0.4,2.7,0.5,4.1,0.7
		c0.2,0,0.4-0.1,0.5-0.1c1.1-0.3,2.2-0.2,3.3-0.1c0.4,0,0.7,0.1,1.1,0.2c1.8,0.5,3.6,1.2,5.5,1.3c1.3,0.2,2.7,0.7,4.3,0.1
		c-0.3-2-2.1-2.8-3-4.2c-2.4-3.6-6.2-6.5-5.8-11.5c4.1-1.2,7.9,0.1,11.8,0.8c2.5-1.6,5.2-1.9,8.1-1.3c5.9,1.3,12,0.7,17.9,1.8
		c10.2,1.8,20.3,4,30.6,5.1c3.1,0.3,6.6-0.7,9.2,2c2,0,3.9,0,5.9,0c2.5-1,5-0.3,7.4-0.1c2.5,0.2,4,1.9,4.9,4.1
		c2.8,7.2,6.1,14.2,8.5,21.6c0.9,2.8,0.9,5.4-0.3,8.2c-1.5,3.3-1.2,3.6,2.5,3c21.9-3.1,42.5-9.7,61.7-21.2
		c17.3-10.4,34.7-20.7,52.4-30.6c2.8-1.6,5.5-3.4,7.9-5.6c1.9-1.7,2.3-3.5,1-5.6c-1.3-1.9-2.8-2.5-4.9-0.8c-1.3,1.1-2.7,0.2-3.7-0.8
		c-1.5-1.7-3-3.5-2.7-5.9c0.1-1.2,1.2-0.7,1.9-1c8.4-2.7,16.3-6.3,22.1-13.4c1.4-2.4-0.3-3.9-1.6-5.4c-1.3-1.5-3.3-2.5-3.7-5.4
		c2.4,1.2,3.9,3,5.2,4.8c0.9,1.3,1.7,2.5,3.5,2.6c2.2,0.8,3.6,2.5,4.9,4.3c3.1,4.3,7.1,8.1,9.4,12.8c6.3,13.1,15.5,24.4,22.5,37
		c0.8,1.5,1.9,2.7,2.9,4.1c2.5,5.4,4.9,10.9,7.5,16.3c0.5,1,0.9,2,0.9,3.1c-0.6,0.5-1.1,0.5-1.6,0c-2.6-4.7-4.5-9.8-7.6-14.3
		c-7-9.3-12.4-19.7-19-29.3c-4.2-6-5-6.1-9.3,0c-0.6,0.8-1.1,1.6-1.6,2.5c-14.2,25.2-34.3,44.4-59.3,58.9
		c-6.4,3.7-12.9,6.9-19.7,9.6c-3.3,1.3-6.1,3.3-8.4,6.2c-2.5,3.1-4.8,6.3-7.5,9.1c-5.6,5.9-7.3,12.7-6,20.5
		c1.3,8.5-3.3,15.4-6.6,22.5c-1.3,2.8-4.3,2.9-7,2.1c-2.6-0.8-5-1.9-7.4-3c-3.1-1.3-4.9-0.4-6.4,2.6c-2.7,5.4-3.8,11.5-6.9,16.7
		c-1,1.7,0.4,2.9,1.3,4.1c2.6,3.5,5.5,6.7,7.9,10.4c1.7,2.5,2.5,5,1.4,7.9c-0.9,2.4,0.3,4.4,1.2,6.4c1.3,3.2,3.5,6.1,3.4,9.8
		c-4.8,8.8-8.8,18.2-18.2,23.5c-2.5,1.4-4.1,3.3-4.2,6.3c0,1.1-0.6,2.3-0.5,3.3c1.4,9.3-3.7,15.3-10.2,20.7
		c-7.5,7.4-14.9,14.9-22.3,22.4c-1.4,1.4-1.8,3.1-1.7,5c0.2,3.8,0.1,7.6,0.2,11.4c0.1,2.4,0.1,4.9-2.5,6.2
		c-5.4,0.9-10.9,1.2-16.3,1.4c-10,0.3-19.9,0.1-29.9,0.1c-3.7,0-7.2-1.1-10.9-0.9c-4.9-1.9-10.2-1.1-15.3-2c-5.8-1-7.3-1.9-8.5-7.6
		c-0.9-4.2-3.2-5.7-7.4-5.7c-6.3,0-8.1-1.5-10.2-7.4c-1.9-5.3-3.3-10.8-5-16.1c-1.9-5.9-2.3-11.8-0.1-17.8c0.9-2.4,0.8-5,0.8-7.5
		c0-4.8,1.8-8.4,6.3-10.5c2.3-1,4.4-2.4,6.5-4.6c-4.6-2.7-9.4-4.1-14.1-5.1c-5.2-1.2-8-4.2-9.3-9.2c-1-3.9-2-7.9-3.1-11.8
		c-1.1-3.9,0.2-6.5,4.1-7.9c2-0.7,4.9-1.2,4.9-3.4c0-2.6-3.2-1.9-5-2.7c-7.4-3.4-15.1-5.7-23.2-7.3c-8.2-1.7-15.7-5.7-22-11.2
		c-6.4-5.6-13.4-10.3-19.9-15.6c-0.9-0.7-1.8-1.4-2.6-2.2c-1.1-1.1-2.2-2.3-1.7-4.1c0.6-1.8,2.3-1.9,3.8-2.1c3.5-0.2,7-0.5,11.2-1.7
		c-8.1-4.2-15-8.9-21.2-14.5c-1.6-1.5-4.2-2.8-2.7-5.8c9.3,2.1,18.6,4.3,27.9,6.3c3.2,0.7,6.6,0.9,10.3,0.5
		c-3.4-1.9-6.7-3.9-10.1-5.8c-14.8-8.3-29.7-16.5-44-25.6c-24.5-15.8-42.7-37.3-57.7-61.9c-6-9.7-10.9-19.9-14.8-30.6
		C118.5,394.4,117.1,391.9,118.5,389.2z"/>
	<path class="st31" d="M208,514.1c1.3,4.3,5.4,6,8.4,8.5c5,4.2,10.4,8,16.7,10.4c0.9,0.3,2.2,0.6,2,1.8c-0.1,1.2-1.5,1.1-2.4,1.3
		c-4.1,0.9-8.2,1.7-12.5,1.6c-0.9,0-2.2-0.3-2.4,1c-0.1,0.6,0.7,1.5,1.2,2c1.8,1.6,3.6,3.2,5.5,4.6c5.8,4.4,11.5,8.9,17.2,13.4
		c7.7,6.2,16.5,11.2,26.9,12c6.3,0.5,11.6,3.9,17.4,6c1.7,0.6,3.3,1.5,5.2,1.4c1.5-0.1,2.3,0.6,2.5,2.2c0.2,1.4,0.2,2.4-1.2,3.2
		c-2.1,1.1-4,2.6-6.5,2.9c-2.6,0.4-3.3,2-2.8,4.2c1.3,5.2,2.8,10.3,4.2,15.4c0.9,3.1,2.7,4.9,6.1,5.5c5.5,1.1,10.8,3.1,16,5.2
		c0.9,0.4,1.9,0.7,2,1.9c0.1,1.4-1.1,1.4-1.9,1.9c-3.1,1.8-6.3,3.7-9.4,5.5c-2.4,1.4-2.7,3.9-2.7,6.2c0.1,4.2-0.2,8.4-1.7,12.4
		c-1.4,3.7-0.9,7.5,0.2,11.2c2.1,6.8,4.2,13.7,6.3,20.5c1,3.3,3,4.9,6.5,4.6c1.3-0.1,2.5,0,3.8,0c3.5-0.2,5.3,1.5,6.2,5
		c2,7.9,2.1,7.8,10.1,8.6c3.9,0.4,7.7,1.1,11.6,1.7c0.3,2.3-1.5,2.9-3.1,3.1c-7.3,0.9-14.4,0.6-20-5c-1.9-1.8-3.9-2.4-6.4-2.5
		c-6.5-0.1-12.8-1.1-19.1-2.6c-2-0.5-3.7-1.4-5.3-2.4c-7.1-6.9-14.2-13.8-23.6-17.8c-0.4-1-0.6-2.2-1.2-3.1c-1.8-2.7-3-4.9,0.4-7.8
		c2.8-2.4,1.8-4.7-1.4-6.6c-4.1-2.4-8.3-4.8-12.1-7.5c-3-2.1-5.4-4.9-6.6-8.5c-0.4-1.4-0.9-2.6-2.1-3.6c-2.5-2.3-5.6-4.4-3.2-8.5
		c0.1-0.1,0-0.3,0-0.4c0-2.3-2.4-5,0.6-6.9c2.1-1.4,4.6-0.9,7-1c0.5,0,1.1-0.1,2.8-0.3c-5.7-3.5-10.5-6.7-15.6-9.4
		c-4.9-2.6-8.3-7-12.5-10.5c-1.7-1.4-2.5-4-2.3-6.2c0.4-4.1-2.1-5.3-5.2-5.5c-6.7-0.3-13.3-1.9-20-2.6c-5.7-0.6-9.3-3.3-11.8-8.1
		c-1.4-2.7-3.1-5.2-5.5-7.3c-3.1-2.7-5.7-4.3-9.3-0.8c-1.8,1.7-4.1,0.9-5.8-0.6c-2.5-2.4-5.6-3.6-8.5-5.3c-5-2.9-7.6-7.6-10.7-12.4
		c-4.2-6.4-3.4-15-9.5-20.4c-1.1-1-1.4-3-1.8-4.6c-2.3-8.7-8.6-15.3-12.1-23.4c-0.5-1.2-1.5-2.4-2.6-3.2c-2.9-2-2.3-4.7-0.7-6.6
		c1.9-2.1,4.6-1.2,6.3,0.6c3.8,4,7.5,8,10.7,12.4c6.9,9.6,16,16.9,24.9,24.3c3.2,2.7,7.5,3,11.1,4.8c6.5,3.3,12.8,7,19.8,9.3
		c3.3,1.1,5,0.3,6.1-2.9c1.8-5.7,3.7-11.5,5.7-17.2C200.6,511.4,200,513.4,208,514.1z"/>
	<path class="st31" d="M251.6,658.1c-0.7,0-1.5-0.2-1.6-1c-0.1-1.1,0.8-1.7,1.8-1.9c0.8-0.1,1.3,0.5,1.4,1.2
		C253.2,657.6,252.4,657.9,251.6,658.1z"/>
	<path class="st32" d="M580.8,669.1c-10.6,8-17.6,19.2-25.4,29.6c-7.6,11.7-15.4,23.2-24.1,34.1c-0.9,1.1-1.8,2.1-2.7,3.1
		c-0.2-0.2-0.3-0.3-0.3-0.3c-0.1-0.1,0,0,0.2,0.3c-2.2,2.8-4.5,5.6-6.7,8.5c-0.7-1.1-1.5-2.1-2.8-2.4c-8-2-15.4-6.2-23.9-6.2
		c-3.5,0-5.4-2.4-7-5.1c-0.7-1.1-0.7-2.1,0.3-3c0.9-0.8,2-1.3,3.1-0.7c1,0.5,1.8,1.3,2.7,2c1.4,1.1,2.6,3.1,4.6,2.1
		c1.6-0.8,1.7-2.8,1.9-4.5c0.2-2.8,1-5.5,1-8.3c0-2.2-1.2-6.3,3.9-4.3c1,0.4,1.2-0.6,1.1-1.2c-0.3-3.2,0.1-6.9-3.7-8.5
		c-2.4-1.1-3.6-2.4-2.9-5.2c0.4-1.9-0.7-3.5-1.4-5.2c-0.6-1.3-1.3-2.4-1-4c0.6-3.2-1.4-5-3.9-6.1c-4-1.8-4.5-3.6-1.3-6.4
		c1-0.9,1.9-1.7,1.3-3.2c-0.6-1.4-1.9-1.6-3.2-1.5c-10.7,0.8-21.2,1.6-31.4,6c-8.1,3.5-15.4,7.6-21,14.2c-4.3,5-6,11.6-9.9,17
		c-1.1,1.5-1.6,3.3-3.4,4.2c-1.7-2.1-0.3-4,0.5-5.9c2.4-5.4,5.2-10.5,8.5-15.4c1.1-1.2,2.1-2.4,3.5-3.3c1.2-0.6,2.1-1.5,2.8-2.7
		c1.6-1.8,3.4-3.2,5.4-4.5c6.1-4.2,12.1-8.7,18.6-12.2c3.4-1.8,6.8-3.4,10.8-3c2.3,0.2,3.7-0.9,4.8-2.8c1.7-3,4.4-4.5,7.6-5.5
		c6.4-2,12.8-4.3,19.1-6.5c13.3-4.6,25-11.9,36-20.6c1.5-1.2,3.1-2.5,5-3c4.5-1.3,6.9-0.1,8,4.4c0.9,3.6,4.3,6.4,2.9,10.7
		c-0.3,0.9,1,1.2,1.7,1.5c1,0.5,2.4,1.2,2.1,2.4c-1.3,4.4,3,5,4.9,6.7c2.1,1.9,5.4,0.7,8-0.6c2.8-1.4,5.4-3,8.7-2.5
		c2.5,0.5,4.3,1.6,3.9,4.6C586.1,660.6,583,664.6,580.8,669.1z"/>
	<path class="st33" d="M434.9,692.9c-2.8,5.3-5.7,10.6-8.4,16c-0.8,1.6-1.2,3.4-1.8,5.1c-1.8,2.9-2.3,6.2-3.5,9.3
		c-1.8-1.5-3.7-0.5-5.6-0.2c-5,1-10.4,0.4-14.8,3.9c-0.4,0.3-1.1,0.4-1.6,0.4c-10.5-0.7-20.8,2.7-31.4,1.8
		c-17.7-1.4-35.6-1.2-52.9-5.9c-3.4-0.9-5.7-3.9-9.6-3.9c-1.7,0-3.6-0.4-5.4-0.5c-2.7-7.5-4.5-15.3-8.3-22.4
		c-1.7-3.2-3.5-6.3-5.3-9.5c6.2,1,12.4,2,18.6,2.9c0.4,0.1,0.8,0.3,1.2,0.3c5.9-0.5,10.8,0.7,15.2,5.5c3.4,3.7,15.6,3.2,19,0.5
		c7.8,0.2,15.6,0.8,23.4,0.9c11.9,0.1,23.7-0.8,35.6-1c2.1-3.1,4.7-5.8,5.6-9.7c0.5-2.3,2.5-3.7,4.8-3.1c7.4,2,15.4,1.4,22.3,5.2
		C433.8,689.6,436.1,690.1,434.9,692.9z"/>
	<path class="st32" d="M483.5,677.8c1.8,2.1,3.7,4.2,5.5,6.3c1.7,2.1,0.5,8.8-1.7,11.7c-3,3.9-6.6,7.7-3.6,13.3
		c0.7,1.3,0,2.7-0.9,3.9c-1.7,2.4-3.5,4.7-4.2,7.7c-0.3,1.2-1.2,2.4-2.7,2.2c-1.7-0.2-2.5-1.6-2.1-3.1c1-3.7-0.2-7.5,1.9-11.3
		c2-3.6,0.1-7.9-1.3-11.5c-0.8-2-0.2-2.2,0.9-3.2c2.3-2.1,6.3-3.2,4.8-7.7c-0.1-0.3,0.3-1,0.6-1c3.9-1.2,2.2-4,1.7-6.5
		C482.7,678.3,483.1,678,483.5,677.8z"/>
	<path class="st32" d="M485.4,733.2c-6.7,2.1-30-6.3-36.3-12.6c1.1-1.2,2.1-0.1,2.9,0.2c2,0.7,3.2,0.4,3.8-1.8
		c0.1-0.5,0.3-1.4,0.7-1.5c5.1-1.5,4.5-6.5,6.2-10.1c1.4-3.1,3-6,5.8-8.1c0.9-0.7,1.6-2.4,3.1-1.4c1.3,0.8,1.7,2.6,1.1,3.8
		c-2.5,4.5-1,10.4-5.9,14.3c-3.2,2.5-0.8,8.5,3.2,10.2C474.9,728.2,479.8,730.6,485.4,733.2z"/>
	<path class="st32" d="M438.5,699.4c1.3,0.8,2.8,1.3,3.6,2.3c3,4.1,7.6,6.5,10.7,10.4c0.7,0.9,1.9,1.7,1,2.9c-1,1.3-1.9,0.1-2.9-0.5
		c-2.4-1.3-4.2,1.4-6.7,1c-0.8-0.1-1.2,3.1-3.3,1.5c-2.2-1.5-5.2-1.7-6.4-5c-1.2-3.4-1.5-6.3,1.7-8.5
		C437.9,702.5,436.6,700.1,438.5,699.4z"/>
	<path class="st34" d="M262.6,228.9c2.7,2.2,5.4,4.3,8.1,6.5c1.4-0.6,2.7-0.2,4,0.3c9.4,4.1,19.3,3.5,29.2,3
		c5.9-1.7,11.8-3.4,17.7-4.7c1.7-0.4,3.5-1.1,5.3-0.1c8.5,2.4,14-2.4,19.4-7.8c2.9-2.9,5.7-5.8,8.9-8.3c3-2.4,6-4.9,5.8-9.6
		c-0.1-2.5,1.4-4.8,4.1-5.8c2.8-1.1,4.1,0.9,5.7,2.5c1.1,1.1,2.2,2.4,3.7,2.6c4.9,0.6,7.3,4.2,9.8,7.8c2.7,4.1,5.7,8,8.5,12
		c1.1,1.5,2.6,3.1,4.4,2.8c2-0.3,2.2-2.6,2.4-4.5c0.7-7.5,1.4-15-2.5-21.9c-0.5-0.9-1-2.2-0.9-3.2c1.1-7.7-2.5-14.7-3.2-22.2
		c-0.4-4.4,0.2-9-1.1-13.3c-0.2-0.6-0.4-1.3-0.8-2.4c-2,2-2.3,4.1-2.6,6.3c-0.6,4-1.2,8-1.7,12c-0.2,1.2-0.5,2.3-1.7,2.6
		c-1.3,0.4-2-0.9-2.6-1.7c-5.3-8.1-10.3-16.4-13.4-25.7c-1.6-5-5.4-9-5.7-14.6c-0.2-4.6,0.8-9.1,2.2-13.1c0.8-2.2,4.2-4,6.2-6.2
		c0.9-1,2.2,0.7,3.1,1.5c4.1,3.7,5.3,3.6,8.1-0.9c2.8-4.4,6.8-7.8,9.2-12.5c0.4-0.7,1-1.6,1.9-1.4c1,0.2,0.9,1.2,1.2,2
		c1.5,4.1,1.5,8.8,4.8,12.4c1.8,2,3.6,3.6,6.3,3.5c2.9-0.1,4.4,1.1,4,4c-0.9,6.4,0.3,13.1,2.2,18.6c3.1,8.9-1,14.9-4.1,21.8
		c-1.5,3.3-3.1,6.6-3.1,10.4c-0.1,4.4,1.3,5.3,5.3,3.3c2.7-1.4,5.5-2.9,7.9-4.8c4.4-3.5,9.7-5.7,13.7-9.7c0.9-0.9,2-1.8,3.4-1
		c1.4,0.8,1.1,2.3,0.8,3.4c-0.5,1.9-0.5,3.9-1.9,5.5c-2.2,2.4-0.9,3.5,1.6,4.5c1.9,0.8,4.7,0.4,5.6,3.1c-1,2.1-3.1,2.3-5,2.7
		c-18.7,3.6-28.9,18.2-30.4,36c-0.5,5.9,0.3,7.2,5.9,8.5c6.4,1.5,12.4,4.4,18.9,5.6c10,0.9,19.8,0.4,28.9-4.5
		c1.8-0.4,3.1-2.6,5.3-1.8c2.4,0.4,3.9-1,5.5-2.5c1.4-1.3,3-2.3,4.7-0.3c5.4,5.9,11.9,10.7,17.8,16.1c0.9,0.8,2.3,1.6,1.9,3
		c-0.6,1.7-2.3,1.3-3.6,1.4c-7.5,0.3-7.7,0.6-5.8,7.7c0.1,0.3,0.2,0.5,0.3,0.8c2,6.7,2,6.7-4.3,9.2c-0.9,0.3-2.2,0.5-2.2,1.6
		c0,1.4,1.5,1.5,2.5,1.7c10,2,20.1,3.8,30.1,6.1c6.8,1.5,13.5,3.7,19.8,6.6c-0.1,0.3-0.2,0.6-0.3,0.9c-4.7-1.3-9.4-2.5-14.1-3.9
		c-14.4-4.2-29.3-6.3-44.1-8.7c-1.2-0.2-2.5-0.1-3.8,0c-1.8,0.2-3.2,1-1.6,3c2.4,3,0.1,2.7-1.8,2.9c-2.1,0.2-4.8-1.1-5.8,2
		c-0.5,1.6,3.2,6.2,5.9,7.1c2.5,0.8,5.2,1.3,7.8,1.9c8.1,1.9,15.7,5,23,9.1c-4.5-1.4-9.1-2.8-13.6-4c-3.6-1-7.1-2.6-11-2.6
		c-2.6,0-3.6,0.9-2.9,3.6c0.5,1.8,0.7,3.6,0.9,5.4c0.7,5.8,3.6,9.8,9,12.2c3.2,1.4,6.2,3.3,9.3,5c0.7,0.4,1.7,0.6,1.1,1.8
		c-2.3-0.2-4.3-1.2-6.4-1.9c-5.9-1.9-11.7-2.8-16,3.3c-0.8,1.2-2.5,1.5-3.4,0.8c-2.9-2-4.9-0.8-7.4,0.9c-2.8,2-6.3,0.6-9.4,0.9
		c-2.6,0.3-4.6,0.3-5.9,3.4c-1,2.4-4,3.5-7.1,3c-4.5-0.8-9.1-1.4-13.6-2.1c-1.3,0.9-2.7,0.7-4.1,0.3c-11.8-3.5-23.4-7.3-33.8-13.9
		c-6.1-3.9-11.5-8.5-15.2-14.9c-2.3-3.9-2.6-8-1.1-12.1c1.2-3.3,2.2-6.7,2.9-10.1c1.2-6.3,4.6-10.7,10.2-13.6c3-1.5,7.1-2.7,6.4-7.3
		c-0.7-4.5-4.8-5.7-8.4-6.5c-7-1.6-14.2-1.8-21.3-0.3c-1.9,0.4-3.8,0.9-5.6,1.8c-2.6,1.2-5.4,2.6-5.4,5.8c0,3.3,2.8,4.6,5.4,5.8
		c1.8,0.8,3.6,1.5,5.4,2.4c3.9,2,6.4,4.9,6.5,9.5c0.1,5.3,2.8,10.1,3.1,15.2c0.6,9.2-5.4,15.4-11.6,21c-10.6,9.6-23.8,14.3-37,18.6
		c-3.4,1.1-6.8,3.7-10.8,1.9c-10.5,2.7-21,3-31.5,0.6c-3.2-0.7-5.6,1.1-8.8,1.6c0.8-3.1,3.2-4.1,5.1-5.6c3.7-3,3.5-3.8-0.5-6.1
		c-3.1-1.8-6.5-1.3-10-1.7c0.3-2.2,4-2.3,2.9-5c-1.1-2.7-3.7-3.2-6-4.1c-0.9-0.4-1.9-0.5-2.8-0.8c-2.8-0.8-3.2-3.3-1-4
		c5.2-1.8,5.1-8.4,10.2-10c0.6-0.2,0.9-1.1,0.6-1.8c-0.5-1.2-1.6-1-2.6-0.9c-4.6,0.5-9.1,1.8-13.5,3.2c-1.9,0.6-3.8,1.1-5.7,1
		c-1.2-0.1-2.8,0.6-3.4-0.8c-0.7-1.6,1.1-2.3,1.9-3.4c2.9,0,5.5-0.9,8.2-1.8c1.9-0.6,2.5-2,1.1-3.6c-3.1-3.6-6.4-7-9.6-10.6
		c-1-1.1-2.6-0.8-4-1.3c0.6-3.8,2.7-5.1,6.3-4.8c3.4,0.3,6.7,0.2,10.1,0c3.8-0.2,4.4-1.5,2.4-4.7c-1.3-2.1-2.8-4.2-4-6.4
		c-2.3-4.4-1.7-7.3,2.2-10.3c1.9-1.4,3.8-2.8,5.8-4.2c5.9-4,6.5-6.6,3.1-12.9C261.8,231.4,259.9,230.1,262.6,228.9z"/>
	<path class="st19" d="M565.7,381.6c0.1,1.9-1,3-2.3,4.2c-4.9,4.2-11,6.2-16.1,9.8c-1.6,1.1-3,0.1-4.9,0.2c0.9,1.7,1.6,3.3,2.5,4.7
		c1.1,1.5,2.5,3.8,3.2-0.3c0.2-1,0.8-1.6,1.7-1.1c2.4,1.2,4.9,2.3,5.6,5.3c0.7,2.8-0.4,4.6-2.8,6.3c-10.7,7.8-22.6,13.5-33.8,20.4
		c-11.6,7.1-23.3,14.1-35.2,20.6c-14.3,7.8-29.7,12.3-45.7,15.1c-3.4,0.6-6.9,1.2-10.4,1.6c-2.8,0.3-4.5-0.8-2.5-3.5
		c3-4,2.3-7.6,0.6-11.8c-2.7-6.4-5-13.1-7.6-19.6c-1-2.5-3.5-3.1-5.8-3.7c-1.6-0.4-3.4-0.2-5-0.2c3.6-1.5,7.8-0.8,11.4-2.5
		c1.5-0.7,3.1-0.8,2-3.5c-1.1-2.7,1.4-3.4,3.4-3.2c4.2,0.3,7.6,0,10.5-4c1.4-2,5.6-2.2,8.6-2.7c8.6-1.4,17.3-1,25.9,0.1
		c4.8,0.6,8.9-0.8,13-2.2c9.3-3.1,18-7.4,26.5-12.5c6.2-3.7,12.1-7.9,18.7-11.1c6.5-3.1,6.8-3.2,11.3,2.2c4.1,4.9,4.1,4.8,9.7,2.1
		C554.5,389.5,560.3,386,565.7,381.6z"/>
	<path class="st35" d="M305.9,331c13.7-4.2,27.3-8.5,39.6-16.1c8-5,14.3-11.6,18.3-20.3c0.9-2,1.4-3.8,0.2-6
		c-2.2-4.2-3.2-8.8-3.1-13.4c0.1-5.6-3.1-8-7.4-9.9c-2.6-1.1-5.4-1.6-7.6-3.5c-4-3.5-4.1-6.2-0.4-9.9c3.6-3.6,8.4-4.3,13.1-5
		c7.1-1,14.3-0.7,21.2,1.4c2.2,0.6,4.1,1.7,5.8,3.3c3.3,3.3,2.8,8.3-1.2,10.7c-1.7,1-3.5,1.8-5.2,2.8c-4.4,2.4-7.4,5.7-8.3,10.9
		c-0.8,4.8-1.9,9.6-4.3,14c-1.1,2.1,0,3.8,0.8,5.6c5.1,10.8,14.4,16.9,24.7,21.8c9.1,4.4,18.7,7.4,28.4,10.2c0.8,1.5,2.3,2,3.7,2.6
		c2.1,1,3.5,2.2,2.9,4.8c-0.6,2.5-2.5,2.4-4.5,2.7c-9.5,1.4-17.5-3-25.7-6.5c-9.3-3.9-18.1-8.9-27.5-12.6c-2.3-0.9-4.3-0.8-6.4,0.2
		c-9.4,4.3-18.8,8.7-28.4,12.8c-3.3,1.4-6,4.6-9.3,6.6c-2,1.2-3.8,2.1-6.2,2c-1.5-0.1-3.1,0-4.6,0
		C306.9,340.2,305.9,339.1,305.9,331z"/>
	<path class="st29" d="M218,378.2c-7-3-13.1-7.4-18.5-12.7c6.2-7.5,13.7-13.6,20.9-20.1c1.9-1.7,3.4-1.7,5.3,0.2
		c2.6,2.6,5.6,4.7,8.4,7c1.8,1.4,3.4,2.9,0.8,5.6c2.7-2.3,4.3-1.1,6.5,0.6c12.3,9.6,25.6,17.7,39.1,25.4c4.6,2.6,9.2,5.3,14.1,8.1
		c-2.1,1.9-4,0.2-5.7,0.3c-1.3,0.1-2.9-1.5-3.8,0.1c-0.8,1.3,0.5,2.7,1.2,3.8c1.9,3.1,4,6.1,6,9.1c0.5,0.8,1.7,1.4,1.1,2.5
		c-0.7,1.4-2.1,0.6-3,0.4c-13.4-2.7-26.2-7.2-38-14.4c-1.8-1.1-2.5-2.5-2.4-4.6c0.1-2.8,0-5.6-0.1-8.4c-0.1-3.1-1.3-4.5-4.9-4.8
		c-7.8-0.7-15.6-0.3-23.4-1C219.4,375.2,219.4,377.4,218,378.2z"/>
	<path class="st29" d="M198.7,363.9c-6.2-3.8-9.8-9.9-14.1-15.3c-1.8-2.2-0.1-3.5,0.9-5.2c-4.1,1.2-8.8-3.7-10.3-10.7
		c10.8-7.7,21.7-15.2,33.7-21.1c4,0.8,6.5,3.8,9.3,6.4c1,1,1.9,2.1,0.9,3.6c-12.3,4.1-12.7,4.9-3.8,14.3c6.4,6.7,6.4,6.4-0.8,12.8
		C208.9,353.6,203.9,358.8,198.7,363.9z"/>
	<path class="st29" d="M172.6,330.9c-2.3-4.8-4.5-9.5-6.8-14.3c-3.7-4.7-5.6-10-4.3-16c0.3-0.6,0.7-1.1,1-1.7
		c8.2-3.2,16.3-6.5,24.5-9.7c1.3-0.5,2.5-0.7,3.3,0.7c4.5,6.9,9.8,13.2,15.4,19.2c0.3,0.4,0.3,1,0.5,1.6
		c-11.1,5.9-21.8,12.4-32,19.7C173.7,330.7,173.1,330.7,172.6,330.9z"/>
	<path class="st19" d="M401.2,429.7c-7.4,0.2-14.8-0.6-22-2.1c-14.4-3-29.1-4.6-43.8-5.5c1.5-1.9,3.2-3.6,4.4-5.6
		c4.6-7.9,11.8-4.1,18-4.1c6.9,0.1,13.6,2.4,20.8,1.6c4.8-0.5,9.9,1.3,14.8,2.3c6.6,1.3,13.3,1.9,20.8,1.6c-2.5,2-4.9,1.9-7,2.5
		C401.4,421.8,399.8,424.3,401.2,429.7z"/>
	<path class="st24" d="M218.9,321.7c-2.6-4.2-6.9-6.6-10.2-10c7.4-1.7,14.6-3.6,21.1-7.8c2.3-1.5,5.1-2.2,7.7-3.4
		c2.2-1.1,3.7-0.2,5.1,1.5c2.5,3.1,2,4.9-1.9,5.4c-4.7,0.6-8.2,3.7-11.8,6.2C225.4,316,221.3,317.8,218.9,321.7z"/>
	<path class="st19" d="M323.5,421.2c2.6,4.4,4.8,9,8.7,12.5c1.2,1.1,3.1,2.3,2.3,4c-0.9,2-3.2,1-4.9,1c-0.7,0-1.3-0.5-1.9-0.7
		c-1.8-1.1-4-1-5.9-1.7l0,0c-1.3-1-3,0.2-4.2-0.8c0,0,0,0,0,0c-2.4-2.7-2.1-5.3,0.2-7.8C319.7,425.6,320.8,422.7,323.5,421.2z"/>
	<path class="st36" d="M465.3,232.3c-1.4,0.9-2.8,1.9-4.2,2.8c-1-1.7,0.1-3,1-4.2c3.7-5.1,5-10.9,5-17.1
		c-0.7-8.6-4.7-15.2-12.4-19.1c-9.1-4.5-18.3-4.3-27.3,0.6c-7,3.5-11,9.2-12.2,16.9c0.3,1.3,0.2,2.5,0.2,3.8
		c-0.1,8.7,4.2,14.8,11.3,19.5c1.6,1.1,4.2,1.4,3.9,4.3c-6.3-1.7-12.6-3.6-19-5.2c-7-1.8-7.2-2-6.9-9.5c0.5-11,4.4-20.5,12.1-28.3
		c5.7-5.8,12.9-8.7,20.8-10.1c1.4-0.3,2.7-0.6,4.1-0.9c9.8-0.4,19.2,1.7,28.2,5.2c9.2,3.6,18.3,7.5,28.9,9.8
		c-6.3,4.1-12.6,5.5-18.9,6.5c-3.7,0.6-4,2.6-4.4,5.2C474.3,220.3,471,226.9,465.3,232.3z"/>
	<path class="st37" d="M326.8,233.9c-7.5,2.8-15.3,4.3-23,6.1c-2.1,0.3-1.7-0.9-1-1.9c0.9-1.5,2.4-2.3,3.7-3.3
		c6.1-4.8,9.7-10.7,9.5-18.7c0-2,0.2-3.9,1.5-5.6c0.1-4-2.2-7.1-4.2-10.1c-0.8-1.2-1.6-2.3-0.7-3.7c2.7,1.8,4.3,4.6,6.5,6.9
		C325.2,212.8,328.2,222.8,326.8,233.9z"/>
	<path class="st19" d="M583.4,652.4c-2-0.1-3.7,0.2-5.5,1.5c-2.9,2.1-6.2,3.1-9.9,2.7c-1.5-0.1-2.8-0.6-3.5-1.9
		c-0.7-1.3-0.9-3.7-3-1c-0.4,0.5-1.3,0.1-1.8-0.5c-0.8-0.9-0.7-1.9,0-2.7c2.3-2.5,2.4-4-1.6-4.2c-2.2-0.1-3.1-1.7-1.6-3.5
		c1.7-1.9,0.8-3.2-0.2-4.8c-0.8-1.3-1.4-2.8-1.8-4.2c-1.3-4.3-5-5.9-8.5-3c-4.7,4-10,7.1-14.8,11c-6.7,5.4-14.8,8-22.6,11.1
		c-7.4,2.9-15.1,5.3-22.7,7.7c-2.6,0.8-3.9,2.6-5,4.7c-1.3,2.4-2.7,3.8-6,3.2c-6.2-1.1-10.7,3.4-15.7,6.1c-4.6,2.5-8.8,5.9-13.2,8.9
		c-1.5-3.1,0.7-5,2.6-6.3c5.2-3.3,4.9-8.3,3.9-13c-2.2-9.4-4.7-18.7-8.2-27.7c-1.6-4-0.8-5.8,3-7.8c4.5-2.4,9.6-2.7,14.5-3.7
		c1.5-0.3,3-0.4,4.5-0.8c5.9-1.5,6.3-2.1,4.2-7.6c-2.5-6.3-4.5-12.7-6.4-19.1c-0.3-1.1,0-3.7-2.7-2.1c-1.3,1.2-2.1,3.2-4.4,2.9
		c-0.4-3.4-2.6-6.2-3.9-9.3c-1.2-2.9-2.9-5.4-0.6-8.6c0.9-1.3,0-3-1-4.3c-3.3-4.3-6.6-8.7-9.9-13.1c-0.9-1.1-2.1-2.3-0.9-3.7
		c4.2-4.7,4.5-11.1,7.1-16.4c2.7-5.6,3.4-6.2,9.1-3.8c0.8,0.3,1.6,0.6,2.4,0.9c9.2,3.6,9.3,3.6,13-5.6c1.5-3.7,3.6-7.6,3.7-11.4
		c0.1-3.5,0-7.3-0.7-10.8c-0.7-4.1,0.8-7.2,3-10.1c4-5.2,8.1-10.4,12.2-15.5c2-2.4,4.7-3.9,7.6-5c18.8-7.6,35.9-17.9,50.3-32.2
		c8-7.8,15.1-16.6,22.5-25c2.3-2.6,3.1-6,4.6-9c1.7-3.3,3.9-6.2,6.3-8.9c1.7-1.9,3.7-2.2,5.3,0.2c7.2,10.7,14.3,21.5,20.5,32.8
		c0.2,0.5,0.1,1.1,0.2,1.7c-1.5-0.8-2.8-1.1-3.8,0.9c-5.3,10.2-11.4,19.8-18.6,28.8c-3,3.7-6.9,7.1-7.9,12.3c-0.2,1.1-1.6,1-2.6,1
		c-3.5-0.1-5.9,1.7-8.6,3.7c-12.8,9.5-25.3,19.9-41.7,22.7c-8.9,1.5-13,8.6-18,14.8c-3.2,3.9-6.6,7.6-10.8,10.6
		c-4.3,3.1-7.9,7.2-12.9,9.4c-2,0.9-1.7,2.5-1.5,4.3c0.4,5.2,4.3,8.5,7,12.2c10.5,14,19.3,29.2,31.1,42.3c0.4,0.4,0.7,0.9,1.1,1.3
		c4.5,6,6.6,6.5,13,2.8c3.7-2.1,7.2-4.2,11.8-5c3.7-0.6,6.2-4.5,8.2-8c1.3-2.4,1.5-6.1,6-5.4c1.1,0.2,1.7-1.5,1.6-3
		c-0.2-5.2,3-8.2,6.8-11.4c0.9,2.3-1.2,2.8-1.4,4.2c-0.1,1.3-0.5,2.7,1.2,3.1c1.4,0.4,2.6-0.4,2.7-1.9c0.1-2.4,0.5-4.6,2.2-6.6
		c0.8-0.9,0.5-2.6-1-2.4c-2.3,0.2-2.5-0.8-1.7-2.3c0.8-1.6,1.7-3.7,4-2.4c4.5,2.5,9.1,4.7,14,6.5c2.8,1,4.3,4.8,4.1,8.1
		c-0.1,2.1,0.4,3.5,2,4.6c0,0.5,0.1,1.1,0.1,1.6c0.8,2.4-0.7,3.8-2.4,4.7c-2.8,1.5-4.7,3.8-6.6,6.4c-3.4,4.7-7.4,8.1-13.7,8.6
		c-6.1,0.5-11,7-11,13.3c0,2.1-0.8,3.8-1.6,5.6c-2.5,6-2,8.7,2.6,13.2c2.3,2.2,4.8,4.3,7.2,6.5c1.8,1.7,3.9,2.4,6.5,2.5
		C578.4,649,582,648.3,583.4,652.4z"/>
	<path class="st19" d="M615.5,455.8c0.5,0,1.1,0,1.6,0c0.9,0.9,1.7,1.8,1.4,3.6C616.6,458.8,616.2,457.1,615.5,455.8z"/>
	<path class="st16" d="M583.4,652.4c-2.9-1.6-5.8-2.8-9.1-1.9c-1.5,0.4-2.9-0.1-4-1c-3.9-3.4-7.8-6.8-11.5-10.5
		c-3.9-3.8-3.4-8.2-1.2-12.7c1-2.2,3.1-4.2,1-6.9c-0.2-0.3,0.1-1.1,0.3-1.6c1.1-4.7,8-11.8,12.6-11.6c5.5,0.2,8.8-2.7,11.6-6.4
		c2.7-3.6,5.2-7.3,9.6-9c1.1-0.5,1.7-1.5,1.8-2.7c0.9,1.2,0.7,2.7,0.6,4.1c-0.1,13,0.6,26.1-0.9,39c-0.9,8.5-2.4,16.9-6.6,24.5
		C586.8,653.8,585.5,652.6,583.4,652.4z"/>
	<path class="st38" d="M204.5,430.5c-7.8-5.4-15.5-10.9-21.5-18.4c-0.9-1.1-1.6-2.9-3.6-1.8c-3.4,2.3-4.2,6.1-5.1,9.7
		c-0.6,2.4-1.3,4.8-1.3,7.3c0,2.3,0.1,4.8-3.2,4.6c-2.5-0.2-4.7-3.5-4.3-6.1c0.5-4.3,2.4-8,4.3-11.7c1.8-3.5,3.2-7.1,4.6-10.8
		c1.8-5.9,5.6-10.7,8.5-16c4.5-5.6,9-11.3,13.5-17c1-1.3,2-1.7,3.2-0.7c4.9,3.8,11.4,5.7,14.5,11.8c0.6,1.1,1.4,1.7,2.7,1.3
		c4-1.2,6.3,1.6,8.6,4c1.9,1.9,0.7,3.3-1.4,3.2c-3.5-0.1-7.4,1.4-10.5-1.6c-0.5-0.5-1.3-0.7-1.9-0.3c-3.5,2.7-7.7,3-11.8,4.1
		c-1.3,0.3-3,0.5-3.3,2.2c-0.3,1.8,1.3,2.2,2.5,3c7.9,5.1,17.4,6.5,25.7,10.7c3.1,1.6,6.5,2.6,9.7,4.1c1.1,0.5,2.8,0.8,2.7,2.3
		c-0.2,1.7-2.1,1.5-3.3,1.9c-2.6,0.9-5.3,0.9-7.9,0.7c-4.3-0.4-7.1,1.7-9.6,4.8C212.9,425.5,208.7,428,204.5,430.5z"/>
	<path class="st1" d="M161.4,300.6c1.4,5.3,2.9,10.7,4.3,16c-5.7,5.8-13.2,8.8-20.2,12.4c-1.5,0.8-3.3,0.2-4.3-1.6
		c-1-1.7-2-3.4-3.1-5c-1.4-2.1-2.9-3.9-5.8-2.7c-0.8,0.3-1.8,0.5-2.3-0.4c-0.5-0.8,0.1-1.6,0.6-2.3c0.5-0.7,1-1.4,1.7-1.9
		c8.1-5.3,16.3-10.5,25.4-13.9C158.9,300.8,160.2,300.8,161.4,300.6z"/>
	<path class="st39" d="M317.5,210.6c1.8,12.3-2.9,21.4-13.3,27.8c-0.4,0.2-2.7,0.6-0.4,1.6c-11.5,1.7-22.8,1.4-33.2-4.6
		c-3.5-4.9-7.2-9.5-8.1-15.8c-0.7-4.2,0.3-8,1.4-11.9c0.1-0.4,0.2-1.1,0.4-1.1c5.6-0.8,9.4-6.4,15.5-5.7c0.7,0.1,1.4,0.3,1.8,1
		c1.4,1.4,0.8,3.2,0.7,4.8c-0.4,6.1,0.3,12.1,2.9,17.7c1.1,2.4,2.4,5.2,5.4,5.4c2.9,0.1,4-2.8,5.3-4.9c3.6-5.9,3.5-12.6,3.3-19.2
		c-0.1-1.7-0.9-3.7,1-5.1c5.2,1.6,9.8,4.2,13.8,7.8C314.9,209.2,315.6,210.9,317.5,210.6z"/>
	<path class="st40" d="M300,200.4c1.9,8.4,1.5,16.6-2.4,24.4c-1.6,3.1-3.4,6.9-7.2,6.9c-4.1,0-5.8-4.1-7.1-7.4
		c-3-7.3-3.9-14.8-1.8-22.6c1-1.8,2-3.6,3.1-5.4c3.5-5.4,9.1-5.5,12.8-0.3C298.4,197.5,299.2,199,300,200.4z"/>
	<path class="st16" d="M460.2,595c0.2-1.2,0.6-2.2,2-2.3c1.4-0.1,1.9,0.9,2.3,2.1c2.3,8.3,5.3,16.3,8.1,24.4c1.3,3.8,0,5.5-4,6.2
		c-4.9,0.9-9.9,1.9-14.9,2.5c-2.8,0.3-5,1.7-7.4,2.9c-1.9,1-2.4,2.5-1.4,4.6c3.8,8.5,5.4,17.7,8.5,26.4c1.4,4,0.3,8,0.8,12
		c0.2,1.7-1.4,2.7-2.8,3.3c-2.9,1.3-4.5,3.6-5.5,6.5c-1.7,1.4-3.4,2.8-5.1,4.2c-1,0.7-1.9,1.5-2.5,2.5c-1.1,0.8-2.2,1.7-3.3,2.5
		c-0.3-0.6-0.5-1.7-0.9-1.8c-4.2-1-7.7-4-12.2-4.1c-3.9-0.1-7.7-0.6-11.4-2c-2.5-1-4.1-0.2-4.2,2.7c-0.3,4.4-2.9,7-6.8,8.6
		c-0.1-5.7,0-11.4-0.3-17.2c-0.1-1.9,0.3-3.3,1.5-4.5c7.7-7.7,15.5-15.3,23.3-23c1.3,1.4,0.4,2.9,0.1,4.4c-0.5,2.7,0.2,5.2,2.7,6
		c6.4,2,12.6,5,19.6,3.8c4.5-0.8,4.9-1.1,3.4-5.4c-2.7-8-5.2-16-8.6-23.7c-2.7-6.2-1.7-8.4,4.9-10.5c5.6-1.7,11.4-2.8,17.2-4.1
		c5.9-1.3,6.1-1.7,4.3-7.2C465.3,608.1,462.9,601.5,460.2,595z"/>
	<path class="st33" d="M460.2,595c2.1-0.2,2.5,1.3,3.1,2.8c2.1,6.1,4.3,12.2,6.3,18.3c1.8,5.4,1.8,5.4-4,6.8
		c-6.8,1.7-13.6,3.3-20.4,5c-4.8,1.2-5.1,2.6-3.1,7.2c4,9.3,7.3,18.8,10.1,28.5c0.4,1.5,0.4,2.8-1.6,3.1c-6.3,1-12.5,1.5-18.4-1.5
		c-1-0.5-2.1-0.7-3.2-0.9c-6.3-1-8.5-5.1-5.8-10.8c0.3-0.6,0.5-1.3,0.7-2c0.1-0.1,0.1-0.3,0.2-0.4c8.8-5.8,9.8-14.7,10-24.1
		c0-1.9,0.4-4,2.2-4.7c10.9-4.6,14.5-15.3,20.6-23.9C458,597.3,458.6,595.7,460.2,595z"/>
	<path class="st25" d="M174.2,403.4c-0.1,3.4-1,6.5-2.8,9.5c-2.3,3.9-4.8,7.8-5.1,12.7c-0.1,1.6,0.1,2.7,1.2,3.7
		c0.9,0.8,1.7,2.2,3.1,1.7c1.5-0.6,0.9-2.1,1-3.3c0.5-5.2,1.3-10.2,3.8-14.9c0.9-1.7,1.9-2.7,3.9-2.5c-1.9,4.7-4.1,9.2-4.8,14.3
		c-0.3,2.4-0.4,4.7-0.3,7.1c0.1,1.3,1.4,3,0.1,3.9c-1.4,1-2.9-0.5-4.1-1.3c-7.6-4.9-7.7-5.3-4.2-13.9
		C168.4,414.6,170.5,408.6,174.2,403.4z"/>
	<path class="st14" d="M321.9,436.4c2.1,0,4.3-0.2,5.9,1.7C325.7,437.9,323.6,437.6,321.9,436.4z"/>
	<path class="st14" d="M317.6,435.6c1.4,0.1,3-0.4,4.2,0.8C320.4,436.3,318.8,436.8,317.6,435.6z"/>
	<path class="st8" d="M521.2,682.4c-2.2-1.5-2.9-4.7-4.9-0.9c-0.8,1.5-2.7,1.8-3.6,0.6c-1.6-2.2-3-2-5.3-1.3c-2.7,0.8-4-1-4-3.9
		c1.5,0.3,2.9,0.9,4.1,0.6c2.3-0.4,4.5-1.8,2.4-4.2c-1.8-2-0.8-3,0.5-4.1c2.2-1.9,4.3-4.1,6.5-5.9c2.4-2,5.7-3.3,9.3-3.6
		c2-0.1,5.2-0.1,3-4.3c-1.4-2.6,2.4-12,4.9-13.9c2.7-2,5.5-3.9,8.3-5.8c2.6-1.8,4.1-1.1,4.7,2c0.8,4.1,1.6,8.2,1.7,12.4
		c0.1,3.8-0.1,7.5,0.7,11.3c0.7,3-0.2,5.7-3.4,7.4c-3.1,1.6-4.1,5.5-7.3,7.3c-3,1.7-5.2,4.8-9.4,3.4c-1.7-0.6-2.4,0.9-2.6,2.5
		c-0.3,3,0.5,5.5,3.6,6.3c3.4,0.9,6.9,1,10.3-0.1c1.4-0.4,2.9-2.2,4.1-0.6c1.2,1.6-0.3,3.2-1,4.6c-1,2.1-2.7,3.6-4.5,5
		c-1.5,1.1-3.1,2-3.4,4c-0.1,0.7-0.6,1.5-1.3,1.4c-4.4-0.6-6.5,2.7-9.1,5.2c-2.4,2.2-4.9,2-7-0.3c-1.6-1.7-3.4-2.5-5.6-2.2
		c-3.3,0.5-4.6-2.3-4.7-4.2c0-1.9-2.6-5.1,1.5-6.2c0.9-0.2,1.1-1.3,0.5-1.6c-3.3-2.1-4.5-3.4,0.5-4.9c1.4-0.4,1.5-3.5,4.5-3.2
		C516.9,685.5,518,682.4,521.2,682.4z"/>
	<path class="st8" d="M545.3,706.1c2.1-4.6,4.5-9.1,7.5-13.2c0.7-1,2.4-2.2,3.6-1.1c1.1,1-0.2,2.3-0.9,3.2c-2.9,4-5.9,7.9-8.9,11.9
		C546.2,706.6,545.7,706.3,545.3,706.1z"/>
	<path class="st8" d="M543.3,710.6c-1.3,5.5-5.1,9.1-8.9,12.8C535.5,717.8,539.4,714.2,543.3,710.6z"/>
	<path class="st8" d="M528.5,735.9c-0.9-0.3-2.5,0.7-2.5-1.1c0-0.8,0.6-2,1.5-1.7C528.6,733.4,528.2,734.9,528.5,735.9L528.5,735.9z
		"/>
	<path class="st19" d="M438.3,690.3c0.2-1.5,1-2.4,2.5-2.5C440.2,688.9,439.4,689.8,438.3,690.3z"/>
	<path class="st41" d="M430.6,239.8c-2.5-1.5-5.1-2.8-7.3-4.6c-7.5-5.9-10.7-13.6-9.3-23.1c2.9-4.8,6.9-8.3,12.2-10.4
		c2-0.8,4-1.4,5.5,0.9c1.1,3,0.6,6.1,0.7,9.2c0.2,5.5,1.7,10.6,5.1,14.9c3.2,4,6.1,3.8,8.4-0.7c3.4-6.7,5.2-13.9,3.9-21.6
		c-0.3-1.6-0.8-3.3,0-4.9c1.3-1.4,2.9-1.1,4.2-0.5c6.5,3.3,12.7,6.9,14.7,14.7c0.6,8.2-2.4,15.1-7.4,21.4c-3.1,2.7-6.8,3.8-10.7,4.2
		C443.8,240.1,437.2,241.9,430.6,239.8z"/>
	<path class="st42" d="M468.5,213.7c-4.5-6.9-10.2-12-18.3-14.2c-1.9,0.4-2.7-1.2-3.6-2.2c-4.4-4.8-5.7-5-11.2-1.5
		c-0.7,0.5-1.5,0.8-2.3,0.8c-2.3-0.5-4.8-0.3-6.5-2.3c12.1-6.7,27.2-5,35.9,4.3C466.3,202.8,468.3,207.9,468.5,213.7z"/>
	<path class="st43" d="M426.5,194.3c2.4,0.1,5-0.5,6.8,1.9c1.2,3,0.7,5.2-2.6,6.4c-4.6-0.8-7.5,2.3-10.8,4.6c-2.1,1.5-3.3,4.2-6,4.9
		C414.7,203.8,419.1,197.9,426.5,194.3z"/>
	<path class="st32" d="M519.9,676.7c-0.2,0.8-0.6,1.5-1.6,1.4c-0.9-0.1-1.4-0.9-1.4-1.8c0-0.9,0.5-1.6,1.6-1.4
		C519.3,675.1,520,675.7,519.9,676.7z"/>
	<path class="st44" d="M430.8,202.6c0.9-2.1,1.7-4.3,2.6-6.4c6-6.7,9.7-6.5,15.1,1c0.6,0.8,1.2,1.5,1.8,2.3
		c3.1,10.1,1.2,19.6-3.6,28.7c-2.4,4.5-6.1,4.8-9.4,0.9c-4.5-5.3-6.5-11.6-6.7-18.5C430.4,207.9,430.6,205.3,430.8,202.6z"/>
	<path class="st45" d="M445.7,205.5c-0.3,2-1.5,2.9-3.2,2.8c-1.5-0.1-2.6-1.2-2.3-2.8c0.3-1.6,1.1-2.9,3.1-2.7
		C444.9,203,445.6,204.1,445.7,205.5z"/>
</g>
</svg>
