<?xml version="1.0" encoding="utf-8"?>
<!-- Generator: Adobe Illustrator 27.4.0, SVG Export Plug-In . SVG Version: 6.00 Build 0)  -->
<svg version="1.1" id="Layer_1" xmlns="http://www.w3.org/2000/svg" xmlns:xlink="http://www.w3.org/1999/xlink" x="0px" y="0px"
	 viewBox="0 0 720 720" style="enable-background:new 0 0 720 720;" xml:space="preserve">
<style type="text/css">
	.st0{fill:#FE8C6E;}
	.st1{fill:#83B2B6;}
	.st2{fill:#C5D8C2;}
	.st3{fill:#F6EBD3;}
	.st4{fill:#E1DFC7;}
	.st5{fill:#F4DEC4;}
	.st6{fill:#FBEDD7;}
	.st7{fill:#B6C379;}
	.st8{fill:#B6C67B;}
	.st9{fill:#FD716C;}
	.st10{fill:#64A394;}
	.st11{fill:#FBE2C9;}
	.st12{fill:#85BBAA;}
	.st13{fill:#ECE2C9;}
	.st14{fill:#FCEFDA;}
	.st15{fill:#FC922C;}
	.st16{fill:#FCF1DC;}
	.st17{fill:#D19FA9;}
	.st18{fill:#C8CFBA;}
	.st19{fill:#2E2253;}
	.st20{fill:#FAD17C;}
	.st21{fill:#FCF2DF;}
	.st22{fill:#FCDA8A;}
	.st23{fill:#AABDB0;}
	.st24{fill:#2E2354;}
	.st25{fill:#84B49F;}
	.st26{fill:#FCF2DE;}
	.st27{fill:#FCD0B4;}
	.st28{fill:#ADBCA9;}
	.st29{fill:#E8B687;}
	.st30{fill:#FBA28F;}
	.st31{fill:#FBF0DC;}
	.st32{fill:#D9D8C0;}
	.st33{fill:#ADA199;}
	.st34{fill:#FED24C;}
	.st35{fill:#FC4014;}
	.st36{fill:#85B3A4;}
	.st37{fill:#8EB6A2;}
	.st38{fill:#E8979D;}
	.st39{fill:#BB505F;}
	.st40{fill:#96B29E;}
	.st41{fill:#FD541F;}
	.st42{fill:#FEAB3B;}
	.st43{fill:#D92F09;}
	.st44{fill:#7D9797;}
</style>
<rect x="0" y="0" class="st0" width="720" height="720"/>
<g>
	<path class="st1" d="M345.2,86.2c1.5-0.1,3.1-0.2,4.6-0.3c20.8,0,41.5,0,62.3,0c2.1-0.3,3.4,1.1,4.8,2.3
		c14.8,12.7,31.1,22.7,49.7,29c9.9,3.4,19.1,8.6,27.8,14.6c2.1,1.4,3.5,3.5,5.3,5.2c3,4.6,6.8,8.7,8.7,13.9
		c1.6,4.9,5.4,8.6,7.2,13.4c1,2.7-1.2,3.8-2.8,4.9c-7.4,5.2-15.4,9.5-23.7,13.1c-11.7,5.2-22.6,11.5-33.1,18.8
		c-4.7,3.2-6,2.8-7.3-2.9c-0.5-2.3-0.6-4.8-3.3-5.9c-7.2-3.1-14.6-5.5-22.4-6.7c-4.4-0.7-8.5,0.5-12.6,1.9c-1.8,0.6-3.5,1.7-5.6,1.7
		c-5.4-3.1-10.1-7-13.5-12.2c-1.9-2.9-3.7-5.7-6.3-7.9c-1-0.8-1.9-1.9-2.5-3c-1.7-3.6-3.8-6.5-8.4-5.7c-0.2,0-0.6-0.1-0.7-0.2
		c-3.8-3.9-9.5-3.1-13.7-5.9c-0.7-0.4-1.4-0.8-2.2-0.5c-3,1.5-4.7-0.3-6.3-2.4c-2.6-3.3-6.2-5.7-7.3-10.1c-0.4-17-0.1-34-0.2-51
		C343.6,88.8,343.9,87.3,345.2,86.2z"/>
	<path class="st2" d="M446.3,191.8c2.2-1.3,2.5,0.5,2.8,1.8c0.6,2.3,1.2,4.6,1.5,6.9c0.3,2.1,1.3,2,2.6,1
		c13.4-10.4,28.7-17.3,43.8-24.6c5.6-2.7,10.8-5.9,15.9-9.4c1.2-0.9,2.3-1.7,2.7-3.2c10,14.8,18.9,30.3,25,47.2
		c0.6,1.6,1.2,3.2,1.8,4.7c4.7,13,6.5,26.6,8.1,40.2c-1.9,8.7-5.7,16.5-9.5,24.5c-6.8,14.1-18.3,21.9-33.3,24.8
		c-6.1,1.2-12-0.7-17.6-2.9c-2.8-1.1-5.5-2.5-8-4.2c-2.2-1.6-4.4-3.3-6.7-4.9c-1.4-0.9-2.8-1.9-4.1-2.9c-0.7-1.2-3-1.8-2.3-3.3
		c1.1-2.4,3.6,0,5.3-0.9c-2.2-3.8-2.1-3.9,2.1-4c0.9,0,1.9,0.1,2.5-0.8c2.6-3.9,6-7.8,5.8-12.7c-0.4-10.9-1.2-21.8-6.1-31.8
		c-2.5-5.1-6.4-8.8-10.9-12.6c-7.4-6.2-16-6.6-24.6-8c-2.3-0.4-4.8-0.2-6.7-1.9c0.2-7.9,2.5-15.2,7.3-21.6
		C444.3,192.3,445.2,191.7,446.3,191.8z"/>
	<path class="st3" d="M508.4,150.9c-4-4-6.8-8.7-9.7-13.5c-1.2-2.3-1.2-4.8-1.3-7.3c-1.3-26.5-5.6-52.4-16.5-76.8
		c-2-4.5-2.5-4.8-7-2.6c-7.1,3.5-13.6,8-19.8,12.8c-9.5,7.2-18.6,14.9-27.2,23.2c-3.1,3-2.9,3.5,1.2,4.6c14.8,3.7,29,9.1,42.7,15.8
		c9.3,4.6,16.8,11.2,22,20.1c1,1.6,2.4,3.2,1.4,5.4c-7.5-4.1-14.8-8.8-22.8-12.2c-7.4-3.1-15.1-5.7-22.5-9.1
		c-13.7-6.4-25.4-15.9-36.9-25.6c18.1-18.7,39.3-33.4,62.1-45.7c8-4.3,8.2-4.1,12.2,4.1c10.6,21.4,16.9,44.1,19.7,67.9
		C507.6,124.9,508.3,137.9,508.4,150.9z"/>
	<path class="st4" d="M345.2,86.2c0,18.9,0,37.8,0.1,56.6c1.4,3.2,1.6,6.5,1.6,9.9c0.2,14.3,0.8,28.6,0.7,43c0,1.9,0.3,3.9-0.7,5.8
		c-1.1,1.8-3,1.9-4.8,2c-7.5,0.4-14.7,2.1-21.9,4c-2.3,0.6-4.3,1.7-6,3.4c-1.4,1.4-3,2.6-5.2,1.7c-3.9-2.9-5.3-7.4-7.5-11.3
		c-0.3-2-1-3.7-3.1-4.3c-4.5-3.5-8.9-7.3-14.5-9.2c-5.6-2-11.1-2.8-16.9-1.3c-5.1,1.3-10,3.1-14.9,5c-1.6,0.7-2.9,1.6-1.3,3.5
		c2.7,3.1,4.2,6.9,6.4,10.3c1.8,4,3.9,7.9,5.4,12.1c0.2,2.1,1.6,3.3,3.2,4.5c1,0.7,3.1,1.3,1.8,3.4c-1.6,0.8-3.1,0.1-4.5-0.4
		c-5.2-1.9-10.5-3.3-16.1-3.4c-4.8-0.1-9.1-2.4-13.6-3.6c-17.7-4.7-32.4-0.6-44.6,13.4c-6.8,7.8-10.4,16.8-13.3,26.4
		c-0.9,3-1.1,6.3-3.5,8.7c-6,2.3-12.1,4.5-18.2,6.7c-1.4,0.5-3.5,1.8-4.3-1.1c0.2-18.7,3.4-36.9,9.1-54.7c0.2-0.6,0.2-1.3,0.4-1.9
		c2.9-6.4,5.2-13.1,8.6-19.3c5.8-10.9,11.4-21.8,18.2-32.1c2.2-3.3,3.2-6.6,3.2-10.7c-0.3-17.8,0.8-35.6,3.1-53.3
		c2.6-19.9,7.4-39,15.9-57.2c0.4-0.9,1.1-1.8,1.5-2.8c0.9-2.1,2.2-2.4,4.4-1.5c6.3,2.7,12.2,6.2,17.9,9.8
		c16.1,10.2,31.3,21.5,45.1,34.6c2.5,2.3,5,3.2,8.4,3.2c16-0.2,32,0,48,0C337.3,86.1,341.2,86.2,345.2,86.2z"/>
	<path class="st5" d="M149.6,272c1.8,1.4,3.2-0.1,4.7-0.6c5.8-1.9,11.1-5.3,17.5-5.6c1.8,1.2,0.8,3.9,2,4.9c3,2.3,2.3,5.8,3.5,8.5
		c5,11.1,13.2,19.5,24.5,24.4c6.4,2.7,12.7,0.1,18.9-1.3c5.3-1.2,10.1-3.7,14.6-6.6c3.2-2.1,6.3-4.3,9.4-6.5c5.9-4.2,6.8-4,9.9,2.4
		c1.1,2.3,2.4,4.4,5.4,4.5c0.4,0,0.8,0.2,1.1,0.4c4.5,5.1,9.3,3.5,14.1,0.5c1.9-0.3,3.3,0.7,4.7,1.6c5.7,3.4,11.7,5.1,18.4,3.7
		c4.7-0.9,6.1,0.1,6.7,4.7c2.5,21.6,21,32.8,39,33.8c10.7,0.6,21.3-2.5,30.2-9.4c3-2.3,6.5-4.1,8-7.9c3.1-4.4,5.7-9.1,6.4-14.6
		c0.5-3.7,2.8-5.2,6.2-5.1c5.6,0.2,10.9-1.3,16-3.4c2.8-0.6,5.4,0.1,8,1.5c4.9,2.5,9.8,5,15.1,6.6c6.4,2,10.2,7.2,13.9,12.3
		c8.6,11.9,19.6,20.3,33.6,24.8c7.1,2.3,9.9,8.6,14,13.8c0.4,0.5,0.6,1.2,0.9,1.7c4.5,7.1,4.4,7.4-2.5,12.4
		c-4.6,3.4-9.5,6.5-13.7,10.4c-3,2.8-6.8,4.3-10.5,6.1c-6.3,3.1-13,5.6-19,9.4c-0.7,0.4-1.5,0.8-2.4,0.8c-6.5,1.3-12.4,4.3-18.6,6.3
		c-19.8,6.3-39.9,10.9-60.7,11.5c-0.4,0-0.8,0-1.2,0c-29.8,3.2-58.8-2.1-87.4-9c-10.6-2.6-20.8-7-30.6-12.3
		c-1.5-1.6-3.2-2.8-5.6-2.8c-7-2.6-13.6-6-19.5-10.6c-4.3-4.3-9.7-7-14.5-10.7c-2.4-1.8-5.2-3.2-6.6-6c-0.3-0.6-0.8-0.9-1.5-1.1
		c-6.9-1.5-11.6-6.3-16.2-11.2c-2.5-2.7-5-5.3-7.5-8c-2.8-3-6-3.9-10-3.2c-4.5,0.8-9.1,1.2-13.7,1.3c-7,0.1-12.1-7.2-9.7-13.8
		c0.4-1.2,1.1-2.2,2.3-2.5c2.9-0.7,5.5,0.3,7.8,1.9c2.2,1.5,1.7,3.6,0.5,6c3.7-1.3,6.7-1,10.1,1.3c-1.2-4.5-0.4-9-5-11.3
		c-0.6-0.3-1-0.9-1.3-1.4c-1.8-3.4-4.4-4.1-8.2-3.5c-4.3,0.7-8.6,0.3-12-3.3c-1.6-1.8-5.1-1.5-5.6-4.9c-0.4-2.8,0.8-5.1,1.6-7.6
		c0.1-0.2,0-0.5-0.2-0.8c2.6-6.7,5.8-13.1,9.3-19.4C146.4,280.9,148.8,276.8,149.6,272z"/>
	<path class="st6" d="M134.9,304.5c1.7,0.4,1.2,1.5,0.6,2.4c-1.3,1.8-0.8,3.7-0.7,5.7c0.1,1.8,0.7,3.1,2.9,2.7c1-0.2,2,0.1,2.4,0.9
		c2.7,4.8,7.2,3.9,11.3,3.3c3.8-0.5,7-0.6,8.6,3.7c0.2,0.6,0.6,1.4,1.1,1.6c6.1,1.9,4,8.2,6.3,12.1c1.2,2-0.9,2.9-2.2,1.9
		c-4-3.3-8.1-2.1-12.7-0.2c0.3-1.1,0.4-1.6,0.6-2c0.7-1.6,3.4-2.7,2-4.6c-1.6-2.2-4.5-2.4-7.1-2.8c-1.4-0.2-2,0.9-2.2,2.2
		c-0.5,3.5,0.9,6.7,2.1,9.9c0.6,1.5,2.4,1.8,4.1,1.9c5.6,0.1,11.2-0.7,16.7-1.5c3-0.4,6.1-0.5,8.5,1.8c2.7,2.6,5.7,5.1,8,8.1
		c3.4,4.5,7.8,7.7,12.2,11c2.2,1.6,4.4,2.9,7.9,0.1c-1.5,3.9,0.3,5.2,2.2,6.7c5.9,4.5,12.4,8.2,18,13.3c-1.4,1.2-2.8,0.6-4-0.1
		c-6.3-3.2-12.7-6.3-17.8-11.4c-1.5-1.5-3.1-2.8-5.1-3.7c-4-1.7-7.7-4-11.1-6.7c-0.9-0.7-1.9-1.9-3-1.6c-1.4,0.4-0.8,2-0.9,3.1
		c-0.2,2.4-0.9,4.6-2.4,6.6c-1.3,1.8-2.6,1.6-3.5-0.4c-1.1-2.7-1.4-5.6-2.3-8.7c-1.8,1.1-3.6,2-5.8,1.8c-3.1-0.2-5.9,2.5-6.7,6
		c-0.6,2.8,1,6.5,3.6,7.6c5.4,2.3,11.3,2.3,16.9,3.6c1.3,0.3,2.6,0.3,3.8,0.8c3.1,1.3,4.5,3.8,3.3,7c-1.3,3.7-2.9,7.3-4.5,10.9
		c-1.6,3.5-4.9,4.6-8.5,4.7c-8.7,0.3-17.3-0.6-25.9-1.4c-3.6-0.3-7.3-1.1-11-0.9c-4.1,0.1-4.2,0.4-3.2,4.3
		c3.4,13.2,10.3,24.6,17.8,35.7c3,4.4,6.3,8.7,10,12.7c1.5,1.6,3,3.4,2.4,5.9c-0.6,1.6-2.1,2.3-3.5,3c-8.7,4.1-17.2,8.5-25.8,12.8
		c-8.7,4.3-17.9,6.7-27.5,8c-2.6,0.3-5.1,0.3-6.5-2.5c-1.1-7.3-0.8-14.6-0.3-21.9c0.8-12.4,1.6-24.7,0.8-37.1
		c-0.7-11.3,1-22.7,3.9-33.7c0.4-1.4,1.4-2.5,2.1-3.8c2.3-7.7,4.5-15.6,7.1-23.2c3.9-11.2,5.5-23,8.8-34.3
		C129,318.4,131.4,311.2,134.9,304.5z"/>
	<path class="st7" d="M22.1,511c2.6-7.9,4.6-16.1,7.7-23.8c7.1-17.7,16.6-34.1,28.4-49.1c8.7-11.1,17.9-21.8,26.8-32.7
		c2.2-2.3,3.9-5.1,7.1-6.4c2.8,2.3,2.9,5.5,2.3,8.6c-0.3,1.9-0.4,3.6,0.5,5.3c1.1,2.3,0.6,4.6-0.2,6.9c-1.3,3.5-2,6.9-0.7,10.7
		c0.9,2.5,0.8,5.3-0.1,7.8c-0.9,2.6-0.2,4.6,1.2,6.6c0.5,0.6,0.9,1.3,1.3,2c3.7,6.1,2.7,10-2.5,14.9c-4.1,3.8-8.2,7.2-14.1,7.8
		c-2.4,0.2-3.2,2.2-3.6,4.5c-1.1,7.6-2.8,15.2-3.4,22.9c-0.4,4.4-0.3,4.8,4.2,4.6c6.8-0.4,13.6-0.9,20.4-1.7
		c1.3-0.2,2.6-0.3,3.9-0.2c3.8,0.3,5.8,2,5.4,5.8c-0.8,6.9-2,13.8-4.7,20.2c-1.2,3-2.9,5.9-4.4,8.8c-1.7,3.5-3.3,3.9-6.6,1.9
		c-3.9-2.4-7.3-5.5-10.8-8.6c-2.7-2.4-5.7-4.1-8.9-5.7c-2.1-1-3.4-0.4-3.8,1.6c-1.3,5.7-4.1,11.1-4.1,17.1c0,3-1.4,5.2-3.5,7.2
		c-1.1,1.1-2.5,2-3.6,3.1c-2.5,2.5-2.3,4.3,0.6,6.3c1.2,0.9,3.2,1.3,2.9,3.3c-0.4,2-2.4,2.2-4,2.7c-2.7,0.7-5.4,1.2-8,2
		c-8.4,0.4-16.7,0.1-25,0.2c-1.7,0-3.4-0.2-4.6-1.7c0-0.3-0.1-0.5-0.1-0.8c0-1.3-0.1-2.6-0.1-3.9c-0.3-6.8-0.6-13.6,0-20.4
		c0.3-3.7,0.7-7.4,1-11c-1.1-5.4,0.2-10.3,3-15C22,512.1,22,511.5,22.1,511z"/>
	<path class="st8" d="M48.8,563.7c3.4-1.2,7.2-0.9,10.4-3c-0.5-1.6-1.9-1.4-2.9-1.9c-4.3-1.9-4.8-6-1.1-8.9c1.8-1.4,3.6-2.6,5.1-4.3
		c1.1-1.2,2-2.6,1.9-4.2c-0.7-7.2,3.2-13.3,4.6-19.9c0.6-2.7,1.8-2.6,4.3-1.5c8.2,3.5,13.7,10.4,20.9,15.2c2.5,1.7,3.1,1.4,4.5-1.1
		c4.4-8.1,6.9-16.9,8.6-25.9c1.3-6.6,0.2-7.7-6.5-7c-7.4,0.8-14.8,1.6-22.2,1.9c-6,0.2-5.7-0.1-5-5.9c0.8-7.8,2.4-15.5,3.5-23.2
		c0.6-4.5,1.2-5.3,5.6-6.2c2.8-0.6,5.8-0.4,8-2.7c3-3.2,6.5-5.8,8.8-9.6c1.7-2.8-0.8-5.2-1.8-7.6c-0.5-1.3-1.7-2.3-2.5-3.5
		c-1.3-1.8-1.8-3.5-0.5-5.8c1.3-2.4,1.4-5.5,0.3-7.6c-2.3-4.6-0.5-8.4,1-12.4c0.8-2,1.1-3.7-0.4-5.5c-0.7-0.9-1.5-2.3-0.9-3.3
		c2.2-3.7,0.2-7.1-0.2-10.6c5.8-5.8,11.3-12,18.8-15.9c0,4.8-1.9,9.2-2.4,13.8c-1.1,8.9-2.3,17.8-1.6,26.9c0.9,11.5-0.2,23-1,34.5
		c-0.5,7.3-0.2,14.7-0.2,22c2.8,3.6,2.1,8,2.6,12c1.1,9.2,1.7,18.4,2.6,27.6c0.2,10.6,1.6,21.1,2.4,31.7c0.2,3,0.1,6,0.4,9
		c0.2,1.6-0.4,3.1-1.9,4.1c-1.7,1-3.6,0.8-5.4,0.8c-17.2,0-34.3,0-51.5,0C52.8,565.4,50.4,565.9,48.8,563.7z"/>
	<path class="st9" d="M18,538.6c0,6.8,0,13.6,0,20.4c-1.3-2.6-0.4-5.4-0.6-8.1c-0.2-3.1,0.4-6.3-0.6-9.3
		C16.2,540.4,16.8,539.3,18,538.6z"/>
	<path class="st10" d="M187.5,718.3c-11.9-0.2-23.9,0.3-35.8-0.7c-16.6-1.4-32.4-5.2-47.3-13.1c-11.2-5.9-21.6-12.9-31.4-20.7
		c-8.5-6.7-15-15.2-21.6-23.8c-16.2-21.2-25.3-45.3-30.2-71.2c-0.5-2.8-1.8-5.5-1.5-8.5c1.2-2.4,3.6-3.3,5.9-3.2
		c5.5,0.4,11-0.4,16.5-0.1c5.3,0.3,10.3,1.8,15.4,2.9c4,0.9,5.3,2.5,5.2,6.6c-0.1,3.2,1.2,3.5,3.8,3c7.3-1.4,14.5-3.4,21.5-6
		c7.1-2.7,14.4-4.7,21.5-7.4c1.4-0.5,2.8-0.9,4.2-0.5c2.2,0.8,2.7,2.8,3.1,4.7c5.1,20.3,14.6,38.5,25.9,55.8
		c9.4,14.4,20.3,27.7,32,40.3c7.1,7.6,14.3,15,21.6,22.4c1.3,1.3,2.9,2.2,4.2,3.5c2.2,3.6,2.9,7.8,3.8,11.8c0.4,1.8,0.3,3.7-1.4,5
		C197.8,720.1,192.5,721.2,187.5,718.3z"/>
	<path class="st11" d="M307,767.9c-7.1,6.5-16.2,6.3-25,7c-4.9,0.4-9.9,0.2-14.9,0.2c-2.1,0-4.2,0-6.6,0c2.4-4.9,2.3-9.7,2.4-14.5
		c0-1,0-2.8-1.6-2.6c-1.4,0.2-1.3,1.6-1,2.9c0.3,1.3,0.4,2.6,0.4,3.9c0.1,9-1.1,10.1-10,10.1c-3.5,0-7.1,0.1-10.6,0
		c-5.3-0.1-8.2-2.9-8.4-8.3c-0.1-1.7,0-3.4,0.1-5.1c0.1-1,0.9-2.4-0.6-2.6c-1.4-0.2-1.9,1.3-1.9,2.4c-0.2,4.4,0.4,8.6,3.4,12.5
		c-6.9,0.3-12.8-1.2-17.6-6c-1.6-0.8-3-1.6-3.8-3.3c-3-6.2-4.3-12.9-4.8-19.8c-0.1-1.1,0.2-2.1,0.8-3c2.3-2.2,5.2-2.1,8.1-2.3
		c22-1.5,42.2-7.8,59.3-22.4c2.8-2.4,4.9-5.4,7.1-8.4c2.2-2.9,4.6-3.5,7.8-1.8c5.7,3,11.5,5.7,17.6,7.8c4.2,1.4,6.2,3.9,6.5,8.2
		c0.2,2.4-0.2,5,0.9,7.4c1.7,10.3,1.6,20.5-2.1,30.4C311.6,763.9,310.4,766.8,307,767.9z"/>
	<path class="st12" d="M114.1,576.5c-1.9-0.1-3.5,0.8-5.3,1.4C95,582.5,81.5,588.3,67,591c-1.1,0.2-2.3,0.4-3.5,0.4
		c-2.6,0-4-0.3-2.5-3.6c1.6-3.6,0.2-5.7-3.7-6.5c-6-1.2-12-3.6-18-2.9c-6.5,0.7-13.3-1.4-19.6,1.9c-1.2-5.5-1.8-11-1.6-16.6
		c10.2,0,20.4,0,30.7-0.1c21,0,42,0.1,63,0.1C115.2,565.8,116.5,572.7,114.1,576.5z"/>
	<path class="st13" d="M584,343.1c3.7,8.1,5.2,16.8,7.2,25.4c0.1,0.5,0.4,0.9,0.6,1.4c0.9,1,1.6,2.1,1.6,3.5
		c-0.8,1.9-0.7,3.7,0.9,5.2c0.3,0.5,0.5,1,0.5,1.5c1,5.8-0.2,11.9,3.3,17.2c1.3,3.8,2.4,7.5,2.3,11.6c0.3,6,1.5,11.9,2.2,17.8
		c1.9,16.9,3.6,33.8,2.4,50.8c-1.2,2.7-3.4,4.6-5.4,6.7c-8.8,9.2-17.9,18.1-24.9,28.9c-3.3,5.1-5.5,10.8-8.5,16
		c-10.7,18.8-18.3,39-27.8,58.3c-4.6,9.3-9.3,18.5-12.6,28.4c-0.4,1.2-0.9,2.5-2.7,2.5c-2.2-1.3-1.7-3.3-1.2-5.2
		c1.4-5.5,2-11.1,4.9-16.1c0.3-0.5,0.5-1.2-0.4-1.9c-2.1,1.2-2,3.5-2.3,5.5c-1,6.2-4.7,9.7-10.6,11.3c-2.1,0.5-4,1.1-5.7,2.5
		c-1,0.9-2.2,1.5-3.6,1.6c-6.9,0.5-13.7,2-20.6,0.4c-5-1.2-5.3-0.6-7.2,4.2c-1.8,4.5-4,8.9-6.4,13.1c-1.1,2-2.6,3.9-5.3,3.2
		c-2.5-0.7-2.7-3-2.8-5.1c-0.4-6.5-1.2-13.1-0.9-19.7c0.1-2.9,0.7-5.5,4.3-7c-3.9-1.9-4.4-5.1-4.3-8.5c0.1-8.1-0.3-16.3,0.3-24.4
		c0.2-3.1-1-5.6-2.6-8.1c-1.2-1.9-1.9-4-2.7-6.1c-0.9-2.2-1.8-4-4.7-3.9c-2.7,0-4.2,0.8-6,3.2c-4.4,5.8-7.1,12.8-13,17.5
		c-4.3,3.4-4.5,7-1.8,12c0.6,1.1,1.2,2.1,0.4,3.3c-0.8,1.1-1.8,0.8-2.8,0.3c-1.4-0.6-2.9-2-3.9,0.4c-0.8,1.9-1.1,4.1,1,5.3
		c5.3,3,10.2,7,16.4,8.2c4.1,0.8,5.8,2.9,5.6,6.4c-0.2,2.5-1.4,4.1-4.1,3.3c-3.4-1-5.7,0.2-8.1,2.5c-1.9,1.8-4.5,4.6-7.1,2.5
		c-2.5-2-0.4-4.7,0.9-7c1.5-2.6-0.2-4.5-1.8-6.2c-1.1-1.2-2.8-1.8-4.4-2.6c-2.7-1.3-4.4-0.5-5.8,2c-3.5,6.2-6.6,12.5-8.5,19.4
		c-2.8,10.3-4.9,20.7-8.1,30.9c-0.6,1.8-1,3.6-2.6,4.8c-6.6,3.6-13.8,5.4-21.2,6.7c-12.9,2.3-25.8,0.3-38.6-0.9
		c-1.2-0.1-2.3-0.4-3.4-0.9c-1.6-1.1-3.1-2.3-5-2.9c-2.6-0.7-4.3-2.5-5.2-5c-0.9-2.6-2.6-4.5-5-5.8c-2.7-1.4-4.1-3.6-3.7-6.8
		c0.3-2.4-1.2-4-2.9-5.2c-2.2-1.6-4.6-0.7-5.1,1.9c-0.5,2.7-2,2.8-3.9,1.6c-3-2-4.5-5.1-5.7-8.3c-1.7-4.5-3.4-9.1-4.4-13.9
		c-2.9-13.9-9.7-26.2-15.7-38.9c-1-2-2.3-3.8-3.1-5.9c-5.4-14.5-15-26.3-23.3-39.1c-7.1-10.9-16.2-19.9-25.3-29
		c-1.5-1.5-3.7-2.8-2.8-5.6c2.1-1.3,3.7,0.2,5.3,1.2c6.1,3.5,11.9,7.3,18.2,10.4c6.6,2.9,13.3,5.6,20.1,7.8c1.5,0.8,3.1,1.6,4.8,1.6
		c1.9,0.6,3.7,1.1,5.6,1.6c9.8,3.8,20.2,5.3,30.5,7.3c12.5,2.5,24.9,5.1,37.8,5.1c5.9,0,11.9,1.6,17.9,1.7c3.4,0.1,4.4,2,3.5,5.4
		c-0.2,0.6-0.4,1.3-0.5,1.9c-0.2,1-1,2.2,0.3,2.8c1.4,0.6,2.1-0.4,2.6-1.6c0.7-1.8,1.8-3,3.9-1.6c1.4,0.9,1.9-0.3,2.4-1.2
		c2.2-4.4,5.6-5.9,10.5-6c4.9-0.1,9.6-2.2,14.4-3.4c10.6-2.8,20.9-6.9,31.6-9.3c2.6-0.6,5.1-1.3,7.7-1.5c3.3-0.3,5.6,1,6.6,4.3
		c0.5,1.8,1.3,3.4,2.3,5c1,1.8,2.3,2,3.8,0.6c1.1-1,2.1-2,3.1-3c1.1-1.2,2.7-2.2,2.7-3.7c0.1-2-2.3-1.7-3.5-2.5
		c-2.4-1.6-2.7-3.4-0.1-4.8c4-2.3,7.3-6.3,12.6-5.6c0.5,0.1,1.1-0.1,1.4-0.6c2.5-5.4,8-7,12.4-9.8c4-2.5,7.8-5.3,11.2-8.6
		c6.6-6.6,13.1-13.2,19.7-19.7c4.1-5.8,9.8-10.1,14.3-15.5c7-8.3,13.7-16.8,20-25.6c5-6.8,9.3-14,13.4-21.4c0.3-0.5,0.7-1,1.2-1.3
		c2.6-1.8,3.9-4.4,5.2-7.2c7.6-16.2,10.8-33.4,13.9-50.8c0.4-2.3,0-4.7,0.4-7C581.4,345.3,581.4,343.2,584,343.1z"/>
	<path class="st14" d="M584,343.1c-1.5,1.4-1.4,3.2-1.5,5.1c-0.9,12.8-3.2,25.3-7.4,37.4c-0.7,1.9-1.1,3.7-1.3,5.7
		c-0.5,4.9-4.1,8.6-5.4,13.3c-1,3.7-3.2,6.5-6.4,8.6c-1.4-1.8-0.2-3.5,0.4-5.2c2.6-6.5,5.5-12.8,8-19.3c1.3-3.4,1.3-6.6-0.3-9.9
		c-2.1-4.1-3.4-8.5-5.2-12.8c-1.8-4.3,0.4-8.5,0.4-12.8c0-2,0.7-4.5,1.6-6.4c1.9-4,0.7-6.6-2.6-9c-2.4-1.7-4.2-3.9-5.1-6.8
		c-0.7-2.2-2.1-2.4-4-1.7c-2,0.8-4.2,0.9-6.2,0.1c-3.2-1.4-5.2,0-7,2.4c-5,6.4-10.6,12.3-16.2,18.3c-10.8,11.5-24,19.9-36.6,29.1
		c-4.7,3.5-4.8,3.7-2.3,9.6c3.6-2.9,6.6-1,9.5,1.3c1,0.7,1.7,1.7,1.3,3c-0.4,1.3-1.5,2.1-2.7,2c-7.3-0.5-14.1,3-21.4,2.9
		c-2.6-0.1-5-0.2-5.9-3.3c-0.7-2.2-2.4-1.1-3.6-0.5c-2.9,1.5-5.9,2.9-9,4c-1.7,0.6-3.4,1.6-5.1,0c7.3-4.5,15.4-7.2,22.8-11.4
		c8.5-4.9,15.8-11.6,24-17c2.2-1.4,1.6-3.8,0.4-5.7c-2.9-4.2-5.8-8.3-8.9-12.4c-2-2.6-4.7-4-7.8-5c-9.3-2.9-17.5-7.7-24.5-14.4
		c-4.8-4.6-8.7-10-12.9-15.2c-3.2-4-7-7-12.1-8.2c-4.9-1.1-9-4.2-13.5-6.3c-2-0.9-3.9-1.6-6-1.4c-0.2-3,2.7-3.8,4.1-5.6
		c1.4-1.7,3.2-3,5.1-4.1c0.9-0.5,1.5-1.3,1.8-2.3c0.1-0.3,0.3-0.6,0.5-0.9c1.6-3,3.1-6.1,4.1-9.5c0.5-1.6,0.9-3.3,2.7-4
		c1.9,0.3,2.6,2,3.8,3.2c9.5,9.7,20.2,15.8,34.3,11.5c1.4-0.4,2.8-0.5,4.1,0.4c1.8,0.1,2.6,1.8,4,2.5c1.5,2.6-1.5,3.2-2.2,5.1
		c1.1,1.4,2.6,1.1,4,0.6c1.4-0.5,2.8-1.4,4.4-1c6.6,3.6,13.3,6.8,21,7.1c8.5,0.3,15.6-3.4,22.6-7.7c9.5-5.8,13.5-15.5,17.9-24.9
		c1.9-4.1,3.8-8.3,4.9-12.8c0.3-1.1,0.7-2.3,2-2.7c0.6,6.3,1.3,12.6,1.8,19c0.2,2,1.3,3.4,2.3,4.9c10.2,16.1,18,33.4,25.1,51
		c0.2,0.5,0.2,1,0.3,1.5c-0.5,1.7-0.1,3.1,1.4,4C582.9,338.7,583.4,340.9,584,343.1z"/>
	<path class="st15" d="M609.2,384.9c4.9,4.9,8.8,10.6,14.2,15c2,0,3.1,1.4,4.2,2.6c9.7,10.9,18.2,22.8,26.5,34.7
		c1,1.4,1.8,3,1.2,4.8c-0.2,0.5-0.5,1-0.9,1.3c-9.2,6.3-19,11-30.2,12.5c-0.5,0.1-1-0.1-1.5-0.2c-1.7-0.8-2.2-2.5-2.9-4.1
		c-5.2-13-10.3-26.1-18.6-37.7c-1.2-1.6-1.6-3.6-2.2-5.4c-0.7-3.7-1-7.4-2.4-11c-1.4-5.7-2.2-11.4-2.5-17.3
		c-0.2-0.3-0.3-0.6-0.5-0.9c-1-1.7-2-3.4-1.1-5.5c-0.3-1.3-0.5-2.6-0.8-4C598.2,374.2,603.4,379.9,609.2,384.9z"/>
	<path class="st16" d="M581.6,336.8c-1.5,0.7-2.1-0.1-2.4-1.4c-0.3-1.1-0.9-2.3,1-2.6C581,334,581.6,335.3,581.6,336.8z"/>
	<path class="st17" d="M494.2,132.7c-6.5-13.5-17.5-21.8-30.9-27.6c-12.5-5.4-25.4-9.8-38.6-13.2c-3.1-0.8-3.6-1.7-1.3-4
		c14.6-14.1,30-27.3,47.7-37.5c8-4.6,8.2-4.6,11.9,3.9c7,16.1,11.3,32.9,13.5,50.2c1.4,10.9,3,21.8,2.2,32.8
		C497.1,135.9,495.4,134.5,494.2,132.7z"/>
	<path class="st18" d="M346,202c-0.3-19.7-0.5-39.4-0.8-59.1c2.8,3.3,5.6,6.5,8.5,9.7c0.5,0.6,1.7,1.8,2.1,0.6
		c1.4-3.9,3.2-0.9,4.3-0.2c2,1.4,3.7,2.7,6.4,1.8c1.7-0.6,2.9,0.8,4,2c2,2.2,4.3,3.3,7.4,2.2c1.7-0.7,2.8,0.2,3.3,1.7
		c1.5,4.3,4.1,7.8,8,10.2c0.7,0.4,0.7,0.9,0.9,1.5c1.9,4.4,4.9,7.9,8.8,10.7c2,1.4,3.5,3.5,5.3,5.2c0,1.5-1.1,2.4-2.1,3.1
		c-6.4,4.3-10.4,10.6-13.9,17.2c-0.9,1.8-1.6,4-4.3,4.1c-1.6-0.2-2.9-1.2-4.2-2c-8.6-4.8-17.8-7.2-27.6-7.3
		C350,203.5,347.7,204,346,202z"/>
	<path class="st19" d="M384.8,212.3c2.1-3.8,4.2-7.6,6.5-11.3c3.2-5.3,7.9-9.2,13-12.6c10-5.5,20.2-5.5,30.6-1.5
		c3,1.1,6.2,2,9.3,3.1c1,0.3,2.2,0.4,2.1,1.8c-5.6,6.6-7.5,14.7-9.6,22.8c0.8,2.3-0.7,3.7-2,5.1c-4.9,5-10.8,7.9-18,8.1
		c-7.1,0.2-13.8-1.7-20.1-4.9c-0.8-0.2-1.4-0.6-2.1-1.1c-1.9-1.8-4.4-2.6-6.5-3.9c-0.7-0.4-1.4-0.7-2-1.2
		C384.6,215.6,382.9,214.5,384.8,212.3z"/>
	<path class="st20" d="M417,226.7c8.3-1.2,15.5-4.3,19.8-12.1c8.1,0.7,16.2,1.4,23.9,4c2.6,0.9,5.3,1.6,6.7,4.7
		c0.5,1.3,2.9,0.8,4.4,2.2c8,7.5,11.3,17.1,12.9,27.5c0.8,4.8,1.2,9.6,1.5,14.4c0.5,6.7-3.7,11.6-7,16.6c-1.4,2.1-3.5-1.1-5.7-0.4
		c1.5,1,2.9,1.9,4.4,2.8c-2.5,2.5-5,2.8-8,1.1c0.7,0.9,1.4,1.8,2.1,2.7c-3.7,0.6-7.2,2.4-11,2.5c-13.8,0.2-23.7-6.6-31.4-17.4
		c-2.2-2.9,0-4.4,2-5.6c2.1-1.3,2-2.3,0.5-3.9c-1.3-1.3-2.4-2.8-3.3-4.4c-2.1-3.6-1.1-5.7,3.2-6c1.5-0.1,3.1-0.1,3.9-0.3
		c-3.2,1.3-5.7-0.4-7.8-3.5c-0.9-1.3-1.6-2.7-2.6-3.9c-2.5-4.2-5.3-8.3-7.2-12.8c-0.5-1.6-1.2-3.1-1.5-4.8
		C416.6,228.9,416.2,227.7,417,226.7z"/>
	<path class="st5" d="M482.3,297.4c-3.6,2.8-7.2,4.6-11.3,0.8c1-2.4,4.5-2.6,5-5.5C478.1,294.2,480.2,295.8,482.3,297.4z"/>
	<path class="st21" d="M384.8,212.3c-1.3,2.5,1.5,2.6,2.3,3.8c-0.2,1.4-1.2,2.2-2.3,2.4c-3.9,0.8-3.4,3.3-2.6,6
		c0.8,2.7,2.3,5,3.5,7.4c1,1.9,2.9,1.6,4.5,1.7c6.3,0.4,7.4,1.2,8,7.2c0.3,3,1.1,5.3,3.9,6.6c1.1,0.5,2,1.5,1.8,2.8
		c-0.5,3.3,1.7,3.3,3.8,3.5c0.4,0,0.8-0.1,1.2-0.1c10.4-0.5,13.5,4.5,12.4,15c-0.3,3.1-0.5,5.2,2.5,6.9c2.9,1.7,3.6,4.3,2.1,7.5
		c-1,2.1-1.3,4.6-2.8,6.4v0c-0.7,1-0.1,2.6-1.6,3.2c-4.1,2-6.7,5.9-10.2,8.7c-4.9,3-10.3,4.2-16,3.9c-3.3-0.2-5.2,0.4-5.5,4.5
		c-0.4,5.5-2.8,10.5-6.8,14.5c-2.1,3.1-4.6,4.8-8.6,3.6c-2.1-0.6-4.4,0.2-6.6,0.5c-2.9,0.4-5.4,0.3-5.1-4c-4.2,1.2-5.8,5.2-9.3,6.9
		c-3.3,1.6-6.5,3.4-10.1,3.8c-0.4,0.3-0.4,0.4,0,0.5c2.6,0.1,5.9,0.5,5.6,3.4c-0.3,2.5-3.6,2-6,2c-6,0-11.2-2.5-16.5-4.6
		c-2.3-0.9-2.9-2.7-2.1-4.8c1.8-4.9,2.9-10.1,4.9-15c2.1-4.8,4.3-5,7.4-0.8c0.3,0.4,0.8,0.7,1.6,0.3c0-1.8-1.7-2.4-2.6-3.5
		c-1.7-2-1.7-3.8,0.5-5.3c3.6-2.5,8.9-1.4,11.2,2.4c0.3,0.4,0.5,0.9,1.3,1.2c0.9-7.5,9.6-8.3,12.4-14.9c-2.5-0.6-5.2-0.8-7.8-1.4
		c-6.3-1.5-11-5.9-16.6-8.5c-1.2-0.6-2-1.7-2.2-3.1c1.6-5,6.2-8,11.8-7.4c4.9,0.5,8.8,2.7,12.2,6.3c4.1,4.4,8.1,8.9,13.9,11.1
		c0.3,0.1,0.4,0.1,0.5,0.1c-5.7-2.5-9.8-7-14.2-11c-1.1-1-2.3-2.2-3.4-3.2c-4.5-4.1-7.9-8.9-9.1-15.2c-1.2-6.3-0.8-12,4-16.7
		c0.8-0.9,1.2-2.1,1.4-3.2c0.8-4.5,3.3-6.6,7.9-6.3c1.8,0.1,3.5-0.6,4-2.5c0.5-2.1-1.3-3-2.8-3.7c-5.4-2.5-11.1-2.8-16.9-2.1
		c-2.6,0.3-5.2,0.7-7.8,0.1c-0.4-0.3-0.1,0.3-0.4-0.1c-2.9-5-7.1-3.6-11.4-2.5c-2.8,0.7-5.7-0.2-8.6-0.5c-1.1-0.1-2.4-0.7-2.3-1.8
		c0.1-3.7-2.7-5.7-4.3-8.5c-0.4-1.4-1.1-2.8,0-4.2c2,1,3.2,0,4.3-1.5c1.4-1.9,3.1-3.1,5.4-3.7c9.1-2.4,18.2-4.7,27.7-4.4
		c11.5-0.4,22.6,1,32.9,6.6C380.9,209.7,382.8,211.1,384.8,212.3z"/>
	<path class="st22" d="M275.1,297.4c-2.7,4.6-10,5.4-13.8,1.5c-0.5-0.5-0.5-1.8-1.5-1.6c-4.8,0.9-5.6-2.9-6.9-5.9
		c-2.1-4.8-2-4.9-6.4-1.8c-7.9,5.6-15.6,11.7-25.3,14c-5.6,1.3-11.2,3.6-17.3,2.1c-8.1-2-14.1-7.1-19.7-12.8
		c-3.6-3.7-6.2-8.4-8.8-13c-1.2-2.2-2-4.1,1.4-5.7c-3.2,1-4.6-0.2-4.8-2.9c-0.2-1.8-0.3-3.6-0.4-5.5c1.8-6.1,3.4-12.4,5.6-18.4
		c5.4-14.7,15.4-25.3,29.8-31.2c7.5-3.1,15.9-2.7,23.6-0.6c8.3,2.3,16.5,4.4,25.1,5.5c4.2,0.5,8.2,2.3,12.3,3.6
		c3.2-0.9,6.2,0.5,9.2,1.2c1.2,1.2,0.8,2.7,0.4,4.1c-0.3,1.4-1,2.7-1.7,4c-4.3,7.8-5.9,8.5-14.4,6c-1.2-0.4-2.7-0.1-3.6-0.9
		c3.2,1,6.6,1.8,10.1,2.4c2.9,0.5,3.4,2.3,2.3,4.6c-1.4,2.9-3.2,5.7-6.4,7.2c3.4,3.4,2.5,7.2,0.6,10.8c-1.2,2.3-1.8,4.2-0.2,6.5
		c0.9,1.4,1.1,3.2,1.1,5c0,6.7,2.5,12.2,7.1,17C273.8,293.8,275.7,295,275.1,297.4z"/>
	<path class="st23" d="M199.3,134.3c-0.5-6.1-0.8-11.7-0.3-17.4c0.7-6.9,0.9-13.8,2-20.7c2.4-15.5,5.2-30.9,11.7-45.4
		c1.3-2.8,2.5-3.2,5.3-1.8c10,4.9,18.5,11.9,27,18.8c8.5,6.8,16.6,14,24.2,21.8c0.7,0.7,1.3,1.5,2.4,2.7c-8.6,1-16.7,1.6-24.7,3.4
		c-11.8,2.6-23,6.4-31.3,15.8c-6,6.8-11.8,13.7-15.8,21.9C199.6,133.6,199.5,134,199.3,134.3z"/>
	<path class="st24" d="M277.3,226.6c-3.2,0-6.2-1-9.3-1.9c-2.3-2.2-6.4-2.6-6.4-7c4-0.4,5.9,3.6,8.9,4c-4.8-6.3-6.8-13.8-4.9-22.1
		c0.3-1.3,1.8-3.4-0.4-4c-1.8-0.5-4,0.3-5.1,2.2c-1,1.6-1.3,3.4-1.8,5.2c-0.4,1.3-0.2,3-2.3,3.2c-2.2-4.1-4.4-8.3-7.6-11.8
		c-0.7-0.8-2.3-1.8,0.1-2.8c6.5-2.6,13-5.6,20-6.8c10.9-1.9,19.9,2.4,28.1,9.1c1,0.8,1.9,1.8,2.9,2.7c1.8,0.8,2.2,2.6,3.1,4.1
		c2,3.6,4.1,7.3,6.1,10.9c0.2,1.3,1.4,2.3,1,3.8c-8.7,7-18.1,12.1-29.6,12.5C279,227.8,278,227.5,277.3,226.6z"/>
	<path class="st25" d="M256.1,206.2c0.9-1,0.6-2.2,0.8-3.4c1-6.2,2.8-7.9,8.8-9.1c2.3-0.4,2.8,0,2.2,2.3c-1,4.5-2,9-1.1,13.6
		c1.1,5.8,1.7,7,8,15.2c-5.3-1-9.2-4-13.1-7C259.8,213.9,258,210,256.1,206.2z"/>
	<path class="st21" d="M302.5,200.6c-1-1.4-2.1-2.7-3.1-4.1C302.2,196.6,302.1,198.8,302.5,200.6z"/>
	<path class="st14" d="M267.1,522.8c-7.2-1.6-13.9-4.5-20.5-7.9c-3-2.6-0.3-4.1,1.3-5.6c6.6-6.5,14-11.9,21-17.8
		c2.6-2.2,5.2-4.3,7.5-7.6c-4.7,0-8.8-0.1-12.8,1.4c-4.7,1.7-9.7,2.5-14.6,3.1c-4,0.5-5.6-0.8-6.1-4.8c-1.1-10.2-1.1-10.2,9-12.2
		c7.1-1.4,7.3-1.5,3.1-7.5c-5.6-8.1-9.5-17-13.6-25.9c-2.8-5.9-3-6-9.3-4.9c-0.8,0.1-1.6,0.3-2.3,0.3c-6,0.7-7.7,2.2-7.1,8.1
		c0.7,6-1.3,12.3,2,18.1c1,1.7,0,3.4-2.2,2.9c-2.6-0.6-5.1,0.7-7.3,0.4c-5.3-0.7-10.3-0.6-15.6-0.1c-3.7,0.4-6.9-2.9-10.5-4
		c-2.1-0.7-1.3-2.4-0.4-3.9c0.6-1,2.6-1.9,1.1-3.2c-1.7-1.5-3.7-3.2-6.1-3.2c-1.2,0-1.1,1.8-0.4,2.6c3.4,3.8,2.5,7.2-0.5,10.8
		c-1.8,2.1-1,5.9-4.4,7c-5.5-1.9-8.8-6-11.4-10.8c-0.8-4.5-4.9-6.7-7.4-10c-10.7-14.1-19.7-29-24.4-46.3c-0.7-2.7-0.1-3.5,2.6-3.6
		c9.3-0.4,18.5,1.9,27.8,2c4.4,0.1,8.9,0.5,13.3,0.2c3.1-0.2,5.6-1.6,6.4-5.3c0.6-2.6,2-5.1,3.2-7.6c2.2-4.7,0.8-6.9-4.5-7.5
		c-5.3-0.6-10.6-1.6-15.8-2.6c-3.9-0.8-6.3-3.1-7-7.4c-0.6-3.8,1.5-6.1,3.5-8.6c1.4-1.8,3.1-2.6,5.5-1.5c1.8,0.9,2.9,0.1,3.5-1.8
		c0.3-0.9,0.8-1.8,2-1.5c1.2,0.3,1.5,1.3,1.5,2.5c-0.3,3.5,1.5,6.5,1.8,10.5c2.2-3.5,3.4-6.4,3.1-9.8c-0.1-1.2-0.5-2.9,1-3.5
		c1.2-0.5,2.1,0.7,3,1.4c4.4,3.5,8.9,7,14.3,8.7c1.5,0.5,2.5,1.8,3.6,3c6,6.1,13.5,9.8,21.3,13c5.9,4.1,12.2,7.6,18.9,10.2
		c1.8,0.8,3.7,1.6,5.5,2.4c5.5,4.1,12.2,5.3,18.3,8c16.6,7.4,34.5,9.3,52.2,11.9c10.5,1.5,21.1,2.4,31.6,2.8c8.3,0.3,16.7-1,25-1.7
		c13.8-1.1,27.3-4.5,40.9-7.4c8.8-1.9,16.8-6,25.3-8.5c1.8-0.5,3.5-1.3,5.4-1.1c-0.1,2.7-2.4,2.9-4.1,3.4
		c-7.5,2.2-14.3,6.1-21.8,7.9c-2.5,0.6-3.6,1.8-2.9,4.5c0.5,2,0.5,4.2,1.4,6.1c0.5,1.2,0.8,2.7,0.2,3.8c-2,3.9-1.8,8.1-2.4,12.2
		c-0.9,5.9-2.7,7-8.6,6.1c-4.7-0.8-9.3-1.8-13.6-3.9c-1.3-0.6-2.8-1.5-4.9-0.7c5,3.5,9.4,7.1,13.4,11.3c1.5,1.6,3.1,0.9,4.6-0.2
		c2.1-1.5,4.2-1.6,6.7-0.9c7.1,1.9,14.2,2.2,20.9-1.2c6-3.1,12.2-5.5,18.7-7.2c5.7-1.5,10.4,0.5,12.2,6.1c2.3,6.9,2.9,13.9-2.1,20.3
		c7.6,1.6,14.7,4.3,22.3,5.1c1,0.1,2.3,0.8,3-0.1c0.9-1.1-0.3-2.2-0.7-3.2c-1.5-3.4-3.9-6.2-5.9-9.3c-1.4-2.2-2.3-4.4-1-7
		c0.9-1.7,0.1-3.3-0.3-5c-2.4-8.1,1.6-17.9,9-21.9c1.7-0.9,3.4-1.5,5.3-0.8c5.9,2.1,12,3.8,17.6,6.9c7.1,4,8.2,12.2,2.4,17
		c-5.2,4.3-12.7,3.3-16.5-2.2c-0.5-0.7-0.7-1.7-1.6-2.4c1.2,4.1-0.9,6.7-3.6,9.3c0,0,0.2,0.1,0.5-0.1c2.1-1.1,4.2-3.4,6.8-1.8
		c2.8,1.8,1.6,4.7,1.3,7.2c-0.2,1.7-0.3,3.6,0.8,5c2.2,3,3.4,6.1,2.3,9.9c-0.6,2.4,2.4,2,3.2,3.4c-0.9,3.2-3.7,4.9-5.8,6.9
		c-5.8,5.5-10.8,11.8-17.4,16.5c-6.7,4.8-13.5,9.4-21.4,12.3c-4.7,1.8-8.9,4.4-13.4,6.6c-4,1.9-8,3.3-12.5,3.1
		c-0.9,0-1.8,0.1-2.7,0.5c-5.8,3.2-12.6,3.7-18.5,6.6c-0.8,0.4-1.8,0.5-2.7,0.7c-1.8,0.3-3.9,0.8-5.1-1c-1.3-1.9,1-2.9,1.8-4.6
		c-3-1.3-3.5-3.7-2.6-6.5c0.6-1.9-0.1-3-1.4-4.1c-3.5-2.9-6.6-6.4-9.8-9.6c-2.3-2.3-3.1-4.7-2.3-7.8c1.6-6.3,6.1-10.6,10-15.4
		c1.1-1.4,3-1.5,4.7-1.6c2.1-0.2,2.8-1.2,2.3-3.2c-0.3-1.3-0.7-2.5-0.8-3.8c-0.5-3.8-0.3-7.3,2.8-10.2c0.7-0.6,1.2-1.4,1.6-2.2
		c0.6-1.1,2.2-2,1.2-3.4c-0.9-1.3-2.4-0.4-3.7-0.2c-0.8,0.1-1.6,0.6-2.3,0.4c-5.6-1.4-9.2,2-12.9,5.1c-3.7,3.1-7.3,5-12,1.8
		c-2.4-1.6-3.8-0.3-4.3,2.4c-0.9,5.3-2.4,10.5-5.4,15.1c-0.4,0.7-0.7,1.4-0.8,2.2c-0.7,6.5-4.8,10.3-10.4,12.8
		c-2.2,1-4.2,2.2-5.6,4.2c-0.7,1-0.8,2.4,0.7,2.2c4.9-0.7,6.6,2.9,8.8,6c1.1,1.5,1.9,3.1,2.8,4.7c1.1,2,2.4,3.5,5,2.2
		c0.7-0.4,1.6-0.4,2.3,0.1c2.1,1.7,4.2,2.9,7.1,2c1.1-0.3,1.9,0.8,2.2,1.9c0.6,2.3,2.4,3.3,4.4,4.1c4.2,1.8,8.5,3.4,13,4.7
		c1.5,0.4,3.3,0.7,3.3,2.8c0,1.9-1.6,2.7-3.2,3c-12.1,2.8-24,6.5-36.7,4.8c-5.1-0.7-10.4,0.5-15.7-0.3c-4.5-0.7-6-1.6-7-6.1
		c-1-4.3-1.6-8.8-0.9-13.3c1.1-7.5,1.2-14.9,0.2-22.4c-0.4-3-1.4-3.9-4.3-2.7c-3.9,1.6-7.7,3.5-10.7,6.5c-1.7,1.6-3.4,2.3-5.6,2.3
		c-0.9,0-1.9,0-2.7,0.4c-1.5,0.8-3.5,1.2-3.8,3.1c-0.3,1.6,1.6,2.2,2.6,3.2c1.8,1.7,4,3.1,5.4,5.1c0.7,1,1.1,2.2,0.2,3.3
		c-0.9,1.2-2.1,0.8-3.2,0.3c-2.3-1-4.4-2.4-6.5-3.6c-1.6-0.9-2.6-0.8-3.4,1.1c-0.8,1.9-1.7,3.9-2.3,5.9c-0.9,2.9-2.8,4.5-5.9,3.6
		c-2.1-0.6-3.5-0.2-4.3,2.1c-1,3.3-3.7,3.6-6.4,3c-6.5-1.5-13.1-2-19.5-4.2c-2,0-3.9-0.3-5.5-1.6
		C270.3,523.7,268.6,523.7,267.1,522.8z"/>
	<path class="st16" d="M510.7,477.1c-5.3-0.2-5.4-0.5-4.2-5.6c0.4-1.7,0.7-3.6-1.1-5c-2.6-2.1-2.8-5.2-2.4-8.3
		c0.1-1.2,0.5-2.3,0.6-3.5c0.1-1,0.2-2.2-1.1-2.7c-1-0.4-2.2-0.3-2.9,0.6c-1.5,2-3.8,1.5-5.7,2.2c-0.8,0.3-2.1,0.2-2.2-1
		c-0.1-1,0.8-1.5,1.8-1.7c4.3-1,6-4.7,4-8.7c-0.5-1-1.6-2.2-0.1-3c1.2-0.7,1.7,0.6,2.4,1.4c1.8,2.2,3,4.8,5.2,6.8
		c1.4,1.3,2.4,1.7,4.1,1.1c1.5-0.5,3.1-0.7,4.6-1c4.5-0.7,7.8-6.3,5.9-10.4c-1-2.2-2.3-4.1-4.5-5.3c-5.9-3.3-12.3-5.3-18.6-7.3
		c-3.2-1-6.2,2.1-8.1,4.4c-1.8,2.3-3.1,5.3-3.9,8.4c-0.8,3.2-0.8,6,0.6,9.1c0.8,1.8,2.1,4-0.5,6c-1.5,1.2-0.1,2.7,0.7,3.8
		c2.7,4.1,5.6,7.9,7.7,12.3c0.5,1.1,1.6,2,0.8,3.2c-0.9,1.4-2.4,0.9-3.6,0.7c-6.9-1.3-13.9-2.4-20.6-4.7c-1.3-0.4-2.5-0.7-3.8-0.2
		c-0.9,0.3-1.9,0.4-2.2-0.8c-0.3-1.1-0.2-2.1,1-2.6c3.1-1.3,3.4-4.1,3.5-6.9c0.1-3.8,0.4-7.6-1.1-11.3c-2-5.2-5.4-6.8-10.8-5.5
		c-6.9,1.8-13.2,4.8-19.6,7.7c-3.3,1.5-6.6,3.1-10.9,1.6c-1.9-0.7-4.8,1.6-7.4,0.2c-0.9-0.5-2-0.7-2.9-1.2c-1.9-1.2-3.4-0.6-4.9,0.7
		c-3.2,2.8-4.7,2.6-7.5-0.5c-3.5-3.8-6.9-7.7-12-9.5c-1.1-0.4-1.8-1.2-1.4-2.4c0.6-1.5,1.7-2.4,3.4-2c1.4,0.3,2.8,0.8,4,1.5
		c5,2.9,10.7,3.3,16.2,4.5c1.4,0.3,2.6,0,3.1-1.6c0.6-1.9,1.5-3.7,1.4-5.7c-0.1-3.4-0.2-6.8,2.1-9.8c0.5-0.6,0.8-2.1,0.4-2.6
		c-2.2-2.6-1-5.9-2.3-8.6c-1.4-3.1,0-4,2.6-4.6c9.3-2.2,17.9-6.8,27-9.6c0.4-0.1,0.6-0.4,0.9-0.7c0.5-0.3,1-0.5,1.6-0.8
		c4.5-0.5,8.4-2.9,12.3-4.9c1.4-0.7,2.8-1.2,4.4-1.5c2.2-0.4,3.4-0.4,2.4,2.4c-0.6,1.6,0.4,2.4,2.1,2.5c4.2,0.2,8.4-0.2,12.4-1.5
		c3-0.9,6-1.8,9.2-1c1.5,0.3,3.3,0.2,3.8-1.2c0.7-1.7-1.4-1.9-2.4-2.5c-2.2-1.5-4.3-3.8-6.6,0.2c-1,1.8-2.6,1.1-2.9-0.9
		c-0.2-2-0.6-3.8-1.4-5.6c-0.7-1.7,0.7-3.1,2.2-4.2c9.6-7,19.4-13.9,28.8-21.1c5.8-4.5,10.8-10,15.7-15.4c4.2-4.7,8.2-9.5,12.2-14.3
		c1.6-1.9,3.2-2.7,5.7-1.3c2.2,1.2,4.5,1.5,7.1,0.1c2.4-1.2,4.7-1,5.3,2.8c0.6,4.3,4.5,6.2,7.5,8.7c1.1,0.9,2.2,1.6,1.8,3.1
		c-0.9,3.4-1.9,6.8-3,10.1c-0.4,1.3-1,2.4-0.5,3.8c0.2,0.6,0.6,1.4,0.4,1.9c-3.1,7.8,2.5,13.6,4.9,20.1c1.4,3.8,1.9,7.1,0.3,10.9
		c-3.4,7.9-6.5,16-9.8,24c-0.3,0.3-0.5,0.5-0.8,0.8c-0.5,0.5-1,1-1.6,1.1c-6.3,0.4-10.4,4.5-14.4,8.7c-1.7,1.8-1.5,2.8,0,4.5
		c1.7,1.9,4.5,3.6,2.7,7c-3.2,5.7-7.5,10.6-11.4,15.8c-6.8,9-14.8,16.9-22.5,25.2C512.9,476.8,512,477.8,510.7,477.1z"/>
	<path class="st26" d="M277.3,226.6c9,0.1,17.1-2.9,24.6-7.7c2.4-1.5,4.8-3.2,7.7-3.6c0.5,1.1,1.4,1.9,2.4,2.5c1.8,1,2.7,2.4,2,4.5
		c-0.5,1.4-0.2,2.4,1.4,2.5c4.1,0.1,8.2,1.1,12.3-0.5c4.9-1.9,5-1.6,7,3.4c0.1,0.2,0.7,0.3,1,0.4c0,1.3-1,1.9-2,2.1
		c-2.9,0.7-5.4,2.6-8.4,3c-4.2-1.6-13.8,1.4-16.1,4.8c-0.6,0.9-0.1,1.8,0,2.6c1.4,10,0.1,11.7-9.8,12.4c-4.3,0.3-8.5-1-12.9,0.6
		c-3.1,1.2-4.6,2.9-4.6,6c0.1,3,2.5,3.4,4.8,3.5c1.8,0.1,3.4,2.5,5.6-0.2c1.4-1.7,2.9-3,3.5-5.3c0.9-3.7,3.6-4.9,8.7-5
		c3.6,0,4.3,2.4,4.8,5.1c0.2,0.8,0.4,1.5,0.8,2.2c2.7,4.8,3.1,4.9,7.3,1.4c0.8-0.7,1.6-1.4,2.5-1.9c3-1.7,6-2,8.9,0.1
		c2.2,1.6,2.6,6.2,0.9,9.1c-1.1,1.9-1.9,3.6-1.3,5.9c0.6,2.6-0.8,4.5-2.6,6.3c-1,1-2.3,1.8-3.4,2.6c-4.3,2.9-4.3,3.6-0.3,6.6
		c0.1,3-2.2,3.3-4.3,3.8c-0.4,0-0.7-0.2-1.1-0.4c-0.5-0.2-0.8,0.1-0.3,0s-0.2,0.7,0.1,0.3c3.1,0.7,5.2-1.2,7.3-2.9
		c2.4-2,5-3.9,7.1-6.2c0.9-0.9,1.9-1.9,3.4-1.6c1.4,1.3,2.7,2.9,5,2.6c0.6-0.1,1.4,0.3,1.7,0.7c5.1,6.2,12.3,7.2,19.6,7.9
		c1.2,0.1,2.5,0.1,2.9,1.5c0.4,1.5-1.4,1.3-1.9,2.1c-2.8,4.1-7.3,6.3-10.8,9.5c-0.9,0.8-1.2,1.6-0.8,2.7c0.3,0.9,1.8,2.2-0.2,2.9
		c-1.6,0.5-3.2,0-4-1.6c-1.9-3.7-5.4-5.1-9.1-3.4c-1.6,0.7-2.8,1.9-0.8,3.5c0.8,0.7,1.6,1.3,2.4,2c0.9,0.7,2.5,0.8,1.8,2.5
		c-0.5,1.3-1.3,2.5-2.7,2.5c-1.6,0.1-2.4-1.3-3.3-2.5c-0.6-0.8,1.1-2.8-1.2-2.6c-1.4,0.1-2.2,1.4-2.6,2.7
		c-1.9,5.4-3.7,10.9-5.5,16.4c-0.3,1-0.4,1.9,0.6,2.4c7.1,3.3,14.3,6.1,23,4.1c-2.2-1.6-3.6-3.1-6.2-1.7c-1,0.5-2.8-0.2-2.7-1.9
		c0-1.3,1-1.9,2.4-2c6.5-0.2,11.6-3.2,15.5-8.2c1.6-2.1,4-2.4,6.3-2.7c1.6-0.2,1.4,1.1,0.7,2.1c-0.5,0.7-1.6,1.3-0.8,2.3
		c0.6,0.7,1.7,0.4,2.6,0.3c3.5-0.5,7-1.8,10.7-0.2c2.3,1,3.8-1.8,5.7-2.8c-2.8,5.5-7.8,8.8-13,11.5c-19.2,10.1-37.7,8.3-54.7-5
		c-7.5-5.9-11-14.5-11.9-24c-0.3-2.9-1-4-4.1-3.1c-9.2,2.6-16.9-1.2-24.2-6.1c-1.9-2.7-4.4-4.8-6.5-7.3c-3.3-4-4.4-8.5-4.6-13.4
		c-0.1-3.1-0.1-6.1-2.8-8.2c-1.1-0.9-0.5-1.4,0.2-2.2c1.5-1.5,2.5-3.4,3-5.4c1.1-4.2,0.4-5.8-3.5-8c4.9-0.7,6.5-4.9,8.7-8.2
		c1.2-1.8-0.7-2.1-1.9-2.5c-3.8-1.1-7.6-2-11.3-3.1c-0.8-0.2-1.7-0.5-2.4-1.4c3.7,0.8,7.5,1.4,11,2.5c3.5,1.1,5.6-0.5,7.3-3
		C274.4,233.9,276.4,230.5,277.3,226.6z"/>
	<path class="st6" d="M249.8,395.1c-2.2,0-3.9-0.9-5.5-2.4C246.4,392.8,248.2,393.7,249.8,395.1z"/>
	<path class="st27" d="M167,458.1c3.7,3.4,7.4,6.9,11,10.3c3.9,1.2,6.4,4.4,9.4,6.9c10,8.4,20.6,15.8,31.7,22.5
		c1.8,1.1,4.2,1.9,4.5,4.5c0.1,1.6,1.4,2.5,2.4,3.5c6.6,6.7,13.8,12.9,19.5,20.5c5.8,7.7,11.1,15.8,16.6,23.8
		c5.3,7.8,9.6,16.1,13.8,24.6c5.3,10.5,9.7,21.4,15.1,31.9c2.9,5.6,3.1,12.1,5.1,18.1c1.6,4.9,2.8,10.1,5.8,14.5
		c1.1,1.7,2.6,2.7,4.7,4.2c-0.3-2.5-2.2-5.3,1-6c2.7-0.7,5.6-0.9,7.7,2.2c1.3,1.9,2.6,3.4,1.6,5.9c-0.8,2.1,0.6,3.6,2.4,4.3
		c3.6,1.4,5.7,4,6.6,7.7c0.7,2.6,3,3.2,5,3.9c1.4,0.5,2.8,0.7,3,2.5c-1.2,1.2-2.7,1-4.1,0.7c-7.6-1.4-15.1-3.2-22.1-6.6
		c-1.6-0.8-3.4-1.6-4-3.5c-0.2-0.6,0.3-1.1,0.4-1.7c-0.5,0.3-1,0.7-1.7,0.8c-4.5-0.2-8.7-2-13.1-2.6c-19.9-2.9-39.7-4.1-58.8,4.4
		c-7.4,3.3-14.6,7.3-21.9,10.7c-5.8,2.7-11.9,5-18.5,4.8c-2.4-0.9-2.9-3.3-3.6-5.3c-5.7-16.8-11.2-33.7-17.4-50.3
		c-9.2-24.5-20-48.3-34.3-70.3c-5.5-8.4-13.3-14.5-21.1-20.4c-1.8-1.4-3.5-2.8-4.3-4.9c-1.9-13.1-2.7-26.2-3.8-39.3
		c3.8,1.8,7.5,0,11.1-0.6c9.9-1.6,19-5.5,27.9-10.3C152,465.5,159.6,461.9,167,458.1z"/>
	<path class="st28" d="M109.5,519.6c9.3,6.8,18.7,13.5,25.6,23c4.4,6.2,8.1,12.8,11.8,19.5c13.7,25,24.1,51.4,32.9,78.5
		c3.2,9.9,6.9,19.8,10.3,29.6c1.6,0.9,2.2,2.5,2.8,4.1c2.8,7.5,4.9,15.2,7,22.9c0.5,1.7,1.2,3.6-0.4,5.2c-1.6-0.5-2.7-1.5-3.8-2.7
		c-17.4-17.3-34.1-35-48.4-55.1c-14.5-20.4-26.3-42.2-32.3-66.7c-0.1-0.5-0.4-0.9-0.7-1.4c-0.2-4.4-0.7-8.6-2.3-12.7
		c1-3.9,0-7.7-0.2-11.5C111.1,541.4,109.2,530.6,109.5,519.6z"/>
	<path class="st29" d="M199.3,702.4c-2-9.4-4.9-18.6-8-27.7c-0.5-1.5-0.9-3-1.3-4.5c13.4-1.9,24.7-9,36.6-14.7
		c11-5.2,22.4-8.3,34.8-8.2c12.6,0.1,25.1,0.7,37.2,4c1.6,0.4,3.2,1.1,4.8,1.6c0.5,0.1,0.7,0.3,0.8,0.8c2.4,2.6,5.7,3.6,8.8,4.8
		c6.9,2.6,14,4.1,21.2,5.3c8.5,0.8,17.1,2,25.6,2.3c11,0.5,21.8-1.1,32.2-5.1c1.9-0.7,4-1.2,6-1.8c1.7,1.4,1.6,3.3,1.2,5.1
		c-4,17.6-5.7,35.6-9.2,53.2c-0.1,0.5,0,1,0.1,1.6c-0.1,3.5-1.4,6.8-1.7,10.3c-0.1,1.2-0.7,2.2-2,2.7c-15.4,1.6-30.9,1.6-46.3,0.6
		c-7.3-0.5-14.6-0.8-21.9-1.7c-1.6-0.2-3-0.9-4.6-1c-0.4-3.1-1-6.1-1.3-9.2c-0.2-1.8-0.7-2.8-2.5-3.4c-7.4-2.6-14.6-5.8-21.6-9.4
		c-1.4-0.7-2.5-1.6-3.9,0.5c-12.5,17.9-30.9,25.7-51.3,30.5c-8.2,2-16.6,1.9-24.8,3.1c-1.1-5.8-2.2-11.6-3.2-17.4
		c-0.4-2.2-0.7-4.3-1.6-6.3C203.2,712.6,201.3,707.5,199.3,702.4z"/>
	<path class="st30" d="M574.4,713.8c-6,2.1-12.2,3.2-18.5,3.8c-1.4,0.1-2.8,0.4-4.2,0.6c-18.4,0-36.8,0-55.1-0.1
		c-1.2-0.9-1.3-2.2-1.1-3.6c0.6-1.5,0.7-3.3,2-4.5c15.4-7.5,28.3-18.1,40.2-30.4c10.1-10.4,21.5-19.6,30.1-31.5
		c2.7-3.8,2.8-3.7-1.7-5.4c-2.9-1.1-6.2-1.4-8.3-4.1c0.1-4.6,4-7.2,6-10.7c3.6-6.1,7.8-11.8,11.6-17.8c8.2-13.3,13.2-27.8,17.9-42.6
		c6.1-19.7,7.4-39.8,7.6-60.2c0.1-8.2,1.2-16.4,1.6-24.7c0.1-1.5,0.8-2.8,1.4-4.1c0.6-17.5-0.5-34.9-2.8-52.3
		c-0.8-5.9-2.1-11.8-1.8-17.9c10.3,12.9,16.4,27.9,22.3,43c0.5,1.2,1,2.4,1.4,3.6c1.7,0.8,2.4,2.3,3,3.9
		c7.8,20.8,10.2,42.2,6.1,64.2c-1.2,8.7-3.7,17.1-6.3,25.5c-3.9,12.5-7.6,25.1-13.7,36.8c-1,1.9-2.1,3.6-3.1,5.4
		c-4.1,5.9-7.7,12.1-11.2,18.4c-5.8,10.4-12.9,20-20,29.5c-2.4,3.3-2.3,3.4,1.8,4.2c2.2,0.4,4.4,0.4,6.6,0.9
		c2.7,0.7,5.4,1.4,6.3,4.6c0.1,7.6-1.3,15.1-2.6,22.5c-2.3,12.4-5.5,24.5-10.6,36C577.9,709.6,576.7,712.1,574.4,713.8z"/>
	<path class="st31" d="M496.6,714.3c0,1.3,0,2.5,0,3.8c-1.8,7.1-2.3,14.4-3.2,21.7c-0.9,8-1.1,16.2-5,23.6
		c-3.5,6.7-8.9,10.3-16.5,10.9c-11.2,0.9-22.5,0.8-33.7,0.4c-5.1-0.2-10.4,0-15.5,0.3c-5.7,0.3-11.2-1-16.8-1
		c-5.7,0-10.7-2.8-14.9-6.9c-1.8-0.2-2.7-1.5-3.4-3c-4.4-9.7-4.6-19.8-2.9-30.1c0.2-1.1,0.6-2,1.7-2.5c0.8-4.1,1.5-8.3,2.3-12.4
		c0.6-1.6,1.7-2.9,3.1-4c9.3-6.8,18.4-13.9,27-21.7c2.2-2,4.5-2.5,7.2-1.1c14.7,8,31,11.3,46.8,16.1c6.4,1.9,13,2.8,19.8,2.9
		C494.2,711.4,497.2,710.7,496.6,714.3z"/>
	<path class="st32" d="M496.6,714.3c-0.4-1.5-1.6-1.6-2.8-1.5c-12.6,0.5-24.2-3.7-36-7c-11.5-3.2-22.8-6.9-33.4-12.5
		c-1.5-0.8-2.5-0.7-3.8,0.5c-10,9.3-20.7,17.6-31.9,25.4c0.9-6.2,1.9-12.4,2.5-18.6c1.4-12.7,4.5-25.2,6.7-37.8
		c0.2-1.1,0.1-2.4,0.1-3.5c3.2-12.3,6.3-24.6,9.6-36.9c2-7.1,5.3-13.6,9.2-19.9c1.4-2.2,2.6-2.4,5.1-1.4c4.2,1.6,7.7,3.6,9.3,8.1
		c0.5,1.5,1,2.7-0.9,3.6c-0.5,0.3-1.2,0.8-1.3,1.3c-0.3,1.4-1.6,3-0.6,4.1c1.2,1.3,2.6-0.4,3.8-1.1c1.3-0.8,2.5-2,3.5-3.2
		c1.8-2.1,4-2.2,6.4-2c1.3,0.1,3.2,2.8,3.9-0.5c0.6-2.8,0-5.5-3.5-5.8c-2.4-0.2-4.4-1.1-6.6-2c-3.8-1.4-6.7-4.3-10.5-5.8
		c-3.4-1.4-3.9-4.2-2.7-7.5c1.3-3.7,3-4.2,5.8-1.4c0.5,0.5,0.8,1.1,1.6,1c1.1-0.9,0.2-1.6-0.3-2.3c-3.7-4.9-3.5-9.1,0.8-13.6
		c0.9-0.9,1.8-2,3-2.5c3.4-1.5,2.4-6.8,6.7-7.2c-0.1-0.6-0.3-1.3-0.3-1.9c0-0.8-0.1-2.1,0.1-2.2c3.6-1.1,3.9-5,6.2-7.1
		c3-2.7,9.6-0.7,10.7,3.1c1.3,4.7,5.2,8.3,5.7,13.2c0.4,4.5-0.1,9.1-0.1,13.7c0,5.1,0,10.2,0,15.4c0,3.1,1.2,5,4.4,5.5
		c0.9,0.1,2.1,0,2,1.3c-0.1,0.9-1.1,1.1-1.9,1c-3.8-0.1-4.4,2.1-4.6,5.3c-0.3,7,0.7,13.9,0.9,20.8c0,1.5,0.1,3.2,1.8,3.6
		c1.6,0.4,2.7-1.1,3.3-2.3c2.5-4.9,5.4-9.6,7.1-14.9c1.4-4.1,2.8-5,7.2-4.3c3.5,0.6,7,1,10.5,1.3c2.1,0.2,4.2,0.4,5.9-1.5
		c0.2-0.2,0.5-0.5,0.6-0.4c6.4,3.4,9.8-4.7,15.6-4c2.5,0.3,6.6-5.7,7-8.4c0.3-2.1,0.6-4.2,1.3-6.1c0.7-2,2.8-2.9,4.4-2.5
		c2.5,0.6,0.8,3.1,0.3,3.9c-3.5,5.5-3.4,12-5.7,17.8c-0.5,1.4-0.1,2.6,0.4,3.8c1.6,1.5,0.9,3.1,0.4,4.7c-1.1,3.2-2.1,6.5-3.3,9.6
		c-4.5,15.3-9.2,30.6-12.5,46.3c-0.8,3.6-2.1,7-3.2,10.5c-1.8,4.9-2.4,10.1-3.9,15.1c-0.6,2.1-1.1,4.3-2.8,5.9
		C497.6,711.8,497.1,713.1,496.6,714.3z"/>
	<path class="st33" d="M519.4,632.4c0.4-5,3.7-9.1,4-14.1c2.9-7.1,5-14.6,8.7-21.4c8.9-16.2,15.2-33.7,23.6-50.1
		c6.9-13.5,12.8-27.6,21.8-40c1.7-2.3,3.5-4.6,5.5-6.7c6.9-7.2,13.2-14.9,20.7-21.5c-0.7,16.3-1.6,32.7-2.1,49
		c-0.3,10.2-1.6,20.3-4,30.2c-6.3,26-16.5,50.2-33.1,71.4c-9.6,1.1-19.1,3.2-28.6,5c-4,0.8-8.1,0.5-12.2,0.4
		C521.9,634.6,520.2,634.2,519.4,632.4z"/>
	<path class="st6" d="M510.7,477.1c1-0.3,2.1-0.5,3.1-0.8c-11.7,11.5-21.7,24.9-37,32.4c-2.9,1.4-6.8,2.8-6,7.6c0.2,1.3-1,1.8-2,0.7
		c-2-2.1-3.8-1.3-5.9,0.2c-2.2,1.6-4.7,2.8-7.1,4.2c-0.6,0.4-1.7,0.6-1.4,1.6c0.2,0.5,0.9,0.9,1.5,1.1c6.6,2.7,6.6,2.7,1.5,8
		c-1.3,1.3-2.6,2.6-3.9,3.9c-2.6,2.5-4,2.3-5.7-1c-1-2-2.1-4-2.5-6.1c-0.6-2.9-2.4-3.1-4.6-2.9c-5.5,0.5-10.7,2.5-16,3.8
		c-11.9,3-23.4,7.4-35.5,10c-0.8,0.2-1.6,0.5-2.3,0.4c-5.8-0.9-8.6,2.6-10.7,7.1c-0.4,0.9-0.4,2.3-1.9,2.1c-1.3-0.2-1.5-1.3-1.8-2.3
		c-0.1-0.3-0.4-0.5-1-1.2c-0.3,3.5-1.1,6.2-5.1,5.4c-2-0.4-2.8-1.3-2-3.3c0.4-1,0.8-2,1.1-2.9c1.3-4,0.8-4.6-3.6-4.8
		c-23.3-0.6-46.3-4-68.9-9.6c-5.3-1.3-10.8-2.1-15.8-4.6c6.2,1,12.4,1.9,18.6,2.9c2.9,0.4,5.7,1.2,6.3-3.3c0.3-2.6,2.4-3.3,4.8-2.1
		c3.1,1.6,4.8,0.7,5.1-2.7c0.3-3.1,3.3-5.3,2.8-8.8c-0.2-1.4,1.3-0.8,2-0.4c2.9,1.7,5.8,3.5,8.7,5.3c0.7,0.4,1.6,1.4,2.4,0.5
		c1-1.1-0.1-1.9-0.9-2.6c-2.1-1.8-4.1-3.6-6.3-5.3c-4-3.1-4-3.7,0.2-6.2c2.3-1.4,4.3-2.4,7.3-2c3.2,0.5,4.6-3.3,7-4.8
		c3.2-2,6.6-3.2,9.9-4.7c2.5-1.1,3.6,0.7,3.9,3c0.9,8.6,1,17.2-0.2,25.8c-0.7,4.8-0.1,9.9,1.9,14.6c0.5,1.1,1.2,1.7,2.3,1.8
		c5.1,0.2,10,1.4,15.2,0.3c3.8-0.8,7.7,0.6,11.7,0.6c9.3-0.2,18.1-2.7,27-4.6c1.3-0.3,2.9-0.7,3-2.2c0-2-2-1-3.1-1.5
		c-4.9-1.9-9.9-3.6-14.7-5.6c-1.7-0.7-4.1-1.5-3.2-4.5c0.3-1.2-0.9-1.7-1.7-0.7c-2.1,2.6-3.7,0.9-5.1-0.5c-1.3-1.3-1.5-2.9-4-0.7
		c-2.2,2-4.6-0.6-5.4-2.8c-1.3-3.4-3.8-5.9-5.5-9c-0.9-1.6-2.1-2.7-4.1-1.5c-1.7,1-3.1,0.4-4.1-1.1c-1.2-1.8,0.3-2.6,1.3-3.9
		c2.4-3.3,6.4-4,9.5-6c3.5-2.3,5.9-5.2,6-9.5c0-1.1,0.1-2.1,0.9-3c3.7-4.4,4.7-9.8,5.5-15.2c0.5-3.9,2.6-5.4,5.5-3.3
		c5.4,4,9,1,12.8-2.3c3.3-2.8,6.2-5.9,11.3-4.2c1.3,0.5,3.2-0.8,4.9-1.2c1.6-0.4,3.2-0.2,4.2,1.3c1.2,1.6,0,2.7-1,3.7
		c-4.8,5-7.3,10.5-4.1,17.6c1,2.3-0.2,4.3-3.1,4c-3.8-0.4-5.5,1.5-7.4,4.5c-2.4,3.7-5.7,6.7-7,11.2c-0.8,2.9-0.2,4.9,2,6.9
		c4.1,3.7,7.6,8,12.1,11.3c0.7,0.5,0.6,1.1,0.3,1.7c-0.2,0.5-0.6,0.9-0.8,1.3c-0.9,1.5-1.1,3.1-0.3,4.5c1,1.8,2.3-0.9,3.6,0.1
		c0.1,1.9,0.1,3.8-2.5,4.5c-0.6,0.2-1.2,0.6-1,1.4c0.2,0.8,1.1,0.8,1.6,0.7c2.2-0.4,4.6-0.5,6.5-1.5c5.6-3.2,12.5-2.6,17.7-6.7
		c1.5-1.2,3.2,0.5,5,0.1c3.2-0.7,6.4-1.4,9.3-3.1c9.7-5.5,20.4-8.9,29.7-15.1c3.7-2.5,7.2-5.2,10.4-8.3
		C498.3,488.7,503.8,482.2,510.7,477.1z"/>
	<path class="st6" d="M223.8,502.3c-10.2-6.3-20.4-12.6-29.9-20c-5.5-4.3-11.1-8.7-15.8-13.9c1.5-0.9,2.2-2.3,2.3-3.9
		c0.1-2.3,1.1-4.1,2.8-5.5c2.4-1.9,1.9-3.7,0.1-5.6c-0.8-0.8-1.7-1.8-2.1-2.8c-0.7-1.8,0.5-3.4,1.8-4.5c1.2-1,2,0.6,2.9,1.2
		c1.3,0.9,2.6,1.8,4,2.4c3.5,1.7,3.7,2.8,0.9,5.5c-0.7,0.7-2.3,0.8-1.8,2.2c0.4,1,1.6,0.6,2.5,0.7c2.9,0.3,4.7,2.7,7.5,3.4
		c2.8,0.7,5.1,1,6.9-1.9c1.1-1.9,2.1-1.3,3.2,0.2c1.8,2.5,4.4,2.8,7.1,1.7c2.7-1.2,5.2-1.7,7.6,0.4c1.1-1.4,0-2.1-0.5-2.6
		c-3.1-3.7-1.4-8.1-1.6-12.2c-0.2-3.8-0.9-7.7,0.5-11.6c0.8-2.4,2-3.5,4.5-3.4c2.2,0.1,4.4-0.3,6.6-0.7c5.7-1.1,6.9-0.4,9.2,4.9
		c2.3,5.5,4.1,11.7,7.2,16.2c3.2,4.7,5,10.8,10,14.2c1.1,0.7,1.3,1.6,1.1,2.7c-0.2,1.2-1.2,1.8-2.3,1.9c-3.3,0.3-6.2,1.9-9.6,1.9
		c-4.6,0-5.3,1.2-4.7,5.7c0.1,0.4,0.1,0.8,0.1,1.2c0.5,7.5,0.5,7.5,8,6.3c3.9-0.6,7.8-1.3,11.4-2.9c3.7-1.6,7.8-0.7,11.6-1.6
		c1.1-0.3,2.8,0.2,3.3,1.6c0.5,1.5-1.1,1.8-1.9,2.6c-9.2,9-19.7,16.4-29.2,25c-1.2,1.1-2,2.1-1,3.7c-6.5-2.4-12-6.7-18.1-10
		C226.9,504.1,225.4,503.2,223.8,502.3z"/>
	<path class="st14" d="M547.8,435.3c-0.2-3.4-2.9-5.1-4.8-7.3c-1.3-1.5-2.4-2.5,0.2-4.1c1.9-1.2,3.3-3.3,4.9-5.1
		c3.6-3.8,7.9-5.4,13.1-4.8C557.5,421.7,553.3,428.9,547.8,435.3z"/>
	<path class="st14" d="M580.5,396.6c3.9,0.4,7.3,1.9,10.6,3.6c0.6,0.3,1.5,0.7,1.1,1.4c-1,2-3.3,2.3-5.1,3.1c-1.5,0.6-2,0-2.4-1.4
		C583.9,400.8,581.9,399,580.5,396.6z"/>
	<path class="st14" d="M594.1,380.2c0.9,5.8,2.5,11.4,2.5,17.3c-2.4-0.9-1.2-3.2-1.7-4.8c-1.1-3.5,0-7.5-1.9-11
		C592.9,381.4,593.7,380.7,594.1,380.2z"/>
	<path class="st14" d="M592.6,373.9c0.4,1.8,0.7,3.6,1.1,5.5C592,377.7,589.8,376.3,592.6,373.9z"/>
	<path class="st32" d="M476.6,609.4c0.4-1.2,1.4-1.5,2.4-1.8c0.8,1.2,0,1.7-0.6,2.1C477.9,610.2,477.3,610.2,476.6,609.4z"/>
	<path class="st6" d="M267.1,522.8c1.7,0.1,3.4,0.4,4.7,1.6C270.1,524.4,268.4,524.3,267.1,522.8z"/>
	<path class="st34" d="M682.3,375.7c-0.1-0.2-0.3-0.6-0.3-0.8c0.1-0.2,0.5-0.3,0.8-0.5c0.1,0.2,0.3,0.4,0.3,0.6
		C683.1,375.4,682.9,375.7,682.3,375.7z"/>
	<path class="st16" d="M423.2,289.5c0.6-2,1.1-4.1,1.9-6c1.6-3.7,0.2-6.1-3.1-7.6c-2.7-1.2-4-2.7-2.3-5.7c2.3-4.1,0.5-8.5-1-12.1
		c-1.2-3-5.5-3.4-8.7-3c-2.4,0.3-4.4,0.1-6.5-0.7c-1.7-0.6-4.3-0.9-1-3.2c1.2-0.8,0.8-2.2-0.4-2.4c-4.1-0.7-4.5-3.8-5-7
		c-0.2-1.2-0.6-2.3-0.7-3.5c0-2.7-1.5-3.4-3.8-3.3c-1.7,0.1-3.4,0-5.1,0c-1.5,0-2.6-0.6-3.1-2c-1.5-3.8-4.1-7.2-4.4-11.5
		c-0.2-2.2-0.3-4,2.7-3.9c1.7,0.1,3-1,4.4-1.6c0.6,0.1,1.2,0.2,1.5,0.9c1.6,2.2,4.4,2.5,6.4,3.9c0.6,0,1.2,0,1.4,0.7
		c4.8,3.8,10.5,5.1,16.3,6c1.9,0.3,3.6,0.4,4.9,2c0.8,1.5,1.4,3,1.6,4.7c-1.1,2.2-3.2,2.7-5.3,2.5c-3.2-0.4-6.3,0.5-9.4,0.6
		c-1.3,0-2.8,0.1-2.9,1.9c-0.1,1.5-0.4,3.5,1.4,4.1c2.6,0.9,4.3,2.9,6.1,4.8c0.9,1,2.3,1.8,3.2,0.1c2.8-4.8,6.8-3.3,10.8-2.2
		c1.1,0.3,2.1,1.2,3.3,0.8c0.4,0.5,0.9,1,1.2,1.5c4.2,6.1,4.1,6.1,11.2,6.3c-3.4,1-6.8,1.9-10.4,2.9c1.3,3.7,3.6,6.5,6.3,8.9
		c2.1,1.9,1.4,2.4-0.6,3.3c-2.4,1-5.1,1.9-4.5,5.4C428,280.2,426.6,285.3,423.2,289.5z"/>
	<path class="st5" d="M530.2,339.4c-4.2,4.6-8.1,9.4-13.4,12.9c-1.2,0.8-2.7,1.2-3.3,2.7c-1.7,4.5-5.9,6.4-9.6,8.9
		c-2,1.4-3.7,0.9-5.2-0.8c-2.9-3.4-5.5-6.9-7.6-10.9c-0.9-1.7-0.7-2.5,1.5-2.7c6.5-0.6,12.9-2.2,19.1-4c2.6-0.8,4.9-2.4,7.5-3.4
		c3.3-1.3,6.8-2.3,10.2-3.5C529.7,338.8,529.9,339.1,530.2,339.4z"/>
	<path class="st16" d="M421.6,292.7c0.5-1.1,1.1-2.1,1.6-3.2C423.1,290.8,423.5,292.3,421.6,292.7z"/>
	<path class="st35" d="M654.8,441.7c5.8,7.2,9.3,15.6,13.2,23.9c6.4,13.5,10.7,27.6,13.8,42.2c0.9,2.7-0.6,4.4-2.8,5.3
		c-14.5,6-29.2,11.2-44.8,13.1c-1.7,0.2-3.9,0.5-4-2.4c4.5-23.7,1.3-46.5-7.5-68.8C634.4,453,645,448.1,654.8,441.7z"/>
	<path class="st36" d="M420,224.7c5.7-5.8,8.2-12,7.3-19.6c-0.3-2.4-0.9-4.6-1.6-6.8c-0.8-2.7-1.8-1.9-2.9-0.1
		c-0.5-2.4-0.2-4.4,2-5.5c2.3-1.1,4.4-0.6,6.4,1.2c8.4,7.4,7.2,20.5-2.6,27.3C426.1,222.9,423.6,224.1,420,224.7z"/>
	<path class="st37" d="M410.7,224.5c-10.7-1.7-16-5.9-17.9-14.1c-1.2-5.1,1-10.4,5.1-13.5c1.5-1.2,3.2-0.7,4.5-0.4
		c1.7,0.3,0.3,1.9,0.2,2.9C401.9,208.7,403.2,217.4,410.7,224.5z"/>
	<path class="st21" d="M417.6,229.6c-6.1-0.2-11.4-3.1-17.2-4.4c-1.8-0.4-3.1-1.8-3.9-3.6c6.4,3.3,13.2,5.2,20.5,5.1
		C417.6,227.6,417.8,228.5,417.6,229.6z"/>
	<path class="st21" d="M395,220.9c-2.4-0.8-5.3-0.9-6.4-3.9C390.9,218,393.1,219.2,395,220.9z"/>
	<path class="st21" d="M426.4,246.9c-0.6,2.1-2,2-3.3,0.9c-1.3-1.1-2.7-0.9-4.2-1.1c-3.2-0.5-4.8,0.1-5.6,3.3
		c-0.6,2.3-2.4,1.5-3.8,0.6c-3-2-4.6-5.6-8.7-6.6c-1.8-0.5-0.8-4.2-0.8-6.4c0-1.5,2.1-1.5,3.5-1.7c5.2-0.8,10.6,0.4,15.7-1.6
		C421.6,238.5,424,242.7,426.4,246.9z"/>
	<path class="st38" d="M325.5,232.8c2.7-3.2,6.9-3.2,10.4-4.7c6.6,0,13.2-1.8,19.9-0.1c2.4,0.6,4.8,1.2,6.9,2.6
		c1.7,1.1,3.5,2.6,2.7,4.7c-0.8,2.1-2.4,3.7-5,3.8c-0.7,0-1.3,0.1-2,0c-3.6-0.7-4.9,1.2-5.4,4.3c-0.2,1.7-0.7,3.3-2.3,4.3
		c-2.3,0.5-2.8-1.4-3.5-2.8c-0.7-1.4-0.8-3-1.4-4.7c-1.5,3.3-1.2,7.6-5.6,8.7c-2-0.4-2.8-2-3.1-3.7c-0.6-3.3-1.9-4.9-5.8-4.5
		c-3.4,0.4-6.5-2.6-6.8-5.4C324.5,234.3,324.6,233.4,325.5,232.8z"/>
	<path class="st39" d="M340.5,248.4c2.9-2.4,3-5.9,3.8-9.2c0.2-0.9-0.2-2.4,1.4-2.3c1.3,0.1,1.6,1.4,1.6,2.4
		c0.2,2.6,0.8,5.2,2.1,7.4c0.2,0.4,0.8,0.6,1.2,0.9c-6.3,10.8-5,19.9,4.2,29c6.5,6.4,13.2,12.5,20.9,17.5c-1,0.7-2,0.7-3,0
		c-6.7-1.3-11-6.2-15.2-10.9c-7.2-8.1-16.9-9.3-23-0.2c-3.2,2.9-6.2,5.9-9.5,8.8c-2.7,2.4-5.8,4-9.6,2.5c0.4-1,1-1.5,2.1-0.9
		c1.6-1.1,3.1-2.1,4.7-3.2c0.1-2.1,1.8-3.1,3.1-4.3c4.6-4.1,9.2-8.3,12.7-13.4c4.8-7.1,5.6-14.7,2.3-22.7
		C340.2,249.3,340.1,248.9,340.5,248.4z"/>
	<path class="st26" d="M333.8,327c-0.1,1.7-0.5,3,0.5,4.3c0.9,1.2-0.1,2.3-1.3,2.6c-1.4,0.3-1.1-1.1-1.3-1.8
		C331.3,330.1,330.7,328.2,333.8,327z"/>
	<path class="st26" d="M361.7,312c-0.9-0.2-1.3-0.8-1.3-1.7c0-0.6,0.5-1,1.1-0.9c0.9,0,1.5,0.5,1.5,1.4
		C362.9,311.6,362.4,312,361.7,312z"/>
	<path class="st26" d="M355.4,317.6c0,0.7-0.1,1.4-1,1.3c-0.7,0-1.1-0.6-1.2-1.3c-0.1-0.7,0.1-1.4,0.8-1.5
		C355.1,316,355.2,316.9,355.4,317.6z"/>
	<path class="st26" d="M337.2,335.3c0.2,0.2,0.6,0.5,0.9,0.8c-0.2,0.2-0.5,0.5-0.7,0.5c-0.3,0-0.7-0.2-0.9-0.5
		C336.2,335.7,336.6,335.4,337.2,335.3z"/>
	<path class="st5" d="M372.8,294.2c1,0,2,0,3,0C374.8,296,373.8,294.9,372.8,294.2z"/>
	<path class="st5" d="M219.9,289.5c1.2-1.6,2.7-2.6,5.6-3.2C223.4,288.3,221.7,289.1,219.9,289.5L219.9,289.5z"/>
	<path class="st5" d="M215.9,291.9c-0.9,1.5-2.3,2.1-3.9,2.4l0,0C212.8,292.7,214.3,292.1,215.9,291.9L215.9,291.9z"/>
	<path class="st5" d="M212,294.2c-0.6,1.3-1.7,1.8-3.3,2.1C209.3,294.7,210.7,294.5,212,294.2C212,294.2,212,294.2,212,294.2z"/>
	<path class="st5" d="M219.8,289.5c-0.9,1.5-2.3,2.1-3.9,2.4c0,0,0,0,0,0C216.8,290.3,218.2,289.8,219.8,289.5
		C219.9,289.5,219.8,289.5,219.8,289.5z"/>
	<path class="st40" d="M290,195.7c5.6-0.7,8.4,3.1,10.6,7.2c2.5,4.7,1.1,9.6-2,13.6c-3.6,4.7-8.6,7.3-15.3,8.4
		C292.3,216.2,293.7,206.5,290,195.7L290,195.7z"/>
	<path class="st40" d="M290,195.7c-1.2-0.1-0.9,1.4-2,1.8c-0.5-1.1-0.6-2.2,0.6-2.9C289.4,194.1,289.9,194.9,290,195.7
		C290,195.7,290,195.7,290,195.7z"/>
	<path class="st6" d="M210.7,401.2c-1.3-0.6-2.3-0.2-3.4,0.4c-1.8,1.1-3.9,0.9-5.7,0.5c-2.5-0.5-4.3-2-3.2-5.1
		c0.9-2.7,1.7-5.5,2.5-8.2c1-3.6,3.4-4.4,6.6-3.6c4.5,1.1,8.9,2.6,12.5,5.7c0.4,0.3,0.9,0.6,1.1,1c0.6,1.3-4.1,9.4-5.5,9.1
		C213.9,400.6,212.3,401.6,210.7,401.2z"/>
	<path class="st14" d="M461.9,423.9c-6.4-1.6-13.2-0.4-19.3-3.6c-1.2-0.6-1.8-1.3-2-2.6c-0.1-1.2-0.3-2.4-0.7-3.4
		c-2.3-4.9-2.3-4.8,3.1-5.8c4.6-0.8,9.2-2,13.8-2.9c3.6-0.7,5.4,0.8,5,4.4c-0.2,2.4-0.1,5-2.2,6.9c-1.1,1-0.8,2.1,0.1,3.1
		c0.9,1,1.7,1.9,2.6,2.9C462.1,423.3,462,423.6,461.9,423.9z"/>
	<path class="st14" d="M507.4,420.1c-0.6-1.1-0.4-1.7,0-2.3c0.6-0.9,2.1-1.7,1-3c-1-1.1-2.5-1.5-4-1.2c-2,0.5-4,1.2-6.1,1.7
		c-3.7,0.9-7,0.1-9.5-3c-1.1-1.4-1.4-2.9-0.6-4.4c0.8-1.4,2-1.6,3.7-1.4c3.5,0.4,6.9-1.1,10.3-1.7c4.6-0.7,8.3,2.1,8.4,6.8
		C510.8,414.8,511.3,418.2,507.4,420.1z"/>
	<path class="st14" d="M470.9,437.8c-0.2,1.1-1,1.4-2,1.3c-0.7,0-1.4-0.3-1.1-1.2c0.3-0.9,0.9-1.6,2-1.5
		C470.5,436.5,470.9,437,470.9,437.8z"/>
	<path class="st14" d="M537,422.9c-0.8-0.3-1-1-0.7-1.6c0.4-0.9,0.2-2.3,1.7-2.2c0.9,0,0.8,0.9,0.6,1.5
		C538.2,421.4,538.4,422.7,537,422.9z"/>
	<path class="st21" d="M340.5,248.4c5.6,4,2.8,9.8,2.8,14.8c-0.1,4.5-2.2,8.4-5.3,11.9c-4.8,5.5-9.8,10.8-15.7,15.2
		c-1.7-0.2-3.9,0.6-4.6-1.9c-0.6-2.4,0.4-4,2.5-5.1c1.6-0.9,3.2-1.8,4.6-3c2.2-1.9,3.9-4,2-7.1c-1-1.6-0.1-2.8,1.1-3.7
		c2.9-2.3,1.9-5.3,1.2-7.9c-0.6-2.2-5.7-2.8-8-0.9c-1.8,1.5-3.8,2.7-5.3,4.6c-1.3,1.6-2.8,2.4-4.1-0.5c-1.3-3-4.4-5.2-3.9-9.1
		c0.1-0.5-0.8-1.4-1.4-1.8c-3-1.7-8.9,1.5-9,5c-0.1,2.5-1.1,4.2-3.7,4.9c-1.4,0.4-3.3,0.9-1.8,3.2c0.4,0.6,0.4,1.4-0.4,1.6
		c-0.8,0.2-1.3-0.5-1.4-1.1c-0.4-2.7-1.7-3.2-4.4-2.8c-3.2,0.5-5.6-2.5-5.1-5.7c0.8-5.1,6.9-9,12.7-7.7c3.9,0.9,7.8,0.1,11.7,0.7
		c2,0.3,3.3-1.3,2.9-3.3c-0.6-3.2,2-6.7-1.1-9.6c-0.7-0.7,0.2-1.8,1.1-2.2c4.5-2.1,8.4-5.4,13.4-6.3c2-0.3,3.7-0.3,4.1,2.2
		c0.4,5.2,3.3,7.6,8.3,6.2c2.6-0.7,3.2,0.3,3.8,2.4C338.4,243.8,338,246.7,340.5,248.4z"/>
	<path class="st21" d="M317.6,293.5c-0.6,0.5-1.2,1.2-2.1,0.9c-0.9-0.3-1.9-0.5-1.5-1.7c0.3-0.9,1.2-1.3,2.1-1.3
		C317.6,291.3,317.5,292.5,317.6,293.5z"/>
	<path class="st21" d="M299.9,282.7c0.7,0.1,1.1,0.6,1.1,1.3c0,0.8-0.2,1.7-1.1,1.7c-0.9,0-1.1-0.9-1.1-1.7
		C298.8,283.3,299.1,282.8,299.9,282.7z"/>
	<path class="st13" d="M304.1,653.7c-0.3-0.3-0.5-0.5-0.8-0.8c0.3-1.1,0.3-2.4,1.6-2.7c0.4-0.1,1.3,0.4,1.5,0.9
		C307.7,653.6,305.3,653.1,304.1,653.7z"/>
	<path class="st41" d="M591.3,648.2c-1.7-2.4-4.4-2.6-6.9-3.1c-1.9-0.4-3.9-0.5-5.8-0.8c-6.1-0.9-6.2-1.1-2.6-5.7
		c10.9-13.8,19.8-28.9,28.6-44c0.8-1.4,1.5-3.1,3-4c4.7-3.6,10.6-3.5,16-4.5c11.8-2.3,23.8-3.8,35.6-6.4c7.1-1.5,14-3.5,20.7-6.1
		c1.8-0.7,3.6-1.9,5.5-0.2c-3.3,32.3-13.5,61.8-33.9,87.4c-2.8,3.6-5.7,7.2-9.2,10.2c-2.2,0.9-4.1-0.2-6-1
		c-12.4-5.2-24-12.1-36.4-17.4C597,651.3,593.6,650.9,591.3,648.2z"/>
	<path class="st42" d="M685.5,573.4c-12.8,5.1-26.1,8.2-39.6,10.6c-12.7,2.3-25.4,4.4-38.2,6.5c11-21,17.7-43.6,22.6-66.7
		c2.5,3,5.6,0.7,8,0.3c14.1-2.5,27.6-7,40.8-12.6c1.7-0.7,3-1.7,2.8-3.7c2.1,7,2.9,14.2,3.6,21.4c0.7,7.5,1.1,15,1.7,22.5
		c0.3,3.8,0.1,7.5-0.7,11.3C686.4,566.5,686.2,570,685.5,573.4z"/>
	<path class="st43" d="M591.3,648.2c5.6,0.9,10.6,3.7,15.6,6c11.8,5.5,23.2,12.1,35.4,16.8c-6.9,9.1-15.5,16.3-24.9,22.5
		c-12.2,8.1-25,15.3-39.2,19.4c-1.3,0.4-2.5,0.6-3.8,0.9c5.9-13,10.5-26.4,13.2-40.5C589.2,665,589.9,656.5,591.3,648.2z"/>
	<path class="st44" d="M519.4,632.4c8.3,1.9,16.6,0.9,24.7-1.4c5.6-1.5,11.3-1.5,16.8-3.1c1.5-0.4,2.4,0.8,3.5,1.3
		c-2.1,3.2-4.3,6.3-6.4,9.5c-0.8,3.4-3.4,5.6-5.6,7.8c-5.2,5.3-10.1,11-15.1,16.6c-8.8,9.8-19.2,17.8-30,25.3
		c-1.1,0.7-2.2,1.5-3.6,0.7c4.4-17.7,8.7-35.4,14.1-52.8C518.2,634.9,518.8,633.7,519.4,632.4z"/>
	<path class="st33" d="M503.7,689.1c12.6-8.5,24.6-17.6,34.5-29.2c6.2-7.3,13.1-14.1,19.8-21.2c4,1.3,7.9,2.8,11.9,3.9
		c2.6,0.7,2.4,2.2,1.1,3.7c-3.7,4.7-7.2,9.6-11.4,13.9C548.9,671,538.1,681.7,527,692c-7.6,7-16.2,12.7-25.5,17.4
		c-1,0.5-2.2,0.7-3.3,1C499.7,703.3,500.7,695.9,503.7,689.1z"/>
	<path class="st14" d="M336.1,509c-1.1-0.8-1.9-1.4-2.8-2c-1-0.6-1.5-1.4-1.3-2.6c0.1-0.6,0.5-1,1.1-0.9c1.1,0.2,2.1,0.7,2.5,1.7
		C335.8,506.3,336.6,507.3,336.1,509z"/>
	<path class="st14" d="M331.4,518.1c0.8,0,1.6,0.1,1.7,1.1c0.1,0.7-0.5,1.1-1.2,1.1c-0.9,0-1.5-0.4-1.7-1.2
		C330,518.2,330.7,518.1,331.4,518.1z"/>
	<path class="st14" d="M250.5,460.7c-0.1,0.6,0.2,2.9-1.3,2.3c-1.7-0.7-1.5-3.5-2.3-5.2c-0.3-0.6,0.4-1.5,1-1.3
		C249.6,456.9,250.8,458,250.5,460.7z"/>
</g>
</svg>
