<?xml version="1.0" encoding="utf-8"?>
<!-- Generator: Adobe Illustrator 27.4.0, SVG Export Plug-In . SVG Version: 6.00 Build 0)  -->
<svg version="1.1" id="Layer_1" xmlns="http://www.w3.org/2000/svg" xmlns:xlink="http://www.w3.org/1999/xlink" x="0px" y="0px"
	 viewBox="0 0 720 720" style="enable-background:new 0 0 720 720;" xml:space="preserve">
<style type="text/css">
	.st0{fill:#FC70FC;}
	.st1{fill:#EBE1CA;}
	.st2{fill:#EDE4CD;}
	.st3{fill:#141A25;}
	.st4{fill:#171D2A;}
	.st5{fill:#152E3D;}
	.st6{fill:#ED9A6F;}
	.st7{fill:#F79E6E;}
	.st8{fill:#1E3140;}
	.st9{fill:#204E5A;}
	.st10{fill:#FBC092;}
	.st11{fill:#F09A6F;}
	.st12{fill:#22555E;}
	.st13{fill:#173444;}
	.st14{fill:#FBB88B;}
	.st15{fill:#E7D8B7;}
	.st16{fill:#D7D2B8;}
	.st17{fill:#1C3E4C;}
	.st18{fill:#327A78;}
	.st19{fill:#245C62;}
	.st20{fill:#307877;}
	.st21{fill:#E6DAB9;}
	.st22{fill:#FAEEDA;}
	.st23{fill:#F8EBD5;}
	.st24{fill:#52898C;}
	.st25{fill:#62B8A5;}
	.st26{fill:#F8E9CC;}
	.st27{fill:#C2D2BA;}
	.st28{fill:#4B5E68;}
	.st29{fill:#4FA493;}
	.st30{fill:#9F9B2E;}
	.st31{fill:#FA6D72;}
	.st32{fill:#FA9B95;}
	.st33{fill:#EE5F6A;}
	.st34{fill:#F1706E;}
	.st35{fill:#3E9B84;}
	.st36{fill:#54A18D;}
	.st37{fill:#FDAE9A;}
	.st38{fill:#1B1211;}
	.st39{fill:#1B1515;}
	.st40{fill:#85624A;}
	.st41{fill:#8E6649;}
	.st42{fill:#327A7B;}
</style>
<rect x="0" y="0" class="st0" width="720" height="720"/>
<g>
	<path class="st1" d="M359,866.6c-7.5,2.2-15,3.1-23,2.9c-4.9-0.1-9.9-0.8-14.9-0.6c-4.2,0.2-8.4-0.5-12.7-1.6
		c-3.3-0.8-7.9,0.8-11.9-0.9c-0.6-0.2-1.5,0.3-2.2,0.4c-4.3,1-6.8-1.9-9.6-4.2c-6.8-6.8-7.6-14.9-4.9-23.7c3.7-10,11-15.8,21.2-18.2
		c20.4-6.3,39.4-4,56.6,9.3c3.1,2.4,5.7,5.1,7.5,8.6c3.2,6.7,4.1,13.6,1.5,20.7C364.7,862.3,363.3,865.9,359,866.6z"/>
	<path class="st2" d="M492,863.1c-8,4.9-16.7,6.1-25.9,5.9c-11.3-0.3-22.7,0-34-1c-4.8-0.4-8.7-2.6-12.9-4.6c-3.1,0.2-4.5-1.9-6-4.1
		c-2.6-6.1-2-12.1,0-18.2c9-16.3,28.4-25.3,48.9-22.4c6.5,0.9,13,2.1,18.8,5.4c7,3.6,13.8,7.4,17.3,15c3,10.3,0.9,18.6-5.9,24
		L492,863.1z"/>
	<path class="st3" d="M98.4,625.7c0-10.2-0.2-20.4-0.8-30.5c-0.7-14.8,1.5-29.5,3.6-44.2c0.8-5.7,1.3-11.4,3.1-16.9
		c7,1.1,12.4,5.6,18.5,8.6c10.7,5.2,21.8,9.4,33,13.2c12.4,4.5,25,8.6,37.8,12.2c8.1,2.3,16.4,3.7,24.6,5.9c2,0.5,4.2,0.7,5.7,2.4
		c0.6,0.7,1,1.6,1.1,2.5c1.1,3.7-0.7,6.4-3.2,8.7c-4.7,4.6-6.6,10.3-6.9,16.7c-0.2,3.3-0.9,6.5-1.3,9.7c-0.8,5.8-2.9,11.7,1,17.3
		c0.7,0.9,0.9,2.3,0.6,3.4c-1.8,5.8-1.6,11.3,1.3,16.8c1.3,2.4-1.1,3.3-3,3.8c-18.2-0.9-36-4.2-53.8-7.9
		c-15.5-2.1-30.6-5.9-45.7-9.9c-4.5-1.2-9.8-0.9-13.4-4.8C99.9,630.3,99.1,628,98.4,625.7z"/>
	<path class="st4" d="M152.5,764.2c-2.5-0.6-3.7-2.6-5.1-4.5c-16.4-22-28.1-46.2-35-72.7c5.1-3.5,10.6-1.4,15.6-0.6
		c10.9,1.8,21.8,2.4,32.7,3.3c10.5,0.5,20.9,2.3,31.3,3.1c2.6,0.7,5.3,0.4,7.9,0.5c1,0.1,1.8,0.4,2.6,1.1c0.3,0.3,0.6,0.9,0.4,1
		c-5.8,4.2-2.1,8.4-0.1,12.8c3.4,7.7,6.5,15.6,9.7,23.4c2.8,6.8,8.2,12.9,15.3,16.6c8.1,4.2,8.5,8,0.6,13.5
		c5.6,0.2,10.7,0.7,15.7,1.1c2.2,0.2,4.9,0.7,4.8,3.1c0,2.8-3,2.4-5,2.5c-4.2,0.2-8.5-0.2-12.7,0.5c-19.1,0.6-38.1-1.5-57.1-3.1
		c-4.6-0.4-9.3-0.1-13.9-0.3C157.6,765.7,154.8,766,152.5,764.2z"/>
	<path class="st5" d="M219.8,823.9c-1.8-0.9-3.6-1.8-5.4-2.7c-12.1-8.7-25-16.4-36.1-26.5c-2.8-2.6-6.1-4.6-8.1-8
		c1.5-3.4,4.6-3.3,7.4-3c22.7,2.3,45.4,2,68.2,1.8c7.7-0.1,15.4,1.4,23.1,1.3c8.2,1,16.5,0.3,24.7,0.5c7.8,0.2,8.9,1.6,11.1,8.8
		c2.6,8.9,0.1,15-7.9,18.8c0.2,3.5,6.1,3.1,4.3,7.4c-9.2,2.4-16,7.8-19.9,16.6c-1.8,1.9-4.1,1.9-6.4,1.9c-17.9-0.3-35-4.1-50.7-13.1
		C222.3,826.7,220.9,825.5,219.8,823.9z"/>
	<path class="st6" d="M269.7,788.8c-18.8-0.3-37.7-0.7-56.5-1c-11.9-0.2-23.8-1-35.6-2.1c-2.5-0.2-5-0.1-7.3,1
		c-6.8-5.2-12.1-11.7-17.1-18.4c-0.7-0.9-3.3-2.4-0.6-4.1c14.5-1.7,28.8,0.2,43.2,1.4c12.3,1,24.6,1.6,36.9,1.5
		c6.3,0.4,12.6,1.4,18.8-0.8c1.3-0.5,2.7-0.5,4-0.4c21.8,0.7,43.5-1.2,65.2-1.2c3.4,0,7-0.2,10.1,1.6c4.5,6.8,8.3,13.8,8.3,22.2
		c-0.6,0.4-1.2,0.7-1.9,0.9c-12.5,0.5-24.9,1.2-37.4-0.7C289.9,787.4,279.7,788,269.7,788.8z"/>
	<path class="st7" d="M161,691.4c-14.5,1.1-28.6-2.7-42.9-3.9c-1.9-0.2-3.8-0.3-5.7-0.5c-5-9.8-7.2-20.6-9.2-31.3
		c-1.5-7.6-3-15.4-2.6-23.2c10.8,2.5,21.5,5.1,32.3,7.5c8.9,2,17.9,3.7,26.9,5.5c1.7,1.6,1.9,3.7,1.9,5.8c0,11.8-2.3,23.6,0.7,35.4
		C162.9,688.4,162.4,690.1,161,691.4z"/>
	<path class="st8" d="M653.6,583.8c-1.3,13.7-2.5,27.4-2.5,41.2c0.7,3.5-0.6,6-3.7,7.6c-35.8,8.5-71.7,17.1-108.3,21.2
		c-14.9,1.7-29.7,4.5-44.8,4.9c-3.8-0.7-4.6-3.3-3.8-6.5c2-8.1-0.6-16.1-0.1-24.1c0.1-0.9,0-2.1-0.5-2.8c-5.2-6-1.3-11.6,0.9-17.1
		c2.3-5.5,4.2-10.6,2.2-17.1c-0.8-2.4-3.2-4.9-2.5-7.9c3.3-1.9,7-2.1,10.6-2.4c26-1.9,51.6-6,76.8-12.2c2.6-0.6,5.2-1.3,8-1
		c2.5,0.7,5.2,1.8,5.1,4.7c-0.1,3.2-3.2,4.5-5.7,4.9c-7.2,1.2-12.9,5.7-20.4,7.5c3.2,1.1,5.3-0.3,7.5-0.6c2.2-0.3,4.3-0.3,5.7,1.8
		c1.3,1.8,0.8,3.6-0.2,5.4c-0.3,0.5-0.5,1.1-0.8,1.5c-1.1,1.5-1,4.5-4.2,3.4c0.7,1.8,3.3,1.2,3.9,3.3c0.9,3.8,0.7,7.7,0.9,11.5
		c0.1,2.9-0.2,5.9,4.1,8.8c-3.7-5-1.1-6.7,1.8-8.7c3.4-2.3,7-4.2,11-4.8c3.5-0.6,4.9-2.7,5.2-6c0.5-6.7-0.5-13.3-0.4-20
		c0-0.9-0.3-0.4-0.6-0.6c-6.3-4.3-6.7-8.7-1.6-14.5c12.6-4.7,25.9-7.1,38.4-11.8c3.8-1.4,7.4-3.1,11.3-4.3c2.3-0.8,4.8-2,6.8,0.8
		c1.7,9.7,1.8,19.5,2.1,29.2C655.6,580.9,655.1,582.6,653.6,583.8z"/>
	<path class="st9" d="M619.8,726.4c-7.3,12.5-13.8,25.4-23,36.8c-0.8,1-1.8,2-2.7,2.9c-7.5,3.2-15.6,2.9-23.3,2.7
		c-9.6-0.3-19.2,0.1-28.8,0.3c-28,0.5-55.9,0.3-83.9,0.1c-7.7-0.8-15.4-0.8-23.1,0.1c-1,0.1-2-0.1-2.9-0.6c-0.8-0.7-1.2-1.7-0.9-2.6
		c3.5-9.6,3.4-20.2,8.2-29.4c0.5-1,1-2.1,1.7-3c1.2-1.6,2.5-3.1,4.7-2.8c2.1,0.4,3.5,2,3.8,4c0.7,5.7,3.1,8.4,9.5,7.7
		c4.5-0.5,6.5,3.5,5.1,8.1c-0.7,2.5-3,4-3.9,6.3c7.4,2.5,8.9,1.3,12.1-5.4c7-14.4,9.8-30,13.7-45.3c1.7-6.8,4.5-11.2,11.9-11.6
		c17.8-1.5,35.7-2.2,53.6-2.7c23.1-0.7,46.1-2.6,69-5.2c4.5-0.5,9.2-2,13.3,1.5c-1.8,6-3.7,12-5.5,18
		C628.2,714.1,625,720.7,619.8,726.4z"/>
	<path class="st10" d="M647.7,631.3c0.7,7.3-1.6,14.3-3.1,21.3c-1.5,7.1-3.1,14.2-5.2,21.1c-1,3.2,0.4,4,2.6,5
		c-5.8,0.5-4.2,7.3-8,9.5c-9.5-0.7-18.7,1.7-28.1,2.4c-19.8,1.6-39.6,3.1-59.5,3.9c-16.5,0.6-33,1.4-49.5,2.1
		c-19.5,4.5-39.4,2.2-59.1,3.1c-3.2,0.1-6.6,0.4-9.4-1.8c-0.7-0.7-1.3-1.6-1.3-2.5c-0.6-9.2-1.6-18.4-1.5-27.6
		c0-1.4,0.5-2.6,1.3-3.8c3.3-2.9,7.5-2.9,11.4-3.2c15-0.9,29.8-3.1,44.7-4.6c3.7-0.4,7.1,1.3,10.7,0.9c10.3-1.2,20.6-2.3,30.9-3.6
		c14.1-1.8,28.3-3.2,42.2-5.8c22-4.1,44.1-7.6,65.7-13.9C637.3,632.3,642.5,631.2,647.7,631.3z"/>
	<path class="st11" d="M579.3,786.6c-0.8,0.9-1.6,1.8-2.4,2.7c-12.5,1-24.9,2-37.5,2.3c-14.4-1.8-28.9-0.8-43.3-0.6
		c-16.2,0.2-32.4,1.1-48.5-0.6c-6.7-0.7-13.5,0.8-20.1-1.2c-0.6-0.3-1.2-0.7-1.6-1.3c-0.8-7.5,1.5-14,6.4-19.6
		c0.8-0.1,1.6-0.3,2.3-0.4c7.8-0.9,15.6,0.4,23.3-0.7c28.7-0.1,57.4,0.3,86.1-0.6c16.7-0.5,33.5,0.4,50.2-0.4
		C589.2,773,584.3,779.8,579.3,786.6z"/>
	<path class="st12" d="M426.4,787.8c35.5,1.1,71.1,1.8,106.6,1.5c2.4,0,5-0.7,7.3,0.7c-1.9,2.6-4.8,2.2-7.4,2.2
		c-8.8,0.1-17.7,0.1-26.5,0c-3.6-0.1-5,0.8-6,4.8c-2.3,10-8.2,18.5-13.3,27.2c-1.4,2.4-4,1.9-6.3,1.6c-11.3-4.6-22.9-6.5-35-4.7
		c-13.3,2-23.6,8.6-30.7,20c-2.2,0.8-4.4,1.2-6.8,1.2c-12,0-23.9,0-35.9,0c-3.3,0-6.6-0.2-8.8-3.3c-14.9-18.4-34.5-22-56.5-18.2
		c-2.1,0.4-4.1,1-6.1,1.5c-0.7-2.9-3.4-2.8-5.4-3.6c-1.8-0.8-2.8-1.9-2.6-4c0.2-2,1.6-2.2,3.2-2.5c6.1-1.4,8.9-6.5,6.9-12.3
		c-0.1-0.4-0.3-0.7-0.4-1.1c-2.9-9.8-2.9-9.8-13.5-9.8c-6.5,0-13-0.1-19.6-0.2c7.2-1.6,14.6-0.7,21.9-0.8
		c15.6-0.2,31.2-0.1,46.8-0.1c3.3,2.2,4.3,5.9,5.5,9.3c2.2,6,6.3,9.1,12.6,9.3c17.4,0.4,34.7,0.4,52.1,0c6.9-0.1,11.1-3.2,12.7-10.1
		C422.1,793.1,422.5,789.3,426.4,787.8z"/>
	<path class="st13" d="M480.9,825.8c6.3-0.9,7.1-6.8,9.6-11c2.2-3.8,3.5-8,6.2-11.6c2.5-3.4,3.7-7.6,0.2-13.2c15.2,0,29.3,0,43.5,0
		c10.9-1.3,21.8-1.6,32.8-1.8c1.5,0,2.6,0.5,3.7,1.2c-15.6,18.6-35,32.3-56.4,43.5c-5.5,2.9-11.4,4.6-17.7,4.9
		c-2.1,0.1-4.3,0.2-6,1.7C493.1,833.1,487.1,829.3,480.9,825.8z"/>
	<path class="st14" d="M107.7,514.4c1.9-2,0.9-4.9,2-7.1c-0.2-1.5-1.1-3.2,0.6-4.5c2.5-9,5-17.9,7.5-26.9c-0.9-3.5,1-6.2,2.4-9.1
		c0.4-2.5,1.2-4.8,2.6-6.9c1.5-0.7,2.7,0.1,3.7,0.9c11,8.9,23.7,15.2,35.9,22.3c2.9,1.7,6.5,2.8,7.6,6.6c-1.1,9.4-2.7,18.7-5.2,27.8
		c-2.8,10.4-4.8,21.1-6.4,31.8c-0.4,2.8-0.6,5.8-3.3,7.7c-8.1-1.5-15.9-4.6-23-8.1c-9.4-4.6-19.3-8.6-27.7-15
		C105.5,527.4,106.6,520.9,107.7,514.4z"/>
	<path class="st15" d="M427.4,664c-0.1,11.2,2.1,22.3,1.2,33.5c-1,1.3-2.5,2-4,2c-11-0.3-21.9,1.9-32.8,0.7
		c-11.3-1.2-22.7-0.2-34-0.2c-24.2-0.1-48.5-0.4-72.7-0.2c-7.3,0.1-14.6-0.1-21.9-0.3c-18.6-0.6-37.3-0.2-55.9-2.2
		c-1.7-0.2-3.5-0.5-4.7-1.9c-0.7-0.1-1.3-0.3-2-0.4c-2.8-0.5-5.7-0.6-8.5,0.1c-10.4-1.2-20.7-2.4-31.1-3.5
		c-0.4-7.4-3.1-14.5-2.4-22.1c0.8-7.9,0.8-15.8,1.2-23.8c18.1,2.9,36,6.9,54.3,8.1c14.3-1.1,28,3.1,42.1,4.1
		c5.2,0.4,10.3,1.2,15.5,0.9c13.6,1.5,27.2,2.4,40.9,3.1c27,1.3,53.9,1,80.9,1c7.3,0,14.6,0.1,21.9-0.8
		C419.4,661.4,423.9,660.5,427.4,664z"/>
	<path class="st16" d="M155.1,557.1c2.4-18.3,6.9-36.2,10.9-54.1c1-4.6,0.7-9.6,2.9-14c2.5-1.7,4.9-0.3,7,0.7
		c20.8,9.8,42.8,15.8,64.8,22c2.3,0.7,5.1,0.6,6.4,3.3c-0.2,14.4,0.5,28.9-5.6,42.6c-1.8,4.1-2.6,8.5-2.5,13c0,3.2-0.9,6.1-3.6,8.1
		c-1.5,0.8-3.1,1-4.7,0.7c-2.4-0.8-5.1-0.7-7.2-2.4c-13.9-3.4-27.8-6.2-41.4-10.6C173,563.6,163.8,561.2,155.1,557.1z"/>
	<path class="st17" d="M230.6,577.9c1.5,0.1,3,0.2,4.5,0.3c5.8-1.5,11.1-0.3,16.2,2.7c1,5-2.6,5.1-5.9,5.4c-4.4,0.4-8.3,4.3-7.7,8.6
		c0.6,4,1.4,8.1,4.4,11.1c5.6,5.5,8.3,12.6,9.8,19.9c2,10.3,9.3,18.1,12.4,27.8c0.5,1.6,2.2,2,3.6,2.7c1.7,0.8,3.8,1.3,3.2,4
		c-19.2-0.7-38.2-2.8-56.9-6.8c0.8-0.4,2.2-0.6,1.2-1.9c-4.1-5-4.5-10.3-1.9-16.1c0.5-1.1,0.9-2.3,0.1-3.3c-6-6.9-1.9-14.3-1.1-21.5
		c0.3-2.1,0.6-4.2,0.7-6.3c0.4-7.1,2.1-13.7,7.8-18.6c2.1-1.8,3.8-3.8,2.8-6.9C225.7,577.4,228.1,577.1,230.6,577.9z"/>
	<path class="st18" d="M230.6,577.9c-2.3,0.4-4.6,0.8-6.9,1.2c0-0.7-0.1-1.3-0.1-2C225.9,577.3,228.4,576.4,230.6,577.9z"/>
	<path class="st19" d="M202.6,695.3c20.1,0.8,40.3,1.6,60.4,2.3c3.4,0.9,4.6,3.2,5.5,6.5c2,7.4,4.6,14.7,6.2,22.2
		c1.4,6.7,7.5,7.8,12.4,10c2.1,1,3.6-1.2,4.3-3c2.5-6.6,7.8-7.4,13.7-6.4c2.8,0.5,4.9,0.7,6.9-2.2c2.1-3,5.4-2,7.7,2
		c2.5,4.4,4.1,9.1,6.1,13.7c3,7.1,6.2,14.1,7.1,21.9c0.3,2.3,1.2,4.6-1.7,6c-2.2-1.9-4.8-1.3-7.2-1.2c-27.4,0.1-54.8,1.4-82.2,0.6
		c-3.1-0.1-6.2,0.5-9.2-0.7c5.1,0,10.1,0,15.2,0c0-0.7,0.1-1.3,0.1-2c-5.3-0.4-10.7-0.8-16-1.1c-1.3-0.1-2.7,0.5-3.9,0.3
		c-1.5-0.3-3-1-3.1-2.9c-0.1-2.1,1.4-2.5,3.1-2.5c2.2-0.1,4.4-0.3,4.7-3.1c0.2-2.7-1.7-3.9-3.9-5c-9.8-5-16.5-12.2-19.7-23.3
		c-2.4-8.4-6.6-16.4-11.2-23.9c-2.7-4.4-2.1-5.6,2.4-6.6C201.1,696.7,201.8,695.8,202.6,695.3z"/>
	<path class="st19" d="M192.1,695c2.8-0.9,5.7-1.2,8.5-0.1C197.7,695.5,194.9,695.5,192.1,695z"/>
	<path class="st20" d="M331.2,768.4c1.3-5-0.6-9.9-2-14.3c-2.9-8.9-7.1-17.4-10.7-26.1c-0.8-1.9-1.8-3.7-4-3.6
		c-2.2,0.1-1.7,2.2-1.8,3.6c-0.1,2.7-1.5,2.7-3.5,2c-1.6-0.6-3.3-1.2-5-1.5c-5.6-1-8.3,0.4-10.5,5.3c-2.6,5.8-4.7,6.3-10.4,2.7
		c-2.2-1.4-5.1-0.9-7.2-3.1c-3.7-4-4.4-9-5-13.8c-0.7-6.6-5.7-11.8-5.3-18.7c0.1-1-1.9-2.2-3-3.3c18.7-0.1,37.4,0,56.1,0.1
		c10.9,0.1,21.9,0.4,32.8,0.2c14.2-0.3,28.4-0.3,42.6,0.3c11.3,0.5,22.7-0.5,34.1-0.8c12.2,0,24.5-0.4,36.7-0.6
		c10.5-0.2,21-0.1,31.5-0.3c-5.5,0.3-7,3.7-8.3,8.6c-4.4,17-8.1,34.3-15.4,50.5c-1.3,2.9-2.5,4.6-5.8,4.3c-1-0.1-1.9,0.1-2.9,0
		c-2.8-0.4-6.7,1.5-8-1.3c-1.2-2.6,2.9-3.8,4.5-5.8c1.7-2.1,3.1-4.7,1.6-7.4c-1.4-2.5-4-1.9-6.2-1.1c-5.1,1.9-7.1-0.9-7.9-5.3
		c-0.2-0.9-0.2-1.9-0.2-2.9c0-1.9-0.6-3.7-2.4-4.2c-2.2-0.6-2.9,1.5-3.6,3c-2.3,5.6-5.3,11.1-5.6,17.4c-0.3,5.6-2.6,10.7-4.5,15.8
		c-2,6.2-3.9,12.3-5.9,18.5c-2.5,2.3-5.7,2.2-8.7,2.2c-24.4,0.1-48.8-0.1-73.3,0.4c-1.8,0-3.5-0.1-4.7-1.6
		C335.1,782,333.6,775,331.2,768.4z"/>
	<path class="st21" d="M339.6,787.7c28.9-0.9,57.8-1.2,86.7-0.9c0,0.3,0.1,0.7,0.1,1c-1.9,5.2-3.8,10.4-5.6,15.7
		c-0.9,2.8-2.5,4-5.4,4.2c-19.8,1.8-39.6,1-59.5,0.9c-6.5,0-11.8-2.8-13.8-9.9c-1-3.7-2.6-7.2-3.9-10.7
		C338.8,787.8,339.2,787.7,339.6,787.7z"/>
	<path class="st22" d="M446.2,150.5c3.4-2.1,7.2-1.3,10.7-0.7c4.4,0.7,8.8,0.6,13.3,0.7c2.1,0.1,3.6-0.6,5.1-2.1
		c17.7-16.6,34.4-34.3,51.1-51.9c6.5-6.8,13.1-13.6,20-20c6.7-6.3,9.3-5.4,11,3.3c6.1,32.4,6.8,65,4.9,97.8
		c-0.5,8.2-0.7,16.5-1.3,24.7c-0.5,7,4.2,13.4,6.2,20.2c0.5,1.8,1.2,3.6,1.8,5.5c1,4.2-1.5,2.9-3.4,2c-5.6-2.5-8.8-1.1-9.6,4.9
		c-0.6,4.8-1.7,9.6-1.3,14.4c0.7,7.9,1.4,15.9,7.2,22.2c0.5,0.6,0.9,1.2,1.2,2c5.3,16.1,10.7,32.2,8.4,49.6
		c-0.4,2.9-0.4,5.3,2.2,7.3c1.2,0.9,2.3,2.3,1.3,4c-0.9,1.5-2.5,1.9-4.1,1.7c-9.1-1.3-18.4-1.2-27.5-2.7
		c-15.4-2.6-30.9-3.6-46.5-4.5c-8.8-0.5-17.6-2.3-24.3-1.4c14.7,0.6,31.5,1.5,48.3,3.4c2.9,0.3,5.9-0.3,8.7,0.4
		c2.1,0.5,6.1-0.9,5.2,4c-0.3,1.7,2,1.5,3.1,1.8c4.9,1.3,9.7,2.4,14.8,2.5c3.7,0.1,7.3,0.7,10.8,2c2.2,0.9,4.4,2.2,3.7,5.1
		c-0.6,2.4-2.9,2.8-5.2,2.8c-4.5,0-9-0.6-13.1-1.9c-12.4-4-25.3-4.9-38-6.9c-13.6-2.1-27.3-3.9-41-5.8c22.4,3.3,44.9,6.3,67.3,9.6
		c0.8,0.1,1.6,0.2,2.2,0.6c1.5,0.9,4.6-0.7,4.5,2.4c-0.1,2.4-2.7,2.3-4.9,3.1c2.8,1.4,5.8,1.9,8,3.8c1.2,1,2.3,2.3,1.6,4
		c-0.7,1.7-2.3,2-3.9,1.8c-3.3-0.4-6.4-1.3-9.6-2.2c-21.5-6-43.4-10.3-65.3-14.9c-0.8-0.2-1.7-0.1-2.2-0.6c-4.3-3.3-4,2.1-5.5,3.3
		c-1.3,1,1.1,1.8,2.3,2.1c2.4,0.7,5.4,0.6,5.6,3.9c0.1,3-2.7,4.2-4.9,5.1c-4.6,2-6.5,4.8-6.8,10.1c-0.4,8.8-9.4,19-18,20.4
		c-12.8,2.1-23.1,8.8-33.7,15.6c-10,6.5-21.1,8.4-32.5,3.2c-1.8-0.8-3.4-1.9-4.3-3.7c-1.4-2.8-1-5.2,2.4-5.6
		c5.2-0.6,9.6-2.2,13.4-5.9c2.1-2,5.2-0.6,7.9-0.7c2.4,0,5.8,1.3,7.1-1c2.5-4.4,8.2-6.1,9.2-11.6c0.7-3.4-1.3-5.1-3.7-6.4
		c-8.1-4.3-17.2-5.5-26-7.7c-3.3-0.8-15.5,7.7-16.3,10.8c-0.6,2.2,0.5,4.2,1.1,6.2c1.1,3.9,3.1,7.5,3.6,11.6
		c0.2,1.8-0.2,3.5-1.8,4.6c-1.6,1-3.4,0.5-4.2-0.7c-7.1-10.1-18.8-9.6-28.9-12.7c-12.1-3.7-19.6-12.2-24.7-23.2
		c-1.2-2.7-1-5.5,0.9-8.2c2.4-3.5,1.5-4.8-3.2-5.3c-0.8-0.1,0.4,0.9,0.2,0.2c-0.1-0.2,0.1-0.2,0.5-0.2c4.2,0.1,4.3,2.5,2.1,4.8
		c-2.9,3-6.8,5.1-11,3.4c-6.6-2.8-12.5-0.8-18.4,1.7c-3.4,1.4-6.8,2.8-10.2,4.2c-1.1,0.4-2.2,0.9-3.3,1.2c-2.7,0.7-5.8,1.2-6.9-2.1
		c-1.1-3.1,1.5-4.4,3.9-5.4c-0.3,0-0.7,0.2-1,0.3c-3,0.8-7.1,2.4-7.9-1.5c-0.8-3.7,3.9-3.3,6.3-4c13.9-4,28.2-6,42.3-9.3
		c1.1-0.3,2.4,0.1,2.8-1.5c-1.5-1.9-3.8-0.6-5.5-1.3c-4.4-2.8-9.3-3-14.4-3.3c-15.1-0.8-29.6,2.9-44.5,4.1c-3.1,0.2-6.1,0.8-9.2,0
		c-1.4-0.4-2.6-1.3-2.5-2.8c0.1-1.4,1.7-1.3,2.8-1.5c6.8-1.1,13.7-1.7,20.5-3c2.8-0.7,5.8,0.8,8.4-1c11.5-1.1,22.9-2.6,32.7-3.1
		c-10,0.7-21.6,1.6-33.2,3.4c-2.4,1-4.9,0.2-7.3,0.5c-8.3,1.9-16.8,1.8-25,4.1c-2,0.6-4.2,0.4-5-1.8c-0.9-2.3,1-3.5,2.8-4.4
		c4.3-1.9,9.5-2.8,8.9-9.5c-0.1-1.6,1.7-2.4,3.4-2.4c12.2,0.2,24.6-3,36.4,2.8c2.1,1.1,4.5,0.9,6.8,0.3c1.1-0.3,2.3-0.9,3.4-0.6
		c6,1.6,12,1,17.9-0.3c0.7-0.2,1.3,0.1,0.6,0c-0.8,0,0.7,0-1.7-0.1c-5,0.6-11.6-1.8-18.4-1.1c-9.7,1-19.1-2.4-28.7-1.7
		c-6.9,0.5-13.8,0.1-20.7,1.6c-2.2,0.5-5.2,0.6-5.9-2.2c-0.5-2.3,1.9-3.4,3.9-4.3c8.7-3.8,10-9,5-17.2c-5.1-8.2-10.5-16.2-15.9-24.3
		c-7.7-11.4-6.9-21.1,2.7-32.8c5.1-6.3,7.4-14,10.5-21c2.6-5.8,4.9-7.5,10.4-6.6c1.3,0.2,2.7,0.6,3.7-0.7c0.1-1-0.6-1.4-1.2-1.8
		c-1.4-1-3.3-1.8-3-3.9c0.4-2.4,2.5-3.5,4.6-3.9c4.5-0.9,9.1-1.7,14.7-1c-5.8-2.6-11.6-2.4-16.4-5.3c-2-1.2-4.7-2.2-4-5
		c0.8-3.2,3.7-2.7,6.3-2.5c1.5,0.2,3.3,1.4,3.5-1.9c0.7-8.6,6.9-12.4,14.9-9.1c3.5,1.4,7.1,2.7,9.9,3.8c-2.2-1.2-5.5-1.6-8.4-3.3
		c-2.3-1.4-5.3-2.2-5.8-5.2c-0.5-3.6,3.5-3.5,5.5-5.7c-1.6-0.9-3-0.2-4.1,0.5c-6.6,4.8-14.6,7-21.5,11.3c-2.2,1.4-4.5,2.3-7,0.7
		c-1.3-3.9,2.1-4.9,4.3-6.3c12.1-7.6,25-13.8,38.3-19c3.8-1.3,7.3-3.3,10.9-5.1c5.9-2.9,6.1-4.2,1.5-9.1c-4.3-4.6-8.8-9-13.4-13.4
		c-11.3-12.6-23.2-24.6-35.3-36.5c-1.4-1.4-2.6-2.8-4.2-4c-3.5-2.6-5-2.2-6.1,2c-0.8,3-1.2,6-1.7,9.1c-0.4,2.4-0.5,5-2.7,6.8
		c-3.9-0.3-4.6-3.1-4.7-6.3c0-7,2.2-13.6,3.8-20.4c0.9-3.7,2.9-4.5,6.4-2.8c7.6,3.7,13.7,9.2,19.7,15c18.4,17.9,34.6,37.9,53,55.8
		c4.4,4.3,8.7,6.4,14.8,5.9c23.1-2.1,46.3-0.8,69.4-1.3c4.4-0.1,6.6,1,6.1,5.7c2.7,5.5,2.4,11.6,2.7,17.4c0.4,7.3,0.2,14.6,0.1,21.9
		c-0.1,4.1,0.7,6.3,5.7,6.3c5.4,0,9.4,3.9,13,6.9c4.5-14.1,11.3-28.2,18.8-41.8C439.4,158.7,441,153.3,446.2,150.5z"/>
	<path class="st23" d="M307.9,337c2.7,3.8-0.7,4.1-2.9,4.6c-10,2.1-20,3.9-30,6c-6.8,1.5-13.6,3.3-21.7,5.2
		c6.6,3.2,11.5-2.4,16.8-0.1c-1.5,3-4.6,2.3-6.9,3.4c-1.5,0.7-3.8,1.2-3.1,3.5c0.7,2.2,2.7,1.7,4.4,1c4.7-1.8,9.4-3.4,14-5.5
		c6.7-3,13-5.6,20.4-1.6c3.4,1.9,6.9-1.5,9.7-3.5c1.4-1,0.1-2.5-1.7-2.3c-1.5,0.2-2.8,1.2-5.6,0.1c4.5-0.6,7.9-5.4,11.1,0.7
		c0.7,1.5,1.2,2.5-0.3,3.4c-4.5,2.7-2.9,6.6-1.2,9.6c3.1,5.4,7.4,9.8,12.1,14.2c7.3,6.8,15.8,7.1,24.2,8.7c6.2,1.2,11,4.3,14.7,9.2
		c0.9,1.2,1.7,3.1,3.4,2.3c1.9-0.9,1.5-2.8,0.8-4.6c-1.8-4.9-3.4-9.8-5.2-14.7c-0.7-1.8-1-3.3,0.7-4.6c3.8-2.9,7.6-6,11.5-8.7
		c3.4-2.3,6.8-2.6,10.9-0.9c6,2.5,12.8,2.5,18.8,5.3c3.6,1.7,8.6,2.5,9.1,6.9c0.5,4.6-1.6,8.9-6.3,11.4c-1.5,0.8-4.3,1.5-2.7,4.7
		c0.9,1.8-1,1.6-2,1.6c-2.9,0.1-5.8,0.3-8.7-0.1c-3.5-0.4-7.1-2.3-8.6,3.5c-0.2,0.8-5.9,3.3-9.6,2.9c-1.4-0.2-3.3-1.4-3.9,0.7
		c-0.5,1.7,0.8,3.5,2.4,4.2c5.8,2.6,11.9,5.1,18.4,3.2c2.9-0.8,6-1.4,8.9-2.4c5.6-2.1,10.6-5.5,14.9-9.4c5.9-5.3,13.5-7.1,20.4-8.5
		c12.2-2.4,22-10.6,21-22.7c-0.6-8,6.6-6,9.3-9.4c0.7-0.9,3.4-0.6,3.1-2.6c-0.4-2.7-2.7-1.1-4.1-1.5c-2.2-0.7-5.7,0.3-6.3-2.9
		c-0.4-2.5,2.7-3.6,3.8-5.1c2.3-3.2,4.2-1.7,6.4-1.3c24.9,5,49.7,10.4,74.2,17c1.5,0.4,3.7,1.9,4.5-0.3c0.7-2.1-1.9-2.5-3.4-3.1
		c-3.5-1.4-7.4-1.8-10.5-5c2.9-2.4,6.6,0,10-2.6c-9-2.5-17.5-2.9-25.9-4.3c-4.2-0.7-8.4-1.1-12.5-1.9c-3-0.6-5.6-0.6-8.3,1.2
		c-3.3,2.1-1.7-4.3-5.6-3.4c-2.3,0.6-5.6-0.3-8.5-0.6c-6.8-0.7-13.4-2.9-20.3-3.2c4.7-2.8,9.6-0.7,14,0c26.2,4,52.5,7,78.5,12.2
		c2.6,0.5,5.3,0.8,8,1c1.3,0.1,2.8-0.3,3.1-2c0.2-1.4-1.1-2-2.1-2.4c-3.8-1.3-7.8-2.2-11.9-2.2c-7.5,0.1-14.2-2.7-21.3-4.5
		c0.5-2,3.4-1.7,2.8-3.5c-0.7-2.2-3-1.2-4.6-1.3c-20.2-1.3-40.2-3.6-60.5-3.6c-1.2,0-2.5-0.7-3.6-1.8c36.5,0.2,72.7,4.4,109,7.6
		c0.2-2.8-1.8-2.8-2.9-3.6c-1.2-0.9-3.4-2.2-2.6-3.4c3.3-5.1,0.5-10.5,1.1-15.8c0.9-8.9-1-17.9-5-26.2c-1-2.1-2.6-3.9-2.4-6.4
		c0.4-4.3-0.8-7.6-5.1-9.3c-0.6-0.3-1.6-1.1-1.5-1.6c0.8-9-5.4-17.3-2.4-26.5c0.9-2.6,0.8-5.3,0.9-8c0.2-4.4,5.7-9.3,9.8-8.9
		c2,0.2,1.4,1.9,2,3c1,1.8,2.2,3.3,3.2,0c5,11,8.4,22.6,12.4,33.9c6.8,19,11.8,38.5,16,58.1c1.9,8.8,3.4,17.6,5.1,26.4
		c3,2.7,2.7,6.5,3.2,10c0.7,4.7,1.9,9.3,1.9,14c-1.3,5.9-5.5,10-9.3,14.3c-3.1,3.6-6.7,6.8-10.3,10.5c3.6-0.2,4.4,1.7,4.4,4.6
		c0,6.4-5.9,13-11.7,11.3c-9.2-2.8-14.4,2.3-20.3,7.3c-0.4,0.4-0.8,0.8-1.3,1.2c-28.9,20.9-60.4,35.8-95.8,42.1
		c-6.8,1.2-13.7,2-20.5,3.3c-45.7,7.3-91.2,6.1-136.6-2.1c-34-5.7-64.3-19.6-91.8-40.1c-19.6-14.6-35.7-32.2-48.1-53.3
		c-1.5-2.5-3-5-2.4-8.1c-0.3-4.9,1.9-9.3,2.1-14.1c6.2-23.1,12.2-46.3,19.5-69.1c6.6-16.8,13.1-33.5,19.8-50.3
		c3.6-8.9,7.5-17.6,11.2-26.5c1.8-4.6,3.4-9.2,0.3-13.9c-0.1-25,1.4-49.9,4.2-74.8c0.7-6.1,0.6-12.3,2.5-18.1c1.5,2,3,4,4.5,6
		c2.3,1.9,1.7,3.9,0.5,6.1c-2.4,2.2-3.3,4.9-3.2,8.2c0.1,7.7-1.8,15.5,2.3,22.8c0.9,9.9,1,19.7,0,29.6c-1.4,3.1-3.2,6.1-2,9.7
		c0.5,1.5,0.4,3.8,2.4,4.2c2.6,0.6,2.8-2,3.8-3.5c1.2-1.4,2.5-2.5,4.5-1.7c5.1,1.3,7.8-3.3,11.8-4.9c5.3-2.1,10.9-4,15.3-7.9
		c1-0.9,2.3-1.4,3.6-1.8c2.3-0.7,5.1-1.2,6,1.6c0.9,2.9-2.2,3-3.9,3.9c-1.5,0.7-4,0.4-4.1,2.4c-0.1,2,2.3,2.3,3.8,3.1
		c4.9,2.6,9.9,5,14.8,7.5c-0.2,0.4-0.3,0.8-0.5,1.2c-4.9-1.6-10-3-14.7-4.9c-3.7-1.5-7.1-2.1-10.4,0.2c-2.7,1.9-5.2,4.3-2.3,8.1
		c0.7,0.9,1.4,2.1,0.6,3.2c-1,1.3-2.3,0.7-3.7,0.5c-2.8-0.5-6.6-3.9-7.9,0c-0.7,2.2,4.4,3.6,7.2,4.6c4.1,1.5,8.6,2.1,12.8,3.3
		c1.5,0.4,4,0.9,3.4,3.1c-0.6,2-3,1.2-4.6,0.9c-6.4-1.2-12.3-0.2-18.1,2.3c0.6,2.9,2.6,2.2,3.9,2.7c1.7,0.7,3.3,1.8,3.1,3.7
		c-0.2,2.4-2.5,2.9-4.4,2.9c-2.1,0-4.1-0.9-6.2-0.9c-2.8-0.1-5.8-0.1-4.4,4.3c0.5,1.5,0.4,3.4-1.2,4.1c-2.8,1.4-3.7,4-4.3,6.5
		c-2.2,8.7-8.3,15.1-12.7,22.5c-1.9,3.1-1.8,6.6-0.9,9.5c1.6,5.5,3.3,11.1,8,15.2c2.2,1.9,5.3,3.7,3.6,7.6c-0.1,0.3,0.1,1,0.2,1.1
		c5.9,2,6,8.7,9.7,12.1c4.5,4,1.4,8.3,1.9,12.3c0.5,3.4-3.2,5.9-7,6.6c-2,0.4-4.3,0-5.3,2.8c1.2,1.3,2.8,0.8,4.2,0.7
		c15.4-1.2,30.7-0.6,46.1-0.1c8.9,0.2,17.7,0.9,26.4,2.4c1.3,0.2,2.9-0.1,3.1,1.8c0.1,0.5-0.2,1.3-0.5,1.5c-1.8,1.4-2.1-0.7-3.1-1.3
		c-2.1-1.3-3.8-0.7-5.8,0.7c-2.8,2-5.9,2.6-9.2,0.7c-2.5-1.5-5.1-1-7.9-0.4c-5.1,1-10.2,1.1-14.3-3.1c-1-1.1-2.5-0.9-3.8-0.9
		c-7.9,0-15.8,0-23.8,0c-3.4,0-6.1,0.5-3.7,5c1.1,2-0.1,3.3-1.8,4.2c-2.4,1.2-4.9,2.4-7.4,3.4c-1.4,0.5-3.7,0.3-3.4,2.3
		c0.4,2.3,2.9,1.4,4.4,1.3c6.5-0.8,12.9-1.9,19.4-2.9c1.5-0.2,3.1-0.3,4.6-0.4c0.3,0.3,0.4,0.6,0.2,0.8c-0.1,0.2-0.3,0.3-0.4,0.3
		c-6.5,2.6-13.6,1.7-20.2,3.4c-0.7,0.2-1.6-0.1-1.9,1.3c3.5,1.9,7.6,0.7,10.7-0.1c4.2-1,8.3-1.1,12.5-1.2c4.1-0.1,7.9,0.1,11.6-2.6
		c3.4-2.5,7.3,0.7,11.2,0c4.6-0.8,9.6,0.5,14.4,0.1c4.3-0.3,7,3,10.7,3.8c-0.4,2.1-2.1,1.3-3.4,1.6c-2.9-0.8-5.9-1.3-8.9-1.7
		c-2.6-0.3-3.3,1.2-3.9,3.1c-1.2,1.5-2.7,1.7-4.4,1.3c-0.8-0.2-1.6-1-2.5-0.1c-1.2,1.5-2.9,1.7-4.5,2.3c-0.5,0.2-1,0.3-1.6,0.3
		c-1.1,0.1-2.2,0-3.3-0.3c-7.4-3.6-14.2,0.9-21.2,1.7c-2,0.2-4,1.2-6.5,0.8c-0.3-0.3-0.2,1.3,0,0.6c0.1-0.3,0.2-0.2,0.5,0.1
		c3.4,2.7,0.6,3.7-1.4,4.4c-3.5,1.2-7,2.2-9.6,4.4c20.2-5.7,40.9-10.4,61.8-14.2c1-0.2,1.9-0.3,2.9-0.1c2.7,0.6-0.4-1.6,0.8-1.8
		C300.2,337.2,303.9,336.3,307.9,337z"/>
	<path class="st24" d="M446.2,150.5c-9.4,15.6-17.3,31.9-24.3,48.7c-1.4,3.5-1.7,7.4-5.2,11.7c2-5.8-2.5-6.9-4.6-8
		c-2.5-1.4-5.1-4.6-9.2-2.7c-2.2,1-5.7,1-5.5-3.4c0.4-14.8-0.3-29.5-0.9-44.3c1-3.5,2.2-5.2,6.8-5.5c12.7-0.9,25.2,1.9,37.8,1.1
		C443.1,148.1,444.9,149,446.2,150.5z"/>
	<path class="st22" d="M216.7,187.6c4.9,2.9,4.8,7.3-0.3,13.9C216.5,196.8,216.6,192.2,216.7,187.6z"/>
	<path class="st25" d="M627,420.3c0.2,0.1,0.5,0.2,0.8,0.3c0.1,5.2,1,10.3,3.5,14.9c2.5,10,4.9,20,7.4,30c1.4,4.6-1.5,6.6-4.8,8.6
		c-19.9,11.6-41,20.2-62.8,27.3c-2.7,0.9-5.5,1.8-8.2,2.8c-24.7,7-49.6,12.9-74.9,16.6c-12.6,1.8-25,4.4-37.8,5.1
		c-2.1,0.1-4.2,0.6-6.1-0.8c-2.3-9.5-1.2-19.1-0.9-28.6c0.3-11.2-0.8-22.3,0.6-33.5c11.2-2.1,22.6-3.7,33.6-6.4
		c27.5-6.8,52.5-19.2,75.9-35c1.7-1.2,3.6-2.2,5.4-3.4c2.3-0.4,4.6,0.4,6.9,0.2c6.3-0.5,9.8,2.1,10.5,8.7c0.3,3,2.1,5.8,3,8.7
		c1.6,5,0.9,9.2-4,11.7c10.7,5.9,9.1,17.2,12.1,25.2c0.3-3.8,0.7-4.4,4.7-6.7c4.2-2.4,8.7-4.1,13.1-6c8.7-3.8,10.4-7.1,8.7-16.3
		c-1-5.3-2.3-10.6-3.3-15.9c-0.6-3.2-0.6-6.3,2.6-8.2c3-1.8,6.1-1.6,8.3,1.2C623.7,424.1,625,419.5,627,420.3z"/>
	<path class="st26" d="M443.8,524.5c20.3-1.5,40.3-5,60.3-8.4c20-3.4,39.4-8.9,59.1-13.7c8.3,7.4,16.1,14.8,19.6,26.1
		c3.3,10.7,7.4,21.1,8.7,32.4c0.3,2.3,1.1,4.5,0.1,6.8c-1.1,1.5-2.4,2.1-4.1,1.3c-11.1,2.3-22.3,4.5-33.4,6.9
		c-21.1,4.5-42.5,5.9-63.8,8.2c-1.1,1.3-2.6,1.8-4.1,2.3c-1.6,0.2-3.3,0.4-4.9,0.8c-21.5,2-43.1,3.2-64.7,3.7
		c-10.6,0.3-21.2,0.7-31.7,0.5c-17.9-0.3-35.9-0.5-53.8-1.3c-10.4-0.5-20.8-1-31.1-1.6c-13.5-0.8-26.8-3.4-40.3-4.2
		c-2.9-0.2-5.8-0.9-8.1-2.8c-5.4-1.1-10.9-2.1-16.3-3.2c3.9-6.1,0.9-13.6,4.1-19.9c6.5-12.7,5.6-26.7,6.2-40.4
		c0.1-1.3,0-2.2,1.4-2.5c1.7-1.9,3.9-1.6,5.9-1.1c16.2,4.1,32.8,6.4,49.3,8.6c22.5,2.9,45.1,4.3,67.9,4.3c22.4,0,44.5-2,66.8-3.9
		C439.1,523.1,441.7,522.6,443.8,524.5z"/>
	<path class="st18" d="M486.5,584.8c1.1-0.9,2.4-1,3.7-0.7c2.5,2,5.7,0.2,8.6,1.7c-1.1,2.3-4.1,1.9-5.3,3.7
		c3.4,3.8,3.9,11.1-0.1,17.4c-2.2,3.5-1.5,8-4.9,10.8c-0.8,0.7-0.3,2,0.5,2.5c4.4,3.2,3.5,7.8,3.4,12.1c-0.1,7.4,2.4,14.8-0.5,22.2
		c-0.6,1.5,0.7,2,1.7,2.4c-9.1,2.4-18.6,2-27.9,3.2c-12.7,1.6-25.5,2.6-38.3,3.8c-27.3,1.4-54.7,1.3-82.1,1
		c-23.5-0.3-47-1.1-70.4-3.6c-1.3-0.1-2.6-0.6-3.9-1c-0.2-0.3-0.4-0.9-0.6-0.9c-8.5-0.8-8.6-8.7-12.1-14c-5.6-8.5-7.7-18.3-11-27.6
		c-1.3-3.6-3.1-6.8-5.8-9.8c-7-7.8-7.7-14.4-2.5-22.9c1.1-1.9,3.1-1.5,4.7-0.9c3.5,1.4,6,0.5,7.7-2.8c9.9,0.4,19.7,1.6,29.6,2.8
		c14.8,1.8,29.7,3.2,44.7,3.4c15,0.3,30.1,0.7,45.1,1.2c22.7,0.7,45.4,0.1,68.1-0.9c14.4-0.7,28.8-1.8,43.2-2.7
		c1.4,0.7,2.9,0.4,4.3,0.3c0.8,0,1.1-0.5,0.3-0.3C486.7,585.3,486.6,585,486.5,584.8z"/>
	<path class="st27" d="M590.9,567.4c-1.6-15.7-7.8-30.2-11.7-45.3c-0.2-0.9-0.7-2.2-1.3-2.4c-6.8-2.3-7.1-10.8-13.2-13.8
		c-1.2-0.6-1.6-2.1-1.6-3.5c11.9-4.7,24.2-8.5,36-13.4c12.3-5.1,24-11.2,35.6-17.6c2.4-1.3,3.9-3.1,3.9-5.9
		c4.3,13.2,6.3,27,9.1,40.5c0.4,2.1,0.9,4.1,1.4,6.1c0.9,12.4,1.9,24.7,2.8,37.1c-17.9,7.3-36.3,13-55.2,17.4
		C594.8,567.4,593.2,570.1,590.9,567.4z"/>
	<path class="st28" d="M590.9,567.4c2-0.2,3.9-0.5,5.9-0.7c-1.8,5-3.9,10.1,3.5,12.8c0.4,0.1,1.6,3.8,1.4,5.3
		c-1.1,6.9,1.4,14-1.4,20.7c-0.4,0.9-0.3,1.7-1.6,1.8c-5.2,0.5-9.7,2.3-14.1,5.3c-4.6,3.2-5,2.7-0.6,6.7c-5.5,2.9-7.8,1.5-8.1-5.1
		c-0.2-4-0.4-8.1-0.3-12.1c0-2.1,0.3-4.1-2.8-3.5c-1,0.2-2.4-0.1-2.2-1.1c0.3-1.7-2.5-3.3-0.3-4.7c2.8-1.8,2.7,1.7,4,2.5
		c0.7-1.6,1.1-3.3,2-4.7c0.8-1.3,2.4-2.2,1-3.9c-1.3-1.6-3.1-1.6-4.7-0.9c-2.5,1.1-5,1.8-7.8,1.5c-1.4-0.2-2.9-0.2-3.2-1.9
		c-0.3-1.6,1.4-1.8,2.3-2c6.9-1.7,12.5-7.1,19.9-7.3c2.6-0.1,4.4-1.9,5.9-3.2c2.4-2.1-2.4-2-2.2-4
		C588.6,568.5,589.7,568,590.9,567.4z"/>
	<path class="st20" d="M457.9,767.1c-7.7,1.7-15.5,0.6-23.3,0.7C442.3,766.1,450.1,767.2,457.9,767.1z"/>
	<path class="st29" d="M301.2,524.5c-16.9-1.2-33.5-4.2-49.9-8.3c-1.5-0.4-3-0.5-4.5-0.7c-17.5-5.1-35.2-9.5-52.2-16.1
		c-8.6-3.3-17.1-6.9-25.6-10.3c-10-5.7-20-11.4-29.9-17.2c-5.8-3.4-11.2-7.4-16.2-11.9c0.3-6.1,2.8-11.6,4.8-17.1
		c10-28,20.7-55.8,36.1-81.5c30.4,54.5,77.5,85.7,137.7,98.6c1.1,0.2,2.2,0.7,3.3,1c2,2.9,1,6,0.5,8.9c-2.2,14.2-2.6,28.6-4.2,42.9
		c-0.2,2.1-0.2,4.2,1.1,6.1C303.5,521,303.3,522.9,301.2,524.5z"/>
	<path class="st30" d="M120.2,466.9c-0.8,3-1.6,6.1-2.4,9.1C115.9,472.2,117.3,469.4,120.2,466.9z"/>
	<path class="st30" d="M110.3,502.8c-0.2,1.5-0.4,3-0.6,4.5C108.3,505.6,107.1,503.9,110.3,502.8z"/>
	<path class="st18" d="M227.8,611.9c1.2,0.2,2.2,0.7,2.3,2.1c0,0.8-0.5,1.6-1.3,1.5c-1.2-0.1-2.1-1-2.3-2.2
		C226.2,612.4,226.9,612,227.8,611.9z"/>
	<path class="st31" d="M227.2,106.7c1.2-1.9,0.9-4,0.8-6c1.1-5.8,2-11.7,3.3-17.5c1.1-5,3-5.6,7.2-2.6c2.2,1.5,4.2,3.4,6,5.4
		c11.7,12.2,23.3,24.5,35,36.8c-1.5,2.8-3.8,3.1-6.8,2.9c-7.6-0.6-10.1,3.2-6.8,9.8c2.7,5.3,5.1,10.8,12,12.1c2,0.4,4.2,2.2,2.4,5.2
		c-14.6,5.9-28.9,12.5-41.9,21.4c-0.8,0.5-1.4,1.3-2.1,1.9c-1.3,0.6-2.7,1-3.4,2.3c-1.2,2.1-3,2.9-5.2,2c-2-0.8-2.7-2.6-2.8-4.6
		c-0.1-2.2-0.5-4.6,0.9-6.6c0-10.8,0-21.7,0-32.5C223.7,126.4,224.4,116.5,227.2,106.7z"/>
	<path class="st32" d="M553.7,91.2c1.3,4.7,1.3,9.5,1.4,14.3c0.2,13.1,1.3,26.2,0.9,39.3c-0.4,12.4,0,24.9-2,37.3
		c-0.5,3.2-1.9,3.9-4,1.9c-10.3-9.5-22.7-15.7-34.3-23.2c-2.9-2.6-3.2-5.2-2-9.1c3-9.6,8.9-17.9,11.8-27.5c1.5-4.7,6.1-4.7,10.3-4.2
		c8.2,1,9,0.2,8.4-8.2c-0.1-1.3,0.2-2.7-1-4.1c-2.4,1-4.1,3.3-6.6,4.4c-2.7,1.1-4.6,0.7-4.7-2.7C531.6,100,544.5,89.3,553.7,91.2z"
		/>
	<path class="st33" d="M553.7,91.2c-10.2,1.3-16.3,7.3-19.8,16.5c-0.4,1.1-1.3,2.2-0.4,3.1c1,1,2.2,0,3-0.7c1.9-1.5,3.8-3.2,5.6-4.9
		c0.8-0.7,1.2-2.2,2.6-1.6c1.1,0.4,0.9,1.6,0.9,2.5c0,4.2,0,8.4,0,12.6c0,3.9-1.9,5.2-5.6,3.9c-1.5-0.5-2.9-1-4.4-1.2
		c-6.6-1-8.1,0-9.7,6.5c-1.7,6.8-6.1,12.3-8.5,18.7c-1.7,4.6-4.7,8.9-1.8,14c-9.7-4.1-19.3-8.4-30.3-11.1
		c2.4-5.9,7.3-10.1,11.4-14.5c15.2-16.1,30.8-31.9,46.3-47.7c1.8-1.9,3.6-4.8,6.6-3.9C553,84.7,553.3,88.2,553.7,91.2z"/>
	<path class="st34" d="M344.1,367.3c-5.6-0.4-10.2-2.6-13.5-9.5c15.8,11.2,29.2,5,42.2-2.2c10.3-5.7,13.8-15.5,13.8-26.8
		c0-2.3-1-4-2.6-5.6c-1.1-1-2.4-2.1-3-3.5c-2.8-5.8-6.3-10.6-13.2-12.2c-2-0.5-4.9-2.5-4.2-5.5c0.6-2.7,3.3-3.8,5.7-4.3
		c11.5-2,23-1.7,34.4,0.9c2.9,0.7,6.2,2.1,6.5,5c0.2,2.5-3,4.5-5.4,5.4c-4.8,1.8-7.5,5-8.5,10c-0.2,1.1-0.9,2.4-1.8,2.9
		c-8.4,4.5-4.5,11.5-3.5,17.7c0.7,4.3,3.1,8.4,6.6,11.2c12.8,10.4,26.7,17.1,44.6,12.4c-6.1,5-12.7,4.1-19.1,3.3
		c-6.8-0.8-13-3.5-18.9-6.8c-11.4-6.5-22.4-5.7-33.3,1c-6.5,4-13.6,6.2-21.2,6.6C347.9,367.9,346,368,344.1,367.3z"/>
	<path class="st35" d="M344.7,261.7c3.3,2.6,4.8,6.3,6.7,10.7c-4.1-1.2-6.3,1.5-9,3c-14.5,8.2-29.1,8.8-43-0.7
		c-6-4.1-9.1-11-12.2-17.5c-1-2-1.7-4.2-3-7.3c-0.8,4.7,2.1,7.5,2.4,10.8c-2.8-3.8-4.2-8.3-5.8-12.6c1-4.2,4.3-5.7,8-6.5
		c6.5-1.3,13-1.1,19.5-0.6c5.8,0.4,7.5,3.4,5.8,9.2c-1.8,5.9-3.4,11.9-2.8,18.1c0.5,5.4,2.7,6.4,7.2,3.5c5.5-3.7,7.2-9.7,9.1-15.6
		c0.7-2.3,0-5.7,3.8-6.2l-0.1,0C336.2,253.4,339.3,258.9,344.7,261.7z"/>
	<path class="st36" d="M494.2,252.5c-2.8,15.4-10.9,26.2-26.9,29.5c-10.6,2.1-20.6-0.4-29.9-5.9c-5.5-3.3-5.4-3.3-9.8,1.9
		c1.1-3.9,2.4-7,5.4-9.7c2.4,5.1,6.4,7.9,10.6,10c-2-2.6-3.4-6-6-7.6c-5.3-3.4-2.9-5.7,0.4-8.3c3.7-3,7-6.6,11.5-8.5
		c3.1,0.9,2.9,3.8,3.6,6.1c1.4,4.7,2.9,9.2,6.4,12.8c2.9,3,5.2,2.5,6.3-1.5c1.7-6.1,3-12.5,0.5-18.7c-1.6-3.8-0.7-5.6,3.5-6.4
		c6.2-1.3,12.3-0.6,18.3,0.9C490.7,247.7,493.3,249.4,494.2,252.5z"/>
	<path class="st37" d="M280.2,152.6c-0.1-2.2-1.5-4.2-3.3-4.1c-7.7,0.4-8.9-5.9-11.8-10.6c-0.3-0.5-0.5-1-0.8-1.5
		c-1.5-2.9-4.3-6.2-3-8.8c1.5-2.8,6.9-1.4,8.9-5c3,2.6,6.1,1.4,9.2,0.1c5.7,5.4,11.5,10.7,16.4,16.9c2.3,2.8,2.2,4.6-1.2,6.1
		C289.8,147.9,285,150.3,280.2,152.6z"/>
	<path class="st38" d="M331.4,250c-2.5,5.1-2.7,11-5.4,16.1c-2.3,4.6-5.7,7.5-10.3,9.5c-4.6,1.9-6-0.6-6.3-4.4
		c-0.6-7.3-0.1-14.5,2.8-21.5c2.3-5.5,1.3-7.3-4.6-7.7c-5.7-0.3-11.5,0.1-17.3,0.2c-4.4,0.1-6.3,4.1-9.6,5.8c-1.8-0.5-3.6-1-5.4-1.6
		C283.7,238.2,314.7,235.1,331.4,250z"/>
	<path class="st39" d="M494.2,252.5c-0.9-1.6-3.3,1.2-3.8-1.2c-0.8-3.8-4.1-3.8-6.8-4.2c-5.7-0.8-11.5-1.2-17.7,1.1
		c6,7.3,2.7,15.2,1.9,23c-0.3,2.6-1.1,5.7-4.2,6.3c-2.8,0.6-4.4-2-5.9-3.9c-3.7-4.5-6-9.7-6.9-15.5c-0.2-1.5-0.4-3-1.4-4.3
		c12.6-7.8,25.7-12.3,40.6-7.2c3.1,1,6,2.3,8.6,4.2c-0.3,0.9-1.3,0.8-1.8,1.5C496,252.4,495.1,252.4,494.2,252.5z"/>
	<path class="st40" d="M260.8,330.3c5.9-2.6,12.2-2.4,18.4-3.2c7.9-1.1,15.9-1.3,23.9-1.8c0.1,0.6,0.1,1.2,0.2,1.9
		C289.1,328.1,274.9,329.2,260.8,330.3C260.7,330.2,260.8,330.3,260.8,330.3z"/>
	<path class="st41" d="M273.3,341.7c1.1-2.3,3.8-0.5,5.1-2.1c0.5-0.8,1.1-1,1.9-0.5c1.7,0,3.4,0.4,4.8-0.8c3.8-3,8.1-2.7,12.5-1.6
		c1.3,0,2.7,0.4,3.9-0.6c2.1,0.4,4.5-1.3,6.4,0.9c-3.8,0.8-7.6,1.6-11.4,2.4c-5.9,2.8-12.4,2.7-18.6,4
		C276.2,343.7,274.5,343.2,273.3,341.7z"/>
	<path class="st38" d="M344.7,261.7c-5.9-2.3-9.3-7.4-13.4-11.7C336.9,252.7,340.8,257.1,344.7,261.7z"/>
	<path class="st40" d="M252.5,331.3c-0.1-0.4,0-0.8,0.2-1.1c2.7,0,5.4,0.1,8.1,0.1c0,0-0.1-0.1-0.1-0.1
		C258.2,331.7,255.2,330.7,252.5,331.3z"/>
	<path class="st36" d="M496.8,252.3c0-1.2,1.3-0.8,1.8-1.5c0.8,0.1,1.7,0.6,1.4,1.2C499.3,253.4,498,253,496.8,252.3z"/>
	<path class="st23" d="M344.1,367.3c1.9,0,3.8,0,5.7,0.1C347.9,368.8,346,368.8,344.1,367.3z"/>
	<path class="st42" d="M301.2,524.5c0-1.3,1.6-3.3,0.4-3.7c-5.3-1.6-3-5.5-2.7-8.5c2-17.1,2.1-34.4,5.7-51.3
		c9.9,1.2,19.8,2.3,29.7,3.6c19.5,2.7,39,3.4,58.7,2.8c17-0.5,33.7-2.6,50.6-4.3c1.8,1.6,1.7,3.9,1.7,5.9
		c-0.2,15.4-0.5,30.8-0.8,46.2c-0.1,3.1,2.1,6.4-0.7,9.3c-31.9,4-64,6.3-96.2,4.7C332.1,528.5,316.5,528.2,301.2,524.5z"/>
	<path class="st27" d="M627,420.3c-0.4,0.8-1,1.6-1.2,2.5c-0.3,1.3,0.1,2.9-1.8,3.2c-1.6,0.2-2.4-1-3-2.3c-0.4-0.7-0.7-1.4-1.1-2
		c-1.5-2.3-3.6-1.8-5.7-1c-2,0.8-3.1,2-2.6,4.4c1.5,6.9,2.8,13.9,4.3,20.9c1.4,6.6-1.2,11.7-7.3,14.4c-5.8,2.5-11.5,5.3-17.2,7.7
		c-3.8,1.6-2.7,4.6-2.2,7.4c0.3,1.7,1.2,3.9-1,4.4c-2.7,0.6-1.9-2.4-2.3-3.8c-1.3-4.2-1.8-8.6-3.1-12.9c-2-6.7-2.2-15.2-12.9-13.8
		c0.1-0.8,0.1-1.1,0.2-1.1c12.3-5.4,8.1-7.9,5.1-17.5c-0.2-0.5-0.9-1-0.9-1.5c0.7-9.2-5.2-9.5-11.9-8.8c-1.6,0.2-3-0.7-3.8-2.1
		c3.1-4.6,8.2-6.9,12.4-10.1c2-1.6,4.5,0.4,6.6,1c7.3,2.1,13.7-2.8,13.4-10.3c-0.1-2.2-1-2.7-3-1.8c-1.2,0.5-2.4,0.9-4.1,0.8
		c7.6-8.8,16.4-16.5,22.6-26.4c8.3,12.5,12.9,26.6,18,40.5C625.3,414.8,626.1,417.5,627,420.3z"/>
	<path class="st22" d="M273.3,341.7c7.9,0.4,15.4-2.3,23.2-2.4c1.6,1.7,1.3,2-1,2.5c-17.3,3.6-34.5,7.4-51.7,11.4
		c-6.1,1.4-12.1,3.4-19.7,5.5c5.6-6.7,11.7-9.3,18.8-10.5c-1.4-1.9-3.3,0.2-4.3-1.3c4.1-4.8,24.4-8.3,31.3-5.4
		c-0.8,1.5-2.9,0.3-3.8,1.7c-1.8,0.9-4.1-0.4-5.8,1.2c-3.1,0.1-6.1,1.2-8.2,1.3c2.3-0.5,5.6-0.8,8.7-1.7c1.8-1.2,4.1,0.3,5.8-1.2
		c2.1-1.2,4.7,0.4,6.8-1.1L273.3,341.7z"/>
	<path class="st22" d="M505.1,387.9c-2.4,0.1-3.6-0.4-4.2-1.8c-0.5-1.3,0.1-2.3,1.2-2.9c5.4-2.8,3.5-9.5,7.1-13.4
		c0.3-0.3-0.6-1.7-1-2.5c-0.6-1.3-2.3-2.7-1-4.1c1.3-1.4,3.3-0.8,4.9,0c2.6,1.2,5.2,2.5,7.7,3.8c0.9,0.4,2.3,1.2,1.8,1.9
		c-4.1,6.1,1.9,4.5,4.2,5.7c1.5,0.8,3.9,1,4.1,2.8c0.4,2.7-2.6,2.2-4.1,3.1C519.2,384.7,510.9,383.9,505.1,387.9z"/>
	<path class="st22" d="M476.1,348.6c-1.7-1.4-4.2-2.1-4.8-5.3c10.2,2.3,20.3,4.5,30.4,6.8c-0.8,1.5-2.3,0.5-3.3,1.9
		c17-1.7,32,5.6,49.4,9.4c-3.9,2.2-6.2,1.3-8.2,0.4c-4.5-2-9.4-1.9-14-3.4c-3-1-3.5,3.2-7.3,2.6c-10.9-1.7-20.4-6.9-30.8-9.5
		c-3.7-0.9-7.1-3.1-11.2-2.7L476.1,348.6z"/>
	<path class="st22" d="M227.2,106.7c-0.5,9.9-1,19.9-1.5,29.8c-2.8-4.3-3.4-9.2-2.5-14.1c0.9-4.9-0.4-9.9,1.5-14.7
		C225.2,106.2,225.5,105,227.2,106.7z"/>
	<path class="st22" d="M476.3,348.7c2.7,3.7,7.5,2.3,10.9,4.2c1.3,0.7,3.7,0.6,3.3,2.5c-0.5,2.2-3,1.6-4.4,1.1
		c-3.8-1.2-7.5-2.9-11.2-4.5c-1.1-0.5-3.1-0.8-2.5-2.5c0.5-1.4,2.4-0.7,3.7-0.9C476.1,348.6,476.3,348.7,476.3,348.7z"/>
	<path class="st22" d="M225.6,169c0.1,1.7,0.1,3.4,0.2,5.1c0.3,5.7,1.3,6.4,7,4.1c-0.3,2.7-1.4,5.2-4.3,5.3
		c-3.2,0.1-3.9-2.9-4.3-5.3C223.7,175.1,221.7,171.5,225.6,169z"/>
	<path class="st22" d="M297.7,336.7c-4.2,0.5-8.3,1.1-12.5,1.6c-2.5-2.7-0.2-4.4,1.8-4.2C290.5,334.5,294.7,333.4,297.7,336.7z"/>
	<path class="st22" d="M563.3,336.8c2.8-1.1,5-1.4,7-0.1c0.6,0.4,0.1,1.5-0.6,1.9C567.4,339.9,565.4,339.3,563.3,336.8z"/>
	<path class="st22" d="M546,334.6c-2.8,1.7-5.5,1.3-8.3,0C540.4,333.2,543.1,333.4,546,334.6z"/>
	<path class="st22" d="M291.6,319.4c-5.2,0-10.4,0-15.6,0c0-0.2,0-0.4,0-0.5c5.2,0,10.4,0,15.6,0C291.6,319,291.6,319.2,291.6,319.4
		z"/>
	<path class="st22" d="M553,335.3c2.4-0.3,4.8-1.1,7.8,0.7C557.5,337.5,555.2,337.3,553,335.3z"/>
	<path class="st22" d="M572.2,338.2c2.8-1.4,4.5-1.5,6.6-0.2C576.8,340,575.1,339.5,572.2,338.2z"/>
	<path class="st22" d="M280.3,339.1c-0.6,0.2-1.3,0.3-1.9,0.5c-1.1-0.8-2.2-2.2-0.7-3C279.5,335.7,280,337.7,280.3,339.1z"/>
	<path class="st22" d="M549.1,349c-0.5,0.1-1.1,0.4-1.8,0.5c-0.6,0-1.2-0.6-0.8-1.1c0.4-0.5,1.3-0.7,1.9-0.7
		C549,347.6,549.6,347.9,549.1,349z"/>
	<path class="st22" d="M250.8,365.3c-1.1,1.9-2.5,2.3-5.6,3C247.4,366.2,248.6,365.3,250.8,365.3z"/>
	<path class="st22" d="M224,158.4c1,1.3,1.1,3.2,0.2,3.5c-1.6,0.6-1.5-1-1.2-2.1C223.2,159.3,223.6,159,224,158.4z"/>
	<path class="st22" d="M229.4,349.7c2.4-2.6,4.1-2.1,5.7-1.4C233.6,348.6,232,349,229.4,349.7z"/>
	<path class="st41" d="M273.4,341.6c-2,2.4-4.7,0.8-7,1.2l0.1,0.1c0.7-1.5,2.2-1.1,3.4-1.5C271.1,341.5,272.3,341.6,273.4,341.6z"/>
	<path class="st8" d="M486.5,584.8c0.2,0.5,1.9,0.7,0.7,1.2c-1.6,0.6-3.6,0.8-5.1-0.8C483.5,585.1,485,584.9,486.5,584.8z"/>
	<path class="st41" d="M260.5,343.9c-3.2,1.9-6.8,1.5-10.3,2.2C253.6,344.7,256.9,343.5,260.5,343.9L260.5,343.9z"/>
	<path class="st41" d="M260.6,344c1.7-2,3.9-1,5.9-1.1c0,0-0.1-0.1-0.1-0.1C264.8,344.9,262.5,343.6,260.6,344
		C260.5,343.9,260.6,344,260.6,344z"/>
</g>
</svg>
