<?xml version="1.0" encoding="utf-8"?>
<!-- Generator: Adobe Illustrator 27.4.0, SVG Export Plug-In . SVG Version: 6.00 Build 0)  -->
<svg version="1.1" id="Layer_1" xmlns="http://www.w3.org/2000/svg" xmlns:xlink="http://www.w3.org/1999/xlink" x="0px" y="0px"
	 viewBox="0 0 720 720" style="enable-background:new 0 0 720 720;" xml:space="preserve">
<style type="text/css">
	.st0{fill:#5F4060;}
	.st1{fill:#A6CAB1;}
	.st2{fill:#73B39B;}
	.st3{fill:#0E222C;}
	.st4{fill:#7EB69F;}
	.st5{fill:#0E151D;}
	.st6{fill:#539F89;}
	.st7{fill:#0C2734;}
	.st8{fill:#0F1F28;}
	.st9{fill:#87BFA5;}
	.st10{fill:#0C212D;}
	.st11{fill:#59AD92;}
	.st12{fill:#1D5B60;}
	.st13{fill:#185457;}
	.st14{fill:#0E1D28;}
	.st15{fill:#C7DBC4;}
	.st16{fill:#8BC4AC;}
	.st17{fill:#276866;}
	.st18{fill:#184351;}
	.st19{fill:#AFD1B8;}
	.st20{fill:#57AC91;}
	.st21{fill:#26716D;}
	.st22{fill:#133C47;}
	.st23{fill:#F2E9D3;}
	.st24{fill:#11222F;}
	.st25{fill:#59A992;}
	.st26{fill:#5EAD96;}
	.st27{fill:#F3E9D3;}
	.st28{fill:#204758;}
	.st29{fill:#DD6E60;}
	.st30{fill:#203645;}
	.st31{fill:#85BFA8;}
	.st32{fill:#29492B;}
	.st33{fill:#304627;}
	.st34{fill:#81766C;}
	.st35{fill:#675F54;}
	.st36{fill:#57514B;}
	.st37{fill:#D9D6D8;}
</style>
<rect x="0" y="0" class="st0" width="720" height="720"/>
<g>
	<path class="st1" d="M148.5,700.8c-2.5-6.8-4.9-13.6-7.4-20.3c-1-2.7-1.7-5.4-1.6-8.4c1.9-1.7,4.1-1.2,6.2-0.9
		c15.9,1.8,31.7,4.3,47.6,6.6c15.8,2.3,31.7,4.1,47.6,5.8c7,0.7,8.7,1.9,10.4,8.8c2.5,10.3,5.6,20.5,7.6,30.9
		c2.3,12.2,2.6,12.1,14.7,12.1c3.2,0,6.4,0,9.6,0.2c12.1-0.4,24.3-1,36.4,0.5c5.5,0.7,11.2-0.9,16.5,1.4c2,1.6,2.4,4,2.7,6.3
		c1.2,9.5,2.7,19,3.7,28.5c0.2,1.8,0.5,3.7-0.8,5.3c-12.6,0.2-25.1,0.5-37.7-0.4c-10.5-0.8-21.1-0.3-31.7-0.4
		c-3-1.6-3.8-4.6-4.8-7.4c-3-8.6-5.9-17.2-8.7-25.9c-1.2-3.7-3.3-5.3-7.3-5.3c-24.4,0-48.8-1.6-73.2-1c-2.9,0.1-5.7-0.1-8.5-0.9
		c-7.8-9.4-13.7-20-19.1-30.9C149.9,703.8,149.2,702.3,148.5,700.8z"/>
	<path class="st2" d="M433.9,740.3c-5,1.5-7.6,5-5.8,10.5c3,8.9-1.6,16.3-3.2,24.3c-0.5,2.5-2.4,2.4-4.3,2.4
		c-18.8-0.1-37.7-0.3-56.5-0.4c-0.5,0-1,0.3-1.4,0.4c-1.2-1.1-1.7-2.5-2-4c-1.7-11.8-3.8-23.5-4.9-35.4c-1.2-9.7-2.6-19.3-3.6-29
		c-0.4-3.4-0.6-6.7-0.8-10.1c-0.2-2.1,0.2-4.1,2.1-5.4c4.6-1.9,9.4-1.1,14.2-0.7c2.6,0.7,5.2,1.1,8,1c19.7-0.3,39.3,0.8,59,0.6
		c5.7-0.1,6.8,1,7,6.7c0.4,11.9-2.3,23.4-4.5,35C436.6,738.1,436.2,740,433.9,740.3z"/>
	<path class="st3" d="M617.3,737.1c-3.7,2.2-5.3,6.2-8.1,9.2c-15.1,15.8-33.1,25.8-55,28.6c-13.7,1.7-27.4,2.7-41.2,2.6
		c-1.6-2.4-0.2-4.6,0.6-6.7c3.1-8.6,6.4-17,9.2-25.7c1.6-5,1.7-5.1-3.5-5.1c-18.5,0-37,0-55.5,0c-2.8,0-5.8,0.4-8.2-1.8
		c-1.5-2.3-1-4.8-0.9-7.4c0.5-10.1,2.7-20,3.6-30.1c0.4-4.1,2.1-6.7,6.6-6.6c22.8,0.5,45.5-1.1,68.2-0.6c2.3,0,4.4,0,5.8,2.2
		c1.2,2.5,0.5,4.9,0,7.4c-1.9,8.9-4.5,17.6-7.3,26.3c-1.3,3.9-0.2,5.7,3.8,6.3c3.7,0.6,7.4,1.2,11.1,0.7c16.6-2,33.3-0.8,50-1
		c4.7-0.1,9.4-0.8,14.1-0.9C613,734.5,616.1,733.5,617.3,737.1z"/>
	<path class="st4" d="M617.3,737.1c-1.5-1.6-3.5-1-5.2-0.8c-14.8,1.2-29.5,1.1-44.3,0.6c-9.5-0.4-18.7,2.5-28.2,1.1
		c-3.3-0.5-6.6-1-9.9-1.5c-3-0.5-1.4-2.3-0.9-3.8c3.7-11.8,7.3-23.7,9.6-35.9c0.8-2.6,3.1-2.7,5.2-3.2c8.2-1.8,16.5-2.1,24.8-1.7
		c20.2-2.7,40.6-2.7,60.7-5.2c4.3-0.5,8.3-2.9,12.8-2c1.8,0.9,1.6,2.6,1,3.9c-3.6,8.6-6.1,17.7-11.5,25.5
		c-3.3,6.6-7.7,12.7-10.2,19.7C619.9,734.9,618.6,736,617.3,737.1z"/>
	<path class="st5" d="M169.8,736.2c1.1-2,3-1.2,4.5-1.1c27,0.3,53.9,0.9,80.9,1.1c3.6,0,4.2,2.1,4.8,4.5
		c3.5,12.2,7.9,24.1,12.3,36.1c-17,0.2-34.1-0.1-50.6-4.4C200.1,766.6,183.3,753.6,169.8,736.2z"/>
	<path class="st6" d="M456,738.1c23.6,0,47.2,0,71.2,0c-4.8,13.3-9.6,26.3-14.4,39.4c-21.9,0.5-43.8,0.6-65.7,0.2
		c-1-1.6-0.3-3.3,0-4.9c1.9-10.5,4.5-20.8,6.6-31.2C454.3,740.2,454.7,738.9,456,738.1z"/>
	<path class="st7" d="M357.4,738.2c1.5,11,3.1,21.9,4.6,32.9c0.3,2.2,0.5,4.3,0.7,6.5c-7,0-14-0.1-21-0.1
		c-1.8-13.1-3.6-26.1-5.5-39.2c-3.3-5.4-2.8-6.1,4.8-7.1c-0.7-2-2.7-2.4-4.1-3.4c-3.3-2.5-4.9-5.6-3.5-9.6c1.3-3.8,4.6-4.6,8.1-4.7
		c4.6-0.1,8.1,2.2,9.2,5.7c0.2,0.6,0.4,1.3,0.4,2C350.8,727.8,352,733.8,357.4,738.2z"/>
	<path class="st8" d="M455.1,741.3c-1.1,9.4-3.7,18.5-5.7,27.8c-0.6,2.9-0.1,6.1-2.3,8.6c-5.2,0.1-10.4,0.1-15.6,0.3
		c-3.7,0.2-4.7-1.1-3.7-4.7c3.2-10.8,3.8-22,6-33c1.1-0.8,0.3-2.6,1.7-3.2c6.1-2.9,12.1-0.8,18.1,0.1
		C455.8,737.6,455.8,739.6,455.1,741.3z"/>
	<path class="st9" d="M128.2,522.1c0.5-14.6,2.7-29,5.2-43.4c-1.1-9.9,3.1-18.8,5.1-28.2c0.4-2.1,1.4-4.1,3.6-5.2
		c4.4-1.2,8.3,0.9,12.1,2.5c13.4,5.5,27.1,10,41.5,12.4c13.7,3.6,27.5,6.8,41.3,9.4c31.2,5.9,62.5,10.4,94.2,13
		c6,0.5,12.1,0.7,18.2,1.2c2.1,0.2,4.6-0.1,5.4,2.7c-8.5,11-7.5,24.4-9.5,37.1c-1.2,8.2-3.4,10.2-11.6,9.1c-7.9-1.1-8.6-0.5-9.4,7.5
		c-1.3,13.4-1.4,14,12.2,15c15.8,1.1,31.6,2.1,47.4,2.7c2.8,0.1,5.8-0.6,8.1,1.8c0.2,0.5,0.2,1.2-0.2,1.4c-5.3,1.9-7.6,4.7-4.3,10.5
		c1.1,1.9-0.9,3.4-3.1,3.5c-1.9,0.1-3.8,0-4,2.7c-0.1,1.7-0.5,3.6,1,4.7c1.7,1.3,3.2-0.3,4.5-1.1c2.6-1.6,5.3-2.4,8.1-0.7
		c2.8,1.8,1.9,4.7,1.7,7.4c-0.5,5.3-3,8.7-8,11.3c-6.2,3.2-10.5,8.5-12,15.7c-1.1,5.2-4.7,9.2-7.5,13.6c-1.3,2-4,1-5.9,1.1
		c1.4,0.4,3.5,0.6,1.3,3c-2.4,1.1-5,0.9-7.5,0.6c-15.8-1.3-31.6-1.7-47.4-3.7c-2.3-0.3-4.7-0.3-6.9,1.1c-1.2,0.8-2.6,0.8-3.9,0.7
		c-11.1-0.5-22-2.6-33.1-3.2c-2.7-0.1-4.7-1.6-6.3-3.8c-2.6-8.7-1.5-17.4,1.1-25.8c2.1-6.8,1.8-8.9-3.8-12.9
		c-5-3.6-6.2-8.7-5.2-14.3c1-5.4,1.2-10.3-2.6-14.8c-0.7-0.9-1.4-2.3-1.1-3.3c1.7-5-1.6-4.7-4.8-5.2c-21.2-3.3-42.3-6.9-63.3-11.1
		c-9.6-1.9-19-4.4-28.7-5.9C142.5,529.8,135.4,525.8,128.2,522.1z"/>
	<path class="st10" d="M259.3,623.5c2.7,3.1,6.3,3.1,10,3.4c9.5,0.7,19.1,1.7,28.6,2.7c2.1,0.2,3.5-0.1,5.5-1.4
		c2.2-1.4,6.2-0.2,9.4,0.1c17.3,1.7,34.6,2.9,52,3.3c1-1.1,2.3-1.3,3.7-1.2c26,0.8,51.9,2.3,77.9,2.6c0.8,0,1.7,0.2,2.5,0.5
		c3.6,3,3.7,5-0.3,6.4c-6.4,2.2-12.2,7.1-19.7,5.2c-1.1-0.3-2.5,0.1-3.4,0.8c-5.1,4-11.8,3.9-17.1,7.3c-2.1,1.4-4.4,0.5-6.1-0.9
		c-2.7-2.1-5.2-2-7.9-0.1c-4.4,3.1-8.7,4.4-13-0.3c-1-1.1-2.7-1.2-4.7-0.8c1.1,1.9,0.2,4.9,4.2,3.1c2.7-1.3,7.4,2.7,7.2,6.4
		c-0.3,5.6,2.9,7.9,7.2,9.7c3.3,1.4,6.1,3.3,5.2,7.5c-0.8,4.1-4.1,4.9-7.6,5.4c-6.1,0.7-6.6,1.1-5.6,7.3c0.7,3.9-0.4,5.2-4.3,4.9
		c-5-0.4-10.1,0.4-15.1-0.4c-4.7,0-9.4,0-14.1,0c-2.4,1.5-5.1,1.6-7.8,1.7c-14.9,0.4-29.6-2.4-44.3-3.6c-6.6-0.5-13.2-0.7-19.7-1.5
		c-4.4-0.5-6.4,1-5.2,5.7c0.6,2.3,0.9,4.6,1.2,7c0.8,6.8-1.5,9.1-8.3,8.4c-1.3-0.1-2.6-0.6-3.7-0.6c5.9,0.7,10.6,3.2,11.8,10
		c0.4,2,2.1,2.9,3.3,4.3c2.9,3.2,4.4,6.8,1.5,10.9c-6.1,0-12.2,0-18.2,0.1c-2.4,0-3.4-0.8-4.2-3.2c-4.4-12.6-5.9-25.8-9.6-38.6
		c-0.6-2-1.3-4.1-1.8-6.2c-0.7-2.9-2.5-3.6-5.5-3.9c-12.4-1.4-24.8-2-37.1-4c-19.1-3.1-38.3-5.3-57.5-7.9c-3-0.4-6-0.9-9-1.3
		c-4.2-9.1-5.6-18.9-7.4-28.6c-2.7-14.6-4.4-29.3-4.2-44.2c2.1-1.5,4.2-0.6,6.3-0.2c12.7,2.6,25.3,5.5,38,8.4
		c24.2,5.4,48.7,8.6,73.2,12.4C250.1,620.5,255.2,620.1,259.3,623.5z"/>
	<path class="st11" d="M259.3,623.5c-17.8-2.2-35.5-4.9-53.3-7.7c-25.7-4-50.9-10.2-76.3-15.9c-0.7-0.1-1.3-0.4-1.9-0.6
		c-1.6-18.8-2.1-37.7-0.9-56.6c0.5-6.9-0.5-13.8,1.3-20.6c3.8,0.2,7.2,1.2,10.5,3.1c7.3,4.3,15.7,4.3,23.7,6.2
		c19.8,4.6,39.7,8.2,59.7,11.7c10,1.7,20.1,3.2,32,5.1c-7.1,1.9-6.8,5.5-3.8,8.5c4.3,4.3,3.5,9,2.4,14c-1.5,7.1-0.1,10.5,5.9,14.3
		c3.8,2.4,6.3,7.8,4.3,11.4c-3.8,7-3.6,14.5-3.7,22.1C259.2,620.1,259.3,621.8,259.3,623.5z"/>
	<path class="st12" d="M282.5,737.1c-0.2-4.4,0.7-9.3-5.2-11.1c-0.7-0.2-1.5-1.7-1.4-2.5c0.6-8.4-5.8-9.1-11.4-10.6
		c-1.1-0.3-2.4-0.2-3.2-2c3.7,0,7.2-0.2,10.6,0.1c4.1,0.4,5-1.7,4.5-5.1c-0.7-4.1-1.1-8.4-2.2-12.4c-0.8-3-0.2-4.1,2.9-3.9
		c8.4,0.6,16.8,1.1,25.2,1.6c8.1,0.5,16,2,24,3c9,1.1,18.3,0.5,27.4,0.7c-1.4,1.4-0.7,3-0.5,4.7c1.5,12.9,2.9,25.9,4.3,38.8
		c-7-2.1-8.1-7.1-7.6-13.7c0.5-7-3.7-10.7-10.1-9.5c-2.3,0.4-4.7,1.1-5.2,4c-0.4,2.6-0.2,5.1,2.2,6.8c1.4,1,2.9,1.7,4.3,2.6
		c1.5,0.9,4.1,1.5,2.9,3.9c-1,1.9-3.2,2.3-5.4,1.3c-0.7-0.3-1.4-0.8-2.1-1.2c-1.8,2.2,0.5,4.1-0.2,6
		C318.3,737.9,300.4,737.5,282.5,737.1z"/>
	<path class="st13" d="M367.7,694.8c5.1-0.1,10.1-0.2,15.2-0.2c2.2,0,4.2,0.2,2.7-3.2c-0.7-1.6-0.4-3.6-0.6-5.5
		c-0.3-3.3,1.3-4.6,4.5-4.5c1.8,0.1,3.8,0.1,5.5-0.2c2-0.4,3.8-1.3,4.1-3.8c0.3-2.6-0.7-4.2-3.1-5.1c-1.7-0.6-3.6-1.2-5.1-2.1
		c-2.1-1.3-5.1-3-4.7-5.5c0.8-4.5-0.7-7.5-4.5-10.1c-0.5-0.1-0.7,0.7-1.1,1.1c-0.8,0.9-0.7,3-2.6,2.6c-1.4-0.3-1.1-1.9-1.6-3
		c-0.3-0.6-0.7-1.3-0.6-1.9c0.1-1.9-4.1-3-1.9-4.2c2.3-1.2,6.8-1.6,8.4,1c3.9,6.1,7.7,2.9,11.2,0.4c3.5-2.4,6.3-3.6,9.5,0.4
		c1,1.3,2.9,2.5,4.9,0.9c5.4-4.5,13.1-3.9,18.4-8.4c0.4-0.3,1.1-0.6,1.4-0.4c7.7,3.1,13.3-3.2,20-4.5c1.8-0.3,3.9-1,2.1-3.7
		c1.6-2.2,4.1-2.1,6.5-2.1c21.3-0.1,42.5-1.1,63.7-2.2c18.3-1,36.7-2,54.9-4.4c3.7-0.5,7.3-1.2,11.1-0.4c0.8,0.4,1.5,1.1,1.3,1.9
		c-1.7,7.7,0.5,15.4,0.3,23.1c-0.1,4.6-2,7-6.8,6.5c-2.4-0.2-4.8-0.1-7,0.7c-6.1,2.2-12.4,3-18.8,2.8c-3.9-0.1-6,1.7-5.9,5.8
		c0,1.3-0.1,2.7-0.3,4c-0.7,7.9,1.8,11.7,9.6,13.4c5.3,1.2,8.7,4,10.2,9.2c-8.9,0.4-17.8,0.6-26.6,2c-1.3,0.2-2.7,0.1-3.6,1.3
		c-0.8-1.2-1.7-1.8-3.3-1.7c-13.5,1.2-27,0.3-40.4,0.7c-7.9,0.2-15.7,0.4-23.6,1c-3.3,0.2-7-2.7-9.8-0.2c-2.7,2.4-0.5,6.5-1.4,9.7
		c-2.8,10.5-3,21.2-3.9,31.9c-0.1,1.1,0.1,2.3-0.9,3.2c0-2.4-1.3-3.1-3.5-3.2c-5.3-0.2-10.7-0.7-16-1c1.1-12.2,4.6-24.2,4.3-36.6
		c-0.1-3.2-0.5-4.2-4.1-4c-22.1,0.8-44.1-0.9-66.2-1.2C369,695.3,368.4,694.9,367.7,694.8z"/>
	<path class="st14" d="M568.6,693.4c-1.5-1.3-3.5-2.4-4.4-4.1c-1.1-2.1-2.4-2.6-4.7-2.9c-9.8-1.4-13.4-6.3-12.3-16.2
		c1.3-11.1,1.3-11.5,12.3-10.9c6.4,0.3,11.6-3.4,17.7-3.6c0.7,0,1.3-0.4,2-0.4c6.6-0.1,6.7-0.1,6.6-6.7c-0.1-4.7-0.6-9.4-1-14.1
		c-0.2-2.8,0.4-5.3,2.2-7.6c1.2-2.2,3.4-2.1,5.3-2.2c14.1-1.4,28.1-4,42.2-5.7c5.1-0.6,9.9-2,14.8-3.2c2.2-0.6,4.7-1.5,6.4,1.1
		c-1.7,15-3.5,29.9-6.5,44.7c-0.3,1.5-0.3,3-0.5,4.4c-2.1,6.6-4.2,13.2-6.4,19.8c-10.6,2.5-21.3,4.5-32.1,4.6
		C596.4,690.5,582.6,693.2,568.6,693.4z"/>
	<path class="st15" d="M549.4,156.9c0,0.4,0,0.7,0.1,1.1c0.9,2.3,1.3,4.7,0.1,7c-0.7,11.5,1.7,21.5,9.3,30.9
		c8.9,10.8,15.5,23.5,19.9,36.7c6.2,18.5,8.2,37.8,6.8,57.3c-0.1,1-0.5,2-0.7,2.9c-7.8,1.1-15.7,2.4-22.4-3.5
		c-2.1-1.8-4.5-2.9-6.9-4.1c-4.5-2.4-5.4-5.6-1.9-9.3c3.1-3.2,4.3-5.9,0.2-9.1c-1.2-1-1.4-2.6-1.3-4.2c0.2-5.6-2.3-8.5-8.1-8.9
		c-12.2-0.7-21-8.5-30.7-14.5c-2.4-1.5-3.6-4.2-2.9-7.1c0.9-4.2-1.2-7.1-4.2-9.1c-4.5-2.9-9.1-5.9-14.5-7c-1.3-0.3-2.8-0.4-3.9-1.1
		c-6.5-4.1-13.4-4.9-20.8-3.1c-3.9,0.9-6.8-0.6-5.5-5.7c-9.6,0.9-19.2-1.2-27.9,4.3c-2.4,1.5-5.4,2.4-6.7,5.1
		c-3,5.7-7.1,10.5-12.1,14.2c-9.8,7.3-11.5,17.7-12.3,28.6c-0.1,1.9,0,3.7-0.2,5.6c-0.4,3.4-1.9,5.7-5.6,6.1c-3.6,0.3-7-1-10.6-0.8
		c-7.4,0.4-14.3,2.1-20.3,6.7c-1.2,0.2-2.1-0.3-2.7-1.3c0.9-5.7,5.3-7.9,9.9-9.7c8-3.2,9.6-6,9.3-14.5c-0.3-8.4-2.7-16.8,0.4-25.1
		c0.2-0.6,0.1-1.3,0-2c-0.8-8.5,3.4-14.1,12-15c4-0.4,5.8-2.4,7.6-5.6c10.7-20,20.8-40.2,31.5-60.2c1-1.8,2-3.5,3.7-4.7
		c5.4-1.2,8.5-5.5,11.5-9.4c11.7-15,24.3-29.2,37.9-42.5c8.4-8.2,17.4-15.9,27.6-21.9c1.1-0.7,2.1-1.7,3.1-2.5
		c2.7-1.4,5.4-2.5,8.4-3.2c6.2-1.6,8.2-0.7,11.1,5.3c4.6,19.5,6.8,39.5,8.9,59.4c1.1,10.4,2,20.7,3,31.1
		C550.2,155,550,156,549.4,156.9z"/>
	<path class="st16" d="M437.7,137.8c-5.6,11.1-11,22.3-16.7,33.4c-5.9,11.5-12.2,22.9-18.1,34.5c-1.5,2.9-3.1,4.5-6.6,4.1
		c-5.4-0.5-8.5,3.3-11.9,6.5c-0.6,0.6-1.1,1.9-1,2.8c1.7,11.8-1.7,23.8,1.3,35.6c0.9,3.7-4.6,10.1-8.6,11c-5.5,1.2-9.1,4.9-12.5,8.9
		c-0.1,2.5-2,3.8-3.5,5.3c-10.3,9.9-19.4,21.2-30.7,30.1c-5.4,4.2-9.5,10-15.7,13.2c-9.4,1.6-18.7,4-27.9,6.4
		c-1.3,0.3-2.6,0.9-3.9,0.8c-1.8-0.1-3.4-1.2-1.8-2.8c4-3.9,5.2-9.3,7.8-13.9c7.5-1.3,15-2.3,20.9-1.9c-5.9-0.5-13.4,0.2-20.8,1.8
		c-10.4,2.2-20.9,3.3-31.2,5.3c-1.1,0.2-2.5,0.6-3.3-0.6c-0.9-1.5,0.3-2.5,1.2-3.5c3.3-3.8,7.7-6.6,10.9-10.7
		c-1.3-2-4.5-0.9-5.4-4.1c10.2-1.1,20.4-1.2,30.5-1.4c0.7,0-0.1-0.7,0.1-0.1c0,0.1-0.1,0.2-0.5,0.2c-9.1-0.2-18.2,0.1-27.3,1
		c-17.5,1.8-34.9-0.1-52.4-0.6c-4.9-0.1-9.8-0.1-14.7-0.2c-1.8,0-3.7,0.3-5.4-0.7c-0.4-2-1.1-3.9-1.2-5.9
		c-0.2-19.1-0.8-38.2,3.9-57.1c1.5-5.9,3.6-11.5,5.1-17.3c-0.8-3.5,1.6-6,3-8.8c2.4-4.6,5.3-8.9,8.4-13c11.7-9.8,9.7-23.8,11.3-36.7
		c0.2-1.7-0.1-3.3,0.2-5c1-15.7,2-31.4,4.1-47c0.4-2.7-0.7-5.8,1.6-8.2c0-1.3,0-2.6,0-3.9c1.1-1.6-0.2-3.6,0.9-5.2
		c1-8.5,1.8-16.9,7.1-24.2c2.2-3,4.5-3.6,7.8-2.5c5.9,2,10.5,6.1,15.1,10c15.9,13.5,31.1,27.7,45.2,43.3
		c6.4,7.1,12.8,14.3,20.5,20.2c6,4.5,10.2,10.7,15,16.2c8.2,9.4,16.3,18.9,24.3,28.5c3.7,4.5,4,4.4,6.8-0.6
		c6-10.6,11.2-21.6,16.6-32.4c0.6-1.2,1.6-2.4,1.5-3.7c-0.4-4.7,2.1-7.5,5.6-9.9C408.1,134.1,422.9,135.8,437.7,137.8z"/>
	<path class="st17" d="M393.1,134.9c0.6,0.9,0.9,2.3-0.1,2.6c-3.4,1-4.6,2.8-3.3,6.3c0.2,0.6-0.4,1.6-0.8,2.3
		c-7.1,14-14.2,27.9-21.7,42.7c-14.9-17.7-30.1-34.2-43.9-52.1C346.5,133.5,369.8,134.7,393.1,134.9z"/>
	<path class="st18" d="M190.4,298.1c2.5-2,5.5-1.4,8.3-1.3c14.3,0.6,28.6,0.4,42.9,1.5c15.8,1.2,31.4-1.1,47-0.3c2,0.1,4,0,6,0.4
		c-11.1,0.1-22.1,2.5-33.3,2.4c2.6,0,5.3,0,9,0c-4.6,7.4-11.3,11.5-16.5,16.9c19.2-3,38.2-7,57.8-6.2c-8.1,0.6-16.1,1.4-24,2.9
		c-1.7,1.6-3.7,2.2-6,2.3c-2,0.1-4,0.6-6,0.6c-22-0.2-37,13.2-52.2,26.3c-4.7,4.1-9.2,8.4-13.7,12.6c-2.9,0.9-4.4-1-5.7-3
		c-1.6-2.5-3-5.2-3.9-8.1c-1-3.3-2.7-6.1-5.1-8.5c1.7-1.7,2.8-3.2,1.6-6.1c-2.5-6.2-3.6-12.8-4.6-19.4c-0.4-2.9-1-4.5-4.7-3.4
		c-3,0.9-6.1,1.8-9.4,1.4c2.4-1.6,5.3-1.7,8-2.1c3.5-0.5,6-1.7,4.6-6C190.3,300.1,190.5,299.1,190.4,298.1z"/>
	<path class="st18" d="M178.1,309.1c-2.9,1.1-5.7,2.8-9,1.2C172.1,309.9,175.1,309.5,178.1,309.1z"/>
	<path class="st19" d="M658.7,535.4c0,3.3,0,6.7,0.1,10c-6.6-2-13.5-1.2-19.9,0.3c-13.2,3.1-26.8,3.2-40.1,5.5
		c-10.3,1.8-20.8,2.4-31,4.8c-8.1,1.9-16.4,2.4-24.6,2.4c-15.4,0-30.6,2-45.9,2.7c-9.1,0.5-18.2,1.1-27.3,1.4
		c-11.1,0.3-22.2-0.2-33.4,0.8c-13.3,1.2-26.6-1.1-39.9-1c-1.7,0-3.4-0.3-4.5-1.8c-1.2-1.2-2.8-1-4.3-1c-16.2,0.2-32.2-2.5-48.4-2.2
		c-3.8,0.1-7.7-0.7-11.5-1c-5.7-0.5-7.7-3.5-6.7-10.4c0.5-3.2,1.2-6.3,1.5-9.6c0.5-5.5,2.5-6.8,8.2-6.2c2.3,0.3,4.6,1,6.9,1.2
		c3.2,0.3,5.2-1.3,5.5-4.5c1.1-9.3,1.5-18.8,3.3-28c0.9-4.8,2.5-10.2,8-12.5c3.9-2.9,8.5-2.1,12.6-1.5c14.3,2,28.5,1.2,42.8,0.9
		c19.1,0.4,38.1-1.5,57.1-2.3c17.4-0.7,34.5-4.7,51.8-5.4c24.6-1.1,48.5-6.1,72.5-10.8c15.3-3,30.1-7.6,45.1-11.6
		c2.6-0.7,5.1-1.9,7.9-0.8c2,6.8,4.2,13.5,5.4,20.4c3.5,16.2,5.8,32.6,7.6,49.1C658.1,528.1,657.1,531.8,658.7,535.4z"/>
	<path class="st20" d="M392.1,560.7c13.1,0.3,26.3,1.1,39.4,0.9c21.2-0.3,42.5-0.6,63.7-2.1c21.5-1.6,43-2.2,64.5-4.1
		c11-1,21.8-4.2,32.8-5.2c10.5-1,20.9-3.3,31.5-3.7c3.2-0.1,6.5-0.5,9.4-1.6c7.1-2.7,14.7-0.8,21.7-3.2c3.2-1.1,2.3,2.5,3.5,3.8
		c0.5,17,0.4,34-0.8,51c-0.1,1.7,0,3.4-0.1,5c-1.8,5-0.6,10.3-2.1,15.3c-3.4-0.7-6.7,0.5-9.9,1.4c-12.6,3.7-25.7,4.1-38.5,6.3
		c-6.7,1.2-13.6,1.6-20.4,2.4c-15.4,1.5-30.8,3-46.2,4.5c-6.4,0.6-12.8,0.5-19.2,1.1c-11.1,1-22.3,0.7-33.4,1.4
		c-12.8,0.8-25.6,0.9-38.4,1c-25.2,0.1-50.4-1.7-75.7-2.3c-3.2-0.1-6.3-0.7-9.5-1c-1.7-1.7-4.6-0.4-7.7-3.6
		c11.5,3.9,12.5-5.4,16.7-10.3c0.6-0.7,1.3-2.1,1-2.8c-1.7-4.3,2-5.9,3.6-8.8c3-5.3,7.3-8.2,12.7-10.3c2.2-0.8,5-10.9,3.8-13
		c-1.8-3-4.5-2.3-7-1c-1.2,0.6-1.9,1.9-3.1,2.6c-2.9,1.5-5.4,0.2-5.7-3.1c-0.2-1.7-0.2-3.4,0-5c0.3-2.4,0.8-5.1,4.4-3
		c1.1,0.6,2.4,0.8,3.2-0.4c0.7-1-0.1-1.9-0.5-2.8C382.4,563.5,384,561,392.1,560.7z"/>
	<path class="st21" d="M410.4,487.6c-13.1,0.9-26.1,0.3-39.1-0.4c-5.5-0.3-11.1-0.5-16.6-0.7c-5.5-1.9-11.2-1.2-16.8-1.7
		c-18.6-1.5-37.1-3.9-55.6-6c-12.7-1.4-25.1-4.9-37.6-6.8c-16.3-2.4-32-6.8-48.1-9.8c-0.5-0.1-0.9-0.4-1.3-0.7
		c-0.1-4,2.7-3.6,5.1-3.2c5.7,0.8,11.2,2.2,16.7,4.2c4.8,1.7,9.7,3,14.7,3.6c2.9,0.3,4.5-0.6,5.2-3.4c2.4-8.5,4.4-17,5.4-25.7
		c0.4-3.7-0.9-4.8-4.4-4.5c-4.1,0.3-8-0.8-11.8-2.3c-3.4-1.4-4.3-4-3.3-7.4c1-3.5,3-5.8,7-4.9c3.3,0.7,6.5,1.7,9.8,2.6
		c1.5,0.4,3.2,1.7,4.6-0.2c1.2-1.7,2.1-3.7,1-5.7c-1.9-3.5-3.6-6.8-8.2-8.2c-10.1-3.1-20-7.1-29.8-11.3c-3.3-1.4-6.5-3-9.1-5.4
		c-4.3-3.9-9.7-5.4-15.1-6.8c-10.6-2.8-10.6-2.6-8.8-13.6c4.6-9.4,10.4-18,16.4-26.5c1.4-2,2.9-4,4.3-6c3.3-0.5,4.5,1.7,5.2,4.3
		c1.1,3.9,2.9,7.5,4.8,11.1c1,1.8,2,3.6,4.4,3.8c1.8,1.2,1.6,3.2,2.2,4.9c1,3-0.1,7,5.5,7.3c2.4,0.1,2.3,4.8,4.3,6.9
		c1.8,1.8,2.4,5,6.2,3.2c1.2-0.5,2.7,0.7,3.3,1.9c2.4,4.9,7.3,6.7,11.6,9.3c4.5,2.9,9.2,5.4,13.7,8.1c1.6,1.9,4.1,1.4,6.1,2.4
		c26,10.5,53,17.1,80.8,20.1c19.6,2.1,39.3,3.6,59.1,2.9c1.5-0.1,3.1-0.2,4.4,0.8c2.2,6.9,1.7,14,1.4,21c-0.1,3.2-2.1,4.8-5,5.5
		c-7.8,1.9-15.4,4.6-23.4,6.2c-3.4,0.7-5.9-0.3-7.6-3c-1.7,0.6-1.9,1.9-2,3c-0.7,8.3-0.7,16.5,0.8,24.7c0.6,3.6,3.4,3.8,6.2,3.8
		c9.1,0.2,18.2-0.1,27.3,0.1C406.5,485,409.5,484.2,410.4,487.6z"/>
	<path class="st22" d="M174.3,369.1c1.1,1.5,1,3.4,0.6,4.9c-1.6,5.3,2.2,6.2,5.6,6.7c5.8,0.9,11.5,1.9,16.1,5.7
		c9.5,7.8,21.3,10.7,32.3,15.1c4,1.6,8.1,3.1,12.4,4.3c4,1.1,4.8,6.1,6.5,9.4c1.4,2.7-2,5.7-3.1,8.7c-0.3,0.7-1.2,0.5-1.7,0
		c-3.7-3.4-8.9-2.8-13.1-4.7c-3.1-1.4-4.2,0.7-5,3.2c-0.8,2.5-1.8,5,1.8,6.1c4.8,1.5,9.7,3.1,14.8,2c2.4-0.5,3.7-0.1,3.4,2.6
		c-1.2,10.7-3.4,21.2-6.4,31.5c-0.9,3-2.3,3.8-5.5,3.3c-7.4-1-14.3-3.3-21.3-5.5c-4-1.2-8.1-2.1-12.1-3c-1.9-0.4-3.3,0.2-4.1,2.1
		c-12.9-1.3-24.9-6.1-37-10.4c-5.2-1.9-10.2-4.1-15.6-5.3c1.7-10.9,6-20.9,10-31C158.8,399,165.9,383.7,174.3,369.1z"/>
	<path class="st23" d="M406.3,424c-10.2,1.6-20.4,0.6-30.6,0.2c-22.9-0.9-45.7-3-68-8.3c-13.5-3.2-27-6.5-39.8-12.2
		c-2.2-1-5-0.9-6.9-3c-1.4-1.5-4.1,0.1-5.1-2.2c-2-7.6-0.7-14.7,4.7-20.1c5.9-5.9,10.5-12.6,15.6-19.1c7.4-9.5,16.2-18.1,27.1-23.9
		c4.1,0.5,7.2-0.8,8.9-4.8c0.7-0.8,1.5-1.2,2.4-1.5c3.4-0.3,5.8-2.2,8.2-4.5c4.2-4.3,7.8-3.9,11.3,1c1.6,2.2,3,4.5,4.5,6.7
		c2.3,3.4,2.5,6.9,0.7,10.5c-1.4,2.9-0.9,4.4,2.7,4.3c3-0.1,6.1,0.4,8.6-1.9c0.5-0.4,1.2-0.6,1.9-0.8c2.2-0.6,4.8-1,6,1.2
		c1.4,2.5-0.9,3.9-2.8,5.1c-0.7,0.5-1.6,0.7-2,1.8c1.9,1.1,3.4,0.1,4.9-0.9c2.5-1.5,5-2.8,8-2.8c4.3,0,7.9,1.1,9.6,5.8
		c0.9,2.4,2.1,6.2,4.9,5.7c3.2-0.6,1.9-4.4,2-7c0-0.5,0-1,0.1-1.5c0.1-1.9,2.2-3.9,0.1-5.6c-2.3-1.9-4.9-3.5-8.3-3.2
		c-2.4,0.2-4.7,0.8-7,0.9c-1.2,0-2.5-0.1-3.1-1.3c-0.7-1.2,0.1-2.3,0.8-3.2c2.5-3.2,5.7-5.8,8.5-8.6c2.1-2.1,4.5-4.1,5.7-7
		c0.7-1.1,1.6-1.9,2.7-2.5c3-1.4,5.7-0.7,7.7,1.8c6.6,8.1,16.2,12,24.2,18.1c1.4,1.1,3.8,1.6,3.2,3.9c-0.5,2-2.7,1.5-4.3,2
		c-4,1.2-8.1,0.3-12.1,1.1c-4.6,0.9-5.4,2-3.5,6.1c1.8,3.7,1.5,7.1,0.2,10.8c-0.7,1.8-1.9,4.1,1.2,4.9c2.6,0.7,4.7-0.3,5.3-3.2
		c0.4-2.5,1.1-4.9,2.6-7.1c1-1.5,2.2-2.7,4.2-2.1c1.8,0.6,2.7,1.9,2.9,3.8c0.2,2.1-0.6,4.4,0.5,6.8c2.7-0.5,4-2.9,6-4.2
		c3-1.9,5.2-1.6,7.3,1.4c2.3,3.4,4.5,6.7,5.5,11c2.4-1.5,2-5.8,5.4-5.4c2.6,0.3,5.2,1.5,7.6,2.6c9,4,8.5,5.1,13.9-5.2
		c3.1-5.9,8.2-9.1,14-11.6c2-0.9,5.6-0.8,3-4.9c-1.1-1.6,0.7-2.8,2.3-3.2c2.9-0.8,6.2-1,8.2,1.1c3,3,8.4,2.8,9.8,8.2
		c0.3,1.3,4.9,0.9,6.8,0.2c10.9-3.9,18.4,2.1,26.1,8.1c0.3,0.2,0.6,0.4,0.5,0.4c-19.9-15.8-41.9-28.5-65.9-37.7
		c-2.1-0.8-5.7-1.7-4.8-4.2c1-2.7,4.2-0.7,6.3,0.1c22.8,8.1,43.9,19.3,62.2,34.6c-3-2.6-5.6-6.2-8.8-9.1c-3.4-3-7.9-4.5-11.8-6.8
		c-13.8-8.5-27.8-17.4-43.8-20.4c-8.6-1.6-14.3-6.4-20.7-10.9c-2.6-1.9-1.2-3.6,0.8-4.6c2.5-1.3,4.3-2.6,3-5.8
		c-0.8-1.9,0.4-3.2,2.2-3.9c3.7-1.2,7.2-2.4,11.3-1.1c4.8,1.6,10.2,1.7,15.1,1.1c11.1-1.2,21.3,3,32.1,3.8c1.2,0.1,2.3,0.7,2.9,1.8
		c0.1,4.9-3.5,4.6-6.6,4.6c-9.8,0-19.4-1.9-28.9-4.4c-4.6-1.2-9.3-1.1-14.1-0.4c-3.2,0.4-3.4,1.9-2.5,4.5c1.1,3.4,3.3,5.2,6.8,6
		c4.4,1.1,9.1,1.3,12.7,4.5c0.3,0.7,0.1,1.3-0.3,1.9c-0.4,1.6,1.1,1.4,1.8,1.6c10,3.3,20.1,6.7,29.9,10.6
		c9.1,3.6,17.8,8.2,26.7,12.5c-2.7-1.4-5.3-2.9-8.1-4.2c-1.3-0.6-3.1-1.4-2.3-3.3c0.8-1.8,2.6-1.4,4-0.8c4.9,1.8,8.8,5.6,12.6,6.9
		c-4.5-2.2-9.7-5.6-14.5-9.6c-2.4-2.1-5.2-3.8-8.3-4.7c-6.7-1.9-13.2-4.2-19.2-7.8c-3.7-2.3-8.3-1.5-12.4-2.4
		c-2.5-0.6-5-0.8-7.3-1.9c-1.6-0.8-2.9-1.9-2.1-4c0.7-1.7,2.2-3.1,4-2.4c6.2,2.3,13.5,0,19.2,4.4c0.9,0.7,2.3,1,3.4,0.8
		c8.3-1.7,15.8,1.6,23.6,3.5c1.5,0.4,2.9,0.6,4.2,0.6c-1.6-0.4-4,0.3-4.6-2.5c0.5-1,1.3-1.5,2.3-1.8c4.9,0,9.5,1.4,12.2,2.3
		c-8-1.7-17.6-5.1-26.8-9.5c-2.9-1.4-5.3-2.8-5.7-6.3c8.2-2.9,16.6-3.4,25.2-2.3c6.1,0.8,12,0.2,17.9-1.2c0.7-0.7,2.1-0.1,2.3-1.5
		c-7-3.1-13.8-6.4-21.4-7.5c-3.1-0.5-5.5-1.5-6.6-4.6c-1-3.1,0.6-5.2,2.8-7c0.9-0.8,1.7-1.7,2.3-2.7c4-5.8,3.6-7.7-2.4-11.2
		c-3.7-2.1-7.7-4.1-6-9.6c0.3-0.9-0.1-1.7-0.8-2.3c-3.2-2.6-6.8-3.7-10.9-2.8c-3.8,0.8-7,2.3-8,6.6c-1.1,4.7-2.2,9.5-5,13.7
		c-5.3,8.2-13.4,9.8-21.2,3.9c-1.7-1.3-2.1-3-2.2-4.9c-0.1-4.8,1.4-9,4.6-12.5c3.3-3.6,4.4-7.5,3.7-12.5c-0.6-4.4-0.9-9-0.3-13.5
		c0.5-0.7,1.2-0.9,2-0.9c1,0.1,1.9,0.5,2.8,1c1.6,1.5,3.2,2.1,4.9,0.2c0.1-0.4,0.2-0.8,0.2-1.2c-2.3-3.5-5.1,0.1-7.6-0.5
		c-1.1-0.1-1.9-0.5-2.4-1.4c-1-2.2-2.2-4.4-4.9-4.6c-5.9-0.4-11.7-1.7-17.5-1.8c-6.9-0.2-14.1,1.1-20.7,3.8
		c-0.5,0.2-0.9,0.5-1.4,0.6c-6.4,1.2-12,3.1-12.4,11.1c0,1.1-1.4,1.9-2.3,2.7c-5,4.5-10.4,8.5-14.9,13.5c-1.7,1.9-2.2,4-2.9,6.3
		c-1.3,4.7-2.3,9.6-7.3,12c-1.8,0.1-3.2-0.4-3.6-2.4c3-0.1,4.5-1.9,4.3-4.6c-0.6-7.2,1.8-14,2.1-21c0.1-2.7,1.3-4.8,3.2-6.7
		c4.1-4,8.1-8.2,12.2-12.2c2.7-2.6,5.2-5.3,6.7-8.8c1.6-3.7,4.9-5.6,8.5-6.6c2.5-0.7,4.8-1.7,7-2.8c3.3-1.7,6.3-3.4,10.3-0.9
		c2.4,1.5,5.6,0.1,8.3-0.9c1.6-0.6,3.5-1.5,4.8-0.2c1.5,1.4-0.3,2.7-1,3.9c-1.4,2.4,0.1,2.7,1.8,2.6c3.2-0.3,6.4-0.4,9.5-1.3
		c3.1-0.9,5.7-0.2,8.2,1.3c3.8,2.3,8.2,2.9,12.1,4.5c6.7,2.8,14.1,5.4,18.1,12.5c0.6,1,0.7,1.8,0.1,2.8c-3,4.4,0,7.2,3.1,9.2
		c6.4,4,13.1,7.6,19.9,11.1c2.5,1.3,5.2,1.7,8.3,1.4c4.1-0.3,7.5,2.3,10.4,5.2c1,0.9,0.9,2.2,0.2,3.3c-2,3.1-1.3,5.1,1.9,7
		c3,1.8,3.5,4,0.6,6.9c-6.7,6.9-6.6,7,2.2,10.6c0.8,0.3,1.6,0.8,2.1,1.4c3.7,5.2,9,6.2,14.8,5.5c2.9-0.3,5.6,0.9,8.5,1
		c0,2.7-0.1,5.4-0.1,8.1c-2.1,1.4-3.8-0.3-5.3-0.5c-1.1-0.3-0.6,1-0.6,0.3c0-0.2,0.1-0.3,0.3-0.3c3.2,0.5,5.9,1.3,4.7,5.5
		c-1.2,8-3.3,15.7-5.4,23.5c0.1,2.6-0.5,4.9-1.7,7.2c-3.2,6.3-6.9,12.3-9.9,18.6c-1.1,2.3-2.8,3.8-5.6,3.1c-0.6-0.3-1.2-0.6-2.1-2
		c1.1,1.9,2.6,2.2,2.7,3.7c-4.5,6.9-11.3,11.4-17.3,16.6c-8.1,6.9-17.4,11.9-26,18.2c-3.1,2.2-6.8,2.9-10.1,4.4
		c-2.8,1.2-5,2.7-6.3,5.4c-4.4,0.3-7.9,2.9-11.6,4.9c-2.9,0.3-5.3,2-8,3c-14.4,5.3-29.5,7.1-44.4,10.3c-4.9,1-9.7,2.8-14.8,3.5
		c-0.8,0.1-1.7,0.7-2.5,0.4c-4-1.9-8.3-1.1-12.4-1.6C407.6,425,406.8,424.7,406.3,424z"/>
	<path class="st24" d="M406.3,424c4.7,0.5,9.8-2.5,14,1.9c0.1,0.1,0.4,0.1,0.5,0c3-3.7,8.2,0.1,11.3-3.3c1.7-1.9,4.2-0.6,6.2-1
		c9.3-2,18.6-3.9,27.9-5.9c2.9-5,8.7,0.8,11.5-2.9c2.2-3,6.7-0.5,8.5-4.3c0.2-0.3,2.8,1.5,4.4,0c3.9-1.6,7.9-2.8,11.8-4.3
		c2.2-2.2,4.9-3.3,8-3.6c4.5-2.2,9.4-2.2,14.3-2.2c1.7,0,3.4,0.1,5-0.4c9.9-3,19.9-5.9,29.9-8.6c11.8-3.2,22.1-9.8,33.4-14
		c4.8-1.7,9.8-2.7,14.4-4.8c1-0.4,2-0.2,2.9,0.3c1.7,2.4,3.4,4.7,5,7.1c1,3.8,3.3,7,5.2,10.3c11.4,21,18.9,43.4,24.3,66.6
		c-13,5.1-26.7,7.6-40.1,11.3c-23.7,6.5-48,10.8-72.3,13c-40.5,3.7-81,9-121.9,8.4c-2.6-1.7-5.6-0.8-8.4-0.9
		c-8.8-0.2-17.6-0.2-26.3-0.2c-4.6,0-6.8-1.4-7.2-6.7c-0.6-8.4-1.1-16.8-0.3-25.2c0.3-2.7,1.2-4.6,4.3-4.4c1.1,0.1,2.3,0.3,2,1.7
		c-0.9,5.1,2.4,3.1,4.5,2.6c7.9-2,15.8-4.4,23.8-6.2c2.9-0.6,3.6-1.9,3.4-4.4c-0.3-5.4,0.7-10.8-0.8-16.1
		C405.1,426.4,405.7,425.2,406.3,424z"/>
	<path class="st25" d="M610.2,370.9c-11.1,4.6-23.2,6.9-33.5,13.5c-6.7,4.3-14.6,4.7-21.7,7.5c-3.1,1.2-6.3,2.4-9.5,3.2
		c-8.5,2.1-16.8,5.7-25.8,5.1c-2.9-0.2-5.5-0.8-7.1,2.6c-0.3,0.6-1.3-0.6-1.8-1.2c-0.7-1.9,0.6-3.1,1.9-3.6c6-2.6,11.6-6.3,18.6-5.6
		c2.4,0.2,4.7-0.3,6.8-1.6c2.4-1.4,4.9-2.2,7.7-1.9c3.5,0.4,5.4-1.5,6-4.7c0.6-3.1,2.3-5.1,5-6.6c2.2-1.2,4.2-2.9,5.6-5
		c1.4-2.1,3.3-3.3,5.7-4c-0.4-1.4-2-1.6-2.7-2.7c-0.3-0.4-0.5-0.9-0.6-1.4c3.6-8,8.2-15.3,16.3-19.4c4-2,7.8,0.6,11.6,1.8
		C599,354.4,605.2,362.2,610.2,370.9z"/>
	<path class="st26" d="M565.6,364.9c1.4,0.6,2.7,1.3,4.1,1.9c1.2,0.5,2.2,1.1,1.8,2.6c-0.5,2.1-1.6,0.7-2.7,0.6
		c-2.4-0.3-4.2,1.1-5.1,3.2c-0.7,1.7-1.9,2.7-3.3,3.6c-3.6,2.5-7.6,4.2-7.8,10c-0.1,2.3-3.2,5.2-7,3.5c-1.1-0.5-2.1-0.5-2.9,0
		c-8.6,5.6-19.8,2-28.3,8c-1.4,1-2.9,1.6-3.7,3.2c-2.7,0.8-4.9,3-7.8,3.2c-0.6,0.4-1.1,0.3-1.6-0.3c-0.1-2.6,0.7-4.4,3.6-5.2
		c11.7-3.1,20.8-10.9,30.5-17.3c7.5-4.9,14.4-10.9,20.7-17.4c1.6-1.6,3.5-3,5.2-4.5c0.5-0.7-0.7-1.4,0-2.1c1.6-0.2,2.9-0.5,3.7-2.3
		c3.3-6.6,6.6-13.1,10.4-19.4c1.3-2.1,0.3-5.1,2.8-6.6c4.6,5.9,10.2,10.9,14.2,17.2c-0.6,0.3-1.4,0.9-1.8,0.7
		c-5.1-2.1-9.5-2.6-13.9,2c-1.2,1.3-3.1,2-3.7,4.1C571.8,358,566.7,360.1,565.6,364.9c-1.7,0.5-3.8,0.1-4.4,3.2
		C562.7,366.5,563.9,365.3,565.6,364.9z"/>
	<path class="st27" d="M583.8,306.1c-1.4-0.1-2.5-0.7-3.2-2c0.4-1.7,2.3,0.7,2.7-1.4c-2-0.6-4.1-1.3-6.5-2.1
		c2.9-1.7,5.3,0.7,7.9,0.4C586.2,303,585.1,304.6,583.8,306.1z"/>
	<path class="st28" d="M494.2,151.5c14.1-9.6,28.5-17,45-19.6c-7.5-0.5-14.5,1.6-21.3,4.3c-7.8,3.1-15.4,6.7-22.1,11.8
		c-2.5,1.9-4.9,2.3-7.9,1c-5-2.2-10.1-3.8-15.6-5.9c4.4-7.5,10.2-14,17.4-21.2c-4.6,1.9-6.6,4.6-9,7c-1.1,1.1-2,2.3-3,3.4
		c-3,3.4-5,8.9-9,9.8c-3.9,0.8-8.5-2.3-12.9-3.1c-4.1-0.8-3.5-2.8-1.9-5.2c3.1-4.6,6.2-9.2,9.6-13.6c15.3-19.7,32.7-37.3,53.6-51.1
		c2.8-1.8,5.9-3.2,8.9-4.7c4-2,6.7-0.8,8.2,3.5c2.6,7.2,3.9,14.6,5,22.1c4,27.5,4.6,55.2,4.2,82.9c0,0.8-0.1,1.7-0.1,2.5
		c0,3.2-1.3,3.4-3.7,1.8c-4.8-3.4-9.6-6.8-14.6-9.9C515.3,161.1,505.1,156.4,494.2,151.5z"/>
	<path class="st27" d="M380.9,324.1c0,3.2-2.7,4.5-4.5,6.4c-3.7,3.7-7.6,7.1-11.9,11.2c2.5,1.2,3.9,0.9,5.3,0.5
		c4.5-1.2,8.7-1.5,12.9,1.4c2.7,2,6,3.2,2.2,7.1c-1.1,1.1-0.5,2.5-0.1,3.8c0.8,2.5-0.2,4.7-1.1,6.8c-1.1,2.5-3.1,2.6-4.8,0.7
		c-1.4-1.6-2.6-3.6-3.6-5.5c-3.4-6.6-10.2-8.7-15.6-3.7c-3.9,3.7-6.4,1.5-10.8,0c3.2-1.8,5.5-3,7.7-4.4c0.6-0.4,0.8-1.4,1.2-2.1
		c-0.7-0.4-1.5-1-2.2-1c-1.3,0-3.2,0-3.8,0.8c-3.6,4.5-8.4,2.1-12.7,2.5c-2.4,0.2-4.2-0.5-2.3-3.5c5.5-8.4-1-14.1-4.9-20.1
		c-2.1-3.3-5.9-2.8-8.6,1c-2.2,3.1-4.8,4.6-8.5,4.4c-0.1-0.1-0.3-0.2-0.4-0.3c-1.9-0.8-4.4,2.9-5.7-0.2c-1-2.3,0.9-4.4,2.4-6.3
		c0.4-0.5,0.9-1,1.4-1.4c0.5-0.4,0.9-0.3,1.4,0.1c16.8-15.7,33.5-31.4,49.6-47.8c0.7,0.4,1.3,0.8,2,1.2
		c13.6,6.4,20.3,13.2,19.7,28.1c-0.4,10.1-4.3,17.1-12.4,22.7c-10,6.8-14.3,8.6-25.2,8.5c5.7,2.7,11.2,2.4,17.3-1
		c3.8-2.2,7.2-5,10.6-7.7C377,325.1,378.6,323.6,380.9,324.1z"/>
	<path class="st29" d="M380.9,324.1c-4.5,3.5-8.9,7.2-13.7,10.4c-7,4.7-14.5,6.2-22.3,1.6c-0.9-0.6-2.1-1-2.2-2.4
		c0.4-0.9,1.2-0.8,1.8-0.7c15,2.8,25.5-5.4,35.3-14.7c5.3-5.1,3.2-12.1,3.7-18.3c0.7-9.3-4.8-15.1-12.4-19.2c-2.3-1.2-4.2-2.8-5.6-5
		c6.7-8.9,16.4-8.1,25.9-7.8c1.8,0,3.6,0.5,5.4,0.8c1.1,0.5,2.3,1,3.4,1.5c2.7,0.2,4.4,1.7,4.8,4.4c0.3,2.5-1.4,4-3.4,5.2
		c-14.3,8.5-15.1,32.6-1.9,40.9c8.2,5.2,16.3,9.5,26.2,9.1c1.2-0.1,2.4,0,3.5,0.4c3,0.9,3.5,3,1.2,5.3c-1.5,1.5-3.5,2.1-5.5,2.4
		c-6.9,1.2-13.5,0-19.5-3.5c-5.4-3.2-10.6-6.8-14.9-11.3c-2.7-2.9-5.2-3.3-8.3-0.8C382.1,322.8,381.5,323.4,380.9,324.1z"/>
	<path class="st30" d="M262.5,157.9c-3.2-1.6-5.5-0.4-8.1,1.2c-7.4,4.6-14.7,9.5-21.3,15.3c-1.4,1.2-2.9,2.6-4.9,1.6
		c-1.8-1-1.6-2.8-1.4-4.5c0.7-7.6-1.2-15.4,1.7-22.9c0.3-0.6-1.9-0.8-1.1-2.3c8.5,0.9,16.7,3.3,24.9,5.4c-6.6-4.1-14-5.6-21.5-6.8
		c-2.6-0.4-3.4-0.8-3.4-3.9c0.2-19.6,2-39,5.6-58.3c0.6-3.3,1.9-6.4,2.9-9.6c1.4-4.7,4-4.8,7.6-2.9c7.2,3.6,13,9,19.1,14.1
		c16.4,13.9,31.5,29.1,44.1,46.5c3.6,5,3.4,5.2-2.3,7.6c-1.5,0.7-3.1,1.3-4.7,1.9c-1.4,0.5-2.8,1-4.7,1.6c1,1.5,1.9,2.8,2.8,4
		c-0.3,0.3-0.5,0.5-0.8,0.8c-0.6-0.8-1.2-1.7-1.9-2.5c-1.4-1.4-2.7-2.9-4.7-0.6c-0.7,0.8-2.1,1-3.3,1.2c-4,0.7-7,3.5-11,4.3
		c-4.5,0.9-8.6,3.7-12.9,5.4C260.8,155.3,260,156,262.5,157.9z"/>
	<path class="st31" d="M314,322.3c-0.2,0.1-0.5,0.2-0.7,0.2c-2,2-4.3,3.1-7,3.7c-5.3,1.2-10.5,2.5-15.7,4c-3.7,1.1-7,2.2-10,5.5
		c-3.7,4.1-9.9,5.6-15.1,8.1c-7,3.3-14.7,5.2-20.6,10.6c-0.7,0.7-2.1,1.4-2.8,0.9c-5.8-4.5-8.6,1.5-12.4,3.6c-2,1.2-3.8,2.8-5.5,4.5
		c-0.7,0.7-1.7,1.6-0.9,2.6c0.6,0.9,1.8,0.8,2.7,0.2c4.1-2.8,9.5-3.7,12.7-8c0.4-0.5,0.9-1.2,1.5-1.3c7.7-1.4,13.5-6.4,19.7-10.5
		c2-1.3,4.5-1.3,6.9-0.8c2.5,0.5,5,1,5.7,4.2c0.7,3.1-0.1,5.6-2.9,7.4c-7.1,4.6-13.8,9.8-20.4,15.1c-2.3,1.8-3.3,3.8-3.4,6.8
		c-0.2,4.1,0.2,8.6-3.9,11.5c-4.4-2.7-10.1-3.8-12.2-9.5c-0.1-0.4-1.3-4.1-3.2-0.4c-1.2,2.2-3.1-0.2-3.8-1.3
		c-2.1-3.5-5.8-6.1-5.6-11.5c-3.9,3.9-5.2,1.9-5.8-1.7c-0.6-3.5-1.2-6.9-1.9-10.3c3.1-6.3,9.2-9.7,14.1-14.2c5.1-4.6,11.1-8.3,16-13
		c6.8-6.7,15-9.9,24.2-11c8-1,16-2.1,24-3.2c0.8,6.4-3.1,10.5-7.4,14.8c10-2.4,19.5-4.7,29.1-6.9C310.8,321.9,312.5,320.5,314,322.3
		z"/>
	<path class="st32" d="M285.9,228.6c-3.1-0.7-5.4-1.2-7.6-1.7c20.6-3.5,40.2-2.8,56.3,12.9c2.2,2.1,2.7,3.7,1.1,6.7
		c-5.3,10.4-16.5,18.4-26.2,17.8c-13.5-0.8-24.1-11.5-24.9-25.2C284.4,235.7,283.7,232.1,285.9,228.6z"/>
	<path class="st16" d="M241.9,390.4c1.5-4.9,3.6-9.6,2-14.9c-0.4-1.2,1.1-2,2-2.7c7.6-5.8,14.8-12.4,23.2-17c2.9-1.6,2-3.6,2.2-5.7
		c0.2-2.9-2.3-2.4-3.9-2.9c-5-1.7-8.9,0.7-12.2,4.1c-3.2,3.2-6.2,5.7-11.3,5.3c-3.4-0.2-5.1,3.9-7.6,6c-1.3,1.1-2.3,2.4-4.2,2.3
		c-2-0.1-3.4,0.7-4.6,2.4c-2.1,3-4.9,1.2-6.6-0.2c-2.3-1.9,0.4-3.2,1.6-4.3c4.7-4.4,9.8-8.3,15.4-11.4c0.9-0.5,2.7-2.1,3.1,0.2
		c0.6,4.7,2.5,2.5,3.9,0.8c4-4.8,10.1-6.2,15.4-8.3c6.2-2.4,13.4-4.5,17.5-8.4c10.3-10.1,24.2-7.9,35.6-13.3
		c-0.9,2.6-3.3,4.5-3.6,7.4c1.8,0.6,3.9-2.1,5.4,0.5c-0.7,0.3-1.4,0.6-2.1,0.8c-2.4,3-5.8,4.2-9.3,5.2c-11,8.3-22.2,16.5-29.4,28.7
		c-2.3,3.9-4.7,7.6-8.7,10.3c-8.1,5.5-9.1,14.1-9.4,22.9c-0.3,0.4-0.7,0.4-1,0C250.3,396.4,246,393.6,241.9,390.4z"/>
	<path class="st31" d="M255.1,398.4c0.3,0,0.7,0,1,0c1.4,1.2,3.8,0.3,4.9,2.2C258.9,400.4,256.3,401.2,255.1,398.4z"/>
	<path class="st27" d="M382.7,322.2c4.1-5,4.4-5,8.9-0.7c6.5,6.2,13.4,11.9,22.2,14.5c5.2,1.5,10.3,1.3,15.3-0.8
		c1.1-0.5,2.8-1.2,2.2-2.9c-0.5-1.4-2-0.8-3.1-0.7c-13.3,1.2-23.8-4.5-33.3-13c-4.1-3.7-5.5-8.3-5.8-13.5c-0.1-1.3,0.2-2.8-0.1-4
		c-2.6-9.2,5.3-14.1,8.4-21c0.2-0.5,1-0.8,1.6-1.1c7-2.9,7.1-3.8,1.3-8.7c3.4-3.3,5.2-7.3,6-11.9c0.7-3.6,1-7.6,5.9-8.1
		c1.6-0.2,1.6-1,1.5-2.4c-0.2-3.1,0.2-5.8,4.7-4.9c2.3,0.4,8.8-7.1,8.7-9.5c-0.1-4.9,3.1-8,7.7-7.9c0.8,0,1.8,0,2.4-0.4
		c6.9-4.6,15.2-3.9,22.8-6c1.4-0.4,3.3-0.7,4.5,0c4.6,2.7,9.5,1.6,14.3,1.8c4,0.2,6.7,1.5,6.3,6.2c-1.8,1.9-4.1,1.1-6.2,0.9
		c-14.4-1.2-27.9,0.9-39.7,9.9c-5,3.8-5.1,4.5-1.6,9.8c6.1,9.1,17,13.3,27.9,10.7c9.1-2.2,16-11.2,17.2-22.1c0.2-2.1-1-5.2,2.7-5.9
		c1.7,5.7,0.6,11.7,1.9,17.5c1,4.5-2.9,7.4-5.4,10.4c-1.7,2.1-2.7,4.2-3.2,6.7c-1.6,6.8-0.3,8.4,6.7,8.9c1.3,0.1,3.2-0.6,3.5,1
		c0.6,2.8,1.6,1,2.7,0.5c5.8-2.4,8.4-7.3,10.2-12.8c0.6-1.8,1.3-3.5,1.4-5.4c0.4-6,4.3-8.3,9.4-9.5c5.4-1.3,9.9,1,14.1,4
		c1.7,1.2,0.9,2.6-0.1,3.9c-1.7,2.2-0.8,3.7,1.3,4.9c2.6,1.5,5.3,2.9,7.8,4.5c2.7,1.7,3.4,4.3,1.6,7c-2,3-2.9,6.9-6.8,8.4
		c-1.6,0.7-1.6,2.4-1.1,4c0.8,2.3,2.2,3.3,4.8,3.6c9.3,1,17.6,4.8,25.7,9.3c0.3,0.1,0.3,0.6,0.5,0.9c-7.4,1.1-14.7-0.8-22.1-1.2
		c-16.2-0.9-32.3-1.5-48.5-2c-9-0.3-18-0.3-24.4-0.4c5.5,0.5,13.6,0.2,21.6,0.4c20.1,0.5,40.1,1.3,60.1,2.7c2.8,0.2,5.7,0.1,8.3,1.7
		c-5.6,2.6-11.6,3.3-17.6,2.6c-6.9-0.8-13.7-2-20.3,0.8c-2.2,0.9-4.6-2-6.7,0.4c-7.7-0.7-15.4-1.2-22.8-3.6c-2-0.6-4.4-0.8-6.5-0.4
		c-6.2,1.3-12.5,0.3-18.5-0.4c-4.3-0.5-8.3-1.5-12.5,0.2c-1.4,0.6-3,0.6-1.6,2.5c3.4,4.3,0.8,5.8-3,6.9c-0.9,0.3-1.9,0.6-2.6,2.1
		c4.5,1.2,7.8,4.1,9.9,8.2c0.5,0.9,1.3,1.6,2.4,1.5c9.1-0.8,16.8,3.4,24.9,6.7c13.4,5.4,25.2,13.5,37.7,20.3
		c6.5,3.5,11.2,9.8,14.4,16.9c-21.1-18.1-45.1-30.7-71.6-39c27.1,10.9,52.7,24.2,74.1,44.6c-6.5-3.3-12.1-8.1-19.1-10.5
		c-4.3-1.5-17.2,0.6-20.3,3.6c0.3-3,0.9-7.2-1.5-7.5c-4.1-0.6-5.7-4.4-9.2-5.2c-2.2-0.5-4.7-0.8-6.8,0.5c-0.4,1.6,0.9,1.7,1.7,2.1
		c2.9,1.6,1.6,2.8-0.3,3.9c-1.2,0.7-2.5,1.1-3.8,1.5c-7.5,2.5-12.7,7.3-16,14.6c-3.1,6.9-3.5,6.9-10.4,4c-3.4-1.4-6.8-2.6-10.1-4.2
		c-1.8-0.9-2.1,0.3-2.5,1.3c-0.6,1.6-1,3.2-1.8,4.7c-0.4,0.9-1.5,1.6-2.5,1.4c-1.2-0.3-0.5-1.3-0.5-2.1c-0.6-5.1-4.2-8.7-6.3-13.1
		c-0.7-1.4-2.2-1.3-3.4-0.1c-1.7,1.6-4.1,2.4-5.2,4.7c-0.5,1.1-1.5,1.9-2.8,1.6c-1.6-0.4-2.1-1.7-2-3.1c0-1.8,0-3.7,0.4-5.5
		c0.4-1.9-0.3-3.1-1.8-3.7c-1.8-0.8-2.2,0.8-2.8,2c-0.9,2.1-2.4,4.1-2,6.6c0.3,2.4-1.2,3.8-3.3,4.5c-2.5,0.8-5.3,0.6-7.1-1.2
		c-1.7-1.6-0.2-3.6,0.6-5.5c1.5-3.4,2.2-6.6-0.2-10.4c-3.3-5.1-1.9-6.8,4.3-7.8c5.4-0.9,10.9,0.1,16.6-2.1
		c-4.8-1.9-8.4-5.4-12.6-8.2c-5.2-3.6-11.4-6-14.9-11.7C388.1,321.8,385.6,321.2,382.7,322.2z"/>
	<path class="st33" d="M485.4,230.2c-2.2,0.5-1.1,2.1-1,3.3c0.1,12.5-7.1,23.2-17.8,26.3c-11.7,3.4-24.4-1.7-30.9-12.4
		c-3.7-6.1-3.6-6.4,2.5-10.9c12.4-9.3,26.5-11.6,41.6-10c1.8,0.2,3.7,0.4,5.5,0.6c0.6,0.7,1.4,0.9,2.2,0.7c2.6-0.2,5.3-1,7.3,1.6
		c-2,3.7-4.8,1-7.3,0.9C486.8,230.2,486.1,230.2,485.4,230.2z"/>
	<path class="st27" d="M510.8,303c8.2,5.7,17.5,9.3,27,11.9c4.1,1.1,7.4,3.9,11.8,3.7c-0.1,0.5-0.3,1-0.4,1.5
		c-6.2-1.2-12.4-2.5-18.6-3.7c-1.6,0.4-3.3,0.7-4.8-0.3c-21.2-4-42.5-6.8-62.5-9.5c-2.1,0.4-1.2,1.2-1.5,0.6
		c-0.1-0.3-0.1-0.5,0.2-0.4c8.9,0.6,17.6,2.4,26.4,3.4c12.4,1.4,24.5,4.1,36.8,5.7c1,1.2,2.7,0.5,3.7,1.6c2.8,1.5,6.3,0.6,9.7,2.8
		c-4.9,2.5-9.5,0.6-13.7-0.5c-6.3-1.7-12.3-4-18.9-2.2c-1.6,0.4-3.4,0.1-4.4-0.8c-5.5-5.2-13.2-1.7-19.1-5c-1.1-0.6-2.2,0.7-2.7,1.8
		c-0.7,1.6,0.8,2.2,1.8,2.4c4.4,0.9,8.9,1.7,13.4,2.4c1.2,0.2,2.7-0.3,3.5,0.3c10.5,7.7,25.1,7.2,34.5,17.2c2.5,2.6,6.1,4.2,9.4,5.9
		c2.4,1.2,4,2.9,5.5,6.2c-7.4-4-14.1-7.6-20.7-11.2c-0.3,0.5-0.6,1-0.8,1.5c5,2.8,10.3,5,14.9,8.5c-1.9,0.4-63.9-24.4-67.3-26.9
		c1.3-1.1,2.2,0.2,3.2,0.4c1.9-1.4,3.6,0.1,5.2,0.6c13.7,4.2,27.4,8.6,40.6,14.6c0.7,0,0.2-1,0.2-0.4c0,0.3-0.1,0.4-0.4,0.3
		c-14.4-6.7-29.8-10.7-44.6-16.5c-4.5-1.2-9-2.6-13.6-3.7c-4.7-1.1-9.1-6.8-8.5-11.4c0.2-1.6,1.4-1.5,2.5-1.8
		c8.7-2.6,17.3-0.8,25.3,1.8c5.8,1.9,11.5,1,17,2.3c1.3,0.3,2.7,0.1,4,0.4C508.2,307,510.2,306.2,510.8,303z"/>
	<path class="st34" d="M555.4,299.2c-30.6-3.6-61.3-3.2-92-4.7c12.2-0.8,24.3-0.9,36.5-0.3c16,0.8,32,1.7,48,2.7
		c4.2,0.2,8.4,0.8,12.6,1.2C559.1,299.6,557.1,298.7,555.4,299.2z"/>
	<path class="st35" d="M478.3,318.9c15.9,4.4,31.5,9.4,46.1,17.3c-15.5-6-31-11.7-47.1-15.9C477.2,319.4,477.6,319.1,478.3,318.9z"
		/>
	<path class="st27" d="M303.7,336.4c2.8-2.3,5.8-4.2,9.3-5.2C311.7,336.3,308.3,337.5,303.7,336.4z"/>
	<path class="st25" d="M501.4,404.3c0.5,0.1,1,0.2,1.6,0.3c-4,1.8-8.2,3-12.5,3.8c1-2.2,5.2-1.5,4.6-5.3c-0.1-0.6,1.5-0.3,2.1,0.3
		C498.4,404.9,500,404.3,501.4,404.3z"/>
	<path class="st27" d="M329.2,343c1.5,0.2,2.5,1.1,2.6,2.5c0.2,1.4-1,2-2.3,2.1c-1.4,0.1-2.2-0.5-2.2-2
		C327.3,344.3,327.7,343.3,329.2,343z"/>
	<path class="st27" d="M494.3,229.1c-2.3-0.5-4.5-0.9-6.8-1.4c3.3-0.6,7.4-4.7,9.1,2C495.5,230.7,494.9,229.8,494.3,229.1z"/>
	<path class="st25" d="M561.5,357.8c0.5,0.7,1.5,1.4,1.5,2.1c0,0.7-1,0.1-1.5,0c-2-1.5-3.9-2.9-5.9-4.4
		C558.1,355.3,559.8,356.6,561.5,357.8z"/>
	<path class="st27" d="M496.6,231.2c-2.4,1.1-4.8,4.7-7.1-0.1C491.9,230.3,494.3,229.9,496.6,231.2z"/>
	<path class="st27" d="M300.1,345.9c0,0.8-0.3,1.3-1.1,1.4c-1.2,0.1-1.9-0.7-2-1.8c-0.1-0.7,0.1-1.5,0.9-1.4
		C299,344.1,299.7,344.9,300.1,345.9z"/>
	<path class="st15" d="M496.6,231.2c-2.4,0-4.7-0.1-7.1-0.1c-0.7-0.3-1.3-0.6-2-0.9c2.2-0.9,4.9,1.4,6.8-1.1
		c0.8,0.2,1.5,0.4,2.3,0.7C496.6,230.3,496.6,230.7,496.6,231.2z"/>
	<path class="st27" d="M546.9,321.9c-2.3,0.5-3.7,0.8-5.5-0.8C543.4,319.9,544.8,320.4,546.9,321.9z"/>
	<path class="st27" d="M463.8,316.9c1.8-1.3,2.8,0.6,4.1,0.8C466.5,318.2,465.1,318.6,463.8,316.9z"/>
	<path class="st27" d="M536.1,282.5c-0.6,0.5-0.9,0.9-1.3,1c-0.7,0.1-1.3-0.2-1.4-1c-0.1-0.7,0.3-1.4,1.1-1.2
		C535,281.3,535.4,281.9,536.1,282.5z"/>
	<path class="st36" d="M529.1,317.4c-0.9-0.5-2.4,0.3-2.9-1.3l-0.1,0.1c1.5,0.1,3.1,0.2,4.6,0.2
		C530.2,316.7,529.6,317.1,529.1,317.4z"/>
	<path class="st25" d="M565.6,364.9c-1,1.5-2.2,2.9-3,4.5c-0.7,1.3-1.6,1.8-2.8,1.3c-1.6-0.7-0.5-2-0.3-3
		C560.7,363,562.1,362.4,565.6,364.9C565.6,364.9,565.6,364.9,565.6,364.9z"/>
	<path class="st37" d="M257.9,110.2c-6.1-3.1-12.5-5.3-18.8-7.6C246.2,103.1,252.5,105.8,257.9,110.2z"/>
	<path class="st31" d="M290.9,341.7c-4.7,3-9.5,6-14.2,9c-0.2-0.4-0.5-0.8-0.7-1.1C280.9,346.7,285.1,342.8,290.9,341.7z"/>
	<path class="st23" d="M455.9,356.4c-1.3,4.3-3.5,8-6,11.5c-0.2,0.2-0.8,0.5-0.8,0.5c-3.3-4.2-6,0.1-9,0.4c-3.4,0.3-5.6-3.9-9.4-3.9
		c-0.7,0-0.3-3.5,1.6-3.7c2.8-0.2,3.9-2,5.6-3.6c3.9-3.8,9.1-4.1,14.2-3.9C453.6,353.6,455.4,354.4,455.9,356.4z"/>
	<path class="st36" d="M526.2,316.1c-9.3-0.1-18.2-2.7-27.4-3.9c-13.1-1.7-26.1-3.6-39.1-5.9c9.7-0.5,19.1,1.7,28.5,3
		c12.1,1.6,24.1,3.9,36.2,6C525,315.4,525.5,315.9,526.2,316.1C526.1,316.2,526.2,316.1,526.2,316.1z"/>
</g>
</svg>
