<?xml version="1.0" encoding="utf-8"?>
<!-- Generator: Adobe Illustrator 27.4.0, SVG Export Plug-In . SVG Version: 6.00 Build 0)  -->
<svg version="1.1" id="Layer_1" xmlns="http://www.w3.org/2000/svg" xmlns:xlink="http://www.w3.org/1999/xlink" x="0px" y="0px"
	 viewBox="0 0 720 720" style="enable-background:new 0 0 720 720;" xml:space="preserve">
<style type="text/css">
	.st0{fill:#4A3F5E;}
	.st1{fill:#345A69;}
	.st2{fill:#D1D5BE;}
	.st3{fill:#8FC1AA;}
	.st4{fill:#2F5260;}
	.st5{fill:#61B19C;}
	.st6{fill:#21252C;}
	.st7{fill:#7F614B;}
	.st8{fill:#755641;}
	.st9{fill:#505044;}
	.st10{fill:#4DA696;}
	.st11{fill:#1C5261;}
	.st12{fill:#141B21;}
	.st13{fill:#4BA393;}
	.st14{fill:#F1E8D5;}
	.st15{fill:#5FB19C;}
	.st16{fill:#27353D;}
	.st17{fill:#37483A;}
	.st18{fill:#405D49;}
	.st19{fill:#293131;}
	.st20{fill:#31342A;}
	.st21{fill:#E88297;}
	.st22{fill:#1D1C1D;}
	.st23{fill:#80B075;}
	.st24{fill:#474736;}
	.st25{fill:#34382B;}
	.st26{fill:#414333;}
	.st27{fill:#414433;}
	.st28{fill:#27362A;}
	.st29{fill:#26251D;}
	.st30{fill:#291F1A;}
	.st31{fill:#78A35F;}
	.st32{fill:#5E8952;}
	.st33{fill:#579262;}
	.st34{fill:#24382E;}
	.st35{fill:#F4E9D6;}
	.st36{fill:#19343F;}
	.st37{fill:#52A999;}
</style>
<rect x="0" y="0" class="st0" width="720" height="720"/>
<g>
	<path class="st1" d="M506.5,94.5c1.1,9.9,2.3,19.9,3.4,29.8c0.5,4.7,0.9,9.5,0.5,14.2c-3.7,6.5-13.4,7.8-18.7,2.5
		c-1.2-1.2-1.8-2.5-1.7-4.1c0.1-3.4-1.7-5.6-4.6-6.6c-4.7-1.6-8.9-4.2-13.3-6.5c-5.2-2.7-7-2.4-11.1,1.6c-1.5,1.4-3.1,1.8-5.1,1.9
		c-2,0-2.4,1.2-1.2,2.7c1,1.2,1.9,2.3,2,4c0.6,6.9-0.6,8.1-9.3,9.4c-11.8-4.2-23.2-9.6-35.3-13c-3.6-1-7.7-1.4-10.6-4.4
		c-0.6-1.7,0.3-3,1.3-4.2c5.6-6.8,11-13.7,16.5-20.7c1.2-1.5,2.5-2.8,4.3-3.4C441,77.5,456.3,55.5,477,38.4
		c6.4-5.3,7.1-5.2,10.6,2.2c7.9,16.5,15.2,33.3,18,51.6C505.7,93,506.2,93.7,506.5,94.5z"/>
	<path class="st2" d="M528,284.6c-0.8,4.5-1.7,8.9-2.5,13.4c-4.5,0.6-8-2.2-12-3.5c-20.7-6.7-42.2-9.7-63.4-14.3
		c-1.4-0.3-2.7-1-5-1.2c0.2,0,1.1,1.2,0.9,0.6c-0.1-0.3,0-0.4,0.4-0.3c19.1,4.7,38.7,6.8,57.5,12.6c6.5,2,13.7,2.5,19.1,7.4
		c-0.2,5.1-2.2,9.6-4.4,14.1c-1.9,1.3-3.2-0.5-4.6-1.1c-10.8-4.9-21.7-9.5-32-12.6c11.6,4.2,24.6,7.9,36,15.5c-2,2.7-3.3,5.6-3.4,9
		c1.2,3.2-1.1,5-2.8,7.1c-6.2,7.6-14.3,13.1-22.5,18c-29.6,17.7-61.9,27.8-95.9,32.4c-4.4,0.6-8.8,0.4-13.1,1.6
		c-2.3,0.4-4.5,0.6-6.8,0.4c-2.7-0.6-5.3,0.3-7.9,0.9c-13.7,0.7-27.5,0.7-41.2,0c-2.3-0.4-4.5-1.5-7-1c-1.7,0.3-3.4-0.1-5.1-0.3
		c-19-2.6-38.1-5-56.4-11.1c-12.1-4-24.4-7.4-34.9-15.2c-2.7-2-5.8-3.6-7.3-6.9c2.1-4.3,6.7-5.3,10.3-7.5
		c6.9-4.3,14.1-7.9,20.2-10.7c-10.2,4.4-20.6,11.2-31.5,17.1c-5-0.9-8.2-4.5-11.5-8c-2.4-2.6-2.2-4.5,1.2-6.3
		c14.2-7.6,28.5-15.2,43.6-20.8c9.1-3.4,18.3-6.3,27.7-8.9c-10,2.7-19.9,5.7-29.5,9.5c-14.4,5.6-28.2,12.7-41.7,20.2
		c-3.1,1.7-5.2,1.7-7.4-1.2c-2.8-3.7-2.6-5.3,1.4-7.6c7.3-4.1,15-7.2,22.9-9.9c18.5-6.5,37.6-11.1,56.6-16.2
		c0.7-0.1,0.1,0.7,0.1,0.1c-19.3,5-38.7,9.8-57.6,16.4c-8,2.8-15.8,6-23.2,10.2c-1.3,0.7-2.6,1.6-4.2,1.6c-3.3,0.1-4-1-2.8-4.6
		c1-3.6-5.1-5.7-2-9.8c-6.6-3.6-5.8-11.6-9.9-16.6c4.8-3.3,10.6-3.3,16-4.5c24.3-5.3,48.8-8.9,73.7-8.5c5.3,0.1,10.4,1.8,15,1.1
		c-6.8,0.2-14.2-1.3-21.7-1.1c-19.8,0.5-39.3,2.7-58.6,6.8c-6.8,1.4-13.6,3.1-20.4,4.3c-1.6,0.3-3.3,1.2-4.9-0.2
		c-0.6-4.4-1.6-8.7-3.2-12.8c6.5-3,13.7-3.1,20.6-3.9c15.7-1.8,31.4-3.3,47.2-2.7c12.1,0.5,24.2,0.7,35.4,1.3
		c1.6-0.2,0.7-1.1,0.9-0.5c0.1,0.3-0.3,0.6-0.6,0.6c-9.5-0.8-19-0.4-28.5-1c-23.2-1.4-46.1,0.8-68.9,4.4c-1.8,0.3-3.9,1.6-5.8,0
		c-0.6-4-1.8-8-1.5-12.1c2.3-4.3,6.4-6,10.9-6.7c17.8-2.6,34.6-8.2,50.9-15.8c3.9-1.8,7.9-1.9,12-1.2c3.2,0.6,5.7-0.2,7.2-3.3
		c2-4.2,6.8-4.2,10-6.6c2.1-0.7,4-0.3,5.7,0.9c4.3,5.1,10.3,6.2,16.2,5.8c4.6-0.3,9.4-0.9,13.9-2.7c10-4,20.4-3.1,30.7-1.1
		c2.7,0.5,5.6,1.6,7.3,4.3c-0.9,2.9-3.5,2-5.5,2.3c-1.8,0.3-4,0.1-4.7,2.3c-0.7,2.3,0.8,3.8,2.3,5.3c1.4,1.3,3,2.2,4.7,3.1
		c3.7,2.1,6.7,4.7,7.7,9c0.6,2.8,3.1,3.9,5.1,5.4c2.8,16.9,2.9,25.4-17.2,33.6c5,0.9,9-1,12.5-3.8c8.5-6.8,8.2-5.5,15.6-0.1
		c4.2,3.1,8.7,5.1,14.6,3.7c-21.6-6.9-25.1-19-21.5-34.5c2.7-1.4,4-3.7,5.1-6.5c2.1-5.5,6.3-7.9,11.6-7.1c3.7,3.5,8.2,4.6,13.1,4.6
		c2.9,0,5.8,0.2,8.6,0.7c4.7,0.8,8.2-0.5,11.7-4.2c5.2-5.4,11.8-8.1,19.5-5.3c6,2.3,12.4,1.6,18.6,2.5c4.7,0.7,9.3,1.8,14.1,2.4
		c1.3,0.2,3.1,0.4,3.2,1.9c0.2,1.9-1.9,2.3-3.3,2.5c-9.9,1.4-19.5,4.8-29.9,4.5c-0.1,0-0.1,0.2,0.3,0.2c1.4-0.3,2.7-0.6,3.6,0.9
		c-0.8,2-2.1,1.1-3,1.1c1.4,0.8,2.6-0.2,3.9-1.3c8-1.8,16.1-0.9,24.2-0.6c1.4,0,3.4,0.4,3.3,2.4c-0.1,1.6-1.9,1.5-3.1,2.1
		c-7,3.6-14.5,1.6-21.8,2.5c-2.7,0.7-5.6-0.3-7.3,0.6c1.9-0.8,5,0.1,7.9-0.7c1.2-0.1,2.3-0.1,3.5-0.1c6.3,0,12.6-0.5,18.9-0.4
		c19,0.5,37.9,2.2,56.4,6.7c4.9,1.2,10,2,14.9,3.5C525.3,281.8,527.6,282,528,284.6z"/>
	<path class="st3" d="M428.8,271.3c3.6-2,7.6-0.5,11.4-1.1c2.5-0.4,5.6,1.6,7.3-2.5c0.6-1.5,3.7,0.1,5.7-1.5c-9.2,0-18.3,0-27.5,0
		l0,0c-2.1-2.1-5,0.2-7.7-1.7c12.3-2.4,24.1-4.6,36.7-7c-10.6-1.3-20.4-3.9-30.5-3.6c-0.8,0-1.8-0.1-2.5-0.5
		c-6.1-3.9-12-2.2-17.8,0.8c-1.2,0.6-2.5,1.2-3.1,2.5c-2,4.7-5.9,6.3-10.4,5.3c-6.2-1.4-12.5-0.1-18.7-1.8c-3.1-0.8-5.2-2.2-6.4-5.2
		c0-1.7,1.3-2.7,2-4.1c2-3.7,0.9-5.7-3.3-6.3c-3.1-0.4-6.1,0.4-9.1,0.5c-6.5,0.2-13.3,1.9-19.2-2.5c-11.9-6.4-24.6-6.3-36.8-2.4
		c-7.5,2.4-14.6,3.8-22.2,2.5c-3.8-0.7-7.6-2-9.5-6c0.6-1.3,1.8-1.7,3.1-1.7c0.7,0.1,1.5,0.3,2.2,0.5c6,1.2,11.8,1.2,17-2.4
		c3.3-2.3,7.1-3,10.8-4.4c2-0.7,4.4-1.1,5.4-3.4c0.5-1.3,2.4-1.7,2.1-3.5c-5.8-7.1-11.3-14.5-18.6-20.2c-7-5.4-14.7-6.6-23.1-4.1
		c-5.9,1.8-11.4,4.6-16.8,7.3c-7.5,3.7-15.1,7-24.3,8.1c7.2,5.6,14.1,9.7,21.3,13.6c3.7,2.6,7.9,3.9,11.9,5.7
		c1.6,0.7,3.8,0.8,3.9,3.3c-4,3.6-9,6.1-12,10.9c-0.5,0.7-3,0.6-4.4,0.2c-5.2-1.6-9.8-0.3-14.7,1.9c-7.7,3.6-15.5,6.7-23.7,8.9
		c-8.8,2.3-17.4,5.3-26.6,6.1c-3.6,0.3-6.2,3.4-9.5,4.9c0-1-0.1-2-0.1-3c-1.2-4,0.2-8.2-0.8-12.3c-0.6-15.8,3.5-30.7,8.9-45.4
		c2.3-6.2,4.6-12.4,7.8-18.1c1-1.8,1.6-3.7,1.8-5.8c0.8-1.7,1.8-3.2,3.3-4.4c12.5-10.1,25.7-19.3,39.8-27.1
		c17.4-10.3,36.1-17.7,55.1-24.4c1.7-0.6,3.3-0.2,5-0.5c8.6-0.8,17.2-1.3,25.7-2.5c7.4-1.1,14.8-0.5,22.2-0.7
		c1.1,1.1,0.9,2.5,0.9,3.9c0.1,16.5-0.2,33,0.5,49.4c0,0.9,0.3,1.9,0.2,2c-0.9-15.9-0.7-32.5-0.6-49.1c0-2.1-0.9-4.5,1.3-6.2
		c5-1.8,10.1-0.9,15.2-0.9c6.7-0.1,13.5-1,20.2-0.4c6.9,0.8,13.7,1.6,20.6,2.6c1.4,0.2,2.7,0.4,3.9-0.3
		c15.6,5.1,31.3,10.1,46.3,17.1c3,0,5.6,0.9,8.3,2.2c16.8,8.7,33.2,18.1,48.9,28.7c1.6,1.1,2.8,2.5,3.9,4
		c5.7,13.4,11.4,26.8,15.2,40.8c3.5,12.7,6.2,25.6,5.3,39c-3.5,1.7-7,0.2-10.3-0.2c-14.7-1.6-29.5-1.7-44.3-1.3
		c-2.9,0.1-5.8,2.1-7.9,1.1c6-1.3,13-1,20-1.3c12.9-0.5,25.8,0.9,38.6,2.2c1.4,0.1,3.1,0.3,4.2,1.7c0.6,7.8-1.3,15.5-1.2,23.3
		c-5.7,0.6-10.9-1.7-16.2-3c-25.3-6.2-50.9-8.2-76.8-7.6c-1,0-2.1-0.1-3,0.4c-1.1,0-2.2-0.1-3.3-0.1
		C429.2,272.1,428.9,271.8,428.8,271.3z"/>
	<path class="st4" d="M292,127.4c-7.4,2.8-14.7,5.8-22.1,8.5c-13,4.8-25.3,11.2-37.6,17.5c-2.1-1.7-2.7-4.2-4-6.4
		c-4.2-7.2-10.6-9-18.3-5.5c-5.8,2.6-10.3,6-11,12.8c-0.2,2-1.5,3.5-3.7,3.5c-2.5,0-4.7-0.7-5.9-3.2c-1.1-2.2-1.7-4.6-0.9-7
		c1.3-4.3,0.9-8.3-1-12.3c1.8-30.5,6.2-60.5,17.4-89.1c2-5.1,3.5-5.3,7.8-1.8c20.6,17.2,38.4,37.1,55.8,57.4
		C275.9,110.8,282.7,120.3,292,127.4z"/>
	<path class="st5" d="M188.4,323.4c-0.1,5.4,3.2,3.4,5.6,2.3c7.9-3.8,15.8-7.4,24-10.2c0.4,0.3,1.2,0.3,1,1.1
		c-7.2,3.3-14.9,5.8-21.6,10.1c-1.2,0.8-5.1,0.9-2.3,4c1.8,1.9,2,6.3,7.1,3.3c22.2-13.1,45.7-23.3,70.7-29.6
		c0.8-0.2,1.6-0.2,2.9-0.3c-2,2.2-4.4,2-6.4,2.7c-2.2,0.9-4.5,1.5-6.8,2.2c-20.9,5.9-40.1,15.8-59.1,25.9c-3.6,1.9-2.6,3.4-0.7,5.4
		c2.9,3.1,6.3,5.6,10,7.9c0.2,0.1,0.4,0.3,0.6,0.4c-0.1,0.5-0.3,0.9-0.5,1.3c-8.6,5.1-16.7,10.9-24.7,16.9
		c-5.1,4.3-10.3,8.3-15.2,12.7c-1.3,1.1-2.8,2.7-4.5,1.5c-1.8-1.3-0.3-3.1,0.3-4.6c0.8-2,2.5-4.3-1.7-4.5c-2-0.1-4.4,0.1-4.9-2.5
		c-0.5-2.5,0.3-4.7,2.4-6.3c0.8-0.6,1.5-1.4,2.2-2c-1.1,0.8-2,2.7-3.7,1.4c-1.7-1.4-0.7-3.2,0.5-4.4c3.1-3.1,4.3-6.8,4.2-11
		c1.1-1.9,0.6-2.2-1.1-1.1c-4.7,3-9.4,6-14.1,8.9c-0.8,0.5-1.6,2.1-2.9,0.6c5.9-4.3,11.8-8.5,18.1-12.1c5.5-3.1,9.9-7.5,13.7-12.5
		C184.5,329,185.8,325.6,188.4,323.4z"/>
	<path class="st6" d="M187.5,135.5c4.1,3.2,4.2,7.1,2.7,11.7c-1.1,3.6-1.2,7.4,3.4,9.2c2.4,0.9,3.6,0.3,4.1-2.6
		c1.4-8.6,11.9-17,20.7-16c4.8,0.5,8.9,3.6,11,8c1.1,2.4,4,4.4,2.9,7.7c-15.2,9.1-29.8,19.2-43.6,30.3c-1.6-13.4-3.1-26.8-2.1-40.3
		c0.8-2-0.3-4.2,0.7-6.2C187.4,136.7,187.4,136.1,187.5,135.5z"/>
	<path class="st7" d="M172.6,280.4c21.5-3.4,43.1-5.9,64.9-5.6c12.9,0.2,25.8-0.2,38.7,1.6c1.7,0.2,3.4-0.1,5.1,1.9
		c-36.7-2.3-73-3.3-109,3.9c-6.6,1.7-13,3.8-19.8,4.4C158.9,283.5,165.9,282.6,172.6,280.4z"/>
	<path class="st8" d="M175.5,295c11.6-2.2,23.3-4.4,34.9-6.6c24.2-4.7,48.4-6.5,73-2.8c-36.4-3.2-71.9,2.7-107,11.5
		c-5,0.4-9.5,2.9-14.8,2.3C166.3,297.9,170.9,296.5,175.5,295z"/>
	<path class="st9" d="M342.1,124.2c0,19.4,0,38.7,0,58.1c-2.6-19.3-2.1-38.7-2.3-58.1c0.9-6.5,1-13,0.9-19.6
		c0.2-0.2,0.2-0.5,0.1-0.8C342.9,110.6,341.2,117.5,342.1,124.2z"/>
	<path class="st2" d="M170.2,253.1c1.7,4,0.6,8.2,0.8,12.3C169.3,261.4,170.3,257.2,170.2,253.1z"/>
	<path class="st4" d="M187.3,137.3c0.1,2.1,0.7,4.3-0.7,6.2C186.4,141.4,186.2,139.3,187.3,137.3z"/>
	<path class="st10" d="M80.9,590.4c3.1-41.7,10.8-82.6,23.7-122.4c1.1-3.3,1.8-6.9,4.1-9.8c2.2-0.3,3.6,1.1,4.8,2.4
		c25.3,28.1,58.6,43.3,92.7,57c25.9,10.4,52.6,17.8,80.3,21.3c0.8,0.1,1.6,0.1,2.3,0.3c1.9,1,4.1,0.3,6.1,0.6c1,0.1,2.1,0.1,3.1,0.4
		c2.1,0.6,4.2,0.3,6.3,0.6c1.7,0.2,3.4,0,5,0.3c3.4,1.6,6.9,0.2,10.3,0.7c3.1,0.3,6.1,0.1,9.2,0.1c11.5,1.2,23,0.4,34.4,0.5
		c5.9,0.1,11.8,0.3,17.7-0.1c1.8-0.5,3.6-0.3,5.4-0.4c2.3,0.2,4.5-0.2,6.7-0.9c6.1-0.8,12.3-1.7,18.4-2.2c1.8,0.1,3.7,0,5.4-0.6
		c0.5-0.1,1-0.2,1.5-0.3c1.9-0.3,4,0.2,5.9-0.7c0.7-0.2,1.4-0.3,2.2-0.4c1.5,0,2.9-0.2,4.3-0.7c0.7-0.2,1.5-0.3,2.2-0.3
		c1.8,0.1,3.5-0.4,5.2-0.9c16.2-3.3,32.6-5.6,48.5-10.2c32.4-9.6,62.9-23.2,90.2-43.5c1.1-0.8,2.2-1.6,3.3-2.4
		c7.8-5.4,8.9-5,11.1,4.5c3.1,13.3,4.5,26.9,6.6,40.3c1.7,12.7,3.3,25.4,3.4,38.2c0.1,8.2,2,16.3,0.8,24.6
		c0.7,10.6,0.4,21.1,0.3,31.7c0,3.1-0.5,6.1-2,8.9c-2,2.6-4.9,3.6-7.8,4.6c-31.7,11-64.2,17.9-97.7,20.2
		c-17.9,1.3-35.7,0.3-53.6-0.3c-2.9-0.1-5.9-0.4-6.9-4c-0.9-4-0.9-8.2-0.3-12.2c1.2-9,0.4-18,1.2-27c0.2-2.7-1.5-3-3.6-2.7
		c-3.7,0.6-7.4,1-11.1,1.4c-3.1,0.4-4.1,1.8-3.6,4.7c0.2,3.8-0.3,7.6,0.3,11.3c-0.6,7.7,0,15.4-0.6,23.1c-0.2,0.6-0.4,1.1-0.8,1.6
		c-1.9,1.6-4.5,1.2-6.7,2c-1.5,0.3-3,0.2-4.5,0c-4-1.6-8.6,0.3-12.6-1.7c-2-1.7-2.3-4.2-2.1-6.5c0.7-7.4,0.1-14.8,0.5-22.2
		c2-8.4,0.4-10.6-8-9.6c-10,1.2-20.1,0.7-30.1,0.8c-4.2,0-5.8,1.5-5.7,5.7c0.2,8.8-0.1,17.7,0.8,26.5c1.1,10.1-0.7,11.7-10.7,11.8
		c-2.6,0-5.1,0.1-7.7,0c-6.6-0.3-8.6-2-8.7-8.6c-0.1-10.4-1.8-20.7-1.1-31.1c0.3-4.6-1.4-6.3-6.1-6.3c-9.9,0-19.8,0.7-29.6-0.8
		c-3.7-0.5-5.2,1-4.8,5c0.9,9.7,0.4,19.4,0.3,29.1c-0.1,6.6-2,8.4-8.7,8.6c-3.9,0.1-7.8,0.3-11.7-0.2c-3-0.4-4.8-2-5-5.4
		c-0.4-11-1.8-22-1.5-30.9c0,8,0.5,18.2,1.6,28.3c0.6,5.2-1.9,6.9-6.6,7.3c-26.5,2.6-52.7-0.3-78.8-4.4c-26-4.1-51.5-9.8-76.3-18.7
		c-3.8-1.4-8-2.3-10-6.5C80.1,610.3,81.5,600.3,80.9,590.4z"/>
	<path class="st11" d="M435.8,647.7c0.3,2.1,1.8,2.1,3.4,2.1c12.4,0.3,24.8,1,37.1,0.9c21.9,0,43.5-2.9,65-7
		c19.9-3.8,39-9.7,58-16.3c3.3,3.2,1.2,6.7,0.8,10.2c-1,13.8-3.9,27.2-7.3,40.6c-0.5,1.8-1.5,3.4-3.3,4.4
		c-31.9,11.3-64.6,18.9-98.4,21.1c-17.3,1.1-34.6,1.4-52,1.2c-6.3-0.1-6.3,0-7.4,6.3c-0.9,4.8-1.2,9.8-3.6,14.3
		c-2.2,2.4-3.9,5.1-5.8,7.7c-4.8,6.7-9.9,8.4-17.5,6c-4.2-1.3-6.1,0.8-6.3,5.8c-0.4,9.3-0.3,18.7-3,27.8c-1.4,4.8-3.4,8.1-9.3,8.4
		c-5.8,0.3-6.4,2.2-2.9,6.8c2.1,2.9,1.8,4.7-1.2,6.7c-6.5,4.5-13.9,4.6-20.2-0.2c-1.7-1.3-3.6-2.2-5.7-1.8
		c-6.9,1.4-13.3,3.8-16.5,10.8c-2.4,5.2-12.8,7.9-17.5,4.5c-2.3-1.7-1.8-3.8-1-6c2.4-6.3,1.7-12.7,0.4-19.1
		c-0.8-3.7-2.6-5.3-6.6-3.4c-4.4,2.1-8.8,0.3-10.9-4.3c-2-4.2-3.2-8.6-2.3-13.4c1-5.3-1.3-8.6-5.7-11.3
		c-8.4-5.1-13.4-13.3-17.8-21.7c-1.1-2.1-2-4-4.5-4.2c-7.2-0.7-11.2-5.1-13.4-11.6c-0.5-1.3-1.5-2.3-2.2-3.4
		c-1.2-5.6-4.9-6.6-10.2-6.6c-42.3-0.6-84.2-5.5-125.3-15.7c-9.4-2.3-18.6-5.4-27.3-9.9c-2-1-3.9-2-5.3-3.9
		c-3.9-11.1-5.5-22.6-7-34.2c-0.8-6.2-1.5-12.5-1-18.8c17.3,8.3,35.7,13,54.2,17.2c17.3,3.9,34.8,7.1,52.5,9
		c18.5,2,37.2,3.8,55.9,1.5c0.2,0,0.3,0,0.5,0c8.2-0.7,8.3-1.3,7.3-9.9c-1.3-10.3-1.8-20.6-1.7-31c0-1.1-0.3-2.8,1.4-2.6
		c1.4,0.1,1.6,1.5,1.6,2.8c0,3.1,0.1,6.1,0,9.2c-0.4,9.4,0.8,18.7,1.1,28c0.1,2.9,1.1,4.4,4.2,4.4c4.8-0.1,9.5,0,14.3,0
		c2.7,0,4.1-1.1,4-4c-0.3-11.2,0.8-22.5-0.7-33.7c-0.5-3.7,0.6-5.7,4.5-5.2c12.2,1.6,24.5,0.8,36.7,0.9c2.8,0,3.5,1.2,3.4,3.7
		c-0.5,12.3,1.2,24.5,1,36.7c-0.1,4.3,1.6,5.8,5.7,5.6c4.6-0.2,9.2-0.1,13.8,0.1c3.4,0.1,4.6-1.3,4.2-4.6c-1.2-11.5-0.8-23.1-1-34.7
		c0-3.3,0.5-4.9,4.4-4.9c12.8,0.2,25.5,0.2,38.3-0.9c4.4-0.4,5.9,1.2,5.2,5.4c-0.3,2,0.4,4.1-0.9,6c-0.3-0.2-0.5-0.4-0.8-0.7
		c-0.1-0.1-0.3-0.2-0.4-0.3c0.1,5.1,0.1,10.2-0.4,15.3c-0.2,2.2-0.3,4.4-0.9,6.5c-0.6,2-0.2,4.8-3.1,5.3c-3,0.5-4.7-1.5-5.9-3.9
		c2.2,4.5,1.8,8.8-1.4,12.7c-1.1,1.4-2,2.8-0.3,4.4c2.6,2.5,2.6,5.8,2.1,9.1c-0.3,2-0.6,4-0.5,6.1c0.3,5.4,2.7,7.1,7.9,6.2
		c6.1-1,12.4-1.9,18.2,1.5c0.8,0.5,1.7,0.7,2.3,0.1c2.4-2.5,6-2.2,8.8-3.8c4.4-2.5,8.7-2.6,13.6,0.5c1.2-8.1,2-15.8,2-23.6
		C433.3,652.2,432.2,649,435.8,647.7z"/>
	<path class="st12" d="M259.7,709c3,2.1,2.7,6.1,5,8.7c2.2,2.6,4.4,4.5,8,4.6c4,0.2,6.7,0.9,7.2,6.2c0.6,5,5.9,8,8.6,12.4
		c2.3,3.7,5.2,6.8,9.7,8.5c4.8,1.8,6.4,6.7,5.3,12.5c-1.3,6.4,1.8,13.8,6.3,16.2c2,1.1,3.2,1,4.9-0.5c3.2-2.8,7.3-1.8,8.2,2.3
		c1.7,7.6,3.3,15.4-0.4,22.9c-1.4,2.8-0.6,4.2,2.5,4.3c2.4,0.1,4.8-0.1,7.1,0.1c3.4,0.3,5.1-0.8,6-4.4c1.1-4,3.7-6.5,8.3-8.4
		c3.6-1.4,6.7-3.6,10.9-3.8c1.9-0.1,3.8,0.2,4.7,1.4c2.7,4,6.6,3.7,10.8,4.1c4.3,0.4,7.1-2.2,10-4c3.2-2-0.8-3.3-1.8-4.2
		c-2.5-2.5-4.4-5.2-0.4-7.2c2.1-1,4.8-2.8,7.6-1.7c2.5,1,3.5-0.5,4.2-2.4c1.3-3.5,3.4-7.1,3.3-10.6c-0.4-7.6,2.7-15,0.8-22.6
		c-0.9-3.6,4.1-7.7,7.5-6.6c9.4,3.1,12.7,2,18.4-6.3c1.2-1.8,2.1-4,4.3-5c2.1,5.1-0.9,9.6-1.5,14.3c-5.2,19.1-11.5,37.7-19.4,55.9
		c-2.1,4.8-1.6,6,3.5,6.9c3.5,0.6,7.1,1.6,10.5-0.3c18.3-10.2,37-8.2,55.8-1.6c5.1,1.8,10.3,3.5,14.8,6.8c4.3,3.2,7.3,7.1,6.2,13
		c-1.2,10.8-5.1,15.2-15.7,17.7c-19.1,4.5-38.8,4.9-57.7,1.2c-13.9-2.8-27.3-0.4-40.9-1.3c-18.2-0.1-36.4-0.2-54.6-0.2
		c-15.5,0-31-0.4-46.4-1.9c-9.3-0.9-18,3.1-27.1,3.5c-13.7,0.7-27.1-0.2-40.6-2.5c-4.7-0.8-8.7-2.7-11.9-6.3c-0.6-1-1.3-2.1-1.9-3.1
		c-2.2-1.3-2.1-3.3-1.7-5.4c1.2-6.9,4.4-12.6,10.5-16.2c20.1-11.5,40.8-13.1,62.2-3.6c6.6,2.9,10.3,8.6,13.3,15.6
		c3.2-4.3,6.1-7.9,3.4-13.2c-10.7-21.4-18.5-43.9-23.8-67.3c-0.2-0.8-0.5-1.6-0.9-2.4c-2.1-6.8-2.8-14-4-21
		C258.3,712.5,258.2,710.6,259.7,709z"/>
	<path class="st11" d="M264.3,735.6c3.3,10.3,5.3,21,8.9,31.2c4.8,13.6,9.8,27.1,16.7,39.9c0.9,1.7,1.1,2.9,0,4.5
		c-0.8,1.1-0.8,2.7-1.6,3.7c-1.7,2-1.8,6.1-4.7,6.1c-3.2,0-1.4-3.9-2.6-5.9c-2.8-4.6-5.7-8.8-10.9-11.1c-21.5-9.4-42.3-8-62.1,4.4
		c-6.8,4.3-9.6,11.1-8.4,19.3c-14.6-6.2-26.8-15.9-38.7-26c-30-25.7-47.6-59.3-61.1-95.5c-0.1-0.3-0.1-0.7-0.1-1
		c2-0.9,3.6,0.2,5.3,1c30.4,15.1,62.9,23.1,96.3,27.7c19.6,2.7,39.4,2.8,59.1,1.4C261.7,735.1,263,735.3,264.3,735.6z"/>
	<path class="st13" d="M264.3,735.6c-2.4,1.9-5.5,1.9-8.2,2c-12.4,0.2-24.9,0.8-37.3,0c-20.8-1.4-41.3-5.1-61.5-10.4
		c-16.6-4.3-32.8-9.6-48.4-17c-3.2-1.5-6.3-3.4-9.4-5.1c-4.4-10.3-8-20.8-9.4-32c6.6,1.3,11.9,5.5,18.3,7.6
		c17.1,5.6,34.6,9.2,52.4,12.1c10.8,1.8,21.7,3.4,32.6,4.7c8.2,1,16.5,1.8,24.8,2.2c11.4,0.6,22.7,1.9,34.1,1
		c4.9-0.4,6.3,1.7,6.6,5.9c0,0.8,0.5,1.6,0.8,2.3C261.2,717.9,262.8,726.7,264.3,735.6z"/>
	<path class="st14" d="M417.6,539.4c-1.6,1.1-3.4,1.1-5.2,0.9c-2.1-2.4-4.7-1.3-7.1-0.9c-3.7,0.6-7.4,0.6-11.1,1.3
		c-1.6,0.3-1.5,0.9-0.9,2c-2,1.2-4.3,0.9-6.5,0.8c-1.7-0.9-3.3-2-4.8,0.2c-1.1,0.3-2.3,0.8-3.4,0.8c-15.7,0-31.3-0.1-47-0.2
		c-1,0-2-0.4-3-0.6c-3-1.5-6.1-1.6-9.2-0.2c-3.5,0.2-7.1,0.5-10.5-0.8c0.3-0.6,0.8-1,2.4-1.3c-3.1-0.6-5.2,0.2-7.2,1.1
		c-2.2,0.2-4.4,0.4-6.4-0.7c-0.8-1.6-1.8-0.8-2.8-0.3c-2.2,0.2-4.3,0.5-6.3-0.8c-0.5-1.2-1.2-0.7-1.9-0.2c-15.4-1.6-30.5-4.6-45.3-9
		c-33.3-9.9-65.2-23.1-95.1-41.1c-14.4-8.6-26-20.2-37.5-32c3.3-12.8,9.1-24.7,14-36.9c3.2-8,7.6-15.4,11.5-23.1
		c0.5-1.7,0.8-3.6,3.3-3.5c3.6,1.5,5.9,4.6,8.3,7.3c12.1,13.6,27.1,23.6,42.8,32.3c6.2,3.4,12.8,6.2,19.5,8.7
		c3.2,1.2,6.4,2.3,9.3,4.1c2.7,2.2,5.5,4.2,9.4,3.4c4.6,0.8,8.9,2.7,13.1,4.7c3,2.1,6.1,3.9,10,3.6c0.7,0.1,1.4,0.3,2,0.7
		c3.3,2.5,6.9,3.4,10.9,2c2.6,0,5.1,0.3,7.2,2.1c8.5,6.2,17.9,6.7,27.7,4.2c1.3-0.3,2.5-0.2,3.4,0.7c1.9,4.3,3.8,0.1,5.7,0
		c2-0.5,3.9-0.5,5.5,0.9c1.7,3.1,3.5,0.3,5.2,0c2.9-0.4,5.9-1.2,8.2,1.5c0.3,1.1-0.9,1.7-1.2,2.9c11.1,2,22,1.9,33,1.6
		c2.1-0.1,4.1-0.3,5.9,0.9c2,1.4,1.4,3.1,0.7,5c-0.7,1.9,1.6,2.8,1.9,4.5c0.5,3.3,2.6,0.7,3.7,0.7c4.1,0,8.2-0.1,12.2,0.9
		c4.2,1.1,8.7,6.1,8.9,10.1c0.2,4.2-3.5,8.6-8.8,10.2c3,2.6,3.7,6.1,4.2,9.5c0.5,3.3,2.5,4.7,5.6,4.8c5.4,0.2,10.9,0,16.3,0.8
		c0.3,0.1,0.9,0.2,1,0c3.5-4.7,10.2-3.6,13.9-7.6c2.8-3.1,5.2-1.8,7.4,0.3c2.5,2.5,3.6,5.7,4.1,9.2c0.6,4.1,1.5,8,3.7,11.5
		c-1.6,1.1-3.5,1-5.3,0.9c-0.7-0.5-1.4-1-1.7,0.3c-1.3,1.1-2.8,1-4.4,0.7c-0.7-0.3-1.4-1.8-1.9,0.1c-1.9,1.3-4.1,1.1-6.2,0.9
		c-0.4-0.3-0.6-0.7-1.2-0.7C417.3,538.8,417.4,539.1,417.6,539.4z"/>
	<path class="st15" d="M312.3,470.8c-2-1.1-4.2-0.9-6.3-0.8c-1.7,0.7-3.3,1.5-4.8-0.3c-1-0.7-2.1-0.9-3.3-0.7
		c-9.9,1.2-19.4-0.1-28.4-4.4c-2.3-1.4-4.9-1-7.4-1.8c-4.1,0.8-7.7-0.6-11.1-2.6c-0.4-0.1-0.8-0.3-1.2-0.4
		c-3.8,0.4-6.8-1.8-10.1-3.1c-4.5-1.7-9-3.3-13.4-5c-3.5,0.4-6.2-1.8-9.1-3.2c-9.8-4.1-20-7.4-29.2-12.6
		c-15-8.5-29.7-17.6-41.3-30.8c-3-3.4-6.3-6.6-9.5-9.9c-1-1.4,0-2.3,0.9-3.2c9.4-14.6,18.8-29.1,28.3-43.7c0.4-0.5,1-0.9,1.5-1.3
		c2.1,0.3,2.4,1.5,1.6,3.3c-1.6,3.3-1.3,7.7-5.6,9.5c-0.4,0.2-0.4,1.1-0.8,2.2c3.9-0.5,4.9-4.5,8.5-4.8c-2,2.1-4.1,4.1-6.1,6.2
		c-1.6,1.7-2.8,3.9-2.1,5.9c0.8,2.3,3.2,0.8,4.9,0.7c3.2-0.2,4.5,1.5,3.2,4.5c-0.8,1.9-2,3.5-2.4,5.9c6.1-5,12.2-10,18.3-15
		c0.7,0.3,1.2,0.6,1.3,1.4c-0.1,1.1-1.1,1.4-1.8,2c-1.5,1.3-2.4,3.2-4.2,4.3c2.1-1.2,2.9-3.7,4.9-4.9c5-2.4,8.3-7.3,13.3-9.8
		c1.5-0.8,2.7-2,4.3-2.6c3.7-1.4,5.1-0.1,4.5,3.7c-1.2,7.2,2.4,12.8,9.2,15c5.1,1.7,10.2,2.9,15.7,3.3c5.8,0.5,11,4.5,14.5,9.6
		c2.3,3.4,5.3,5.6,9,7.1c6.9,2.9,13.3,6.9,20.4,9.3c2.1,0.7,3.3,2.3,3.7,4.5c0.7,4.5-4.1,12.5-8.8,14.5c4.2,3.7,2.8,8.9,3.1,13.4
		c0.4,4.8,2.3,6.3,6.7,6.1c6.9-0.2,13.9,0.7,20.9-1.7c-1.4-2.1-4.6-2.3-4.8-5.1c-0.2-2.9,2.3-4.4,3.8-6.4c0.5-0.7,1.1-1.3,1.7-1.9
		c4-4.3,3.9-4.6-1.5-6.6c-5.4-2-10.6-12.8-8.3-18c1.4-3.2,4.7-3.7,7.8-3.8c2.5-0.1,5,0.7,7.8,0.6c-1.8-0.8-3.6-1.2-5.2-2.1
		c-2-1.2-4.6-2.1-4-5.2c0.6-2.9,2.4-4.8,5.3-5.6c2.3-0.6,4.7-0.1,7.6-0.8c-3.5-0.6-4-2-2.5-4.3c1.7,0.1,3.4,0.2,5.1,0.3
		c2,1.4,4.3-0.4,6.3,0.9c14.2,0,28.4,0,42.5,0c2.3-1.3,5,0.5,7.3-0.8c2.3-0.1,4.7-0.1,7-0.2c1.5-0.8,3.2-0.3,3.4,1
		c0.6,4.3,4,5.1,7.2,6.2c2.2,0.8,4.2,1.9,3.7,4.7c-0.5,2.6-2.1,4.2-4.8,4.7c-2.7,0.5-5.4-0.3-8.3,0.3c2.1,0.7,4,1.6,5.4,3.2
		c1,1.2,1.5,3,0,3.4c-4.4,1.2-7.4,6.1-12.8,4.5c-1.6-0.5-3.4-0.2-5.1,0.2c-5.1,1.3-8.3-0.4-9.4-5.7c-1.1-5.2-5.5-5-9.3-5.3
		c-4.2-0.3-4.2,3.4-4.6,6.1c-0.6,4-2,7.9-2.2,12c-0.3,4.9,0.5,5.7,5.3,5.6c1.7,0,3.7-0.6,4.5,1.4c0.9,2.1-0.7,3.6-2.1,4.7
		c-2.5,2-5.3,3.8-8,5.4c-3.7,2.2-7.1,0.4-7.9-3.8c-0.2-1.1,0.3-2.5-1.5-3.2c-1.4,1.4-1.4,3.7-2.5,5.3c-1.6,2.3-0.3,4.2,1.2,5.9
		c1.7,2.1,3.6,1.5,5.5,0.4c6.3-3.7,12.9-3.8,19.6-1.7c0.3,0.8,1-0.3,0.5,0.1c-0.2,0.1-0.2,0-0.4-0.2c-0.8-0.8-1-1.8-0.4-2.8
		c3.9-6.3,7.4-12.8,12.9-17.9c1.9-1.7,4.4-1.6,5.9,0.4c2.9,3.8,6.4,3.1,10.1,1.9c6.4-2.1,6.5-1.8,8.2,4.5c1.2,4.3,3.8,8.2,2.1,13.2
		c-0.6,1.8,2,2,3.4,2c3.8-0.1,7.5,0.7,11.2,0.9c5.9,0.3,7.6,2.5,6.4,8.2c-0.6,2.8,3,6,6.1,4.6c5.5-2.5,10.3-0.3,15.3,1.2
		c1.6,0.5,3.4,1.2,3.4,3.3c0,2-1.8,2.8-3.4,3.3c-3.3,1.2-6.9,1.3-10.1,0.6c-4.9-1.1-7.4,0.9-9.5,4.7c-0.4,0.8-1,1.4-1.7,1.9
		c-9.4,3.4-19.4,3.2-29.1,4.5c-13,1.8-26.1,2-39.1,3c-6.8,0.5-13.5-1.1-20.3-1.1c-1.4,0-2.7-0.5-3.5-1.8c-3.1-1.2-6.3-0.9-9.5-0.7
		C314.9,471.8,313.5,472.1,312.3,470.8z"/>
	<path class="st11" d="M496.3,820.4c-2.1-11.1-10.9-14.4-20.1-17.7c-13.3-4.8-26.8-7.5-40.9-4.7c-4.4,0.9-8.8,2-12.4,4.5
		c-6.3,4.5-12.5,2.6-18.8,0.6c-2.2-0.7-3-1.7-1.9-4.1c8.6-18.2,15-37.1,20.3-56.5c0.3-1,0.8-1.9,1.2-2.8c2-1.9,4.4-1.5,6.8-1.1
		c44.3,6.4,87.4,1.1,129.6-13c3.2-1.1,6.5-2,9.8-2.9c2.2-0.6,4.3-1.1,6.3,0.6c2.1,5.5-2,9.3-3.8,13.8c-5.8,10.6-11.5,21.2-18.6,31.1
		c-1.3,1.8-2.1,4-4.6,4.5c-10.8,12.1-21.9,23.9-34.6,34.2C508.7,811.6,502.5,816,496.3,820.4z"/>
	<path class="st5" d="M418.5,465.7c-0.2-4.7,4.7-8.1,8.9-7.2c3.9,0.9,8.2,1.2,12.2-0.3c0.8-0.3,1.8-0.6,1.8-1.6
		c0-1.3-1.2-1.6-2.1-1.8c-5.5-1-10.6-4-16.6-0.6c-2.5,1.4-5.2-2.2-7.2-4.2c-1.8-1.8-0.8-3.3,1.5-4.1c0.9-0.3,1.2-1.2,0.5-2.1
		c-1.5-1.7-3.1-3.6-5.5-3.2c-5.1,1-10-1.1-15.2-0.7c-2.9,0.2-3.5-2.5-2.1-4.8c1.8-2.9,1.7-5.3-0.7-7.8c-1.3-1.4-1.9-3-1.4-5.1
		c0.9-4-1.2-3.9-4.1-2.6c-1.5,0.7-3.1,1.3-4.8,1.6c-3.4,0.8-6.8,1.1-8.4-3.2c-0.6-1.7-2.2-1.4-3.5-1.2c-1.4,0.2-2.2,0.9-1.4,2.5
		c0.8,1.5-0.6,2-1.4,2.1c-4,0.5-4.8,4.1-6.1,6.8c-1.1,2.3-1.4,4.8-4,6.1c-2,1-0.8,2.1,0.3,3.1c1.1,1,3.6,0.4,3.6,3.4
		c-3.7-1.1-7.1-2.8-11-3.1c-4.6-0.4-8.7,0.2-12.6,2.5c-2.3,1.4-5.2,3.7-7.1,0.8c-1.6-2.5-7.1-5.1-1.9-9.6c1.9-1.6,1.4-4.4,1.6-7.3
		c2.9,1.7,7.1,1,5.1,6.5c-1.3,3.4,3.1,4.2,4.5,3c3.6-3.1,8.9-4.1,11.6-8.9c-2.3-1.8-4.2,0.1-6,0.1c-3.2-0.1-5.2-0.8-5.1-4.6
		c0-7.1,2.3-13.7,3.5-20.5c0.1-0.8,0.8-1.6,1.4-2c3.5-2.4,13.9,1.7,14.5,5.9c0.6,4.3,2.1,6.7,7,4.9c2.5-0.9,5.3-0.6,8-0.2
		c3.9,0.6,6.7-0.7,6.1-5.4c1.8-0.1,1.3,2.1,2.6,2.1c0.6,0,1.4-0.1,1.8-0.5c0.6-0.6-0.2-1.1-0.5-1.6c-2-3.3-6.4-1.9-9.2-4.6
		c3.5-1.3,6.7-1.9,10-1.3c2,0.3,4.2,0.7,5.6-1.4c1.4-2,2.2-4-1.3-5c-1.5-0.4-2.9-0.9-4.3-1.5c-2.2-0.9-5.9-0.7-3.7-5.1
		c0.7-1.4-1.3-2-2.7-2.2c7-1,14.1-1.8,21.1-3c22-3.6,43.3-9.8,63.7-18.9c10.9-4.9,21.4-10.4,31.2-17.7c5.1-3.8,9.4-8.4,14.4-12.2
		c1.9-1.4,3.3-3.4,3.8-5.9c12.2,13.5,21.8,28.7,30.4,44.7c3,5.5,6.3,10.8,9.5,16.2c2.4,1.2,3.2,3.5,4.4,5.6
		c2.8,5.7,6.1,11.2,8.3,17.2c0.2,1,0.7,2,0.6,3.1c0,0.6-0.1,1.1-0.3,1.6c-1.6,3.3-4.8,4.7-7.6,6.6c-38.8,26-82.1,39.3-127.7,46.2
		C427.8,466,423.1,469,418.5,465.7z"/>
	<path class="st16" d="M509.3,177.2c-5.8-3.7-11.6-7.5-17.5-11.1c-14.1-8.6-28.6-16.6-43.5-23.8c0.6-0.3,1.2-0.7,1.8-0.8
		c1.9-0.6,6.1-0.7,5-2.5c-1.7-2.6,3.8-7.2-2.6-8.1c-2.1-0.3-0.3-2.6,0-3.9c0.2-1.2,0.7-2.8,2.7-1.6c1.8,1.1,3.4,0.9,4.9-0.9
		c3.9-5,6-5.8,11.8-2.6c5,2.7,10,5.4,15.4,7.6c3,1.2,5.5,3.5,4.1,7.6c-0.6,1.8,0.6,2.7,2,3.6c5.5,3.5,10.6,2.9,17-2.1
		C511.6,151.5,510,164.3,509.3,177.2z"/>
	<path class="st17" d="M432.9,272.3c2-1.4,4.3-0.8,6.4-0.9c24.9-0.8,49.5,1.3,73.7,7.5c5.2,1.3,10.5,2.4,15.8,3.6
		c3.6,1.2,7.2,2.4,11.6,4c-5,0.6-8.5-2.5-12.5-1.8c-12.4-4.4-25.2-6.8-38.1-8.8C471.1,272.8,452,272.2,432.9,272.3z"/>
	<path class="st18" d="M523,299.3c-13.5-6.1-27.9-9.3-42.3-12.2c-12.3-2.5-24.7-4.3-36.8-7.8c6-1.3,61.8,11.5,81.6,18.8
		c1.2,0.9,2.4,1.8,4.3,3.2C527,300.4,525,299.8,523,299.3z"/>
	<path class="st19" d="M530.1,259.2c-21.6-3.7-43.3-3.7-65.1-2.4c21.6-3.9,43.2-2.1,64.8,0.2c3,0.9,6,1.8,9.4,2.7
		C535.9,260.6,533,258.3,530.1,259.2z"/>
	<path class="st20" d="M518,315.1c-12.2-5.9-24.6-11.3-37.3-15.9c13.3,2.8,25.4,8.9,37.9,14.1c0.6,0.6,1.2,1.1,1.8,1.7
		C519.6,315,518.8,315.1,518,315.1z"/>
	<path class="st5" d="M312.2,381.7c-0.6,2.6,1.7,3.4,3.1,4.7c-1.7,2.1-4,1.5-6.1,1.6c-2.1,0.1-4.1,0.3-5.2,2.5
		c-1.1,2.2-2.3,4,1.5,5.2c2.5,0.8,4.8,2.3,7.6,2.6c1.2,0.1,2.6,0.3,2.4,1.9c-0.1,1.3-1.5,1.1-2.5,1.1c-2.7-0.1-5.5,0.5-8.1-0.5
		c-2.7-1-5,0.4-7.3,1.2c-0.8,0.3-1.8,1.1-1.3,1.9c2,3.3,0.8,7.1,2.1,10.4c1.3,3.1,3.5,5.4,7.3,5.5c1.9,0,4,0.6,4.8,2.4
		c0.9,2-1,3.7-2.3,4.7c-2.2,1.7-3.5,4.1-5.5,5.9c-3.1,2.7-2.7,4.4,1.3,5.4c1.6,0.4,3.9,0.5,3.7,2.7c-0.2,2-2.3,2.1-4,2.4
		c-7.6,1.5-15.2,0.9-22.9,1c-4.3,0.1-6-2.3-5.3-6.2c0.7-3.7-2-7.1-0.5-10.9c0.7-1.7-2-2.3-3.4-3.2c-0.8-0.5-2.1-0.9-1.7-2.2
		c0.4-1.4,1.7-0.8,2.6-0.5c2.4,1,3.9-0.1,4.9-2.2c1.3-2.8,2.9-5.4,3.8-8.2c0.9-2.8-0.2-4.3-3.3-5.6c-8.6-3.4-17.1-7.4-25.5-11.5
		c-3.4-1.7-3.7-6.4-7.2-8.4c-4.8-2.8-8.5-7.7-15.2-5.5c-3.5,1.1-5.8-2.9-9-2.8c-8.1,0.4-9.5-7.4-14.1-11.2c-0.9-0.7,0-1.5,0.3-2.3
		c0.8-2.2,1.4-4.4,2.1-6.6c-2-0.9-3.5,0.2-4.4,1.1c-3.8,3.8-9.8,4.8-12.5,10c-1.2,2.3-3.1,1.6-4.8,0.7l0,0c0.3-0.6,0.7-1.2,1-1.8
		c2.3-4,6.6-5.6,10.1-8.2c4.6-3.4,9.5-6.5,14.5-9.4l-0.1,0c0.5-0.5,0.9-0.4,1.2,0.3c19.6,16.4,43.6,22,67.6,27.2
		C291.8,378.8,302,380,312.2,381.7z"/>
	<path class="st21" d="M335.7,242.7c8.6,1.6,17.2,1.1,25.9,0.3c3.2-0.3,7.3-1,8.7,3.2c1.4,4.3-1.4,7-4.9,9c-5.5,1.3-9.4,4-10.2,10.1
		c-0.4,2.9-1.8,4.7-5.1,3c-2.2-1.9-3.9-0.9-5.4,0.9c-3.4,1.6-5.1-0.8-5.4-3.3c-0.8-5.7-4.6-8.3-9.1-10.6c-2.3-1.2-4.4-2.6-5.7-4.9
		c-2.4-4.1-0.6-7.4,4.1-7.7C330.9,242.7,333.3,242.7,335.7,242.7z"/>
	<path class="st22" d="M344.6,269.2c0.4-2.2,0.4-4.6,2.5-6.1c1.9,1.3,1.8,3.5,2.9,5.2c0,2.4-0.1,4.8,0,7.1
		c0.2,15.2,8.7,24.3,24,25.8c0.4,0,0.9,0.2,1.7,0.4c-3.7,4.4-8.1,4.3-12.6,3c-4.8-1.4-8.8-4.4-12.4-7.8c-1.9-1.8-3-1.7-4.8,0.1
		c-2.2,2.3-4.8,4.3-7.6,5.9c-4.8,2.8-9.8,3.8-14.6-0.3c1-1.3,2.6-1.2,4-1.5c6.5-1.2,11.3-5.1,15.3-10.1c1.8-2.2,2.5-4.6,2.2-7.5
		C344.8,278.7,344.8,274,344.6,269.2z"/>
	<path class="st23" d="M270,235.7c-1,0.4-1.9,0.7-2.9,1.1c-1.6-1-3.4-1-5.1-1.2c-5.2-3.1-11.7-3.5-16.3-7.7
		c-1.8-2.3-4.4-3.7-6.6-5.5c-1.3-1-2.3-2.1-1.6-3.9c0.6-1.6,1.9-1.5,3.4-1.6c4.9-0.4,9.7-1.2,13.9-3.9c2.1-1.3,4.4-1.8,6.8-1.7
		c2.5,0,4.4,1.2,4.7,3.7c0.7,6.6,2.1,13,4.3,19.3C270.7,234.8,270.4,235.3,270,235.7z"/>
	<path class="st24" d="M450.3,294.7c-11.6-3.6-23.3-7.1-34.9-10.7c0.1-0.3,0.2-0.6,0.2-0.9c1.4,0.2,2.8,0.4,5.3,0.7
		c-1.6-1-2.2-1.4-2.9-1.8c0.1-0.2,0.2-0.5,0.2-0.7c14.6,3.9,29.2,7.9,43.8,11.8c-6.8,0.7-12.8-2.8-20.8-3.4
		c4.3,1.7,7.3,2.9,10.2,4.1C451.1,294.3,450.8,294.6,450.3,294.7z"/>
	<path class="st25" d="M450.3,294.7c0.4-0.3,0.7-0.6,1.1-0.8c18.5,7,37.2,13.6,54,24.4C487.6,309,468.8,302.1,450.3,294.7z"/>
	<path class="st26" d="M219,316.6c-0.3-0.4-0.7-0.7-1-1.1c19.3-6.2,38.8-11.8,58.6-16C257.5,305.6,237.9,310,219,316.6z"/>
	<path class="st27" d="M242.3,294.2c14.1-3.8,28.3-6.2,42.9-6.4C270.8,289.9,256.6,292.1,242.3,294.2z"/>
	<path class="st28" d="M214.1,349.5c-0.4-0.1-0.8-0.2-1.2-0.3c-0.1-0.3-0.1-0.6-0.2-1c11.6-6.7,22.9-14,35.7-18.3
		C236.9,336.3,225.1,342.2,214.1,349.5z"/>
	<path class="st17" d="M428.8,271.3c0.3,0.3,0.5,0.6,0.8,0.9c-3.1,0.4-6.2,0.7-9.9,1.1C422.8,270.7,425.9,271.6,428.8,271.3z"/>
	<path class="st5" d="M373.5,382c-2.2,2.7-4.9,0.1-7.3,0.8C368.5,381.5,371,382,373.5,382z"/>
	<path class="st5" d="M323.6,382.8c-2.1-0.7-4.6,2-6.3-0.9C319.4,381.9,321.6,381.5,323.6,382.8z"/>
	<path class="st3" d="M425.7,266.3c-1.1,1.3-2.5,1.3-4.1,0.6C422.9,265.9,424.4,266.5,425.7,266.3
		C425.7,266.3,425.7,266.3,425.7,266.3z"/>
	<path class="st29" d="M270,235.7c-3.1-5.2-4.2-11-4.7-16.9c-0.6-6.4-3.5-8-9.3-5c-5.1,2.7-10.1,5.5-16.1,4.3
		c-0.9-0.2-1.2,0.2-1.5,0.9c-0.4,0.8,0.4,1,0.8,1.6c2,2.6,6.1,3.4,6.5,7.3c-8.6-4-16.2-9.5-24.2-15c2.4-1.7,5.1-1.5,7.6-2
		c7.6-1.5,14.4-4.8,21.3-8.2c4.6-2.3,9.1-4.4,13.9-6.1c11.4-4,21-0.9,29.4,7.1c6.1,5.8,11.2,12.3,16.3,18.9
		c-1.3,2.5-2.7,0.6-3.7-0.2c-5.7-4.3-12.7-5.5-19.3-9.1c-0.5,8.2-1.3,15.7-5.5,22.4c-3.3,1.8-6.7,1.9-10.3,1.3
		C270.9,236.5,270.5,236.1,270,235.7z"/>
	<path class="st30" d="M384.7,221.3c6.2-7.4,12.4-14.9,20.3-20.7c9.9-7.2,20.5-9.2,32-4c1.7,0.8,3.5,1.3,5.1,2.3
		c10.5,6.2,21.7,10.1,34.9,10c-4.2,4.5-8.5,7.3-12.6,10.5c-3.1-3.6-7.1-4.6-11.7-5c-3.8-0.3-7.5-1.9-11.2-3c-5.1-1.6-5-1.6-5.1,3.9
		c-0.1,2.5,0.6,5.1-1.4,7.2c-0.5,2.1-0.9,4.3-1.4,6.4c-0.8,3.8-2.7,6.4-7.1,6.4c-4.7,0.1-7.6-1.9-9.1-6.5c-0.5-1.4-0.7-2.9-1.1-4.4
		c-4.1-4.5-1.7-9.9-1.7-15c-2.9-0.2-5,1-6.5,2.3c-5,4.2-11.5,5.7-16.8,9.3C389.4,222.3,387.1,223.4,384.7,221.3z"/>
	<path class="st31" d="M435,222.6c0-4.9,0-9.7,0-14.9c6,1.7,11.5,3.3,17,5c1.1,0.4,2.1,0.8,3.4,0.5c2.5-0.6,4.5,1.2,6.8,1.4
		c3.8,0.3-0.3,4.1,2.3,4.8c-5.3,4.6-11.6,7.6-17.9,10.6c-1.1,0.5-3.8,3-4.1-1.2c0-0.3-0.9-0.9-1.2-0.8
		C435.3,230.7,436.9,224.6,435,222.6z"/>
	<path class="st32" d="M384.7,221.3c0.1,0.1,0.2,0.4,0.3,0.4c2.4-0.4,17.6-8.7,19.6-10.1c2.7-1.8,5.7-3.3,8.8-4.5
		c1.9-0.7,3.7-0.2,3,2.7c-1.1,4.8-1,9.7,0,14.5c-4.3-2.2-8.7-1.1-12.1,1.1c-3,1.9-5.4,2.1-8.5,1.1c-3.5-1.2-7.1-2.2-10.7-3.3
		C383.8,222.9,383.6,222.3,384.7,221.3z"/>
	<path class="st33" d="M281.3,234.4c2.1-7.7,5.3-15.2,3.4-24.3c8.6,5,17.9,6.8,25.4,12.3c1.3,3.5-3,0.9-3.1,2.8
		c-1,1.5-2.6,2.2-4.2,2.7c-5.7,1.6-11.1,3.9-16.5,6.4C284.8,234.9,283.1,236.2,281.3,234.4z"/>
	<path class="st2" d="M281.3,234.4c8.6-3.1,16.7-7.5,25.7-9.2c-0.4,4-3.9,4.4-6.6,5.3c-4.4,1.4-8.5,3.1-12.4,5.4
		c-5.2,3-11,2.3-16.6,1C274.7,236.2,278.4,236.7,281.3,234.4z"/>
	<path class="st34" d="M517.6,267.1c-16.4-2-32.9-2.9-49.5-3.8c8.3,0,16.6-0.1,24.9,0C501.3,263.4,509.4,265,517.6,267.1z"/>
	<path class="st28" d="M213,349.1c-6.1,5.9-14,9.3-20.5,14.6c-1.3,1.1-2.7,2-4.1,3c-0.6-0.2-1-0.5-0.9-1.2
		c6.8-4.7,13.6-9.6,20.5-14.2C209.5,350.4,210.9,348.9,213,349.1z"/>
	<path class="st35" d="M587.7,475.7c-10.7,7.9-20.9,15.4-32,21.7c-24.2,13.7-49.5,24.8-76.6,31.1c-13.5,3.1-27.1,6.3-40.9,7.9
		c-7-0.6-3.4-6.9-5-10.3c-1.1-2.4-1.1-5.7-2.9-8c-1.5-1.9-3-6.8-6.5-0.8c-1.3,2.2-5.9,2.6-9,3.5c-1.5,0.5-3.5-0.3-2.6,2.8
		c0.6,2.1-1.9,1.5-2.8,1.3c-5.9-1.3-11.8-0.9-17.7-1c-3.9-0.1-7.1-1.1-7.2-6.4c-0.1-4.8-1.9-9.3-7.7-10.8c1.9-1.5,3.2-1.1,4.5-0.7
		c2.8,0.8,5.2-0.6,5.8-2.8c0.7-2.5,4-4.5,1.1-8.1c-4.7-5.9-11.9-8.6-20.9-6.3c-1.8,0.5-3.8,2-5.7-0.4c0.9-1.4,6.7-2.8,0.1-4.4
		c-2.3-0.6-1.5-2.2-0.2-3.4c0.7-0.7,2.7-0.4,2-2.3c-0.4-1.1-1.6-1.5-2.6-1.2c-8.5,2.4-17.1-1.1-25.8,0.4c-4.3,0.8-8.7-2-13.3-1.8
		c-1.7,0.1-1.1-1.7-0.4-2.7c1-1.5,2.8-1,4.2-1.2c29.8,2.2,59.3-1.5,88.8-5.1c1.3-0.2,2.6-0.7,3.9-1c21.5-2.6,42.6-7.4,63.6-13
		c29.5-7.8,56.2-21.4,81.5-38.1c1.3-0.9,2.6-1.7,3.4-3c3.5-0.1,3.9,2.8,4.8,5c2.8,7.5,6,14.8,8.2,22.5c0.6,2.1,1.6,3.9,2.8,5.4"/>
	<path class="st36" d="M435.8,647.7c-1.2,1.5-0.9,3.2-0.9,4.9c0.3,9.7-1,19.3-2.4,29.6c-2.8-3.5-6.2-6.8-9.8-4.6
		c-4.3,2.6-10.5,1-13.2,6.5c-1,2-2.6,0.9-3.2-0.3c-1.7-3.3-4.1-2.7-7.1-2.6c-4.5,0.1-8.8-0.2-13.4,1c-4.1,1.1-6.5-2.4-7-6.3
		c-0.4-2.8,0.1-5.7,0.5-8.6c0.4-2.9,2.5-7.2-3.6-8c-2-0.2-0.7-2.9,0.2-3.7c5.3-4.7,5.6-10,2.8-16c-0.4-0.9-0.8-2.2,0.6-2.6
		c1.5-0.4,1.4,1.1,1.8,1.9c0.5,1.1,1,2.2,1.6,3.2c0.8,1.4,2.1,2.4,3.7,2.2c2.1-0.3,0.8-2.1,1.2-3.2c2.3-7.6,2.5-15.3,2.4-23.1
		c0-1.1-0.2-2.4,1.3-3.1c1.3,1.2,0.4,2.9,0.8,4.3c0,8.5,0.1,17,0.1,25.5c0,1.2-0.4,2.4,0.8,3.3c4.1,0.9,8.3-0.3,12.4,0.7
		c1.3,0,2.5,0,3.8,0c2-1,4.3,0.3,6.3-0.8l0,0c1.1-5,0.4-10.1,0.4-15.1c0-3.1,1-4.4,4.1-4.2c1.2,0.1,2.4,0.1,3.6-0.1
		c5.5-0.7,6.6-3,3.3-7.3c-2-2.6-1.8-4.5,0.1-6.7c1.5-1.7,2.2-3.9,3.8-5.4c1.6-1.6,3.2-3.7,6-2C437.4,620.5,435.9,634.1,435.8,647.7z
		"/>
	<path class="st11" d="M436.7,606.9c-6.2,0.7-5.8,7.9-10.3,10.3c-0.8,0.4-0.1,1.5,0.8,1.9c3.5,1.5,3.9,4.6,3.3,7.7
		c-0.7,3.6-4.4,2.5-6.7,3.4c-1.2,0.5-2.8,0.4-4,0c-3.1-1-3.3,0.7-3.4,3.1c-0.3,4.8,1.2,9.8-1,14.5c0-8.2,0.1-16.5,0.1-24.7
		c1.6-4.1,0.3-8.1-0.2-12.2c-1.5-3-0.9-4.7,2.8-5.1c4.8-0.5,9.7-1.4,14.5-1.9C434.8,603.6,437.4,603.2,436.7,606.9z"/>
	<path class="st35" d="M393.3,542.6c-1.2-0.1-2.4-0.2-3.5-0.5c-0.5-0.2-1.3-0.8-1.3-1.3c-0.1-1.1,0.8-1.3,1.7-1.4
		c6-0.7,12-1.4,18.1-2c2.1-0.2,4.3-0.2,4.1,2.9C406,541,399.6,541.8,393.3,542.6z"/>
	<path class="st35" d="M304,542.3c3-4.1,6.6-2.9,10.4-1.3c-1.5,2.3-3.8,1-5.6,1.6C307.2,542.4,305.6,542.4,304,542.3z"/>
	<path class="st36" d="M415.4,610.9c0.6,4,4.2,8,0.2,12.2C415.6,619,415.5,615,415.4,610.9z"/>
	<path class="st35" d="M319.3,543.3c3.2-3.2,6.2-2.4,9.2,0.2C325.5,543.5,322.4,543.4,319.3,543.3z"/>
	<path class="st35" d="M382,543.6c-0.7-0.3-2.5-0.7-0.8-1.6c1.9-1,4.4-1.7,5.6,1.4C385.2,543.4,383.6,543.5,382,543.6z"/>
	<path class="st11" d="M405.4,648.6c-4.1,0-8.4,1-12.4-0.7C397.1,648,401.3,647.2,405.4,648.6z"/>
	<path class="st35" d="M417.6,539.4c-1.3-0.2-2.8,0.2-3.4-1.4c-0.2-0.7,0.3-1.3,1-1.4c2.2-0.5,3,0.8,3.3,2.7c0,0-0.4,0.2-0.4,0.2
		L417.6,539.4z"/>
	<path class="st35" d="M424.7,538.4c-0.8-0.2-2.1-0.3-2.2-0.7c-0.3-1,0.8-1.3,1.6-1.6c2-0.7,2.3,0.7,2.5,2.1
		C426,538.3,425.4,538.3,424.7,538.4z"/>
	<path class="st35" d="M431.1,537.5c-0.8-0.6-2.7-1.2-1.2-2.3c1.5-1,2.6,0.4,2.9,2C432.2,537.3,431.7,537.4,431.1,537.5z"/>
	<path class="st35" d="M286.6,540.2c0.2-1.1,0.7-1.9,2-1.7c0.6,0.1,1.4,0.5,1.2,1.3c-0.1,0.3-0.8,0.4-1.2,0.6
		C287.9,540.4,287.2,540.3,286.6,540.2z"/>
	<path class="st35" d="M294.8,541.2c0.6-0.9,1.2-2,2.6-1.4c0.9,0.4,1.1,1.1,0.2,1.8C296.6,541.5,295.7,541.4,294.8,541.2z"/>
	<path class="st11" d="M415.4,647.8c-1.9,1.7-4.2,0.9-6.3,0.8C411.1,647.4,413.3,648,415.4,647.8z"/>
	<path class="st37" d="M576.1,724.4c-1.5-1.6-3.1-0.7-4.7-0.1c-21.2,6.7-42.5,12.8-64.5,16.2c-20.3,3.1-40.6,3.4-61,1.7
		c-7.4-0.6-14.8-1.6-22.2-2.4c0.3-4.8,1.7-9.5,2.8-14.1c2.7-6.5,3.2-13.4,4.2-20.3c0.3-2,0.6-2.8,3-2.7c23.3,1.1,46.5,0.2,69.7-1.9
		c27-2.5,53.3-9,79-17.8c2.4-0.8,4.8-1.9,7.4-1.6c1.8,2.8,0.3,5.5-0.2,8.2c-2.7,9.8-5.6,19.6-9.2,29.2
		C579.6,720.9,579.4,723.9,576.1,724.4z"/>
	<path class="st35" d="M269.4,464.6c9.5,1.5,19,2.9,28.4,4.4c-0.9,1.5-2.3,1.8-3.9,1.9c-8.3,0.4-16.4-0.4-24-4.1
		C268.6,466.1,268.3,465.6,269.4,464.6z"/>
	<path class="st35" d="M250.9,460.2c3.7,0.9,7.4,1.8,11.1,2.6C257.5,465.3,254,463.4,250.9,460.2z"/>
	<path class="st35" d="M301.1,469.7c1.6,0.1,3.2,0.2,4.8,0.3c-1.3,2.5-3.4,3.3-5.7,1.7C298.3,470.3,300.1,470,301.1,469.7z"/>
	<path class="st35" d="M239.6,456.7c3.4,1,6.7,2.1,10.1,3.1C245.5,461.4,242.6,458.8,239.6,456.7z"/>
	<path class="st35" d="M217.1,448.5c3,1.1,6,2.2,9.1,3.2C222.2,453.3,219.6,450.8,217.1,448.5z"/>
	<path class="st35" d="M312.3,470.8c1.3,0.1,2.6,0.2,3.9,0.2c-1,2.8-3.4,2.3-4.9,1.4C309.7,471.5,311.6,471.1,312.3,470.8z"/>
	<path class="st35" d="M389.7,530.2c0.9,0.1,1.7,0.1,1.6,1.1c0,0.3-0.7,0.7-1.1,0.7c-0.7,0.1-1.4-0.3-1.4-1.1
		C388.8,530.6,389.4,530.4,389.7,530.2z"/>
	<path class="st35" d="M427.6,524.6c-0.4,0.4-0.7,0.6-1,0.9c-0.2-0.3-0.6-0.6-0.7-1c-0.1-0.2,0.3-0.5,0.4-0.7
		C426.7,524,427,524.3,427.6,524.6z"/>
	<path class="st5" d="M223.8,382.1c-1.2,1.8-2.6,3.4-4.7,4.1c-1.5,0.5-2.8-0.9-2.5-2.3c0.3-2.1,2-3.5,4.1-3.8
		C221.9,379.9,223.2,380.5,223.8,382.1z"/>
	<path class="st5" d="M333.9,400.2c1.5,0.2,3.7-0.2,3.4,1.5c-0.5,2.5-3.3,2.4-5.4,2.6c-1.4,0.1-3.9,0.3-3.4-1.6
		C329.1,400.4,332.1,400.9,333.9,400.2z"/>
	<path class="st5" d="M187.4,368.6c-1.2,4.2-3,7.6-9.1,6.9C181.5,372.5,183.8,369.8,187.4,368.6
		C187.4,368.6,187.4,368.6,187.4,368.6z"/>
	<path class="st5" d="M196.6,368.6c2.6,1.8,3.5,3.3,3.7,5.8C197.4,373.6,197,371.7,196.6,368.6z"/>
	<path class="st5" d="M212.7,378.6c-0.3,0.2-0.7,0.7-0.9,0.6c-0.5-0.2-1.2-0.7-1.3-1.2c-0.2-0.8,0.5-1.1,1.2-1.1
		C212.5,377.1,212.7,377.7,212.7,378.6z"/>
	<path class="st5" d="M169.4,390.2c1.8,0.5,2.7,1,2.8,2.4C170.7,392.8,170.2,391.8,169.4,390.2z"/>
	<path class="st5" d="M219.1,394.6c-0.4,0.3-0.9,0.7-1.3,0.7c-0.9-0.1-0.8-0.9-0.7-1.5c0-0.5,0.3-1.1,0.9-0.7
		C218.5,393.2,218.6,393.8,219.1,394.6z"/>
	<path class="st15" d="M377,416.5c3.1-3.8,9-4.8,11.7-2.7c0.3,0.3,0.7,0.9,0.6,1.2c-0.3,0.9-1,1.4-1.9,1.4
		C384.1,416.5,380.9,416.5,377,416.5z"/>
	<path class="st15" d="M416.6,423.7c-0.4-0.2-1-0.5-1.3-0.9c-0.4-0.6,0.2-0.9,0.7-0.8c0.6,0.1,1.2,0.4,1.6,0.8
		C418,423.3,417.4,423.5,416.6,423.7z"/>
</g>
</svg>
