<?xml version="1.0" encoding="utf-8"?>
<!-- Generator: Adobe Illustrator 27.4.0, SVG Export Plug-In . SVG Version: 6.00 Build 0)  -->
<svg version="1.1" id="Layer_1" xmlns="http://www.w3.org/2000/svg" xmlns:xlink="http://www.w3.org/1999/xlink" x="0px" y="0px"
	 viewBox="0 0 720 720" style="enable-background:new 0 0 720 720;" xml:space="preserve">
<style type="text/css">
	.st0{fill:#4A3F5E;}
	.st1{fill:#E59231;}
	.st2{fill:#FCBA2A;}
	.st3{fill:#F4A81D;}
	.st4{fill:#D45B72;}
	.st5{fill:#ECB94A;}
	.st6{fill:#ECBE70;}
	.st7{fill:#EA9542;}
	.st8{fill:#DD8E16;}
	.st9{fill:#B93401;}
	.st10{fill:#E09413;}
	.st11{fill:#E57718;}
	.st12{fill:#812104;}
	.st13{fill:#E29532;}
	.st14{fill:#FCF1DF;}
	.st15{fill:#F79E3B;}
	.st16{fill:#F2A923;}
	.st17{fill:#768B9E;}
	.st18{fill:#FDE0CC;}
	.st19{fill:#EBA424;}
	.st20{fill:#EF9F52;}
	.st21{fill:#D24801;}
	.st22{fill:#7F2204;}
	.st23{fill:#FCF0DD;}
	.st24{fill:#E26473;}
	.st25{fill:#142029;}
	.st26{fill:#A3AE5C;}
	.st27{fill:#A2AB5C;}
	.st28{fill:#162326;}
	.st29{fill:#8AB379;}
	.st30{fill:#6CAB7C;}
	.st31{fill:#F2CD7D;}
	.st32{fill:#EFD299;}
	.st33{fill:#EACC91;}
	.st34{fill:#EFC973;}
	.st35{fill:#F57D87;}
	.st36{fill:#3B1918;}
	.st37{fill:#6B8898;}
	.st38{fill:#6F899B;}
	.st39{fill:#F2B36E;}
	.st40{fill:#EC9C1C;}
	.st41{fill:#F9D9A3;}
	.st42{fill:#EE6204;}
	.st43{fill:#FD9A2E;}
	.st44{fill:#FCA038;}
	.st45{fill:#FCCDBA;}
	.st46{fill:#FC9C35;}
	.st47{fill:#11204C;}
</style>
<rect x="0" y="0" class="st0" width="720" height="720"/>
<g>
	<path class="st1" d="M191.8,754.7c-5.6-1-10.1-4.4-14.8-7.2c0-8.7,0-17.4,0-26.2c5-3.1,9.5-7,15.5-8.3c1.2,1.8,0.6,3.7,0,5.5
		c-2.9,10.4-3.1,20.8-0.3,31.3C192.7,751.5,193.1,753.2,191.8,754.7z"/>
	<path class="st2" d="M493.9,88.3c9.7,0.1,19.5,0.2,29.2,0.2c15.5,0,30.8,1.3,46.2,3.1c1.4,0.2,2.8,0.1,4.2,0.1
		c2-1.2,4.1-0.6,6.1-0.2c29.9,6.1,56.3,18.5,77,41.6c1.5,1.7,2.7,3.6,3.6,5.7c9.6,13.9,16.5,29.3,22.6,45c4.4,11.1,7.7,22.6,10,34.4
		c-1.3,2.4-3.7,3-5.9,4c-18,7.7-37,10.9-56.3,12.9c-22.8,2.4-45.6,5.9-68.6,4.8c-12-0.6-24-0.9-35.7-4.1c-9.5-2.6-18.3-6.7-26-13
		c-1.9-1.5-3.6-2.6-6.1-1.8c-6.3,2.1-12,0.4-17.5-2.6c-3.5-2.9-2.4-5.6,1-7.4c3-1.6,3.6-3.6,3.5-6.7c-0.2-5.9,1.1-7.1,7.2-7.2
		c2.2,0,4-0.9,5.8-2.1c1.6-1,3.2-2.2,5-2.9c7.6-2.9,8.5-4.4,7.9-12.7c-0.4-4.9-3.6-7-7.8-4.3c-3.9,2.4-6,1-8.3-2
		c-2.4-3.1-4.4-6.3-5.4-10c-1.4-5.1,0.5-7.5,5.7-6.7c4.7,0.7,9.4,1.4,14.4,1.6c-0.6-2-2.1-2.2-3.3-2.7c-7.4-3.5-9-7.5-5.6-15.2
		c1-2.3,2-4.3,1.7-6.9c-0.4-3.4,2.1-4.3,4.9-5c3.1-0.7,6.6,0,9.9-1.8c-2.5-3.5-6.3-4.1-9.4-5.7c-3.4-1.7-6.4-3.5-6.9-7.8
		c-0.2-1.9-1.9-2.8-3-4.1c-2.7-3.3-5-7.2-3.8-11.5c1.2-4.3,0.2-6.2-4.1-6.7c-0.7-0.1-1.2-0.6-1.6-1.3
		C487.4,88,490.8,88.9,493.9,88.3z"/>
	<path class="st3" d="M484.3,89.4c0.9,0.1,1.7,0.1,2.6,0.2c6.2,0.2,7,1.4,4.7,7.2c-1.3,3.1,1,9.7,4.3,11.7c1.9,1.2,3.4,2.2,2.6,4.9
		c-0.7,2.5,1.4,3.7,3.3,4.7c3.6,1.7,7.3,3.3,10.9,5c1.6,0.8,3.3,1.8,3,3.8c-0.4,2-2.4,2.3-4.2,2.4c-2.8,0.3-5.5,0.7-8.3,0.7
		c-3.7,0.1-5.1,1.2-2.8,4.7c0.8,1.2,1,2.5-0.1,3.2c-4.7,2.9-2.5,8-3.7,11.9c-0.5,1.7,1.2,2.1,2.6,2.6c2.4,0.9,4.8,1.9,7.2,3.1
		c1.1,0.5,3.3,0.8,2.4,2.6c-0.6,1.5-2,3.1-4.1,2.2c-4.5-1.9-9.5-0.8-14.2-2.4c-3.7-1.3-4.6,0.5-3.6,4.5c1.1,4.6,4,8,6.6,11.7
		c1.2,1.7,2.3,2.5,3.9,0.1c2.1-3.1,5.2-2.1,8.1-1.4c2.9,0.7,3.4,3.1,3.3,5.7c-0.1,2.6,0.3,5.3-0.1,7.8c-0.6,3.5-1.9,6.8-6.4,6.8
		c-2.2,0-3.9,1-5.7,2.3c-3.2,2.2-6.1,5.5-10.7,2.8c-1.6-0.9-2.5,0.8-2.9,2.1c-0.3,1.1-0.6,2.5-0.2,3.6c1.5,4.7,0.5,7.6-4.9,8.6
		c-2,0.4-2.9,2.4-1.4,4.6c0.7,3.5-2,5-4.2,6.6c-5.8,4.3-12.4,7-19.4,8.8c-31.6,8.2-62.4,5.4-92.8-5.7c-14.6-5.3-28.8-11.4-41.4-20.6
		c-2.1-1.5-4.4-2.8-5.3-5.6c-0.1-1.5-0.3-3,1-4.2c0.2-0.7,0.5-1.5,0.7-2.2c3.6-18.3,9.9-35.8,16.1-53.3
		c4.9-10.4,13.1-17.9,22.4-24.3c18.3-12.7,39.2-18.7,60.7-23c1.6-0.3,3.1,0,4.7,0.3c9.2-2.8,18.9-2,28.3-2.7
		C459.4,90,471.9,89.9,484.3,89.4z"/>
	<path class="st4" d="M418.7,93.7c-9.5,2.5-19.1,4.7-28.5,7.4c-16.2,4.6-31,11.9-43.9,22.8c-3.7,3.1-7.1,6.6-9.7,10.8
		c-1.5,2.4-3.3,4.5-5.5,6.1c-0.8-21.8,1.2-43.4,2.6-65.1c0.8-12.7,2.2-25.2,5.7-37.4c0.2-0.8,0.5-1.6,0.8-2.5
		c4.7-14.5,10-16.3,22.8-7.9c14.4,9.5,25.5,22.4,35.7,36.1C405.6,73.7,412.7,83.3,418.7,93.7z"/>
	<path class="st5" d="M717.8,685.5c-0.5,0.4-1,0.9-1.5,1.3c-8.8,5.2-18.6,7.6-28.5,9.7c-8.8,1.9-17.7,3.8-26.5,5.8
		c-2.5,0.6-5.1,1.3-7.5-0.5c-1.7-2.2-1-4.6-0.9-7c0.4-7.3,1-14.6-1.2-21.8c-1.1-3.7-3-4.8-7-3.8c-16.7,4.4-33.3,8.9-50.5,10.4
		c-2.8,0.2-5.5,0.6-8.3,0.1c-2.4-0.4-5.2-1.2-7.2-0.1c-9.8,5.2-20.5,2.4-30.7,4.1c-9.5,1.5-14.1-3.8-12.3-13.3
		c1-5.2,2.5-10.2,6.5-14c9-7.2,19.4-11.3,30.8-11.1c36.6,0.6,72.5-5.7,108.5-10.1c9.4-1.2,10.4-2.9,9.1-12.3
		c-0.7-5.2-3.7-10.2-1.4-15.8c0.6-1.5-1.2-1.8-2.4-2.1c-3.9-1-7.9-1.3-11.9-0.6c-17.8,3-35.8,5-53.8,6.7c-9.6-1.1-19.2-2.1-28.9,0.6
		c-4.3,1.2-8.5-0.1-12.2-3c-4.6-3.5-9.4-5.8-15.2-2.2c-2.4,1.5-5.4,1.6-7.7-0.7c-2.1-2.1-0.4-4.2,0.3-6.3c0.5-1.5,0.7-3.1,1.3-4.5
		c1.5-3.8,4.1-4.3,7.6-2.7c1.6,0.8,3.2,3.5,4.9,1.8c2.3-2.4,5.7-4,6-8.1c0.3-3.5-0.8-7.4,1.5-10.6c1.2-0.9,2.6-1.2,4.1-1.2
		c2.4,0.5,4.7-0.2,7-0.8c7-0.4,14-1.1,21-1.4c22.5-1.8,45.2-1.5,67.2-7.9c6-1.7,11.8-3.3,17.9,1.1c2.6,1.9,7.1,0.5,9.9-2.6
		c0.6-0.6,0.9-1.5,1.5-2.2c4.4-5.9,10-5.3,13.1,1.5c1,8.5,0.5,16.9,0.5,25.4c0.1,14.1,0,28.2,0.2,42.3c0.1,0.7,0.1,1.3,0,2
		c-0.6,2.7-0.7,5.5-0.7,8.3c0.4,14.4-0.1,28.7-1,43.1C719.1,684,718.7,684.9,717.8,685.5z"/>
	<path class="st6" d="M543.2,657.6c-4.7,4.6-5.4,10.8-6.2,16.7c-0.7,5.2,3.6,9.1,8.8,8.2c6.6-1.1,13.2-2.9,20-0.6
		c2,0.7,3.7-0.8,5.3-1.7c5-2.6,10.1-3.7,15.6-2.1c0.8,0.2,1.8,0.5,2.6,0.3c9.6-2.1,19.8-1.2,29.2-4.3c9.9-3.3,20.4-4,30.1-7.8
		c1.6-0.6,2.7-0.1,3.6,1.8c3.9,9,3.4,18.3,2.7,27.6c-0.1,1.9-0.5,3.8-0.7,5.7c-5.8,15.7-14.5,29.3-27.6,39.8c-1.4,1.1-3.2,1.3-4.7,2
		c-0.8,0.4-1.5,1.1-2.3,1c-11.6-0.5-23.1,2.1-34.7,1c-7.3-1.2-14.8-1.3-21.9-4.1c-14-5.6-26.3-13.5-34.4-26.6
		c-1.6-2.6-3.7-2.9-6.2-2.5c-4.7,0.8-9.4,0.6-14.1,0.6c-2.1,0-4.2,0.1-5.9-1.5c0-2.8,2.4-2.6,4.1-2.8c2.2-0.3,4.5-0.1,6.8-0.2
		c4.3-0.1,6.8-1.8,9.2-6c3-5.2,3.1-10.3,3.5-15.8c0.6-7.6,2.6-15,3.1-22.6C529.3,658.3,536.6,655.5,543.2,657.6z"/>
	<path class="st7" d="M431.2,745.2c-21.7,0.5-43-1.9-64.2-6.7c-2.3-0.5-4.6-1.6-7.1-0.6c-6.8-1.1-11.4-5.8-15.9-10.2
		c-6.4-6.3-12.4-13.2-15.6-21.8c-1.2-3.1-4.6-4.2-5.4-7.4c0.3-1.5,1.7-2.9,1.2-4.5c-3.1-9.7,3.1-17,6.4-25c2-4.9,5.7-6.7,11.1-5.2
		c6,1.7,11.8,2.3,18,1.8c4.4-0.4,9,0.7,13.1,2.8c4.3,2.2,8.8,3.2,13.6,2.4c1.4-0.2,2.8-0.4,4.1,0.1c10.9,3.7,22.6,3.7,33.6,7.4
		c6.5,2.2,13.3,2,20.1,0.8c2.9,2.1,2.7,5.4,3.1,8.4c1,7.5,1.6,15,1.5,22.6c0.3,18.2-10.6,28-26,34.1
		C425.9,743,428.8,741.1,431.2,745.2z"/>
	<path class="st8" d="M431.2,745.2c-2.5-1.9-5.7,0-9.3-1.9c6.9-2.7,12-6.7,17-11.1c5.2-4.6,7.3-10.2,8-16.8c0.2-1.6,0.3-3.1,1.1-4.5
		c1.6-2,3.9-2.1,6.2-2.1c14.2-0.1,28.3-0.1,42.5,0c2.1,0,4.2,0.2,5.7,1.9c6.8,0.1,13.5,0.5,20.2-0.6c3.7-0.6,6,0.3,8,4.3
		c5.3,10.4,15.2,16.2,25,21.7c9,5,19.4,6.1,29.1,9.1C533.5,745.8,482.4,745.4,431.2,745.2z"/>
	<path class="st9" d="M323.5,699.3c3.6,0.5,5,2.7,6.5,6.1c5.7,13.2,15.5,23,27.5,30.8c0.9,0.6,1.7,1.2,2.5,1.7
		c-12.4-0.5-24.1-4.4-35.9-7.4c-3.3-0.8-6.6-1.8-10-2.6c-5.3,0.6-9.9-1.7-14.2-4.3c-11.3-6.6-21.8-14.4-31.9-22.6
		c-1.5-1.2-2.9-3.5-5.4-2.1c-2.3,1.3-3.2,3.7-3.3,6.2c-0.2,15.2,4.9,27.9,17.4,37.2c1.9,1.4,4.6,2,4.8,5c-5.1,2.1-10.1,4.6-15.6,5.4
		c-3.9-0.4-6.2-3-7.9-6.1c-7.4-13.6-10.5-28.2-9.4-43.6c0.1-2.1,1.2-3.5,2.7-4.8c3.5-1.4,6.9-2.8,9.6-3.9
		c-4.9-5.3-10-10.7-15.1-16.1c1.8-2.6,4.1-1.3,6-0.5c21.4,8.6,43.6,14.2,66,19.3C319.9,697.2,322.1,697.4,323.5,699.3z"/>
	<path class="st10" d="M621.6,743.2c13.1-10,22.8-22.7,29.2-37.9c0.7-1.7,1.6-3.1,3.1-4c5.1,0.5,9.8-1.5,14.7-2.6
		c15-3.3,30.1-5.9,44.5-11.6c0.9-0.4,2-0.2,3.1-0.3c-8.5,12.1-17.4,23.8-28.6,33.6c-7.6,6.7-17.2,9.5-26.5,12.8
		C648.3,737.7,635.6,743.1,621.6,743.2z"/>
	<path class="st11" d="M281.5,747.2c-11.2-6.1-19-15.1-22.2-27.5c-1.2-4.7-1.8-9.5-1.8-14.4c0-3,1.3-5.3,3.1-7.5
		c2-2.5,3.8-2.3,6.1-0.3c10.5,9.4,22,17.3,34,24.8c4.2,2.6,9.2,3.1,13.4,5.6C304.3,736.1,293,741.8,281.5,747.2z"/>
	<path class="st12" d="M251.2,698c-2.4,20.2-0.2,39.1,14.7,54.6c-6.6,3.1-13.6,4.4-20.8,5.4c-4.8,1.3-7.9-1.1-10.2-5
		c-3.9-6.4-5.2-13.6-6.1-20.8c-0.9-7.8,0.4-15.5,2-23.2c0.6-2.6,1.7-4.9,3.9-6.6C240.2,701,245.7,699.5,251.2,698z"/>
	<path class="st13" d="M234.7,702.4c-2.4,8.4-4.4,17-4.1,25.8c0.3,8,1.8,15.7,5.4,22.9c1.9,3.8,4.7,6.3,9.1,6.8
		c-1.2,1.2-2.9,0.8-4.4,1.2c-7.3,0.9-14.6,1.2-22,0.7c-5.7-17.5-7.4-35.3-2.3-53.3C222.5,704.6,228.5,703.2,234.7,702.4z"/>
	<path class="st14" d="M313.9,200.5c24.7,19.5,53.6,29.5,84,33.8c21.8,3.1,44.1,1.7,65.1-7.4c5.2-2.3,9.8-5.3,13.2-9.8
		c1.5-0.4,2.7,0.4,3.9,1c4.8,2.2,9.6,3,14.5,0.5c2.4-1.2,3.6-0.6,5.6,1.4c8.2,8.3,18.7,12.6,29.9,14.7c20.1,3.8,40.4,4.2,60.8,2.4
		c16.6-1.4,33.2-3.3,49.7-5.3c17-2,33.4-6,49.1-12.9c0.9-0.4,2-0.6,3-0.9c2.6,6.4,4.5,13,5.2,19.9c-1.1,2.7-3.7,2.4-5.8,2.5
		c-44.6,2.2-87.7,12.3-130.6,23.9c27.1-7.4,54.4-14,82.1-18.7c16.1-2.7,32.4-4,48.7-5.2c3.4-0.3,5.2,0.7,6.1,4
		c0.7,2.4,1.4,4.7,1.6,7.1c0.4,3.6,0.2,6.9-3.6,9c-3.9,2.1-7.4,3.3-11.4-0.3c-3.4-3-10.6-1.7-15.1,2.7c-3.3,3.2-6.5,4-11.2,3.5
		c-7.9-0.9-16-1-23.9-1.2c-17.7-0.4-35.5-0.9-53.2-1.1c-0.7,0-1.4,0.1-2,0.3c-0.7,0.2,0.2,1.2,0,0.5c-0.1-0.2,0-0.3,0.2-0.4
		c2.9-1,5.9-0.5,8.8-0.4c22.9,0.8,45.9,1,68.8,2.1c2.9,0.1,5.8,0.7,8.7,0.9c4.6,0.4,5.8,3.3,3.4,7.2c-2.1,3.5-4.6,6.5-7.6,9.2
		c-1.1,1-2.8,2-2,3.9c0.6,1.4,2.1,1.7,3.6,1.8c6.6,0.5,13,2.1,19.3,4.3c0.8,0.3,1.7,0.3,2.5,0.7c1.5,0.6,3,1.5,2.6,3.4
		c-0.3,2-2.2,2-3.7,1.9c-3.1-0.2-6.3-1.1-9.1-2.1c-14.2-5.1-29-7.1-43.7-9.7c-20.9-3.7-41.8-7.4-57.9-11
		c29.4,7.5,64.4,10.8,99.1,19.5c-2.1,3-4.4,3-6.8,2.8c-3.8-0.4-7.6-0.9-11.3-1.9c-1.7-0.5-3.6-0.9-4.7,1c-2.5,4.7-7.1,5.2-11.5,6.1
		c-1.5,0.3-3.6,0.2-3.8,2c-0.2,2.3,2.1,2.3,3.7,2.8c2.7,0.8,5.5,1.4,6.1,4.9c0,0.6-0.2,1.1-0.5,1.5c-1.5,1-2.8,0.6-4.4,0
		c-27.6-10.6-55.1-21.3-76-28.8c19.6,6.7,45.5,17.6,72,27c1.2,0.4,3.2,0.6,2.9,2.3c-0.3,1.5-2.1,1.6-3.5,1.6c-3.4,0-6.5-1.3-9.5-2.7
		c-3.7-1.7-7.6-2.5-11.6-2.8c-2.2-0.2-4.2,0.8-5.4,2.6c-1.4,2,1.1,2.5,1.8,3.7c2.1,3.3,1.1,6.2-3.1,6.7c-4.2,0.6-6.6,1.2-4.4,6.3
		c1.2,2.8-0.4,5.2-3.6,5.7c-5.8,0.9-11.6,1.5-17.6,1.5c-9.6,0.1-19.4,1.2-27.5,7.6c-1.5,1.2-3.1,1.6-4.8,0.7
		c-2.1-1.1-2.8-2.9-2.9-5.2c-0.1-5.8-0.3-6-6-4.2c-6.1,1.9-12.7,2.4-18.2,6.2c-2.4,1.7-5,0.8-7.2-1c-1.9-1.5-3.5-3.4-5.3-5
		c-4.5-4.2-11.4-4.3-16.1-0.2c-3.6,3.1-3.3,5.5,1.1,7.3c3.2,1.3,6.7,1.8,10,3c1.6,0.6,3.8,0.8,3.5,3.2c-0.2,1.9-2.1,2.2-3.7,2.3
		c-8.6,0.4-17.3,2.7-25.8-0.7c-3-1.2-3.6,1-4.2,3c-0.8,2.6-1.1,6.1-5.1,5.2c-4.2-1-8.8-1.9-10.7-6.5c-0.9-2.2,0.7-3.5,2.6-4.4
		c1.5-0.7,3.1,0.3,4.6-0.3c-3.4-2.8-10.4-1.8-12.5,1.6c-4.4,7.2-10,8.4-16.5,2.7c-4.2-3.7-8.2-5.5-13.7-4c-2.1,0.6-4.2-0.1-6.1-0.8
		c-3.8-1.5-7.5-2.4-11.7-1.7c-3.9,0.6-6.3-1.2-6.8-5.3c-0.8-5.9-1.5-11.8-7.2-15.4c-1.6-1-1.8-3.3-2.7-5c-1.7-3.4-4.2-6-7.4-7.9
		c-1.8-1.1-3.6-1.6-5.9-0.5c-4.7,2.4-7.3,1-8.3-4.3c-1-5.7-2.7-6.9-8.4-5.1c-6.7,2.1-13.4,3.7-20.2,5.3c-2.4,0.6-5.7,2-6.7-2.3
		c9.6-4,19.6-6.8,29.4-10.1c13.6-4.5,27.3-9,34.8-11.5c-17.5,6-41.4,13.4-65,21.5c-0.7,0.2-1.3,0.6-2,0.5c0.7,0.2,1.4-0.1,2.1,0.4
		c-1.5,3.8-5.9,5.6-8.8,3.6c-2.1-1.5-2.6-3.3-0.5-5.2c1.4-1.3,3.2-2.1,5-2.8c8-3,15.3-7.5,23-11.3c1.4-0.7,3.8-1.3,3-3.5
		c-0.6-1.7-2.8-0.9-4.3-0.7c-3.4,0.5-6.9,1.3-10.3,1.6c-2.2,0.2-4.7,0.6-5.5-2.5c0.6-2.2,3.1-0.8,4.1-2.3c16-4.1,31.7-8.9,48-11.6
		c10.4-1.7,20.8-4.3,28.2-4.3c-14.2,1.2-31.4,4.6-48.5,8.6c-9.3,2.2-18.4,4.9-27.7,7.3c-3.5,1.6-7.2,2.8-10.7,4.4
		c-1.6,0.8-3.5,0.9-5.2,1.2c-5.8,0.6-11.3,2.8-17,3.8c-2,0.4-4.5,1.7-5.2-1.7c2.2-7,1.5-14.3,3-21.4c0.4-2.1,0.6-3.5,3.2-3.7
		c10.3-0.9,20.7-2.2,31-3.1c10.9-0.9,21.8-1.7,32.7-2c10.8-0.4,21.5,1.7,32.3,1c3.6-0.2,7.3,1,10.6-1.1c0.2-0.2,0.4-0.4,0.6-0.6
		c2.2-1,4.3-0.2,6.5,0.2c-36.4-4.3-72.6-10.4-109.3-13c-3.5,0-4.4-1.1-3.8-5.1c1.7-13.1,4.7-26,6.8-39.1
		C313.4,203.6,311.2,200.9,313.9,200.5z"/>
	<path class="st15" d="M217,535.2c-0.1-2.1-0.1-4.1-0.2-6.2c1.1-8.7,2.2-17.5,3.2-26.2c-0.2-4,1.3-7.7,2-11.5
		c2.4-11.8,4.4-23.8,7.3-35.5c4.3-17.1,10-33.8,13.9-51.1c0.2-0.9,1.1-1.7,1.7-2.6c3.3,4.7,1.8,9.7,0.7,14.5
		c-2.3,9.7-4.1,19.4-3.8,29.4c0.1,3.1-1,6.2-1.6,9.2c-0.4,1.8-1.4,3.6-0.1,5.8c3.1-2.6,5.1-5.6,5.2-9.7c0.1-2.4-0.1-4.9,0.4-7.3
		c0.9-4.4,3.1-7.7,7.8-8.7c2.1-0.4,3.9-1.5,5.9-2c4.7-1.2,8.3,0.4,9.8,5c1.2,3.6,3,2.2,4.6,1c2.5-1.8,4.3-4.5,6.7-6.6
		c2.2-1.9,4.6-2.9,7.1-1.3c5.3,3.4,11.3,4.2,17.1,5.9c7.3,2.1,14.5,4.7,22,6.6c3.4,0.9,6.9,1.3,10.2,2.4c2.9,1,6.2,1.7,7.2,5.3
		c-2.7,8.7-5.4,17.4-8.4,26c-5.8,16.7-11.1,33.5-12.2,51.4c-0.4,7.3-1.1,14.6-1.5,21.9c-0.2,4.4,1.8,6.6,6.1,7.5
		c3.2,0.7,7.2-0.2,9.2,3.7c-0.6,2.4-2.6,1.9-4.2,1.9c-7.6-0.1-15.2-0.3-22.6-2.6c-7-2.1-14.2-3.2-21.4-4.2
		c-14.4-4.4-29.4-6.8-43.8-11.2c-8.1-2.5-16-5.5-24.1-8.3C219.6,537.4,218.1,536.7,217,535.2z"/>
	<path class="st16" d="M343.3,451.5c-6.6-5.3-15.2-4.4-22.5-7.3c-0.9-0.4-2.2,0-3.1-0.4c-8-3.7-16.7-5.2-25.1-7.6
		c-0.8-0.2-1.9-0.3-2.4-0.9c-5-5.8-8.4-2-11.6,1.9c-2.2,2.7-4.6,4.8-8,6c-2.9,1-3.9,0.2-3-2.4c1.3-4.2-1.2-5.3-4.2-6.1
		c-6.7-1.8-16.6,5.5-16.2,12.5c0.3,5.7-1.1,10.4-4.5,14.9c-1.1,1.5-2.2,2.2-3.9,1.8c-2.1-0.5-2-2-1.5-3.7c1-3.9,1.9-7.9,2.8-11.9
		c0.8-3.9-0.4-7.7,0-11.8c1.3-11.5,5.9-22.5,4.8-34.3c0.6-2.8,1.3-5.6,1.9-8.3c-0.5-1.1-0.3-2,0.9-2.6c3.3-0.2,4.8,2.4,6.8,4.3
		c10.6,9.8,21,19.7,33.5,27.2c8.5,5.1,17,10.1,26.4,13.6c3.8,1.4,6,0.9,8.1-2.6c4.5-7.6,8.4-15.7,15-21.9c2.8-2.7,5.7-5.1,9.9-5.1
		c15.9,5.5,31.7,11.5,47.9,16.1c15,4.3,30.2,8,45.9,9.4c6.3,0.5,12.8,1.5,18.6,4.3c1.2,1.7,1.6,3.8,0.7,5.4
		c-2.4,4.1-0.9,7.8,0.1,11.8c1.3,5,0.7,10.3-0.1,15.5c-0.8,5.1-4.9,4.4-8.5,4.7c-15.5-0.8-30.5-5-45.8-6.6
		c-19.5-2.1-38.2-7.3-57-12.1c-1.2-0.3-2.3-0.7-3.4-1.3C344.7,453.4,344.2,452.3,343.3,451.5z"/>
	<path class="st14" d="M411.2,262.2c-15.5-0.5-30.9-1.9-46.4-1.1c-16.4,0.9-32.8,1.8-49.2,3.9c-3.6,0.5-7.3,0.1-10.9,1.1
		c-2,0.6-2.8-0.4-2.4-2.6c0.6-3.6,0.8-7.2,1.3-10.8c0.3-2.2,1.9-2.1,3.5-2.2c4.3-0.1,8.7-0.1,13-0.2c5.3-1.7,10.8-0.6,16,0
		c23.6,2.5,47.1,6,70.6,9.6C408.4,260.2,410.9,259.2,411.2,262.2L411.2,262.2z"/>
	<path class="st17" d="M411.3,262.2c-8.8-2.7-18-3.2-27-4.6c-19.2-3.1-38.4-6.1-57.8-7.1c-2.1-0.1-4.2,0-6.3,0
		c-3.5-2.1-7.7,0.4-11.2-1.6c39,0.2,77.1,7.4,115.4,13.6C420,264,415.7,261.6,411.3,262.2z"/>
	<path class="st18" d="M313.9,200.5c-0.6,1.4-1.3,2.7-1.9,4.1c0-2.2-0.1-4.4,0.1-6.6c0.1-1.1,0.2-2.7,2.1-1.7
		C314.1,197.7,314,199.1,313.9,200.5z"/>
	<path class="st19" d="M323.5,699.3c-10.7-1.1-21-4.3-31.4-6.9c-14.4-3.6-28.7-7.9-42.5-13.9c-1.1-0.5-2.4-1.8-3.8-0.5
		c-6.1-7.3-8.4-16.4-11.4-25.1c-2.7-7.8-4.9-15.7-7.3-23.6c0.6-3.8,3.6-3.7,6.4-3.8c3.2-0.1,6.2,0.9,9.2,1.6
		c15.9,3.9,32.1,5.9,48.4,7.6c15,1.6,30,4,45.1,5.6c12.9,1.3,26,1.2,39.1,1.7c13.6,1.3,27.3,1.7,40.9,3.1c4.8,0.5,9.3,1,11.4,6.5
		c0.6,1.7,2.7,2.6,4.2,3.8c6.2,4.9,10.1,11.4,12.4,18.8c0.5,1.7,1,3.4-0.3,4.9c-4.9,5.7-11.5,3-16.4,1.6
		c-12.1-3.5-24.9-3.9-36.8-8.3c-1.2-0.4-2.8-0.3-4.1,0.1c-4.5,1.3-8.7,0.1-12.5-1.7c-6.1-2.9-12.2-4.6-18.9-3
		c-4.9,1.1-9.1-1.4-13.7-2.4c-5.3-1.2-7.7,0-9.6,5.1c-1.4,3.7-2.6,7.2-5.3,10.4c-2.4,2.8-1.3,7.6-0.2,11.6
		C327,695.5,326.7,698,323.5,699.3z"/>
	<path class="st20" d="M376,643.8c-19-0.8-38-1-57-3.6c-14-1.9-28-4.3-42.3-4.9c-13.5-0.5-26.6-4.7-39.8-7.6
		c-3.5-0.8-6.9-1.3-9.8,1.6c-4-10.6-5.5-21.7-7.2-32.7c-0.4-2.4-0.6-4.8-0.9-7.2c1.5-1.3,3.3-1.2,4.9-0.7c20,6.1,40.6,8.7,61.3,10.7
		c20.9-0.1,41.5,3.1,62.1,5.4c8.3,0.9,16.6,0.8,24.8,2.5c3.8,2.7,4.2,7.3,5.3,11c2,7,2.5,14.3,1.1,21.6
		C378.2,641.7,377.5,643,376,643.8z"/>
	<path class="st21" d="M284.6,601c-22.3-1.2-44.1-5.5-65.6-11.5c-3.4-18-4.6-36-2-54.2c2.5-0.1,4.7,1,7,1.9
		c19.4,7.6,39.6,12.2,59.8,16.9c1.8,0.4,3.7,0.8,5.2,2c2.2,2.4,1.8,5.2,1.1,7.9c-1.7,7.4-2.3,14.7,0.5,21.9c0.3,0.8,0.3,1.7,0.5,2.6
		C292.3,596,291.8,597.1,284.6,601z"/>
	<path class="st22" d="M216.6,706.6c1.7,3.8-1,7.2-1.1,10.9c-0.2,12.6-0.3,25.2,3.5,37.4c0.5,1.7,1,3.3-0.1,4.9
		c-9.3-0.3-18.3-1.7-27-5.1c-5-14-4.7-27.9,0.7-41.7C199.9,708.4,208.4,708.3,216.6,706.6z"/>
	<path class="st23" d="M298.4,296.6c1-2.2,3.1-1.7,4.8-2.2c6-1.9,12.4-2.3,18.1-5.1c0.8-1.7,2.1-0.2,3.1-0.5
		c2.6-1.5,5.2-2.6,8.3-1.9c4,3.3,7.9-0.5,11.9,0c1.1,0.1,2.4-0.5,3.5-0.7c2.7-0.6,6.1-1.6,7.2,1.9c1.1,3.6-2.6,4.4-5,5.5
		c-8.5,4.2-16.7,9.2-25.7,12.5c-1.3,0.5-4.1,0.5-3.2,3c0.9,2.4,3.1,2.2,5.3,1.2c1.4-0.6,3-0.9,3.9-2.4c0-0.4,0-0.9,0.5-1
		c0.2-0.1,0.4,0.2,0.6,0.4c0.9,1.6,2.3,1.2,3.7,0.8c6.7-1.7,13.5-3.3,20.1-5.3c2.5-0.8,5.1-1.5,7.6-1.4c3.5,0.2,6.8,1,5.1,6
		c-0.8,2.5,0.6,4.6,2.4,5.9c2.2,1.6,2.7-1.2,3.8-2.3c1.2-1.1,2.5-1.2,3.9-0.7c1.1,0.4,2.2,1,3.3,1.6c5.6,3.2,6.8,10.7,11,13.8
		c6.1,4.5,6.1,10,7,15.6c0.6,3.5,2,5.8,5,4.7c4.7-1.8,8.5,0,12.5,1.6c2.6,1,4.8,1.3,7.5,0.5c4.5-1.4,8.6-0.5,11.6,3.5
		c2.4,3.2,6,4,9.5,4.5c3,0.4,5.1-1.2,5.3-4.4c0.2-3.7,2.7-4.5,5.6-4.9c1.2-0.1,2.4,0,3.7-0.1c7.3-0.8,7.3-0.8,7.7,6.9
		c-0.5-0.1-1.1-0.1-1.4-0.4c-1.8-1.5-3.5-3.2-6-1.6c-0.9,0.5-2,1.3-1.4,2.5c1.1,2.1,3.1,3.2,5.3,4c0.3,0.1,0.7,0,1,0.2
		c4.8,3,6.8,1.2,7.3-4c0.5-4.8,2.9-5.5,6.7-2.8c1,0.7,2.2,1.4,3.3,1.4c8-0.2,16-0.1,24-2.2c-3.2-0.9-6.3-1.9-9.5-2.8
		c-3.7-1.1-8.4-1.3-8.9-6.3c-0.3-3.2,6.3-7.6,10.3-8.4c5.8-1.1,10.1,0.8,13.5,5.4c3.4,4.5,6.4,5.9,12.4,2.3c6-3.6,13.7-4.4,20.8-6
		c2.7-0.6,4.3,1,3,4.1c-0.5,1.3-1.1,2.6-1.2,3.9c-0.1,1.7,1.1,2.9,2.6,3.6c1.1,0.5,2.3,0.2,2.8-0.8c3.2-6.3,9.9-5.3,15.1-7
		c10-3.1,20.8-0.7,31.1-2.7c2.8-0.5,2.9-2.1,2.3-4.1c-0.4-1.3-1.3-2.5-1.8-3.7c-1.2-2.8-1.3-5.1,2.9-3.9c1.9,0.5,3.4-0.5,5.1-0.5
		c1.1,0,2.1-0.3,2.4-1.6c0.2-1.3-0.1-2.4-1.3-3.1c-1.6-0.9-5.2-1.5-3.5-3.7c1.8-2.5,4.6-5.8,8.6-4.9c4.3,0.9,8.8,1.1,13,3.5
		c3,1.8,6.6,3.2,11.9,2.1c-29.4-11-57.7-21.6-86.2-32.3c2.5-1.3,4.3,0.1,6.1,0.8c21.2,7.9,42.3,16,63.5,23.7
		c7.2,2.6,14.1,6.1,21.7,7.3c2.6,0.7,5.3,1.4,7.8,2.4c-2.5-1-5.2-1.7-7.8-2.4c-0.5-2.9-2.2-4.1-5.1-4.2c-1.2,0-2.5-0.2-3.5-0.7
		c-1.9-0.8-4.5-2-4.1-4.1c0.6-2.6,3.5-4.1,6-4.2c6.4-0.3,7.2-0.9,10.5-5.7c1.5-2.1,4.4-2.2,7.2-1.2c5.1,1.8,10.4,2.5,15.9,1.9
		c-35.5-9.4-72.4-12.5-107.9-22.1c0.1-0.4,0.2-0.8,0.2-1.2c5.3,1,10.7,1.8,15.9,3.1c24.6,6.1,49.8,9.1,74.5,14.4
		c10,2.1,20,4.3,30,6.4c1.2,0.2,3,1.8,3.5-0.2c0.5-1.8-1.6-1.8-2.9-2c-7.6-1.4-14.7-4.6-22.7-4.6c-2,0-4.1-1.4-4.7-3.6
		c-0.7-2.3,1.7-2.9,2.9-3.8c4.4-3.5,7.5-8.1,10.5-13c-2.9-2.5-7-2.8-10.5-2.9c-6.4-0.2-12.8-1.4-19.2-1.3
		c-21.4,0.3-42.7-2.1-64.2-1.2c4.4-2.3,9.2-2.6,13.8-1.8c7,1.3,13.9,0.8,20.8,0.8c16.9-0.1,33.7,0.8,50.5,1.9c2.5,0.2,4.8-0.7,6-2.6
		c3.4-5.4,9.3-5.5,14.3-7.3c2-0.7,3.7,1.6,5.3,2.8c1.3,0.9,1.8,3.9,3.8,2.5c2.7-1.9,7.2-1.4,8.2-5.5c1.2-4.6-0.1-9-2.3-13.1
		c-1.2-2.3-3.7-1.8-5.7-1.5c-17.9,2.1-35.9,2.9-53.6,6.3c-16.2,3.1-32.3,6.9-48.3,10.6c-10.6,2.5-21.1,5.6-31.7,8.4
		c-0.7,0.2-1.3,0.5-2.3-0.9c9.5-2.7,18.7-5.5,28-7.7c20.4-4.8,40.8-10.1,61.5-13.3c10.4-1.6,20.9-2.7,31.5-3.7
		c7.3-0.7,15.1,0.7,22-2.9c3,10.7,4.5,21.6,6.3,32.6c1.3,8.2,2.2,16.5,3.7,24.6c0.7,3.7,0.3,7.3,0.6,10.9c0.1,1-0.5,1.3-1.2,1.5
		c-2-0.3-2.5,1.2-3.2,2.7c-2.2,4.9-4.9,9.5-7.3,14.4c-3,6-6.8,7-13.3,5.7c-5.9-1.1-10.2-6.1-16.4-6.2c-1.5-1.1-3.2-1.8-5.1-1.9
		c1.6,0,3.1,0.6,4.5,1.5c3.5,1,7.6,1.1,8.8,5.9c0.4,1.5,2.9,1.6,4.6,2.2c3.4,1.2,6.4,2.7,7.5,6.5c0.2,2.7-1.6,4.4-3.2,6.2
		c-5.8,6.4-12.8,11.4-19.4,17c-19.5,14.4-41.8,23-64.4,31.2c-18.9,3.9-37.9,7.4-57.2,9.3c-13.4,1.3-26.8,1.2-40.2,1
		c-55.1-0.9-106.3-15.4-152.7-45.5c-2.9-1.9-5.9-3.7-8.8-5.6c-10.9-7.7-20.8-16.5-28.8-27.3c-1-1.4-2.1-2.7-2.4-4.5
		c1.9-5.8-3-7-6.3-9.1c-3-2.8-4.9-6.3-5.5-10.4C298.3,299.2,299.9,297.9,298.4,296.6z"/>
	<path class="st24" d="M660.1,138.8c-8.3-7.1-15.1-15.9-24.2-22.2c-17.7-12.3-37.4-19.8-58.4-23.9c-1.4-0.3-2.7-0.7-4-1.1
		c10.6-19.9,21.2-39.9,38.3-55.3c6.3-5.7,13.7-10,22.2-12c8.9-2.1,14,0.8,16.6,9.4c3.8,12.9,5.4,26.2,6.3,39.5
		c1.4,20.1,3.6,40.2,3.4,60.4C660.3,135.3,660.2,137,660.1,138.8z"/>
	<path class="st25" d="M593.2,221.3c-6.5,1.1-13.1,1.9-19.6,0.1c-3.4-4.3-1.1-9.3-1.8-14c-0.3-2,1.1-4.7-0.9-5.8
		c-2.1-1.1-4.2,0.9-6.2,1.9c-3.8,2.1-6.9,5.1-9.7,8.5c-1.6,2-3,4.3-5.8,5c-0.8,0.2-1.3,1.5-2.3,0.9c-1-0.6-0.3-1.4,0.1-2.1
		c6-13.2,20.2-20.7,34.5-19.2c10,1.1,18.7,5.1,26.9,10.4c4.1,2.6,8.1,4.5,12.9,2.7l0.2,0.3c-1.8,1.7-5.3,2.2-4.5,6
		c-2.7,0.6-4.5-1.4-6.5-2.6c-4-2.5-8-4.7-12.4-6.5c-2.8-1.2-3.6-0.4-3.6,2.6C594.8,213.4,596.4,217.7,593.2,221.3z"/>
	<path class="st26" d="M549.3,217c5.3-8.2,11.7-15.1,21.5-17.8c2.5-0.7,3.2-0.6,3,2.4c-0.4,6.6-0.2,13.2-0.3,19.8
		C565,222.5,557,220.8,549.3,217z"/>
	<path class="st27" d="M593.2,221.3c0.1-4.8,0.6-9.7-0.5-14.5c-0.9-3.8,0.7-3.7,3.4-2.7c7.7,2.8,14.6,6.9,21.1,11.8
		C609.8,220.3,601.4,220.4,593.2,221.3z"/>
	<path class="st25" d="M621.5,209.7c1.1-0.6,2.2-1.2,3.7-2c-0.8,1.9-2,2.2-3.4,2.2C621.7,210,621.5,209.7,621.5,209.7z"/>
	<path class="st28" d="M378,211.6c0.4-4-3.8-3.2-5.8-5.2c2.5-1.3,5.2,1.4,7.6-0.9c-1.5-2.4-4.7-2.5-6.3-4.6c1.4-0.9,2.3,0.4,3.3,0.9
		c3.7,1.7,6.8,1.9,10.6-0.3c7.8-4.5,16.5-6,25.5-6.2c10.5-0.2,17.4,5.5,22.5,14.1c-3.8,0.9-5.4-2.4-7.8-4.2c-2-1.5-4.1-4.4-6.5-3.3
		c-1.9,0.9-0.4,4.1-0.8,6.3c-0.7,4,1.9,8.7-2.3,12c-6.1,0.3-12.1-0.6-18-1.9c-2.9-3.8-0.6-8-0.7-12c-0.1-4.3-1.3-5.2-5.1-3.4
		c-3.9,1.9-7.9,3.5-11.2,6.3C381.6,210.5,380.2,212,378,211.6z"/>
	<path class="st29" d="M418.1,220.2c0.8-7.1,0.3-14.2,0.3-21.8c4.9,0.7,8.7,3.3,12.1,6.4c1.7,1.5,3.4,3,5,4.5c6.6,8,6.6,8-3.5,10.2
		C427.4,220.5,422.7,220.7,418.1,220.2z"/>
	<path class="st30" d="M378,211.6c5.5-6.2,12.8-9.3,20.4-11.8c2.3-0.7,3.4-0.6,2.9,2.6c-0.8,5.3-1,10.7-1.4,16.1
		C392.5,216.9,384.5,216.7,378,211.6z"/>
	<path class="st31" d="M600.7,390.8c21.6-7.8,42.9-16.2,61.7-29.7c0.5-0.4,1.3-0.5,1.9-0.8c4.4,1.4,6.4,5.1,8.3,8.8
		c3.3,6.3,6,12.9,10.3,18.6c2.4,3.2,4.7,3.9,8.3,1.6c6.5-4.3,13-8.6,19.4-13.2c4.6-3.3,6.4-2.7,9.1,2.1c0-2.9-1.7-6.3,1.8-8.7
		c0.6,0.1,1,0.4,1.3,0.9c1.4,3.2,1.1,6.5,0.8,9.8c0.1,4.1,0.8,8.2-0.4,12.3c-0.7,2.5-3.1,1.5-5.1,2c2.2,1.8,4.9,2.5,5.3,5.3
		c0.8,7.5,0.7,15.1,0.1,22.6c-1.5,15.9,0.3,31.9-1.2,47.7c-1.7,12.1-1.6,24.3-1.5,36.5c0,3.7,0.2,7.3-0.3,11
		c0.7,12.8,0.3,25.7,0.2,38.5c0,1.9-0.3,3.8-2.1,5.1c-1.1-2.5-3-3.5-5.8-3.1c-2.6,0.3-3.8,1.8-4.8,4.1c-2.5,6-11.1,7.7-15.7,3.2
		c-1.7-1.6-3.3-1.8-5.6-1.4c-9.4,1.6-18.3,5.1-27.8,5.9c-9.1,0.8-18.2,2.4-27.3,2.7c-6.9,0.3-13.8,0.9-20.7,1.1
		c-0.7-1.4-0.2-2.7,0.2-4.1c0.5-1.6,0.1-2.8-1.6-3.2c-3.5-0.8-5.2-3.4-5.9-6.6c-1.4-6.6-5.9-11.4-9.4-16.7
		c-2.6-3.8-7.2-4.1-11.4-2.9c-12.2,3.5-24.1,2.3-35.8-1.9c-2.4-0.9-4-0.3-5.6,1.3c-6.5,7-15.3,7.6-23.7,7.1
		c-12.6-0.8-25.1-3.3-37.5-6.3c-7.7-1.9-9.1-5.1-4.4-11.5c0.6-0.9,0.6-1.4,0.4-2.2c-0.6-2.6,0-5.2,0.7-7.7c2.4-9.6,5.1-11.4,14.8-10
		c5.1,0.7,10.1-0.5,15.1-0.8c1.3-0.1,2.3-0.7,2.8-2c1.3-3.4,4.1-4.3,7.2-3.9c5.5,0.6,11.1,0.6,16.7,1.3c4.5,0.6,5.2,1.9,3.3,5.7
		c-1.3,2.7-1.5,5.6-2.7,9.7c3.2-3.5,4.7-6.1,5.2-9.3c0.7-3.7,2.9-5.3,6.7-5c12.3,0.7,24.1-1.5,36-4.6c10.7-2.8,22.1-2.3,33-5
		c1.2-0.3,2.5-0.2,3.6-0.7c3.6-1.6,9.1-0.1,10.7-4.1c2-4.9,2.4-10.4,0.7-15.9c-1.2-3.9-2.1-5.9-7.2-4.8c-15.1,3.4-30.5,5.8-45.9,7
		c-20.9,1.6-41.8,4.1-62.9,2.8c-9.5-0.6-12.3-3.1-13.4-12.5c-0.1-0.9-0.2-1.7-0.3-2.6c-1.4-8.6-2.4-9.5-11.1-9.4
		c-1.9,0-3.8,0.1-5.7-0.4c-6.9-1.8-11.4,0.6-13.7,7.5c-1.1,3.4-2.4,6.6-4.7,9.2c-3.8,4.2-9.6,4.8-12.9,1.3c5.3,0.8,7.5-1.6,7.1-6.7
		c-0.4-5.5,2-11.4-2.5-16.4c-1-1.1-0.8-3.2,0.4-4.3c2.5-2.3,2.4-5.2,2.1-8.2c1.7-2.2,4-1.6,6.3-1.4c22.1,1.8,44.2,3,66.2,0.2
		c20-2.6,40.2-3.5,59.9-8.3c4.2-1,5.4-3.2,4.9-7c-0.6-4.5-1.4-8.8-1.3-13.5c0.2-6.1,2.5-10.3,8.1-12.9
		C601.9,393.3,600.2,392.9,600.7,390.8z"/>
	<path class="st32" d="M452.1,472.5c9.5,3.2,14-2.9,15.5-10.2c1.1-5.7,5.7-8,9.2-11.4c0.5-0.5,2-0.6,2.4-0.2
		c4.9,4.5,11,1.8,16.4,2.7c3.1,0.5,4.6,1.1,4.9,4.4c0.3,3.2,1.7,6.3,1.8,9.7c0.2,7.1,2.2,10,9.3,9.9c16.6-0.2,33.4,2.5,49.8-2.5
		c0.8-0.3,1.8-0.5,2.6-0.3c11.4,2.6,22.3-1.8,33.5-2.6c10.1-0.8,19.8-3.5,29.7-4.9c1.5-0.2,2.7-0.4,2.8,1.8c0.1,1.1,0.7,2.3,1.2,3.3
		c3.3,6.3,0.8,12.8,0.4,19.2c-0.1,1.4-1.4,2.5-2.9,2.7c-9.9,1.3-19.6,4.2-29.5,5.6c-7.7,1-15.4,1-23,3.6c-6.9,2.3-14.5,4.5-22.4,2.9
		c-2.9-0.6-6.4,0.8-9.7-0.2c-1.5-0.4-2.9,0.7-2.9,2.3c0.1,3.7-1.1,6.7-3.8,9.3c-0.8,0.8-0.7,2.6-1.1,4.2c-3.5-1.6-6.4-2.8-2.9-7.5
		c1.5-2-0.6-6,3.3-7.6c0.9-0.4-0.5-1.5-1.6-1.6c-6-0.4-12.1-0.3-18.1-1.2c-2.5-0.4-6.9-1.5-5.3,4.3c0.4,1.6-1.5,1.8-2.6,1.7
		c-6.9-0.4-13.6,2.1-20.7,0.3c-5.9-1.5-8.7,1.3-10,9.5c-0.5,2.9-3.4,7.2,2,9.2c0.2,0.1,0.3,1,0.1,1.3c-0.4,0.7-1.2,0.7-1.9,0.3
		c-3.8-2.4-3.6,1.5-4.2,3c-1.1,2.5,0.8,4,2.9,4.6c2.3,0.7,4.7,1,7.1,1.3c8.2,1.1,15.9,5.3,24.4,4.1c0.8-0.1,1.8-0.2,2.6,0.2
		c7.2,3.3,14.3,0.8,21.4-0.6c2.9-0.6,5.4-1.8,7.1-4.7c1.8-3.1,4.3-4.3,8.2-1.7c4.6,3.1,10.5,3.4,15.9,3.5c6.5,0.2,13.1,1.2,19.4-2.4
		c3.7-2.1,10.8,2.3,13.3,6c3.9,5.9,8.4,11.5,9.4,18.9c0.2,1.3,1.4,2,3.1,2.1c5.4,0.3,5.9,1.5,3.2,6.2c-0.5,0.9-1,1.8-1.5,2.8
		c-7.3,0.4-14.6,1.6-21.9,1.2c-2,1.1-4.4-0.3-6.3,0.9c-1.4,0-2.7,0.1-4.1,0.1c-1.9,2.4-4.6,2.9-7.5,3c-18.5,0.2-36.9,0.1-55.3-1.8
		c-6.6-0.7-13.2-0.8-19.8,0.5c-7.4,1.4-14.8,1.8-22.3,0.3c-12.7-2.4-25.6-2.3-38.5-2.1c-6.8,0.1-13.6-0.6-20.3-1.5
		c-7.2-1.8-14.9-0.7-21.7-4.3c-2.4-3.9-2.5-8.3-2.6-12.6c-0.4-17.9,1.3-35.7,3.9-53.5c0.9-6.4,0.9-6.7-5.4-7.8
		c-15.8-2.7-31.5-5.7-46.9-10.1c-7.9-2.3-8-2.5-6.2-10.3c1.7-7.1,4.5-13.8,6.9-20.6c0.4-1.1,0.3-3,2.4-2.8
		c17.2,4.2,34,10.2,51.7,11.8c16.6,1.5,32.6,7.1,49.4,7.1C448.4,471.4,450.3,472.1,452.1,472.5z"/>
	<path class="st33" d="M376,643.8c2.7-7.9,1.5-16.1,0.3-23.9c-0.6-3.7-3-7.4-3.5-11.5c2.1-2.5,5.1-2.3,7.7-2
		c12.1,1.3,24.4,0.4,36.4,2.3c5.6-0.3,11.1-0.1,16.7-0.2c1.2,0,2.5,0.2,3.6,0c8-1.8,15.6-2.4,23.6,0.8c4.1,1.7,9.2-0.8,13.5-2.8
		c3.5-1.7,6.9-2.2,10.6-1.4c11.1,2.7,22.3,3.1,33.7,1.6c6.5-0.9,13.2,0.3,19.6,2.4c3.9,1.3,7.7,1,11.8,0.8
		c9.9-0.6,20.1-2.1,29.6,2.6c0.6,0.3,1.3,0.6,2,0.4c11.7-2.5,23.6-3.2,35.5-2.7c1.1,0,2.5,0.1,3.5-0.8c15.6-2.3,31.4-2.5,46.9-5.8
		c8.4-1.8,17.1-2.9,25.9,1.8c-6.7,4.7-2.1,10.2-1,15.2c0.9,4.4,0.2,8.5,0.1,12.8c-0.1,2.3-2.8,2.6-4.5,2.9
		c-8.4,1.3-16.8,2.4-25.2,3.5c-9.8,1.3-19.6,2.5-29.4,3.6c-8.4,1-16.9,1.7-25.3,2.7c-12.5,1.4-25,0.6-37.5,1.2
		c-10.1,0.5-19.2,4.5-27.4,10.3c-3.9,1.2-8.9,0.4-11.7,3.7c-2.7,3.2-0.2,8.1-1.3,11.9c-2.2,7.6-2.3,15.4-3.1,23.1
		c-0.5,4.5-2.9,9.5-7.4,12.5c-1.6,1.1-3.3,0.9-5,1.1c-4.1,0.4-8.3-0.9-12.3,0.9c-18.1,0.1-36.3,0.1-54.4,0.2
		c-2.3-6.6-0.5-13.5-2-20.2c-0.8-3.8-0.7-7.7-2.1-11.4c-2.5-9.9-6.8-18.5-15.7-24.2c-1.1-0.7-3-1.2-2.9-2.7c0.4-4.9-3.4-4.7-6.2-5
		c-9-1-18-1.9-27-2.2C386.7,644.9,381.3,644.1,376,643.8z"/>
	<path class="st34" d="M620.5,609.4c-1.2,0.6-2.5,1.6-3.7,1.7c-8.3,0.6-16.6,1.4-24.9,1.1c-3-0.1-5.4,0.1-7.6,1.8
		c-2.6,2.1-4.9,2.4-6.9-0.9c-1.2-2-3.3-1.8-5.2-1.6c-8.8,0.7-17.6-2.1-26.3,0.9c-1.1,0.4-2.5,0.3-3.6-0.1c-10.5-4.1-21.2-4.6-32.2-3
		c-9.1,1.4-17.9-0.9-26.8-2.7c-2.7-0.5-4.8,0.1-7.4,1.2c-7.4,3.2-15.1,6.4-23,0.9c-2.3-1.6-4.8-2.3-7.1,0.1c-1.3,1.4-3,1.5-4.8,1.5
		c-7.8-0.1-15.7-0.1-23.5-0.1c-0.6-0.6-1.3-1.3-1.5-2.1c-1.8-10.9-4.5-21.8-2.9-33c0.1-0.9,0.6-1.6,1.2-2.3
		c21.4,2.1,43-0.8,64.3,3.8c5.8,1.3,11.8-0.1,17.6-1c7.6-1.2,15.1-0.7,22.8-0.1c18.5,1.6,37.1,1.7,55.7,1.3c1.4,0,2.7-0.6,4.1-0.8
		c0.3,3.3,0.4,6.5,0,9.8c-0.4,2.9,1,6.6-4,6.6c-0.3,0-0.8,0.7-0.9,1.2c-0.6,1.7-0.3,4.1-3,4.2c-1.9,0-2.9-1.8-4.1-2.9
		c-1.3-1.2-2.6-2.4-4.6-1.8c-2.2,0.6-2.2,2.4-2.2,4.2c0,1.6-0.6,3-1.3,4.4c-0.6,1.1-2.3,2.1-0.7,3.6c1,1,2.4,1.4,3.9,1
		c0.8-0.2,1.8-0.4,2.4-0.9c6.8-5.3,12.3-1.6,17.5,2.6c3.9,3.2,8.1,3.6,12.2,2.2c7-2.4,14-1.7,21-0.9
		C616.7,609.3,618.6,609.3,620.5,609.4z"/>
	<path class="st34" d="M582.9,575.9c1.9-1.7,4.2-0.8,6.3-0.9C587.3,576.6,585,575.8,582.9,575.9z"/>
	<path class="st35" d="M487.7,267.2c-2.3-4.4-5.4-8.5-6.3-13.6c-0.3-1.6-1.1-2.2-2.5-1.5c-1.5,0.7-3,0.8-4.6,0.6
		c-3.1-0.3-5.9-1.4-6.4-5c-0.5-3.4,1.7-5.2,4.5-6.2c10.9-4,21.8-2.8,32.7,0.1c2.6,0.7,4.5,2.8,4.4,5.8c-0.1,2.7-2.1,4.2-4.6,5.1
		c-2.3,0.8-4.5,2-6.8,2.2c-2.5,0.2-3.7,1-4.4,3.4c-0.9,3.1-3.6,5.5-4,8.9C489,268,488.3,268,487.7,267.2z"/>
	<path class="st36" d="M487.7,267.2c0.7,0,1.3,0,2,0c-2.4,17,9.4,25,21.4,32.2c8.4,5,17.9,7.8,27.8,3.6c0.7-0.3,1.7-0.1,2.9-0.2
		c-5.2,4.3-11.6,5.1-20.1,2.9c-12.4-3.2-22.3-10.3-30.2-20.1c-2.2-2.7-3.2-2.5-5.4-0.3c-9.1,9.1-20.5,13.9-33,16.1
		c-4.4,0.8-8.5-0.3-12.1-3.3c16.2,4.4,28.8-2.9,40.9-11.9c4.2-3.1,7.3-6.8,6.1-12.7C487.4,271.5,487.7,269.3,487.7,267.2z"/>
	<path class="st37" d="M336.1,285.2c13-5.3,26.7-8.5,40.3-11.4c12.3-2.6,24.7-5.5,37.5-5.5c1.3,0,2.7,0.2,4,0.5
		c-15.7,1.7-31.2,4.7-46.6,8c-10.5,2.2-20.9,5.1-31.3,7.6C338.7,284.8,337.4,284.9,336.1,285.2L336.1,285.2z"/>
	<path class="st38" d="M331.8,307.4c-0.4,0.2-0.7,0.4-1.1,0.6c-2.3-0.2-4.2,1.8-7.8,0.7c28.4-9.4,55.7-18.4,83-27.4
		c0.2,0.5,0.3,0.9,0.5,1.4C381.5,291,356.7,299.2,331.8,307.4z"/>
	<path class="st23" d="M477,335.7c1.1,2,1.9,3.5,2.7,5c0.7,1.4,0.7,2.9-1,3.5c-1.7,0.6-3.1-0.4-3.5-2.2
		C474.9,339.9,475,337.9,477,335.7z"/>
	<path class="st37" d="M332.8,286.9c-2.8,0.6-5.5,1.3-8.3,1.9c3.3-2.9,7.5-3.1,11.6-3.7c0,0-0.1-0.1-0.1-0.1
		C334.9,285.7,333.9,286.3,332.8,286.9z"/>
	<path class="st39" d="M345.5,452.5c-3.3,9-7.1,17.8-9.3,27.3c-0.9,3.9,1.9,3.2,3.4,3.6c12.5,3.7,25.1,6.7,37.9,8.9
		c5.5,1,10.9,2.2,16.4,2.9c3.5,0.4,4.4,1.8,3.6,5.1c-3.7,16.3-3.7,33-5,49.6c-0.5,6.6,1,13.1,1.2,19.7c-1.3,1.6-3,1.6-4.8,1.4
		c-14.3-1.6-28.7-2.3-42.8-5c-3.2-0.6-6.6-0.8-9-3.6c-3.1-1.7-6.7-1.5-10-2.2c-5.6-1.2-6.5-2.2-6.7-7.9c-0.3-6.8,0.8-13.5,1.3-20.3
		c0.8-10.5,2.7-20.9,4.6-31.3c1-5.8,4-11,6.6-16.2c1.4-2.9,1-6.2,2-9.2c2.2-6.2,5.3-12,5.8-18.8c0.1-1.8,2.7-2.7,2.7-4.9
		C344,451.8,344.7,452.1,345.5,452.5z"/>
	<path class="st40" d="M337,562.3c10.7,1.8,21.4,3.9,32.3,4.7c8.1,0.6,16.2,1.6,24.2,2.5c6.9,1.2,14,1.3,20.7,3.4
		c-0.5,12.6,2,25,3.1,37.4c-13-0.6-26-1.3-39-1.9c-1.9-0.1-3.8,0-5.7,0c-21.2-0.5-42.2-3.8-63.3-6.2c-8.2-0.9-16.6-0.9-24.8-1.4
		c0.1-0.3,0.1-0.8,0.3-1c8.3-4.9,4.7-11.9,2.6-17.9c-2.1-6.1-0.3-11.6,0.6-17.3c0.4-2.9,0.6-5.8,0.8-8.8c7-0.1,13.8,1.4,20.4,3.4
		C318.5,562.2,327.7,562.4,337,562.3z"/>
	<path class="st41" d="M600.7,390.8c1.5,2.7,3.6,2.1,5.9,1.3c1-0.3,2.3-0.3,2.6,1c0.4,1.4-1,1.5-1.9,1.8
		c-9.8,2.9-12.3,7.3-10.3,17.9c0.6,3.2,1,6.5,1.6,9.7c0.7,4.5-1.8,6.7-5.7,6.8c-9.1,0.2-17.6,3.6-26.5,4.8c-6.7,0.9-13.5,0-20.2,1.5
		c-20.3,4.7-41,3.3-61.6,3.2c-8.4,0-16.9-1.2-25.3-1.8c-25.9-3.8-51.8-7.2-76.7-16.2c-12.1-4.4-24.4-8.1-36.3-13
		c-4.1,0.7-7.2-1.8-10.4-3.8c-5-3.1-11.4-4.1-15.2-9.2c1.4-17.4,8.1-32.4,20.5-44.8c8,3.9,15,9.4,22.7,13.9
		c28.5,16.8,59.5,26.7,91.8,33c25.2,5,50.8,5,76.3,4.1c18.7-0.7,37.2-3.8,55.6-7.6C591.9,392.5,596.4,392.1,600.7,390.8z"/>
	<path class="st42" d="M321.4,394.9c8.3,4.3,16.6,8.6,24.9,12.9c-8.7,3.7-13.2,11.3-17.8,18.9c-2,3.3-4.3,6.4-5.8,9.9
		c-1.6,3.5-3.7,3.3-6.6,2.2c-19.4-7.7-37-18.3-52.2-32.7c-5.2-4.9-10.5-9.5-15.8-14.3c4.1-14.6,10-28.5,16.6-42.1
		c3.8,0.3,5.3,3.6,7.3,6c9.9,12.1,21.8,21.8,35.4,29.5C312.1,388.5,318.1,389.8,321.4,394.9z"/>
	<path class="st43" d="M306.7,386.5c-13.6-7.4-25.4-16.9-35.1-29c-2.2-2.7-4.6-5.2-6.9-7.8c3.4-7,4.6-15.1,10.6-20.7
		c9.7-7.3,20.6-11.4,32.6-12.3c0.7,0.4,1.2,0.9,1.2,1.7c-1.3,2.8-4.1,4.8-4.7,8c-0.2,1-1.1,2.1-2.1,2.1c-7.6,0.3-11,6.6-15.8,10.9
		c-1,0.9-2.1,1.8-2.9,3c5.4-3.3,7-2.8,9.9,2.6c3.4,6.3,7.8,11.9,13.1,16.7c0.4,0.4,0.8,0.7,1.2,1
		C317.8,370.1,317.4,377.3,306.7,386.5z"/>
	<path class="st44" d="M308.1,317.4c-6.8,1.2-13.4,3.5-20.1,5.3c-4.2,1.2-7.7,5.7-12.8,6.3c-2.2-3,1.1-2.6,2.2-3.5
		c-0.1-0.8,2.2-0.2,1-1.7c4.2-8.9,11.4-15.8,16.4-24.1c0.7-1.1,1.8-2.2,3.4-1.9c0.9,0.4,1,1.2,0.9,2.1c1,3.9,3.3,7.1,5.5,10.4
		c1.3,0.9,2.4,2,3.7,2.9C310.9,314.8,310.2,316.1,308.1,317.4z"/>
	<path class="st14" d="M299.2,299.9c-0.3-0.7-0.6-1.4-0.9-2.1c0-0.4,0-0.8,0.1-1.2C300.7,297.2,301,298.3,299.2,299.9z"/>
	<path class="st45" d="M278.5,323.8c0.7,0.1,1.3,0.2,2,0.4c-1,0.4-2,0.9-2.9,1.3C277.8,325,278.1,324.4,278.5,323.8z"/>
	<path class="st46" d="M718.9,327c0.4,0.7,0.9,1.4,1.3,2.1c1.7,3.3,2.7,6.9,2.6,10.5c-0.1,8.3,0.5,16.7,0.2,25
		c-0.1,2-0.4,3.8-1.8,5.3c0,3.8,0,7.5,0,12c-5.7-7.4-5.5-7.2-13.1-1.8c-6.2,4.4-12.7,8.4-19.1,12.5c-1.9,1.2-3.1,1-4.8-0.9
		c-4-4.5-6.8-9.6-9.4-14.9c-2.9-5.9-5.7-11.8-10.4-16.5c5.8-5.2,11.6-10.3,17.3-15.6c1.9-1.7,3.3-4,4.9-6c0.8-3.2,1.9-6.1,6-5.8
		c2.7,1.7,2.5-2.3,4.8-2.2c0.8,8,8.3,9,13.8,11.9c2.1,1.1,2.3,3.4,4.4,4.6c2.5-3.6,5.2-7,1.4-11.4c-1.4-1.7-1.3-3.5,0.5-5
		C718.7,329.8,718.9,328.4,718.9,327z"/>
	<path class="st44" d="M306.7,386.5c0.6-3.6,3.7-5.7,5.4-8.7c3.1-5.3,0.8-8.8-2.7-11.6c-7.8-6.3-14.2-13.5-18.4-22.7
		c-1.3-3-3.2-1.8-5.2-1c-2.1,0.9-3.1,3.3-6.4,3.5c4.5-7.4,10.5-12.7,16.5-18c1.1-0.9,2.4-1,3.9-0.5c2.2,0.7,3.5-0.6,3.5-2.6
		c0-4,2.8-5.3,5.7-6.5c0.8,0,1.4,0.4,1.7,1.2c8.4,11.8,18.9,21.6,30.3,30.3c-0.5,4.6-4.4,7.3-6.5,11c-1.9,3.3-4.6,6.1-6.7,9.3
		c-1,1.5-2.6,3.1-2.4,5.1c0.7,7-1.8,13.2-4.2,19.5C316.5,392.1,311.6,389.3,306.7,386.5z"/>
	<path class="st14" d="M692.6,333c-2,1.9-4,3.9-6,5.8c-1.6-2.9-4-4.5-7.1-5.6c-2.9-1-7.9,0.2-6.9-6c0.1-0.8-3.9-2.2-6-3.4l0,0
		c6.7-1,11.6,3.9,17.7,5.2c5.6,1.2,9.3,0.4,11.2-5c2.2-5.9,6.9-10.5,7.5-17.2c0.2-2.5,2.9-0.6,4.4,0.4
		C703.2,316.2,697.7,324.5,692.6,333z"/>
	<path class="st14" d="M657.8,340.8c2.5-2.8,5.5-4.4,8.9-5.1c1.2-0.2,2.6-0.6,3.1,0.8c0.6,1.4-0.8,2.2-1.7,2.8
		C665,341.4,661.3,340.4,657.8,340.8z"/>
	<path class="st14" d="M310.9,319.7c-0.6-0.4-1.1-0.8-1.7-1.2c-0.4-0.4-0.7-0.7-1.1-1.1c1.3-3.5-3-4.4-3.4-7.1
		c2.2,0.3,3.7,1.6,5.5,2.8C313.2,315.1,313.7,317.2,310.9,319.7z"/>
	<path class="st14" d="M643.6,315.5c3.9,0,7.6,0.5,10.8,3.3C650.3,319.2,647,317.2,643.6,315.5C643.5,315.5,643.6,315.5,643.6,315.5
		z"/>
	<path class="st14" d="M674,298.8c1.9-1.5,3.1-1.3,4.3,0.2C676.9,300.2,675.7,299.9,674,298.8z"/>
	<path class="st14" d="M666.6,323.9c-1.5,0-3-0.1-4.3-1.5C664.4,321.3,665.6,322.1,666.6,323.9C666.6,323.8,666.6,323.9,666.6,323.9
		z"/>
	<path class="st32" d="M490.4,514.2c1.7,0.1,4,0,3.7,1.4c-0.7,2.7-3.7,2.4-6,2.7c-1.5,0.2-4.2-0.1-3.8-1.5
		C485.1,514.1,488.4,514.8,490.4,514.2z"/>
</g>
<path class="st47" d="M0,323.4c11.6-3.2,23.8-4.9,36.5-4.9c75.3,0,136.4,61.1,136.4,136.4s-61,136.4-136.4,136.4
	c-12.6,0-24.9-1.7-36.5-4.9"/>
</svg>
