<?xml version="1.0" encoding="utf-8"?>
<!-- Generator: Adobe Illustrator 27.4.0, SVG Export Plug-In . SVG Version: 6.00 Build 0)  -->
<svg version="1.1" id="Layer_1" xmlns="http://www.w3.org/2000/svg" xmlns:xlink="http://www.w3.org/1999/xlink" x="0px" y="0px"
	 viewBox="0 0 720 720" style="enable-background:new 0 0 720 720;" xml:space="preserve">
<style type="text/css">
	.st0{fill:#43424C;}
	.st1{fill:#3B569B;}
	.st2{fill:#0B5962;}
	.st3{fill:#8CC0A4;}
	.st4{fill:#054848;}
	.st5{fill:#052B35;}
	.st6{fill:#041D28;}
	.st7{fill:#06545B;}
	.st8{fill:#1F6A6F;}
	.st9{fill:#519590;}
	.st10{fill:#044947;}
	.st11{fill:#68B192;}
	.st12{fill:#047E66;}
	.st13{fill:#56A390;}
	.st14{fill:#043539;}
	.st15{fill:#349482;}
	.st16{fill:#106460;}
	.st17{fill:#91C3AD;}
	.st18{fill:#91C7AE;}
	.st19{fill:#FCF0DC;}
	.st20{fill:#FCF1DF;}
	.st21{fill:#044352;}
	.st22{fill:#4C6CA0;}
	.st23{fill:#054956;}
	.st24{fill:#20737D;}
	.st25{fill:#6BABBC;}
	.st26{fill:#78BDAA;}
	.st27{fill:#102538;}
	.st28{fill:#046E63;}
	.st29{fill:#8ABFA7;}
	.st30{fill:#064755;}
	.st31{fill:#4D9C96;}
	.st32{fill:#1D727C;}
	.st33{fill:#08232B;}
	.st34{fill:#0B2229;}
	.st35{fill:#338888;}
	.st36{fill:#3D9892;}
	.st37{fill:#312623;}
	.st38{fill:#F38593;}
</style>
<rect class="st0" width="720" height="720"/>
<path class="st1" d="M720,347.9c-11.6,3.2-23.8,4.9-36.5,4.9c-75.3,0-136.4-61.1-136.4-136.4S608.2,80,683.5,80
	c12.6,0,24.9,1.7,36.5,4.9"/>
<path class="st2" d="M-0.9,841.9c0-0.6,0-1.1,0-1.7c1.5-1.3,3.3-1.4,5-1c18.8,3.4,37.8,3.3,56.7,5.6c3.9,0.5,6.9,1.6,7.4,6
	c2.1,20.2,15.5,31.7,31.5,41.2c3.7,2.2,7.8,3.8,11.4,6.1c1.3,0.8,2.5,2,2.1,3.8c-22.7,0-44.8-2.9-66-11.3
	c-19.6-7.8-33.4-22-43.5-40.1c-0.8-1.4-1.5-2.7-2.3-4.1C0.6,845,0.8,843-0.9,841.9z"/>
<path class="st3" d="M113.2,902c-3.2-3.4-7.8-4.3-11.7-6.4c-9-4.9-17-11.1-24.1-18.4c-6.9-7-9.5-16-11-25.3
	c-0.5-3.5-1.3-4.7-5.1-5.1c-20.7-2.2-41.7-2.1-62.2-6.5c0.8-19.9,1.5-39.7,2.3-59.6c3.8,4.4,1.9,9.8,2.1,14.7
	c0.4,8.4,0.9,9.2,9.2,10.5c21.9,3.5,44.1,4.9,66.1,6.8c6.5,0.6,12.1-5,11.9-11.5c0-1.4-0.1-2.7-0.2-4.1c-0.8-9.6-2.1-10.6-11.8-11.6
	c-23-2.3-46.1-3.9-69-7.9c-3.5-0.6-6.1,0.2-8.4,2.7c-1.8-5.3-1-10.8-1-16.2c-0.1-10.7,0.1-21.4,0.2-32.2c1.8,0,2.4,1.5,2.5,2.7
	c0.4,5.1,3.9,6.2,8,7c23.8,4.9,47.9,7.9,72,10.1c23.4,2.2,46.9,2.3,70.3,3.7c3.3,0.2,6.6,1.1,9.9,1.4c12.8,1,25.6,0.5,38.4,1.4
	c4.8,1.7,9.7,0.7,14.5,0.7c26.4,0.3,52.9-1,79.3,0.4c1.8,0.1,3.5-0.3,5.2-0.9c6.6-0.9,13.3-1.5,19.9-1.7c40.4-1,80.4-5.1,120.5-10.2
	c0.6-0.1,1.2-0.1,1.8-0.1c9.6-1.2,19.2-2.1,28.8-3.4c21.9-3.2,43.8-6.5,65.6-10.4c2.9-0.5,5.8-1,8.6,0.8c1.5,1.4,1.6,3.1,1.3,4.9
	c-1.8,10-4.1,20-7.6,29.6c-0.5,1.5-1.5,2.8-2.7,3.8c-2.4,1.5-5,2-7.7,2.6c-15.6,2.9-31.3,4.7-47.1,6.4c-12.6,0.2-25,3.2-37.6,2.5
	c-25.4,2.3-50.7,4.2-76.2,5.5c-16.2,0.8-32.5-0.2-48.7,1.8c-6.8,0.8-13.7,0.1-20.5,0c-34.9,1.1-69.8,2.2-104.8,0.8
	c-10.8-0.4-21.6-0.6-32.4-0.6c-1.9,0-4.6-0.5-5,2c-0.5,3,2.6,3.1,4.5,3.5c12.5,2.1,22.3,8.4,29.6,18.6c1.7,2.3,3.8,3.2,6.5,3.2
	c2.4,0,4.7,0.1,7.1,0.1c26.3,0,52.6-0.4,78.9,1.2c6.5,0.4,12.9-1.6,19.4-0.8c9.7-0.8,19.6,0.4,29.1-2.3c1.3-0.4,3-0.3,3.9-1.3
	c4.4-5.3,10.5-4.5,16.2-4.9c11.5-0.7,23.1-1.4,34.5-0.1c9,1,18.1,2.4,27.1,4c9.9,1.7,19.8,2,29.8,2c12.8-2,25.9-1.4,38.7-3.2
	c10.9-0.8,21.9-1.3,32.8-3.3c1.8-0.3,3.5-0.2,5,1.1c-3.9,11.2-10,21.1-17.9,29.9c-3.8,2.4-8,3.1-12.4,3c-13.9-0.2-27.7,2.5-41.7,2.6
	c-4.3,0-7,2.2-8.8,6.4c-10.8,25.6-29.4,43.2-55.4,52.9c-11.9,4.4-24.2,3.8-36.6,2.7c-1.9,0-3.6-0.7-5.4-1.3
	c-13.9-4.8-25.8-12.6-35.6-23.6c-6.8-8-12-17-15.4-26.9c-1.4-4-3.3-5.4-7.7-5c-16.8,1.5-33.6,3-50.4,2.8c-9-0.1-17.9-1.3-27-1.2
	c-5.2,0-7.6,1.9-9.3,6.8c-7.5,21.7-21.6,36.9-44.3,43.3c-5.7,1.6-11.5,1.7-17.4,1.3C127.4,905.1,120.3,903.7,113.2,902z"/>
<path class="st4" d="M346.7,906.1c2.9,0.4,5.8,0.9,8.7,1c31,1.2,53.6-13.7,71.5-37.5c4.8-6.4,9.2-13.2,11.3-21
	c0.9-3.4,2.7-4.3,5.7-4.5c14.3-0.9,28.5-2,42.8-3c5.1-0.4,10.1-0.7,15.2-1.1c-20.1,31-49.5,48.6-84.2,58.8
	c-12.2,3.6-24.4,6.9-36.9,9.1c-3.6,0.2-7.3,0.5-10.9,0.7c-2,0.3-4.1-0.3-6,0.6c-0.5-0.3-0.9-0.5-1.4-0.8c-4.4,0.7-8.8,0.2-13.2,0.3
	C347.7,908.8,345.7,908.9,346.7,906.1z"/>
<path class="st5" d="M536,770.6c-0.8,2.2-2.2,4.2-2.2,6.7c-3.5,8.7-6.9,17.4-10.5,26c-1,2.3-2.3,4.5-3.5,6.7
	c-12.4,2.7-25,4-37.6,3.9c-2-1.3-2.7-3.3-2.9-5.5c-0.9-10.1,0.6-20.1,2.9-29.9c11-1.5,22-3,33-4.6
	C522.2,772.9,529.1,771.7,536,770.6z"/>
<path class="st6" d="M346.7,906.1c0.7,2.7,3,2,4.8,2.1c3.7,0.2,7.4,0.2,11.1,0.3c-7,1.4-14,0.6-21,0.7c-36.2,0.5-72.4-2.3-108.6-2.4
	c-4.9,0-9.8,0.1-14.7,0.2c-21.5-0.4-43-0.8-64.4-1.2c-6.4-0.1-12.8-1-19.1-2.1c32-3.3,51.1-17.7,61-48.7c1.2-3.9,2.8-4.9,6.4-4.8
	c8.6,0.3,17.2,0.5,25.8,1c19.2,1,38.4-0.8,57.5-2.7c3.7-0.4,5.7-0.1,6.5,4.2c2.3,11.4,9.3,20.4,15.7,29.7
	c7.3,11.2,18.4,17.4,29.9,23c1.6,0.8,3,0.3,4.4-0.5C343.6,905.2,345.2,905.6,346.7,906.1z"/>
<path class="st7" d="M0.2,701.9c0.1-16.6,0.2-33.1,0.2-49.7c2.8-2.1,5.7-0.8,8.4,0.2c25.5,9.5,51.8,15.6,78.6,19.7
	c21.7,3.3,43.5,5.4,65.4,7.1c3,1.2,6.4,0.7,9.5,1.8c0.6,0.3,1,0.8,1.2,1.4c0.5,7.1,0.1,14.1-1.2,21c-0.5,2.6-0.7,5-0.1,7.6
	c3.4,13.3,2.7,26.9,2.9,40.4c0,2.6-0.1,5.1-2.4,7c-22.3-1.7-44.6-2.2-66.9-3.6c-30-1.9-59.9-6-89.4-11.9c-3.8-0.8-6-2.2-5.3-6.5
	c0.2-1.5-0.3-3.1-0.5-4.6C0.5,721.8,0.4,711.9,0.2,701.9z"/>
<path class="st8" d="M1.4,780.1c0.7-6.2,0.7-6.2,6.8-5.1c15.9,3,32,4.6,48.2,6c10.3,0.9,20.5,2.4,30.8,3.4c2.6,0.3,3.7,1,3.9,3.8
	c0.3,4,1.4,7.9,1.7,12c0.6,8.7-6.2,15.6-14.8,14.6c-11.6-1.3-23.3-2.1-35-3.2c-12.2-1.1-24.5-2.5-36.5-4.8C2.6,806,1,804.3,1.3,800
	c0.4-6.4,0.1-12.9,0.1-19.4V780.1z"/>
<path class="st9" d="M443.5,747.8c-12,2.5-24.3,3.5-36.5,4.8c-15.9,1.7-31.8,3.1-47.7,4.5c-7.6,0.7-15.2,0.9-22.8,1.1
	c-11.9,0.4-23.8,1.6-35.7,1.5c-7.3-1.2-8.4-2.4-7.5-9.4c0.4-3.4-1.3-6.6-0.4-9.9c1.2-4.3,1.8-8.9,5.5-12.1c1.9-1.6,2.4-3.9,3-6.2
	c1.7-6.5,3-7.3,9.5-6.3c7.1,1.1,13.5-4.3,13.4-11.6c0-3.1,0.4-5.9,2.7-8.1c4.1-3.9,7.3-8.1,8-13.9c0.2-1.4,1-2.5,2.1-3.4
	c1.7-1,3.6-1.3,5.5-2c8-0.9,15.9-2.3,23.9-2.8c6.8-0.6,13.6-1.9,20.4-3.1c6.2-0.6,12.2-3.8,18.6-1.8c2.3,1.2,3.1,3.5,3.7,5.7
	c3.2,12.5,7.9,24.6,9.4,37.5c0.5,4.1,2,7.9,3.1,11.9c1.4,4.7,4.3,6.1,8.9,5.1c2.7-0.6,5.3-1.3,7.9-2c3.7-1,6.2,0.2,6.9,4.1
	C446.5,737.1,447,742.7,443.5,747.8z"/>
<path class="st10" d="M550.9,644.5c0.7,18.7,1.3,37.5-0.4,56.2c-1,11.1-2.6,22.1-5.1,32.9c-19.4,3-38.7,6-58.1,9
	c-5.2,0.8-10.4,1.4-15.6,2c-4.3,1.3-5.4-1.4-5.2-4.7c1.4-18.7,1.1-37.6,2.6-56.3c0.5-6-0.7-11.7-1.4-17.5c-0.5-4.3-1.2-8.6,0.9-12.7
	c1.1-3.2,3.9-4.2,6.6-5.3c22.9-9,43.8-21.3,63.5-35.9c2.3-1.7,4.7-4.6,8.2-1.7c4.3,9.6,4.6,19.9,5.4,30.1
	C552.5,642.1,551.6,643.3,550.9,644.5z"/>
<path class="st11" d="M337.4,679.7c-0.7,7.5-3.5,13.9-9.7,18.5c-1.7,1.2-2,2.9-1.5,5.2c0.9,4.5-0.2,7.5-4.6,11.1
	c-5,4-8.5,4.4-13.9,2.4c-3.5-1.3-4.1,2.5-4.3,4.8c-0.4,3.8-0.9,7-5,9.2c-2.8,1.5-2.2,5.6-3.2,8.5c-1.7,5,1.1,10.3-0.4,15.7
	c-0.7,2.3,4.2,2.7,6.1,4.7c-5.6,2.4-11.5,1-17.3,1c-5,0-10.1,0-15.1,0c-20.3,0.2-40.7,0.1-61,0.1c-1.9,0-3.9,0.4-5.6-1
	c0.2-0.3,0.4-0.7,0.7-0.9c8.3-3.9,8.3-4.1,7.9-13.4c-0.5-12.8-2.3-25.6-1.3-38.5c0.3-3.7-1-7.3-1.8-10.9c-1.1-5.4-0.2-10.4,4.1-14.4
	c2-0.9,4.2-0.9,6.4-0.9c18.4,0,36.8-0.2,55.2,0.1c14.6,0.5,29.3,1.9,43.8-1.5c5.2-1.2,10.5-0.9,15.8-1.5c1.1,0,2.1,0,3.1,0.4
	C336.4,678.6,337,679.1,337.4,679.7z"/>
<path class="st12" d="M470.4,652.4c-1.3,4.8-1.3,9.5-0.2,14.5c1.8,8.1,0.9,16.2,0.5,24.4c-0.6,16.4-0.6,32.8-2.5,49.1
	c-0.3,2.8,0.8,4,3.5,4.2c-9.3,1.6-18.7,2.8-28.2,3.2c-0.5-5.4,1.6-10.7,0.1-16.3c-0.9-3.2-1.9-3.2-4.3-2.3c-3.7,1.3-7.5,2-11.4,2.7
	c-4.3,0.7-6.2-0.8-7.4-4.6c-2.1-6.3-3.6-12.7-4.7-19.3c-2.1-12.9-6.5-25.3-10.2-37.9c0.2-3.2,2.8-3.5,5-4
	c18.2-4.3,36.7-7.8,54.3-14.4C466.7,651.1,468.7,650.8,470.4,652.4z"/>
<path class="st13" d="M443.5,817.3c-12.4,1.3-24.6-0.9-36.7-2.6c-12.2-1.7-24.3-4.3-36.5-4c-9.5,0.2-19,0.8-28.5,1.1
	c-0.4,0-0.9,0-1.1,0.2c-10.7,11.8-24.9,6.1-37.7,7.6c-4-4.2-3.5-9.7-3.9-14.9c-0.4-5.6-0.1-11.2-0.9-16.8
	c15.5-0.4,30.9-0.8,46.4-1.3c25.8-0.9,51.6-1.7,77.2-4.5c7.6-0.8,15.2-0.8,22.8-1.1c0.3,0.7,0.9,1.4,0.8,2.1
	C444.2,794.6,445.3,806,443.5,817.3z"/>
<path class="st14" d="M298.2,788.1c2.8,1.4,2.9,4.3,2.7,6.7c-0.7,8.5,0.7,16.7,2.1,24.9c-28.6,2.3-57.2-0.5-85.8,0
	c-7.3,0.1-14.5,0-21.8,0c-2.1,0-4.1,0.2-5.5-2.3c-6.7-12.4-18-18.1-31.4-19.7c-4.8-0.6-5.2-2.8-5.1-6.6c0.2-4.8,3.8-3.1,6.1-3.1
	c29.6,0.3,59.2,0.8,88.8,1.2C264.9,789.4,281.6,787.4,298.2,788.1z"/>
<path class="st15" d="M209.9,683.3c0.4,0.9,1.3,2.3,1,2.6c-3.8,4.2-2.1,8.7-0.9,13.2c1.3,5.1,1.5,10.3,0.2,15.6
	c-0.6,2.5,0.4,5.3,0.7,8c0.1,0.6,0.7,1.1,0.7,1.6c-1.3,10.4,1.9,20.8,0.4,31.2c-1,6.8-6.7,3.3-10.3,4.4c-13-0.4-26,0.5-38.9-1.5
	c0.5-16.4,1.2-32.8-3-49c-1.4-5.2,2.4-9.9,1.9-15.3c-0.4-3.9-0.9-8.2,1.2-12c3.2-3.2,7.3-2.6,11-2.1c9.1,1.2,18.2,0.8,27.4,1
	C204.3,680.9,207.6,680.5,209.9,683.3z"/>
<path class="st16" d="M443.5,817.3c-1.6-3.3-1.1-6.7-0.9-10.2c0.5-8.7,0-17.4,2.1-25.9c12.5-0.4,24.9-3.1,37.5-2.7
	c2.7,4.7,0.3,9.6-0.3,14.1c-1,7.2-1,14.2,0.3,21.3c-5.7,2.2-11.9,1.3-17.8,2.1C457.5,817,450.5,816.9,443.5,817.3z"/>
<path class="st4" d="M342,904.8c-0.3,2.3-1.7,4-3.9,2.9c-11.8-6-23.3-12.5-30.9-23.8c-0.2-0.3,0.3-1,0.5-1.5
	c6.5,6.6,13.6,12.2,21.7,16.7C333.4,901.3,338,902.4,342,904.8z"/>
<path class="st17" d="M543.4,594.1c-2-8.8-2.2-18.1-6.1-26.4c-2.9-1.5-4.8,0.7-6.8,2.1c-4.3,3.1-8.7,6.1-13.2,8.9
	c-33.9,21.1-70.8,34.6-109.8,42.6c-32.2,6.6-64.6,10.8-97.3,13.3c-2.2,0.7-4.4,1.1-6.7,0.5c-4.5-0.1-9-0.2-13.5,0.5
	c-2.7,0.7-5.3,1.1-8.1,1.1c-12.7-0.2-25.5-0.6-38.2-0.5c-6.8,0.1-13.7,0.2-20.6-0.7c-5-0.6-7-2.7-7.3-7.8c-0.5-9,1.1-18-0.8-27
	c-1-4.8,1.4-7,6.1-7.1c17.6-0.4,35.3,0.7,52.8-1.6c6.1,0.3,12.2,0.4,18.2-0.1c31.1-2.7,62-7.4,92.5-14.1
	c35.9-7.9,70.2-20,101.6-39.4c13.3-8.2,25.3-17.9,35.6-29.6c-4.2-13.4-9.1-26.5-15.8-38.8c-5.3,0.7-8,5.4-11.8,8.2
	c-21.4,15.7-45.9,25.2-70.3,34.9c-5.7,2.2-11.3,4.4-17.1,6.4c-2,0.7-4.4,1.8-6.2,0.3c-3.7-3-6.2-1.8-8.2,2.2
	c-4.8-7.9-7.1-16-8.4-24.3c-2-2.8-4.5-1.8-6.8-0.6c-4.5,2.4-9.3,4.1-14.7,6.5c1.7-2.7,3.7-3.6,5.6-4.6c4.8-2.6,9.9-4.6,14.9-6.7
	c5.7-2.3,6.2-6.7,1.4-10.2c-3.3,0.1-5.9,1.9-8.7,3.2c-8.8,4.3-17.8,8-27.2,10.9c-26.6,8.2-53.9,13.2-81.6,16.3
	c-2.6,0.3-6.2-0.6-6.8,3.7c3,7.8,1.3,15.9,1.5,23.8c0.1,2.7-2.2,2.8-4.2,3c-5.7,0.5-11.3,1.2-17,1.2c-15.5,0-30.9-0.1-46.4-1.2
	c-20.5-1.4-40.9-4-61-8.4c-18-3.9-35.8-8.6-53.8-12.7c-13.4-2.6-26.1-7.7-39.2-11.5c-4.9-2-10-3.8-14.9-5.7c-0.9-0.3-1.7-0.7-2.6-1
	c-0.5,0.2-1,0.4-1.7,0.6c-5,1-6.9,12.7-7.8,17.1c-1.7,7.8-4.5,18.2-1.2,25.8c0.6,1.4,0.8,2.8,0.6,4.1C39.2,563.9,67,572,95.5,578.1
	c12.6,3.8,25.5,5.9,38.4,8.3c6.7,1.3,7.7,2.6,6.1,9.1c-0.9,3.5-1.1,6.9-0.7,10.4c0.7,6.2,0.2,12.5,0.4,18.8c0.1,4.4-1.5,5.9-6,5.2
	c-12.5-1.9-25.3-2.6-37.4-6.7c-3.2,0.6-6.2,0.1-9.3-0.5c-25.7-4.7-50.6-12.3-74.9-22c-3-1.2-5.9-3.5-9.4-1.2c-0.4,1.1-1,2.1-1.1,3.2
	c-1.5,16.5-1.5,33-1.1,49.5c10.5,2.2,20.3,6.8,30.6,9.8c40,11.4,81,16.7,122.4,18.9c3.1,1.2,6.4-0.5,9.5,1l0,0
	c15.7,0.3,31.3,1.8,47,1.3c21.2-0.1,42.5-0.1,63.7-0.2c1.8-0.9,3.8-0.8,5.7-1.2c4.6-0.8,9.4,0.1,13.9-1.7c6.1-2.4,12.5-3.4,18.9-4.1
	c7.5-0.9,14.9-0.7,21.6,3.4c0.8,0,1.6,0,2.4,0c1.7-1.7,4-0.5,5.9-1.1c8.3,0.2,16.4-1.9,24.7-2.5c1.4-0.7,2.6-2,4-2.3
	c5.3-1.2,10.4-6.1,16.1-0.9c6.4,0,12.3-3,18.8-2.5c1.6-0.7,3.1-1.6,4.7-2c8.5-2,17-3.9,25.6-5.6c11.8-2.3,23-6.8,34.5-10.1
	c17.6-6.9,34.4-15.6,50.5-25.5c8.5-5.2,16-12,24.8-16.8C545.9,604.7,544.5,599.3,543.4,594.1z"/>
<path class="st18" d="M33.6,302.6c5.9-22.8,10.6-45.9,19.7-67.7c4.5-10.8,9.6-21.3,15.5-31.4c2.9-7.4,9.1-11.7,15.5-15.5
	c21.6-12.9,45.3-19.1,70.2-21.4c2.2-0.2,4.3-0.1,6.1,1.5c23.6-1.9,47.2-2.3,70.8-2.4c19.4,0.9,38.8,1.4,58.1,2.7
	c10.1,0.7,20.2,2.5,30.2,4c2.3,0.4,4.7,0.5,7,0.6c12.5,0.2,24.2,3.8,35.7,8.3c13.5,5.3,25,13.5,34.1,24.9c1.4,1.8,1.2-1.9,2.6-1.4
	c0.6,16.4,11.2,28.8,17.8,42.7c12.1,25.7,20.1,52.8,28.7,79.8c0.3,1.1,0.2,2.3,0.3,3.5c-3.8,4.3-9.3,4.2-14.1,4.9
	c-39.3,6.2-78.5,13-118,17.9c-11.2,1.4-22.4,0.3-33.3-2c-15.8-3.3-27.2-12.7-35-26.6c-2.5-4.4-4.7-6.7-10-4
	c-3.5,1.8-7.6,1.8-11.5,0.4c-4.9-3.3-7.3-9.7-13.5-11.7c-1.4,1.7-0.3,3.1,0.1,4.5c1.5,5.6,0.5,8.3-4.6,11.1
	c-8.5,4.6-16.4,1.9-23.8-2.5c-4.8-2.9-9.3-5.6-15.2-4.9c-3.8,0.4-6.6-2.1-9-4.7c-2.1-2.3-3.8-5-6.4-6.8
	c-16.5-12.3-30.7-8.3-44.3,3.3c-2.2,1.9-4.1,4.2-6,6.3c-3.6,1.9-6.8,1.1-9.8-1.3c-2.5-1.9-4.8-4-7.3-5.9c-5.8-4.4-12-1.9-13.2,5.4
	c-1.2,7.1-5.7,9.5-12.3,6.5c-1.1-0.5-2.2-1-3.1-1.7C48.4,313.2,40.7,308.3,33.6,302.6z"/>
<path class="st19" d="M458.7,370.9c-2.4-1.8-5-4.2-7.8-3.6c-9.7,2-20,0-29.2,5.2c-5,2.8-10.9,4.3-16.5,2.2
	c-12.8-4.8-25.6-1.9-38.4-0.3c-1.6,0.2-3.3,0.8-3.5,2.6c-0.3,1.8,1.4,2.7,2.8,3.4c2.6,1.3,5.5,2.1,8.3,3c3.9,1.4,8,1.6,11.8,2
	c-1.3,0-2.6,0-3.9-0.2c-26.5-4.8-53.3-7-79.8-11.2c-1.8-0.3-3.5-0.4-5.3-0.1c-1.4,0.2-3,0.5-3.3,2c-0.3,1.6,1.3,2.2,2.5,2.8
	c1.6,0.8,3.4,1,5.1,1.3c9.7,1.7,19.3,3.3,29.1,4.6c15.3,2,30.6,4,46,4.9c-9.7-0.6-19.1,1.1-27.9,4.8c-7.9,3.3-15.3,2.7-21.8-2.7
	c-7.2-6-14.8-11.2-25-9.5c-2.2,0.4-4.4,0.9-5.1,3.3c-0.8,2.5,0.7,4.3,2.6,5.4c4.5,2.5,8.8,5.4,13.3,7.8c-5.8-2.5-11.7-4.6-17.6-6.7
	c-1.6-0.6-3.5-1.2-4.9,0.4c-1.2,1.4,0.1,2.5,0.7,3.7c-3.2-2.7-5.9-5.7-6.9-9.9c-0.9-3.4-2.8-4.3-6.1-2.8c-5.2,2.4-10.7,3.9-16.1,5.5
	c-7.1,2.1-14.3,2.3-21.2-1c-3.8-1.8-6.8-0.8-9.4,2.3c-1,1.9,0,3.3,1.1,4.7c1.6,0.9,2.6,2.3,3.1,4c1,1.5,2.3,2.7,3.6,4
	c1.7,0.7,2.9,1.8,3.5,3.5c0.5,0.6,1,1.2,1.5,1.7c-4-2.9-7.5-6.5-10.4-11.3c-2.6-4.2-4.4-4-7.9,0.8c-6.7,9.1-14.8,16-25.9,19
	c-4.5,1-9.1,3-13.1-1.3c-0.3-0.4-0.7-0.8-1.2-1.1c-5.3-1-8.5,3.4-10.2,6.3c-2.5,4.4,4.7,4,6.4,7.2c-4.2,0.4-6.1-2.2-7.4-5.2
	c-0.7-1.5-1.2-3.4-2.9-3.1c-6.3,0.9-9.8-2.2-12.1-7.5c-0.4-1-1.6-1.7-2.5-2.4c-1.7-1.3-3.5-1.9-5.4-0.6c-2,1.5-2.5,3.4-1.4,5.7
	c1,2.1,3.1,4.6,0.7,6.3c-2.5,1.8-5.7,1.3-8.1-1c-2.6-2.6-5.6-3.4-9.1-3.5c-3.6-0.2-7.2-0.9-11.4-1.5c2.9-3,7.4-4.6,4.7-9
	c-2.6-4.3-6.7-3.2-10.5-1.9c-4.7,1.5-9.1,3.6-13.6,5.6c-2.7,1.2-4.5,3.9-1.6,5.9c5.9,4,3,8.8,2.4,14.6c-2.8-3.4-6.3-5.4-4.5-9.9
	c0.8-1.9,2.4-4,0.1-5.9c-2.2-1.9-4.9-2.4-7.7-1.4c-1.5,0.6-3.1,1.1-4.5,1.7c0.5-0.3,1.1-0.7,1.7-0.8c1.6-0.4,3.2-1.3,2.5-3.2
	c-0.7-1.8-2.7-1.6-4.1-1c-1.3,0.5-2.6,1-3.8,1.5c3.8-2.1,7.5-4.2,11.1-6.6c2.6-1.7,5.8-3.6,4.3-7.4c-1.7-4.1-5.4-3.8-9.1-3
	c-3,0.6-5.9,1.2-8.9,1.9c1.6-0.4,3.3-0.8,4.9-1.3c19.6-5.5,39.1-11.5,59.4-14c3.2-0.4,8.9-0.1,8.2-4.2c-0.6-3.6-6-2.1-9.4-1.6
	c-4.3,0.6-8.4,1.4-12.1-2.2c-1.9-1.9-4.8-1.4-7.3-1.1c-5.5,0.7-10.9,1.6-16.4,2.2l-0.3,0.2c-3.6,2-7.5,2.5-11.6,2.3
	c-1.2,0.1-2.5,0.1-3.7,0.2c-4.8,4.1-10.5,4.5-16.4,4.5c-0.8,0.1-1.6,0.1-2.4,0.2c-1.8,0.9-3.5,2.9-5.8,1.2c-4,1.2-7.9,2.3-11.9,3.5
	c-3.7,1.7-7.3,3.8-11.7,3.5c-2.1,0.4-4.3,0.8-6,2.3c-3.5,1.3-6.7,3.4-10.6,3.5c-9.8,2.6-18.8,6.9-28.1,11.5c2.2,2.2,3.6,1,5.2,0.3
	c1.4-0.7,3.2-1.5,4.7-1.4c0.4-0.7,1.1-1.3,2-1.7c3.1-1.4,5.9-3.1,9.3-3.8c3.1-0.6,6.3,1.4,6.3,4.8c0,6.8-4.4,13.4-3.6,20.1
	c0.8,7.3,5.3,15.3,9.9,20.8c0.3,0.4,0.5,0.7,0.7,1.1c3,1.3,5.5,3.4,7.5,6.2c4.7,6.8,11.2,11.3,18.4,15c5.2,2.7,10.2,5.9,14.4,10
	c2.3,2.2,4.9,4,7.8,5.2c12.8,5.3,25.5,10.7,38.7,15.1c6.1,2.1,13.4,1.6,18.1,7.3c1.7,1.1,3.6,1.6,5.5,2c35.8,7.5,72,11.8,108.7,10.9
	c2.7-0.1,5.6,0.2,7.6-2.3c0.9-0.3,1.8-0.8,2.7-0.9c22.8-1.6,45.1-5.8,67.3-11.2c19.2-4.7,37.7-11.3,55.1-20.7c2.3,0.9,4.1-0.4,6-1.5
	c15.2-8.7,28.8-19.3,40.2-32.6c2.5-2.9,5.9-5.2,7-9.2c0.3-4.2,1.6-7.8,6.3-8.8c2.5-2,4-4.6,4.9-7.7c-0.3-6.4,2.7-11.3,6.9-15.7
	c0.6-0.6,1-1.3,1.1-2.1c-0.4-2.6-3.1-5.5,1-7.5c0.1-0.5,0-1.1-0.2-1.6c-1.6-1.9-3.4-2.2-5.6-1.2c3-1.7,6.4-0.4,9.2-1.8
	c1.5-0.7,2.1-2,2.1-3.6C463.4,383.1,461,377,458.7,370.9z M52,427.6c0.5-0.2,1.1-0.5,1.6-0.8C53.1,427.1,52.6,427.4,52,427.6z
	 M55.2,425.9c0,0,0.1-0.1,0.1-0.1c1.1-0.8,2.3-1.4,3.5-2.1C57.6,424.4,56.4,425.1,55.2,425.9z M69.5,417.8c-2.6,1.6-5.4,3-8.3,4.5
	C64,420.7,66.7,419.2,69.5,417.8z M60.7,422.6c-0.1,0.1-0.2,0.1-0.3,0.2C60.5,422.7,60.6,422.6,60.7,422.6z M69.5,422.2
	c0.5-0.3,1-0.6,1.5-1c0.4-0.3,0.9-0.5,1.4-0.8C71.7,421.4,70.6,421.9,69.5,422.2z M73,417.3v0.4l-0.1-0.1c-0.8-0.6-1.7-0.6-2.5-0.3
	c1.8-1,3.6-1.9,5.5-2.8C74.9,415.2,73.9,416.2,73,417.3z M298.7,430c-1.4,4.8-4.7,4.5-8.4,3.9c-0.6-0.1-1.2,0.1-1.8,0.1
	c-1.8,0-4,2.5-5.2,0c-1.2-2.3,1.2-3.8,2.7-5.3c0.6-0.5,1.2-1,1.7-1.6c2.2-2.4,5.5-4.5,4.3-8.4c-1.1-3.6-4.9-3.5-7.7-4.6
	c-0.4-0.1-0.8-0.1-1.2-0.1c-2.1,1.1-4.7,1-6.4,3c-2.4,3.4-4.6,0.6-6.9-0.1c-8.3-1-16.1-2.9-22.7-6.8c0.3,0.1,0.6,0.1,1,0.1
	c1.8-1.8,3.6-0.3,5.4,0c8.1,1.5,16,6,24.4,0.5c2.7-1.7,5.7-0.3,8,1.9c1.8,1.7,3.5,3.2,6.2,2.4c1.2-0.4,2.3,0.1,3.3,0.9
	C298.9,418.5,300.2,424.9,298.7,430z M335.7,407.3c-4.5-2-9.4-3.3-14-4.9c3.1,0.9,6.4,1.4,9.9,1.3c3-0.1,6.2,0.4,8.3,3.2
	C338.3,408.4,336.9,407.8,335.7,407.3z"/>
<path class="st19" d="M452.8,395.6c0.4,0.7-0.6,0-0.1-0.2c0,0,0,0,0.1,0C452.7,395.4,452.7,395.4,452.8,395.6z"/>
<path class="st20" d="M457.4,366c-0.8-0.5-1.8-0.9-2.8-0.9c-0.4,0-0.8,0-1.2,0c1.1-0.1,2.1-0.4,3.1-1.1c-1.7-6-3.2-12-5.2-17.9
	c-3.2-9.4-3.3-8.9-13.4-7.4c-8.2,1.2-16.3,3.4-24.7,2.4c9.9-1.8,19.9-3.4,29.9-4.7c4-0.5,5-2.1,2.6-5.5c-17.9,4.2-36,7-54.1,9.4
	c-17.4,2.3-34.6,5.8-52,8.1c-13.1,1.7-26.3,4.5-39.6,3.7c-7.4-0.4-14.8-0.9-22-2.9c-15.9-4.4-26.1-15.1-33.4-29.3
	c-1.1-2.1-1.8-5.5-5.3-2.9c-5,3.7-10.5,3.9-16.3,3.2c-3.4-1.6-5.6,0.9-7.8,2.6c-4,3.2-7.2,7.2-11,10.6c-11.1,10-22.4,19.3-37.9,22
	c-13,2.3-25.6,1.9-38.4-0.6c-3.2-0.6-6.5-1.8-9.6,0.5c-0.3,0.4-0.4,0.8-0.2,1.2c-14.3-3.6-28.7-7-43.6-7.9
	c-12.5-0.7-25-2.3-37.1-5.9c-5.1-1.5-10.1-1.9-15.2-1.9c1.1,0.8,1.9,2,2.1,3.4c1.2,8.2-4.7,14.5-3.7,22.5c0,0.1,0,0.2,0,0.4
	c0.5-0.1,1-0.1,1.4-0.2c11-1.5,22-2,33-2.7c24.8-1.6,49.6-2.5,74.4-0.2c2.6,0.2,5.7,0.2,8,2.7c-2,1.2-3.9,1.6-5.8,2
	c-7.9,2-16.3,1.6-24,4.5c5.3,2.3,10.3-0.9,15.6-0.8c3.7,0.1,7.5-0.9,9.2,3.8c0.8,2.2,2.4,1.3,3.9,1c2.7-0.5,5.4-0.9,8.1-1.1
	c2.5-0.2,4.9-0.3,7.4-0.4c0,0.5,0.1,0.9,0.1,1.4c-34.1,4.1-66.6,14.5-99.8,26c4.2,1.5,7.3,0.7,9.6-0.8c5.3-3.4,11.3-4.1,17.2-5.1
	c4-0.7,8.2-0.4,12.1-2.1c2.5-1.1,4.9-0.5,6,1.9c1.3,2.8-1.3,3.7-3.1,4.7c-9.1,5.6-18.3,11.3-27.7,16.5c-4.2,2.3-9.3,3.5-12,8.1l0,0
	c2-0.8,3.9-1.7,6-2.4c4.4-1.5,7.7-5.4,12.6-5.7l0.4-0.2c4.5-4.7,10.6-5.5,16.4-7.4c-3.3,2.8-8,3.2-11.4,7.6c4-0.3,6.5-1.4,9.1-2.8
	c2.9-1.6,6.1-2.7,9.5-0.9c1.2,0.6,2.4,1.4,1.3,2.5c-5,5.1-2,8.7,2,12.3c1.4,1.2,1.6,4.3,4.1,3.6c2.9-0.9,0.7-3.3,0.9-5
	c0.2-1.7,0.5-3.5,1.1-5.1c1.3-3.8,0.5-6.5-3.5-7.9c-2.1-0.7-3.5-2.2-0.9-3.4c6.1-2.7,12.4-4.9,18.6-7.1c2.4-0.8,4.3,0.6,5.2,2.8
	c1,2.5-0.7,3.5-2.8,4.1c-0.7,0.2-1.5,0.6-2.2,0.9c-1.2,0.6-2.6,1.3-2.1,3c0.4,1.3,1.6,1.7,2.8,1.8c0.6,0.1,1.2-0.1,1.8,0.1
	c6.6,1.9,14.4-1.2,19.8,6c1.3,1.8,7,2.2,9.5-0.3s1.5-6.1-1.2-8.6c-1.2-1.2-1.3-2.3-0.2-3.6c0.8-0.9,2.1-2,3-1c2,2.1,5.8,3.3,5.7,6.3
	c-0.2,6.7,3.9,5.3,7.8,4.9c2.5-0.3,4.8-0.9,5.3,3.1c0.5,4.3,4.1,6,8.2,6.1c1.5,0.1,3.6,0.5,4.2-1.3c0.8-2.1-1.4-3.1-2.8-3.9
	c-2.2-1.3-5.5-0.6-7.4-4.2c5.2,0.7,5.8-5.5,10.3-5.8c5.8,5,12.1,2.8,18.3,1c16.1-4.8,27.6-22,25.4-37.6c-1.9-4.1-5-7.5-5.4-12.2
	c-0.4-4.6-2.9-7.1-7.7-6.8c-2.8,0.1-5.2-0.8-5.7-3.9c-0.5-3.4,2-5.2,4.7-5.7c10.3-1.8,20.6-2.4,30.7,0.8c5.3,1.7,5.5,4,0.9,7.4
	c-7.7,5.7-15.4,11.4-17.1,21.8c1,3.8-2.1,8.4,1.9,11.7c2.6-0.7,5-4.7,7.8-1.8c5.2,5.4,12.1,3.3,17.3,2.8c8.5-0.9,16.9-4.1,24.8-8.1
	c2.1,10.3,5.7,13.7,14.6,13.6c-0.9-2.3-5.1-1-5.3-4.3c1.5-1,2.4,0,3.4,0.4c14.5,5.5,28.9,11,43.4,16.5c2.2,0.8,4.3,1.5,5.3-1.4
	c0.9-2.5-0.6-4.1-2.8-5.1c-3.5-1.6-7.1-2.1-10.9-2.1c-3.1,0.1-6.3,0.6-9.2-1c-6.5-3.6-13-7.3-19.5-10.9c-1.3-0.8-3-1.7-2.7-3.5
	c0.4-2.3,2.5-2,4.2-2.2c10.7-1.4,18.2,4.3,25.3,11.1c1,0.9,1.5,3,2.8,2.7c4.7-0.9,8.6,1.5,12.9,2.4c1.3,0.3,2.5-0.1,3.1-1.2
	c2-3.9,6.2-3.8,9.5-5.1c2.9-1.2,6.3,0.3,9.2-1.3c3.5-1.9,7.2-2,10.9-1c3.2,0.9,5.4-0.1,8.4-2.4c-30.3-3.8-60-6.3-89-13.1
	c34.9,3.8,69.6,8.6,104.6,11.9c-11.6-4.6-24.7-3.6-36.8-11.4c3.7-0.7,6.2,0,8.7-0.5c9.9-1.8,20.1-3.7,30-0.2
	c4.4,1.6,8.4,2.2,13.1,1.1c3.3-0.8,6.5-1.2,9.3-3.3c5.2-4,11.4-2,17.1-3c5.3-0.9,10.5-3.4,15.6,0.7c0.4,0.3,1.5-0.3,2.2-0.4
	C458.6,369.2,459,367.3,457.4,366z M129.6,359.3c3.3,0.7,6.6,1.3,9.6,1.9C136.3,360.7,133,360.1,129.6,359.3z M446.4,365
	c0.9,0,1.8,0,2.7,0c0.5,0,1,0,1.5,0.1C449.2,365,447.8,365,446.4,365z"/>
<path class="st21" d="M304,637.1c-4.6,0.1-9.3,0.2-13.9,0.3c-5.4,0.9-10.9,0.2-16.4,0.4c-3.5,0.1-4.4-2.3-4.5-4.9
	c-0.5-11.9-2-23.7-1.4-35.7c0.2-4.9,2.6-7,7.2-6.9c28.5-0.1,56.4-4.9,84.4-9.5c33.4-5.6,65.8-14.4,96.7-28.3
	c22.2-10,42.8-22.6,60.1-40.1c1.6-1.6,2.9-3.8,5.7-3.5c4.4,14.6,9.4,29.1,12.7,44c0.3,1.5,0.7,3,1.1,4.4c0.5,3.5,1,6.9,1.5,10.4
	c-7.4,3.9-13.7,9.3-20.8,13.7c-30.6,18.6-63.3,31.5-98.2,39.4c-22.3,5.1-44.9,8.8-67.6,11.6c-13.5,1.7-27,2.6-40.5,3.9
	C308.2,637.1,306,636,304,637.1z"/>
<path class="st22" d="M398.9,204.8c-0.1,1.9-0.3,3.9-0.5,7.3c-5.5-8.5-12.1-14.5-19.2-19.6c-13.6-9.8-29.3-14.4-45.6-17.1
	c-2.5-0.4-5-0.7-7.1-2.3c10.4-19,20.1-38.4,32.8-56.1c3.6-5.1,7.1-10.3,11.7-14.6c4.9-4.5,8.9-3.6,10.8,2.7
	c5.6,18.5,9.1,37.5,11.8,56.6C395.8,176,397.2,190.4,398.9,204.8z"/>
<path class="st23" d="M506.2,470c-5.8,7.9-14.7,12.1-22.6,17.3c-18.3,11.9-38.6,19.8-59.1,27.3c-3.2-2.6-4.5-6.2-5.4-10
	c-1-4.7-1-9.7-2.2-14.4c-1.1-4.3-0.5-7.6,3.2-10.1c2.9-2.4,5.9-4.8,9.7-5.7c2.8-0.4,5.3,0.5,7.7,2.1c4.4,2.8,4-0.1,3.3-3.1
	c-0.2-0.8-0.2-1.7-0.1-2.5c0.8-4.3,4-6.5,7.4-8.5c7.7-4.6,15.2-9.4,22.5-14.7c9.4-8.4,18.1-6.8,24.3,4.2c1.7,3,2.5,6.6,5.8,8.6
	C502.6,463.6,504.4,466.8,506.2,470z"/>
<path class="st24" d="M430.4,475.8c-3.1,1.6-6.2,3.2-9.3,4.8c-3,2.3-6.7,3.3-10.2,4.8c-1.4,0.3-2.8,0.6-4.1,1.2
	c-3.4,0.8-6.7,1.8-9.9,3.3c-2.4,1.1-4.8,1.6-7.1-0.3c0.7,8.2,0.1,8.8-6.6,8.7c-0.7-0.9-1.8-1.3-2.6-0.7c-5.6,3.7-12.3,5.1-18.1,8.5
	c-2-3.6-1.2-5.9,2.8-7.3c6.2-2.3,11.6-6.3,18.2-8c4.1-1.1,3.5-4.5,2.2-7.7c15.2-8.3,29.1-18.3,41-30.9c3.8-4,7.2-8.4,10.8-12.6
	c1.5-3.8,3.1-7.6,7.1-9.6c1.5-2.4,2.9-4.8,4.4-7.1c0.9-6.2,4-11.4,7.5-16.4c0.7-0.2,0.9-0.7,0.7-1.3c-0.3-2.6,0.6-4.9,1.8-7.2
	c-0.2-0.3-0.2-0.6-0.2-0.9c0.4-2.1,1.9-3.5,3.5-4.8c0.7-0.9,1.5-1.7,2.2-2.6c5.4,9.2,8.3,19.5,13.7,28.7c8,13.7,16,27.5,22.5,42
	c-1.2,0.7-2.3,1.6-3.2-0.5c-1.1-2.5-2.6-4.8-3.9-7.2c-5.2-9.3-15.3-12.3-21.9-3.9c-4.1-0.6-7,1.3-10.4,3.6
	c-5.9,4.1-11.5,9.4-19.8,8.7c-2.7-0.2-5.1,1.8-8.9,3.4c7.5-2.1,6.9,4.1,9.5,6.7c0,0.8,0,1.5,0.1,2.3c-1.6,3.6-2.1,4.1-5,2.3
	C434.6,473.9,432.6,474.1,430.4,475.8z"/>
<path class="st25" d="M457.4,366c-49.1-0.7-98.1,0.4-147.1,1.4c-0.5,0-0.9-0.5-2-1c24.1-1.4,47.6-2.8,71.1-2.7
	c25.7,0.1,51.4,0.1,77,0.2C456.8,364.6,457.1,365.3,457.4,366z"/>
<path class="st25" d="M580.2,364.1c-49.1-0.7-98.1,0.4-147.1,1.4c-0.5,0-0.9-0.5-2-1c24.1-1.4,47.6-2.8,71.1-2.7
	c25.7,0.1,51.4,0.1,77,0.2C579.6,362.8,579.9,363.5,580.2,364.1z"/>
<path class="st25" d="M555.1,328.5c-35.8,2.1-71.4,5.9-107.1,9.6c-0.3,0-0.7-0.4-1.5-0.9c17.5-2.7,34.5-5.4,51.6-6.6
	c18.7-1.3,37.4-2.7,56.1-4.1C554.5,327.1,554.8,327.8,555.1,328.5z"/>
<path class="st26" d="M24.3,341.8c-4.7-0.6-9.4-0.7-14.2-0.5c3.9-2,8-0.5,12-1c1.6-0.2,3,0.2,3.5-2.5c2.3-11.8,5.2-23.5,7.9-35.2
	c6.1,2.5,12.3,4.9,16.6,10.3c2.5,3.2,6.1,4.8,9.5,6.7c4.5,2.4,10.2-0.4,9.1-4.6c-2.2-8,6.6-7,8.3-11.5c3.3,1.4,6.7,2.4,9.5,5
	c3.8,3.5,7.3,8.3,13.8,7c4.9-2.9,7.8-8.2,13-10.7c1.2-0.6,2.2-1.5,3.5-2.1c2.7-1.3,5.5-3,8.3-1.2c2.6,1.7,1.8,4.9,1.6,7.6
	c-0.2,1.7-0.5,3.5-0.3,5.3c0.3,4.1,2,6.5,6.6,6.3c4.4-0.2,5.7-2.6,5.7-6.5c0-2.7-0.3-5.4-0.6-8.2c-0.7-5.4,0.5-6.3,5.8-4.6
	c2.9,1,5.2,3.4,8.5,3.5c2.4,1.2,3.8,3.3,5.3,5.3c3.2,4.1,6.4,7.3,12.8,5.7c3.8-1,7.6,2,11,4.3c6.8,4.6,14,7.8,22.4,4.2
	c5.5-2.3,6.5-4.8,4.4-10.3c-0.4-1.1-0.7-2.2-1.1-3.3c-0.5-1.4-0.7-2.7,0.5-3.8c1.3-1.2,2.7-0.5,3.7,0.4c4.5,3.6,9.6,6.7,11.6,12.6
	c-3.3,1.2-6,3.4-8.5,5.9c-11.5,11.1-22.3,23-38,28.5c-16.9,5.9-34.1,5.4-51.3,1.9c-2.3-0.5-4.6-0.5-7-0.8c-3.3-0.8-6.6-1.7-10-2
	c-1.3-1.2-2.8-1-3.6-1c0.7-0.4,2-0.1,3.3,0.8c3.5,0.7,6.9,1.4,10.4,2.2c9.4,3.5,19.9,2.9,28.8,8.3c-11.3-2.3-22.8-4.2-34-7.1
	c-15-3.9-30.4-5.3-45.7-6.8c-10.9-1.1-21.8-2.6-32.2-5.8C31.4,343,27.9,342.3,24.3,341.8"/>
<path class="st27" d="M160.5,168.1c-24.8,1.7-48.6,7.1-70.7,18.9c-8.1,4.3-14.7,10.1-21,16.5c1.9-31.1,6.9-61.7,14.1-92
	c0.3-1.1,0.7-2.2,1-3.4c4.5-17.6,15.1-18,27.6-7.3c11.7,10.1,21.9,21.9,30.3,35C148.5,146.3,155.7,156.5,160.5,168.1z"/>
<path class="st20" d="M126.4,367.4c-2.2,0-4.6,0.6-6.4-0.3c-1.5-0.8,2.4-0.7,1.1-1.7c-0.8-0.7-2.6-0.3-4-0.3c-19,0.5-38-0.6-57,0.8
	c-12.1,0.9-24.1,2.3-36.2,2.7c-1.6,0.1-4.2,0.5-3.2,2.2c3,4.9-1.7,9-0.6,13.6c0.1,0.6,0,1.3-0.5,1.7c0.5,1.2,0.8,2.6,0.5,4.1
	c0.2,0.6,0.3,1.1,0.5,1.7c0.3,1,0.3,1.9,0.2,2.8c26-10.2,53-16.9,80.3-22.7C109.6,370.2,118,368.9,126.4,367.4L126.4,367.4z"/>
<path class="st20" d="M92.1,375.9c-3.3,5.6-10.4,7.6-16.4,4.5C80.9,377.9,86.6,377.2,92.1,375.9z"/>
<path class="st20" d="M107.5,373.4c-3.2,4.3-7.2,4.2-11.6,2.3C99.6,374.1,103.4,373.1,107.5,373.4z"/>
<path class="st20" d="M126.4,367.4c1.8-1.5,3.7-1.4,5.7,0.1C130.2,367.4,128.3,367.4,126.4,367.4L126.4,367.4z"/>
<path class="st28" d="M97.6,580.3c-0.1-1.6-0.8-3-2.1-4c-13.3-2.8-26.4-6.7-39.5-10.4c-13.7-3.8-26.7-9.2-39.6-14.9
	c-7.2,2.4-8.7,9.7-10,16.7c-1.2,6.3-1.9,12.5-3.9,18.5c0,4.5,0.1,8.9,0.1,13.4c2.8,1,5.5,1.8,8.2,2.9c26.5,10.4,53.6,18.6,81.7,23.4
	c1.5,0.2,3.2,1.4,3.3-1.4C97.2,609.7,98.7,595,97.6,580.3z"/>
<path class="st15" d="M153.5,681c3.2,0.1,6.5-1,9.5,1C159.8,681.8,156.5,682.7,153.5,681z"/>
<path class="st29" d="M366.8,675.9c2-3.4,13.4-8.6,17.4-8.1c3.2,0.4,2.4,2.9,2.7,4.8C380.3,674.8,373.5,675.2,366.8,675.9z"/>
<path class="st29" d="M336.1,679.5c1.5-2.9,3.7-2.3,5.9-1.1c-1.3,1.5-3.1,1.1-4.7,1.2C336.9,679.6,336.5,679.6,336.1,679.5z"/>
<path class="st29" d="M273.7,683.1c1.2-1.4,2.8-2.2,4.6-2.2c10.7-0.5,20.6-5.1,31.2-6.4c6.7-0.9,13.1-0.6,19.6,0.5
	c2.9,0.5,3.6,2.7,4.7,4.7C313.9,683.1,293.9,684.5,273.7,683.1z"/>
<path class="st30" d="M65.2,479.4c1.3-0.1,2.7,0.1,3.5-1.3c2-1.1,3.8-0.1,5.6,0.7c19.9,10,40.6,17.8,62.3,23.1
	c0.6,0.1,1,0.6,1.3,1.1c16,4.6,32.4,6.9,48.8,9.1c24.5,3.3,49.2,4.3,73.9,3.5c2.6,0.1,3.5,1.3,3.5,4.1c-0.1,7.6,0.1,15.3,0.6,22.9
	c0.1,2.2-0.6,2.7-2.5,2.7c-28.6,1.4-57.2,1.5-85.7-1.5c-33.4-3.5-65.7-12.6-98.3-20.2c-4.7-5.5-10.4-10.1-15.9-14.7
	c-5-4.3-4.6-16,0.5-20.3c2.5-2,5.2-1,8.9-0.7C65,486,64,484.4,65.2,479.4z"/>
<path class="st11" d="M275.1,590.2c-4.3,0.5-5.5,2.7-5.2,7.1c0.8,11.7,1.2,23.3,1.3,35c0,4.2,1.6,5.4,5.5,5.2
	c4.5-0.3,9-0.1,13.4-0.2c-1.9,1.6-4.1,1-6.2,1c-18.1,0-36.1,0.1-54.2-0.1c-4.1,0-8.2-0.7-12.2-1.2c-3.5-0.4-3.8-3.5-3.7-5.7
	c0.3-7.4-0.8-14.8,0.4-22.2c0.7-4.3-2.6-8.6-1-13.7c1.1-3.4,2.3-4.3,5.5-4.3c12.8,0.1,25.5-0.1,38.3,0.1
	C263.1,591.4,269,589.1,275.1,590.2z"/>
<path class="st31" d="M96,624.4c-3-9.8-0.2-19.7,0-29.5c0.1-6.2-0.2-12.4-0.5-18.6c13.2,3.2,26.5,6.1,40,8.2
	c7.3,1.1,9.5,4.6,6.8,11.2c-1.4,3.5-1.1,6.7-0.9,10.2c0.4,7.6,0.3,15.2,0.5,22.8c0.1,3.3-1.8,4.1-4.5,3.7
	c-11.8-1.6-23.5-3.2-35.3-4.9C99.6,627.2,98.6,624.2,96,624.4z"/>
<path class="st32" d="M410.2,484.1c3.1-2.8,7.2-2.5,10.9-3.5c-4.6,4.2-2.1,9.2-1.5,13.9c0.7,5.1,0.4,10.5,3.4,15.1
	c1,1.5,1.6,3.1,1.5,5c-6.8,2.7-13.7,5.4-20.5,8.1c-3.6,1.4-5.8-0.7-7.2-3.5c-1.6,0.8-1.7,1.8-1.7,2.7c0,1.7-0.3,3.3-2.3,3.4
	c-1.9,0.2-1.9-1.9-2.3-2.9c-3.4-7.8-8.5-15-7.3-24.2c7.9-1.1,3.8-7.6,5.4-12.6c2.4,5.1,5.4,4,8.8,2.1c2.9-1.6,6.1-2.7,9.5-2.5
	c1.8,0.4,2.4,1.7,2.9,3.2C409.7,487,409,485.4,410.2,484.1z"/>
<path class="st29" d="M304,637.1c1.9-1,4-1,6.1-0.9C308.3,637.8,306.1,637.1,304,637.1z"/>
<path class="st33" d="M284.3,319c-1.3-1.2-2.8,0-4.2-0.4c14.2-21.8,32.3-27,60.4-17.8c2.5,0.8,4.9,2.7,7.8,1.4
	c0.3-0.2,0.8-0.4,1.1-0.2c1.7,0.9,5.8,2.2,7.2,2c-2.5,1.4-4.5,2.5-6.5,3.6c-0.8,3.8-3.1,1.9-4.9,1.2c-5-2.2-10.1-4.2-15.4-5.5
	c-7.7-2-7.9-1.8-8.1,6c-0.1,3.6,1,7.5-2,10.6c-5,0.8-9.8,2.8-15,2.6c-3.3-2.8-3-6.5-2.7-10.2c0.2-2.5,1.2-4.9,0.1-7.8
	C294.2,307.1,289.8,313.8,284.3,319z"/>
<path class="st34" d="M152.2,305c-4.9,2-8-3.2-12.7-2.7c0.7,4.1,1.3,8.6,1.2,13.2c-0.1,4-0.5,7.2-5.5,7c-4.5-0.2-10,2.1-10.7-5.9
	c-0.4-4.9,1.1-9.7,0.4-14.8c-8.4,1.5-14.4,6.5-20.3,12c-1.1,1-1.9,3.8-4.4,1.7C110.4,300.5,132.3,288.8,152.2,305z"/>
<path class="st35" d="M319.5,319.9c0-5.1,0.2-10.1,0-15.2c-0.2-4.1,0.2-6.2,5.3-4.7c8,2.4,16.3,3.6,23.1,8.8c1.3,1,1.2-1,2.1-1.2
	c2.4,2,4.7-1.7,7.2-0.1c-0.3,1.2-1.6,0.6-3.4,2.5c9-1.8,16.9-1.9,24.8-0.9C358,308.1,339.1,315.7,319.5,319.9z"/>
<path class="st36" d="M284.3,319c3.5-9.4,11.6-13.8,20.5-18.7c-0.2,8.1-2.3,15.1-0.3,22.1C297.6,322.3,290.3,324.6,284.3,319z"/>
<path class="st20" d="M303.1,400.4c10.9,2.7,20.8,7.8,31.3,11.6c1.3,0.5,2.6,0.9,3.8,1.5c1.7,0.8,4.7,0.5,5,2.4
	c0.5,2.8-2.8,1.7-4.2,2.7c-2.6,1.9-5.3,19.9-3.4,22.6c1.4,1.9,3.6,1.2,5.3,1.8c1.8,0.7,4.2,1,4.1,3.5c-0.1,2.3-1.9,2.8-4,3.4
	c-5.4,1.5-8.5,7.6-14.9,7.3c-0.9,0-1.9,0.7-2.8,0.7c-1.8,0-4.3,1.1-5.3-1.1c-0.8-1.8,1.3-2.9,2.5-4.1c2.9-3.1,6.5-6,2.3-10.8
	c-1.3-1.5-0.2-2.9,1.3-3.8c2.6-1.5,2.5-2.8,0.2-4.9c-5-4.6-5-9.2,0.5-13.8c3.9-3.2,2.8-4.2-0.8-6.4
	C317.1,408.8,309.4,405.7,303.1,400.4L303.1,400.4z"/>
<path class="st20" d="M429.8,395.2c-11.2,0.8-14,3.9-11.4,16.5c0.8,3.8,2.5,7.1,1.6,11.4c-1.7,7.5-4,9-10.9,6.1
	c-7.3-3.1-10.9-7.8-10.4-15.2c0.4-5.9,6-8.4,9.8-11.8c2.6-2.4,6.9-2.8,7.1-7.6c0-1.2,1.8-1.2,3-1.2
	C422.1,393.1,425.6,393.6,429.8,395.2z"/>
<path class="st20" d="M247.8,409.4c0.5-1.9,1.4-3.7,3.6-2.2c4.7,3.3,10.7,2.1,15.6,4.5c2.2,1.1,4.4,0.3,6.6-1c7-4.1,9-3.8,14.8,1.7
	c0.7,0.7,1.1,1.7,2.3,1.5c1.7-0.3,2.6-4.4,5-1c2.8,3.8,6.1,7.4,5.8,12.4c-0.2,2.7-1,5.4-2,7.9c-1.1,2.7-3.1,4.5-6.5,3
	c-2-0.9-4.1-1.4-6.1,0.1c-1.7,1.3-3.9,3-5.4,0.3c-1.4-2.4-1.5-5.3,0.9-7.5c2-1.8,4.2-3.5,6.1-5.4c3.9-4,3.6-5.4-1.7-6.7
	c-1.7-0.4-2.6-1.6-3.9-2.4c-11.2,4.8-22,2.8-32.5-2.3C249.2,411.6,248,411,247.8,409.4z"/>
<path class="st20" d="M137.9,503c-11.2-0.1-21.1-5.1-31.5-8.4c-13.1-4.2-25.6-10-37.7-16.5c-7.3-6-15.7-10.7-22.5-17.5
	c-1.8-1.4-3.5-3-4.9-4.9c-2.7-4.3-7.3-7.1-9.5-11.8c4.9,0.7,8.6,3.1,11.1,7.6c2.1,3.8,5.5,6.6,9,9c24.3,16.6,49.6,31.4,78.8,38
	C135.6,499.7,136.9,500.7,137.9,503z"/>
<path class="st37" d="M247.8,409.4c8.9,6.5,19,7.2,29.4,5.9c1.9-0.2,3.8-0.5,5.8-0.7c-0.3,4.4-4.7,1-6.1,3.3
	c-2.1,2.3-4.4,1.2-6.7,0.4c-17.6-0.7-30.7-8.7-39.9-24.4c-7.8,10.8-16.1,20.8-29.7,24c-5.3,0.5-10.8,2.7-15.2-2.4
	c0-0.3,0.1-0.6,0.1-0.9c19.1,5.1,30.7-5.6,40.5-19.6c3.6-5.1,2.2-11.3,1.9-17.2c1.1-1,2.2-1,3.3-0.1c0.1,4.4,0.2,8.7,0.4,13.1
	c0.1,1.5,1,2.6,2.1,3.6c1.8,0.4,1.7,2.3,2.6,3.4c0.7,1.6,1.8,2.8,3.2,3.6c1.5,0.9,3,1.7,3.5,3.6C244,407.1,245.7,408.5,247.8,409.4z
	"/>
<path class="st20" d="M26,412.6c1.4-3.5,4.8-4.4,7.6-6c10.3-5.6,21.3-9.6,32.3-13.8c7.8-3,16.4-3.8,23.3-8.9c1.6-1.1,3.2-1.4,5-1.1
	c1.3,0.3,2.9,0.6,3.2,2.1c0.3,1.8-1.4,2-2.7,2.4c-23.2,6.7-46.2,13.8-67.6,25.4C26.9,412.9,26.4,412.7,26,412.6z"/>
<path class="st20" d="M408.5,450.8c-1.3,1.6-2,3.7-3.9,4.9c-6.6,4.2-13.1,8.5-19.7,12.7c-1,0.6-2.4,2-3.6,0.3
	c-0.7-1.1,0.1-2.4,1-3.1c6.4-4.8,12.3-10,17.8-15.7c1.7-1.8,4.4-1.2,6.8-1.1C408.1,448.9,408.8,449.4,408.5,450.8z"/>
<path class="st20" d="M116.6,376.8c2.5,0,3.5,0,4.5,0c1.4,0,3.1,0.2,3.4,1.7c0.4,2.1-1.7,1.7-2.9,2c-2.4,0.7-4.9,1.2-7.4,1.7
	c-1.5,0.3-3.3,0.9-3.9-1.2c-0.7-2.2,0.9-3.3,2.7-3.8C114.6,376.8,116.4,376.9,116.6,376.8z"/>
<path class="st20" d="M310,448.2c-3.1-3.8-7.2-5.9-11.1-9.4c3.2-0.5,5.9-3.6,8.4-0.1C309.1,441.2,313.4,443.5,310,448.2z"/>
<path class="st20" d="M456.5,406.4c-1.7,5.8-4.3,11.2-7.5,16.4C447.6,417.4,451.3,409.4,456.5,406.4z"/>
<path class="st20" d="M362.4,414.5c2.2,0.3,4.8,0.3,5.3,3.3c0.3,1.7-0.8,2.8-2.4,2.2c-2.5-0.9-6.1-0.7-6.8-3.5
	C357.9,414.3,360.7,414.7,362.4,414.5z"/>
<path class="st20" d="M397.3,444.3c-3.6,4.3-8.1,5.1-12.3,7.8C387.4,446.5,390.1,444.8,397.3,444.3z"/>
<path class="st20" d="M462.3,392.2c-0.5,2.1-0.1,4.8-3.5,4.8c-2.2-1.6-4.9-1-7.5-1.7C454.6,391.8,458.5,392,462.3,392.2z"/>
<path class="st20" d="M385.9,424c2,0.4,3.8,1.3,3.9,3.6c0.1,1.4-1.3,1.8-2.6,1.3c-1.8-0.6-4.3-0.5-4.5-2.9
	C382.6,424.4,384.4,424.1,385.9,424z"/>
<path class="st20" d="M459,397.9c2,3-1.3,4.7-1.8,7.2c-1.3-1.9-3.1-3.5-3.6-6.1C455.1,397.2,457.3,398.4,459,397.9z"/>
<path class="st20" d="M444.6,429.9c-1.8,3.6-4.1,6.9-7.1,9.6C437.5,434.5,438.4,430.2,444.6,429.9z"/>
<path class="st20" d="M209.6,429.6c-2.4,1.6-4.1,3.4-6.6,1.6c-0.9-0.6-1.1-1.8-0.3-2.5C205,426.6,207.1,427.4,209.6,429.6z"/>
<path class="st20" d="M185.4,415.5c4.7,3.1,10,2.5,15.2,2.4c-4.2,2.6-8.7,1-13.1,1.1C185.4,419.1,185.4,417.1,185.4,415.5z"/>
<path class="st20" d="M270.2,418.3c2.2-0.1,4.5-0.3,6.7-0.4c1.4,0.6,3.7,1.4,0.4,2.3C274.9,420.9,271.9,421.1,270.2,418.3z"/>
<path class="st20" d="M444,396.6c-2.7,2.2-4.9,3.4-7.4-0.1C439.2,395.4,441.3,395.2,444,396.6z"/>
<path class="st20" d="M354.4,414.4c-0.3,1.3-1.3,1.2-2.2,0.9c-1-0.4-2.4-0.6-2.3-2c0.1-1.3,1.4-1.1,2.3-0.9
	C353.3,412.5,354.3,413,354.4,414.4z"/>
<path class="st20" d="M397.8,391.9c2.3-1.2,3.9-1.3,5.9-0.1C401.9,393.7,400.3,393.5,397.8,391.9z"/>
<path class="st20" d="M369.2,437.4c-0.5,0.4-1.2,1.1-2,1.3c-1,0.2-1.3-0.6-0.9-1.4c0.4-0.9,1.2-1.4,2.2-1.3
	C369.1,436,369.5,436.3,369.2,437.4z"/>
<path class="st20" d="M274.4,439.2c-1.2,0.5-1.8,0.9-2.5,1c-0.3,0-1.1-0.7-1-1c0.1-1,1-1.1,1.8-1
	C273.1,438.2,273.5,438.6,274.4,439.2z"/>
<path class="st20" d="M236.2,398c-1.3-0.8-2.2-1.9-2.6-3.4C237,393.8,236.3,396.1,236.2,398z"/>
<path class="st20" d="M376.2,421.8c0.6,0.5,1.3,0.7,1.5,1.1c0.4,0.9-0.1,1.5-1,1.5c-0.4,0-1-0.7-1.1-1.1
	C375.4,422.9,375.9,422.4,376.2,421.8z"/>
<path class="st20" d="M242.9,405.2c-1.5-0.8-2.7-2-3.5-3.6C241.3,402,243.6,402.1,242.9,405.2z"/>
<path class="st20" d="M424.9,391c1,0.1,2,0.2,3,0.3c0,0.2,0,0.4-0.1,0.6c-1.1,0-2.1,0-3.2,0C424.7,391.6,424.8,391.3,424.9,391z"/>
<path class="st20" d="M303.1,400.4c-1.4-0.2-3.1,0.4-3.8-1.6C301.2,398.2,302.1,399.4,303.1,400.4L303.1,400.4z"/>
<path class="st38" d="M231.2,377.8c-1.1,0-2.2,0-3.3,0.1c-4.1-3.5-5.9-8.1-6-13.4c-0.1-3.7-2.4-5-5.5-3.8c-4.6,1.8-6.8-0.8-8.1-4.2
	c-1.5-3.9,0.3-7.3,4.2-8.3c12.1-3.1,24.3-3.5,36.2,0.8c2.3,0.8,4.3,2.4,4.5,5c0.2,2.9-3,3.1-4.3,4.6c-4.8,5.4-13.7,6.8-15.2,15.5
	C233.4,375.3,232,376.5,231.2,377.8z"/>
<path class="st32" d="M442.1,471.1c-0.4,0-1,0.1-1.1-0.1c-2.7-4.2-5.6-8-11.2-3.7c-0.1,0.1-1.2-0.7-1.1-0.9c0.2-0.7,0.5-1.6,1.1-1.9
	c5-2.7,9.5-7.1,16.1-5.4c1,0.3,2.7,0.1,3.3-0.6c3.6-4.4,9.9-4.8,13.3-9.2c3-3.9,6-4.1,9.3-0.4c-7.2,5.9-15.2,10.6-23.2,15.3
	C445.6,465.7,442.9,467.5,442.1,471.1z"/>
<path class="st32" d="M430.4,475.8c1.9-3.1,4-4.9,7.3-1.6c1.9,2,3.4,1.3,4.5-0.9c1.8,2,1.3,4-0.4,5.6c-2,1.8-3.7,0.2-5-1.1
	C434.9,476.1,432.8,475.6,430.4,475.8z"/>
<path class="st32" d="M455.3,449.4c3.4-4.3,6.7-8.8,14-10.3C465.3,444.9,459.8,446.5,455.3,449.4z"/>
<path class="st23" d="M410.2,484.1c0.7,2.2,1.5,4.4,2.1,6.6c0.3,0.9,0.2,2-1,2.4s-1.8-0.4-2.1-1.3c-0.8-2.2-1.6-4.3-2.4-6.5
	C407.7,484,409,484.1,410.2,484.1z"/>
<path class="st20" d="M118.2,355.6c-3.7-0.1-7.3-0.6-10.6-2.4l-0.1,0.1C111.3,353.2,114.8,353.8,118.2,355.6
	C118.1,355.6,118.2,355.6,118.2,355.6z"/>
<path class="st20" d="M107.6,353.2c-1.5-0.1-3.1-0.2-5.4-0.4C104.6,352,106.2,351.8,107.6,353.2
	C107.5,353.3,107.6,353.2,107.6,353.2z"/>
<path class="st30" d="M52.8,465.6c-6.8-6.9-13.2-14-18-22.2l-7.9-6.7c-1.3,21.3-13.2,45.4-1.4,65.1c0.9,1.5,0.9,3,0.4,4.2l52.3,17.6
	l3.8-39.9C70,482.4,61,473.9,52.8,465.6z"/>
</svg>
