<?xml version="1.0" encoding="utf-8"?>
<!-- Generator: Adobe Illustrator 27.4.0, SVG Export Plug-In . SVG Version: 6.00 Build 0)  -->
<svg version="1.1" id="Layer_1" xmlns="http://www.w3.org/2000/svg" xmlns:xlink="http://www.w3.org/1999/xlink" x="0px" y="0px"
	 viewBox="0 0 720 720" style="enable-background:new 0 0 720 720;" xml:space="preserve">
<style type="text/css">
	.st0{fill:#43424C;}
	.st1{fill:#3B569B;}
	.st2{fill:#90AAA8;}
	.st3{fill:#EFD7B1;}
	.st4{fill:#7D8F97;}
	.st5{fill:#F1B087;}
	.st6{fill:#F3E4C7;}
	.st7{fill:#4B4A63;}
	.st8{fill:#F6E8D0;}
	.st9{fill:#B5D5C3;}
	.st10{fill:#F9F1DF;}
	.st11{fill:#FCBF60;}
	.st12{fill:#E9CCB0;}
	.st13{fill:#F7DFA4;}
	.st14{fill:#DE8A90;}
	.st15{fill:#BF7770;}
	.st16{fill:#F0D9B3;}
	.st17{fill:#F8F0DD;}
	.st18{fill:#95C3BA;}
	.st19{fill:#57767C;}
	.st20{fill:#B7D0B8;}
	.st21{fill:#C1B7A5;}
	.st22{fill:#E5DCC3;}
	.st23{fill:#F2E7D1;}
	.st24{fill:#E96836;}
	.st25{fill:#D1CCB9;}
	.st26{fill:#FDD78F;}
	.st27{fill:#393244;}
	.st28{fill:#3B364F;}
	.st29{fill:#BB9F9C;}
	.st30{fill:#E8CAAE;}
	.st31{fill:#4A5A64;}
	.st32{fill:#68777D;}
	.st33{fill:#D8C8AE;}
	.st34{fill:#F0E3CC;}
	.st35{fill:#2C3041;}
	.st36{fill:#EFC186;}
	.st37{fill:#93B8AC;}
	.st38{fill:#DBC5AF;}
	.st39{fill:#99B2B4;}
	.st40{fill:#97AEB3;}
	.st41{fill:#ED6D5B;}
	.st42{fill:#E0DAC2;}
	.st43{fill:#F19663;}
	.st44{fill:#F0AB83;}
	.st45{fill:#6FB1A9;}
	.st46{fill:#68AAA8;}
	.st47{fill:#D24A57;}
	.st48{fill:#CACBB8;}
	.st49{fill:#94BCB0;}
	.st50{fill:#799CA1;}
	.st51{fill:#496775;}
	.st52{fill:#908489;}
	.st53{fill:#BB646E;}
	.st54{fill:#9BABA8;}
	.st55{fill:#2E2A3B;}
	.st56{fill:#F5D192;}
	.st57{fill:#97BDAF;}
	.st58{fill:#B1CFBE;}
</style>
<rect x="0" y="0" class="st0" width="720" height="720"/>
<path class="st1" d="M719,5.6c3.2,11.6,4.9,23.8,4.9,36.5c0,75.3-61.1,136.4-136.4,136.4S451.1,117.4,451.1,42
	c0-12.6,1.7-24.9,4.9-36.5"/>
<g>
	<path class="st2" d="M44.3,652.4c-1.3-3.5-1.3-7.2-1.4-10.7c-0.6-14.2-1.5-28.5-0.6-42.8c-0.1-1.8,0.8-2.3,2.3-1.6
		c0.8,0.3,1.3,1,1.8,1.8c6.3,10.4,14.7,19.2,22.6,28.3c2,2.3,4.4,4.1,7.1,5.8c5.3,3.2,9.3,8.1,13.9,12.2
		c15.3,13.5,31,26.4,48.3,37.3c1.8,1.1,3.6,2.3,5.9,1.8c1.8-0.2,3.2,0.7,4.6,1.7c6.2,4.3,12.3,8.8,17.6,14.3
		c1.3,1.3,2.6,2.6,4.2,3.4c9.2,4.4,17.6,10.4,26.8,14.9c5.9,2.9,11.4,6.5,17.7,8.7c3.6,1.3,4.3,3.6,3.2,7.5c-1.2,4.2-3.4,8-5.8,11.6
		c-2.9,4.3-5.3,8.9-9.2,12.4c-2.6,0.3-3.6-1.9-4.8-3.5c-10.2-13.8-19.8-28-29.4-42.2c-1.8-1.6-2.6,0.3-3.3,1.2
		c-5.1,6.2-8.8,13.1-5.1,21.2c3.9,8.5,2.9,15.4-4.3,21.7c-3.7,3.3-6.5,7.7-10,11.4c-2.6,2.8-5.3,3.2-8.6,1
		c-17.6-11.6-35.7-22.4-52.2-35.6c-7.2-5.8-12.2-13.6-18.5-20.2c-2.4-2.5-4.9-5-7.5-7.3c-5-4.5-5.3-7.1-1.6-12.8
		c2.6-4,6.4-7,9.4-10.8c2-2.5,2.1-4-0.4-6.3c-7-6.3-12.5-14-18.6-21.2C47.4,654.2,46.6,652.3,44.3,652.4z"/>
	<path class="st3" d="M44.3,542.5c0.9-17.6,3.6-34.9,7.2-52.1c1.4-6.8,2.6-13.6,3.9-20.5c-0.2-0.2-0.5-0.5-0.4-0.7
		c1-8.1,1.6-16.3,6.7-23.2c2.8-0.1,2.9,2.3,3.5,4c2.5,6.9,5.1,13.7,8.8,20c3.4,5.3,6.5,10.8,10,16.1c0.9,1.3,1.7,2.6,1.8,4.2
		c-1.9,13.2-4.7,26.2-7.2,39.3c-0.7,3.8,0.1,6.6,2.6,9.6c12.6,14.8,26.1,28.6,41.5,40.5c4.9,3.8,10.1,7.2,15.5,10.1
		c10.2,6.1,20.6,12,31.4,16.8c-1.1-0.5-2.3-1-3.4-1.6c-4.6-2.7-5.1-3.8-3-7.5c2.6-4.6,5.5-5.7,9.5-3.4c4.8,2.6,6.7,1.8,7.9-3.7
		c0.6-2.6,1.1-5.2,2.9-7.3c3.1-3.7,6.7-3.4,9.6,0.7c0.4,5.6-1.2,11-1.9,16.5c-0.8,6.1-0.7,12.2-2.4,18.2c-1.5,2.4-3.6,1.5-5.6,1
		c-3.9-0.9-5-0.2-5.7,3.8c-0.4,2.2-0.6,4.5-1.1,6.7c-0.9,4.5-2.2,8.7-6.5,11.3c-1.3,0.8-2.1,2.2-2.9,3.6c-2,3.2-4.1,3.9-6.3,1.2
		c-4.2-5.4-8.1-6.7-13.7-2c-2,1.7-5,0.7-7.3-0.5c-7.5-3.7-14.4-8.1-18.7-15.7c-0.2-0.4-0.4-0.9-0.7-1c-5.5-2-9.1-7-14.7-9
		c-2.3-0.8-4.3-2-6-3.8c-6.6-6.7-13.8-12.8-20-19.9c-11.4-13-22.3-26.4-31.1-41.3c-1.3-2.2-2.4-4.4-3.6-6.7
		C44.2,545.2,43.3,544,44.3,542.5z"/>
	<path class="st4" d="M44.3,652.4c0.1-1.9,0.5-2.9,2.2-1c3.4,3.9,6.7,7.9,10.1,11.9c4,4.8,7.6,10,12.8,13.8c2,1.5,2.3,3.1,0.3,5.3
		c-3.8,4.1-7.6,8.2-11,12.7c-3.3,4.4-3.3,6.2,0.8,9.7c7.3,6.3,12.8,14.1,19.3,20.9c10.5,11.1,23.1,19.5,35.9,27.6
		c7.9,5,15.8,10.1,23.6,15.4c3,2,5.1,1.7,7.2-0.8c5.1-6,10-12,15.2-17.9c1.7-1.9,2-3.8,1.2-6.1c-1.2-3.3-2-6.7-3.1-10
		c-2.1-6.4,1.9-18.3,7.5-22.1c1.4-0.9,2.8-1.6,3.7,0.7c-2.1,7.8-2.7,15.7-2.1,23.7c0.2,2.9,0.1,5.9-0.7,8.8c-0.5,1.7-0.4,3.3,0,5
		c3.6,13.3,7.3,26.5,14.9,38.2c3.5,5.4,3.1,6.6-1.6,11.3c-4.5,4.5-9.7,8-14.8,11.7c-4,2.9-8.1,5.4-10.5,9.9
		c-5.5,1.2-10.9,1.3-16.1-1.6c-4.8-4-10.6-6.6-15.5-10.5c-7-5.6-13.9-11.2-20-17.7c-0.8-0.8-1.7-1.4-2.6-2.1
		c-8.5-9.9-17.1-19.6-23.7-31c-11.9-20.3-20.3-41.9-26.2-64.6c-3.3-12.9-6.3-26-7.1-39.4C44.2,653.5,44.3,653,44.3,652.4z"/>
	<path class="st5" d="M44.3,542.5c5.9,12.3,13.5,23.6,22,34.2c6.3,7.8,12.8,15.5,19.7,22.9c5.1,5.5,10.3,11.4,16.6,15.4
		c5.1,3.3,10.2,6.7,15.6,9.5c2.7,1.4,3.3,3.2,4.9,5c5.6,6.3,11.8,12,20.3,14.2c2.2,0.6,4-0.7,5.7-2c5.2-4.1,5.7-4,9.6,1.1
		c0.8,1,1.7,1.9,2.6,2.7c1.9,1.7,3.7,2.2,4.5-1.1c0.3-1.3,1.1-2.5,2.1-3c6.7-3.6,7.1-10.2,8-16.5c1-7.5,1.7-8.1,8.9-5.8
		c0.9,0.3,1.9,0.3,2.9,0.4c5.6,0.7,10.6,2.8,15,6.2c0.9,2.4-0.4,4.1-2,5.6c-5.2,5.1-9.9,10.7-15.7,15.1c-4.5,3.5-7.1,8.6-11.5,12.2
		c-1.3,1.1-2.4,2.4-4.1,2.9c-2.9-0.3-5,0.9-6.7,3.3c-2.3,3.2-5.3,5.7-8.1,8.4c-3.9,3.7-8.1,7.1-10.6,12c-1.9,1.7-3.4,0.2-4.9-0.7
		c-17.9-11.2-34.2-24.3-49.9-38.4c-3.9-3.5-7.2-7.7-11.4-10.5c-14-9.5-23.4-22.8-32.6-36.4c-0.9-1.3-1.7-2.6-2.9-0.2
		c-1-8.5-0.8-17.1-0.1-25.6c0.3-4.2,0.8-8.4-0.1-12.5c-0.4-2.1-0.5-4.2-0.1-6.3c0.7-3.1,1.9-6.1,0.7-9.4
		C42.4,544,42.9,542.8,44.3,542.5z"/>
	<path class="st6" d="M73.1,470.8c-4.2-6.2-6.6-13.1-9.1-20c-0.6-1.5-0.6-3.3-2-4.5c-1.8-6,0.5-11,3.6-15.9c0.6-0.5,0.7-1.1,0.6-1.8
		c4.9-14.7,9.5-29.5,15.3-43.9c0.5-1.1,1.1-2.2,1.6-3.3c2.2-0.3,2.7,1.7,3.5,2.9c2.6,4,4.5,8.4,6.9,12.6c2,3.6,4.9,5,8.8,4.2
		c5.7-1.1,11.5-0.4,17.2-1.3c4.8-0.7,6.5,2,4.3,6.5c-2.3,4.6-4.8,9.1-6.4,14.5c2.8-4.4,4.7-8.8,7.4-12.7c2.2-3.2,3.9-3.4,6.9-0.9
		c0.3,0.3,0.6,0.6,0.9,0.9c9,9,9.1,9.4,0.8,19.1c-2.5,3-4.6,6.4-7.2,9.4c-1.6,1.9-3.1,3.6-5.9,3.1c-1.9-0.4-2.4,1-2.6,2.5
		c-0.4,2.7-0.3,5.3-0.2,8c0.1,4.8-0.8,9.5-2.2,14.1c-0.7,2.4-1.5,5.1-4.5,5.6c-2.7,0.4-4.4-1.5-6-3.3c-3.1-3.6-6.1-7.3-9-11.2
		c-2.6-3.5-5-3.9-8.6-1.1c-4.1,3.2-7.6,7.2-11.8,10.1C73,466,75.1,469.1,73.1,470.8z"/>
	<path class="st7" d="M250.5,825.2c-9.3,0.2-18.5,0.7-27.8,0.4c-13.2-0.5-26.4-0.1-39.6-0.3c-19.9-0.4-39.9-1.1-59.8-1.7
		c-1.5,0-3.1,0.1-4.6,0.1c-13.5-0.5-27.1-0.9-40.6-1.4c20.3-3,40.8-1.1,61.2-3c5.5,0.3,11,1.3,16.6,0.8c1.6-1.4,3.4-0.9,5.2-0.6
		c3.5,0.7,6.3-0.3,8.8-2.8c11.2-11.7,21.5-24.1,28.3-39c1-2.3,2.2-4.6,3.7-6.6c1.5-2.2,3.4-3.8,6.2-3.7c2.7,0.8,3.4,3.4,5,5.3
		c3.2,5,6.5,10,9.5,15.1c5.2,7.6,9.8,15.6,15.2,23c3.1,4.3,6.3,8.5,10.8,11.6C249.5,822.9,250.6,823.7,250.5,825.2z"/>
	<path class="st8" d="M147.2,226.8c3.8-8.8,9.4-16.3,15.9-23c3.6-3.7,5.5-7.9,6.6-12.8c3.4-14.5,5.5-29.2,4.5-44.1
		c0-5.1,0-10.2,0-15.2c-0.4-0.5-0.6-1.1-0.5-1.8c0.5-1.4,1.1-2.7,1.4-4.1c0.2-9.2,2.7-17.7,7.1-25.7c1.7-3.1,4-5.7,7.3-7.2
		c5.6-1.6,10.7-0.3,15.7,2.4c12.6,6.8,24.2,15.3,37.4,20.9c1.9,0.8,3.9,1.6,5.8,2.4c6.4,3.5,13.1,6.5,19.2,10.4
		c3.4,2.2,7.4,0.3,11.1,0.1c13-0.8,26-1.7,39.1-1.5c3.9,6.5,8.6,12.9,5.8,21.2c-0.3,0.8-0.3,1.7-0.4,2.5c-0.5,4.2-2.1,5.9-6.2,6.8
		c-1.2,0.3-2.5,0.4-3.8,0.6c-2.3,0.4-3.1,1.6-3.2,4.1c-0.3,9,3.4,16.6,7.7,24.1c1.6,2.9,2.8,3,5.2,0.6c2.5-2.6,3.9-5.5,2.8-9.2
		c-1.6-5.1,0.1-9.3,3.4-13.2c3.2-3.7,5.2-3.6,7.7,0.7c2.1,3.6,4.3,7.3,6.4,10.9c0.6,1,1.1,2.6,2.7,2.2c1.4-0.4,1.6-1.9,1.7-3.1
		c1.4-14.5,4.2-28.6,7.9-42.7c0.5-1.8-0.2-3.6,0.3-5.4c10.5-0.6,20.9,0.4,31.4,1.5c-0.7,1.1-1.9,1.3-3,1.2c-4.4-0.4-7.2,2-9.5,5.1
		c-4.6,6.2-9.3,12.3-14.7,17.9c-2.1,2.2-1.8,3.2,1.3,3.8c2.8,0.5,5.5,0.9,8.2,1.9c2.6,0.9,4.8,2.4,6.5,4.5c0.8,1,1.4,2.4,2.5,2.8
		c6.6,2.1,7.2,7.9,8.8,13.2c0.3,1,0.1,2.5,1.6,2.6c3.7,0.4,6.1,2.6,8.4,5.1c0.7,0.7,1.7,1.2,2.7,1.1c6.6-0.8,13.3-1.7,17.3-8
		c4.1-6.4,10.6-9.9,16-14.8c1.1-1,2.6-1.4,3.9-0.4c1.5,1.2,0.4,2.6-0.1,3.8c-3.9,9.2-9,17.8-14.7,26c-3.8,5.5-3.6,6.3,3.1,7.9
		c7.2,1.7,13.9,4.4,20.3,8c11.2,6.4,11,9.7,2.6,19.4c-0.4,0.4-0.9,0.7-1.3,1.1c-1.6,1.5-4.2,2.8-2.8,5.4c1.3,2.4,4.3,2.4,6.8,2.6
		c1.7,0.2,2-1.6,2.7-2.8c2.1-3.9,4.9-4.7,8.7-2.5c2.8,1.6,5.6,3.3,6.9,6.5c1.6,4.1,5.7,3.4,8.8,4.9c0.7,1.4-0.2,2.3-1.1,2.7
		c-3.4,1.6-4.7,4.7-5.8,7.9c-0.9,2.4-2,4.6-3.4,6.7c-1.3,2-1.2,3.4,1.2,4.7c3.8,2.1,4,3.2,1.2,6.9c-5.2,7-10.3,14-14.8,21.4
		c-3.1,4.4-6.4,8.7-10.9,12.7c3.6,0.8,6.3-1.7,9.3-0.7c0.5,0.3,0.9,0.8,1,1.4c-0.4,1.7-1.9,2-3.1,2.4c-1.8,0.7-3.8,1.2-5.7,1.6
		c-7.7,2-11.9,6.6-12.9,14.5c-0.3,2-1.7,2.4-3,3c-2.2,1.1-6.6,9.9-6.2,12.2c0.3,1.6,1.8,2.1,3,2.7c6,3.1,12.1,5.9,17.9,9.4
		c0.4,0.1,0.7,0.3,1.1,0.5c3,1.7,5.9,3.6,9.1,5.1c8.1,6,16.6,11.5,24,18.4c2.5,2.3,5.7,1.3,7.1-1.8c0.8-1.8-0.6-2.6-1.6-3.4
		c-3.8-2.9-7.7-5.6-11.7-8.2c-3.6-2.3-7.6-4.1-10-8c0-0.4,0.2-0.7,0.6-1c2.8-0.5,4.8,1.2,6.9,2.5c6.1,3.7,12.1,7.6,17.8,11.9
		c1.5,1.1,3,2,4.9,2.2c6.4,3.2,12.4,7.1,18.3,11.1c1.8,1.2,2.6,2.9,1.3,5.1c-0.5,0.8-0.9,1.8-1,2.8c-0.5,3.5-2.4,4.5-5.7,3.2
		c-0.8-0.3-1.6-0.5-2.5-0.5c-3.6-0.1-4.5,1.1-3.2,4.5c0.6,1.4,1,2.9,1.6,4.3c0.8,1.6,2.1,3,2.1,5c-0.2,0.7-0.6,1.1-1.2,1.2
		c-1.9-0.2-2.6-1.8-3.6-3.1c-6.5-5.4-13.2-10.4-17.8-17.6c-0.9-1.4-1.5-3-2.4-4.4c-8.4-8-17.8-14.8-27.6-20.9
		c-8.2-5.2-16.6-9.9-25.6-13.8c-3.7-1.6-7-1.6-10.2,1.1c-1.1,0.9-2.4,1.5-3.7,2c-2,0.8-3.3,1.7-3.2,4.3c0.1,2.4-1.7,3.5-3.7,2.6
		c-6.2-2.7-12.2-0.1-18.2,0.8c-6.8,1.1-9.3,0.1-12.1-6.4c-0.8-1.8-2.1-2.5-3.6-3.3c-2-1.1-3.3-2.4-1.1-4.5c1.6-1,3.7-0.6,5.1-1.8
		c2.5-0.8,5.2-1.1,7.6-2.2c3.3-1.5,5.6-0.3,7,3.1c2.3,6,7.5,7.9,13.1,4.8c3.6-1.9,7.2-3.9,10.9-5.5c2.5-1.1,3.3-2.1,1-4.5
		c-4.1-4.3-3.8-5.7,1.7-8.2c3.8-1.8,6-4,4.2-8.5c-1.6-3.8,0.1-6.1,3.8-7.5c2.5-0.9,5.8-0.9,7.2-3.1c1.6-2.4-1.1-4.9-1.5-7.5
		c-0.7-3.9-0.2-7.7,1.9-11c2.3-3.6,4.2-7.3,6.1-11c2-3.8,4.8-6.9,8.6-9c0.7-0.4,1.5-0.8,2.1-1.4c1.9-1.9,5.2-2.6,5.3-5.8
		c0.1-1.3-7.9-3.3-10.2-2.7c-2.8,0.7-4.9,2.6-7.2,4.2c-1.8,1.3-3.5,2.9-5.7,3.6c-2.5,0.7-5.1,1.3-7.2-0.6c-2-1.8-0.1-3.9,0.2-5.9
		c3.1-3.4,5.6-7.2,8.3-10.9c2.5-3.4,6.2-5.1,10.1-6.4c-2.4-1.8-5.9-2.1-7.6-5c0.4-1.8-0.5-2.1-2-1.9c-1.1-0.4-1.8-1.3-2.4-2.2
		c-3.5-4.9-8.1-8.5-14-10.1c-1.1-0.3-2.1-0.7-2.9-1.6c-1.6-1.7-3.3-2.1-5.7-1.5c-3.5,0.8-7.9,2.1-9.5-2.4c-1.6-4.3,2.9-5.7,5.7-7.7
		c2.5-1.9,6.1-2.1,7.8-6c-2.6,0.3-4.3,1.5-5.9,2.6c-6.8,4.8-14.3,8.3-21.4,12.6c-2,1.2-2.6,2.5-2.6,5.1c0,7.2-3.4,13.5-7.3,19.3
		c-2.1,3.1-5.9,2.6-8.6-0.7c-6.3-8-14.7-12.8-24.1-16.4c-4.9-1.9-9.7-2-14.7,0.2c-9,3.9-17.3,8.7-24.3,15.6c-4.2,4.1-5.8,3.9-9-1.3
		c-2.6-4.3-6-8.5-2.3-13.9c0.7-1.1,0.1-2.4-0.9-3c-10-6-18.1-14.7-28.8-19.7c-0.7-0.3-1.5-0.8-2.5,0.1c1.8,3.1,5.2,4.1,7.9,6
		c5.8,4.1,6.3,6.6,2.3,12.5c-1.8,0.7-3.6,0.1-5.4-0.1c-9.6-1.6-17.6,1.8-23.7,8.9c-4.1,4.8-8.4,8.9-14.2,10.8c3.7,1.7,8,2.3,9.3,7.1
		c-2.9,4-8.1,3.9-11.8,6.4c-0.6,0.4-1.3,0.5-2,0.6c-4.3,0.7-8.1,1.8-6.9,7.5c-6.4-2.9-12.2-7.1-14.2-13.8
		c-2.5-8.3-7.1-11.5-15.4-10.4c-2.9,0.4-5.5-0.6-7.8-2.6c-1.7-1.5-3.8-2.4-5.9-3.1c-8-2.5-15.3-6.2-22.3-10.8
		C148.3,228.8,146.9,228.5,147.2,226.8z"/>
	<path class="st9" d="M355.8,127.5c1.6,1.1,2,2.6,1.4,4.4c-3.9,12.9-6,26.1-8,39.4c-0.3,1.8-0.1,3.6-0.2,5.5
		c-0.1,2.2-1.5,3.8-3.4,4.3c-1.9,0.5-2-1.6-2.7-2.6c-2.6-4.3-5.2-8.6-7.7-13c-1.6-2.8-2.6-2.7-4.8-0.3c-4,4.4-4.9,9.1-3.3,14.7
		c1,3.5-3.2,10.1-6.5,11c-1.8,0.5-2.6-0.6-3.3-1.9c-2.4-4.6-5.1-9.1-7.1-13.9c-2-4.8-0.8-10.2-1.7-15.3c-0.2-1.1,0.5-1.8,1.7-2
		c1.8-0.4,3.5-0.8,5.4-0.9c4.8-0.3,6.2-2,6.2-6.9c0-0.5-0.2-1.3,0.1-1.6c3.3-3.2,1.3-6.5,0.1-9.7c-1.4-3.8-2.8-7.5-4.2-11.3
		c10.5,0,20.9-0.1,31.4-0.1C351.4,127.4,353.6,127.4,355.8,127.5z"/>
	<path class="st10" d="M478.2,245.6c-5.3,0.7-8.8-1.2-10.9-6.4c-1.2-3-4.6-4-7.3-5.3c-2.5-1.1-4.8,0.3-5.3,3.2
		c-0.6,4-2.6,4.3-5.9,3.1c-2.6-0.9-6.2-0.6-6.6-4.1c-0.4-3.1,2.5-4.7,4.7-6.4c2.8-2.2,4.4-5.4,6.1-8.5c1.4-2.5-0.3-4.4-2.1-5.7
		c-6.6-4.8-13.9-8.5-21.8-10.6c-2.7-0.7-5.4-1.6-8.1-2.3c-3.2-0.9-4.1-2.3-1.9-5.4c4.9-7.2,9.9-14.3,13.7-22.2
		c1.2-2.5,1.7-5.4,3.6-7.6c0.4-0.5,0.9-1.3,0.3-1.9c-0.7-0.7-1.7-0.4-2.3,0.1c-1.7,1.4-3.3,3-5,4.5c-4.3,3.5-8.8,6.7-11.8,11.8
		c-2.7,4.7-8.2,5.5-13,6.9c-4.3,1.2-7.9,1.2-10.5-3.3c-1-1.8-3.1-2.3-5.2-2.2c-2.3,0.1-3.8,0.4-2.7-3c0.7-2.3-2.1-4.5-1.9-7.4
		c0.1-2.9-2.5-3.9-5.2-4.6c-1-0.2-2-1.2-2.5-2.2c-3.2-5.5-8.4-7-14.2-7.6c-0.7-0.1-1.5,0-2.1-0.3c-1.2-0.6-3.1,0-3.6-1.7
		c-0.5-1.8,0.9-2.8,2-3.9c5.2-5.1,9.9-10.7,13.8-16.9c3.5-5.4,8.2-7.7,14.5-6.8c2.2,0.1,4.4,0.1,6.6,0.2c1.4,0.7,3-0.1,4.4,0.6
		c1.4,0,2.7-0.1,4-0.9c7.9-4.6,16-9,24.5-12.6c11.8-4.9,22.2-12.2,33.2-18.5c3.3-1.8,6.5-3.9,10.1-5c10.3-3.1,16.4,2.5,20.4,11.8
		c3.2,7.4,4.8,15.4,4.8,23.5c-3.3,2.6-3.2-1.6-4.8-2.4c-0.9-2.5-1.2-5.2-1.5-7.8c-0.5-4.7-2-9-4.3-13.1c-3.2-5.8-7.1-7.3-12.9-4
		c-12.7,7.2-24.5,15.8-35.6,25.2c-5.9,5-11.7,10.1-16.2,16.4c-1.7,2.3-4,4.4-3.7,7.7c0.5,1.7,1.9,2.4,3.4,2.8
		c6.8,2.3,13.8,4.2,19.9,8.1c1.2,0.8,2.7,0.3,4.1,0.5c5.4,1.4,10.1,4.3,14.9,6.8c8.1,4.1,16.6,7.6,24.2,12.8
		c6.2,6.2,13.8,10.6,19.9,16.9c1.5,3.9,5.1,6.2,7.7,9.3c5.6,6.5,9.7,14,14.2,21.2c0.1,0.5,0.1,1.1,0.2,1.6c0.3,2.9-2.2,3.6-4,4.7
		c-10.9,6.5-23.2,8.7-35.4,11c-1.3-0.2-2.6,0.1-3.9,0.5C480.1,246.6,479,246.6,478.2,245.6z"/>
	<path class="st8" d="M490.9,125.7c2.1-0.4,1.6,3.8,4.3,2.5c1,0.7,0.7,1.6,0.6,2.6c-2.4,3.3-2.1,7.2-1.7,10.9
		c0.7,7.2,1.5,14.4,0.6,21.7c-0.1,1.3-0.5,2.9,1.1,3.8c0.3,0.3,0.7,0.5,1,0.8c1,9.5,3.3,18.7,5.6,27.9c0.2,0.8,0.3,1.6,0.4,2.4
		c-4,0.1-5.3-3.7-7.9-5.6c-4.2-3.3-9.2-5.8-12.4-10.3c0.1-1.2,0.9-2,1.5-2.9c3.6-5.8,5.9-11.8,5.6-18.9c-0.4-9.6-0.1-19.3-0.1-28.9
		C489.4,129.5,489,127.3,490.9,125.7z"/>
	<path class="st10" d="M495.9,167.8c-2.1,1.6-2.3-0.1-2.6-1.5c-0.4-2.4,0.5-4.7,0.7-7.1c0.5-5.1-0.4-10.1-1.3-15
		c-0.6-3.2-0.5-6.5-0.2-9.7c0.2-1.6,0.3-3.9,3.1-3.7c0.1,10.7,0.2,21.4,0.3,32.1C496.4,164.5,496.5,166.1,495.9,167.8z"/>
	<path class="st11" d="M495.9,167.8c0-1.6,0-3.3,0-4.9c1.2,1.6,0.6,3.4,0.7,5.1C496.4,167.9,496.2,167.8,495.9,167.8z"/>
	<path class="st8" d="M398.2,129.8c-1.5,0-3.1,0.5-4.4-0.6C395.3,129.1,396.8,128.9,398.2,129.8z"/>
	<path class="st12" d="M174.5,129.9c-0.1-0.8-0.1-1.7-0.2-2.5c0.3-0.6,0.5-1.2,0.8-1.8C175.1,127.1,175.6,128.6,174.5,129.9z"/>
	<path class="st13" d="M532.3,253.3c-0.7-0.3-1.6,0.1-2.9,1.1c-8.1,6.2-17.7,9-27.5,11c-5.8,1.2-5.6,1.2-5.6,7.2
		c0,6.7,0.2,13.5-2.2,20c-0.8,1.3-2,2-3.3,2.5c-9,3.4-17.9,7.1-27,10.2c-1.5,0.5-3.2,1.3-4.9,0.4c-2-3.3-4.9-6.2-4.4-10.6
		c3.8-8,9.5-14.7,14.7-21.8c2.7-3.7,2.8-3.8-1.3-5.4c-3.2-1.2-3.4-2.8-1.7-5.4c1.8-2.6,3.5-5.2,4.1-8.2c0.9-4.6,4.6-6.7,8-9
		c1.1,0,2.2,0,3.3,0c1.2,0,2.4,0,3.4-0.8c12.9-2.3,25.6-5,37.1-11.8c1.1-0.7,2-1.5,2.7-2.6c2.5,3.6,4.3,7.5,5.8,11.6
		c0.3,0.7,0.6,1.3,0.9,1.8"/>
	<path class="st14" d="M619.9,433.7c3,5.7,4.2,12,6.7,17.8c2.3,9.2,4.5,18.4,6.8,27.6c0.3,1.2,0.5,2.4,0.8,3.7
		c-6.7,12.8-14.8,24.7-23.1,36.5c-2.8,2-4.9,4.6-7,7.3c-6.9,8.5-15,15.9-22.3,24.1c-1.7,2-3.6,4-6.6,4.1c-3.6-1.5-5.1-5.1-7.7-7.6
		c-6.3-6-12.1-12.5-18.1-18.8c-2.5-2.7-3.1-4.7,0.2-7.2c6.4-4.8,12.2-10.4,18.2-15.7c8.4-7.4,14.9-16.4,22-24.9
		c5.6-6.7,10.6-13.8,15-21.3c4.6-7.1,8.9-14.3,12-22.2C617.4,435.5,617.6,433.6,619.9,433.7z"/>
	<path class="st15" d="M610.5,519.1c0.2-2.2,1.6-3.9,2.8-5.5c6.5-9.1,13-18.1,17.6-28.3c0.7-1.4,2-1.9,3.2-2.5
		c3,11.4,4.4,23.2,7.7,34.6c1,6.5,2,12.9,2.9,19.4c1.3,9,2.6,18,3.1,27c0.4,6.7,0.8,13.4,0.8,20.1c-5.4,7.2-9.7,15-15,22.2
		c-7.5,10.1-15.5,19.8-24.5,28.6c-2,2-4.3,5-7.7,1.6c-1.3-5.2-0.8-10.6-1.2-15.9c-0.8-11.1-1-22.2-1.9-33.2
		c-0.3-3.3,0.8-6.1,3.2-8.4c2.1-2,4-4.4,6-6.5c7.9-8.8,14.5-18.6,21.1-28.3c1.7-2.5,1.5-4.5-0.6-6.6c-4.8-4.8-10.2-8.8-14.7-13.8
		C612,522.2,610.2,521.3,610.5,519.1z"/>
	<path class="st10" d="M269.7,228.5c-0.5-0.8-0.2-1.5,0.2-2.3c2-3.7,1.6-5.2-1.9-7.7c-3-2.1-6.1-4-9-6.2c-1.1-0.8-2.5-1.9-1.6-3.5
		c1-1.8,2.6-0.5,3.7,0c5.7,2.2,10.9,5.4,15.2,9.5c4,3.8,8.9,5.9,13,9.2c1.1,0.9,2.2,1.7,3.3,2.6c1.3,1.1,1.7,2.2,0.3,3.5
		c-2.7,2.6-2.5,5.4-0.6,8.4c1.3,2,2.4,4.1,3.6,6.2c1.4,2.5,2.9,2.6,4.9,0.4c7.8-8.4,17.6-13.8,28.1-18c2.9-1.1,5.8-1.5,9-0.6
		c11.6,3.3,21.8,8.7,29.2,18.6c1.9,2.6,4.9,2.9,6.7,0.1c3.3-5.2,5.5-11,7.2-16.9c0-0.1,0.1-0.3,0-0.4c-3.6-6.2,2.3-7,5.4-8.7
		c7.7-4.3,15.2-9.1,22.8-13.4c1.1-0.6,2.5-2.5,3.5-0.8c1,1.6,0.8,3.8-1.5,5c-2.7,1.5-5.4,3-8.1,4.5c-2.2,1.2-5.2,2.5-4,5.5
		c1.1,2.9,4.3,2.5,7,1.7c2.5-0.8,4.9-0.8,7.4,0.1c1.3,0.5,1,1.1,0.2,1.8c-2.4,1.9-5.4,1.2-8.1,1.6c-10.1,1.5-16.4,7-19.5,16.6
		c-3.5,11-3.5,11.5,5.7,18.5c1.3,1,2.6,2.2,4.2,2.7c7.8,3.8,15.6,3.2,23.4,0.1c1.4-0.6,2.8-1.3,4.4-1.4c0.5,0,0.9,0.2,1.2,0.5
		c0,0.1,0,0.3,0,0.4c0.7,1.8-2.8,3.9-0.1,5.1c2.4,1.1,5.3,0.8,7.6-1c2.6-1.9,5.1-4,7.8-5.8c3.4-2.3,13.6-1.1,16.2,1.6
		c0.9,1,0.4,1.9-0.4,2.6c-2.4,2-4.6,4.2-7.3,5.7c-5.1,2.7-8.6,6.7-10.9,11.8c-1.3,3-3,5.6-4.8,8.3c-3.3,5-2.9,10.6-0.1,15.6
		c1.8,3.3,0.6,4.2-2.2,5c-0.9,0.3-1.9,0.6-2.8,0.9c-7.2,2.4-7.3,2.4-5.4,9.8c0.6,2.4-0.4,3.8-2,5.1c-1.1,0.9-2.4,1.4-3.7,2
		c-5,2.4-5.2,3.4-0.8,7.1c3.5,2.9,3.5,2.9-0.7,5.1c-4.4,2.3-9,4.3-13.2,7c-5.1,3.3-12.4-0.3-13.6-6.3c-0.6-3-2.6-4.3-5.2-2.7
		c-2.7,1.6-5.4,2-8.4,1.9c-2.4,1.1-4.7,0.2-6.8-0.9c-11.5-5.9-21.4-13.7-29.1-24.2c-3.7-5.1-3.9-10.6-3.6-16.4
		c0-2.5,0.9-4.7,2.2-6.7c1-1.7,2.1-3.4,2.3-5.4c0.4-5.6,4-8,9-9.1c2.1-0.5,4.8-0.2,5.2-3.2c0.4-3.1-1.9-4.6-4.3-5.5
		c-9.9-3.5-19.8-3.8-29.5,0.8c-0.8,0.4-1.5,0.8-2.1,1.3c-1.1,0.9-2.1,2-1.7,3.6c0.4,1.6,1.7,2.2,3.2,2.3c2.1,0.2,4.2,0.5,6.1,1.6
		c1.5,0.8,3.1,1.8,3.6,3.4c1.6,5.5,4.9,10.4,6.2,16c1.6,13.4-6.2,22.2-15.3,30c-6.9,5.9-14.4,11.1-23.5,13.3c-1.1,0.3-2.1,0.8-3,1.5
		c-3.8,1.8-8.2,2.2-9.5,7.7c-0.7,2.9-4.5,2.2-7.1,1.7c-6.6-1-12.8-3.1-18.3-7c-3.5-2.4-6.7-2.5-10.6-0.5
		c-14.6,7.5-27.8,16.9-39.9,27.9c-1.6,1.5-3.1,3-4.6,4.6c-1.7,1.7-3.6,3.1-5.6,4.5c-1.2,0.6-2.4,0.9-3.1-0.8c0-2.3,1.7-3.4,3-4.8
		c13.3-14.4,29.4-25.2,46.3-34.8c3.4-2,4.9-3.5,1.8-6.8c-1-1.2-1.1-2.8-1.4-4.4c-1-5.2-2.5-6.3-7.5-4.9c-19.8,5.5-39.1,12.3-57,22.8
		c-2.7,1.6-5.2,3.4-8.2,4.4c-1.6,0.1-4.2,1.7-3.7-2.1c1-2,3.1-2.8,4.7-4.1c10.6-6.3,21.6-11.8,33.1-16.2c8.9-3.3,18-6.2,27.3-8.5
		c4.5-1.1,4.9-2.4,2.1-6c-3-3.8-7.5-5.3-12-6.5c-4.2-1.1-8.4-2-12.7-2.9c-10.8-2.6-21-7.1-31.4-10.9c-14.9-5.4-29.8-11.1-45.7-12.7
		c-1.5-0.1-2.5-1.1-3.5-2c-2.8-0.1-5.6-0.3-8.4-0.4c-1.2-0.3-2.6,0.3-3.8-0.4c-3.8,0-7.5,0-11.3,0.1c-2.4,0.7-4.8,0-7.2,0.4
		c-2.3,0-4.7,0-7,0c-0.2-0.3-0.2-0.7,0-1c5.7-0.1,11.4-0.3,17-0.4c2.7-0.8,5.5,0,8.2-0.5c2.6,0,5.3,0,7.9,0c1.3,0.4,2.8-0.3,4,0.5
		c0.5,0,1.1,0,1.6,0c1.5-1.3,3.2-0.8,4.8-0.6c15.5,1.7,30,6.9,44.5,12.4c10.6,4,21.2,8.3,32.1,11.4c2.5,0.7,4.9,1,7.5,1.1
		c2.5,0,3-1.2,1.8-3.2c-1.5-2.7-3.3-5.2-5-7.8c-1.3-1.9-3.1-1.6-4.9-1.1c-4,1.3-7.9,2.8-11.9,4.1c-4.2,1.4-5.4,0.7-6.9-3.4
		c-1.2-3.4-3.3-6.5-3.6-10.3c-0.3-4,0.4-5.4,4.4-6.3c5.5-1.2,11.1-1.6,16.6-2.9c5.5-1.3,5.8-1.8,4.3-6.9c-2.8-5.8-2.8-5.9,3.8-7.7
		c5.9-1.6,11.3-4.1,16.6-6.9c2.9,0.2,4.2,2.5,5.6,4.4c1.3,1.8,2.8,3.4,4.6,4.6c7.8,5.3,16.3,6.5,25.4,3.8
		c5.9-1.9,10.4-5.8,14.6-10.2c1.5-1.5,1.5-3.2,1.1-5.1c-2-9.7-5.5-18.2-15.2-22.7C270.6,229.9,269.9,229.4,269.7,228.5z"/>
	<path class="st16" d="M214.9,270c1.4,1.2,3.8,2.1,3,4.5c-0.6,2-2.7,2.8-4.7,3.1c-6,1.1-12.1,2.4-18.1,3.2c-3.7,0.5-4.7,1.4-4.2,5.6
		c0.5,4.4,4,7.4,4.2,11.7c0.1,1.7,2.1,1.3,3.5,0.7c4.6-1.7,9.2-3.2,13.9-4.9c2.6-0.9,4.6-1.1,6,2.2c1.2,2.9,3.5,5.4,5.1,8.2
		c0.7,1.1,2,2.5,0.9,3.8c-0.9,1.1-2.5,0.9-3.9,0.9c-7.3-0.3-13.9-2.9-20.7-5.2c-14.9-5.2-29.5-11.7-44.7-15.9
		c-7.8-2.2-15.9-3.4-23.9-4.5c0.9-19.1,5-37.4,14.4-54.2c0.5-0.8,1.1-1.6,1.6-2.4c8.4,5.3,17.1,10.1,26.7,12.9
		c0.7,0.2,1.5,0.3,1.9,0.8c4.2,5,9.9,4.3,15.5,4.3c4,0,7.5,1.3,8.4,5.9C201.5,259.7,208.4,264.6,214.9,270z"/>
	<path class="st16" d="M129.6,283.5c-1.4,0-2.8,0.4-4-0.5c1.1,0,2.3-0.1,3.4-0.1C129.2,283.1,129.4,283.3,129.6,283.5z"/>
	<path class="st17" d="M169.3,355.2c-0.2,3.3,1.9-0.1,2.5,0.9c0.4,2.4-1.7,3-3.1,4c-4.9,3.4-9.5,7-13.9,10.9
		c-2.5,2.3-2.6,4.4-0.4,6.9c2.3,2.5,4.2,5.3,6.2,8c2.1,2.8,3.7,3.1,6.2,0.2c10.2-11.8,21.8-21.9,35-30.1c11.2-6.9,23-12.3,35.3-16.9
		c1.4-0.5,3.2-1.3,4,0.6c0.7,1.7-1,2.5-2.2,3.1c-7.5,3.8-15.3,7-22.9,10.8c-17.5,8.8-32.1,21.1-45.3,35.3c-2.4,2.6-4,5.8-6,8.7
		c-1.1,1.6-0.8,3.2,0.2,4.8c1,1.6,2.3,2.8,3.5,4.2c5.3,6,5.4,6.1,9.6-1c3.9-6.6,9.1-12.1,13.8-18.1c0.8-1.1,1.8-2.3,3.5-1.7
		c0.8,1.2,1.7,0.3,2.5,0c1.2,2-0.3,3.2-1.4,4.4c-5.9,6.7-9.8,14.7-14.9,21.9c-2.6,3.7-2.1,4.8,1.3,7.9c4.3,3.9,9.7,6.2,14.4,9.4
		c1.8,1.2,3.2,0.2,4.5-0.9c4.1-3.4,8.3-6.8,12-10.6c2.9-2.9,5.8-3.5,9.5-2.2c3.9,1.3,7.6,3,11.2,4.7c6.7,3,13.3,6,20.2,8.4
		c3.8,1.3,4.1,3.3,1.3,6.3c-5.1,5.4-10.5,10.6-15.8,15.8c-2.1,2.1-3.2,4.4-3.4,7.4c-0.5,6.6-2.2,13-3.5,19.5
		c-1.1,5.5-0.3,6.2,5.1,8.1c7.8,2.8,13.5,0.8,18.1-6c2.8-4.2,5.8-8.3,9.4-11.9c2.1-2.1,4.3-2.8,7.2-2.2c10.1,1.8,20,4.5,30.2,5.7
		c5.2,0.6,10.3,0.8,15.5,0.7c3.3-0.1,5.4-1.2,6.2-4.9c0.6-3,1.2-6,1.2-9.1c0.1-3.9,1-7.5,4.3-10.1c0.7-0.5,1.4-1.2,1.3-2
		c-0.1-4.8,3.2-6.4,6.8-7.9c2.4-0.7,4.8-0.5,7.3-0.4c1.6,0.3,3.2,0.3,4.8-0.4c1.5-0.4,3-0.3,4.4-0.1c4,1.3,8,1,12.1,0.4
		c5.3-0.8,7.1,0.3,8.8,5.4c1.7,5.1,2.7,10.3,4,15.5c1.7,6.3,2.7,7,8.8,5.4c7.2-1.9,14-5,21-7.6c2.8-1.1,3.3-2.5,1.2-4.9
		c-3.8-4.4-7.7-8.6-11.4-13c-5.2-6-4.8-8.1,2.7-10.5c14.8-4.9,28.5-11.9,41.8-19.8c5.1-2.5,9.3-6.8,14.9-8.5
		c7.1,1.5,11.4,6.7,16,11.6c1.4,1.5,0.4,3.1-0.5,4.6c-3.5,5.8-8.7,10.2-12.6,16.1c2.5,0.1,5-1.3,7.4-0.3
		c6.9,4.5,12.1,10.8,17.8,16.6c1,1.8,0.3,3.2-1,4.4c-1.1,1-2.4,2-3.6,2.9c-2.6,1.8-3.1,4-2.3,7.2c2.4,9.2,5.1,18.3,6.6,27.7
		c0.8,5,4.9,8.3,7.7,12.2c3.1,4.3,6.3,8.6,9.4,13c2.8,4,2.7,6.6-1.3,9.4c-9.7,6.9-19.5,13.8-30.3,18.8c-9,4.2-18,8.5-27.2,12.2
		c-6.8,2.7-7.7,7.2-5,12.7c2.6,5.4,4.6,11.1,5.4,17.2c0.6,5.1-0.1,7.1-4.6,9.7c-4.3,2.4-9,4-13.5,5.8c-9.1,3.3-18.4,5.8-28,7.4
		c-4.9,0.8-8.4-0.7-11.2-4.7c-5.4-7.6-9.9-15.6-14-23.9c-1-2.1-2.2-3.9-4.9-3.9c-4.2-0.1-5.8,1.3-5.1,5.5c1.7,9.5,1.5,19.3,4.3,28.6
		c1.1,3.6-2.2,4.4-4.1,5.9c-7.7,2.2-15.8,2.4-23.7,2.9c-7.1,0.4-14.3,0.6-21.4-0.2c-3.9-1.6-7.9-1.6-12-1.6c-1.1,0-2.2,0.1-3.4,0
		c-8-0.5-10.2-3-9.3-11c1-8.6,1.2-17.4,2.2-26c0.5-4.7-0.7-6-5.3-6.9c-6.5-1.2-13-2.4-19.3-4.2c-4.2-1.2-7.2-0.1-10,3.2
		c-7.9,9.5-15.8,19-24.3,28c-1.5,0.8-3,0.6-4.4,0c-4.3-2.1-9.5-2.2-13.2-5.9c-1-1.8-0.5-3.5,0.2-5.3c3.3-8.5,5.6-17.3,8.6-25.9
		c0.5-1.5,1.6-3.3-0.2-4.6c-1.7-1.3-3.5-0.6-5.1,0.3c-8.2,4.9-16.6,9.4-24.8,14.2c-3.1,1.9-6.3,3.7-9.9,4.6c-2.1,0.5-4.6,1.2-5.5-2
		c3-9.5,6.9-18.7,10.6-27.9c2.3-5.8,2.4-5.7-3-8.6c-10.8-5.9-21.7-11.9-31.8-19c-1.1-0.8-2.2-2-3.7-1.9c-5,0.2-7.8-3.2-11-6.1
		c-8.4-7.4-14.8-16.7-22.9-24.4c-2.6-2.4-4.6-3-7.7-1c-4.9,3.2-9.9,6.3-15,9.4c-7.4,4.5-12.1,2.5-14.2-6.1
		c-4-6.5-7.9-12.9-11.9-19.4c-0.2-1.2-0.3-2.5-0.6-3.7c-0.4-1.6,0.1-2.5,1.4-3.5c5.5-4.4,10.8-9,16.1-13.7c1.7-1.5,2.2,0.2,3,0.8
		c4.8,4,7.8,9.5,12,14c0.5,0.5,0.8,1.2,1.2,1.7c3.3,3.7,5.9,3.3,7.4-1.5c1.5-4.5,2.6-9.2,2.5-14c-0.1-2.9-0.2-5.9,0.1-8.8
		c0.3-4,0.9-4.3,4.8-3.5c1,0.2,1.9,0.3,2.7-0.7c4.7-6.2,9.4-12.5,14.2-18.6c1-1.3,0.7-2.1-0.1-3.3c-2.2-3.3-5.2-5.9-7.9-8.7
		c-1.6-1.6-2.8-1.3-3.9,0.7c-2.2,4.2-4.7,8.3-7,12.4c-0.7,1.3-1.4,2.7-3.1,3.8c-0.9-2.1,0.1-4,0.7-5.6c1.8-4.3,3.8-8.5,5.9-12.6
		c0.7-1.4,1.8-2.8,0.9-4.3c-1.1-1.8-3.1-1.1-4.6-0.8c-6.2,1.3-12.6,0.2-18.8,1.4c-3.4,0.7-5.3-1.3-7.1-4c-3.5-5.6-5.5-12-9.8-17.1
		c2.5-8.3,6.4-16,10-23.8c5.1-11,10.7-21.8,17.1-32.1c0.5-0.8,0.9-1.7,1.5-3c-14.8,1.6-28.4,6.6-42,10.9c-0.5,0.1-0.7-0.1-0.7-0.6
		c13.4-5.7,27.3-9.6,41.6-12.1c1.3-0.2,2.6-0.3,3.5-1.3c1.5-1.7,1.5-3-1.3-2.9c-0.8,0.4-0.9,0-0.8-0.6c3.8,0.1,6.1-2,8-5.1
		c1.6-2.7,3.6-5.2,5.5-7.8c2-0.1,2.3,1.6,2.4,2.7c0.2,5.6,3.5,5.6,7.6,4.5c10.7-0.9,21.3-2,32-1.6c3.4,1.1,7,0.9,10.5,0.6
		c11.3-0.5,22.5,0.9,33.6,2.7c1.4,0,2.8,0.2,4.2,0.6c1.3,0.4,3.1,0.7,2.9,2.5c-0.2,1.8-2,1.7-3.4,1.6c-3.2-0.2-6.5-0.4-9.6-1.3
		c-7.7-0.6-15.4-1.6-23.2-1.9c-2.6-0.8-5.3-0.9-8-0.6c-2.5,0.1-4.9,0.1-7.4,0c-3.2-0.3-6.4-0.5-9.5,0.5c-6.6,0.4-13.2,0.7-19.9,1.1
		c-2.2-0.2-4.3,0.6-6.4,1.1c2.2,0.5,4.3-0.4,6.5-0.5c15.9-1.2,31.8-2,47.8-1.6c3.9,0.1,7.8,0.7,11.6,1.4c1.9,1.5,1.5,2.7-0.6,3.5
		c-7.6,1.4-15-0.8-22.6-0.5c-4-0.3-8-0.6-12,0.5c-8.1,0.4-16.2,1-24.3,1.5c-8.4,0.9-8,0.8-6.4,9c2.7,13.5,10.4,24.7,16.2,36.8
		c1.2,2.5,2.9,2.2,4.8,0.7c4-3.1,7.3-7,11.6-9.7C165.3,355.7,166.9,353.8,169.3,355.2z"/>
	<path class="st6" d="M69,332.8c0.2,0.2,0.5,0.4,0.7,0.6c-6.6,3.5-13.8,4.8-21,6c-1.2,0.1-2.8,1.3-3.3-0.9c0.3,0,0.5,0,0.7-0.1
		C54.1,338.2,61.5,335.3,69,332.8z"/>
	<path class="st16" d="M167.6,309.7c-11,0.5-21.9,1.1-32.9,1.6c-3.3-3.7-5.8-7.8-6.8-12.7c2.6-4.1,3.1-8.7,2.4-13.4
		c8,1.1,16,2.3,23.8,4.5c15.7,4.6,30.8,11.1,46.3,16.4c3.7,1.3,7.5,2.4,11.2,3.5c0.9,1.1,0.9,2.2,0,3.3c-11.2-1.2-22.4-3-33.7-2.5
		C174.4,309.4,170.9,310.8,167.6,309.7z"/>
	<path class="st6" d="M127.9,298.7c1.2,0.7,2.5,1.5,2.5,3c0.1,2.4,1.2,4.2,3,5.6c1.4,1.1,1.3,2.6,1.4,4.1c-1.5,0.9-3.2,0.8-4.8,0.9
		c-1.9,0-2.8-0.7-2.8-2.7c0-2.3-0.4-4.6-1.7-6.7C126.2,301.5,127,300.1,127.9,298.7z"/>
	<path class="st6" d="M112,315.8c0.3,0.2,0.5,0.4,0.8,0.6c-9.6,2.1-19.4,1.5-29.1,1.2C93.1,317.8,102.5,316.7,112,315.8z"/>
	<path class="st16" d="M92.5,283.9c0,0.3,0,0.7,0,1c-3.7,1-7.1-0.7-10.7-1C85.3,283.9,88.9,283.9,92.5,283.9z"/>
	<path class="st16" d="M117.7,283c-2.7,1.1-5.5,0.4-8.2,0.5C112.2,282.3,114.9,282.8,117.7,283z"/>
	<path class="st16" d="M99.5,284.9c2.4-1,4.8-0.4,7.2-0.4C104.4,285.5,101.9,285,99.5,284.9z"/>
	<path class="st16" d="M118,284.4c1.3,0,2.6-0.4,3.8,0.4C120.5,285,119.2,285.4,118,284.4z"/>
	<path class="st18" d="M212.2,773.1c-1.4-1.7-2.7-3.5-4.1-5.2c-2.9-2.4-5.6-4.9-5.2-9.1c3.4-5.2,6.7-10.4,10.1-15.5
		c1.9-2.8,3.1-6,4.3-9.1c1.2-3.1-0.1-4.8-2.8-5.8c-16.2-5.9-30.3-15.9-45.3-24c-6.1-3.3-10.3-9.9-16.3-13.8
		c-2.9-1.9-5.1-4.8-8.9-5.3c0.4-4.4,3.2-7,6.4-9.7c4.6-3.8,9-8.1,12.5-13c1.6-2.3,3.5-3.1,6.1-1.8c3.7,1,6.9,3.1,10.3,4.8
		c10.7,5.3,21.3,10.8,32.7,14.4c4.6,1.4,6.4,3.9,5.9,8.9c-1.1,11-2,22.1-2.1,33.2c0,2.8,0.7,4.1,3.2,5c4.1,1.4,8.3,2.5,12.5,3.9
		c3.7,1.2,5,3.5,4.3,7.4c-1.9,10.5-7.1,19.2-14.3,26.7C218.7,767.8,216.4,771.5,212.2,773.1z"/>
	<path class="st19" d="M203,758.7c1.7,3,3.5,6.1,5.2,9.1c-4.2,0.9-6.2,4.2-7.6,7.7c-4.3,10.5-10.9,19.5-17.8,28.3
		c-3.7,4.8-7.7,9.2-11.9,13.6c-3.2,3.4-6.7,4.3-11,3.2c-1.3-0.4-2.8-0.3-4.2-0.5c-0.5-1.7-0.6-3,1.2-4.2c5.4-3.8,10.4-8,15.8-11.7
		c3-2.1,5.5-4.8,8.3-7.1c3.1-2.5,2.3-4.8,0.7-7.6c-3.3-5.8-7.2-11.4-9.3-17.8c-2.6-7.7-4.7-15.5-7-23.3c-0.1-0.3-0.3-0.6-0.2-0.8
		c3.2-10.3-0.4-21.1,2.4-31.5c0.4-1.5,0.8-3,2.4-3.8c10,15.3,20.5,30.3,31.3,45C201.8,757.9,202.4,758.2,203,758.7z"/>
	<path class="st20" d="M85,490.2c1,1.2,2,2.3,3,3.5c4.4,5.3,4.4,5.3,10.1,1.8c5.7-3.5,11.4-7,17.2-10.6c1.7-1.1,3.3-2.1,5.2-0.1
		c5.2,5.3,11.4,9.9,15.4,16c4,6,9.7,9.7,14.4,14.6c0.5,0.5,1.1,1.3,1.6,1.3c9.4-0.1,14.6,7.9,22.1,11.4c7.3,3.4,14.2,7.9,21.4,11.7
		c2.4,1.2,2.8,2.3,1.7,4.8c-4.3,10.2-8.4,20.5-12.5,30.7c-2.7,2.2-5.4,0.9-7.9-0.4c-12.3-6.5-23.7-14.5-34.3-23.7
		c-5.8-5.1-12.3-9.3-18.7-13.6c2.4,3.7,6,6.1,9.2,8.8c6.6,5.7,13.3,11.2,20.1,16.7c3.9,3.1,4.1,4.3,1,8.4c-4,5.4-7.8,11-12,16.3
		c-1,1.2-1.7,3.1-3.9,2.7c-6-1.8-10.8-5.8-15.6-9.5c-11.8-8.9-22.3-19.1-32.4-29.8c-4.2-4.5-8.1-9.2-12.1-13.9
		c-1-1.2-1.7-2.6-1.4-4.3c2.7-14.1,5.4-28.2,8.1-42.3C84.7,490.7,84.9,490.5,85,490.2z"/>
	<path class="st21" d="M220.8,594c5.4,2.5,11,4.6,16.8,6c7,0.2,13.3,2.9,19.6,5.7c2.2,1,2.8,3.4,2.8,5.8c-0.1,8.3-0.8,16.5-1,24.8
		c-0.1,3.9-2.5,5.2-7,4.2c-8.9-2.1-17.5-4.9-26.2-7.6c-3.5-1.1-6.8-1.8-10.6-1.6c-4.8,0.2-9.2-1.9-13-5.1c-4.8-2.2-9.6-4.4-14.4-6.6
		c0.7-10.8,2-21.5,3.8-32.2c0.2-1.4,0.3-2.8,0.4-4.1c0.9-2.1,2.7-2,4.2-1.2c7.5,3.6,15.4,6.6,22.8,10.3
		C219.9,592.6,220.3,593.4,220.8,594z"/>
	<path class="st22" d="M220.8,594c-7.9-3.5-15.8-6.9-23.7-10.5c-1.7-0.8-3.3-1.7-5.1-0.4c-5.1-2.5-8.7-0.6-10,5.2
		c-0.2,0.9-0.1,2-0.3,2.9c-1.3,6.1-4.6,7.6-9.7,4.1c-1.8-1.3-3.1-1.9-5.2-0.6c-2.3,1.5-3.1,3.9-4.1,6.2c-0.4,1,1,1.9,2,2.4
		c2.1,1,4.4,1.9,6.5,3c0.8,0.4,2,1.1,1.5,2.2c-0.5,1.3-1.6,0.4-2.5,0.1c-0.3-0.1-0.5-0.2-0.8-0.4c-10.3-5.3-20.7-10.2-30.6-16.2
		c-0.5-0.3-0.7-0.8-1.1-1.3c6-6.7,10.7-14.4,16.2-21.4c1.2-1.6,1-2.6-0.5-3.8c-9-7.4-17.9-14.8-26.9-22.2c-1.8-1.5-3.5-3.2-5.2-4.9
		c-0.6-0.6-1.4-1.2-0.7-2.1c0.6-0.7,1.6-0.5,2.4-0.2c3.3,1.4,5.8,3.9,8.7,5.9c11.5,8,21.4,18.1,33.5,25.3c3.9,2.3,7.7,4.7,11.6,6.9
		c2.3,1.3,4.8,1.5,7.4,1.3c1.1,2.9,3.1,1.6,4.9,1c7.5-2.6,13.8-7.5,20.7-11.1c4.9-2.5,9.5-5.3,14.2-8.2c2.5-1.5,4.6-0.9,6.6,0.7
		c2,1.6,0.5,3.5-0.1,5c-3.6,9.3-5.6,19-9.6,28.2C220.7,591.9,220.9,593,220.8,594z"/>
	<path class="st22" d="M202.2,626.1c2.5,0,4.5,1.5,6.7,2.2c3,1,5.7,3.2,9,0.8c0.7-0.5,2.4,0.5,3.5,0.8c10.3,3,20.6,6.2,31,9.1
		c4.4,1.3,5.4,0.5,5.4-3.9c-0.1-7.3,0-14.5,0.9-21.8c0.6-4.8-1.6-7-6.1-8.4c-5-1.5-10.3-2.4-15-5c0.8-3.3,3.7-5.2,5.7-7.6
		c6.3-7.6,13.2-14.8,19.3-22.7c2.2-2.8,5.2-3.2,8.4-2.3c7.4,2,14.9,3.7,22.5,4.8c3.1,0.5,5.2,2.1,4.9,5.7c-0.8,9.3-1.6,18.6-2.3,28
		c-0.7,9-0.6,9,8.8,10.1c2.9,0.3,5.9,0.1,8.8,0.1c1.9,0,3.7,0.2,5,1.7c1.6,7.9,1.3,15.9,1.3,23.9c0,3.1,0.1,6.2-0.1,9.3
		c-0.2,4.4-1.6,5.7-6.2,5.3c-6.1-0.5-12.3-1.9-18.4-1.7c-11.1,0.3-22-1.5-33-2.5c-2.6-0.2-4.3,0.8-5.5,3c-0.6,1.1-1.3,2.2-1.9,3.3
		c-3,5.4-2.7,6.6,2.8,9.5c2.6,1.3,4.7,3,6,5.6c0.9,2,2.4,3.6,4.3,4.5c3.7,1.8,6.1,4.8,8.1,8.2c1.6,2.7,3.7,4.9,6.9,6
		c2.2,0.8,3.9,2.3,4.6,4.6c0,4.3,1.1,8.3,4,11.6c7.8,11.4,15.1,23.1,21.9,35.2c1,1.7,2.8,3.3,1.7,5.7c-1.6,1.4-3.6,1.4-5.5,1.8
		c-13.8,2.8-27.7,4.4-41.3,8.6c-5.2,1.6-8.9,4.9-12.6,8.1c-4.6,3.9-9.6,5.5-15.3,6.1c-2.2,0.2-4.5-0.1-6.2,2.4
		c4.2-1.2,7.9,0.1,11.6,1.7c1.4,0.6,3.1,1.2,2.9,3.2c-0.3,2.1-2,2.4-3.7,2.7c-4.3,0.9-8.6,1.4-12.8,2.5c-3,0.8-3.4-1.9-4.9-3.2
		c-2.3,1.4-2.5,5-5.6,5.3c-3.1-5-6.3-10-9.4-15c4.4-5.8,10.4-10.1,14.4-16.4c3.8-6,6.8-12.2,8.1-19.2c0.6-2.9,0.1-4.4-2.9-5.3
		c-5.1-1.4-10.1-3.3-15.2-4.8c-2-0.6-2.8-1.6-2.4-3.6c1.4-7.3,0.1-14.8,1.4-22.2c0.9-5.1,0.5-10.3,1.2-15.5c0.3-2.4-0.3-3.2-2.4-3.9
		c-14.3-4.8-27.7-11.4-41.1-18.3c-1.6-0.8-3.3-1.6-4.2-3.3c3.3-2.7,6.6-5.5,9.1-9.1c2.6-3.8,6.6-6.3,10-9.5c4-3.8,7.9-7.9,11.9-11.8
		C201.3,629.2,202.4,628,202.2,626.1z"/>
	<path class="st23" d="M221.6,788.1c1.2-1.8,2.9-3.4,3.5-5.7c0.4-1.7,1.8-2,3.3-1.8c1.9,0.2,1,1.5,0.9,2.6c-0.1,1.3,0.5,2.6,1.9,2
		c4.7-2.1,9.7-2,14.6-2.9c1.1-0.2,2-0.5,2-1.7c0.1-1.1-1-1.3-1.7-1.5c-3.7-1.1-7.3-4-11.4-1.2c-0.7,0.5-2,0.4-2.6-0.6
		c-0.5-0.8,0-1.6,0.4-2.4c1.1-2.1,3.1-3.1,5.3-2.7c5,0.9,9.7-1.1,13.6-3.2c3.2-1.7,6.5-4.4,9.1-7.3c1.1-1.2,2.2-2,3.7-2.5
		c15-5,30.7-7.2,46.2-9.9c1.5-0.3,3-0.5,4.5-0.8c1.5,0.1,2.1,1.3,2.8,2.4c6.1,10.4,11.2,21.3,15.4,32.7c3.5,11.7,5.1,23.4-1.3,34.7
		c-1.5,2.7-3.2,5.8-7,5.9c0.5-3-0.3-5.8-1.8-8.4c-0.4-0.7-1-1.5-2-1c-0.8,0.4-0.5,1.2-0.4,1.9c1.3,11.9,2.7,11.4-10,14.7
		c-17.1,4.4-34.3,3.4-51.2-1.7c0,0-0.1,0-0.1,0c-0.5-1.7-1.8-2-3.3-1.6c-1.9-0.9-3.8-1.7-5.7-2.6c-11.5-7.5-17.3-19.6-24.7-30.4
		C224.3,792.7,223,790.3,221.6,788.1z"/>
	<path class="st24" d="M256.2,827.8c1-0.2-0.6-2.2,1.3-1.9c2.2,0.4,1.6,2.2,2,3.5C258.5,828.9,257.4,828.3,256.2,827.8z"/>
	<path class="st25" d="M459.6,400c-4.9,2.6-9.1,6.5-14.3,8.5c-3.6,0.4-5.6-2.4-7.8-4.4c-3.8-3.6-7.4-4.1-12.1-1.5
		c-8.1,4.5-17,7.3-25.7,10.7c-4.6,1.8-5.9,3.8-3.9,8.4c2.7,6.2,0.4,7.4-4.7,9c-2.8,0.9-5.6,1.8-8.6,1.9c-3.3,0.1-5.8-0.9-6.7-4.4
		c-1-3.9-3.3-5.2-7.2-4.2c-0.9,0.2-2,0.2-2.9,0.2c-6.5,0.6-6.5,0.6-7,7.1c-0.2,2.5-0.7,5-2.9,6.8c-1.7,0-3.4,0.1-5.1,0.1
		c-1,0.9-2.4-0.1-3.4,0.7c-2.8,0-5.6,0.1-8.4,0.1c-7.9,2.3-15.8,1.4-23.7,0c-2.7-0.5-3.2-2.8-3.4-5.2c-0.1-1.4,0.5-2.7,0.8-4.1
		c0.8-3.5,0.1-4.9-3.4-5.3c-11.5-1.2-22.6-4.3-33.8-6.9c-6.3-1.5-12.2-4.2-18.4-6.1c-2.8-0.9-5.8-1.1-8.6-1.7
		c-5.5-1-8.2,2.2-10.5,6.1c-2.3,3.9-3.6,4.5-7.9,2.9c-2.8-1-5.5-2.1-8.1-3.5c-3.1-1.6-3.6-3.7-1.2-6.4c1.7-1.9,3.4-3.7,5.1-5.6
		c2.3-2.6,1.7-4.6-1.2-5.9c-7-3.2-12.5-8.5-18.8-12.7c-1.2-0.8-2.4-1.5-2.6-3.1c1.1-1.7,2.6-3.1,4.2-4.3c5.8-2.8,11.5-4.5,17.6-0.8
		c1.1,0.7,2.4,0.9,3.7,0.4c6.6-2.7,13.3-1.6,20-0.8c11.7,1.5,23.3,0.7,34.7-2.3c3.7-1,7.1-1.2,10.7,0.4c1.7,0.7,3.5,1.1,5.3,1.5
		c1.6,0.3,3.4,1.1,5,0.5c2.2-0.9,0.8-2.9,1-4.4c0.3-1.9,1.3-2.7,3.2-2.4c1.5,0.2,3.1,0.5,4.5,1.1c14.7,5.2,29.5,4.9,44.3,0.4
		c1.1-0.3,2.2-0.6,3.3-0.9c2.8-0.6,4.9-0.1,4.6,3.4c-0.3,2.9,1.3,2.9,3.4,2.6c2.9-0.4,5.8-1,8.6-2.1c3.3-1.3,6.5-1.4,9.9-0.2
		c12.7,4.3,25.8,4,38.8,2c7.6-1.2,13.9-6,20.3-9.9c1.9-1.2,3.8-2.4,6.1-2.8c6.4,3.4,12.1,8,17.8,12.4c3.5,2.7,7.2,5.3,10.1,8.7
		c0.3,1.4-0.5,2.4-1.4,3.2c-5.3,4.3-10.7,8.4-16.5,12.1C461.2,399.8,460.3,399.6,459.6,400z"/>
	<path class="st6" d="M452,362.8c-11.3,8.2-22.7,15.7-37.7,15.3c-10.1-0.3-20.2,0-29.8-3.9c-2.1-0.8-4.1-0.5-6.1,0.5
		c-4,2-8.3,2.4-12.6,3.1c-3.7,0.6-3-1.9-2.2-4c0.9-2.5,0.9-3.9-2.4-2.8c-17.2,5.9-34.3,6.1-51.5-0.1c-1-0.4-2.3-1.2-3.1-0.5
		c-1.2,1-0.1,2.4,0.3,3.5c1.4,3.5-0.2,4.4-3.3,4c-1.8-0.2-3.8-0.2-5.3-1.1c-7.5-4.1-14.9-1.7-22.3-0.2c-10.9,2.2-21.8,1.8-32.6,0.2
		c-4.7-0.7-9.2-0.6-13.6,1.2c-2.4,1-4.4,1-6.5-1c-3.6-3.4-7.8-0.4-11.7-0.5c-1.4,0-2.8,0.4-4.1,0.6c3.8-4.9,8.9-8.5,13.8-12.1
		c9.2-6.8,18.8-13.1,29.3-17.9c2.1-1,3.9-1.1,5.9,0.1c3,1.8,6.2,3.2,9.2,5.1c4.2,2.6,9,2.6,13.5,3.7c2.8,0.7,5.4,0.2,5.2-3.9
		c-0.1-1.9,1.1-3.1,3-3.6c2.2-0.6,4.3-1.2,6.5-1.8c11-1,19.2-8.1,28.5-12.9c1.5-0.8,3.1-1.5,4.5-2.3c6.2-3.6,12.2-2.7,18.5,0.2
		c8.1,3.9,15.4,9.3,23.6,13.1c0.8,0.4,1.4,1,1.6,1.9c-1.4,2.5,0.5,3,2.2,3.3c2.5,0.4,3.9,1.7,3.7,4.2c-0.2,2.9,3.3,2.3,3.4,3.1
		c0.5,4.2,3.6,2.7,5.3,2.3c4-0.9,8-1,11.9-2c2.9-0.8,5.5-0.7,8,0.9c0.8,0.5,1.7,1.1,2.7,0.3c0.8-0.7,0.6-1.5,0.2-2.3
		c-1.3-2.4,0.4-3.3,2.1-4.1c1.3-0.6,2.9-0.7,3.8-1.6c5.5-5.7,11.4-3.4,16.8-0.5C437.5,354.3,445.3,357.6,452,362.8z"/>
	<path class="st26" d="M486.6,448.1c-5.6-5.3-11.3-10.7-16.9-16c-1.1-2,0.6-2.8,1.8-3.7c8.8-6.2,16.5-13.8,24.7-20.7
		c1.1-0.9,2.1-2.4,3.9-1.7c0.8,1.1,1.7,2.2,2.5,3.3c4.7,2.7,6.1,7.8,8.9,11.9c1.1,1.6,1.9,3.4,2.5,4.4c-2.7-5.6-6.7-11.3-10.4-17.2
		c-0.8-1.4-1.7-2.7-2.5-4.1c1.3-3.8,4.4-6,7.4-8.2c2.3-1.7,4.6-0.7,6.2,1.5c4.9,7,10.7,13.2,15.2,20.5c-3.5-5.8-7.8-11-12.1-16.2
		c-2.4-3-2.4-5-0.2-8c5-6.7,10.3-13.3,14.4-20.6c6.5-9.7,12.5-19.7,16.8-30.6c1.4-3.5,1-5.5-2.2-7.7c-4.7-3.1-9.3-6.3-13.8-9.7
		c-2.6-1.9-3.1-4.4-1.5-6.5c0.6-0.8,1.4-1.4,2.5-0.5c8.2,1.9,16.5,3.7,24.7,5.8c4.3,1.1,8.6,2.4,12.8,3.8c1.1,0.4,2.5,1.1,3.1,2
		c4.6,7.6,9.4,15.2,12.6,23.6c0.1,0.4,0.1,0.8,0.1,1.2c1,1.9,0.1,3.6-0.6,5.2c-6.5,16.9-15.4,32.3-27.5,45.9
		c-6.2,6.9-13,13.2-19.5,19.7c-5.7,5.7-12.6,9.4-19,14c-0.8,0.6-1.8,0.9-2.8,0.8c-1.8-0.3-3.1-1.5-3.9-2.9c-1.8-3-3.8-2.8-6.6-1.3
		c-5.1,2.5-9.4,6-13.7,9.6C491.6,447.3,489.8,449.8,486.6,448.1z"/>
	<path class="st12" d="M179.5,157.8c-0.3-5.6-0.5-10.1-0.7-14.6c-0.4-11.9,0-23.8,4.1-35.2c2.7-7.7,6.8-11,12.5-10.1
		c3,0.4,5.6,2,8,3.6c15.9,10.3,31.1,21.6,44.1,35.5c2.6,2.8,4.7,5.9,6.6,9.2c1.3,2.2,1,3.8-1.3,4.8c-5.4,2.3-10.7,5-16.4,6.5
		c-3,0.8-5.1,2.7-7.7,4c-12.8,6.2-25.4,12.7-38.1,19c-4.7,2.4-6.7,1.4-8.6-3.9C179.8,170.1,178.7,163.5,179.5,157.8z"/>
	<path class="st6" d="M532.9,373.8c-4.2,7.5-9.5,14.2-14.7,20.9c-1.9,2.4-2,3.8-0.2,6.1c4.7,5.9,9.3,11.9,13.3,18.3
		c0.4,0.6,0.8,1.1,0.4,2.2c-1.5-0.4-1.9-1.9-2.5-2.9c-4.8-7.3-10.5-13.8-15.8-20.6c-1.7-2.2-3.4-2.5-5.5-0.3c-2.2,2.4-4.6,4.5-7,6.7
		c-1.4-1.2-1.1-3.1-1.8-4.6c-0.8-1.5-3-3.6-1.5-4.8c2.1-1.6,5.3-2.7,7.9-1.2c3.5,1.9,3.3,0.4,5-2.5c3.6-6.2-1.4-6.1-4-8.4
		c-4.3-3.7-9.9-5.2-14-9c0.4-5,4.1-2.7,6.9-3.1c-0.4-2.2-2.1-3.2-3.4-4.5c-0.8-0.8-1.7-1.7-1.1-2.9c0.7-1.4,1.9-0.7,3-0.6
		c4.8,0.4,9.1,1.6,12.4,5.3c0.6,0.7,1.4,1.4,2.5,1c0.2-0.2,0.4-0.7,0.2-0.8c-5.2-3.5-7.1-9.9-12.9-13.1c-9.4-5.2-19.4-8.9-29-13.6
		c-3-1.5-6.2-2.7-10.5-1.8c2.9,2.2,5.3,4.1,7.9,5.9c1.2,0.8,2.4,1.4,3.5,2.3c1.2,1.1,3.5,2,2.7,3.8c-0.8,1.7-2.7,0.2-4.2-0.1
		c-3.8-0.9-5.6,0.4-7.5,5.4l-0.1,0.1c-2.3,2.4-4.6,1.6-7.2,0.3c-3.9-2-7-5.5-11.8-5.8c0.3,1.7,2.3,2.7,1.3,4.6
		c-7.1-3.6-14.2-7.1-21.3-10.7c-1.9-0.9-2.1-2.3-1.2-4.2c0.9-1.8,1.8-3.6,2.1-5.5c0.6-3.6,2.1-6,5.8-6.6c0.8-0.1,2.1-0.4,1.4-1.4
		c-2-2.8,0.5-4.2,1.5-6.2c1-1.9,3.2-3.1,2.7-5.8c-0.3-1.6,1.6-1.5,2.7-1.9c5.1-1.9,10.7-2.1,15.5-4.9c1.5-1.6,3.3-2.2,5.3-1
		c1.3,3,3.6,3.6,6.8,3.2c7.8-1,15.6-2,23.5-1.9c5.6-1.5,11.3-0.8,16.9-0.8c8,0.4,16,0.1,24,0.1c1.7-0.3,3.2,0.1,4.5,1.3
		c10.3,1.8,20.7,2.4,30.8,5.5c8.3,2.6,17,3,25.8,3c1.7,0,3.6-0.5,5.2,0.5c0,0.4,0,0.8,0,1.2c-4,0-8.1,0.2-12.1-0.1
		c-3.8-0.2-7.5-0.7-11.2-1.4c-10.9-2.1-21.6-5.3-32.6-6.7c-2.3-0.3-4.5-0.3-6.7-0.3c-1.7,1.1-3.5,0.8-5.3,0.7
		c-12.8-0.6-25.5,1-38.2,1c-0.7,0-1.4,0.2-2.1,0.3c-8.1,0.4-16.2,1-24.2,2.2c5.1-0.5,10.2-0.5,15.4-1.1c2.2-0.3,5.7-1.1,6,1.7
		c0.2,2.3-3.3,2.3-5.5,2.5c-4.6,0.4-9.2,1-13.8,1.1c-2.6,0.1-5.7,0.1-6.3,3.6c-0.6,3.3,2,4.6,4.5,5.8c2.7,1.4,5.9,2.1,7.6,5
		c1.2,3.8,4.7,5.2,7.7,6.6c10.1,4.5,20,9.5,29.6,14.9c7.7,4.3,15.1,9,21.3,15.4C532.1,371.7,532.6,372.6,532.9,373.8z"/>
	<path class="st27" d="M244.6,265.1c-4.1-2.3-5.4-7.3-9.4-9.7c-2.8-3.6-7-4.8-11.1-6.9c2.1-1,3.9-1.9,5.8-2.8c2.5-1.3,4.9-2.5,6.6-5
		c8.2-11.9,19.3-15.7,33.2-12.2c13,4.5,16.6,15.4,18.6,27.4c0.1,0.6,0.2,1.7-0.2,2c-5.3,4.2-9.7,9.8-16.8,11.3
		c0.6-4.2,1.9-8.3,4.4-11.6c3.5-4.7,4-9.3,1-14.3c-0.5-0.9-0.9-1.8-1.7-2.4c-1-0.7-2.1-1.6-3.5-1.1c-1.5,0.6-1.1,2.1-0.9,3.3
		c0.9,5.1-0.3,9.8-3,14.1c-0.6,0.9-1.2,1.9-2.1,2.6c-2.8,2.6-6.2,2.5-9-0.1c-4.3-4-5.5-11.4-2.6-16.6c1.6-2.9,0.8-4.5-2.5-5
		c-4.1-0.6-9,3.4-9.9,8.1c-0.8,4.9-0.3,9.5,2.2,13.9C244.6,261.5,246.8,263,244.6,265.1z"/>
	<path class="st28" d="M395.5,267.6c-5-1.8-8.1-6.3-12.5-9c-0.6-0.4-0.9-1-0.7-1.8c1.5-8.7,2.8-17.3,10-23.7
		c5.6-5,12.4-5.6,19.3-5.9c0.7,0,1.4,0,2.1,0c8.6,1.9,15,6.8,19.7,14.2c1,0.1,1.6,0.7,1.8,1.7c2.8,2.9,6.9,3.6,10.7,5.8
		c-7.8,1.3-12.7,5.9-16.4,12.1c-1.1,1.9-3,3.3-4.5,4.9c-0.3,0.1-0.7,0.1-1,0.2c-2.2-1.9-0.1-3.2,0.7-4.5c1.4-2.3,2.8-4.4,3.5-7.1
		c1.6-6.7-0.9-11.8-5.8-16.1c-1.6-1.4-3.7-3.3-5.9-1.4c-1.9,1.7-2.1,4.3-0.9,6.6c2.6,5.4,1.7,10.4-1.7,15c-2.9,4-6,4.3-9.4,0.7
		c-4.1-4.3-6.1-9.4-4.6-15.4c0.3-1.3,1.5-2.7-0.2-3.7c-1.7-0.9-3.2-0.3-4.6,0.9c-6.3,5.4-7,12.3-1.9,19.4
		C394.7,262.4,397.4,264.3,395.5,267.6z"/>
	<path class="st25" d="M463,356.9c-1.3-2-0.8-4.2,0.9-5.2c1.9-1,3.7-3.3,6.4-1.7c1.1,0.7,2.4,1.1,3.9,1c-4.6-3.3-9.3-6.6-13.9-9.9
		c-0.8-0.6-2.4-1-2-2.3c0.4-1.5,1.8-0.6,2.8-0.7c4.9-0.7,8.9,1.6,13.1,3.5c4.3,2,8.6,4.1,13.1,5.8c6.1,2.3,11.8,5.4,17.1,9
		c3.8,2.6,5.3,8,9.7,10.5c0.6,0.4,1.5,2.7,0.5,3.8c-1.2,1.3-2.6,0.1-3.7-0.8c-1.3-1-2.6-2.1-3.9-3.2c-2-1.6-3.9-3.3-6.7-2.1
		c-1.9,0.8-2.8-1.6-5-1.4c1.4,2.6,4.3,3.6,5.3,6.2c0.4,1,1.7,1.8,0.7,2.9c-0.8,0.9-1.9,0.2-2.7-0.2c-2.4-1-4.6-1.3-6,1.6
		c-1.7,1.2-2.7,0-4-0.9C480.4,366.9,472.4,360.7,463,356.9z"/>
	<path class="st6" d="M500,406c-8.6,7-16.4,14.8-25.2,21.4c-1.8,1.4-4.4,2-5.2,4.6c-2.4-0.4-4.7,0.6-7,1.1c-0.9,0.2-2,1.1-2.6-0.2
		c-0.5-1,0.3-1.9,1-2.6c4.9-5,9.3-10.3,13.3-15.9c1-1.4,1.2-2.4-0.1-3.6c-4.6-4.1-8.7-8.7-14.7-10.9c5.6-4.2,11.1-8.4,16.7-12.5
		c1.4-1,2.7-2,3.6-3.5c3.8,8.6,10.8,14.2,17.8,19.8C498.5,404.5,499.7,404.8,500,406z"/>
	<path class="st29" d="M370.1,346.8c-8.9-3.2-16.3-9.1-24.6-13.4c-7.4-3.8-14-3.7-20.9,0.4c-5,3-10.3,5.6-15.2,8.8
		c-4.9,3.2-10,4.8-15.9,4.1c0.7-2,2.7-1.8,4.2-2.4c14.8-5.3,26.6-14.4,34.6-28.1c2.4-4.2,2.8-8.7,2.6-13.4c0.8-0.4,1.1,0.2,1.4,0.7
		c-1.2,11.8,5.9,19.4,13.6,26.5c4.9,4.6,10.4,8.5,16.3,11.7c2.8,1.6,5.8,2.7,9,3.3C374.2,348.1,371.7,346.2,370.1,346.8z"/>
	<path class="st25" d="M445.2,356.1c-0.6-1.6-1.6-2.9-3-3.9c-0.6-0.5-1.2-1.4-0.7-2.2c0.5-0.9,1.5-0.3,2.3-0.1
		c3.4,0.9,6.5,2.2,9.3,4.4c2.8,2.2,5.9,4.3,9.8,2.7c5.4,5.1,12.3,8.2,18.1,12.8c0.8,0.6,1.6,1.1,2.4,1.7c5.8,4.1,5.7,6.3-0.2,10.5
		c-0.7,0.5-1.3,1.1-2.2,0.3c-8.4-7.6-18-13.7-26.6-21C451.8,358.7,448.6,357.3,445.2,356.1L445.2,356.1z"/>
	<path class="st10" d="M459.5,307.9c-1.6,0.3-3.3,0.6-4.9,0.9c-0.3-0.3-0.6-0.6-0.8-0.8c1-2.2,2.9-2.5,5-2.5
		c9.9-2.1,19-6.8,28.5-10.1c2.1-0.7,4.1-1.8,6.2-2.7c1-1.4,2.5-2.1,4.2-2.7c12.2-4.5,24.9-6.9,37.8-7.7c1.6-0.1,3.1,0,4.3,1.2
		c13.9-0.5,27.7,1.1,41.5,1.7c-13.9,1.1-27.7-0.7-41.5,0c-1.6,1.6-3.9,1.7-5.9,1.8c-14,1-27.3,5.2-40.6,9.4
		c-9.6,3.6-19.1,7.5-28.9,10.7C462.7,307.6,461.2,308.3,459.5,307.9z"/>
	<path class="st6" d="M458.7,305.5c-1.3,1.6-3.4,1.5-5,2.5c-2.9,0.7-5.9,1.5-8.8,2.2c-0.9,0.2-1.8-0.1-2.2-0.8
		c-0.4-0.7,0.3-1.3,0.8-1.7c4.2-3.6,7.3-8.2,11-12.4C455.5,298.9,458.7,301.5,458.7,305.5z"/>
	<path class="st6" d="M503.5,408.3c4.4,3.4,6,8.6,8.9,13c1.5,2.3,2.5,4.8,3.3,7.4c-4.6-6.4-8.2-13.4-13.2-19.5
		C502.9,409,503.2,408.7,503.5,408.3z"/>
	<path class="st6" d="M445.2,356.1c3.8,0.4,7.5,1,9.2,5.1C450.9,360.3,448.1,358.1,445.2,356.1z"/>
	<path class="st10" d="M435.2,243c-0.9-0.2-1.4-0.9-1.8-1.7c0.7-1.2,1.6-2.2,2.8-0.7C437.2,241.8,436.7,242.7,435.2,243z"/>
	<path class="st30" d="M490.9,125.7c0,13.4,0.2,26.8-0.2,40.2c-0.2,6.5-3,12.2-8.3,16.4c-12.7-7-25.6-13.6-38.8-19.5
		c-8-2.7-15.4-7-23.5-9.4c-2-0.6-4-1.3-5.2-3.3c-0.5-4,2.5-6.4,4.5-9c8.4-10.9,19.1-19.3,30.1-27.2c7.3-5.2,14.3-10.8,22.5-14.7
		c5.9-2.8,10.1-1.4,13.4,4.3C489.2,110.4,490.4,118,490.9,125.7z"/>
	<path class="st8" d="M414.9,150.2c5.2,2.1,10.3,4.5,15.5,6.4c4.6,1.6,8.8,4.2,13.2,6.3c-4.6,1.4-7.4-2.6-11.1-3.9
		c-4.3-1.5-8.6-3-12.9-4.6C417.4,153.6,415.2,152.9,414.9,150.2z"/>
	<path class="st8" d="M484.9,244.7c-0.9,1.3-1.8,2.4-3.4,0.8C482.4,244.4,483.7,244.8,484.9,244.7z"/>
	<path class="st31" d="M539.6,825.1c-31.4,0.9-62.9,0.9-94.3,0.9c-1.2,0-2.6,0.5-3.5-0.8c0.3-0.4,0.6-0.7,1-0.8
		c8.9-1.1,17.9-0.3,26.9-0.5c4.3-0.1,8.7,0,14.1,0c-9.5-2-13.4-8.8-17.4-15.4c-1.4-2.3-2.4-4.7-3.6-7.1c-0.8-2.2,0.6-3.8,1.6-5.4
		c4-6.5,8.2-12.8,12-19.3c7.9-14.5,17.3-28,26.6-41.5c1.1-1.6,2.1-3.4,4.5-3.4c3.1,0.7,3.8,3.3,3.9,5.8c0.2,7.7,0.4,15.2-1.6,23
		c-2.4,9.4-0.7,19.2,0.9,28.7c1,5.9,3.6,11.2,6.9,16.2c2.8,4.3,6.4,7,11.5,8.6C534.3,815.6,537.9,819.6,539.6,825.1z"/>
	<path class="st32" d="M539.6,825.1c-4.4-4.1-7.1-9.9-14.2-11c-5.9-0.9-8.3-6.7-11.1-11.2c-4.8-7.7-6.2-16.4-6.5-25.3
		c-0.3-7.8-0.8-15.6,2-23.5c1.8-5.2,0.5-11.6,0.2-17.5c-0.1-1.8-0.6-4.1-3.2-4.3c-1-1.8,0.3-2.9,1.1-4.2c3.8-5.7,7.6-11.4,11.3-17.3
		c2.3-1.8,3.9-0.6,4.4,1.6c2.8,12,6.5,24.1,0.2,36.2c-1.7,3.4-1.4,6.4,0.8,9.5c2.5,3.4,5.3,6.6,8.4,9.4c1.9,1.7,3.5,3.7,5,5.7
		c2,2.7,2.6,5.4-0.5,7.7c-1.8,1.4-1.6,2.7-0.2,4.2c1.9,2.1,3.5,4.4,5.6,6.3c7.5,7,13.9,15,21.4,22c-1,0.9-3.2,1.1-2.4,3.3
		c0.7,2.1,2.4,2.5,4.4,2.5c9.5,0,19.1-0.1,28.6,0.1c15.8,0.3,31.6,0.9,47.5,1c4.1,0,8.7-0.1,12.2,3.2c-6.8,0-13.6,0.1-20.4,0
		c-2.2,0-4.4,0.2-6.5,0.9c-27.5,0.3-55,1.1-82.4,0.8C543.2,825.2,541.4,825.2,539.6,825.1z"/>
	<path class="st33" d="M442.4,825.2l-0.3,0c0,0-0.3,0.1-0.3,0.1c-0.5,0.3-0.9,0.7-1.4,0.9c-1.5,0.6-3.3,2-4.4,1.5
		c-1.8-0.7,0.2-2.7-0.2-4.1c-0.7-3,0.1-6.7-4.1-9.1c0,3.8-0.2,7.1,0.1,10.4c0.3,3.6-0.4,6.3-4.4,7c-9.4,2.9-19.3-0.4-28.7,2.4
		c-1.4,0.4-3.2-0.4-4.9-0.6c-2.6-4.7-1-9.2,0.7-13.7c0.3-0.9,1.2-1.7,2.3-1.5c0.9,0.2,1.2,1.1,1.5,1.8c0.8,1.8,0.6,3.8,1.5,6.4
		c6.3-8.2,12.6-15.7,17-24.5c3.1-6,6.6-11.8,9.8-17.7c1.7-3.2,4.3-4.6,8-4c3,0.5,6.1,0.8,9.1,1.5c6.9,1.6,13.1-0.7,19.2-3.1
		c4.1-1.6,4.3-3.9,1.1-7.1c-2.2-2.3-3.1-4.7-0.8-7.4c5,0.5,7.9,4.3,11.1,7.4c1.4,1.3,3.2,2.8,2.8,5.3c-4.8,7.9-9.5,15.7-14.3,23.6
		c0.4,1,0,2-0.6,2.7c-4.2,5.7-7.7,11.9-12.8,17C447.5,822.6,445.3,824.4,442.4,825.2z"/>
	<path class="st34" d="M463.8,764.5c-1.7,3.7-0.4,6.2,3.1,7.8c2.1,1,2.2,2.3,1,4c-1.2,1.8-2.5,3.4-4.6,4.2
		c-7.9,2.8-15.7,4.2-24.2,2.3c-7.5-1.7-8.3-3.9-13.4,5.8c-4.4,8.5-8.7,17.2-14.4,25c-3.3,4.5-6.6,9-9.9,13.5
		c-0.6,0.8-1.4,2.1-2.6,1.8c-1.4-0.4-0.8-1.9-0.8-2.9c0.1-2.4-0.6-4.6-1.3-7.7c-3.3,5.3-3.1,10.3-2.9,15.4c-9.2-0.1-18-2-26.3-5.9
		c-0.1-0.3-0.1-0.5-0.2-0.8c-1.6-3.3-0.9-6.8-0.9-10.1c-1.8,2.1-0.7,6-4.3,7.2c-6.5-3.1-8.5-9.3-10-15.6c-2-8.6-0.1-16.9,2.5-25.1
		c4.1-11.6,9.9-22.4,15.3-33.4c4.4-7.1,7.7-14.9,11.8-22.2c2.6-5.1,5.9-9.9,8.6-15c2.8-4.1,5-8.6,7.5-12.9c2.5-3.8,4.7-7.8,6.6-12
		c4.1-6.9,7.9-14,13.1-20.3c1.1-1.3,2-3.1,4.2-3c3.4,2.3,5.7,5.8,8.3,8.9c8.6,10.2,9.1,10.4,21.9,7.6c3.2-0.7,6.3-1.6,9.3-2.8
		c4.3-1.6,8.6-2.7,13.1-1.1c1.1,0.4,2.3,0.3,3.3-0.2c4.5-2.1,8.7-0.6,12.4,1.5c2,1.1,5.4-0.1,6,2.6c0.5,2.2-1.2,4.5-1.1,7
		c0.1,2.3-1.4,3.9-3,5.4c-2.4,2.2-4.4,4.8-6.8,6.8c-4.4,3.6-7.2,8.2-9.6,13.1c-2.1,4.2-5.2,7.7-7.5,11.7c-3.9,5.9-10,7.4-16.4,8.3
		c-3.8,0.5-7,2.1-10.1,3.9c-1.4,0.8-2.4,2.3-0.7,3.3c5.7,3.5,6.3,10.3,10,15.2c2.4,3.1,4.4,5.3,8.5,4.5
		C461.7,761,463.3,762.1,463.8,764.5z"/>
	<path class="st35" d="M355.9,783.1c-2.1,7.7-4,15.4-2.8,23.5c1,6.9,3.9,12.8,9.5,17.1c1.1,0.4,1.8,0.9,1.6,2.2
		c-12.5-0.6-25-0.7-37.4,0c-1,0.1-3.4,1-1.8-1.8c10.4-8.2,11-19.4,9.3-31.3c-0.5-3.3-1.5-6.5-2.3-9.8c0.8-0.9,1.8-1.4,3-1.4
		c6-0.4,12-0.4,18.1,0C354.1,781.7,355.2,782.1,355.9,783.1z"/>
	<path class="st36" d="M364.3,826c-0.5-0.7-1.1-1.5-1.6-2.2c1.6-3.5,1.6-7.9,5.6-10.4c-1.4,4.5-0.4,9.1-0.9,13.7
		C366.3,826.6,365.3,826.3,364.3,826z"/>
	<path class="st37" d="M518,439.7c7.3-5.2,15-9.7,21.6-16.1c6.7-6.6,13.5-13,19.7-20c6.4-7.1,11.6-15,16.4-23.3
		c4.7-8.1,8.4-16.7,11.4-25.7c2.9,2.3,3.8,5.8,5.2,8.9c4.4,9.5,9.1,18.9,12.3,28.8c-0.4,6.7-3.8,12.3-6.6,18
		c-5.7,11.6-13.2,22.1-21.2,32.3c-1.7,2.2-3.2,4.6-5,6.8c-7.8,9.9-15.9,19.6-25.1,28.3c-4.4,4.2-6.5,3.9-9.8-1.3
		c-3.8-6-6.7-12.5-10.8-18.4c-4.3-4.8-5.7-11.1-8.7-16.6C517.1,440.9,517.2,440.1,518,439.7z"/>
	<path class="st25" d="M488.2,312.2c1.1-0.3,2.2-0.8,3.2-0.8c12.9,0.2,25.8-1.5,38.7-0.9c1.5,0.1,3,0.5,4.5,0.8
		c-0.8,2-1.4,3.6,0.5,5.6c1.2,1.2-0.8,0.9-1.4,1.2c-3.1,2.3-3.3,4-0.6,5.9c5.4,3.8,10.6,7.8,16.2,11.2c2.7,1.6,2.4,3,1.5,5.3
		c-4.4,11.1-9.7,21.7-16.9,31.3c-0.4,0.6-0.7,1.2-1,1.8c-6.3-6.2-13.4-11.3-20.9-15.8c-8.4-4.9-17.1-9.3-26-13.3
		c-4.7-2.1-9-4.9-13.5-7.2c-1.4-0.7-0.5-1.6-0.3-2.5c0.1-0.1,0.2-0.2,0.3-0.2c6.7-0.1,7.2-0.4,10-7.4
		C484.5,322.3,485.8,317.1,488.2,312.2z"/>
	<path class="st38" d="M570.9,448.9c6-8.4,12.2-16.7,18-25.2c6-8.8,11-18.1,14.2-28.4c0.3-1,1-1.9,1.6-2.9
		c4.2,7.4,6.7,15.5,9.9,23.4c2.3,5.8,4.5,11.7,5.4,17.9c-2.1,2.4-2.8,5.4-3.9,8.2c-2.7,6.5-6.5,12.3-10.4,18.1
		c-5.8-0.6-11-3.1-16.2-5.5c-5-2.3-9.9-4.7-15.6-4.3C572.8,450.2,571.7,449.9,570.9,448.9z"/>
	<path class="st39" d="M533.9,251.9c2.8,7.8,4.5,15.8,4.9,24.1c0.1,2.5,0.3,5,0.9,7.5c-16,0.5-31.3,4.1-46.3,9.2
		c1-7.6,2-15.1,1.2-22.8c-0.3-2.8,0.9-4.7,4.7-5.4c11.7-2,23.3-5.1,32.3-13.7C533.2,249.4,533.4,250.5,533.9,251.9"/>
	<path class="st40" d="M492.5,295.4c15.2-5.8,30.8-9.7,47.2-10.3c-0.3,8.4-2.6,16.4-4.2,24.5c-1.4,0-2.8-0.1-4.2-0.1
		c-8.2-0.5-16.3-0.6-24.5,0c-5.6,0.3-11.3-0.6-16.8,0.8c-0.7-0.7-1.3-1.7-1-2.6C489.9,303.6,490.1,299.2,492.5,295.4z"/>
	<path class="st41" d="M650.5,630.3c0,12.9-1.3,25.7-2.7,38.6c-0.1,1.3-0.1,2.5-1,3.6c-2,0.8-3.2-0.6-4.5-1.6
		c-3.3-2.6-6.5-5.3-9.7-8.1c-1.9-1.6-3.5-1.5-5.2,0.1c-2.6,2.5-5.3,5-7.7,7.8c-3.5,3.9-6.9,7.7-10.9,11.1
		c-7.5,7.2-14.7,14.6-22.2,21.8c-3.8,3.6-5.4,3.3-8.1-1.3c-4.7-8-8.6-16.4-12.6-24.7c-0.5-1-0.8-2.1-0.6-3.2
		c1.1-2.9,4.1-4.1,6.1-6.2c9-9.2,18.7-17.7,26.6-28c1.1-1.4,2.2-2.9,4.2-3.2c5.8-0.4,8.3-5.4,11.6-8.9c7.6-8,14.6-16.5,20.8-25.7
		c3.6-5.3,7.1-10.7,10.5-16.1c0.9-1.4,1.5-2.7,3.4-2.5c0,0.3,0.1,0.5,0,0.8c0.8,1.4-0.1,3,0.6,4.3
		C651.2,602.7,650,616.5,650.5,630.3z"/>
	<path class="st15" d="M649.3,589c-1.1-1.3-0.7-2.8-0.6-4.3C649.7,586,649.4,587.5,649.3,589z"/>
	<path class="st42" d="M570.9,448.9c8.3-1.3,15.2,2.6,22.3,5.8c2.9,1.3,5.8,2.7,9,3.2c1.3,0.2,2.8,0.6,3.4,2.1
		c-7,12.7-16.8,23.4-25.8,34.6c-8.7,10.8-19.6,19.2-30.1,28c-2.1,1.8-1.7,2.4-0.2,4.1c8.3,9.5,17.9,17.9,25.8,27.7
		c-0.2,3.6-3.2,4.9-5.4,6.9c-9.9,7.8-18.9,16.8-29.6,23.7c-2.6,1.5-4.7,4-8.1,4c-4.6-2.1-7.7-6.1-11.3-9.2
		c-5.6-4.9-11.3-9.7-16.2-15.3c-2.1-2.3-3.9-2.5-6.5-0.6c-14.4,10.9-30.4,19.1-46.5,27c-4.2,2.1-4.4,2.3-0.9,5.7
		c8.4,8,15.6,17.2,24.3,24.9c-1.1,3.3-4.1,4.5-6.8,5.9c-8.7,4.4-17.7,7.8-26.9,11.1c-2.6,1-5.2,2.2-7.8,3.1c-1.9,0.6-3.9,1.3-5.2-1
		c-0.9-2.7-1.3-5.5-1.3-8.3c-0.1-8.7-0.6-17.3-1-26c-0.1-2.2-0.2-4.5,1.5-6.4c4.4-1.9,8.8-3.7,13.1-5.8c3.2-1.6,4.9-3.7,4-8
		c-1.4-6.8-3.4-13.2-6.5-19.3c-2.1-4.2-0.3-8.9,4.9-11.3c9.5-4.5,19.2-8.6,28.7-13c11.1-5.1,21-12.3,31.1-19.2
		c2.9-2,2.8-4.3,0.7-7.1c-3.2-4.4-6.9-8.5-9.3-13.4c-1-1.8-2.3-3.5-3.4-5.3c-1.8-3-1.1-5.4,2-7.5c3.7-2.5,5.8-2.5,7.9,0.5
		c1.8,2.7,3.3,2.7,5.2,0.4c1.7-2,3.9-3.6,5-6.2c1.9-4.4,6.2-3.7,9.8-4.2c3.2-0.5,5.6,1,7.3,3.9c1,1.7,1.1,4.9,4.6,3.1
		c3.8-2,4.9-4.3,3.4-7.7c-2.3-5.4-5.1-10.6-8.2-15.6c-1.3-2.1-2.8-4.4-0.7-6.9c3.4,3.1,4.2,7.8,6.8,11.4c1.9,2.7,3.5,5.7,5.2,8.6
		c1.7,2.9,3.3,3,5.9,0.6C554.3,468.9,562.7,458.9,570.9,448.9z"/>
	<path class="st43" d="M569.3,560.4c2.1-1.9,4.4-3.6,6-6c9.2-6.4,15.4-15.8,23.3-23.5c3.2-3.1,5.8-6.8,8.6-10.2
		c0.9-1,1.9-1.6,3.3-1.6c5.6,6.7,12.5,12,18.8,18.1c2.4,2.3,2.5,4.1,0.7,6.8c-6.1,9.2-12.6,18.1-19.4,26.9c-0.4,0.5-1.1,0.9-1.6,1.3
		c-1.6,1.1-3.4,1.1-5.2,0.7c-9.6-2.1-19.1-4.4-28.6-6.9C572.4,565.2,569.3,564.3,569.3,560.4z"/>
	<path class="st44" d="M569.3,560.4c2.6,4.5,7.4,4.6,11.6,5.6c9.3,2.1,18.4,5.3,28,6.2c-1.7,2.6-3.4,5.2-5.9,7.1
		c-3.2,2.4-4.1,5.7-3.3,9.3c1.5,6.9,0.6,13.9,1.4,20.9c1.1,9.1,0.8,18.4,1.1,27.7c-10.9,13.5-22.9,26-36.3,37.2
		c-15.8,11.7-32.2,22.6-48.9,33c-4,1.8-7.5,4.3-11.5,6.1c-1.6,0.7-3.2,1.9-5.1,0.5c-1.4-4.7-1.7-9.7-1.7-14.5
		c0-11-0.3-21.9-1.5-32.8c-0.3-3,0.7-5.2,3.2-6.8c0.8-0.5,1.6-1.1,2.5-1.5c18-8.7,33.7-20.7,49.3-32.9c1.9-1.5,4.4-3.3,0.9-5.4
		c-11-6.5-12.5-17.6-14-28.6c-0.3-2.4-1.3-5,0.5-7.3C550.4,577.1,559.3,568,569.3,560.4z"/>
	<path class="st6" d="M203,381.4c8.4,4.8,15.2,11.9,24.1,15.9c2.6,1.1,2.7,3.1,0.9,5.1c-2.3,2.5-4,5.5-6.7,7.5
		c-1.9,1.4-1.7,2.6,0.1,4c3.3,2.5,7.2,3.7,11.2,4.6c2.2,0.5,3.4-1,3.9-2.9c0.6-2,0.6-4.3,3.6-4.3c0.2,0,0.7-0.2,0.7-0.3
		c-0.4-5.3,3-2.4,5.2-2.6c8.1-0.6,15,3.1,22.3,5.4c13.2,4.2,26.6,7.4,40.4,9c5.5,0.6,7,2.9,4.8,8.1c-1.8,4.2-0.2,6.5,4,7.2
		c7.1,1.2,14.3,0.5,21.4,0.8c-3,1.9-6.4,3.6-5.1,8.2c0.2,0.7-0.3,1.5-1.1,1.6c-4,0.8-4.3,4.4-4.6,7.2c-0.5,4.3-0.5,8.5-1.6,12.8
		c-0.7,2.7-1.6,3.8-4.1,4.2c-5,0.9-10.1,0.9-15.1,0.3c-11.5-1.4-22.8-3.8-34.1-6.4c-2.5-0.6-4.1,0-5.9,1.8
		c-5.2,5.3-8.8,11.9-14.1,17.2c-1.8,1.8-3.7,2.8-5.8,2.7c-4.6-0.3-9.1-1.3-13.4-3.1c-2.8-1.1-2.4-3.6-2-5.8c1-5.9,2.3-11.8,3.5-17.7
		c0.1-0.3,0.3-0.6,0.2-0.8c-1.2-7.4,3.9-11.4,8.4-15.7c4.1-3.9,7.9-8,12-11.9c1.8-1.8,1.5-2.9-0.7-3.5c-11-3.1-20.8-8.9-31.4-13.1
		c-3.5-1.4-6.3-1.3-9.3,2c-4.1,4.5-9.1,8.2-13.8,12.3c-0.8,0.7-1.8,1.2-2.7,0.4c-5.7-4.8-13.1-7-18.2-12.7c-1.6-1.7-2.1-3-0.8-5.1
		c5.6-8.5,10.2-17.7,17.2-25.3c0.8-0.8,1.6-1.6,1.6-2.9C199.3,383.8,201.4,382.8,203,381.4z"/>
	<path class="st6" d="M195.4,385.6c-5.9,5.8-10.8,12.4-15.5,19.2c-1.4,2.1-2.8,4.2-4.1,6.4c-1.3,2.2-2.9,2.2-4.4,0.5
		c-2.9-3.2-5.6-6.6-8.3-10c-1-1.2-1-2.8-0.2-4c1.8-3,3.5-6.2,5.9-8.6c10-10.4,20-21,32.5-28.5c10.3-6.2,20.7-12.3,32.1-16.6
		c2.5-0.9,4.9-2.4,8.2-4.1c-3.8-1.1-5.5,1-7.6,1.7c-19.5,6.6-36.7,17.4-52.4,30.5c-5.8,4.8-10.6,10.8-15.5,16.5
		c-1.7,2-2.9,2.1-4.3,0.4c-3.4-4.1-6.5-8.4-9.9-12.5c-1.7-2-1.1-3.4,0.5-5c4.6-4.6,9.8-8.4,15.1-12.1c1.5-1,3.3-1.6,4.2-3.4
		c15.3-9.3,31.3-16.9,48.3-22.4c5.7-1.9,11.5-3.6,17.3-5.2c5.3-1.5,7.9,0.2,8.4,5.4c0.3,2.8,1,5.1,3.1,7.1c1.8,1.7,1.4,3.1-0.7,4.3
		c-13.4,7.1-26,15.5-37.7,25.2C205.1,375,200.2,380.2,195.4,385.6z"/>
	<path class="st16" d="M173.5,316.4c7.6-0.4,15.2,1.4,22.8,0.8c4.8,3.8,7.4,9.3,10.7,14.3c0.9,1.3,0.7,3-0.6,4.2
		c-11.4,4.6-22.2,10.1-32.9,16.1c-2.9,1-3.6-1.5-4.6-3.2c-1.7-3-3.3-6.2-5.2-9.2c-1.8-2.9-4.1-3.5-7.2-2.5c-2.7,0.9-5.2,2.1-7.9,3
		c-3,1-5.4,0.2-6.6-2.8c-2.1-5.2-4.1-10.4-6.3-15.6c-0.4-1-0.3-1.9,0.4-2.8c5.1-1.6,10.5-0.9,15.7-1.6c3.2-0.5,6.4-0.1,9.7-0.1
		C165.6,316.2,169.6,317.6,173.5,316.4z"/>
	<path class="st6" d="M136.4,318.9c0,3.2,2.5,5.3,3.3,8.4c0.7,2.9,2.4,5.9,3.3,8.9c1,3.2,3,4,6.1,2.6c2.9-1.3,5.9-2.5,8.9-3.5
		c2.5-0.8,4.5-0.3,6,2.3c1.8,3.1,4,6,5.4,9.4c0.8,2,1.6,4.2,4.1,5c-1.4,1.1-2.8,2.2-4.2,3.3c-4.5,1.2-7.7,4.5-11.1,7.4
		c-2,1.7-3.9,3.6-6,5.3c-2.9,2.4-4.2,1.9-6-1.2c-4.3-7.4-7.5-15.3-11.8-22.7c-3.8-6.4-4.1-14.2-6.3-21.3c-0.7-2.3,0.7-3.7,3.2-3.7
		C133,319,134.7,318.9,136.4,318.9z"/>
	<path class="st45" d="M395.5,267.6c0-2.6-1.5-4.4-3.1-6.2c-3.6-4.2-4.8-9.1-3.6-14.4c0.9-4.3,6.5-8.7,10.4-8.5
		c3.1,0.2,4,1.9,2.7,4.7c-2.7,5.4,0.2,14.3,5.5,17c1.4,0.7,2.6,0.6,3.8-0.4c4.6-3.7,5.7-10.8,2.6-15.9c-1.6-2.6-0.1-5.7,1-7.9
		c1.2-2.2,3.9-1.7,6.3-0.3c9.4,5.6,11.6,17.2,5,26.2c-0.9,1.2-2.7,2.1-2.1,4.1c-8,4.4-16.3,6.2-25.2,3.3
		C397.6,268.9,396.3,268.7,395.5,267.6z"/>
	<path class="st46" d="M244.6,265.1c0.6-1.3-0.5-2.1-1.1-3c-3.7-5-4.3-10.5-3.3-16.4c1-5.9,7.9-10.2,13.6-8.6c2.2,0.6,3.9,5.3,2,6.5
		c-4.9,3.3-2.2,7.3-1.3,10.9c0.7,3,2.5,5.9,6.1,6.2c3.7,0.3,5.1-2.8,6.7-5.5c2-3.5,3.1-7.3,2.1-11.3c-0.6-2.5-0.9-4.7,0.8-6.6
		c0.8-0.9,7.3,3.2,7.6,5c0.5,2.4,1.1,4.6,2.9,6.4c0.5,0.5,0.5,1.3,0.1,1.9c-4,5.8-6,12.5-9.6,18.5
		C261.7,272.7,252.8,271.3,244.6,265.1z"/>
	<path class="st47" d="M336.2,303.6c-0.5-0.2-1-0.5-1.4-0.7c-1.6-5-4.9-9.2-5.9-14.7c-0.6-3.6-4.6-5.1-8.4-5
		c-2.9,0.1-5.1-0.6-5.9-3.5c-0.7-2.8,1.3-4.5,3.5-5.6c11.2-5.8,22.5-6,33.9-0.6c1.1,0.5,2.2,1.4,2.9,2.3c2.4,3.2,1,6.9-2.9,7.6
		c-2.1,0.4-4.2,0.3-6.1,1.3c-2.7,1.3-4.7,2.9-4.4,6.3c0.1,1.7-0.6,3.2-1.5,4.7C338.5,298.2,336.9,300.7,336.2,303.6z"/>
	<path class="st6" d="M206.4,335.8c0.6-2.9-0.9-5-2.6-7.2c-2.8-3.6-5.3-7.4-7.5-11.4c1.4,0,1.3-0.7,0.8-1.7c1.2-1.1,2.6-0.6,3.9-0.5
		c1.7,0.1,3.3,0.3,4.5-1.2c4,0.5,8,1,12,1.6c-1.7-1.9-4-2.1-6.1-2.5c0-1.1,0-2.2,0-3.3c7.3,1.8,14.8,2.6,21.6,6.4
		c3,1.7,4.3,4.4,5.9,6.8c1.3,2-0.4,3.3-2.5,3.8c-3.9,1-7.9,2-11.7,3.1C218.6,331.8,212.5,333.8,206.4,335.8z"/>
	<path class="st48" d="M405.6,688.5c-1.9,4.1-4,8.2-6.7,11.9c-4.7,0-9.1,1.1-13.5,2.7c-5.9,2.1-11.9,3.6-18.4,1.6
		c-4.7-1.4-9.7,0.2-14.5,0.8c-3.6,0.6-7.3,0.5-10.9,0.3c-7.6-0.3-15.1,0.8-22.7,0.9c-6,0.1-8.6-4.1-5.4-9.1c3.3-5,3.2-11,5.3-16.3
		c0.8-2.1,0.1-3.2-2.6-3.5c-4.6-0.5-8.1,1-11.1,4.5c-3.9,4.5-5.9,4-8.4-1.5c-1-2.2-2-4.3-3.6-6.2c-0.7-0.8-1.3-2.2-2.6-1.9
		c-1.3,0.3-1,1.9-1,2.9c0.2,5.6-1.1,11.2-1,16.8c0,1.6,0.5,3.8-2.1,4.3c-0.8-2.2-2.2-3.7-4.7-4.1c-2.9-0.4-4.7-2.7-6-4.9
		c-2.5-4.5-6-7.8-10.3-10.4c-0.8-0.5-2-1.1-2.1-1.9c-1.1-5-5.3-6.5-9.2-8.4c-2.9-1.4-3.8-3.6-2.3-6.5c1.5-2.8,3.1-5.6,4.6-8.5
		c1-1.9,2.7-2.4,4.6-2.1c7.2,0.9,14.4,1.8,21.5,2.9c4.3,0.6,8.4-1.3,12.9-0.3c6.1,1.3,12.5,1.4,18.7,2.1c3.2,0.4,4.6-0.7,4.4-4.2
		c-0.6-9.2,0.8-18.5-0.8-27.7c-0.3-1.8-0.2-3.7,0.8-5.3c15.5,0.5,31-0.4,46.3-2.6c3.4-2.5,7.5-2.9,11.6-3.3c1.5-0.2,2.8,0.1,3.6,1.6
		c1,3.8,0.5,7.8,0.4,11.6c-0.2,7.3,0.8,14.4,0.9,21.7c0,1.2,0,2.6,1.6,2.9c0.4,0.1,0.8,0.3,1.2,0.5c4,11.3,11.7,20.6,16.9,31.3
		C402.4,683.9,404.1,686.2,405.6,688.5z"/>
	<path class="st22" d="M384.5,650.6c-0.3,0-0.6-0.1-0.9-0.1c-2.4-0.7-2.5-2.6-2.5-4.7c-0.1-9.5-1.1-18.9-0.8-28.4
		c0-1.4-0.1-2.8-0.8-4c-5-1-9.6,1.2-14.4,1.6c3.1-2.2,1.8-4.9,1.3-7.9c-1.5-9.2-2.6-18.5-3.8-27.7c-0.3-2.4,0.3-4.1,3.1-4.3
		c3.2-0.2,6.6-2.2,8.8,2.1c4.4,8.9,9.2,17.6,14.8,25.8c2.7,3.9,5.7,5,10.3,4.2c9.5-1.6,18.7-4.5,27.9-7.3c0,13.8,1.1,27.6,1.7,41.3
		c-0.8,3.6-3.9,2.9-6.4,3.4c-2.9-0.5-5.6,0.8-8.5,0.9c-3.4-0.1-6.8-0.1-9.9,1.8c-0.3,0.2-0.7,0.3-1,0.3c-1.2-0.1-2.4,0.1-3.5,0.7
		c-0.3,0.1-0.7,0.2-1,0.2c-1.1,0-2,0.7-3,1.1c-1.8,0.8-3.7,1.2-5.6,1c-1.4-0.3-2.8-0.3-4.2,0.3C385.5,651.2,385,651,384.5,650.6z"/>
	<path class="st6" d="M527.1,457.4c-0.7,3.9,1.8,6.7,3.7,9.6c2.9,4.5,4.6,9.6,7.4,14.2c0.8,1.3,0.5,2.4-0.3,3.5
		c-0.9,1.4-2.3,2.4-3.7,3.4c-4.6,3.3-5,3.2-6.9-2c-1.1-3.1-3.1-4.6-6.3-4.3c-2.2,0.3-4.4,0.6-6.6,1.1c-0.8,0.2-1.9,0.8-2,1.3
		c-0.7,4.7-4.9,6.5-7.5,9.5c-2.2,2.6-3.1,1.1-4.3-0.9c-2.6-4.6-2.7-4.6-7.1-1.9c-3.2,1.9-3.4,3.6-1.2,7.3c0.9,1.4,2.2,2.6,1.9,4.6
		c-4.7-4.8-8.3-10-9.3-17.1c-1.2-8.5-3.5-16.9-6.3-25.1c-0.6-1.9-0.2-3.3,1.2-4.5c1.9-1.6,3.8-3.3,5.9-4.7c1.5-1,1.8-2,0.9-3.4
		c2.5,0.1,4.3-1.4,5.8-3c4.9-4.9,10.6-8.4,16.7-11.5c1.9-1,3-0.8,4.2,1c1.3,1.9,2.4,4.1,4.7,5.2C521.2,445.5,523,452.1,527.1,457.4z
		"/>
	<path class="st6" d="M355.8,437.9c0.9-4,2.8-8,1-12.3c-0.4-1,0.3-1.9,1.5-2c4.7-0.6,9.4-1.3,14.1-1.7c2.7-0.2,3.3,2,4,4.1
		c1.9,5.4,2.9,6.1,8.5,5c3-0.6,5.8-1.9,8.8-2.7c2.7-0.8,2.9-2.2,1.5-4.3c-0.4-0.6-0.7-1.2-0.9-1.9c-2-5.2-0.6-8,4.5-10
		c9.4-3.5,19-6.8,27.8-11.7c3.8-2.1,6.8-1.8,10,1.3c2.5,2.5,5.7,4.5,8.6,6.7c-1.1,1.9-3.2,2.2-4.8,3.2c-12.5,7.1-25.3,13.4-39,17.7
		c-4.9,1.6-5.2,2.5-1.6,6.5c4.6,5.3,9.2,10.6,14,15.6c2,2.1,2.1,3.4-0.7,4.6c-8.5,3.6-17,7.3-26,9.4c-4.3,1.1-5.7,0.2-7-4.4
		c-1.5-5.1-2.7-10.3-4-15.4c-0.4-1.6-0.9-3.3-1.5-4.8c-1-2.3-2.5-3.2-5.4-2.7C364.8,439.1,360.2,440.5,355.8,437.9z"/>
	<path class="st16" d="M205.6,313.9c-2,4.8-5.5,1.7-8.4,1.7c-10.6-0.8-21.3-1.5-31.9-0.7c-9.6,0.7-19.2,0.9-28.9,1.5
		c-0.9-1.1-0.9-2.3,0-3.4c7-0.3,14-1.3,21.1-0.9c3-1,6.3,0.4,9.3-0.7c2.5,0,5.1,0,7.6,0c2.5,1.1,5.2-0.2,7.6,0.8
		C189.9,312,197.7,313.3,205.6,313.9z"/>
	<path class="st6" d="M136.4,313c0,1.1,0,2.3,0,3.4c-2.1,0.6-4.3,1.1-6.6,0.8c-0.9-0.1-1.6-0.4-1.7-1.4c-0.1-1.2,0.6-1.7,1.7-1.9
		C132,313.7,134.2,313.3,136.4,313z"/>
	<path class="st6" d="M173.5,316.4c-3.9,1.7-7.9,0.5-11.8,0.7C165.5,315.6,169.6,316.8,173.5,316.4z"/>
	<path class="st6" d="M167.6,309.7c3.4,0.3,6.9-0.9,10.2,0.8C174.4,310.2,170.9,311.3,167.6,309.7z"/>
	<path class="st6" d="M166.8,311.4c-3,1.7-6.2,0.5-9.3,0.7C160.5,310.6,163.7,311.7,166.8,311.4z"/>
	<path class="st6" d="M182,312.2c-2.5-0.3-5.2,0.8-7.6-0.8C176.9,311.7,179.6,310.6,182,312.2z"/>
	<path class="st6" d="M347.3,438.8c0.9-1.1,2.2-0.8,3.4-0.7C349.9,439.9,348.5,438.8,347.3,438.8z"/>
	<path class="st49" d="M286.6,697c1.4-6.4,1.1-13,1.7-19.5c0.1-1.5,0.1-3.1,0-4.6c0-1.3,0.7-2.1,1.9-2.5c1.2-0.4,1.7,0.5,2.3,1.3
		c2.6,3,4.7,6.2,6,10c1.3,3.8,2.6,3.9,5,0.8c1.6-2,3.4-3.7,5.4-5.2c3.3-2.4,6.9,0.5,10.4-1c1-0.4,1.7,2.1,1.2,3.4
		c-2.2,6.2-1.4,13.4-6.1,18.8c-1.4,1.6-1.2,3.8-0.4,5.6c0.8,1.9,2.6,1.6,4.4,1.4c11.3-1,22.7-1.1,34-1c6.4-1,9.3,0.5,11.7,6.3
		c0.9,2.2,4.7,2.7,3.8,6.1c0.8-2.6,1.9-4.8,5-4.9c2.9-0.1,4.2,1.9,5,4.2c0.9,2.3,2.2,2,3.9,0.9c1.8-1.2,2.7-3.2,4.1-4.7
		c2.4-2.4,4.1-2.2,5.4,0.7c-2.2,5.4-5.8,10-8.4,15.1c-5.8,4.3-12.2,7.5-19.3,9.1c-6.1,1.4-8.7-0.3-9.6-6.5
		c-0.5-3.5-0.9-6.9-1.3-10.4c-0.4-3.6-2.8-5.5-6.1-6.1c-3.4-0.7-6.7,0.5-8.8,2.8c-1.8,2,0,4.6,1.4,6.5c2.1,2.9,3.5,5.9,3.3,9.7
		c-0.3,4.4-1.8,5.8-6.5,5.2c-9.6-1.3-17.9-5.4-24.9-12.2c-3.7-3.6-7.5-7.2-11-11c-2.6-2.9-5.9-4.7-9.3-6.4
		C287.5,705.6,285.9,701.7,286.6,697z"/>
	<path class="st50" d="M290.8,708.8c3.2-0.4,5.6,0.9,7.9,3.1c6,5.9,11.5,12.2,18.2,17.5c6.1,4.8,13.1,6.8,20.5,8
		c2.9,0.5,3.9-0.6,3.9-4.1c0-3.9-2-6.6-3.6-9.7c-3.7-7-3.9-7.9,5.7-10.8c4.2-1.3,10.4,2.2,10.7,6.2c0.2,2.8,0.7,5.5,0.9,8.3
		c0.7,9.7,2.1,10.6,11.5,7.8c4.3-1.3,8.4-3.1,12.2-5.6c1.3-0.9,2.7-1.5,4.3-1.4c-3.9,7.3-7.1,15-11.8,21.9c-1.4,0.7-2.8,1.3-4.4,1.3
		c-15.8,0.8-31.6,1.1-47.4,0.1c-0.8-0.1-1.6-0.4-2.5-0.6c-0.6-0.9-1.2-1.7-1.8-2.6C307.6,734.9,299.3,721.8,290.8,708.8z"/>
	<path class="st23" d="M225.6,764.4c-1.7,3.3-2.3,5.6-2.3,8.2c0,2.2-2.9,2.1-4.5,2.7c-1,0.4-2.8,0.8-3.4-0.6
		c-0.5-1.4,0.5-2.8,1.3-4.2C218.6,767.6,221.7,766.7,225.6,764.4z"/>
	<path class="st23" d="M238,756.5c-1.8-0.2-3.4-0.3-4.9-0.5c-0.8-0.1-1.8-0.3-1.5-1.5c0.3-1,1.3-1.1,2.1-0.8
		C235.1,754.4,236.8,754.8,238,756.5z"/>
	<path class="st51" d="M316.8,751.1c5.1-2,10.4-1,15.6-0.6c6,0.5,11.9,0.4,17.9,0c6.9-0.5,13.8-0.3,20.7-0.3
		c-4.1,9-9,17.6-12.6,26.8c-0.8,2-1.7,4.1-2.5,6.1c-8,0-16,0-24,0C327.5,772.1,322.3,761.5,316.8,751.1z"/>
	<path class="st6" d="M530,389.6c-1.6,0.1-2.7-0.3-2.5-1.4c0.3-1.3,1.2-0.4,1.7,0.1C529.5,388.6,529.7,389,530,389.6z"/>
	<path class="st13" d="M488.2,312.2c-1.4,7.6-3.7,14.9-7.6,21.7c-1.8,3.2-3.7,4.4-6.8,1.6c-0.4-0.3-1-0.4-1.6-0.5
		c-2.1-2.9-5.6-3.6-8.6-4.9c-2.8-1.3-5.2-3-4.9-6.5c0.2-2.4,1-4.1,3.9-4.7c5.8-1.1,11.7-0.5,17.5-1.5c1.9-0.3,3.9,0.1,5.8-1.6
		c-6.2-0.3-12,0.9-17.9,1.2c-0.4,0-0.8,0.3-1.2,0.3c-2.1-0.2-5.5,1.4-5.8-1.4c-0.3-3,3.2-1.6,5-1.8
		C473.4,312.9,480.8,311.9,488.2,312.2z"/>
	<path class="st13" d="M492.5,295.4c0.5,5.2-2.8,9.8-2.6,15c-8.7,0.3-17.4,1.1-26.1,2.5c-3.6,0.6-4.1-0.1-4.5-4.9
		c0.9-1,2.1-1.3,3.3-1.7C472.7,302.6,482.6,299,492.5,295.4z"/>
	<path class="st25" d="M506.8,309.6c3.8-1.6,7.8-0.7,11.6-0.7c4.3,0,8.7-0.9,12.9,0.6C523.2,309.6,515,309.6,506.8,309.6z"/>
	<path class="st52" d="M516.9,706.2c15.4-10.2,31.3-19.9,46-31.2c0.8-0.6,1.7-2.3,3.1-0.7c3,8.2,7.3,15.7,11.4,23.3
		c4.8,8.9,4.9,8.8,12.2,1.6c6.2-6.1,12.4-12.1,18.6-18.1c2.9-1.3,3.4,1.2,4.1,2.8c1.7,3.5,2.9,7.3,4.8,10.8
		c2.6,4.6,5.6,8.7,9.7,12.1c3.4,2.8,3.7,5.3,0.7,9c-2.7,3.4-6,6.3-9.1,9.3c-13.8,13.3-28.9,24.9-45,35.2c-2.5,1.6-2.5,3.3-1.3,5.7
		c4.5,8.4,8.3,17.2,12.3,25.9c0.7,1.5,1.4,3.1,1.6,4.7c-6.6,6.5-13.4,12.8-21.8,17.1c-3.9-0.1-5.7-3.5-7.8-5.9
		c-4.1-5-8.9-9.3-13.3-14c-2.9-3.1-5.6-6.3-8.5-9.3c-1.6-1.7-1-2.3,0.6-3.4c4.6-3.2,4.4-3.2,1.1-7.7c-4.2-5.7-10.3-9.8-13.9-16.1
		c-1.5-2.6-1.9-5.1-0.6-7.5c5.2-9.2,4.7-18.7,2.5-28.5c-0.6-2.6-1-5.2-1.6-7.8c-0.4-1.7-0.8-3.5-3.3-2.2
		C517.2,710.3,516.3,708.6,516.9,706.2z"/>
	<path class="st53" d="M586,796.4c-3.3-3.4-4.3-8-6.4-12.1c-3.2-6.3-6-12.7-9.2-19c-1.3-2.6-1.3-4.1,1.4-5.8
		c12-7.7,23.9-15.8,34.5-25.3c6.7-6,13.1-12.3,19.5-18.6c3.6-3.6,3.3-5.4-0.5-8.6c-6.9-6-10.8-13.9-13.9-22.2
		c-0.6-1.7-1-3.6-3.3-3.9c6.5-6.7,13-13.4,19.5-20c2-2,3.6-0.9,5.4,0.6c4.5,3.7,8.6,7.9,13.7,10.9c-1.3,11.1-4.4,21.9-7.4,32.7
		c-8.8,31.4-24.5,59.1-45.6,83.9C591.2,791.5,588.6,793.9,586,796.4z"/>
	<path class="st54" d="M516.9,706.2c0.9,1.7,1.8,3.4,2.6,5.2c-2.7,6.9-7.6,12.3-11.4,18.5c-0.5,0.8-1.2,1.5-1.3,2.6
		c-7.8,10.5-15.1,21.3-21.8,32.5c-2.5,4.2-5.1,8.3-7.6,12.4c-3.5-5.3-8.4-9.1-13.5-12.7c-1.4-1.2-2.7-2.4-4.1-3.6
		c-5.8-3.8-8-9.9-10-16c-0.8-2.5,0.9-4.2,3.3-4.3c3.7-0.1,5.8-2,7.8-4.8c3.1-4.4,6.7-8.3,11.9-10.3c8.3-3.7,16.8-7.2,25-11.1
		c1-0.5,2.1-0.9,3.2-0.7C506.7,712.3,511.2,708,516.9,706.2z"/>
	<path class="st55" d="M442.4,825.2c9.1-6.3,14.2-15.9,20.6-24.4c3.3,1,3,4.5,4.3,6.8c4.3,7.4,9,13.9,18,15.8
		c0.5,0.1,0.9,0.6,1.3,1.8C471.9,825.2,457.1,825.2,442.4,825.2z"/>
	<path class="st56" d="M500.9,713.9c-8.8,5.2-18.3,8.8-27.8,12.7c-2.4,0.7-4.8,1.7-6-1.7c3.6-6.5,7.7-12.6,11.4-19
		c2.4-4.3,7-7.4,10.5-11c2.3-2.4,5.7-4,4.8-8.5c-0.3-1.5,0.1-3.7,1.9-5.2c-2.4,1-3.9,0-5.9-1.1c-3.5-1.9-7.4-4-11.6-1.6
		c-1.3,0.7-2.5,1-4,0.3c-3.7-1.7-7.3-1.2-11,0.3c-6,2.4-12.4,3.6-18.6,5.1c-2.9,0.7-5.6,0.4-7.8-1.8c-5.5-5.4-10.9-10.9-15.2-17.3
		c0.1-5.6,0.1-11.3-0.5-16.9c-0.2-1.5,0-3.1,1.3-4.2c2.2-0.9,5-0.5,6.8-2.6c6.1-1,11.5-4.3,17.3-6.2c7.3-2.4,14.3-5.5,21.3-8.8
		c2.7-1.3,4.9-3.1,7-5.1c1-2,3-2.5,4.7-3.3c14.9-7.3,29.6-14.8,43.4-24.1c3-2,5.6-4.8,9.3-5.6c3-0.5,5-2.9,7.6-4.2
		c0.6,8.5,2.4,16.9,4.6,25.1c0.7,2.7,3.1,4.3,5.2,5.9c2.2,1.8,4.4,3.4,6.5,5.2c1.6,1.3,1.8,2.7-0.1,4.1c-10.5,7.9-20.8,16-31.8,23.2
		c-6.7,4.4-13.7,8.2-20.7,11.9c-6.5,3.4-5,3.9-4.5,9.1c0.9,9.5,1.6,19,1.1,28.5C499.8,702.8,501.5,708.3,500.9,713.9z"/>
	<path class="st57" d="M422.4,643.9c-0.5,5.1,1,10.2,0.9,15.3c-0.1,2.2-0.4,4.1-1.7,5.8c-6.8,6.9-11.1,15.4-16.1,23.6
		c-2.2-0.2-3-1.8-3.8-3.5c-4.5-9-9.7-17.6-15-26.1c-1.6-2.5-2.5-5.3-2.2-8.4c0.5,0,1.1-0.1,1.6-0.1c1-1,2.3-0.3,3.4-0.8
		c2.3,0.4,4.4-0.8,6.7-0.9c0.7-0.6,1.6-0.8,2.5-0.8c0.3,0,0.6,0,0.8-0.1c1-0.6,2.1-1.2,3.4-0.8c0.3,0,0.6,0,0.8,0
		c3.1-2.1,6.7-1.7,10.1-2.5C416.8,644.6,419.4,642,422.4,643.9z"/>
	<path class="st57" d="M391.3,713.2c-2.2-3.1-3.9-1.1-5.1,0.8c-1.2,1.8-2.3,3.3-4.1,4.6c-3,2.2-4.7,2.1-5.4-1.9
		c-0.3-1.8-1.1-3.5-3.5-3.6c-1.6-0.1-2.8,0.5-3.5,1.9c-0.4,0.7-0.4,1.6-0.5,2.4c-0.1,1-0.5,2-1.6,2.2c-0.6,0.1-1.4,0.1-2-0.3
		c-0.5-0.3-0.2-1,0.2-1.5c2.4-2.6,1-3.6-1.7-4.1c-0.9-0.2-1.3-0.9-1.6-1.8c-1.5-5.5-3.9-7.2-10.2-7.3c5.9-1.2,11.7-2.7,17.9-0.5
		c4.8,1.7,9.6-0.5,14.2-2.1c3.7-1.4,7.4-2.2,11.3-3c1.5-0.3,2.4,0.2,3.1,1.5C396.5,704.7,394.7,709.4,391.3,713.2z"/>
	<path class="st33" d="M467.2,724.9c1.7,1.5,3.8,1.8,6,1.7c-6,2.9-10.1,7.8-13.5,13.3c-1.1,1.8-2.6,1.8-4.3,1.8
		c-5.5,0.1-5.3,0.3-3.6,5.6c1.7,5.2,5.3,9.1,8,13.7c-4.7,1.8-6.7,1.4-8.6-2.8c-2.1-4.6-6.6-7.7-7-13.2c-0.2-2-3.2-1.9-4.6-3.4
		c-2.1-2.2-1.9-3.7,0.6-4.8c4-1.9,7.7-4.1,12.5-4.6C458.1,731.7,463.6,729.9,467.2,724.9z"/>
	<path class="st58" d="M532.2,588.1c-6.8,6-14.6,10.4-22.2,15c-11.3,6.8-23.2,12.6-35.2,17.9c-4.7-1-7.2-4.9-10-8.1
		c-5.4-6.1-11.2-11.8-16.9-17.6c-2.2-2.2-2.3-3.4,0.8-4.8c17.5-7.9,34.4-17,49.8-28.6c2.6-1.9,3.9-1.7,5.9,0.4
		C513.2,571.6,522.8,579.8,532.2,588.1z"/>
	<path class="st16" d="M133.6,324.3c-0.8,0-1.2-0.6-1.2-1.3c-0.1-0.6,0.2-1.1,0.8-1.2c0.8-0.2,1.3,0.2,1.4,0.9
		C134.6,323.4,134.3,324,133.6,324.3z"/>
	<path class="st42" d="M379.4,613.5c1.3,1.1,1.7,2.5,1.7,4.1c-0.3,9.1,1.5,18.1,0.8,27.1c-0.2,2.2,0.2,4.2,1.7,5.8
		c-2.7,1.6-3.2,0.3-3.4-2.3C379.5,636.7,379.3,625.1,379.4,613.5z"/>
	<path class="st42" d="M414,644.7c-3.2,1.7-6.7,2-10.1,2.5C406.6,643.6,410.4,644.4,414,644.7z"/>
	<path class="st42" d="M403,647.2c-1,0.7-2.1,1-3.4,0.8C400.5,646.7,401.5,645.6,403,647.2z"/>
	<path class="st42" d="M389.6,649.8c-0.9,1.1-2.2,0.8-3.4,0.8C387,648.8,388.2,648.9,389.6,649.8z"/>
	<path class="st42" d="M398.8,648.1c-0.7,0.9-1.6,0.9-2.5,0.8C396.9,647.9,397.5,646.6,398.8,648.1z"/>
</g>
</svg>
