<?xml version="1.0" encoding="utf-8"?>
<!-- Generator: Adobe Illustrator 27.4.0, SVG Export Plug-In . SVG Version: 6.00 Build 0)  -->
<svg version="1.1" id="Layer_1" xmlns="http://www.w3.org/2000/svg" xmlns:xlink="http://www.w3.org/1999/xlink" x="0px" y="0px"
	 viewBox="0 0 720 720" style="enable-background:new 0 0 720 720;" xml:space="preserve">
<style type="text/css">
	.st0{fill:#47454C;}
	.st1{fill:#7A7A68;}
	.st2{fill:#F5E9D3;}
	.st3{fill:#FDC47C;}
	.st4{fill:#7E9097;}
	.st5{fill:#ECD6B5;}
	.st6{fill:#F49893;}
	.st7{fill:#96CBBB;}
	.st8{fill:#F5AA9E;}
	.st9{fill:#CDB7BB;}
	.st10{fill:#F2AB98;}
	.st11{fill:#AAD1BD;}
	.st12{fill:#D1C3BE;}
	.st13{fill:#C199B1;}
	.st14{fill:#E5B399;}
	.st15{fill:#151220;}
	.st16{fill:#976779;}
	.st17{fill:#A36F7A;}
	.st18{fill:#57303B;}
	.st19{fill:#582B36;}
	.st20{fill:#F6EAD3;}
	.st21{fill:#E3C49E;}
	.st22{fill:#CC9A73;}
	.st23{fill:#FEDF90;}
	.st24{fill:#6BA5A1;}
	.st25{fill:#F5C6AD;}
	.st26{fill:#77BEAE;}
	.st27{fill:#F1DDC2;}
	.st28{fill:#8C9583;}
	.st29{fill:#C8946D;}
	.st30{fill:#F4B29C;}
	.st31{fill:#B35039;}
	.st32{fill:#DB9D83;}
	.st33{fill:#EBCFAE;}
	.st34{fill:#E4E6E3;}
	.st35{fill:#EAD7C4;}
	.st36{fill:#96BEB0;}
	.st37{fill:#FEE191;}
	.st38{fill:#E8C7A5;}
	.st39{fill:#F9DABA;}
	.st40{fill:#6CC2BB;}
	.st41{fill:#FFDA68;}
	.st42{fill:#E9CAA5;}
	.st43{fill:#2D2429;}
	.st44{fill:#261F23;}
	.st45{fill:#D7967E;}
</style>
<rect x="0" y="0" class="st0" width="720" height="720"/>
<path class="st1" d="M712.7,0c3.2,11.6,4.9,23.8,4.9,36.5c0,75.3-61.1,136.4-136.4,136.4s-136.4-61-136.4-136.4
	c0-12.6,1.7-24.9,4.9-36.5"/>
<g>
	<path class="st2" d="M352.9,153.6c11.9,0.6,23.9,1.1,35.8,1.7c4.1,0.2,8.1,0.9,12.2,1.3c6.2,0.7,12.1,0,18-2.6
		c6.3-2.8,13-4.6,19-8.1c9.3-3.1,17.4-8.5,26-13.1c5.1-2.8,10.1-5.6,15.3-8.1c4.6-2.2,6.3-1.3,7.4,3.6c1.7,7.6,3.4,15.2,4,22.9
		c0,0.6,0.4,1.2,0.7,1.7c2.1,2.8,1.6,6.1,2,9.2c1.9,14.8,3.2,29.6,5.6,44.3c0.6,3.9,2.1,7.4,4.1,10.7c4,6.6,7.9,13.2,11.9,19.8
		c7.3,13.1,15.2,25.8,22.4,39c1.2,2.2,1.8,4.5,2.7,6.7c10.9,20,21.4,40.1,31.1,60.7c2.4,5,4.6,10,6.9,15c0.5,0.7,0.7,1.4,0.4,2.3
		c-2.1,2.9-5.3,4.4-8.4,6c-8.4,4.2-16.6,8.8-25.1,12.6c-2.2,0.8-2.9,2.8-3.7,4.7c-2.2,6.2-4.4,12.3-7.5,18.2
		c-4.5,8.5-10.3,16-17.2,22.6c-1.1,1.1-2.2,2.3-4,2.1c-3.1-2.9-6.2-2.2-9.7-0.4c-4.3,2.2-8.8,4-13.8,4.5c-5.6,0.5-10.5-0.4-15-3.5
		c-1.7-1.1-3.4-1.9-5.4-0.9c-0.9,0.5-2.1,0.9-1.4,2.3c1,2.1,1.2,4-1,5.4c-2.5,1.7-5,3.5-8.2,2c-1.2-0.6-2.4-1.1-3.6-0.1
		c-2.9,2.2-5.8,1-9,0.8c-8.4-0.6-17.1-1.2-25,3.1c-2.7,1.4-5.7,2.8-8.6,3.1c-9.2,1-18.2,3.1-27.5,4c-4.9,0.5-6.2-0.7-6.4-5.6
		c-0.1-2.8-3-5.1-6.7-4.8c-6.2,0.5-12.3,1.1-18.4,2.1c-5.4,0.8-10.7,1.2-16.1,0.5c-12.7-1.6-25.6-1.6-38.4-2.4
		c-13.1-0.8-26-2.7-38.7-6.3c-5.2-1.5-10.5-2.4-15.6-4.3c-3.1-1.2-6.4-1.9-9.8-0.5c-2.2,0.9-3.7-0.2-4.8-2c-1.1-1.9-2-1.7-2.9,0.2
		c-1.2,2.5-3,2.2-5.5,1.7c-5.9-1.3-10.4-4.2-13.7-9.1c-0.6-0.8-1.4-1.8-2.4-1.9c-4.3-0.5-6.9-3.5-9.9-6.2c-4.5-3.9-7.7-3.5-12,0.8
		c-1.7,1.7-2.7,4.1-5.2,5c-2.2,0-3-1.7-4-3.2c-5.7-8.6-8.5-18.2-9.4-28.3c-0.3-3.4-1.7-4.8-4.9-5.8c-8.6-2.7-17.2-5.4-25.6-8.7
		c-1.8-0.7-3.7-1.2-5.1-2.7c-1.2-2.1-0.2-4,0.5-5.9c4.7-12.1,10.1-23.9,15.5-35.7c7.1-15.4,14.3-30.8,22.3-45.7
		c0.6-1,1.1-2.1,2.1-2.6c3.4-4.4,5.3-9.6,7.9-14.5c7.4-14.4,14.6-28.9,22.1-43.2c4.3-8.1,4.9-16.9,6.2-25.6c3-20.8,5.5-41.6,10.9-62
		c0-0.1,0-0.3,0.1-0.4c2.2-7.6,3.4-8,10.5-4.5c8.5,4.3,16.2,9.8,24.4,14.8c11.2,6.8,23.2,11.5,35.4,15.9c3,1.1,6.2,0.6,9.2,0.3
		C314.7,154.8,333.8,153.5,352.9,153.6z"/>
	<path class="st3" d="M108.3,424.2c0.2-1.4,0.9-2.8,0.1-4.2c0.2,6.6-2.5,12.5-4.7,18.5c0,0,0,0.1,0,0.1c0.2,0.8,0.3,1.5,0.4,2.3
		c0.2-0.8,0.5-1.6,0.8-2.3C105.8,433.7,107.4,429.1,108.3,424.2z"/>
	<path class="st3" d="M126.8,471.4c0.1-2.1-1.6-2.8-3-3.5c-2.3-1.1-4.7-2-7.2-2.7c-4.3-1.3-8.6-2.7-12.7-4.5
		c-0.3-0.1-0.6-0.3-0.8-0.4c-1.3,6-3.3,11.8-4.9,17.5c-3.3,11.6-0.9,25-6.6,35.9c0,0.4-0.1,0.7-0.1,1.2c0.2,3.9-1,7.8,0.4,11.6
		c5.6,3.9,11.9,5.6,18.6,6.1c1.3-0.9,1.7-2.2,1.8-3.7c1-11.2,4-22.2,4.7-33.5c0.3-4.3,0.8-8.5,4.6-11.4c0.9-0.7,1.8-2,1.5-3
		C121.9,476.9,124.3,474.2,126.8,471.4z"/>
	<path class="st4" d="M661.6,645.9c0,0.3,0,0.6,0,0.8c0.7-5.7,2.7-11.1,2.5-16.9c-0.2-5.8-1.7-11.5-2.5-17.2
		c-5.1-9.6-11.6-17.6-17.8-25.8c-3.7-4.8-8-9.5-7.4-16.4c0.2-2-1.3-2.4-2.8-1.1c-0.8,0.6-1.8,1-2.4,1.9c-1.6,6.7-4.4,13.2-4.7,20.2
		c1.3,14.5,8.3,25.7,19.6,34.5c2.6,2.1,5.4,4,8,6.1C658.5,635.6,662.4,639.5,661.6,645.9z"/>
	<path class="st5" d="M177.5,414.1c2.1-2.9,4.2-5.8,7.1-8.1c3.1-2.4,9-1.3,12.2,2.4c2.1,2.4,3.7,4.8,7.7,4.5c2-0.2,3.5,2.5,4.8,4.2
		c2.6,3.5,5.1,6.8,10.2,6.4c0.5,0,1,0.2,1.4,0.6c2.6,2.3,4.3,2.3,4.6-1.7c0.1-1.4,1.4-1.9,2.6-1.9c1.2-0.1,1.7,0.8,2,2
		c0.6,3.2,2.3,3.7,4.9,1.9c2.5-1.7,5.2-0.4,7.3,0.3c10.3,3.7,21.1,5.2,31.5,8.3c3.2,1,6.5,1.4,9.9,1.3c5.3-0.3,10.2,1.8,15.6,1.7
		c6.7-0.1,13.5,0.4,20.2,0.7c6.9,0.3,13.8,1.3,20.7,2c2.4,0.3,4.8,0.3,7.3-0.1c8.5-1.2,17-2.3,25.5-3.3c2.3-0.3,3,2.3,4.8,2.9
		c2.7,0.9,2.1,2.3,1.1,4.4c-1,2,1.4,4.2,3.9,3.8c8.5-1.3,17-3.2,25.6-3.6c4-0.2,6.6-4,10.6-2.6c0.1,0,0.3-0.1,0.3-0.2
		c4-5.5,9.8-3.2,15-3.7c1.6-0.1,3.3-0.7,4.9-1c2.5-0.4,5.3-0.9,7.5,0.7c2.6,2,4.7,1.3,6.9-0.6c1.6-1.4,3.2-2.9,4.9,0.1
		c0.8,1.4,2.2,0.5,3.2,0.2c1.7-0.6,3.2-1.6,4.7-2.5c1.2-0.8,1.2-1.7,0.1-2.8c-2.4-2.4-1.7-3.7,1.5-4.7c2.4-0.8,4-1.1,6.4,0.8
		c6.6,5.1,14.2,4.7,21.7,1.8c3.2-1.2,6.5-2.5,9.5-4.2c2.8-1.5,4.8-1.5,6.2,1.6c0.2,0.4,0.8,0.7,1.2,1c0.3,0.3,0.3,0.6,0.2,1
		c-1,1.6-2.7,2.4-3.8,3.8c-7.2,5.5-14.4,11-23.2,13.8c-1.2,0.4-2.4,0.9-3.7,0.5c-2.6-1.3-5.3-2-8.2-1c-2.6,0.9-3.9-0.3-4.3-2.8
		c-0.1-0.5-0.2-1-0.3-1.5c-0.8-3.4-1.5-3.7-4.1-1.1c-3.1,3.1-6.7,5.6-9.9,8.5c-4.7,4.4-10.5,3.3-16.1,3.6c-0.5,0-1-0.2-1.4-0.5
		c-6.2-4.1-11.1-4-16.9,0.3c-1.2,0.9-2.6,1-4,1.1c-4,0.2-7.9,0.4-11.9,1.1c-1.9,0.3-3.4,1.2-4,3.1c-1.1,3.7-3.9,4.3-7.2,4.5
		c-9.1,0.6-18.2,0.7-27.3,1c-1.9,0.1-3.8,0.6-5.6,1.4c-2.4,1.1-3.9,2.8-4.2,5.5c-0.2,1.7-0.5,3.3-1.9,4.5c-0.8,0.4-1.6,0.4-2.4-0.1
		c-2.2-3.2-1.8-6.8-2-10.4c-0.3-7.1-0.3-7.1-7.2-7.2c-3.5,0-7,0.2-10.4-0.1c-3.3-0.2-6.4-0.1-8.9,2.6c-1.1,1.2-2.8,1.2-4.4,0.9
		c-9.3-1.8-18.8-2.6-27.5-6.8c-1-0.5-2.2-1.1-3.3-0.9c-9.2,1.3-18.4-1-27.6,0.7c-4.1,0.7-8.4-0.8-12.5-1.7c-7-1.7-14.1-2.8-21.3-3.2
		c-1.3-0.1-2.6-0.1-3.7-0.8c-6.8-4-14.5-6.8-20-12.9c-3.5-3.9-7.9-4.4-12.7-4c-6.1-2.2-9.2-7.7-13.2-12.2
		C177.2,416.3,176.5,415.3,177.5,414.1z"/>
	<path class="st6" d="M177.5,414.1c3.2,6,8.2,10.3,13.1,14.7c2.2,0.6,3.7,1.9,4.6,4c0.4,3.3,0.4,6.3-2.4,9.2
		c-2.6,2.8-0.4,11.8,2.8,14.1c1.7,1.2,3.3,2.4,5.2,3.3c3.3,1.6,5.6,1,7.7-1.9c2.6-3.7,3-3.6,6.2-0.4c3.2,3.2,7.1,5.8,11.2,8
		c1.7,0.9,4.2,1.5,2.3,4.4c-3.6,1.5-7-0.2-10.4-0.8c-2.4-0.4-4.6-1.4-7-1.8c-7.3-1.9-14.6-3.4-21.8-5.5c-4.3-1.2-8.6-2.5-12.8-4.2
		c-19.8-8.2-40.8-11.9-61.7-15.9c-3.5-0.7-7.2-0.3-10.3-2.6c0-5.8,2.6-11,3.4-16.7c0.1-0.9,0.3-1.7,0.5-2.6c2.7-5.5,4-11.6,5.9-17.4
		c3.7-11.6,8.3-22.8,12.7-34.2c0.4-1.1,1.2-1.9,2.3-2.5c11.3,4.2,22.7,8.2,34.2,11.6c1.7,0.5,2.1,1.6,2.1,3.1
		c0.5,11.4,3.7,21.9,9.9,31.5C175.8,412.6,176.4,413.6,177.5,414.1z"/>
	<path class="st7" d="M404.2,325.7c5.7-2,11.2-3.5,17-3.8c8.6-0.4,17.1-1.8,25.6-2.7c5.3-0.6,10.7-1.1,16-1.7
		c11.5-1.3,23-2.1,34.6-1.6c10.2,0.4,20.5,1.2,30.7,2.3c3.8,0.4,7.7-0.3,11.5,0.6c2.2,0.5,3,1.4,3.5,3.7c1.3,5.9,1.4,12,2,17.9
		c0.4,3.5-0.4,7.1-0.7,10.7c-0.3,3.4-1.5,4.9-5.5,5.4c-12,1.3-23.4,5.7-35.2,7.7c-5.9,1-11.9,1.9-17.8,2.7c-3.2,0.5-6-0.5-8.8-2.1
		c-17.9-10.8-36-21.4-54.7-30.7C416.4,331.2,410.3,328.5,404.2,325.7z"/>
	<path class="st8" d="M577.7,360.8c1,1.3,2.1,2.6,3.1,4c2.1,1.2,2.6,3.4,3.5,5.4c8.9,20.6,16.7,41.7,22.3,63.5
		c0.4,3.1,2.4,6.2,0.9,9.5c-3.5,3.3-8.1,2.7-12.4,3.2c-8.4,1-16.9,1.3-25.3,2c-8.6,0.7-16.4,4.1-24.5,6.3c-2,0.5-3.9,1.3-6,0.2
		c-1.6-4.5,0.7-10.3,4.8-12.4c7.1-3.6,7.3-3.6,6-11.3c-1.3-7.7-0.3-15.6-2.7-23.2c-0.3-0.8-0.1-1.8,0-2.7c1.5-8.2-0.5-16-2.7-23.8
		c-0.3-1-0.7-2-0.1-3c6.3-3.2,12.5-6.5,18.8-9.6C568.2,366.4,573,363.7,577.7,360.8z"/>
	<path class="st9" d="M472.5,222.7c1.7-1.5,2.6-2.5,3.6-3.1c1.6-0.9,2.2-2.1,1.8-3.8c-0.5-2.1-2.3-1.6-3.8-1.8
		c-2.4-0.2-4.6,0.6-6.9,0.7c-1,0.1-2.2,0.5-2.8-0.7c-0.6-1.2,0.5-1.8,1.1-2.6c0.8-1.1,2.3-1.7,2.6-3.5c-7,0.6-13.3,3.6-20.1,5.8
		c3.2-7.7,8.3-13.8,11.6-20.9c1-2.2,2.8-4.8,0.9-6.7c-1.8-1.9-4.6-0.5-6.8,0.6c-9.3,4.6-18.2,9.9-26.7,16.1c-1,0.7-1.9,1.7-4,0.9
		c3.2-2.9,6.4-5.7,9.5-8.7c1.7-1.7,3.2-3.7,4.8-5.5c0.6-0.7,1.4-1.3,1-2.3c-0.5-1.3-1.7-0.8-2.7-0.9c-2.3-0.3-4.6,0.4-6.8,0.8
		c-0.7,0.1-1.5,0.9-2.1,0.1c-0.6-0.7-0.1-1.4,0.2-2.1c0.7-2,3.1-4.5,1.1-5.9c-2-1.4-3.9,1.4-5.6,2.9c-4.1,3.4-8.1,6.9-12.3,10.1
		c1.7-3.7,4.4-6.6,7.1-9.4c8.1-8.3,16.2-16.6,24.6-24.6c8.8-8.4,18.1-16.3,28.2-23.1c1.5-1,3-1.9,4.7-2.7c3.8-1.9,6.2-1.1,8.2,2.8
		c2.6,5,2.9,10.6,3.7,16c1.8,12.9,2.5,26,3.2,39c0.5,8.6,1.3,17.1,2,25.6c0.1,0.8,0.3,1.7-0.7,1.9
		C485.2,219.3,479.3,220.8,472.5,222.7z"/>
	<path class="st10" d="M544.5,378.5c3.8,8.6,5.8,17.4,4,26.8c-0.7,3.7,1.1,7.1,1.7,10.6c0.9,5.3-0.6,10.8,1.3,15.9
		c0.2,0.5,0,1,0.1,1.5c1.1,7.3,1.2,7.6-5.7,9.7c-3.6,1.1-4.7,3.3-5.3,6.5c-0.3,1.6-0.8,3.2-1.3,4.8c-0.4,2.2-2.3,2.2-3.9,2.5
		c-11,2.2-21.9,4.7-32.7,7.8c-7.6,2.2-15.5,2.2-23.3,3.2c-2.7-0.5-5.2,0.4-7.9,0.5c-1.6,0-3.3-0.1-4.7-1.1c-1.1-2.7,1.5-2.6,2.6-3.2
		c7.4-3.7,13.2-9.1,18.2-15.7c0.4-0.5,0.9-0.9,0.6-2c-2.7,1-4.8,2.8-7.2,4.2c-2.7,1.5-4.9,1.4-6.2-1.8c2-2.6,4.7-3.7,8-3.6
		c10-2.6,18-8.9,26.3-14.7c1.1-0.6,2.2,0.2,3.4,0.1c1.1-0.1,2.2-0.5,2.3-1.6c0.2-1.1-1.4-0.8-1.8-1.6c0-0.3,0-0.5,0-0.8
		c11.4-9.6,19.3-21.6,24.6-35.5c1.2-3.2,2.3-6.5,3.4-9.7C541.5,379.6,542.5,378.4,544.5,378.5z"/>
	<path class="st11" d="M164.4,335c-0.6-8.9,1.8-17.3,4.1-25.7c0.7-2.5,2.2-3.7,4.5-4c12.1-1.4,24.1-3.7,36.3-3.2
		c8.8,0.4,17.2,2.3,25.5,5.1c9.9,3.3,19.8,6.4,29.2,11c0.7,0.3,1.7,0.3,1.8,1.2c0.1,1-0.9,1-1.6,1.2c-18.3,4.7-36.2,10.5-54.6,14.8
		c-8.1,1.9-16.5,3.1-24.2,6.4c-5.6,2.4-11.7,3.3-17.1,6.1c-2,1-2.7-0.1-3.3-1.8C163.8,342.4,164.7,338.7,164.4,335z"/>
	<path class="st12" d="M272.5,172.2c6,4.5,9.4,11.1,13.3,17.2c1.6,2.6,3.2,5.2,5.4,8.7c-12.4-5.1-22.7-11.9-34-18.2
		c0.5,6.6,3.7,11.5,6.3,16.5c2.7,5,5.9,9.7,9.3,15.4c-4.6-2.2-7.3-5.3-10.4-7.7c-2.6-2-4.7-2.5-7.9-0.9c-5,2.5-10.7,2.3-16.2,2.4
		c-1.3,0-3.2-0.8-3.8,0.7c-0.5,1.3,1.3,2,2.1,3c0.5,0.7,1.5,1.1,1.4,2.2c-2.9,0.5-6.3-3.7-8.7,0.1c-1.7,2.7-1.7,6.1,1,9.8
		c-4.9-1.2-9-1.2-13-1.2c-2.9,0-5.3,0.5-7.3,2.8c-0.6,0.6-1.1,1.7-2.1,1.3c-1.2-0.5-0.9-1.7-0.9-2.7c0.5-6,0.9-12,1.6-18
		c0.7-6.5,1.5-12.9,2.4-19.4c0.1-0.6,0.5-1.2,0.7-1.8c1.3-1.4,3.1-1.8,4.9-2c13.3-1.9,26.6-4.1,39.9-5.5c4-0.4,7.8-1.3,11.7-2.3
		C269.5,172.1,271,171.6,272.5,172.2z"/>
	<path class="st13" d="M272.5,172.2c-7,3.2-14.6,3.6-22,4.6c-12.2,1.7-24.5,3.2-36.7,5.3c-0.8,0.1-1.5,0.1-2.3,0.1
		c0.2-7.3,1.5-14.5,2.5-21.7c0.8-6.2,1.9-12.4,3.6-18.4c0.4-1.2,0.7-2.5,1.1-3.7c2.8-8,6.1-9.1,13.2-4.3c10.4,7,19.4,15.6,28.1,24.5
		C264.3,163.1,269.3,166.8,272.5,172.2z"/>
	<path class="st14" d="M356.9,326.1c-1.1,2-2.1,4.1-3.8,5.8c-1.3,1.2-1.7,2.8-1.7,4.6c0.1,3.7,0,7.5,0,11.2c0,3.4,1.9,6,4.1,8.4
		c8.7,9.7,19.4,15.8,32.3,18c3.3,0.5,4.7,3.5,7.2,5c0.9,0.6,0.5,2.4-0.2,3.6c-0.8,1.7-2.4,1.5-3.7,1.2c-4.9-1-9.6-2.6-14.3-4.5
		c-6.2-2.5-12.4-5.2-18-8.8c-6-3.9-11-2.2-16.5,0.5c-10.5,5.1-20.7,10.9-32.6,12.4c-1,0.1-2,0.3-3,0.4c-0.9,0-1.8-0.2-2.2-1.2
		c-0.3-0.9,0.4-1.4,0.9-2c2.9-3,6.2-5.5,10.1-6.8c10.5-3.6,19.7-9.3,28.2-16.2c6.5-5.3,8.3-18.3,3.7-25.4c-1.5-2.4-3.1-4.7-4.6-7.1
		c0.3-0.4,0.5-0.9,0.7-1.3c0.7-1.2,1-2.4,0-3.5c-1.1-1.2-2.3-0.4-3.4,0.2c-0.7,0.5-1.7,0.7-2,1.6c-2.7,1.1-4.9,0-6-2.4
		c-1.1-2.2-0.2-4.3,1.9-5.7c10.3-6.7,21.3-7.2,31.6-0.3c1.9,1.3,3.3,3.2,2.2,5.6c-1.1,2.4-3.2,3.5-5.9,2.6c-1.6-1.1-2.8-3.7-5-2.3
		C354.5,321.5,356.6,324,356.9,326.1z"/>
	<path class="st15" d="M258.1,293.4c-3.2-5.3-4-11.1-2.9-17c0.5-2.9-0.3-3.9-2.7-4.7c-2.6-0.9-5.1-2.1-8.5-3.5
		c8.4-0.2,15.4,2.1,22.4,4.1c3.9,1.1,7.8,2.4,11.7,3.6c8.1,2.5,16.1,2.7,24.2,0.2c2.7-0.8,3.5-0.1,3.6,2.7
		c0.2,12.7-6.4,22.8-18,27.1c-1.7,0.6-3.4,1.1-5.3,0.8c-1.3-2.2-3.2-3.3-5.8-3.8c-6.1-1.3-10.1-5.7-13.8-10.3
		c-0.8-1-1.2-2.2-2.2-2.9C259.2,290.5,260.4,293.2,258.1,293.4z"/>
	<path class="st15" d="M394.7,290.5c-1.8-4-1.8-8.2-1.4-12.4c0.1-1.4,0.6-2.9,2.6-2.1c10.9,3.8,21.3,1.7,31.8-2.1
		c7.8-2.8,15.8-5.2,25.2-5c-3.5,1.5-6.2,2.7-8.8,3.8c-1.8,0.7-2.2,1.7-2,3.8c1.6,14.3-7.2,26.6-21.1,30c-1.8,0.4-3.6,0.3-5.3,0.3
		c-0.2-2.6-1.5-3.8-4-4.7c-6.5-2.3-10.5-7.4-13.5-13.5C397.1,289.3,396.6,291.1,394.7,290.5z"/>
	<path class="st16" d="M258.1,293.4c1.1-2.1,0.8-4.7,2.5-7.2c2.3,4,4.6,7.6,7.8,10.6c3,2.8,6.3,4.8,10.3,5.3c2.8,0.3,4.5,1.4,4,4.6
		C271.5,307.7,263.4,303.1,258.1,293.4z"/>
	<path class="st17" d="M394.7,290.5c1.1-1,2.2-2.1,3.6-3.4c1.2,1.9,2.4,3.7,3.6,5.6c2.8,4.2,6.4,7.4,11.3,8.7
		c3.4,0.9,3.9,2.5,2.4,5.3C406.2,306.9,397.5,300.2,394.7,290.5z"/>
	<path class="st18" d="M356.9,326.1c-0.3-0.2-0.7-0.3-1-0.6c-1.6-1.9-1.8-3.9-0.6-6c0.6-1.1,1.4-2,2.8-1.5c2,0.7,3.9,1.6,4,4.2
		C358.9,321.5,358.5,324.6,356.9,326.1z"/>
	<path class="st19" d="M338.3,322.3c0.2-3,2.6-3.7,4.8-3.9c2-0.2,2.1,1.9,2.5,3.3c0.6,2.2-0.5,3.4-2.7,3.6
		C341.6,324,340.9,321.6,338.3,322.3z"/>
	<path class="st20" d="M478.9,466.7c14.1-0.8,27.7-4.3,41.3-8c6.3-1.7,12.8-2.1,19-4.4c4.4-0.1,8.7-1.4,12.6-3.1
		c7.6-3.2,15.5-4,23.5-4.7c9.1-0.8,18.3-1.5,27.4-2.4c1.5-0.1,2.9-0.9,4.4-1.4c1.7,0.4,1.8,1.9,2.2,3.2c1,3.2,1.6,6.6,2.6,9.8
		c0.3,1.2,0.4,2.4,0.3,3.7c-0.2,1.8-1,3-2.9,3.6c-13.7,3.8-26.4,9.9-39.4,15.5c-5.1,2.2-10.5,3.4-15.5,5.9c-1.4,0.7-2.9,0.3-3.8-1
		c-1.7-2.6-3.7-2.1-6-1.1c-15.1,6.1-29.9,13.1-43.8,21.7c-18.3,11.1-35.2,23.9-49.8,41c19.6,0.2,38.4,0,57.3,0.1
		c5.9-0.9,11.8,0.5,17.7,0.5c6,0,12.1,0,18.1,0c1.4,0,2.8,0,4.2,0.6c2.4,2.5-0.5,3.1-1.7,3.7c-4.8,2.6-9.7,4.8-14.4,7.4
		c-19.8,10.5-38.9,22.1-56.4,36.3c-2.4,1.9-4.6,4.1-7.3,7.1c5.5,0,10.3,0.2,15.1-0.3c6.9-0.7,13.9-0.6,20.8,0
		c7.7,0.7,15.4,0.2,23.1,1c7.5,0.8,15.1,1.3,22.6,2.3c1,0.1,2,0.3,2.9,1c1,1.5,0.3,3,0,4.5c-1.9,11-6.6,21.1-11.1,31.1
		c-1.2,2.7-3.4,3.8-6.2,3.7c-10.8-0.3-21.6,0.6-32.3,1.6c-17.4,1.6-34.8,3.8-52,7.2c-2.3,0.5-5.7,0.5-6.2,3.1
		c-0.4,2.2,2.8,2.9,4.5,4.2c3.6,2.7,6.5,5.4,4.5,10.6c-0.9,2.4,0.4,4.7,2.3,6.6c12.7,12.7,25.2,25.7,39.6,36.6
		c1.4,1.1,2.6,2.5,3.9,3.7c2.7,2.3,3.9,5,3,8.5c-0.2,2.1-1.2,3.9-2.3,5.6c-4.6,7.4-8.4,15.3-11.7,23.4c-3.9,8.4-6.9,17.3-12.7,24.8
		c-0.8,1-1.1,2.4-2.5,2.7c-0.4,0.6-0.9,1.1-1.3,1.7c-4.9,4.6-10.7,7.3-17.2,8.8c-4,1-4.4,0.4-3.5-3.5c0.6-2.8,1.8-5.5,1.2-9.2
		c-2.1,3.6-3,6.9-3.7,10.2c-0.7,2.9-2.1,4.1-4.9,4.1c-4.1,0.1-8.2,0.2-12.3,0.2c-2.2,0-3.8-0.5-2.7-3.6c1.1-3.3,1.8-6.8,1.2-11.2
		c-2.1,3.4-2.4,6.5-3.1,9.5c-0.9,4.2-1.7,4.7-5.9,3.5c-2.3-0.6-4.7-1.3-7-2.1c-2.2-0.7-3.4-1.7-2.6-4.5c0.6-2,1.4-4.5-0.6-6.5
		c-2.1,0.7-2.7-0.9-3.3-2.2c-0.7-1.5-1.1-3.2-2.1-4.6c-6.6-9.4-6.9-19.2-3.3-30c4.9-14.7,6.3-30.2,9.4-45.3c1.8-9.1,4.2-18,7.5-26.7
		c0.5-1.2,0.9-2.4,1.4-3.6c2.4-6.2,2.2-6.7-2.8-11.2c-0.7-0.6-1.5-1.2-1.8-2c-1.6-4-5.1-5.6-8.8-7c-5-1.9-6.2-1.6-9.2,3.1
		c-4.1,6.4-6.3,13.5-8.2,20.7c-2.1,8.1-3,16.4-3.9,24.7c-0.3,2.5-1.3,4.7-3,6.5c-2.6,2.6-5.5,3-8.8,1.6c-4.5-1.9-9.1-2.5-14-1.5
		c-3.1,0.6-6.1-0.3-9.1-0.8c-7-1.1-13.1-3.4-17.7-9.2c-1.9-2.4-5-2.8-8.1-3c-5.5-0.4-6.5-1.3-7.9-6.7c-1.2-4.5-2.7-8.9-3.9-13.3
		c-0.7-2.4-1.6-4.6-3.4-6.4c-1.4-1.3-2-2.9-2.1-4.8c0-0.9-0.1-1.8-0.2-2.7c-1-6.2-3.6-8.4-9.8-8.4c-1.2,0-2.3,0.2-3.5,0.3
		c-4.5,0.4-5.5-0.7-4.8-5.2c0.1-0.9,0.3-1.8,0.2-2.7c-0.2-1.3-0.5-2.6-1.8-3.2c-1.3-0.5-2.2,0.4-3.1,1.2c-2.9,2.6-5.3,5.6-8,8.4
		c-1.5,1.5-1.3,3.5-0.7,5.5c0.8,2.3,1.7,4.6,2.5,6.9c1.4,4.1-0.2,6-4.5,5.2c-4.9-0.9-9.8-2-14.8-2.8c-22.3-3.8-44.8-6.7-67.3-8.8
		c-3.2-0.3-6.4-0.2-9.6-0.1c-3.6,0.1-6-1.3-7.8-4.5c-3-5.3-5.6-10.7-7.5-16.5c-2.1-6.4-4.2-12.7-6.4-19c-0.5-1.5-1.1-2.9-0.5-4.5
		c1-1.9,2.9-1.8,4.7-2.2c23-4.4,46.2-4.9,69.5-4.5c1.5,0,3.1,0.2,5.1-0.3c-3.1-3.5-6.2-6.6-9.7-9.3c-20.4-15.9-42.9-28.3-65.8-40
		c-1.9-1-4.7-1.2-4.8-4.2c1.8-1.5,3.9-1.1,5.9-1.1c15.8,0,31.6-0.2,47.5,0c10.8,0.2,21.6-1.2,32.4-0.9c0.9,0,1.8,0.2,2.5-0.7
		c0-1.3-1-2-1.7-2.9c-15-16.5-32.8-29.6-52.1-40.7c-6.5-3.7-13-7.4-19.6-10.8c-1.3-0.6-2.5-1.4-3-2.9c-0.3-1.7,0.7-2.7,2-3.3
		c2.1-1,1.8-2.5,1-4.2c-1.6-3.3-4.2-5.8-7.2-7.9c-3.5-2.4-4.9-5.9-4.9-10c0-3.5,1-4.9,4.6-4.7c6.4,0.3,12.8,1.1,18.7,3.8
		c1.4,0.7,2.3,0.7,3.3-0.4c7.2,1.8,14.4,3.6,21.6,5.4c5,5.7,11.3,9.6,17.6,13.5c3.8,2.3,7.6,4.4,11.8,5.5c1.1,0.3,2.3,0.7,3,1.6
		c4.1,4.8,9.8,7.5,14.9,10.9c5,3.4,10.8,5.2,17.2,3.4c5.6-1.5,11.2-1.3,16.7,0.2c3.8,1.1,7.6,2,11.7,2c3.7,0,7.1,2,10.5,3.7
		c4.1,2.1,8.4,4.1,13.3,2.7c1.1-0.3,2.3,0.2,3.4,0.5c3,0.8,5.9,1.8,8.9,2.4c6.8,1.4,8.4,0.4,10-6.3c0.8-3.6,2.4-6.8,4.3-9.9
		c2.3-3.7,6.6-3.4,10.2-3c3.9,0.4,7.3,0.4,10.5-2.2c2.3-1.8,4.4-0.5,5.4,1.6c2.5,5.1,6.6,5,11.6,5.1c6.8,0.1,13.5-0.2,20.3-1.1
		c4.3-0.6,8.5,1.9,12.9,1.5c3.4-0.3,6.6-0.8,9.6-2.5c2.7-1.5,3.2-3.5,1.4-6c-1.8-2.5-3.9-4.8-5.9-7.1c-1.2-1.3-2.8-3-1.4-4.7
		c1.5-1.9,3.3-0.3,4.7,0.8c4.8,3.6,10.7,4.3,16,6.4c1.8,0.7,2.9,0.2,3-2c0-2.4,1.5-3.7,3.6-4.5c1.9-0.7,3.8-1.6,5.5-2.8
		C466.7,471.4,471.7,466.9,478.9,466.7z"/>
	<path class="st21" d="M420.9,671.4c-4.8,13.7-7.8,27.7-10.1,42c-1.6,10.2-3,20.5-6.7,30.3c-3.8,10.1-3.3,19.4,2.9,28.3
		c1.1,1.6,2.1,3.5,2.4,5.6c0.1,1.2,0.8,2.1,2.2,2.4c-0.4,1.3-1,2.6-1.3,4c-1.2,4.6-1.8,4.8-5.7,1.9c-1.7-1.3-3.4-2.7-5.1-4.1
		c-5.5-3.8-6.1-9.6-5.6-15.5c0.4-4.6,1.8-9,4-13.2c2.9-5.2,3.2-11.1,1.7-16.5c-1.7-6-1-11.7-0.5-17.6c0.1-1.7,1.1-4.4-0.8-4.8
		c-2-0.5-2.2,2.3-2.8,3.9c-0.9,2.3-1.8,4.6-2.6,6.9c-0.6,1.9-1.8,3.4-3.6,4.3c-2.2,1-3.8,2.7-4.8,4.8c-5.6,11.1-17.7,12.6-26.4,11.6
		c-5.2-0.6-10.4-1.1-15.7-1.3c-7.4-0.4-14.4-2.6-19.8-8.1c-1.1-1.1-2.4-2-3.6-2.9c-2.9-2.2-5.5-4.7-6.9-8.1
		c-0.7-1.6-1.6-2.9-3.2-3.8c-1.2-0.7-2.1-1.5-1.9-3c0.2-1.3-0.4-2-1.7-1.8c-1.2,0.2-2.2,0.8-2.2,2.2c0,1.3,0.5,2.5,0.6,3.8
		c0.3,2.6,1.1,5.4-0.7,7.8c-2.7-0.5-2.5-3-3-4.8c-3.6-13.5-7-27.1-11.6-40.4c-1.6-4.6-3.7-9-5.4-13.6c-0.7-1.9-1.3-3.9-1.2-6
		c0.2-2.9,2.3-4.1,4.6-5.2c2-1,3.7-0.4,5.3,1c0.8,0.7,1.7,1.3,2.1,2.2c2.3,5,5.7,6.7,11,4.3c1.8-0.8,3.5,0.2,4.5,2
		c3.5,5.9,6.7,11.7,7.9,18.6c0.9,5.6,3.1,10.8,10.1,11.2c0.9,0.1,1.9,0.3,2.6,0.8c6.9,5.6,14.8,3.8,22.6,3.3c4.5-0.3,9-0.3,13.5-0.2
		c1.3,0,3,0.3,3.2,1.6c0.5,2.5,1.4,3.9,4.2,3.8c3-0.1,6.3,0.7,8.2-2.8c2.3-4.2,5.1-7.9,10-9.5c1.9-0.6,2.7-2.6,3.4-4.5
		c1.4-3.8,2.2-7.6,2.9-11.6c0.9-4.9,3.1-6.8,8-7.3c1.6-0.1,2.8,0.2,3.7,1.4c1.9,2.6,3,1.5,3.9-0.8c0.7-1.8,1.9-3,3.6-3.8
		C418.6,669.2,420.1,669.2,420.9,671.4z"/>
	<path class="st22" d="M302.7,730.1c0.1-3.7,0.1-7.5-1.2-11c-0.9-2.5,0.9-3.1,2.6-3.9c1.9-0.9,3.5,0.1,5,1c0.2,0.1,0.3,0.6,0.2,0.7
		c-4.3,3.5,0.8,3.1,1.8,4.3c2.1,2.6,2.6,6,5.2,8.4c7.1,6.4,14.3,12.4,24.4,13.9c1.9,0.3,3.3-0.7,5.2-0.5c4.6,0.6,9.1,1.5,13.6,1.8
		c7.6,0.5,15.3-1,21.1-6.7c1.8-1.7,2.7-4.3,3.9-6.5c0.4-0.9,0.9-1.7,1.8-1.9c5.6-1.8,6.3-7,7.7-11.4c0.9-2.8,2.2-5.1,4.5-7
		c3.8,4,1.6,8.7,1.2,13c-0.4,3.8-0.1,7.2,0.8,10.9c1.5,6.1,1.6,12.4-1.3,18.2c-3.3,6.4-5.2,12.9-3.8,20.3c0.6,3.3,3.2,5.2,4.1,8.2
		c-14.5,1.2-28.9,2.9-43.4,3c-3.9,0-1.7,3.3-3,4.8c-0.1-0.9-0.2-1.8-0.2-2.7c0.1-2-0.7-2.7-2.7-2.7c-10.5-0.1-21,0.4-31.4-0.3
		c-2.1-0.1-3.5,1.8-5.3,2.9c-1.8,1.1-3,3.3-5.6,2.8c-1.2-2.2-1.3-4.7-1.5-7.1c-0.1-1.5-1.7-4.4,2.5-4.2c0.8,0,3.7-2.9,4.4-5.3
		c0.1-0.2,0.1-0.5,0.3-0.7c4.4-7.2,2.6-13.4-2.4-19.5c-4.5-5.4-6.7-12.1-8.8-18.7C302,732.8,301.5,731.4,302.7,730.1z"/>
	<path class="st23" d="M172.1,486.7c4.4,3.5,9.7,5.7,14.6,8.3c22.7,12.3,43.6,26.9,61.1,46.1c0.2,0.2,0.4,0.4,0.5,0.6
		c0.9,1.2,2.6,2.5,2,3.8c-0.5,1.4-2.5,0.6-3.9,0.7c-28.9,1-57.8,0.9-86.7,0.7c-1,0.7-2,0.4-3,0.1c-14.7-4.5-29.8-7.5-44.3-12.8
		c-1.1-0.3-2-0.8-2.2-2c2-6.2,1.5-12.9,3.1-19.2c1.8-7.5,2.1-15.2,3.1-22.7c0.4-2.6,1.1-4.9,3.8-6.3c1.4-0.7,2.8-2.4,2-3.8
		c-3-5.3,1.2-6.7,4.3-8.9c1.6-1.3,3.2-0.3,4.7,0.2c3.6,1.1,7.1,2.5,10.4,4c8.7,3.9,18.8,3.4,26.9,8.9
		C169.8,485.2,171.1,485.6,172.1,486.7z"/>
	<path class="st24" d="M110.3,532.2c0.8,0.4,1.6,0.7,2.3,1.1c1.8,2.6,1,5.7,1.8,8.6c0.6,2.1,1.5,3.4,3.5,4.2c2.5,1,4.9,2.3,7.6,2.8
		c5.7,1.3,7.8,5.2,8.4,10.5c0.9,7.9,1.8,15.8,3.1,23.7c1.3,8.1,2.1,16.3,3.9,24.3c0.2,0.8,0.2,1.5,0,2.3c-0.8,1.7-2.4,1.8-3.9,2.1
		c-10.6,1.9-21.1,4.2-31.6,6.7c-1.5,0.4-3,0.7-4.4-0.4c-2.7-7.5-3.3-15.4-4.5-23.2c-3.5-22.5-4.6-45.1-3.9-67.8
		C98.5,528.8,104.4,530.5,110.3,532.2z"/>
	<path class="st25" d="M172.1,486.7c-3.2-0.2-5.8-2.1-8.4-3.5c-4.6-2.6-9.8-2.3-14.5-3.8c-7.6-2.4-15.1-5.4-22.6-8.1
		c-2.5-2.9-6.1-3.4-9.4-4.6c-4.9-1.8-9.9-3.5-14.8-5.2c-2.3-0.8-3-2-2.3-4.7c1.2-4.8,1.8-9.7,2.6-14.6c0.2-1.3,0.5-2.5,1.6-3.4
		c8.8,0.6,17.4,2.7,26.1,4.3c8.7,1.6,17.1,4.4,25.8,6c9,1.7,16.9,6.4,25.6,8.8c2.6,0.7,5.1,1.7,7.6,2.6c0,1.4-0.5,2.7-1.4,4.3
		c-1.3-3-3.7-4.3-6.6-4.5c-5-0.4-9.6-2.3-14.7-2.2c-2.2,0.1-2.9,0.8-2.9,3c0.1,3.9,0.7,7.3,4.4,9.6c3.8,2.3,6.7,5.5,8.3,9.7
		c0.8,2,1.7,4-1.8,4.3C173.3,484.7,172.3,485.4,172.1,486.7z"/>
	<path class="st26" d="M662.8,641.8c0-1.3-0.2-2.5-1.1-3.6c-2.9-3.6-6.1-6.8-10-9.5c-9.4-6.5-17.5-14.3-21.4-25.5
		c-1.1-3.1-1.7-6.3-2.5-9.5c-0.8,5.6-2.6,11-3.1,16.6c-0.4,4.3-0.1,8.6,0.4,12.9c0.8,1.8,2,3.6,3.6,5.2c3.7,3.8,7.4,7.5,11.3,11
		c8.4,7.4,16,15.3,18.6,26.7c0.2,1,0.7,2,1.9,2.2c1.5-6.4,2-12.9,2.3-19.4C662.8,646.6,662.8,644.2,662.8,641.8z"/>
	<path class="st27" d="M602.6,666c7.4-10.2,14.3-20.7,17.2-33.2c1.1-4.9,1.9-9.8,2.8-14.7c0.2-1.1,0.3-2.3,1.4-3.5
		c0.8,11.2,9.1,16.9,16.2,23.5c7.3,6.7,14.5,13.5,18.1,23.1c0.9,2.4,1.5,4.9,2.2,7.3c0.1,4.9-1.4,9.7-1.6,14.5
		c-2.1,6.1-3.3,12.6-5.9,18.6c-4.5,10.3-10.1,19.9-18.3,27.7c-3.2-1.1-1.8-3.7-1.5-5.5c1.4-9.9,0.5-19.5-2.5-29
		c-1.1-3.4-2.4-6.8-4.3-9.9c-0.9-1.5-1.8-2.6-4-1.8c-4.5,1.5-11.1-1.1-13.1-5.5C607.3,673.6,604.9,669.8,602.6,666z"/>
	<path class="st28" d="M588.4,679.1c3.7-0.9,5.2-4.7,8.5-6.1c2.2,1,2.5,3.2,3.1,5.1c5.7,17.1,8.6,34.6,7.7,52.6
		c-0.3,6.5,0.8,13.1-1.4,19.5c-9.6,4.8-19.6,8.6-30.1,10.8c-1.5-1.3-1-3-0.9-4.7c1.3-15.5,1.9-30.9-0.3-46.4c-0.2-1.7,0.1-3.3,0-5
		c0-1.3,0.3-2.6,0.9-3.7c3.5-6.3,6.7-12.7,9.6-19.3C586.1,680.7,586.6,679.2,588.4,679.1z"/>
	<path class="st29" d="M474,782.6c2.8-6.6,7.8-11.8,10.1-18.7c1-3.1,2.7-6,4.1-9c8.9-8.5,19.6-15,27.6-24.5c2.1-2.5,5.3-3.2,8.5-2.2
		c2.7,0.8,4.7,0.2,6.4-2.1c1.1-1.6,2.8-2.6,4.4-3.8c0.9-0.7,2-1.5,3.1-0.8c1,0.6,0.8,1.8,0.8,2.8c-0.1,2.2-0.4,4.3-0.5,6.4
		c0.2,0.4,0.4,0.5,0.7,0.4c6.6-1.7,7.6-0.9,6.8,5.8c-0.2,2,0,4.1-0.4,6.1c-0.5,2.2-1.9,3.9-3.5,5.4c-6.5,5.8-12.8,11.8-20,16.8
		c-1.4,1-2.9,1.4-4.5,1.9c-5.9,3.4-12.2,6.4-17.7,10.4c-2.5,1.8-4.5,3.8-7.6,4.1c-0.8,0.1-1.6,0.3-2.3,0.1
		C484.5,780.2,479.2,781.9,474,782.6z"/>
	<path class="st30" d="M606.3,750.2c-1.8-2.1-0.1-4.2,0-6.2c1.1-24.2-0.7-48-9.5-71c1.4-2.7,3.5-4.9,5.7-7c3.9,1.6,5.3,5.3,6.3,8.7
		c1.6,5.3,5.9,6.4,9.9,8.2c0.8,0.4,1.7,0.2,2.6-0.3c3.3-2,4-1.8,5.9,1.6c3.5,6.2,5.5,12.9,6.8,19.9c1.5,7.7,0.8,15.3-0.2,22.9
		c-0.1,1-0.3,1.8,0.7,2.3C626.5,737.9,617.4,745.4,606.3,750.2z"/>
	<path class="st31" d="M517.5,767.2c7.6-5.5,14.9-11.3,21.7-17.7c2-1.8,4.1-3.5,5.3-6c2-4.7,6.1-7.6,9.3-11.2
		c6.8-7.9,13.2-16,18.6-25c0.8-1.4,1.2-3.6,3.7-3.3c1.5,13.1,2.2,26.3,1.6,39.4c-0.3,5.9-1,11.7-1.5,17.5c-6.8,2.4-13.9,3.5-21,4.3
		c-10.6,1.1-21,3-31.7,2.8C521.5,768.1,519.4,767.9,517.5,767.2z"/>
	<path class="st32" d="M228.5,468.9c-0.1-0.8-0.3-1.8-1.1-1.9c-3.9-0.7-6.1-4-9.3-5.8c-2.2-1.2-4.1-2.2-5.2-4.7
		c-0.8-1.8-1.9-1.7-2.9,0.1c-2.9,5.5-5.4,6.2-10.6,3.1c-1.4-0.8-2.6-2.1-4.2-2.7c-5-1.9-4.4-5.9-4.3-9.9c0.1-3.2-0.9-6.3,3.1-8.5
		c1.6-0.9-0.8-4.1,0.5-6.1c0.1,0,0.3-0.2,0.4-0.1c6.2,2.8,11.4,7.2,16.7,11.5c0.3,0.2,0.2,0.7,0,1.1c-1.8,1.3-3.2,2.6-1,4.7
		c0.9-1.6-0.2-3.9,1.6-5.2c1.4-0.3,2.6,0.3,3.6,1c3.7,2.3,7.1,4.1,11.8,2c2.5-1.1,5.4,1.1,8,2.2c14.4,5.7,28.5,12.2,44.2,14.2
		c8.4,1,16.8,2,25,4.2c0.9,0.2,1.9,0.7,2.6,0.1c3.7-2.7,7.5-1.3,11.1-0.2c9.3,3,18.9,3.6,28.6,3.5c2,0,4.2-0.4,5.9,1.2
		c0.8,0,1.5,0,2.3,0c2-1.7,4.6-1.9,6.9-1.5c7.5,1.3,14.7-0.5,22-1.8c2.9-0.5,5.7-1.3,8.7-1.1c5,1.1,9.9-0.6,14.8-1
		c2.3-0.2,4.6-0.6,6.6,0.9c4.1,2.8,3.4,6.9-1.7,10.7c-5.2,3.1-10.9,3.7-16.6,3c-5-0.6-10,0.4-14.9-0.5c-1.3-0.2-1.7,1-2,2
		c-0.7,2.6-2.7,3.5-5.2,3.8c-10.6,1.5-21.2,2.7-31.5-1.5c-2.2-0.9-4.3,0-6.4,0.7c-5.3,2-10.6,3.3-16.1,0.8c-1.2-0.6-2.5,0-3.8,0.4
		c-3.9,1.3-8.5,2.3-12,1.8c-11.2-1.3-23.4,0.5-32.9-8.2c-2.5-2.3-6.4-2.6-9.7-3.6c-10.3-3.3-20.5-6.8-31.3-7.8
		C229.5,469.8,228.9,469.5,228.5,468.9z"/>
	<path class="st33" d="M211.6,445c-1.7-2.4-4.6-3.1-6.8-4.8c-3.4-2.6-6.8-5-10.2-7.5c-1.3-1.3-3-2.1-3.9-3.8c4.9-1.8,9.5-1.3,13,2.6
		c5.7,6.5,13.8,9.2,20.8,13.7c0.8,0.5,2,0.6,3,0.6c7.7,0.1,15.3,1.5,22.7,3.4c3.3,0.9,6.8,1.6,10.2,1.7c2.4,0.1,5-0.4,7.2-0.8
		c7.1-1.4,14,1.5,21.1-0.3c3.1-0.8,6.2,1.8,9.2,3.2c0.6,0.3,1,1.1,1.9,1.1c7-0.1,13.5,3,20.5,3.5c2,0.2,3.4,0.4,4.5-1.6
		c1-1.8,2.8-2.5,4.6-2.3c5.9,0.8,11.8,0.2,17.7,0.4c3.1,0.1,5,0.4,4.9,4.4c-0.2,4.7,0.7,9.4,1.1,14.1c-9.2,0.2-18.5,0.4-27.6-1.5
		c-4.3-0.9-8.4-2.1-12.7-3.2c-1-0.2-2.2-1.1-2.8,0.1c-1.3,2.7-3.4,1.7-5.3,1.3c-6.5-1.4-13.1-2.1-19.5-3.2
		c-4.8-0.8-9.7-1.5-14.6-2.5c-9.4-2-17.9-6.5-27.1-9.2c-4.7-1.4-8.7-4.3-13.3-5.7c-1.3-0.4-2.6-1.1-3.6,0c-3.5,3.5-6.3,0.4-9.2-1
		C215.4,446.9,213.6,445.7,211.6,445L211.6,445z"/>
	<path class="st33" d="M393.1,469c-8.5,2-17.2,3.9-25.9,4.1c-3.9,0.1-8-0.1-12-0.3c0.3-2,0.5-4.1,0.8-6.1c0.5-3,5-6,9.7-6.2
		c3.5-0.2,7-0.8,10.6-0.2c4.7,0.9,9.4-0.8,14.2-0.8c1.3,0,2.5,0.1,3.7,0.1c2.9,0,5.7-0.1,5.9-4.3c0.1-2,1.7-3.2,3.7-3.3
		c4.9-0.3,9.8-1.9,14.8-1c0.9,0.1,1.4-0.3,2-0.9c3.1-3.4,13.5-5.9,16.2-2.5c3.5,4.4,7,1.3,10.4,2c4.7,1,7-3.1,10.2-5.2
		c3.2-2.1,5.7-5.1,8.6-7.7c2.8-2.5,3.8-2,4.4,1.6c0,0.3,0.1,0.5,0.1,0.8c0.5,3,0.5,6.1,5.3,3.8c2.3-1.1,5,0,6.9,2.1
		c-2.6,1.3-5.1,2.6-7.7,3.9c-1.7,2.3-4.4,2.4-6.8,3.2c-1.8,0.1-3.4,0.7-5,1.5c-3.3,0.8-6.6,1.9-10,2.6c-5.7,1.5-11.4,3.2-16.9,5.2
		c-12.2,4.4-24.8,6.4-37.6,7.4C396.9,469,395,470.3,393.1,469z"/>
	<path class="st8" d="M512.8,427.2c1.2,0.2,2.4-1.4,3.5-0.1c0.5,0.6,0.5,1.6-0.1,2.1c-1.2,1.2-2.2,2.8-4.3,2.6c-1.2-0.1-2-1.1-3-1.5
		C509.8,428.7,511.3,428,512.8,427.2z"/>
	<path class="st33" d="M360,458.5c-1.1-0.8-3.4-0.7-3.3-2.4c0-1.4,1.7-3.1,3.1-2.9c1.7,0.3,0.7,2.6,1.4,3.9
		C361.6,457.9,361.2,458.7,360,458.5z"/>
	<path class="st33" d="M228.5,468.9c7.6,0.8,15.1,1.2,22.4,4.1c6.1,2.4,12.4,4,18.7,5.9c1,0.3,2,0.3,2.7,1.2
		c3.2,3.8,7.8,5.7,12.4,6.4c4.8,0.7,9.6,1.8,14.5,0.7c1.1-0.2,1.7,0,2.3,0.8c0.6,0.8,1.7,1.4,2.3,0.9c4.1-3.5,9.8-0.1,14-3.4
		c1-0.8,2.2,0.3,3.2,0.8c3.6,1.8,7.1,1.6,10.8,0.2c4.7-1.8,9.1-3.2,14.6-0.7c4.8,2.2,10.8,2.3,16.5,1.5c3.8-0.5,7.6-1.1,11.4-1.4
		c2.3-0.2,3.8-0.9,3.5-3.4c-0.3-2.5,1.4-3.3,3-2.6c3.3,1.5,6.5,0.1,9.7,0.5c6.9,0.7,13.8,0.6,20.5-1.5c0.5-0.1,0.9-0.5,1.3-0.7
		c5.6-2.7,11.8-3.2,17.7-4.6c5.3-1.2,10.7-2.6,15.8-4.5c1.8-0.7,3.7-1.1,5.6-1.4c3.6-0.3,7.1-0.9,10.6-1.5c1.5-0.3,3-0.8,4.4,0.4
		c4.1,1.1,8.3-0.3,12.4,0c-0.5,0.4-0.9,1.3-1.4,1.2c-6.3-0.4-9.6,4.8-14.1,7.7c-2.1,1.3-3.8,3.1-6.3,3.5c-3.2,0.6-4.2,2.6-3.6,5.6
		c0.5,2.5,0,2.5-2.5,1.9c-3.5-0.8-6.5-2.7-10.1-3.3c-3.2-0.6-6.3-2.1-8.8-4.4c-0.8-0.7-1.8-2.1-2.8-0.9c-0.8,1,0.4,2.1,1.1,3
		c2.1,2.4,4.3,4.8,6.4,7.2c3.2,3.7,2.7,6.3-1.7,8.5c-6,3-12.3,3.4-18.7,1.3c-2.5-0.8-5.1-0.8-7.6-0.1c-4.8,1.5-9.5,1.7-14.4,0.5
		c-2.7-0.7-5.2,0.6-8,0.5c-2.4-0.1-3.8-0.6-4.9-2.6c-0.6-1.1-1.5-2.1-2.1-3.2c-1.2-2.2-2.4-3.1-4.7-0.9c-2.4,2.4-5.4,3.5-8.7,2.1
		c-2.8-1.1-5.5,0.3-8.3,0.2c-1.1,0-2.6,0.6-2.8,1.8c-0.6,3.6-3.3,6.3-4,9.9c-1.5,7.8-4.3,9.2-12.1,6.9c-1.2-0.4-2.5-0.5-3.7-1.1
		c-4-1.8-8.3-1.1-12.5-1.3c-6-0.3-10.6-5-16.4-6.3c-0.6-0.1-1.2-0.8-1.8-0.7c-6.8,1.4-12.7-2.6-19.2-3.1c-3.1-0.2-6.4,0.3-9.5,1.1
		c-7.3,2-13.5-0.4-19.3-4.4c-5.1-3.6-9.9-8.5-15.2-10.8c-7.5-3.2-14.3-7.4-21.2-11.4c-3.9-2.3-7.5-5-9.1-9.5
		C216.7,466.6,222.4,469.3,228.5,468.9z"/>
	<path class="st32" d="M466.5,466.7c-5.1,1-10.2,2.4-15.4,2.2c-5.7,0.6-11.6-1.6-17.1,1.5c-3.5,2-7.7,1.8-11.5,3.1
		c-2.4,0.8-4.3-0.9-5.1-3.1c-0.8-2-0.2-3.5,2.5-3.4c9.2,0.2,17.1-3.8,24.9-8c2.8-1.5,6.1-1.8,8.6-3.9c3.4-0.8,6.5-2.3,10.1-2.4
		c1.5-0.8,3.2-0.7,4.6-1.5c2.3-0.8,4.7-1.6,7-2.3c2.3,2.2,4.4,1.7,6.7-0.1c1.7-1.3,3.7-2.3,5.5-3.4c0.9-0.5,1.6-1.5,2.6-0.3
		c0.8,1,0.4,1.9-0.3,2.7c-6.1,7.8-12.9,14.8-22.5,18.4C466.8,466.2,466.7,466.5,466.5,466.7z"/>
	<path class="st34" d="M431,275.4c2.5-0.1,3.5,1.4,3.5,3.3c0.1,2.2-1.6,3.5-3.7,3.6c-2.4,0.1-3.9-1.4-4-3.7
		C426.7,275.7,429.3,276,431,275.4z"/>
	<path class="st35" d="M302.7,730.1c1.9,7.6,4.4,14.9,9.1,21.4c2.3,3.2,4.2,6.7,6.2,10.1c0.4,0.7,1,1.6,0.4,2.5
		c-2,2.9-2.8,6.3-3.9,9.6c-0.5,1.3-1.1,2.6-2.6,3.2c-1.6,0.6-2.3,1.8-2.3,3.8c-0.8-1-1.3-1.6-2.3-2.9c0.3,4.4,0.5,8.1,0.7,11.7
		c-3.6,1.3-7.5,2.2-10.9,3.9c-1.6,0.8-3.1,1.5-4.9,1.5c-2.2-0.9-1.9-3.1-2.5-4.9c-0.9-2.5-1.5-5.1-2.2-7.2c0.4,3.2,3.2,6.5,1.5,10.5
		c-4.9,3.4-10.5,2.4-15.9,2.1c-1.3-0.1-2.5-0.4-3.6,0.3c-3.2-3-3.2-7.4-5-10.4c0.5,2.6,3.2,5.3,2.1,8.8c-1.5-0.7-2.7-1.2-4.6-1
		c-4,0.3-7.7-1.3-10.6-4.2c-1.2-1.2-2.3-2.1-4-1.8c-3.4,0.6-5.9-0.9-8.1-3.1c-3.4-0.3-3.7-3.8-5.6-5.6c-3.8-6.4-7.4-13-11-19.5
		c-0.7-1.3-1.6-2.3-2.7-3.2c-1.7-1.4-3.4-2.8-4.6-4.6c-6.2-9.6-14.2-17.9-20.5-27.5c-5-7.7-10.2-15.4-18.6-20.2
		c-2.7-1.6-4.6-4-4.8-7.5c-0.1-2.1-1.6-3.7-2.5-5.6c-0.5-1.1-1.6-1.2-2.7-0.9c-0.9,0.2-1.7,0.6-2.5,0.9c-7.6,3.1-14.1,0.3-17.4-7.5
		c-3.2-7.7-3.3-7.8,4.2-11.6c7.1-3.6,14.3-6.9,20.5-12.2c3-2.5,4.3-4.9,2.7-8.6c-1.6-3.9-5.5-6.8-9.1-6.4c-1.4,0.2-2.8,0.6-4.2,0.3
		c-1.6-0.3-2.4,0.1-2.3,1.9c0.1,1.1-0.3,2.1-1.6,2.3c-1.2,0.2-2.1-0.4-2.6-1.3c-2.5-4.8-7.3-8.6-6-14.9c0.2-0.9-0.3-1.8-0.7-2.6
		c-2.9-5.4,0-11.1-1.1-16.6c-0.3-1.5,1.6-2.6,3-3.2c1.6-0.7,2.8-1.8,4.1-2.8c2.7-0.9,5.4-2.1,8.1,0c4.7,14.1,8.2,28.7,16.1,41.5
		c0.9,1.4,2,1.8,3.5,1.8c23.9,0,47.4,4.1,70.9,7.6c8,1.2,15.9,2.6,23.8,4.4c1.1,0.3,2.1,0.3,2.9-0.4c1-0.9,0.2-1.9-0.1-2.8
		c-0.9-2.5-1.9-5.1-2.9-7.5c-1.1-2.5-1.1-5.2,1-6.8c3.3-2.6,5.5-6.1,8.5-8.8c3.1-2.8,5-2.3,6.4,1.7c0.7,1.9,0.7,3.7-0.2,5.6
		c-1.5,3,0.5,3.5,2.7,3.1c2-0.4,4-0.7,6.1-0.5c5.7,0.5,9.5,4.1,9.7,9.8c0.1,3,0,5.8,3.2,7.6c0.9,0.5,1.3,2.2,1.7,3.4
		c1.7,5.5,3.9,11,4.9,16.6c0.7,4.1,3.1,4.9,6,4.8c6.9-0.2,11.2,3.4,14.6,8.8c0.5,0.9,1.1,2,2.3,1.9c4.3-0.4,8.3,0.9,12.3,2.3
		c1.8,0.6,4.2,0.6,6.1,0.1c5-1.4,9.9-0.7,14.3,1.4c3.4,1.6,5.8,1.1,8.3-1.2c1.4,1.8-0.2,3.1-0.7,4.6c-0.4,2.7-1.7,4.1-4.7,3.9
		c-2.3-0.2-4.6,0.2-6.9-0.2c-1.5-0.3-5,0.1-2.4-3.5c0.9-1.3-0.6-1.7-1.6-1.7c-4.5,0-9.1-0.5-13.5,0.2c-5.4,0.8-10.8,0.3-16.2,0.5
		c-0.9,0-2-0.1-2.6-0.6c-4-3.5-9.3-3.9-13.8-6c-1.6-0.7-2.5-1.5-2.6-3.3c-0.1-1.1-0.7-2.2-1.1-3.2c-0.8-1.8-1.3-3.6-1.4-5.8
		c-0.1-2.8-1.7-5.5-2.9-8.2c-1.4-2.9-3.2-5.6-4.6-8.4c-0.9-1.7-2.1-1.6-3.5-1c-5.2,2.5-9.2,2.1-11.3-4.1c-0.3-1-1.6-1.7-2.4-2.5
		c-1.1-1.2-2.6-2.5-4-1.3c-1.6,1.3-4.5,1.5-4.3,4.7c0.2,4.4,2.5,8.1,4,12c4.4,11.1,7.8,22.5,10.8,34.1
		C299,717.9,300.1,724.2,302.7,730.1z"/>
	<path class="st36" d="M618.7,527c1.1,11.8,0.6,23.6-0.2,35.3c-0.7,11.2-2.5,22.3-3.9,33.5c-0.2,1.3-0.5,2.5,0.2,3.7
		c-3.1,5.3-3.8,11.5-5.3,17.3c-0.2,0.7-0.1,1.5-0.7,2.1c-2.9-2.6-6.5-3.6-10.1-4.5c-13.7-3.5-27.5-6.4-41.7-7.5
		c-1.6,0-3.1-0.1-4-1.8c-10.7-1.1-21.4-2.6-32.1-3c-11.7-0.4-23.4-1.6-35.1-0.8c-6.4,0.5-12.8,0.3-19.8-0.2c3-2.9,5.8-5.9,9-8.6
		c11.4-9.8,24.3-17.6,37-25.4c11.2-6.9,22.8-12.8,34.6-18.6c0.9-0.4,1.7-1,2.6-1.6c1-1.5,2.6-2.1,4.3-2.4
		c14.7-2.1,28.5-7.7,42.7-11.7c6-1.6,11.8-3.7,17.6-5.6C615.4,526.9,617,526,618.7,527z"/>
	<path class="st37" d="M618.7,527c-23,7.4-45.7,15.3-69.5,20c-13.9,0.2-27.9-0.2-41.8-0.8c-0.5-3.2-1.8-4.8-5.6-3.9
		c-3,0.7-4.9-1.8-5.2-4.5c-0.4-4.2-1.9-7.9-3.2-11.8c-1.3-3.9,0.1-5.5,4.3-5.4c1.3,0,2.5,0.3,3.8,0c3.4-0.8,4.2-1.9,3.6-5.3
		c-0.2-0.9-0.3-1.8-0.2-2.7c0.6-3.3-0.2-5.8-3.4-7.4c-0.8-0.4-1.5-1.1-1.1-2.2c12.5-8.1,25.9-14.6,39.7-20.1c2.4-0.9,4.7-2,7.1-2.9
		c1.9-0.6,3.1-0.2,3.6,2.1c0.3,1.6,1.4,2.1,3.2,1.4c11.1-4.7,22.2-9.3,33.4-13.8c7.2-2.9,14.1-6.8,22-7.8c1.4-0.2,1.3-1.4,1.5-2.3
		c1.7,7.1,2.7,14.2,3.7,21.4c1.4,10.2,2.7,20.5,3.2,30.9c0,0.6,0.4,1.2,0.7,1.8C618.7,518.1,618.7,522.5,618.7,527z"/>
	<path class="st38" d="M556.9,605.8c11.9,0.4,23.5,3,35.1,5.6c4.6,1,9.1,2.4,13.7,3.7c1.8,0.5,3.3,1.4,3.1,3.7
		c-4.2,18.9-10.3,37.2-18.3,54.8c-0.8,1.7-1.3,3.6-2,5.4c-4.1,8.3-8.2,16.6-12.3,24.9c-4.1,5.1-7,10.9-10.9,16.1
		c-6.3,8.3-13.1,16.1-20.6,23.4c0.1-2.9-0.2-5.8,0.5-8.8c0.8-3.2-0.7-4.2-3.8-3.1c-1.1,0.4-2,1.1-3.1,1.4c-1.2,0.3-2.3-0.2-1.5-1.6
		c1.7-3,0.3-6.3,1.3-9.5c-2.7,1.6-5.5,2.9-7.1,5.6c-1.4,2.2-2.9,2.9-5.4,2c-4.4-1.6-7.6-0.1-10.6,3.5c-5.5,6.6-12.5,11.7-19.3,16.9
		c-1.5,1.2-2.9,2.5-4.4,3.8c-0.8,0.7-1.5,1.9-2.9,1.1c2.8-8.3,6.9-16,11.4-23.5c1-1.7,2.1-3.2,2.5-5.2c3.6-8.1,8.7-15.4,13.2-23
		c1.3-2.2,2.4-4.4,2.8-7c0.7-4.4,2.7-8.3,5.4-11.8c2.3-3,5.5-4.4,9.2-3.8c3,0.5,4.6-0.7,6.1-2.8c1.3-1.9,2.6-3.8,4.1-5.6
		c1.5-1.7,3-3.4,5.4-1.2c0.4,0.4,0.9,0.4,1.4,0.3c2.3-0.8,6.9-6.9,7-9.3c0.1-2-0.9-3.4-2.7-4.3c-3.1-1.6-6.2-3.2-9.4-4.3
		c-2.8-1-4.5-2.9-3.8-5.9c1.4-5.7,1.6-11.6,5-16.8c2.1-3.2,4.5-5.5,8.6-6.6c-1.5-1.7-3.6-2.8-3-5.4c0.5-2.2,1.5-4.2,3.3-5.5
		C557.4,611.3,555.3,608,556.9,605.8z"/>
	<path class="st39" d="M556.9,605.8c1.2,3.9,1.1,7.2-2.9,9.6c-1.3,0.8-1.4,2.7-1.6,4.2c-0.4,2.3,1.6,2.1,2.9,2.8
		c0.7,0.3,1.4,0.9,1.3,1.7c0,1-0.9,1.3-1.6,1.4c-7.6,0.8-10.1,6.6-11.3,12.7c-0.6,2.9-1,6-1.7,8.9c-0.7,2.8,0.3,4.3,2.9,5.3
		c3,1.1,5.9,2.5,8.8,3.9c5.5,2.7,6.3,8.3,1.4,12c-2.3,1.8-4,4.3-6.6,5.7c-1.6-0.4,0.1-3.5-2.3-3.2c-1.6,0.2-2.1,1.8-2.9,2.9
		c-1.3,1.8-2.4,3.7-3.8,5.3c-1.7,1.9-3,4.7-6.8,2.6c-1.9-1-4.9,0-6.7,1.8c-3.9,3.9-6.2,8.7-6.9,14.2c-0.1,0.9,0.1,2-0.4,2.6
		c-6.3,8.1-10.1,17.9-16.6,25.9c1.8-6.6-3.8-9.1-7.4-12c-8.6-6.7-16.5-14.2-24.6-21.5c-4.2-3.8-7.8-8.5-12-12.4c-4-3.7-7.4-7.2-4-13
		c0.7-1.3-0.5-2.4-1.4-3.3c-2.3-2.5-5.3-4-8-5.9c-2.7-1.9-2.6-3.1,0.5-4.5c6.5-2.9,13.6-3.4,20.6-4.5c11.4-1.7,22.7-3.5,34.2-4.4
		c11.7-1,23.5-2.4,35.3-1.8c3.6,0.2,5-1.4,6.5-4.5c5.1-10.7,8.6-21.8,11.4-33.2C554.3,605.3,555.6,605.5,556.9,605.8z"/>
	<path class="st40" d="M161.3,607.2c-2.9-0.4-5.7,0.6-8.5,0.9c-3.9,2.3-7.9,3.8-12.4,1.5c-2.6-6.4-2.7-13.3-3.8-19.9
		c-1.7-10.9-3.2-21.8-4.5-32.7c-0.5-4-2.9-5.7-6.2-6.7c-1.2-0.4-2.5-0.7-3.7-1.2c-9.5-3.9-10.5-5.5-9.6-15.8
		c14.8,4.1,29.6,8.3,44.4,12.4c1,0.3,1.9,0.8,2.8,1.2c7.3,4.8,15.3,8.1,23,12.3c17.6,9.6,34.6,20,50.3,32.5c3.5,2.8,6.3,6.4,9.5,9.6
		c-0.8,1-2.1,0.4-3.1,0.4c-10,0.1-20.1-0.1-30.1,0.1c-14.2,0.3-28.4,1.7-42.4,4.4C165.1,606.6,163.1,606.2,161.3,607.2z"/>
	<path class="st41" d="M500.5,503c0.4,0.9,1.1,1.3,2.1,1.5c3.4,0.8,4.1,3.5,3.8,6.5c-0.1,1.2-0.6,2.5-0.3,3.8
		c0.4,1.6,2.4,3.4,0.4,4.8c-2.2,1.6-4.6,3.3-7.7,2.3c-0.6-0.2-1.2-0.3-1.9-0.3c-2.5-0.1-3.6,0.7-2.6,3.4c1.5,4.2,3.5,8.1,3.4,12.8
		c0,2.2,1.7,4.5,4.8,3.5c1.6-0.5,3.1-2,4.9-0.2c1.6,1.7,0.4,3.4,0.1,5c-19.4,0-38.8,0-58.2,0c-0.1-0.3-0.2-0.6-0.3-0.8
		C463.5,528.1,480.9,514.2,500.5,503z"/>
	<path class="st42" d="M382.3,706.2c0.2-1.5,0.5-3.1,0.7-4.6c3.8-5.3,2.9-11.8,3.8-17.7c0.7-4.9,1.7-9.8,2.9-14.5
		c1.8-7.2,4.3-14.2,8.4-20.5c2.6-3.9,4.3-4.3,8.9-3c5.7,1.6,8.7,6,12.5,9.8c4.7,4.7,5.5,5.6,2.9,11.9c-0.5,1.3-1.1,2.6-1.6,3.9
		c-2.7-1.4-5.4-0.3-6.6,2.6c-0.3,0.7-0.3,1.5-0.6,2.2c-0.4,1-1.1,1.8-2.2,1.9c-1.3,0.2-1.7-0.8-2.3-1.7c-1.9-2.9-6.4-2.7-8.7-0.1
		c-2.3,2.7-1.6,6-2.6,9c-0.5,1.4-0.8,2.9-1.1,4.4c-1,5.2-3.7,8.5-9,9.8c-1.7,0.4-2.8,1.6-3.3,3.5
		C384.1,704.3,383.6,705.6,382.3,706.2z"/>
	<path class="st43" d="M289,793.4c-0.5-4.5-2.7-8.7-2.4-14.1c3.1,5.4,4,10.7,5.6,15.7C289.7,797.4,289.8,794.6,289,793.4z"/>
	<path class="st44" d="M266.7,794.3c-1.1-3.7-2.8-7.3-3.5-11.9c3.5,4.4,4.9,9,6.4,13.5C267.8,796.8,267.3,795.4,266.7,794.3z"/>
	<path class="st45" d="M234.6,778.1c-7.1,0.5-14.1-0.6-21-1.7c-9-1.5-17.5-4.9-24.8-10.8c-1.1-0.9-2.3-1.6-3.5-2.3
		c-15.1-11.5-29.2-23.9-40.5-39.3c-18.2-25.2-30.4-53.2-38.5-83.1c-2-7.5-4.4-14.9-5.3-22.7c13.1-2.8,26.2-5.7,39.4-8.5
		c4.2,0.2,8.3-0.9,12.4-1.5c0,1.3-0.6,1.9-1.9,2.4c-2.5,1-5.8,1.9-3,5.9c0.6,0.9,0.1,2-0.3,3c-1.4,3.7-0.8,7.2,1,10.6
		c0.4,0.8,1.1,1.5,0.7,2.5c-2.2,6.5,3.8,9.8,5.7,14.7c0.2,0.6,0.8,1.1,1.5,0.8c1-0.4,0.7-1.2,0.5-2c-0.6-2.5-1.2-4.8,2.7-2.6
		c0.8,0.4,2.3,0.6,3,0.1c3.5-2.3,6.3,0.2,8.5,1.7c3,2,4.3,5.6,4.6,9.4c0.2,2.6-2,3.7-3.6,5.1c-6.5,5.8-14.2,9.5-22,13.1
		c-1.6,0.7-2.8,2.2-4.7,2.5c-0.9,0.1-1.6,1.2-0.8,2.5c2.9,4.7,4.3,10.3,10.2,12.9c1.8,0.8,2.8,1.2,4.7,0.3c2.3-1.2,5-1.9,7.5-2.8
		c0.9-0.3,2.1-0.7,2.3,0.4c0.5,3.2,3.9,5.1,3.2,8.8c-0.3,1.8,1.3,3.5,3,4.5c10.8,6.4,16.8,17,24,26.8c7,9.6,13.7,19.5,22.5,27.6
		c1.3,1.2,1.9,3.2,2.9,4.8C228.3,766.8,231.5,772.4,234.6,778.1z"/>
	<path class="st10" d="M453.3,455.1c-1.5,1.8-3.9,2.3-5.5,3.5c-4.9,3.7-10.6,5-16,7.3c-3.8,1.6-7.7,3.2-12,2.1
		c-2.3-0.6-2.4,0.6-1.8,1.9c0.9,1.9,2.4,3.6,4.9,2.6c5.1-1.9,10.6-2.7,15.6-5c1.1-0.5,2.1-0.7,3.3,0c1.8,1,3.7,1,5.6,0.3
		c1.5-0.5,2.8-0.3,3.7,1.2c-5.7,1.7-11.4,3.2-17,5.1c-4.9,1.7-10,1.3-15,2.6c-2.2,0.6-4,3.1-6.7,1.5c0-0.2-0.1-0.6,0-0.7
		c3-1.2,4.3-3.6,3.2-6.3c-1.2-2.9-4-3.5-7.2-2.9c-4.4,0.8-8.8,1.2-13.2,1.9c-1.1,0.2-1.7-0.3-2.1-1.2c15.7-1.7,31-4.5,45.9-9.8
		C443.7,457.6,448.6,456.4,453.3,455.1z"/>
	<path class="st6" d="M211.5,445c1.8,2.7-0.7,5.2-0.3,7.9c-1.5-2.1-3.8-4-3.3-6.7C208.2,444.3,210.3,445.3,211.5,445
		C211.6,445,211.5,445,211.5,445z"/>
	<path class="st6" d="M200,440.1c1.3,0.3,1.6,1.1,1.8,1.8c0.6,1.6,2.3,2.9,1.5,4.9c-0.1,0.1-0.9,0.2-1,0
		C201.5,444.7,199.1,443,200,440.1z"/>
	<path class="st10" d="M468,451.2c-1.2,1.5-2.9,1.6-4.6,1.5C464.6,451.3,466.3,451.1,468,451.2z"/>
	<path class="st41" d="M504.9,525c-1.4,0.1-2.4-0.2-2.4-1.1c0-0.9,0.9-0.4,1.4-0.1C504.1,524,504.3,524.3,504.9,525z"/>
</g>
</svg>
