<?xml version="1.0" encoding="utf-8"?>
<!-- Generator: Adobe Illustrator 27.4.0, SVG Export Plug-In . SVG Version: 6.00 Build 0)  -->
<svg version="1.1" id="Layer_1" xmlns="http://www.w3.org/2000/svg" xmlns:xlink="http://www.w3.org/1999/xlink" x="0px" y="0px"
	 viewBox="0 0 720 720" style="enable-background:new 0 0 720 720;" xml:space="preserve">
<style type="text/css">
	.st0{fill:#565656;}
	.st1{fill:#FCEFDA;}
	.st2{fill:#6BB5B9;}
	.st3{fill:#C7D9CC;}
	.st4{fill:#FAF0E2;}
	.st5{fill:#F49586;}
	.st6{fill:#FDF1DE;}
	.st7{fill:#F7E4CB;}
	.st8{fill:#FEF6E9;}
	.st9{fill:#FDC696;}
	.st10{fill:#FDD286;}
	.st11{fill:#FBCDA4;}
	.st12{fill:#C6D0C6;}
	.st13{fill:#7FBEBE;}
	.st14{fill:#326B68;}
	.st15{fill:#F5E1C7;}
	.st16{fill:#D7DED0;}
	.st17{fill:#F5E1C8;}
	.st18{fill:#82BEBA;}
	.st19{fill:#F4AEA4;}
	.st20{fill:#FCD595;}
	.st21{fill:#CDD7C8;}
	.st22{fill:#96C4BE;}
	.st23{fill:#FADCBA;}
	.st24{fill:#F6E0C4;}
	.st25{fill:#3C5354;}
	.st26{fill:#F9DAB7;}
	.st27{fill:#966E65;}
	.st28{fill:#A07F6F;}
	.st29{fill:#DBCA94;}
	.st30{fill:#ACC9CA;}
	.st31{fill:#FCAE67;}
	.st32{fill:#DADAC8;}
	.st33{fill:#F5C9AF;}
	.st34{fill:#316765;}
	.st35{fill:#EFE6D5;}
	.st36{fill:#F7E1CC;}
	.st37{fill:#354A4A;}
	.st38{fill:#6F6866;}
	.st39{fill:#748686;}
	.st40{fill:#FAC16E;}
	.st41{fill:#FAB133;}
	.st42{fill:#FDF0DD;}
	.st43{fill:#FED56F;}
	.st44{fill:#E79C9C;}
	.st45{fill:#8F9999;}
	.st46{fill:#FAECD8;}
	.st47{fill:#F2E0C8;}
	.st48{fill:#F3E1CA;}
	.st49{fill:#54A9AE;}
	.st50{fill:#271A18;}
	.st51{fill:#DBDCD9;}
	.st52{fill:#A98F7E;}
	.st53{fill:#D1D2C2;}
	.st54{fill:#5AACB0;}
	.st55{fill:#271B19;}
	.st56{fill:#CCD1D1;}
	.st57{fill:#899F94;}
	.st58{fill:#FBD49D;}
	.st59{fill:#FAC93D;}
	.st60{fill:#F8D8B7;}
	.st61{fill:#ECB499;}
	.st62{fill:#F6CB94;}
	.st63{fill:#E6C9AD;}
	.st64{fill:#FDD684;}
	.st65{fill:#FDD46E;}
	.st66{fill:#FCD889;}
	.st67{fill:#E1DDC9;}
	.st68{fill:#FCDFA2;}
	.st69{fill:#F0E0C8;}
	.st70{fill:#F3E3CE;}
	.st71{fill:#A1A9A5;}
	.st72{fill:#F8E6D0;}
	.st73{fill:#FCF2E2;}
	.st74{fill:#E8957D;}
	.st75{fill:#EDADAA;}
	.st76{fill:#EBBFA6;}
	.st77{fill:#54A8AC;}
	.st78{fill:#CBCFC2;}
	.st79{fill:#C49E76;}
	.st80{fill:#F5E3CB;}
	.st81{fill:#BCD1C2;}
	.st82{fill:#6DB5B7;}
	.st83{fill:#FCDEA2;}
	.st84{fill:#97C6BD;}
	.st85{fill:#FDD14D;}
	.st86{fill:#F7E8D4;}
	.st87{fill:#D5B692;}
	.st88{fill:#8FBEB6;}
	.st89{fill:#C0A892;}
	.st90{fill:#A5C6BA;}
	.st91{fill:#F3E0C9;}
	.st92{fill:#F9E9D3;}
	.st93{fill:#D07653;}
	.st94{fill:#E0C6A5;}
	.st95{fill:#F6DEC6;}
	.st96{fill:#F7EBD9;}
	.st97{fill:#C4CEBD;}
	.st98{fill:#77B5B8;}
	.st99{fill:#85ADA6;}
	.st100{fill:#FDF3E4;}
	.st101{fill:#DFAB87;}
	.st102{fill:#E8B99E;}
	.st103{fill:#559DA2;}
</style>
<rect x="0" y="0.5" class="st0" width="720" height="720"/>
<g>
	<path class="st1" d="M386.2,197.7c-1.7-3.6-3.6-9.4-6.9-8.8c-7.2,1.4-6-3.7-7.3-7c-2.1-5.3-2.5-10.9-3.3-16.4
		c-2.1-4.5-4.4-4.4-6.6-0.2c-2.6,5-2.7,10.6-3.8,16c-0.4,1.7-0.6,3.5-1.2,5.2c-0.2,0.8-0.5,1.6-0.6,2.4c-0.4,1.4-0.8,2.7-1.5,4
		c0,0-0.6,0.8-0.5,0.8c-0.4,0.5-0.8,1-1.2,1.5c-0.4,0.5-0.9,0.7-1.5,0.9c-4-6.1-7.1-4.2-9.5,1.3c-4.5,10.1-5.7,21.1-7.5,32.9
		c-7.2-11.3-11.5-22.4-15.6-33.6c-0.3-0.9-0.5-1.9-0.9-2.8c-0.3-1-0.6-1.9-1-2.9c-5.7-16.2-9.4-32.8-11.5-49.8
		c-0.5-4.3-1.1-8.5-5.1-11.2c-12.1,0.5-23.2,4.7-34.6,8.2c-4.1,1.3-7.3,1.2-11-1.3c-10.6-7.3-21.6-14.1-32.4-21.1
		c-1.5-0.8-2.9-1.5-4.4-2.3c-15.7-8.7-31.5-17.2-49.2-21.4c-3.3,12.7-7,25.4-8.9,38.4c0,0,0,0,0,0c0.1,0.5,0.2,1,0.2,1.5
		c0,15.4,0,30.9,0.5,46.3c0.5,15.1,3.7,29.8,3.7,44.9c0,1-0.2,1.9-0.7,2.6c7,0.8,7.9-6.4,10.6-11.1c0.5-4.7-0.5-9.2-1.3-13.8
		c-5.3-28.3-5.7-56.7,0.5-84.9c2.2-9.9,5.1-11.4,13.8-6.7c17.7,9.6,32.7,22.5,45.8,37.8c4,4.7,4.7,8.7-2,11.6
		c-1.8,0.8-3.5,1.8-5.2,2.9c-12.4,5.9-22.8,14.5-31.5,25.2c-4.4,5.3-9.5,10-14.3,14.9c-3.6,3.7-6.2,7.7-5.4,13.1
		c4.7,18.5,17.1,31.4,31.5,42.7c10.5,9.1,23.2,10.6,36.3,10.1c2.7,0.3,5.3-0.4,7.9-0.4c6.2-0.8,12.4-1.5,18.7-1.7
		c16.9-0.5,31,4.7,41,19.1c1.9,2.6,3.9,5.2,5.1,8.2c4.2,10.5,2.8,12.8-8.6,14.2c-8.7,1.1-17.4,2.3-25.2,6.8
		c-4.8,5.4-11.6,7.4-17.7,10.6c-9.1,4.8-17.9,10.2-24.1,18.5c-4.6,6.2-10.3,8.9-17.7,8.6c-14.6-0.7-29.4,1.7-44-1.5
		c-1.1-0.2-2.2-0.4-3.3-0.4c-4.7-0.7-9.3,0.1-13.9,0.6c-10,1.2-12.3-0.1-15.3-9.8c-3.3-10.5-5-21.3-5.4-32.4
		c-0.2-4.2,0.3-8.8-3.6-11.9c-4.4-1-6.5,2.3-9,4.9c-13.5,19.7-26.2,40-38.2,60.6c-0.7,1.2-1.4,2.5-1.9,3.8c-0.4,0.9-0.7,1.8-0.9,2.7
		c-0.4,1.4-0.5,2.9-0.5,4.4c-0.1,3,0.3,5.9,1,8.8c6.7,29.3,17.8,56.7,35,81.4c9.4,13.3,19,26.5,32.3,36.3c6.9,5,11.9,10.8,9.7,20.1
		c2.4,3.1,5.4,4.7,9.4,4.1c10.5-3.7,21.3-10.4,32.3-5.7c10.3,4.3,20.3,5,30.8,4.6c4-0.2,8.4,0.6,9.7-4.6c1.3-5.2-0.9-9.6-5.7-11.3
		c-8.3-2.9-8.2-8.5-7.6-15.8c1.1-11.7,7-22,8.7-33.5c-0.6-2.8-2.8-4.4-4.8-6.1c-8.8-7.5-8.8-8.3-0.7-16.9c8.9-9.4,18.6-17.8,29-25.6
		c6.2-4.7,11.8-6.3,19.1-2.5c7.1,3.7,14.8,6.4,22.9,5c8.2-1.5,16.4-1.1,24.6-0.7c9-3.6,16.8-8.9,23.5-15.8
		c6.3-6.6,10.5-14.3,10.1-23.8c-0.1-3.5,0.3-7.5-4.3-8.9c-7.7,4-14.2,9.8-22,13.6c-3,1.5-5.8,3-9.4,1.7
		c-8.8-3.2-22.1-22.6-21.6-32.1c0.2-4.6,1.9-8.5,5.4-11.4c6-4.9,10.9-10.7,15.6-16.8c6.6-8.5,15.5-12.3,25.9-13.1
		c6.7-0.6,13.3,0.3,19.9,1.1c5.5,0.7,11.4,2.1,15.5-3.6c1.7-3.8,0.6-7.8,0.7-11.8c0.3-10.9-0.1-21.9,2-32.7
		c0.7-3.7,0.9-7.5,0.8-11.3C393.9,228.9,393.1,212.8,386.2,197.7z"/>
	<path class="st2" d="M358.5,188.5c0,0.6-0.2,1.2-0.4,1.8c-1,1.1-0.5,2.9-1.9,3.9l0,0.1c-0.5,0.8-1.4,1.3-1.7,2.3l0.1,0.1
		c-6.4,2.3-4.5-3.8-6.4-6.3c-6.8,3.8-14.3,5.9-21.8,8.1c-3.6,1.1-7.2,0.7-10.4-1.8l0.1-0.1c-0.5-0.8-1-1.5-1.5-2.3
		c-6.2-18-10.9-36.3-12.6-55.3c-0.3-3-1-5.9-1.5-8.9c10.7-3.9,22-4.3,33.1-5.6c3.6-0.4,7.2-0.6,10.9-1c11.6,0.2,23.2,0.5,34.7,0.6
		c15.9,0.2,31.6,2.8,47.1,6.4c7.1,15.2,2.6,29.7-2.5,44.2c-3.4,4.2-8,4.1-12.7,3.7c-12.2-1.1-24.1-4.7-36.4-4.9
		c-4.6-0.1-7.2-2.8-8.3-7.1c-0.1-0.3-0.2-0.6-0.3-0.9c-0.2-0.9-1.1-1.2-1.3-0.7c-1,3.7-1.9,7.4-2.4,11.2c-0.4,2.9-0.9,5.7-2.2,8.4
		C359,185.4,359.4,187.2,358.5,188.5z"/>
	<path class="st3" d="M422,174.2c3.3-14.4,5.1-29,4.3-43.8c13.7,1.9,26.7,6.4,39.8,10.6c2.5,8.8,11.3,7.5,17.2,10.9
		c7.6,2.6,14.9,5.8,21.7,10.2c10.6,6,19.8,13.8,28.6,22.1c7.3,9,17.1,15.9,23.4,25.8c0.2,0.9,0.2,1.9,0.1,2.8
		c-5.2,13-10.9,25.8-22,35.2c-3.6,3.1-3.7,5.8-0.3,9.1c4.4,4.3,5,9.8,2.1,14.7c-3.3,5.6-3.2,11.2-2.5,17.1
		c-5.8,5.2-8.5,12.5-12.5,19c-4.4,7.1-10.2,10.6-18.3,7c-7.2-3.2-13.6,0.6-20.3,1.3c-1.4-0.1-2.7-0.6-3.9-1.5
		c-0.8-0.5-1.4-1.1-2.1-1.8c-0.3-0.3-0.6-0.6-1-1c-1.2-1.3-2.6-2.6-3-4.5c0.5-5.7,5.1-9.6,6.7-14.8c0.5-1.3,1-2.5,1.5-3.8
		c0.3-0.9,0.6-1.7,1-2.5c2.1-6.2,5.6-11.8,8.9-17.7c-5.7-2.4-11.1-0.7-16.2-1.9c-4.1-1.9-8.7-1-13-2.1c-5.7-2-11.4-2.1-17.1,0
		c-2.8,0.9-5.7,1.8-8.7,1.2c-6.4-1.6-7.4-6.5-6.2-13.4c-11.7,4.2-21.1,10.6-32.2,12.4c-8.4,1.4-9,0.9-7.8-8.6
		c0.1-4.1,0.1-8.1,0.2-12.2c11.1-19.5,20.2-39.8,26.5-61.3C417.9,179.4,420.5,177.2,422,174.2z"/>
	<path class="st4" d="M516.2,106.4c10.2-3.8,19.6-9.7,30.2-12.7c8.3-2.3,8.6-2.5,11.1,5.8c2.3,7.6,4.1,15.3,6.1,22.9
		c0.6,3.4,0,7,2,10.2c2.4,19.5,3.1,39,2.3,58.7c-0.4,9.3-1.7,18.5-3,27.7c-0.1,0.4-0.2,0.8-0.2,1.2c-0.1,0.7-0.2,1.4-0.3,2
		c-7,0.4-8.5-4.1-8.6-9.7c0.1-0.7,0.1-1.4,0.2-2.2c-1.7-4.6-0.7-9.2,0.2-13.8c4.7-26.6,3.8-52.9-3.5-78.9c-3.6-12.6-7.2-14-18.4-7.5
		c-16.2,9.5-29.8,22.1-42.1,36.2c-2.8,3.3-5.4,6.8-10,7.8c-4.9-1.8-9.8-3.7-14.7-5.4c-5.5-1.9-4.4-4.6-1.3-7.8
		c9.4-7,18.7-14,28.1-21c0.7-0.6,1.5-1.2,2.2-1.7c0.7-0.1,1.3-0.3,1.8-0.6c0.7-0.3,1.3-0.8,1.8-1.5l0.1-0.1c0.8-0.7,1.5-1.4,2.5-1.8
		c0.6,0,1.1-0.2,1.6-0.6c0.7-0.4,1.4-1,2-1.6l0,0c0.7-0.8,1.5-1.5,2.6-1.8c0.5,0,1-0.1,1.4-0.4c0.7-0.6,1.5-1.3,2.4-1.7
		c0.6,0,1.1-0.2,1.6-0.5c0.7-0.5,1.4-1,2.1-1.6L516.2,106.4z"/>
	<path class="st5" d="M496.4,118.3c-0.7,0.6-1.5,1.1-2.2,1.7C494.9,119.4,495.6,118.9,496.4,118.3z"/>
	<path class="st5" d="M500,116.2c-0.6,0.5-1.2,1-1.8,1.5C498.8,117.2,499.4,116.7,500,116.2z"/>
	<path class="st5" d="M502.6,114.4c-0.8,0.6-1.7,1.2-2.5,1.8C500.9,115.5,501.7,115,502.6,114.4z"/>
	<path class="st5" d="M506.1,112.2c-0.7,0.5-1.3,1-2,1.6C504.8,113.3,505.5,112.8,506.1,112.2z"/>
	<path class="st5" d="M508.7,110.4c-0.9,0.6-1.7,1.2-2.6,1.8C507,111.7,507.8,111,508.7,110.4z"/>
	<path class="st5" d="M512.5,108.4c-0.8,0.6-1.6,1.1-2.4,1.7C510.9,109.5,511.7,108.9,512.5,108.4z"/>
	<path class="st5" d="M516.2,106.3c-0.7,0.5-1.4,1.1-2.1,1.6C514.8,107.4,515.5,106.8,516.2,106.3z"/>
	<path class="st6" d="M172.6,521.9c7.1-3.3,13.1-8.2,22-8.6c7.8-0.4,13.9,0.7,20.4,4.6c3.6,2.2,7.9,3.1,12.4,1.1
		c3.1-1.4,6.5-1,9.8-0.2c2.4,0.6,5.2,2.5,6.8-1.2c1.3-3-1-7.7-4.3-9c-0.9-0.4-2-0.2-2.9-0.5c-6.9-1.9-9.2-5-8.1-12.4
		c2-13.8,4.8-27.3,11.8-39.6c-1.2-2-0.6-4,0.1-6c0.4-1.2,0.8-2.3,1.3-3.5c0.9-2.3,1.8-4.6,2.9-6.8c0.5-1.1,1.1-2.2,1.7-3.4
		c1.5-2.6,2.7-5.4,5.5-6.8c1.3-0.3,2.4,0,3.3,1.1c0.4,0.7,0.6,1.5,0.6,2.3c-0.1,1.2-0.4,2.3-0.9,3.4c-0.3,0.7-0.6,1.4-1,2
		c-0.5,1-1,1.9-1.4,2.9c-0.2,0.7-0.5,1.4-0.8,2c-0.4,1.1-0.7,2.1-1.1,3.2c-0.6,1.8-1.3,3.6-1.9,5.4c-0.2,1.2-0.2,2.3,0.1,3.4
		c4.4,7,12.6,8.2,18.9,12.1c1.1,0.5,2.2,1.1,3.4,1.5c1.1,0.4,2.2,0.8,3.2,1.3c1.1,0.4,2.1,0.8,3.2,1.1c1.1,0.3,2.1,0.7,3.1,1.1
		c1,0.3,2.1,0.7,3.1,1c1.1,0.3,2.1,0.6,3.1,1c1.1,0.3,2.1,0.6,3.2,0.8c1.5,0.3,2.9,0.6,4.4,1c1.1,0.3,2.2,0.6,3.4,0.8
		c1.5,0.3,3.1,0.7,4.6,1.1c1.2,0.3,2.3,0.6,3.5,0.9c1.6,0.3,3.2,0.7,4.8,1.1c1.3,0.2,2.5,0.5,3.8,0.7c2.7,0.4,5.3,0.6,8,1.1
		c1.4,0.2,2.8,0.4,4.2,0.6c3.4,0.4,6.9,0.5,10.3,1.4c3.5,1.2,6.7,2.8,9.7,4.9c9.7,6.7,10.6,12.7,2.4,22.9c6.8,1.2,13.2,2.9,19.7,2.8
		c18.5-0.1,37.1,2.9,55.6-1.4c4.5-1,9.5-1.4,13.9-0.3c14.1,3.7,25.8-2.9,37.9-8c6.4-2.7,10.2-7.3,10.5-14.4c0.1-1.8,0.1-3.7-0.4-5.5
		c-0.3-0.9-0.5-1.8-0.7-2.7c-0.7-5-2.3-9.7-3.6-14.5c-0.9-3.1-0.7-6.4-1.9-9.5c-0.3-1.4-0.4-2.8-0.3-4.3c0.3-2,1-3.7,2.9-4.6
		c1-0.1,1.9,0.2,2.6,0.8c1.1,1,1.9,2.1,2.6,3.3c0.5,0.8,0.9,1.6,1.3,2.5c5.4,7.5,8,15.7,8,25.1c0,6.5,0.9,13.3,5.1,18.9
		c4.7,6.2,8.2,6.6,13.9,1.2c2.9-2.7,5.3-6.1,8.8-8c6.6-3.5,6.6-8.1,3.3-14c-6.6-11.8-14.7-22.9-19.2-35.9c-0.6-0.7-1.1-1.4-1.6-2.2
		c-0.6-0.7-1.1-1.4-1.6-2.1c-2.1-2.9-5.2-5.2-5.2-9.2c0.2-0.9,0.7-1.7,1.4-2.3c0.9-0.4,1.8-0.4,2.8-0.2c0.9,0.3,1.7,0.8,2.5,1.4
		c4,3.5,7.5,7.5,11.6,10.9c8.8,7.6,15.1,16.8,17,28.6c0.5,3.3,1.9,6.4,3.5,9.3c2.3,4.3,5.4,6.6,10.6,4.9c3.5-1.2,7.1-1.7,10.8-1.4
		c4.6,0.3,8.4,2.1,10.2,6.7c1.8,4.7,1.3,9.2-2,13.1c-2.8,3.4-6.8,5.3-10.6,7.3c-5.4,2.7-9.6,6.6-14,10.9c-9,8.9-19.8,15.1-32.8,17.4
		c-21.8,3.7-44,6.1-64.8,14.4c-5.3,2.1-10.9,3-16.4,4.2c-6.8,1.4-13.1,2.8-19.1,7.4c-6,4.6-14.6,3.7-22.1,4.2
		c-9.9,0.7-20,1.5-29.5-3c-2.4-1.1-5.1-0.8-7.8,0.2c-13.9,5.4-28.2,3-42.4,2.1c-22.7-1.4-44.3-7.7-65.8-14.6
		c-1.6-0.5-3.3-0.4-4.9-0.5c-1,0-2.1-0.1-3.1-0.2c-19-5.7-37.7-12.3-55.4-21.2C177.3,528,173.3,526.6,172.6,521.9z"/>
	<path class="st7" d="M242.5,450.2c-0.7,2-1.4,4-2,6c-3.4-2-7-3.9-10.2-6.2c-6.4-4.4-6.9-6.9-1.6-12.8c12.3-13.6,25.9-25.7,41.1-36
		c3.6-2.5,6.3-2.2,10-0.5c8.1,3.7,15.9,8.4,25.4,7.5c1.7-0.2,3.5,0.2,4.9-0.4c6.9-2.6,13.7-1.6,20.5,0.5c9.8-2.1,16.9-8.5,23.6-15.1
		c10.5-10.2,10.5-10.4,19.1,1c-1.2-1.7-2.1-3.4,0.4-4.8c8.3,0.1,15.1,4.8,22.1,8.3c12.2,6,24.2,8.7,37.4,3.7c9.4-3.6,17.2-1,24,6.6
		c12.1,13.5,22.1,27.9,25,46.3c0,1.3,0,2.7,0,4c0.1,7.5-6.2,9.1-11,11.2c-26.2,11.3-53.6,17.8-82,20.2c-5.6,0.5-11.3,0.5-16.9,1.5
		c-12.4,2.1-24.4,0-35.9-4.8c-4,0-8,0-12,0c-0.6-0.7-1.4-1.2-2-2c-3.3,0-6.6,0-10,0c-0.6-0.7-1.4-1.2-2-2c-2,0-4,0-6,0
		c-0.6-0.7-1.4-1.3-2-2c-2,0-4,0-6,0c-0.6-0.7-1.4-1.3-2-2c-2,0-4,0-6,0c-0.6-0.7-1.4-1.3-2-2c-1.3,0-2.7,0-4,0
		c-0.6-0.7-1.4-1.3-2-2c-1.3,0-2.7,0-4,0c-0.6-0.7-1.4-1.3-2-2c-1.3,0-2.7,0-4,0c-0.6-0.7-1.4-1.3-2-2c-6.8-1.5-12.5-5.4-18.6-8.4
		c-3-1.5-5.2-3.9-5.4-7.6c0.7-0.6,1.3-1.4,2-2c0.7-2.7,1.3-5.3,2-8c0.7-0.6,1.3-1.4,2-2c0-0.7,0-1.3,0-2c0.7-0.6,1.3-1.4,2-2
		c0-0.7,0-1.3,0-2c0.7-0.7,1.3-1.3,2-2c0-0.7,0-1.3,0-2c1-3.6,2.8-6.8,4.6-9.9c-0.1,0.1-0.1,0.1-0.2,0.2c-1.7,3-3,6.2-6.4,7.7
		c-1.3,2.7-2.7,5.3-4,8c-0.7,0.6-1.3,1.3-2,2c-0.7,2.7-1.4,5.3-2,8C243.7,448.8,243.2,449.6,242.5,450.2z"/>
	<path class="st8" d="M360.4,362.1c-0.2,1.7-0.4,3.5-1.9,4.5c-7.9,5.5-16,10.7-24.7,14.8c-1.1,0.5-2.8,1-3.8,0.6
		c-3.9-1.9-6.3-5.9-11.3-6.9c-4.8-0.9-6-5.3-5.6-10.2c0.2-2.7-2.1-4.7-3.8-6.8c-7.4-8.8-7.2-20.4,1.8-27.1
		c6.4-4.7,11.1-10.6,15.5-16.5c7.2-9.7,17-13.4,28.2-14.1c6.6-0.4,13.1-0.5,19.8,1.3c4.4,1.2,9.2,0.4,13.9,0.5
		c7.1-0.8,9.4,5.5,13.5,9.2c4.1,6.6,10.7,10.9,14.8,17.5c6.8,21.7-0.5,41.7-19.2,53c-3.7,2.2-7.5,3.2-11.3,1.2
		c-8.4-4.5-16.9-9.1-22-17.8c-1.3-13.7,8.7-20.2,18.1-27.1c-10.6-6.4-24.8-6.8-39.3-1.1C351,344.2,362.2,348.9,360.4,362.1z"/>
	<path class="st9" d="M134.6,296.1c3.8-6.4,4.6-13.7,6.5-20.6c4.3-15.3,10.8-29.8,18.8-43.5c1.2-2,2.5-3.9,2.9-6.2
		c4.5-2.8,6.4-7.8,10-11.4c1.2-1.3,2.4-1.2,3.6,0c6.2,16.2,16.8,29.1,30.1,40c1.3,3.5-1,5.7-3,7.8c-3.3,3.6-5.2,6.9-0.8,11
		c4.3,4.1,7.7,1.8,11.3-1c4.9-3.9,9.7-8.3,16.9-6.4c4.5,2.5,9.1,4.8,7.5,11.3c-5.6,4.6-12.6,5.8-19.3,7.1c-8,1.6-15.1,4.8-21.3,10
		c-6.9,5.8-14.7,10-22.8,13.8c-6.9,3.2-9,7.5-4.3,14.9c5.7,9,10.5,18.7,3.8,29.5c-6-0.4-11.8,1.3-17.8,1.7c-9,0.6-10.3-0.1-13.3-8.5
		c-4.3-11.9-6.5-24.3-6.9-37C136.4,304.4,138,299.8,134.6,296.1z"/>
	<path class="st10" d="M174.5,352.3c1.2-12.4-1.2-23.7-9.9-33.1c-2.8-3.1-2.3-6.3,0.8-8.6c3.7-2.8,7.4-5.8,11.7-7.3
		c5.4-2,10.3-4.5,14.4-8.4c13.2-12.5,30.4-14.6,47-18.6c4.9-0.4,4.5,4,6.1,6.6c0.4,1.3,0.8,2.7,1.1,4c0.5,1.3,0.9,2.6,1.5,3.8
		c4.8,12.5,14,19.7,27,22.1c2.9,0.5,6,0.7,8,3.3c-1.5,3.9-5.3,4.8-8.5,6.3c-13.8,6.7-27.1,13.9-35.9,27.3c-3.3,5-8.4,4.6-13.4,4.2
		c-12.4-1.8-24.9-0.2-37.3-0.8c-3.5-0.2-7.2,0.9-10.6-0.9l-1,0.1L174.5,352.3z"/>
	<path class="st11" d="M176.4,214.3c-1.2,0-2.4,0-3.6,0c-5.5-18.2-7.3-37.2-7.3-55.9c0-16.4,0.9-33.1,6.4-49
		c2.5-7.3,4.8-8.4,11.8-5.4c13.6,5.8,25,15,35.9,24.7c7.2,6.4,14,13.2,19.6,21.2c4.3,6.2,4.4,6.2-2.9,9.7c-3.3,1.6-6.6,3.2-9.8,4.8
		c-4.5,2-7.5-0.7-10.4-3.4c-5-4.8-10.1-9.6-14.6-14.9c-0.1,0,0.2,0.3,0.6,1.1c2.9,6.5,8.7,13.2,3.9,20.3c-4.7,6.9-12.8,2.5-19.6,2.4
		c2.3,6.9,13.4,8.8,10.2,18.5c-4.1,6.1-9.9,10.6-14.9,15.8C178.8,207,176,209.8,176.4,214.3z"/>
	<path class="st12" d="M64.9,414.1c5.8-11.7,11.5-23.5,17.5-35.1c1.6-3.1,4.1-5.9,6.1-8.8c1.7,15.6,6.6,30.4,11.8,45.1
		c5.9,16.7,15.5,31.6,24.3,46.8c2.5,8.2,1.1,15.5-5,21.7c-3.7,2-6.4-0.3-8.8-2.6C90.7,462.3,74.3,440.6,64.9,414.1z"/>
	<path class="st13" d="M422,174.2c-4.6,21.3-12.9,41.2-23,60.3c-2.1,3.9-4.6,7.3-8.6,9.4c0.5-14.3-0.2-28.4-5.9-41.9
		c-1.8-4.3-3.5-8.5-6.3-12.3c-2,1.7-0.3,3.1-0.2,4.4c0.1,1.6,0.7,3.3-1.3,5.4c-6.8-10.3-10.9-21-10.3-33.3c2.3,2.5,4.7,4.4,8.5,4
		c13.3-1.2,25.8,3.9,38.8,5C416.7,175.5,419.3,175.8,422,174.2z"/>
	<path class="st14" d="M243,288.2c-0.1-1.3-0.2-2.7-0.3-4c-0.2-5.7-0.7-11.5,5.9-14.4c8-2.4,16-5.4,24,0c3,4.8,0.3,9.6,0.1,14.5
		c-0.4,7-1,14.6,6.3,18.4c3.7,1.9,7.9-6.8,8.1-17c0-1.7-0.1-3.3,0.2-5c0.7-2.5,2.3-4.4,4.3-5.9c6-3.4,9.9,0.8,14.1,3.8
		c3.5,2.6,5.4,6.6,8.5,9.5c4.2,10.8,3.1,15-5.6,21.5c-8.9,1.6-18,2.2-26.3,6.4c-20.7-0.2-31.4-7.4-38.4-25.7
		C243.6,289.6,243.3,288.9,243,288.2z"/>
	<path class="st15" d="M171.6,390.7c9.8-3.7,19.2-5.6,28.6-7.3c14-2.5,27.7-6.7,42-7.4c4.5-0.2,10,3.3,11.6,7.3
		c1.3,3.5-1.1,4.9-3.6,6c-7,2.9-14.1,5.9-21.2,8.5c-10.6,3.9-21,8.2-30.2,15c-5.9,4.4-8,4-12.3-2.1
		C181.7,404.2,175.8,398.8,171.6,390.7z"/>
	<path class="st16" d="M400.2,312.3c-3.9-3.4-7.9-6.7-11.8-10.1c0.6-6.1-2.6-12-1.7-17.7c1.1-7.3,1.5-14.5,1.6-21.8
		c0-2.3,0-4.7,2-6.5c0.9,7.7,0.8,7,6.8,5.8c10.2-2,19.2-6.8,28.3-11.4c1.5-0.7,3-1.5,4.5-1.9c2.1-0.6,3.9,0.1,5.1,2
		c1.1,1.7,0.4,3.4-0.9,4.4c-5.4,4.5-0.7,6.4,2.1,8.9c-0.2,0.7-0.5,1.3-1.1,1.7c-0.5,0.5-1.1,0.9-1.7,1.2c-0.6,0.4-1.2,0.7-1.7,1
		c-0.6,0.4-1.1,0.7-1.7,1.1c-0.5,0.4-1.1,0.8-1.6,1.2c-0.5,0.4-1.1,0.8-1.6,1.2c-0.5,0.5-1.1,0.9-1.6,1.4c-0.8,0.8-1.4,1.7-2.1,2.6
		c-2.6,3.3-5,6.7-7,10.5c-1.6,3.2-2.8,6.6-4.3,9.9c-2.8,6.2-1.2,9.9,6.1,10.3c1.8,1.1,3.8,2.2,2.1,4.8
		C413.5,314.5,406.9,314.7,400.2,312.3z"/>
	<path class="st17" d="M256.7,391c4.6-0.2,6.3,2.7,7.9,5.7c1.7,3.2-0.4,5.1-2.4,6.7c-5.9,4.8-11.7,9.8-18,14
		c-8.4,5.7-14.1,13.9-20.9,21.1c-3,3.2-5.7,4.1-9.1,0.4c-5-5.2-12.1-8.2-15.4-15.3c-1.1-2.2-2.6-4.4-0.1-6.1
		C216.7,405.4,236.6,397.3,256.7,391z"/>
	<path class="st18" d="M172.6,521.9c12.8,7.5,26.6,12.9,40.4,18.2c7.7,2.9,15.5,5.5,23.2,8.3c3.1,6.3-1.8,7.5-5.9,8.5
		c-5.5,1.4-11.2,1.1-16.7,0.5c-20.1-2.1-39.8-5.9-58.3-14.3c-3.7-1.7-8.4-1.4-11.1-5.3c4.1-8,9.8-14.8,15.6-21.5
		c2.3-1.2,3.5,0.3,4.9,1.8C167.3,519.3,169.9,520.6,172.6,521.9z"/>
	<path class="st19" d="M360.4,362.1c-4.3-9-8.2-18.2-19.5-20.8c-1.7-0.4-3.5-2.3-3.1-4.6c0.3-2.2,2.2-3.4,4.1-3.9
		c13.7-3.4,27.5-3.6,41.1,0.2c2.1,0.6,4.3,2.1,4.4,4.8c0,2.3-1.7,3.8-3.6,4.3c-11.7,2.8-14.6,13.2-19.4,22.1c2,3.3,3.1,6.9,3.1,10.8
		c0.2,1.2,0.3,2.5,0.5,3.8c0.4,1.9,1.1,3.7,1.9,5.4c0.4,0.6,0.7,1.3,1,1.9c0.2,0.3,0.3,0.6,0.5,1c0.3,0.6,0.6,1.3,0.7,2.1
		c0,0.4,0,0.7,0,1.1c2.3,2.8,4.5,5.6,7.8,9.6c-8.4-2.1-10.8-9.9-17.6-12.8c-8.5,9.5-18.6,17.4-30,23.7c-3.9,2.1-2.7-0.5-2-2.5
		c5.8-3.7,11.9-7.1,17.3-11.3c9.8-7.7,15.8-17.5,14.5-30.6C362.2,364.7,361.8,363.2,360.4,362.1z"/>
	<path class="st20" d="M156.6,370.1c-2-3.9-7.7-7.4-4.7-12c2.4-3.7,8.1-1.7,12.2-1.6c22.1,0.6,44.2,2.3,66.6,1.7
		c-4,14.1-7.1,17.1-18.2,18.1c-8.8,1.6-17.7,1.2-25.8-2.6C176.9,369.1,167.5,364.5,156.6,370.1z"/>
	<path class="st21" d="M164.7,518c-1.4-0.6-2.8-1.2-4.1-1.8c-0.5,0-0.9,0.1-1.4,0.1c-0.9,0-1.8-0.1-2.7-0.4
		c-11.8-6.1-22.4-13.8-32-22.9c-0.6-0.6-1.2-1.2-1.7-1.8c-0.3-0.3-0.5-0.6-0.8-0.9c-0.6-0.6-1-1.2-1.5-1.8c-0.2-0.3-0.5-0.6-0.7-0.9
		c-0.5-0.6-0.8-1.3-1.1-2.1c0-0.4-0.1-0.8-0.1-1.2c2.7-7.2,4.7-14.6,6.1-22.1c5.5,7,11.1,14,16.6,21c6.2,8,14.9,13.2,22.1,20
		c5.7,5.4,6.1,4.9,2,11.9C164.8,515.9,164.9,517,164.7,518z"/>
	<path class="st22" d="M316.1,196.5c6.1,0,12-1,17.3-3.9c5-2.7,11-1.8,15.9-5c1.9,3.2,0,8.3,5.3,8.9c-0.7,2.9-1.8,5.6-5.1,6.4
		c-2.6-2.6-0.3-6-2.4-9.2c-7.2,13.6-9.1,27.9-9.2,42.7c-3.6,0.2-4.3-2.3-5.5-4.1C325.3,221.2,319.7,209.3,316.1,196.5z"/>
	<path class="st23" d="M196.5,188.2c-0.5-5.6-5.5-8-8.7-11.6c-1.5-1.7-3.4-3.1-5.2-4.6c-1.7-1.4-2.5-3.3-1.5-5.2
		c1-1.9,2.9-0.9,4.4-0.6c2.3,0.4,4.5,1.3,6.7,1.6c4.2,0.5,9.4,2.3,12.1-1.5c2.2-3.1,0.2-7.6-1.5-11.2c-2.4-5-4.9-10-7.6-15.4
		c3.6-1,4.8,1.3,6.2,2.8c5.7,5.5,11.2,11.2,16.9,16.8c2.3,2.3,4.4,5.1,8.1,5.1C214.7,170,205.1,178.4,196.5,188.2z"/>
	<path class="st24" d="M156.6,370.1c0.6-0.3,1.2-0.6,1.7-1c9.6-8.3,9.4-8,21-1.7c10.3,5.5,21.6,7.9,33.1,8.9
		c-13.1,3.3-26.1,6.7-39.2,9.8c-4.4,1-7.8-1-10.1-4.8C160.9,377.5,158.8,373.8,156.6,370.1z"/>
	<path class="st25" d="M272.5,272.4c-5.3-3.8-11.1-1.9-16.7-1.5c-2.5,0.2-5,0.9-7.5,1.4c-2.4-3.6-0.1-5.6,2.4-7.7
		c18.5-3.8,36.7-5.2,52.7,8c3.9,3.2,7.5,6.5,9.5,11.2c0.6,1.6,0.9,3.1-0.3,4.6c-5.4-3-8.6-8.7-14.3-11.6c-2.3-1.2-4.1-1.5-6.2-0.2
		c-0.4,0-0.7-0.1-1.1-0.1c-0.8,0-1.5-0.1-2.2-0.3c-1.9-0.4-3.9-0.6-5.8-1C279.6,273.8,275.7,274.2,272.5,272.4z"/>
	<path class="st26" d="M230.8,266.5c-7.1-1.2-10.2,5.3-15.3,8c-3.1,1.6-4.7,6.4-9,5.2c-4.6-1.3-7.2-5.7-10.3-9
		c-2.1-2.3-0.7-4.2,1-6.1c3.1-3.5,7-6.2,9.3-10.3c0.3,0.1,0.7,0.2,0.9,0.4c10.4,8.2,22.2,11,35.2,9.7
		C239.7,271,235.3,268.6,230.8,266.5z"/>
	<path class="st27" d="M230.8,266.5c3.9-0.7,8.2,0.5,11.8-2.1c2.7,0.1,5.4,0.1,8,0.2c-0.8,2.6-1.6,5.1-2.4,7.7
		c-3.8,3.1-2.8,8.4-5.5,12.1c-1.8-2.5-1.7-6-4.3-8C237.2,272,232.9,270.1,230.8,266.5z"/>
	<path class="st28" d="M312.5,288.3c0.1-1.5,0.2-3,0.3-4.6c3.1,2.3,4.2,5.8,5.5,9.1c5.8,14.4,5.6,14.7-9.9,16.9
		C312.8,303.2,315.7,296.3,312.5,288.3z"/>
	<path class="st9" d="M176.5,352.3c12.8,0,25.7-0.1,38.5,0c3.2,0,6.7-0.9,9.4,1.7c-13.5,0-27,0-40.4,0
		C181.3,354,178.6,354.3,176.5,352.3z"/>
	<path class="st22" d="M356.2,194.1c0-1.6,0.5-3,1.9-3.9C358.2,191.9,357.7,193.2,356.2,194.1z"/>
	<path class="st22" d="M358.5,188.5c-0.2-1.7,0.2-3.2,1.7-4.2C360.4,185.9,359.9,187.4,358.5,188.5z"/>
	<path class="st29" d="M88.7,366.3c0.6-0.7,1.2-1.4,1.8-2.1C90,364.9,89.4,365.6,88.7,366.3z"/>
	<path class="st22" d="M354.5,196.4c0.6-0.8,1.1-1.5,1.7-2.3C356.1,195.3,355.6,196.1,354.5,196.4z"/>
	<path class="st22" d="M314.6,194.2c0.5,0.8,1,1.5,1.5,2.3C315.1,196,314.7,195.3,314.6,194.2z"/>
	<path class="st30" d="M570.3,231.9c10.7,20.4,20,41.2,23.9,64.2c7,18.3,1.6,35.7-4.4,52.9c-1.1,3.2-3.5,5.6-7,6.5
		c-10.5-3.8-16-13.3-23-20.9c-3.5-3.8,1.2-7.9,3.8-11.2c7.4-9.4,7-10.1-2.8-16.7c-9-6-20.2-8.9-26.7-18.5c-5.5-4.8-5.1-9.3-0.8-15.2
		c4.8-6.5,3.6-10-2.9-15.8c-4.8-4.2-5-5.5-0.1-9c10.4-7.5,16.3-18,21.2-29.4c1-2.4,1.4-5.2,4.2-6.3c3.1,3.1,4.3,7.7,8.6,9.7
		C566.2,225.5,567.4,229.3,570.3,231.9z"/>
	<path class="st30" d="M564.6,220.2c-0.2-0.5-0.2-0.9,0.2-1.2c0,0,0.2,0.7,0.2,0.7L564.6,220.2z"/>
	<path class="st31" d="M627.9,192.3c-0.8,0.6-1.6,1.2-2.4,1.8C626.4,193.5,627.1,192.9,627.9,192.3z"/>
	<path class="st31" d="M629.8,190.7c-0.6,0.5-1.2,1.1-1.8,1.6C628.6,191.7,629.2,191.2,629.8,190.7z"/>
	<path class="st31" d="M633.9,188.5c-0.7,0.6-1.4,1.1-2.1,1.7C632.5,189.6,633.2,189.1,633.9,188.5z"/>
	<path class="st32" d="M534.1,288.2c12.4,6.2,24.1,13.7,36,20.9c4.2,2.5,4.2,5.1,1.5,8.9c-2.7,3.8-5.6,7.4-8.9,10.7
		c-2.8,2.7-2.5,5,0.7,7.3c6.8,4.9,12.8,10.5,16.7,18.1c-2.3,3.1-5.7,3.1-9,3c-24.2-0.1-48.3,0.6-72.5-0.3c-17.2-9-22-21.5-16.5-42.6
		c1.6-0.5,3.4-0.6,4.7-1.4c5.8-4,11.5-3.2,17.7-0.8c8.8,3.3,8.9,2.9,14.4-4.9c2.5-3.5,4.9-7.1,6.2-11.2
		C526.5,291.2,529.4,288.7,534.1,288.2z"/>
	<path class="st33" d="M482.1,154.2c13.6-18.7,30.2-34.2,49.7-46.5c14.9-9.4,19.4-7.4,24.1,9.6c5.4,19.7,7.3,39.8,5.8,60
		c-0.8,11.1-1.8,22.4-5.9,33c-8.8-7.2-16.4-15.6-23.8-24.2c-3.8-5.7,3.7-9.4,2.9-14.6c-16.6-3-18.9-7.6-12.6-24.7
		c-3.7,4.3-7.1,9.1-11,13.3c-1.9,2.1-3.5,5-7.2,4C496.8,160.9,489.5,157.5,482.1,154.2z"/>
	<path class="st34" d="M420.5,310c-1.5-0.6-2.9-1.1-4.4-1.7c-7.7-5.1-4.6-12-3-18.7c3.7-7.1,8.6-13.2,15.7-17.2
		c3.7-2.1,7.3-3.2,10.6,0.6c2.3,4.3,1.6,8.9,1.8,13.5c0.2,4.3,0.6,8.6,3,12.3c2.7,4.2,5.6,4.4,7.9-0.4c2.7-5.8,2.7-12.1,2.4-18.4
		c0.6-3,0.7-6.1,1.2-9.2c1.7-4.6,4.6-6.8,9.8-5.9c3.5,0.6,7.2,0.4,10.6,1.5c9.2,4.9,9.3,13.1,8,21.9c-0.1,0.7-0.3,1.3-0.4,2
		c-0.5,0.8-0.9,1.6-1.2,2.4c-1,6.2-5.4,10.5-8.6,15.4c-0.1,1.6-0.9,2.9-2.1,4c-3.9,2.8-8.1,4.6-12.9,5c-3.8,0.2-7.5,0-11.3,0.3
		C438.5,315.4,428.6,316.3,420.5,310z"/>
	<path class="st35" d="M420.5,310c9.4-0.3,18.3,2.6,27.4,4.6c4.1,0.9,8.2,1.2,12.3-0.3c3.8-1.4,7.7-2.9,11.5-4.3
		c2.2-1,4.3-1.3,6.4,0.2l0,0c0.7,0.6,1.3,1.4,2,2c0.7,0.7,1.3,1.3,2,2c2.5,4.6,2.6,9.4,0.9,14.3c-1.9,5.3-0.6,9.6,3.6,13.2
		c4.1,3.4,6.5,8.2,9.5,12.4c-4.7,4.5-10,3.1-13.4-0.6c-15.7-16.7-36.5-19.3-57.4-21.7c-4-0.4-8-0.6-11.1-3.7
		c-5.5-4.6-11.7-8.5-14-16C406.6,308.6,413.8,311.1,420.5,310z"/>
	<path class="st36" d="M504.1,164.2c7.6-8.1,13.2-18,22.5-25c2.3,3.8-0.5,6.1-1.5,8.6c-1.4,3.4-3.1,6.5-3.2,10.3
		c-0.2,8.7,1.7,10.5,10.4,8.9c2.3-0.4,4.7-1.5,6.4,0.7c1.9,2.4,0.7,4.9-0.7,7.3c-2.1,3.7-5.6,6.6-6.2,11.1
		C523.1,178.4,514.2,170.5,504.1,164.2z"/>
	<path class="st37" d="M476.1,268.2c-3.6-0.2-7.4,0.2-10.8-0.7c-5-1.3-6.7,0.8-7.3,5.2c-1.5,1.3-3.3,1.7-5.2,1.5
		c-4.8-2.1-9.4,1.3-14.2,0.4c-2.5-3.2-4.9-1.7-7.7-0.2c-6.5,3.5-10.5,9.9-16.6,13.8c-1.2-1.2-1.3-2.4-0.1-3.7
		c1.7-4.6,5.3-8,8.2-11.8c0.6-1.1,1.4-1.9,2.7-2.1c0.6,0.1,1-0.2,1.2-0.7c0.7-0.5,1.4-1,2.1-1.5l-0.1,0.1c0.9-1.4,2.9-0.9,3.8-2.3
		l0.1-0.1c0.9-0.7,1.7-1.5,2.9-1.6c0.5,0.2,0.9,0,1.2-0.5c2.6-0.7,5.2-1.4,7.8-2.1c6.1-1.2,12.3-1,18.4-0.1
		c4.6,0.5,9.4-0.3,13.6,2.5C477.3,265.6,477.4,266.9,476.1,268.2z"/>
	<path class="st38" d="M476.1,268.2c0-1.3,0-2.6-0.1-3.8c7.2-0.5,14.3,0.2,23.3,1.1c-8.1,7.2-11.4,15.2-15.2,22.8
		C482,281.4,481.8,273.7,476.1,268.2z"/>
	<path class="st39" d="M462.4,261.9c-6.1,0-12.3,0-18.4,0.1C450.1,258.8,456.2,259.6,462.4,261.9z"/>
	<path class="st32" d="M478.1,310.3c-2.1-0.1-4.3-0.1-6.4-0.2c0.7-0.6,1.5-1.3,2.2-1.9C475.6,308.3,477.2,308.7,478.1,310.3z"/>
	<path class="st32" d="M480.1,312.2c-0.7-0.7-1.3-1.3-2-2C478.8,310.9,479.4,311.6,480.1,312.2z"/>
	<path class="st38" d="M482.6,292.7c-0.1-1.1,0.3-1.8,1.2-2.4C483.9,291.3,483.5,292.1,482.6,292.7z"/>
	<path class="st40" d="M705.8,622.2c0.8,3.5,1.1,6.8,0.5,10.6c-1.1,6.4-1.2,13.2,0.2,19.6c1,4.7,1.2,8.9,0,13.5
		c-1.4,5.4-0.6,11.1-0.3,16.7c1,1.4,1,2.9,0.4,4.5c-10.3,10.4-23,15.6-37.3,17.3c-7.2-4.4-14.3-9-22.9-10.4
		c-3.3-0.6-5.7-3.1-6.7-6.6c-0.7-2.6-0.4-5.1,0-7.7c1.7-12.2,1.6-12.2-9.8-14c-3.7-1.9-6-5.1-7.9-8.6c-3.2-5.7-2.9-11.1,3.2-14.4
		c10.8-5.8,20.1-13.5,29.5-21.2c5.7,0.4,10.1-2.5,14.5-5.5c4.6-3.1,9.1-6.9,15.4-6C692.8,611.9,699.6,616.4,705.8,622.2z"/>
	<path class="st41" d="M701.5,570.3c0.9,6,1.8,11.9,2.8,17.9c-1.4,11.4,2.9,22.6,1.5,34c-8.7-0.2-13.8-8.6-21.9-10
		c-3.9-1.6-7.9-2.8-10.7-6.6c-6.9-9.5-6.4-13.9,3.4-20.2c5.4-3.4,10.1-7.6,15.2-11.3C694.6,572.1,697.3,569.1,701.5,570.3z"/>
	<path class="st42" d="M414.2,328.2c20.5,1.7,41.6,1,59.6,13.7c2.7,1.9,5.4,3.9,7.4,6.5c3.9,4.9,8.9,6.5,14.9,5.7
		c28,0,56-0.1,84-0.1c5.3,0,6.4-4.3,7.5-8c3.6-11.7,6.7-23.6,6.4-36c-0.1-4.6,0.1-9.3,0.2-13.9c0.5,0.1,1,0.1,1.6,0.1
		c13.9,22.1,27.4,44.5,39.5,67.8c7,13.5,13.6,27.2,20.4,40.8c0.8,6.8,6.1,12.1,6.3,19.2c-10.5,18.8-24.5,34.7-40.1,49.3
		c-0.6,0.6-1.2,1.2-1.8,1.8c-0.6,0.6-1.2,1.1-1.8,1.6c-0.3,0.3-0.6,0.5-0.9,0.8c-0.5,0.5-1.1,1.1-1.7,1.6c-0.3,0.3-0.6,0.5-0.8,0.8
		c-0.5,0.5-1.1,1-1.7,1.5c-0.6,0.5-1.2,0.9-1.8,1.3c-0.9,0.6-1.8,1.3-2.7,2c-0.5,0.5-1.1,1-1.7,1.5c-0.5,0.6-1.1,1.1-1.6,1.6
		c-0.3,0.3-0.5,0.6-0.8,0.9c-0.5,0.6-1.1,1.2-1.7,1.8c-0.3,0.3-0.6,0.6-0.9,0.9c-0.6,0.6-1.3,1.2-1.9,1.8
		c-6.9,5.4-13.6,10.9-20.9,15.6c-13.3,8.5-26.7,17-40.9,24.2c-0.8,0.5-1.7,1-2.5,1.4c-0.9,0.5-1.8,0.9-2.7,1.2
		c-23.1,11.9-46.9,22.2-72,29c-14.5,4.1-29.4,6.5-44.3,6.8c-51.1,1.1-102.4,4.6-153-7c-6.8-1.6-13.5-3.5-19.7-6.9
		c-3.3-1.8-7.7-3.5-5.3-8.9c7.5-0.1,14.4,2.5,21.2,4.8c14.8,5,29.9,7.9,45.5,9.6c10.6,1.1,21.1,1.4,31.7,1.6
		c5.3,0.1,10.6,0.5,14.8-4.1c2.8-3.1,6.6-1.5,9.2,0.2c10.2,6.3,21.3,3.8,32,3.5c4.5-0.1,9-1.9,13.7-1.7c1.6,0.1,4.2,0.2,4.2-1.7
		c0.2-7.3,5.7-5.4,9.9-6.5c10.5-2.7,21.2-4.2,31.6-8.3c10-3.9,21.1-5.3,31.5-9c1.2-0.4,2.9-0.8,3.9-0.3c6.6,3,12.2,0.2,17.9-2.8
		c1.1-0.6,2.8-1.3,3.8-0.9c8.3,3.4,13.8-2.3,19.9-6c5.8-3.5,13.4-4.7,15.4-13c0.7-2.8,3.7-3.6,6.1-4.8c4.7-2.5,9.6-4.6,14.2-7.3
		c4.8-2.9,6-7,4.5-12c-1.5-4.8-5-5.6-9.4-5.4c-3.3,0.1-6.4,0.5-9.5,2.2c-5.8,3.1-8.7,1.9-12.3-3.8c-2.6-4.3-5.1-8.9-5.5-13.8
		c-1-10-5.8-17.4-13-23.9c-1.4-1.3-2.5-3.1-3.7-4.7c-1.2-4.2,2.2-5.9,4.5-8c6.9-6.3,13.4-12.9,19.8-19.6c5.1-5.4,4.8-7-2.3-9.5
		c-13.8-4.8-27.5-9.6-41.6-13.7c-3.2-0.9-6.4-2-9.7-0.7c-9.1,3.5-10.3,11.6-2.5,17.8c4.9,4,9.9,7.8,14.7,11.9
		c2.9,2.5,6.5,4.9,5.2,9.8c-0.7,0.7-1.3,1.3-2,2c-5.3,1.3-7.8-2.8-10.6-5.7c-6.8-6.9-14.4-12.6-22.2-18.3c-2.8-2.1-5.6-4.9-9.9-3.4
		c-1.3,3.3,1.5,4.8,3.1,6.5c7.2,7.9,12.8,16.9,18.2,26c2.6,4.4,5.9,9,3.4,14.8c-1.5,0.9-1.9,2.4-2,4c-8.6-16.7-15.5-34.5-30.2-47.4
		c-3.8-3.3-7.7-6.1-12.4-3.9c-23.5,11-42.9-0.9-62.6-10.9c-1.4-0.7-3.1-1.2-4.6-1.7c0,0,0,0,0,0c-0.6-0.7-1.3-1.3-2-2l0,0
		c-0.7-0.6-1.3-1.3-1.8-2c-1.1-1.8-2.2-3.7-2.3-5.9c-0.6-0.6-1.1-1.3-1.5-2.1c-0.1-4.7-0.2-9.3-0.4-14c6.4,4.7,12.8,9.4,19.1,14.2
		c5.3,4.1,10,4.8,14.6-1c1.4-1.8,3.3-3.9,5.3-4.4c6.3-1.5,9.3-6.6,9.7-11.5C414,350.5,417.3,339.4,414.2,328.2z"/>
	<path class="st43" d="M617.8,474.2c11.3-12.4,23-24.5,33.2-37.9c3.3-4.3,5-10.2,10.9-12.3c6.4,7.9,7.6,18,11.8,26.8
		c1.1,2.4,1.8,4.9,2.7,7.4c2,7.3,4.8,14.4,5.6,22c-1.2,6-5.7,9.7-10.2,12.7c-6.7,4.5-14.1,7.8-22,9.9
		C641,491.1,629.9,482.2,617.8,474.2z"/>
	<path class="st44" d="M691.8,770.2c-1.4,9-6.8,16.9-8.1,25.9c-4.5,9-8.9,18.1-13.5,27.1c-2.3,4.7-4.6,9.4-8.5,13
		c-4.6,3.3-9.8,3.8-15.3,2.9c-8.7-3.1-19.1-0.4-26.8-7.3c1.7-6.8,8.2-7.5,13-8.8c18.1-5.1,28.2-17.5,34.1-34.4
		c1.4-4,2.5-8.3,5.6-11.5C678.3,773.1,684.3,769.4,691.8,770.2z"/>
	<path class="st45" d="M645.9,836.2c5.3,0,10.5,0.1,15.8,0.1c-4.8,10.3-12.1,18.7-19.9,26.8c-2.7,2.8-5.5,5.7-8.2,8.5
		c-11.2,6.6-21.5,14.5-33.6,19.6c-5.2,2.2-10.2,4.9-16,5.1c-3.1-4.9,0.6-7.6,3.6-9.8c18.7-13.3,36.6-27.4,50.7-45.8
		C640.3,838.3,643,837.1,645.9,836.2z"/>
	<path class="st46" d="M238.5,548.2c0.2,3.2,2.6,4.3,5.1,5.4c13.4,6,27.7,8.2,42.1,10.7c41.2,7,82.6,3.4,123.9,3.6
		c17.7,0.1,35.5-2.8,52.7-7.6c3.7,4.7,8.5,5.5,14.2,5c24.8-2,48.9-7.1,72.5-15.2c19.6-7.1,38.9-15.1,58.1-23.5c1-0.3,2-0.4,3-0.4
		c7.8,2.1,4.4,7,2.1,10.6c-7,11-16.5,19.7-26.9,27.4c-11.2,7.3-21.9,15.6-35.4,18.6c-2.2,0-3.5,1.6-5,3c-8.8,8-9.7,7.9-17.1-0.8
		c-5.6-6.6-9.8-6.9-15.7-0.7c-6.6,6.9-11.4,14.8-12.3,24.5c-1.4,15.9-10.3,24.6-25.1,29.9c-25.7,9.1-52.5,11.6-79.2,14.6
		c-2,0.2-4,0.2-6,0.4c-19.7,2.3-23.8,6.2-26.6,25.6c-0.4,3-0.8,5.9-1.1,8.9c-1.4,14.2-6.1,19.7-20.3,18.6
		c-34.8-2.8-69.7-5.8-102.2-20c-9.5-4.1-18.8-8.8-22.7-19.6c-1-2.8-3.2-4.1-6.3-3.5c-5.9,1.2-11.1-1.2-16.5-2.9
		c-21.2-3.5-42.3-7.6-62.5-15.5c-4.6-1.8-9.3-3.4-13.8-5.7c-3.8-1.9-9.3-4-8.5-8.5c0.9-5.3,6.9-3.5,10.9-4
		c15.7-0.9,31.8,1.7,47.5-4.6c-12.1-4.8-23.7-10.1-35-16.1c-8.1-5.8-18.7-9.1-20.6-21c2.3-4.6,6.5-4,10.4-3.5
		c12.5,1.8,25.1,0.7,38.1,1c1.2-2.7-3.2-4.6-1.1-7c1.9-2.2,4.6-2.6,7.3-2.5c7.3,0.3,14.5,1.7,21.7,2.7c6.5,0.9,12.9,1.3,20.1,0
		c-3.5-3.6-7.3-3.9-10.7-4.8c-11.6-3.1-22.1-8.9-32.5-14.8c-4.9-2.8-9.2-6.6-11.9-11.7c-0.8-1.6-2.8-4.4,1.5-4.7
		c13.4,4,26.4,9.2,40.3,11.2c11.2,1.6,22.3,3.6,33.7,3c4-0.2,7.3-1,7.6-5.9C236.9,548.3,237.7,548.3,238.5,548.2z"/>
	<path class="st1" d="M336.3,486.2c33.2,4.1,65.8,0.1,97.9-8.1c13.7-3.5,27.7-6.8,40.2-14c2.8-1.6,6.2-2.5,7.7-5.9
		c3.1,2.8,1.6,6.6,2,10c1.7,5.2,1.2,11,4,16c1.2,1.1,0.7,3,2,4c-0.3,13-3.9,18.2-16.1,21.5c-4.6,1.2-8.9,2.4-12.3,5.9
		c-2.9,3-6.7,3.2-10.2,2.3c-15.6-4-30.8-1-46.1,1.6c-1.9,0.3-4.1,1-5.9,0.4c-9.8-3-19.8-1.1-29.6-1.7c-10.1-0.6-20.1-2.2-29.7-5.5
		c0.8-3.6,3.3-2.2,4.9-2.6c4-0.9,6.5-3.2,7.2-7.3c0.7-4-0.6-7.3-4-9.5C344.2,490.9,340.3,488.6,336.3,486.2z"/>
	<path class="st47" d="M504.1,428.2c-4.8-7.9-13.2-11.8-19.8-17.8c-3.6-3.4-9.1-5.7-10.9-9.8c-2.5-5.6,5.8-6.6,7.6-11.3
		c1.9-5,6.4-5.4,11.7-4c14.4,3.8,28.3,9.3,42.5,13.6c3.2,1,6.3,2,9.4,3.2c5.7,2.3,6.4,4.1,2,8.3c-9.5,9.2-17.8,19.7-28.8,27.3
		c-0.8,0.5-1.2,1.6-1.8,2.4c-4.1-2.5-7.4-5.9-10-10C505.4,429.5,504.8,428.9,504.1,428.2L504.1,428.2z"/>
	<path class="st42" d="M510.1,440.2c7,15.4,16.7,29.2,24.2,44.4c1.3,2.7,1.9,5.5-0.9,7.1c-6.6,3.8-11.8,9.2-17.4,14.4
		c-6.3,5.9-16.3,0.9-19.3-9.3c-1.2-4.1-2.7-8.5-2.3-12.6c1-10.6-2.5-19.5-8.3-27.9C493.8,450.4,502,445.4,510.1,440.2z"/>
	<path class="st48" d="M510.1,440.2c-5.4,9.2-13.7,14-24,16c0-0.7,0-1.3,0-2c-0.7-0.6-1.2-1.4-2-2c0-0.7,0-1.3,0-2
		c-6-16-15.3-29.9-27.1-42.2c-1.6-1.7-5-3.2-2.9-6.4c2-3.1,5.2-4,8.7-2.8c2.5,0.8,4.6,2.4,6.8,3.9c11.7,8.1,21.8,18.1,32.4,27.5
		c2,2.7,4,5.3,6,8C508.8,438.8,509.3,439.6,510.1,440.2L510.1,440.2z"/>
	<path class="st42" d="M488.1,484.2c-5.1-4.4-3.8-10.4-4-16C487,473.2,488.2,478.5,488.1,484.2z"/>
	<path class="st1" d="M260.4,420.2c-0.9,4.5-2.7,8.6-6,12c-0.7-0.7-1.3-1.3-2-2C255.1,426.9,256.4,422.4,260.4,420.2L260.4,420.2z"
		/>
	<path class="st42" d="M490.1,488.2c-1.5-0.9-1.9-2.4-2-4C489.6,485.1,490,486.6,490.1,488.2z"/>
	<path class="st1" d="M322.3,484.2c0.7,0.7,1.3,1.3,2,2C323.7,485.6,323,484.9,322.3,484.2z"/>
	<path class="st1" d="M310.4,482.2c0.7,0.7,1.3,1.3,2,2C311.7,483.5,311,482.9,310.4,482.2z"/>
	<path class="st1" d="M302.4,480.2c0.7,0.7,1.3,1.3,2,2C303.7,481.6,303,480.9,302.4,480.2z"/>
	<path class="st1" d="M294.4,478.2c0.7,0.7,1.3,1.3,2,2C295.7,479.6,295,478.9,294.4,478.2z"/>
	<path class="st1" d="M286.4,476.2c0.7,0.7,1.3,1.3,2,2C287.7,477.5,287.1,476.9,286.4,476.2z"/>
	<path class="st1" d="M280.4,474.2c0.7,0.7,1.3,1.3,2,2C281.7,475.6,281.1,474.9,280.4,474.2z"/>
	<path class="st1" d="M274.4,472.2c0.7,0.7,1.3,1.3,2,2C275.7,473.6,275.1,472.9,274.4,472.2z"/>
	<path class="st1" d="M268.4,470.2c0.7,0.7,1.3,1.3,2,2C269.8,471.6,269.1,470.9,268.4,470.2z"/>
	<path class="st42" d="M484.1,452.2c0.7,0.7,1.3,1.3,2,2C485.4,453.5,484.8,452.9,484.1,452.2z"/>
	<path class="st1" d="M246.4,452.2c-0.7,0.7-1.3,1.3-2,2C245.1,453.6,245.8,452.9,246.4,452.2z"/>
	<path class="st1" d="M242.5,450.2c0.7-0.7,1.3-1.3,2-2C243.8,448.9,243.1,449.6,242.5,450.2z"/>
	<path class="st1" d="M250.4,442.2c-0.7,0.7-1.3,1.3-2,2C249.1,443.6,249.8,442.9,250.4,442.2z"/>
	<path class="st42" d="M510.1,440.2c-0.7-0.7-1.3-1.3-2-2C508.8,438.9,509.4,439.6,510.1,440.2z"/>
	<path class="st1" d="M252.4,438.2c-0.7,0.7-1.3,1.3-2,2C251.1,439.6,251.8,438.9,252.4,438.2z"/>
	<path class="st1" d="M246.5,440.2c0.7-0.7,1.3-1.3,2-2C247.8,438.9,247.1,439.6,246.5,440.2z"/>
	<path class="st1" d="M254.4,434.2c-0.7,0.7-1.3,1.3-2,2C253.1,435.6,253.7,434.9,254.4,434.2z"/>
	<path class="st42" d="M504.1,428.2c0.7,0.7,1.3,1.3,2,2C505.4,429.6,504.7,428.9,504.1,428.2z"/>
	<path class="st1" d="M260.4,420.2c0.2-0.9,0.2-1.9,0.6-2.7c0.4-0.7,1.6-1.9,1.8-1.8c1.8,0.9,0.6,2-0.2,2.9
		C262.1,419.3,261.2,419.7,260.4,420.2C260.4,420.2,260.4,420.2,260.4,420.2z"/>
	<path class="st49" d="M47,459.9c0-1.2-0.1-2.4-0.1-3.6c5.2-14.4,11.2-28.4,18-42.1c4.3,0.7,4.2,4.8,5.6,7.6
		c12,24,27.3,45.4,48.1,62.6c0,0,0,0,0,0c0.7,0.7,1.4,1.3,2.1,2l0,0c0.6,0.8,1,1.6,1.2,2.5c6.2,12.7-0.9,21.9-8,31.2
		c-0.7,0.6-1.5,1-2.4,1.2c-0.9,0.1-1.7,0-2.6-0.2c-0.8-0.2-1.6-0.6-2.3-1c-0.7-0.4-1.3-0.8-1.9-1.3c-0.3-0.2-0.6-0.5-0.9-0.7
		c-0.9-0.6-1.7-1.2-2.7-1.8c-0.6-0.3-1.2-0.6-1.8-1c-0.6-0.3-1.2-0.6-1.8-1c-0.6-0.3-1.2-0.7-1.8-1.1c-0.6-0.4-1.1-0.8-1.6-1.3
		c-0.3-0.2-0.5-0.5-0.8-0.7c-0.6-0.4-1.1-0.9-1.6-1.4c-0.3-0.2-0.6-0.4-0.9-0.7c-0.7-0.4-1.3-0.8-1.9-1.3c-1-0.6-1.9-1.3-2.8-2
		c-0.6-0.5-1.1-1-1.7-1.5c-0.3-0.2-0.5-0.5-0.8-0.8c-0.5-0.5-1-1-1.5-1.5c-0.2-0.2-0.5-0.5-0.7-0.8c-0.5-0.5-1-1-1.4-1.5
		c-0.2-0.2-0.5-0.5-0.7-0.7c-0.5-0.5-1-1-1.5-1.5c-0.3-0.2-0.5-0.5-0.8-0.7c-0.6-0.5-1.1-1-1.6-1.4c-0.3-0.2-0.6-0.5-0.8-0.7
		c-0.6-0.4-1.2-0.9-1.8-1.3c-0.3-0.2-0.7-0.4-1-0.6c-0.7-0.4-1.4-0.9-2.1-1.4C60.9,481.7,50.7,473.1,47,459.9z"/>
	<path class="st1" d="M321.5,364.7c-0.5,0.2-1.1,0.7-1.5,0.5c-0.4-0.2-0.4-0.9-0.6-1.5c0.5-0.2,1.1-0.7,1.5-0.5
		C321.2,363.4,321.3,364.2,321.5,364.7z"/>
	<path class="st42" d="M407.3,363.7c-0.2,0.5-0.4,1-0.7,1.5c-0.5-0.2-1.3-0.3-1.4-0.7c-0.1-0.4,0.4-1,0.6-1.5
		C406.3,363.3,406.8,363.5,407.3,363.7z"/>
	<path class="st27" d="M243,288.2c0.8,0.5,1.1,1.2,0.8,2.2C243,289.9,242.7,289.2,243,288.2z"/>
	<path class="st50" d="M272.5,272.4c4.6-3,8.6-1.9,12.1,2c2.5,1.4,3.9,3.4,4,6.3c3.9,8.2,0.9,15.6-2.9,22.6c-3.7,6.6-9,6.4-12.7-0.4
		C267.5,292.9,268.2,282.6,272.5,272.4z"/>
	<path class="st51" d="M288.6,280.6c-3.3-0.8-4.3-3.1-4-6.3c2-1.7,4.1-1.6,6.2-0.2c0.4,0.8,0.9,1.6,1.4,2.3c0,0-0.2,0-0.2,0
		C291,278,290.5,279.9,288.6,280.6z"/>
	<path class="st52" d="M414.2,284.4c0,1.2,0.1,2.5,0.1,3.7c-0.6,6.8-0.8,13.7,1.8,20.2c-1,0-2,0.2-3,0.1c-7.1-0.6-7.8-1.4-5.9-7.7
		C408.9,295.1,410.6,289.3,414.2,284.4z"/>
	<path class="st3" d="M432,266.1c-0.9,1.4-2.1,2.2-3.8,2.3C429,266.8,430.4,266.2,432,266.1z"/>
	<path class="st3" d="M425,270.5c-0.5,1.2-1.5,1.8-2.7,2.1C422.8,271.4,423.7,270.7,425,270.5z"/>
	<path class="st3" d="M428.4,268.3c-0.4,1-1,1.6-2.1,1.5C426.9,269.3,427.7,268.8,428.4,268.3z"/>
	<path class="st3" d="M435,264.5c-0.6,1.1-1.6,1.6-2.9,1.6C433.1,265.6,434,265,435,264.5z"/>
	<path class="st53" d="M96.5,511.7c0.5,0.4,1.1,0.6,1.7,0.6c0.9,0.4,1.6,1.2,2.4,1.7l0.1,0.1c0.9,1.4,2.9,0.9,3.8,2.2l-0.1-0.1
		c0.6,0.6,1.3,1.1,2,1.7c0.5,0.3,1,0.5,1.5,0.5c1,0.4,1.8,1.1,2.5,1.8l0,0c12.2,3.5,24.3,7.1,34,16c2.5,3.5,7.4,0.7,10,3.9
		c0.8,7.4,6.9,10.9,12.1,13.9c10.6,6,21.3,12.2,33.7,14.7c5.1,1,10.3,2.5,14.6,6.5c-1.6,4.9-5.6,4.7-9.6,5
		c-11,0.7-21.8-1.3-32.6-3.1c-4-0.7-7.9-0.8-12.1-0.9c1,4.1,4.8,3.2,6.9,4.9c0.7,0.5,1.4,1.7,1.3,2.4c-0.1,0.8-1.1,1.5-1.9,2
		c-0.5,0.4-1.3,0.5-1.9,0.5c-14.3-0.2-28.6,1.4-42.8-1c-3.7-0.6-7.2-1.8-10.2,1.5c-13.3-1.9-25.6-6.9-38-11.7
		c-14.3-6.1-27.9-13.3-39.5-23.8c-4.1-3.7-9-6.9-10.1-12.9c-0.3-8.4,3.2-16.1,4.6-24.2c0.4-2.6,1-5.2,1.5-7.7
		c2.6-7.4,5.3-14.7,7.9-22.1c7.3-3.4,13.9-2.1,20.1,2.9c5.1,4.1,10.5,8,17.5,8.1c0.9,0.1,1.7,0.5,2.4,1.2l-0.1-0.1
		c0.8,0.6,1.5,1.3,2.1,2.1l-0.1-0.1c0.8,0.6,1.5,1.3,2.1,2l-0.1-0.1c0.7,0.6,1.4,1.3,2.1,1.9l0.1,0.1c0.5,0.7,1.1,1.2,1.8,1.7
		c1.2,0.8,2.5,1.6,3.7,2.5c0.9,0.5,1.7,1.2,2.4,2l0,0c0.7,0.6,1.4,1.2,2.1,1.8l0.2,0.1C95.3,510.8,95.8,511.4,96.5,511.7z"/>
	<path class="st54" d="M144.6,536.2c-11.8-4.4-23.6-8.6-34-16c2.7-4.1,5.3-8.2,8.1-12.3c4.3-6.3,1.8-13.3,2-20
		c0.6-0.3,1.3-0.3,1.9,0.1l0.2,0.2c0.4,0.7,1,1.3,1.7,1.7c10.4,9.5,21.9,17.4,34,24.6c0.8,0.5,1.5,1.1,2.1,1.7c0,0,0,0,0,0
		C156.4,523.8,154.7,533.4,144.6,536.2z"/>
	<path class="st7" d="M370.3,388.2c0.7,0.7,1.3,1.3,2,2C371.6,389.5,371,388.9,370.3,388.2z"/>
	<path class="st7" d="M368.5,386.2c0.6,0.7,1.2,1.3,1.8,2C369.7,387.5,369.1,386.9,368.5,386.2z"/>
	<path class="st7" d="M364.8,378.2c0.5,0.7,1,1.4,1.5,2.1C365.8,379.6,365.3,378.9,364.8,378.2z"/>
	<path class="st12" d="M124.5,489.8c-0.6-0.6-1.1-1.1-1.7-1.7C123.4,488.7,124,489.3,124.5,489.8z"/>
	<path class="st12" d="M122.7,488c-0.6,0-1.3,0-1.9-0.1c-0.1-0.6-0.1-1.1-0.1-1.7C121.3,486.8,122,487.4,122.7,488z"/>
	<path class="st12" d="M120.6,486.2c-0.7-0.7-1.4-1.3-2.1-2C119.2,484.9,119.9,485.6,120.6,486.2z"/>
	<path class="st18" d="M160.6,516.2c-0.7-0.6-1.4-1.2-2.1-1.7C159.2,515,159.9,515.6,160.6,516.2z"/>
	<path class="st14" d="M292.2,276.5c-0.5-0.8-0.9-1.6-1.4-2.3C291.3,275,291.7,275.8,292.2,276.5z"/>
	<path class="st55" d="M438.6,274.5c4.1-3.8,8.4-6.7,13.8-2.1c0.1,0.4,0.2,0.7,0.2,1.1c0.3,1.1,1.2,1.9,1.8,2.8
		c0.9,1.2,1.7,2.5,1.9,4.1c3.8,8.1,0.5,15.6-2.6,22.8c-2.3,5.2-6.3,5.3-10.1,0.8c-3.2-3.9-5.3-8.4-5.4-13.6
		C438.2,285.1,438.4,279.8,438.6,274.5z"/>
	<path class="st56" d="M456.3,280.4c-1.4-0.7-2.9-1.4-4.3-2.1c-0.9-2-1.5-4,0.4-5.9c0,0,0,0.1,0,0.1c1.9,0.1,3.8,0.2,5.7,0.2
		C458.9,275.5,459.2,278.3,456.3,280.4z"/>
	<path class="st57" d="M460.2,314.3c-4.1,2.7-8.2,3-12.3,0.3C452,314.5,456.1,314.4,460.2,314.3z"/>
	<path class="st58" d="M655.7,622.1c-6.4,10.1-16.3,16-26.4,21.5c-9,4.8-9.2,5.5-3.7,14.1c1.4,2.2,3,4.3,4.4,6.5
		c-1.6,4.5-5.6,5-9.5,5.6c-9,1.3-18,2.9-27.1,1.6c-1.6,0.3-3.7,0.7-4.9-0.2c-12.1-8.8-26-4.8-39.2-5.6c-6.3-0.4-15.2,1.7-16.2-7.2
		c-1-8.5,7.9-8.4,13.6-9.9c21.8-5.6,42.2-13.9,59.6-28.6c3-2.5,6.7-4.5,7.3-9c12.9-7.3,27.4-10.1,41.6-13.7c4.8-1.2,7,2.4,7.5,6.9
		C662.3,610.6,661.6,617.3,655.7,622.1z"/>
	<path class="st59" d="M655.7,622.1c1.4-6,2.9-11.9,4.3-17.9c-2.3-18.1,1.3-35.2,8.6-51.7c7-9.7,14.5-18.8,26.8-22.1
		c3,13.1,5.1,26.4,6.1,39.8c-9.1,6.5-16.9,14.9-27.2,19.7c-4.6,2.2-4.3,5.2-2.1,8.9c3.1,5.1,6.5,9.9,11.6,13.3
		c-7.2-0.1-11.3,5.8-17,8.7c-2.6,1.3-4.9,3.2-7.5,4.4C656.7,626.3,656.2,624,655.7,622.1z"/>
	<path class="st60" d="M591.9,668.3c12.9,0.1,25.6-0.7,38.1-4.2c3.3,0.2,6.5-0.6,9.7-1.3c4.8-1,6,0.2,5.3,5
		c-0.9,6.1-3,12.1-3.1,18.4c0.1,7.6-1.1,15.1-3.1,22.4c-0.9,4.5-1,9.4-5.7,12.1c-4.8-0.8-6.8-4.9-9.4-8.2
		c-5.3-6.7-11.4-12.7-17.8-18.4C598.2,687.3,592.9,678.9,591.9,668.3z"/>
	<path class="st61" d="M705.6,686.2c0.7,11.6-1.4,23-3.5,34.3c-1.6,0.2-3.2,0.9-4.8,1.3c-15.5,3.8-15.5,3.8-23.5-10.1
		c-1.3-2.3-3.2-4.2-4.4-6.6c-0.4-1-0.3-2,0.4-2.8C682.9,699.4,694.5,693.4,705.6,686.2z"/>
	<path class="st62" d="M669.9,702.2c0,0.7,0,1.3,0,2c-10.8,5.9-21.9,9-33.9,4c1.3-7.5,2.4-15.1,5.9-22c0.6,4.1,3.8,5.1,7.2,5.8
		c2.6,0.6,5.2,1.1,7.8,1.5c4.4,0.7,8.5,1.6,9.7,6.9C666.9,701.8,668.6,702,669.9,702.2z"/>
	<path class="st63" d="M635.9,708.2c7.8-0.9,15.6-1.5,23.2-2.9c3.6-0.6,7.1-1,10.7-1.1c7.1,1.1,8.1,7.5,9.6,12.6
		c1.4,5,3.4,4.9,7.8,4.2c4.8-0.8,9.8-5.5,14.9-0.5c-1.5,17-5.1,33.5-10.3,49.8c-5.2,4.4-12.1,5.1-18,8c-13.9,8.2-29.5,5.5-44.5,6.5
		c-5.7,0.4-11.9-0.2-17.5-2.5c-5.1-3.5-2.2-7.6-0.6-11.3c5.3-11.7,9.3-23.8,14-35.6c0.4-1.4,0.9-2.7,1.3-4.1c0.5-1.8,1-3.6,1.5-5.4
		c0.8-2.2,1.6-4.4,3.9-5.6C634.8,716.7,634.5,712.2,635.9,708.2z"/>
	<path class="st64" d="M695.4,530.4c-7.9,7.2-17.1,12.9-23.6,21.6c-14.2,13.3-30.8,22.7-48.6,30.1c-3,1.3-6.2,2.6-9.5,0.6
		c-2.9-9.2-11.3-8.4-18.3-10.5c-5.2-1.5-12.7-0.9-11.4-10c10-8.4,19.8-17.1,26.9-28.3c1.2-1.8,4-4.5-0.9-5.7c-0.2-0.7-0.4-1.6,0-1.8
		c13.5-7.7,24.8-19.1,39.9-24c5.1-3.7,9.3-8.8,16.7-9c2.2,0,4.4-3.5,6.6-5.4c2.9-2.6,5.1-5.9,8.7-7.7
		C688.3,496.4,691.8,513.4,695.4,530.4z"/>
	<path class="st65" d="M649.9,502.2c-11.2,8.9-22.6,17.6-35.7,23.6c-1.5,0.7-3.1,0.9-4.2,2.3c-0.6,0.2-1.2,0.3-1.8,0.3
		c-12,2.6-20.4-4.8-29.1-10.9c-3.9-2.8-3.9-7.3-1.2-11.4c7.3-5.3,13.9-11.4,21.7-16c0.9-0.5,1.7-1.2,2.3-2l0,0
		c0.7-0.6,1.4-1.3,2.1-2l0,0c0.6-0.7,1.3-1.3,2-1.8l0.1-0.1c1.7-1.7,4.1-2.5,5.7-4.3l-0.1,0.1c0.9-0.5,1.5-1.2,2.1-2.1l-0.1,0.1
		c0.8-0.5,1.5-1.2,2.1-2l-0.1,0.1c0.8-0.6,1.5-1.2,2.1-2c0,0-0.1,0-0.1,0c5.6-0.3,10.4,1.1,13.6,6.3c1.2,1.9,3,4,5,4.7
		C644.7,488.1,647.6,494.8,649.9,502.2z"/>
	<path class="st66" d="M577.9,506.1c-0.8,6.9,2.6,11,8.8,13.4c7.2,2.8,13.6,7.6,21.4,8.9c-10.6,7.5-23.1,10.8-34.9,15.7
		c-7.5,3.1-14.8,7.3-23.1,8.3c-10.4-0.5-17.7-9.6-16.1-20.1l0,0c0.6-0.7,1.3-1.3,2-1.8C550.6,523.3,563.9,514,577.9,506.1z"/>
	<path class="st67" d="M580.7,358.8c-2.4,8.8-6.9,16-11.9,23c-2.3,3.2-6,2.9-9.1,1.9c-18.6-5.9-37.7-9.8-56.8-13.8
		c-1.6-0.3-3.1-1.1-4.5-2c-2.3-1.5-2.3-3.9-1.9-6.2c0.4-2.4,2.1-3.2,4.2-3.4c1.3-0.1,2.7-0.1,4-0.1c23.9,0,47.8,0,71.7,0
		C577.5,358.2,578.8,358.6,580.7,358.8z"/>
	<path class="st68" d="M534.1,532.2c3.1,8.5,7,16.4,16.1,20.1c-16.7,7.7-34.6,11-52.6,13.8c-8.2,1.3-16.5,1.4-24.6,3
		c-7.8,1.5-10.5-1.8-10.6-8.8c18.6-3.9,35.4-12.6,52.8-19.7C521.5,538,527.1,533.7,534.1,532.2z"/>
	<path class="st69" d="M562.7,389.2c-5.1,11.1-7.4,12.2-17.4,9.1c-15.2-4.7-30-10.7-45.5-14.5c-1.3-0.3-2.5-1-3.6-1.6
		c-3-1.6-4.6-4-3.4-7.3c1.3-3.3,4.4-2.7,6.9-2.2c9.1,1.8,18.3,3.3,27.1,5.9C538.7,382,551.1,384,562.7,389.2z"/>
	<path class="st43" d="M611.9,480c-0.9,2.7-3,4-5.7,4.3C607.3,481.8,609.1,480.3,611.9,480z"/>
	<path class="st7" d="M423.4,397.1c-0.5,0.1-1,0.2-1.5,0.3c0.1-0.5,0.1-1,0.3-1.5c0.1-0.2,0.6-0.3,0.8-0.2
		C423.7,395.9,423.8,396.4,423.4,397.1z"/>
	<path class="st7" d="M410.8,393.3c-0.2,0.1-0.5,0.4-0.7,0.3c-0.2,0-0.4-0.3-0.6-0.5C410.1,392.6,410.5,392.7,410.8,393.3z"/>
	<path class="st43" d="M601.9,488.2c-0.8,0.7-1.5,1.3-2.3,2C600.4,489.5,601.2,488.8,601.9,488.2z"/>
	<path class="st43" d="M604,486.2c-0.7,0.7-1.4,1.3-2.1,2C602.6,487.5,603.3,486.9,604,486.2z"/>
	<path class="st43" d="M606,484.4c-0.7,0.6-1.3,1.2-2,1.8C604.6,485.6,605.3,485,606,484.4z"/>
	<path class="st43" d="M613.9,478.1c-0.7,0.7-1.4,1.4-2.1,2.1C612.5,479.5,613.2,478.8,613.9,478.1z"/>
	<path class="st43" d="M615.9,476.1c-0.7,0.7-1.4,1.4-2.1,2C614.5,477.5,615.2,476.8,615.9,476.1z"/>
	<path class="st43" d="M617.9,474.1c-0.7,0.7-1.4,1.4-2.1,2C616.5,475.5,617.2,474.8,617.9,474.1z"/>
	<path class="st68" d="M536.1,530.4c-0.7,0.6-1.3,1.2-2,1.8C534.7,531.6,535.4,531,536.1,530.4z"/>
	<path class="st70" d="M434.7,926.5c-0.2-0.9-0.3-1.7-0.5-2.6c-2.9-2.7-3.5-6.3-3.5-9.9c-0.1-9.2-0.7-18.4,0.6-27.6
		c0.5-3.3,2.1-6.4,2-9.8c0-1.6,0.1-3.2,0.1-4.8c4.5-23.9,13.5-46.3,22.9-68.5c3-7,5.7-14.1,9.3-20.8c2-3.7,3.4-8.1,8.4-9
		c4.1,0.7,7.1,3.5,10.2,6c15.7,12.2,33.3,17.3,53.1,14c2.6-0.4,5.5-1.3,7.9-0.4c17.6,6.9,33.8-0.8,50.3-4.7c3.2-0.8,6.4-1.9,9.8-0.9
		c4.2,3.6,1.4,7.3-0.1,10.7c-3.7,8.1-7.6,16.1-12,23.8c-0.5,0.8-1,1.7-1.5,2.5c-0.4,0.9-0.9,1.7-1.4,2.6c-11,22-23.2,43.4-31.2,66.8
		c-1.4,4.2-3.9,7.6-6.6,11c-0.7,1.9-0.7,4.1-2.3,5.7c-8-3.2-14.9-8.4-23.2-11c-21.4-6.7-42.6-4.9-63.4,1.7
		c-10.4,3.3-19.9,9.1-24.3,20.3c-0.3,1.5-0.8,3-1.8,4.2C436.7,926.5,435.8,926.8,434.7,926.5z"/>
	<path class="st71" d="M552.4,904.7c2.9-12.7,8-24.5,13.6-36.2c7.2-15,14.8-29.7,22.2-44.5c0.5-0.6,1.1-1.2,1.8-1.7l0.1,0
		c10.9-1.1,20.4,3,29.7,8c5.5,2.9,11.8,2.6,17.7,3.8c2.9,0.5,5.7,0.7,8.4,2.1c-15,20.1-33.2,36.8-53.9,50.8
		c-3.6,2.4-7.7,4.2-7.9,9.4C573.8,900.3,563.3,903.1,552.4,904.7z"/>
	<path class="st72" d="M435.9,926.8c0.1-1.5,0.2-3,0.4-4.6c4.2-2.9,7.7,0,11.1,1.7c7.9,4,15.2,3.9,22.4-1.4
		c9.7-7.1,20.1-10.7,32.6-8.1c8,1.7,15.5-2.9,23.1-5.1c8.5-2.5,16.9-3.7,24.4,2.8c-0.1,1.9-0.2,3.8-0.3,5.7c-0.3,0.8-0.6,1.6-1,2.4
		c-0.1,1.3-0.2,2.6-0.3,3.8c-3.1,6.2-4.1,13.4-8.6,19c-3.7,4.5-7.7,8.2-13.8,9c-8.8,1.1-11.1-1.2-9.3-9.9c0.7-3.5,2.3-6.9,0.1-11.3
		c-3.6,2.7-3.8,6.8-4.9,10.2c-2.9,8.7-7.9,13.9-18,13.9c-9,0-10.9-0.3-15.5-8.9c-2.7-2.3-3.3-5.3-2.9-7.9c-0.2,3.7-0.4,8.2-3,12
		c-0.6,1.2-1.3,2.4-1.9,3.5c-4.7,0.2-9.4,0.4-14.1,0.6c-12-3.8-18.1-12.7-20.7-24.5C435.2,928.8,435.1,927.7,435.9,926.8z"/>
	<path class="st73" d="M549.9,912.2c-2.3-0.2-4.8,0.1-6.9-0.7c-5.7-2.2-11-1.1-16.4,0.8c-5.3,1.9-10.6,3.9-16,5.3
		c-4.8,1.2-9.8,1.1-14.7-0.4c-5.4-1.7-10.3-1.2-14.9,2.5c-2.6,2-5.9,3.1-8.4,5.1c-10,8.2-20.1,6.4-30.1,0.3c-2-1.2-3.7-2.8-6.2-2.9
		c0-5.3,2.6-8.9,6.6-12.5c13.5-12.5,30.2-15.8,47.4-17.3c15-1.3,29.8,0.1,43.7,6.2c6.2,2.7,13.2,4.7,16.2,11.9
		C550.3,911,550.2,911.6,549.9,912.2z"/>
	<path class="st74" d="M548.6,920.3c-0.2-1,0.2-1.8,1-2.4C549.7,918.9,549.4,919.7,548.6,920.3z"/>
	<path class="st75" d="M619.8,830.3c-10.7,0.4-20.1-4.3-29.7-8c4.9-11.6,12.1-22.1,16-34.1c-0.4-3.6,0.7-6.4,4.1-7.9
		c7.2-0.1,14.7,1.7,21.5,1.2c9.8-0.6,19.7-0.3,29.4-2.2c4.3-0.9,8.5-1,12.7-1.1c-2.2,5.9-4.4,11.8-6.8,17.6
		c-6,14.5-15.2,25.4-31.5,28.9C630.2,825.9,625.8,830.5,619.8,830.3z"/>
	<path class="st76" d="M472.2,950.3c0.6-6.7-1.6-13.7,2.1-21.5c5.4,5.8,3.3,11.9,3.8,17.4C476.2,947.5,474.2,948.9,472.2,950.3z"/>
	<path class="st77" d="M14.4,588.3c0.9-14.1,3.8-27.8,7-41.5c0.5-2.2,0.8-4.5,1.2-6.7c0.7-0.7,1.3-1.3,2-2
		c14.6,14.4,31.2,25.9,50,34.1c4.2,2.3,4.7,6.1,3.9,10.2c-1.9,9.7-2.3,19.5-2.6,29.3c-0.1,4.7-1.2,9.2-6.7,10.8
		c-1.6,0.3-3.3,0.4-4.9,0.1c-2-0.3-3.9-1.2-5.8-1.7c-0.9-0.2-1.9-0.5-2.8-0.9c-3.5-1.4-7.1-2.6-10.7-4.1
		c-8.9-3.4-17.4-7.6-25.1-13.4C15.2,598.9,12.3,594.7,14.4,588.3z"/>
	<path class="st78" d="M76.6,496.2c-3,1.7-6.1,2.5-9.2,0.3c-4.5-3.2-9.5-5.9-13.4-9.7c-4.8-4.7-10.9,1.4-15.4-2.7
		c1.4-8.5,3.9-16.7,8.3-24.3c5.8,7.3,11.6,14.5,17.3,21.8c2.5,3.1,4.8,6.3,8.2,8.6c0.7,0.7,1.5,1.3,2.1,2.1l-0.1-0.1
		c0.8,0.6,1.5,1.3,2.1,2.1l-0.1-0.1c0.6,0.4,0.8,0.8,0.6,1.3C77,496,76.8,496.2,76.6,496.2z"/>
	<path class="st79" d="M436,872.4c0,1.3,0,2.5,0,3.8c-1.7,2.5,0.1,5.7-1.6,8.2c-0.1,13.2-0.2,26.3-0.2,39.5
		c-14.8,1.1-29.6,3.1-44.1,6.2c-2.7,2.9-6.2,3.7-9.9,3.8c-11.6,0.1-23.2,1-34.7-0.8c-12.4-1.4-24.9-2.5-37.4-4
		c-4.9-0.6-9.9-0.9-14.1-4.1c-2.3-2.5-2.3-5.6-2.4-8.7c-0.7-9.5-1.1-19.1-0.6-28.6c0-0.7,0.1-1.3,0.2-2c1.7-14.5,3.3-15.3,16.7-8.5
		c12.6,6.4,25.6,11,39.8,12c26.6,1.8,52.2-2,76.3-14C427.7,873.2,431.3,870.3,436,872.4z"/>
	<path class="st79" d="M435.9,926.8c-0.1,1-0.2,2.1-0.3,3.1c-1.1-0.9-1.3-2.1-0.9-3.4C435.1,926.5,435.5,926.6,435.9,926.8z"/>
	<path class="st80" d="M631.9,720.2c-0.1,2.2,0.2,4.5-2,6c-2.6,2.8-6.1,3.9-9.6,5c-32.2,9.6-64.8,11.1-97.7,3.8
		c-4.2-0.9-8.3-2.4-12.2-4.4c-12.4-6.5-13.6-8.8-11.7-22.8c0.3-2.2,1.8-5-1-6.3c-3.2-1.5-6.1,0.3-7.4,3.2
		c-3.5,8.1-8.5,15.6-3.4,25.4c2.9,5.5,2.1,12.3-0.9,18.3c-13.2,7.1-26.9,13.2-41.6,16.6c-17.2,4-34.5,6.8-52.2,6.7
		c-20.9-0.2-41.9,0.4-62.8-0.2c-29-0.8-56.4-8.3-82.2-21.4c-5.4-1.4-7.3-6.1-9.2-10.6c-2.5-6-5.3-11.8-9-17.2
		c-5.7-13.9-7.6-28.8-12-43c-1.1-3.7-1.7-8.7-6.3-9.3c-5.4-0.6-7.9,4-10.1,8.2c-2.5,4.7-4.2,9.8-7.9,13.7c-2.1,2.2-4.6,4.2-7.9,2.6
		c-3.1-1.5-4-4.5-3.5-7.6c1-6.9,3.5-13.4,5.1-20.2c1.7-3.8,4.3-6.7,7.9-8.6c5.8,0.8,11,4.7,17.4,2.3c2.6-1,5.5,0.7,6.4,3.5
		c4.3,14.2,16.8,18.1,28.5,22.4c16.8,6.2,34.1,11.4,51.8,13.1c13.5,1.3,27,2.4,40.4,4.6c2.6,0.4,5.3,0,7.9-0.5
		c10.1-2,11-3.4,11.5-14c0.4-6.9,0.9-13.9,2.3-20.7c1.5-7,4.8-13,12.9-14.9c7.1-1.7,14-3.3,21.4-4c28.6-2.7,57.2-5.7,84.4-16.4
		c10.7-4.2,15.9-11.8,16.6-22.6c0.7-12.4,6.6-22,14.9-30.5c2.2-2.3,4.1-6.3,7.8-5.4c4.8,1.1,9.6,3.2,12.4,7.7
		c5.5,8.9,5.6,9.1,11,0.4c2.2-3.6,4.5-4.6,8.1-2.9c4.4,4.7,11.9,8.8,9.6,16.1c-2.1,6.8-10.4,6-16.3,7.5c-2.9,0.8-5.9,1-8.8,1.5
		c-2.5,0.5-5.9,0.4-5.9,4c0,3.4,3.2,4.1,5.7,4.5c11.2,1.6,22.5,0.9,33.7,1c3.7-0.2,7.4-0.2,11.2,0c4.3,0.9,8.4,0.3,12.5-1.3
		c7.3-1,14.3-6.7,22-1.5c2.7,0.4,3.4,1.7,1.4,3.8c-7.6,8-16.5,14.3-26.1,19.7c-13.7,7.8-28.5,12.6-43.7,16.4
		c-2.2,0.6-4.5,1.1-6.7,1.8c-2.2,0.7-4.8,1.3-4,4.5c0.6,2.7,2.8,3.7,5.2,3.7c11.3-0.1,22.6,1.3,33.8-0.8c3.9-0.7,7-1.5,8.8,3.4
		c1.6,4.4,5.9,3.5,9.5,3.7c0.2,0.3,0.3,0.6,0.5,0.9c6.3,13.8,16.8,24.1,27.5,34.5C624.7,708.2,630,713.2,631.9,720.2z"/>
	<path class="st81" d="M194.5,658.2c-0.3,3.9-2.9,6.2-6,8.1c-3.9,6.4-10.6,6.4-16.8,7c-28,2.7-55.7,1.1-83.1-5.5
		c-6.5-1.6-12.9-3.2-19.5-4.1c-2.4-0.6-3.9-2.1-4.8-4.4c-2-9.6-7-18.3-9.4-27.8c-1.2-4.7-3.4-9.5,1.8-13.4c0.7,0.1,1.3,0.2,2,0.3
		c1.2,1,2.9,0.5,4,1.7c1.3,0,2.5,0.1,3.8,0.1c15.1-0.2,29.7,5,44.9,4.6c3-0.1,5.9,0.4,8.5,2.1c1,0.8,1.3,1.8,0.8,3
		c-3.3,0.2-6.6,0.3-10.7,0.5c5.8,7.1,13.9,8.7,21.1,11.4c18.7,7,37.8,12.5,57.8,14.4C190.8,656.6,192.6,657.6,194.5,658.2z"/>
	<path class="st82" d="M120.5,628.3c-17.2,0.7-34-1.6-50.6-6.2c-1.2-0.3-2.3-1.2-3.4-1.8c3.2-0.2,6.1-0.8,6-4.9
		c-0.3-13,0.3-25.8,3.6-38.5c0.3-1.3-1-3.1-1.5-4.6c9.7,3.1,19.4,6.4,29.2,9.3c3.4,1,5.8,3,8.4,5c5.5,7.4,13.3,12.1,20.4,17.6
		c5.5,7.7,1.4,14.7-1.7,21.6C128.9,630.3,124.6,629.8,120.5,628.3z"/>
	<path class="st83" d="M568.2,618.1c-9.6,0-19.3,0-28.9,0.2c-3.4,0-6.5-1.2-9.8-1.7c-5.8-0.7-5.4-4.7-5.4-8.8c0-4.5,2.6-5.6,6.5-5.5
		c8.4,0.1,16.3-2.5,24.4-4.2c4.5-1,4.8-2.5,1.7-6.1c-3-3.5-7.4-6-6.5-11.6c8.6-2.6,16.2-7.1,23.7-11.9c3.3-2.2,6.7-4.1,10.1-6.2
		c1.5,3.4,3.4,5.8,7.8,6.3c5.8,0.6,11.4,2.6,17.2,3.6c6.9,1.1,8.2,4.4,5,10.2c-1.1,4.2-4.8,5.1-8.2,6.3c-7.8,2.8-15.6,5.4-23.6,7.4
		C565.2,600.2,564.6,601.1,568.2,618.1z"/>
	<path class="st84" d="M120.5,628.3c4.9,0.3,7.7-1.2,8.8-6.8c1.1-5.8,3.9-11.2,3.3-17.4c12.6,4.7,24.2,12,37.7,14.5
		c2,0.4,3.8,1.9,3.3,4.2c-0.6,2.8-2.8,4.6-5.6,5c-5.8,0.9-11.7,1.9-17.6,2.1c-9.9,0.3-19.8,0.1-29.7,0.1
		C120.6,629.5,120.6,628.9,120.5,628.3z"/>
	<path class="st54" d="M104.6,516.3c-1.6-0.1-3-0.7-3.8-2.2C102.4,514.3,103.8,514.8,104.6,516.3z"/>
	<path class="st54" d="M86.6,503.9c-0.6-0.6-1.2-1.1-1.8-1.7C85.4,502.8,86,503.3,86.6,503.9z"/>
	<path class="st54" d="M84.7,502.1c-0.7-0.6-1.4-1.2-2.1-1.9C83.3,500.9,84,501.5,84.7,502.1z"/>
	<path class="st54" d="M82.6,500.3c-0.7-0.7-1.4-1.3-2.1-2C81.2,499,81.9,499.6,82.6,500.3z"/>
	<path class="st54" d="M92.6,508.3c-0.8-0.7-1.6-1.3-2.4-2C91.1,507,91.8,507.6,92.6,508.3z"/>
	<path class="st54" d="M80.6,498.4c-0.7-0.7-1.4-1.4-2.1-2.1C79.2,497,79.9,497.7,80.6,498.4z"/>
	<path class="st54" d="M76.6,496.2c0-0.7-0.1-1.3-0.1-2c0.7,0.7,1.4,1.4,2.1,2.1C78,496.4,77.3,496.3,76.6,496.2z"/>
	<path class="st54" d="M94.7,510c-0.7-0.6-1.4-1.2-2.1-1.8C93.3,508.8,94,509.4,94.7,510z"/>
	<path class="st54" d="M76.6,494.4c-0.7-0.7-1.4-1.4-2.1-2.1C75.3,493,75.9,493.7,76.6,494.4z"/>
	<path class="st54" d="M96.5,511.7c-0.6-0.5-1.1-1-1.6-1.5C95.4,510.7,96,511.2,96.5,511.7z"/>
	<path class="st54" d="M74.6,492.3c-0.7-0.7-1.4-1.4-2.1-2.1C73.2,490.9,73.9,491.6,74.6,492.3z"/>
	<path class="st54" d="M100.7,514.1c-0.8-0.6-1.6-1.2-2.4-1.7C99.1,512.9,99.9,513.5,100.7,514.1z"/>
	<path class="st54" d="M106.6,517.9c-0.7-0.6-1.3-1.1-2-1.7C105.2,516.8,105.9,517.4,106.6,517.9z"/>
	<path class="st54" d="M110.6,520.2c-0.8-0.6-1.7-1.2-2.5-1.8C109,519,109.8,519.6,110.6,520.2z"/>
	<path class="st37" d="M452.4,272.4c-0.1,2-0.3,3.9-0.4,5.9C449.5,276.1,449.6,274.1,452.4,272.4z"/>
	<path class="st85" d="M568.2,618.1c-2.2-2.3-6.3-3.3-5.9-7.3c0.4-4.2,0.9-8.6,2.5-12.4c1.4-3.2,5.7-2.9,8.8-3.5
		c13.8-3.1,27.2-7.5,40.3-12.6c13.9-3.9,26.2-11,38.1-18.8c6.4-4.1,12.5-8.6,19.7-11.3c-5.5,15.1-10.3,30.4-9.9,46.8
		c0,2-0.3,3.9-1.9,5.4c0-4-0.9-6.1-5.9-4.4c-9.6,3.4-19.5,5.9-29.1,9.2c-3.7,1.3-8.1,0-11.2,3.1c-7.3,1.4-14.6,2.8-21.9,4.2
		c-3.8,2.3-8.3-0.4-12.2,1.8C575.9,618,572,618.1,568.2,618.1z"/>
	<path class="st86" d="M484.1,748.2c2.3-4.9-1.2-10.3,1.5-15.2c0.4-0.7-0.7-2.7-1.6-3.4c-5.3-3.8-4.2-8.3-2-13.2
		c1.4-3,2.5-6.2,3.5-9.3c1.2-3.4,1.6-7.6,5-9.4c3-1.6,6.7-0.2,10.3-1.7c2.8-1.2,3.5,2.6,3.1,4.8c-0.8,4.2-2,8.4-3.1,12.5
		c-1.3,4.8,0.1,7.7,4.4,10.7c8.8,6.3,18.7,8.2,28.8,10.1c14.1,2.6,28.4,3,42.6,2c14.1-1.1,28.2-3.2,41.8-7.6
		c3.8-1.2,7.5-2.6,11.6-2.2c0,2-0.1,4-0.1,6c-0.6,0.7-1.3,1.4-1.9,2c-2.7,12.7-8.2,24.3-13.1,36.2c-1.4,3.4-3.1,6.6-4.6,9.9
		c-0.8,3-1.7,5.8-4.1,7.9c-13.5,5.8-28.2,6.9-42,11.6c-4.1,1.4-8.1-0.1-11.6-1.8c-5.8-3-11.5-2.3-17.4-1.1c-14.7,3.1-39.3-3-50.3-13
		c-3.6-3.3-8.9-4.8-10.9-9.9C471.8,763.1,476.7,755.2,484.1,748.2z"/>
	<path class="st80" d="M627.9,734.2c0.6-0.7,1.3-1.3,1.9-2C629.2,732.9,628.6,733.6,627.9,734.2z"/>
	<path class="st87" d="M484.1,748.2c-3.1,8.7-8,16.7-10.2,25.7c-9.5,15.6-15.7,32.6-22.5,49.4c-6.5,15.9-11.5,32.3-15.5,49
		c-13,7.5-26.3,13.8-41.2,16.8c-12.4,2.4-25,4.8-37.3,4.6c-20-0.4-39.3-5.7-56.7-16.5c-1.1-0.7-2.3-1.3-3.4-2c-0.2-0.1-0.6,0-1.7,0
		c-2.5,3.2-0.6,7.4-1.5,11.1c-3.6-0.1-4.3-3-4.6-5.5c-3.1-25.2-11.8-48.8-20.1-72.5c-0.4-1.6-0.5-3.3-0.3-4.9c0.3-1.1,1-1.9,2.1-2.4
		c5.1-1.2,8.8,2.1,12.9,4.2c21,10.9,42.5,19.8,66.5,22.6c25.1,2.9,47.9-4.5,71.2-11c5.3-1.5,7.9-5.6,9.1-10.9
		c2.6-11,6.2-21.7,8.9-32.7c1.1-4.3,2.4-8.3,6.2-11.1c11.6-4.4,23.4-8.4,34.4-14.1C481.8,747.5,483,747.1,484.1,748.2z"/>
	<path class="st87" d="M434.4,884.4c-0.2-2.9-0.8-5.8,1.6-8.2C436.3,879.1,436.6,882,434.4,884.4z"/>
	<path class="st75" d="M590,822.4c-0.6,0.6-1.2,1.1-1.8,1.7C588.8,823.5,589.4,822.9,590,822.4z"/>
	<path class="st88" d="M66.6,658.2c0.1,1.6,0.5,3.1,2,4c3.8,2.6,4.6,6.5,4.2,10.8c-1.6,5.8-6.3,6.5-11,5.9
		c-16.2-2-31.7-6.4-46.4-13.5c-2.8-1.3-4.9-3.4-5.5-6.6c0.3-11.6-1-23.2,0.7-34.8c0.3-12,1.7-24,3.8-35.8c-0.1,4.3,1.7,7.1,5.1,10
		c8.2,7,18,10.8,27.2,15.9c-2.2,4.2-6.3,4.4-10.2,4.9c-4.5,0.5-8.7,1.2-9.8,6.6c-1,4.8,1.4,8.3,5,11.1c6.8,5.5,14.5,9.2,22.6,12.3
		C59.2,651,64.2,652.9,66.6,658.2z"/>
	<path class="st89" d="M10.6,624.1c0.1,12,0.2,24,0.3,35.9c4.1,7.6,6.2,15.1-0.4,22.5c-0.5-0.1-1-0.3-1.4-0.5
		c-0.1-15.8-0.2-31.6-0.2-47.5C8.8,631.1,8.1,627.3,10.6,624.1z"/>
	<path class="st90" d="M66.6,658.2c-12.2-6.7-26-9.9-37.2-18.7c-4.9-3.8-7.8-8.1-6.5-14.4c1.2-6.1,3.8-8.7,10-8.7
		c4.7,0,9.2-1,13.7-2.1c3.6,0.7,7.2,1.4,10,4c-2.2,9.2,3,16.7,5.5,24.8C63.9,648.1,66.7,652.7,66.6,658.2z"/>
	<path class="st90" d="M62.7,620.2c-1.6,0-3-0.4-4-1.7C60.4,618.3,61.7,618.8,62.7,620.2z"/>
	<path class="st91" d="M270.5,802.2c0,0.7,0.1,1.3,0.1,2c0.6,0.7,1.2,1.4,1.8,2.2c7.3,20.9,14.9,41.7,19.2,63.6
		c1.1,5.5-0.9,11.4,2.7,16.4c0,10,0.1,19.9,0.1,29.9c-0.9,0.7-1.9,0.9-3,0.6c-12.6-9.1-24.8-18.4-41.3-20.2c-19.8-2.2-39-2-57,7.8
		c-6.3,2-8.5,8.5-13.1,12.3c-4.8-1.7-4.3-6.3-5.6-9.9c-2.8-16.9-12.7-30.6-20.7-45.1c-3-5.5-6.2-11-9.1-16.7
		c-5.8-10.8-11.8-21.4-17.7-32.1c-2.7-4.8-6.2-9.5-5.4-15.6c0.4-1,1-1.8,2-2.4c12.1-1.3,23.3,4,35.1,5.1c21.5,2,42.3,0.3,63.1-5.4
		c13.3-3.6,23.3-12.5,33.7-20.6c2.2-0.9,4.1,0,5,1.8C264.7,784.3,270.6,792.1,270.5,802.2z"/>
	<path class="st92" d="M292.4,916.2c0.6,0,1.3,0,1.9,0c0.1,2.7,0.2,5.4,0.3,8c-0.2,1.2-0.3,2.5-0.5,3.7c-0.7,1.3-0.7,2.7-0.7,4.2
		c0,0.7-0.2,1.4-0.6,2c-2.2,3.9-4.3,7.7-6.5,11.6c-1.1,2.6-2.9,4.8-5,6.7c-1.1,1-2.4,1.8-3.7,2.4c-6.5,2.6-13,3.6-19.3-0.5
		c-1.2-1-2.2-2.2-2.8-3.6c-0.3-0.9-0.5-1.9-0.5-2.8c0.4-2.3,0.5-4.6,0.5-5.1c0,0.4-0.3,2.5-1.1,4.6c-1.4,4.4-3.9,7.7-8.4,9.1
		c-5.6,0.8-11.2,0.6-16.7,0.2c-3.9-1-6.7-3.4-8.7-6.8c-1.5-3.5-2.6-7.2-3.1-10.9c-0.6,3.9,2.1,8-0.2,12.1c-8.6,6.9-18.5,5.9-27.1-3
		c-6.4-6.6-9.9-14.9-11.7-23.8c-0.4-2.8-0.4-5.5,1.9-7.6c-1.2-8.1,4.8-11.1,10.2-14.4c24,4,47.1,13,71.8,13.7
		c4.1,0.1,7.5,2.4,11.3,3.6C280.4,921.7,287.2,923.1,292.4,916.2z"/>
	<path class="st93" d="M292.8,934.1c-0.1-0.6-0.1-1.2,0.1-1.8c0.4-1.1,0.9-1.1,1.5-0.1c0,0,0.1,0.1,0.1,0.1
		C293.9,932.9,293.3,933.5,292.8,934.1z"/>
	<path class="st79" d="M294.4,932.2c-0.5,0.1-1,0.1-1.5,0.1c-0.4-1.7-0.1-3.2,1.2-4.4C294.2,929.4,294.3,930.8,294.4,932.2z"/>
	<path class="st94" d="M270.5,802.2c-5.3-7.6-7.8-16.6-12-24.8c-0.6-1.1-1.3-2.2-2-3.3c-6.7-7.3-12-15.2-10.1-25.9
		c2.6-2.9,5-0.5,7.1,0.6c15.3,8.2,31.6,13.6,48.7,16.2c9.1,1.4,18.2,3.2,27.5,3.2c20.9,0,41.7-0.3,62.6,0.1
		c15.7,0.3,30.8-2.7,46.1-5.2c2.6-0.4,5.2-0.9,7.8-0.9c-3.3,16.2-9.5,31.7-12.4,48c-0.8,4.5-3.8,7.7-8.3,9.2
		c-2.8,0.9-5.6,2.1-8.5,2.8c-16,3.9-31.7,9.3-48.3,9.9c-26,0.9-50.2-6.3-73.5-17.3C286.8,810.8,279.6,804.7,270.5,802.2z"/>
	<path class="st95" d="M70.8,672.2c-0.7-3.3-1.4-6.6-2.2-9.9c2.5-2.8,5.3-1.9,8.3-1c13,3.9,26.5,6,39.8,8.5c2.9,0.5,6,0.4,8.9,0.5
		c7.9,0.3,15.8,0.4,23.8,1.3c8.4,0.9,17.2-0.6,25.6-2c4.5-0.8,9.3-0.8,13.5-3.1c0.6,5.4-1.1,10.5-2.8,15.5c-0.8,2.5-1.6,5.1-1.9,7.7
		c-0.2,1.6,0.8,3.2,2.6,3.8c1.5,0.4,2.6-0.6,3.4-1.5c3.8-4.3,6.1-9.5,8-14.8c1.6-4.4,4.1-7.3,8-9.6c5.8-3.4,9.2-2.9,11.6,3.2
		c2.4,6.1,4,12.6,5.8,19c2.1,7.9,2.9,16.2,6.5,23.8c1.2,2.5,0.6,5.9,0.8,8.8c-0.1,0.6-0.2,1.2-0.3,1.8c-0.4,1.1-1.1,2.1-1.9,3
		c-4.5,4.1-10.1,6.3-15.8,7.9c-39.6,11.4-79.4,12.5-119.4,1.8c-4.4-1.8-6.1-5.9-7.6-9.9c-3.9-10.2-7.5-20.4-11.1-30.7
		C71.6,688.3,70.4,680.4,70.8,672.2z"/>
	<path class="st96" d="M92.6,734.2c22.8,4.3,45.7,7.5,68.9,5.9c23.1-1.6,46.1-4.4,67-15.9c0.6-0.7,1.4-1.2,2-2c0,0,0,0,0,0
		c4.6,0.5,5,4.7,6.8,7.6c3.6,5.8,4,13.3,9.1,18.3c3.4,8.6,6.8,17.3,10.1,25.9c-3.1,8.9-11.3,12.6-18.4,17.1
		c-10.2,6.5-22,9-33.9,10.9c-26.2,4.2-52.1,3-77.5-5.5c-1.2-0.4-2.6-0.3-3.9-0.4c-5-0.5-7.1-4.5-9.2-8.2
		c-8.1-14.4-14.2-29.7-21.2-44.5C91.1,740.6,90,737.3,92.6,734.2z"/>
	<path class="st83" d="M579.8,618c3.7-2.8,8.1-1.6,12.2-1.8C588.3,619.5,583.9,617.9,579.8,618z"/>
	<path class="st94" d="M272.3,806.3c-0.6-0.7-1.2-1.4-1.8-2.2C271.1,804.9,271.7,805.6,272.3,806.3z"/>
	<path class="st97" d="M33.2,788.4c-9.8-20.5-15-42.4-18.5-64.7c-1.8-11.8-2.9-23.7-4.3-35.5c0-1.9,0-3.7,0-5.6
		c0.1-7.5,0.2-15,0.4-22.5c15.7,7.4,32.1,12.6,49.2,15.5c3.9,0.7,8.8,3,10.8-3.4c1.3,1.2,1.6,2.7,2,4.4
		c4.6,19.9,11.2,39.1,19.9,57.6c0.4,1.6,0.6,3.3,1.3,4.7c9.3,19.3,15.9,39.9,28.9,57.2c0,0.7-0.1,1.3-0.2,2
		C91.6,806.2,61.7,803.6,33.2,788.4z"/>
	<path class="st98" d="M33.2,788.4c12.4,2.3,24.2,6.6,36.6,8.7c14.2,2.4,28.2,3.1,42.3,0c3.8-0.8,7.2-1.1,10.5,1
		c6.8,12.7,13.7,25.3,20.5,38c1.4,2.6,3.2,5,3.5,8c0.6,6.5-4.4,8.2-8.9,10.1c-9.7,4.1-19.9,3.6-30.1,3.3
		c-17.1-0.2-31.9-7.5-46.7-14.9c-8.7-5.2-12.1-14.4-16.7-22.7c-1.9-3.5-3.5-7.1-5.4-10.5c-2.3-4.7-4.5-9.4-4.2-14.9
		C34.3,792.5,33.7,790.5,33.2,788.4z"/>
	<path class="st99" d="M106.6,854.2c10.8-0.2,21.6,1.1,32-3.6c3.5-1.6,6.4-3.2,8.2-6.5c9.3,15.2,18.4,30.5,26,46.6
		c2.3,4.8,4.2,9.7,4.2,15.1c-7.5,4.1-14.6,0-21.9-1.1c-11.1-3.1-22.1-6.7-33-10.4c-7.2-2.5-14.1-5.7-20.5-9.8
		c-3-1.9-6.5-3.5-7.5-7.5C98.4,869.6,99,860,106.6,854.2z"/>
	<path class="st100" d="M292.4,916.2c-0.1,2,0,4-0.2,6c-0.2,2.9-2,4.2-4.8,3.4c-7.1-2.2-15.4-0.1-21.5-6.2c-1.4-1.4-3.9-1.5-5.7-0.6
		c-5.1,2.5-9.6,0-14.4-0.8c-15.5-2.7-30.4-8.4-46.2-9.7c-4.1-0.3-8.1-0.9-9.1-5.9c19-11.1,39.3-11.5,60.5-8.5
		C268,896.1,281.7,903,292.4,916.2z"/>
	<path class="st101" d="M222.3,948.4c-2,0.5-3.9,1.1-5.9,1.6c-1.7-6.6-3.3-13.2-1-21.2C221.8,934.7,220.1,942.3,222.3,948.4z"/>
	<path class="st102" d="M256.3,948.2c-1.2-0.6-2.4-1.1-3.6-1.7c-0.8-5.4,1.1-10.3,3.4-16.9C259.3,937,259.6,942.6,256.3,948.2z"/>
	<path class="st80" d="M230.5,722.2c-0.7,0.7-1.3,1.3-2,2C229.1,723.5,229.8,722.9,230.5,722.2z"/>
	<path class="st103" d="M94.9,876.3c-14-9.6-25.7-21.2-34-36.1c3.8-0.2,7,1.6,10.1,3.5c10.9,6.6,22.9,9.9,35.6,10.6
		c-1.5,4.4-2.8,8.9-4.7,13.1C100.3,870.8,99.8,875.3,94.9,876.3z"/>
</g>
</svg>
