<?xml version="1.0" encoding="utf-8"?>
<!-- Generator: Adobe Illustrator 27.4.0, SVG Export Plug-In . SVG Version: 6.00 Build 0)  -->
<svg version="1.1" id="Layer_1" xmlns="http://www.w3.org/2000/svg" xmlns:xlink="http://www.w3.org/1999/xlink" x="0px" y="0px"
	 viewBox="0 0 720 720" style="enable-background:new 0 0 720 720;" xml:space="preserve">
<style type="text/css">
	.st0{fill:#896B6B;}
	.st1{fill:#EEC44A;}
	.st2{fill:#FBD330;}
	.st3{fill:#F8EBD5;}
	.st4{fill:#B6743D;}
	.st5{fill:#FBF2E0;}
	.st6{fill:#F9EDD8;}
	.st7{fill:#54778A;}
	.st8{fill:#ACB2B0;}
	.st9{fill:#FCCA85;}
	.st10{fill:#C2D9C5;}
	.st11{fill:#FBF3E1;}
	.st12{fill:#FBE3B9;}
	.st13{fill:#FBF1DF;}
	.st14{fill:#F06745;}
	.st15{fill:#FBC421;}
	.st16{fill:#F4E5CB;}
	.st17{fill:#FBF1DD;}
	.st18{fill:#FB736C;}
	.st19{fill:#DDB697;}
	.st20{fill:#D7B08D;}
	.st21{fill:#C85D2C;}
	.st22{fill:#EBD8B5;}
	.st23{fill:#DBB698;}
	.st24{fill:#E57B2C;}
	.st25{fill:#F0D6B9;}
	.st26{fill:#F9E0B3;}
	.st27{fill:#F5E9D9;}
	.st28{fill:#F1D3A1;}
	.st29{fill:#F7C8AA;}
	.st30{fill:#F6DEB8;}
	.st31{fill:#F3D6AC;}
	.st32{fill:#576C6B;}
	.st33{fill:#F6CB9B;}
	.st34{fill:#258697;}
	.st35{fill:#0F4A6B;}
	.st36{fill:#ECBE9A;}
	.st37{fill:#FDD2B9;}
	.st38{fill:#FC7E79;}
	.st39{fill:#F3E0BC;}
	.st40{fill:#E8C2A0;}
	.st41{fill:#EB8C84;}
	.st42{fill:#DC8483;}
	.st43{fill:#A7D0C0;}
	.st44{fill:#BAD5C0;}
	.st45{fill:#F2C8B2;}
	.st46{fill:#E9D7BC;}
	.st47{fill:#FBF4E4;}
	.st48{fill:#F6DDB6;}
	.st49{fill:#2EB2B9;}
	.st50{fill:#F0D194;}
	.st51{fill:#2092A3;}
	.st52{fill:#F2C2A2;}
	.st53{fill:#FAE3BC;}
	.st54{fill:#130F15;}
	.st55{fill:#742B22;}
	.st56{fill:#FBEFDB;}
	.st57{fill:#87B793;}
	.st58{fill:#75B39E;}
	.st59{fill:#3197A1;}
	.st60{fill:#C5CAAA;}
	.st61{fill:#C0D5BD;}
	.st62{fill:#F4CE77;}
	.st63{fill:#B3D0BD;}
	.st64{fill:#BDD5BD;}
	.st65{fill:#FCF6E7;}
	.st66{fill:#F5E8D2;}
	.st67{fill:#F8EBD4;}
	.st68{fill:#F6DCAC;}
	.st69{fill:#F6DDAE;}
	.st70{fill:#E4C199;}
	.st71{fill:#FBEDD1;}
	.st72{fill:#EC5FA7;}
	.st73{fill:#A82773;}
	.st74{fill:#05060F;}
	.st75{fill:#1F8DA2;}
	.st76{fill:#0C2954;}
	.st77{fill:#E3EAEA;}
	.st78{fill:#EFD6AC;}
	.st79{fill:#120B10;}
	.st80{fill:#323E38;}
	.st81{fill:#A14C3A;}
	.st82{fill:#A49077;}
	.st83{fill:#8D7867;}
	.st84{fill:#B8CFB3;}
	.st85{fill:#B3D0BA;}
	.st86{fill:#A8CDBA;}
	.st87{fill:#B3D0BE;}
	.st88{fill:#FA817C;}
	.st89{fill:#F2DDB9;}
	.st90{fill:#E47273;}
	.st91{fill:#81C6C2;}
	.st92{fill:#EBAFA2;}
	.st93{fill:#50B5B7;}
	.st94{fill:#B0D0BE;}
	.st95{fill:#D3D5B9;}
	.st96{fill:#9A135C;}
	.st97{fill:#7B1844;}
	.st98{fill:#344F57;}
	.st99{fill:#2EB1B9;}
	.st100{fill:#1D87A5;}
	.st101{fill:#1B94A3;}
	.st102{fill:#16355C;}
	.st103{fill:#D3E3E4;}
	.st104{fill:#FAD42F;}
	.st105{fill:#04050F;}
</style>
<rect x="0" y="0.5" class="st0" width="720" height="720"/>
<path class="st1" d="M-1462.8-612.6c-0.9,0.6-1.8,1.2-2.7,1.8C-1464.9-611.8-1464-612.5-1462.8-612.6z"/>
<path class="st1" d="M-1471.4-606.8c-0.7,0.5-1.4,1-2,1.6C-1472.8-605.8-1472.1-606.3-1471.4-606.8z"/>
<path class="st1" d="M-1468.9-608.6c-0.9,0.6-1.7,1.2-2.6,1.9C-1470.9-607.8-1470.1-608.5-1468.9-608.6z"/>
<path class="st1" d="M-1455.1-616.7c-0.8,0.5-1.6,1-2.4,1.5C-1456.7-615.7-1455.9-616.2-1455.1-616.7z"/>
<path class="st1" d="M-1465.4-610.8c-0.7,0.5-1.4,1-2.1,1.6C-1466.8-609.8-1466.1-610.3-1465.4-610.8z"/>
<path class="st1" d="M-1459-614.7c-0.8,0.5-1.7,1.1-2.5,1.6C-1460.7-613.6-1459.8-614.1-1459-614.7z"/>
<path class="st2" d="M-1783.2-609.4c-0.6-0.5-1.3-1-1.9-1.5C-1784.4-610.4-1783.8-609.9-1783.2-609.4z"/>
<g>
	<path class="st3" d="M510.1,848.2c-1.8,0.8-3.6,1.5-5.4,2.3c-7.2,0.6-14.2,1.2-21.1,4.7c-7.2,3.6-15.7,2.9-23.8,2.8
		c-4-0.1-8.1,0-12.1,0c-6.3-1.4-13-1.6-18.7-5.4c-2.2-1.5-4.9-0.5-7.3-0.4c-4.7,0.1-9.4,0.4-13.8-1.5c-7.9-2.6-7.9-9.4-8.4-15.9
		c0.3-4.7,0.1-9.5,0.1-14.2c-0.2-2.1,0.1-4.2,0.7-6.3c1-3,2.3-5.8,5.4-7.3c5.2-1.4,10.5,0.4,15.9-0.4c13.1-1.8,21.8-8.5,26.1-21.2
		c3.6-10.5,4.8-10.8,14.6-5.2c5.8,3.4,10.4,2.4,15-2.5c8.9-9.3,10.6-9,18.4,1.3c6.1,8.1,10.5,9.4,20.2,5.3
		c5.7-2.4,11.3-4.6,16.3,1.2c0.8,1.4,1.6,3,1.2,4.4c-5,19.3-7.1,39.6-18.9,56.5C513.1,847.6,511.7,848.1,510.1,848.2z"/>
	<path class="st4" d="M402,835.1c0.7,5.6,1.8,11.1,5.9,15.5c-5.3,2.6-10.9,0.8-16.4,1.2c-4,0.3-8,0.3-12,0.4c-1.2-0.1-2-0.7-2.4-1.8
		c-1.2-7.9-0.7-15.9-2-23.9c-0.5-3.4-0.1-6.8,2.4-9.6c8.2-3.1,16.3-8.1,25.5-3c-0.3,1.8-0.6,3.7-0.8,5.5
		C401,824.7,401,829.9,402,835.1z"/>
	<path class="st5" d="M311.1,857.5c-8.7,0-17.4,0-26.1,0c-12.7,2.9-24.2-3.2-36.3-4.9c-2.4-1.1-4.4-2.8-5.9-4.9
		c-10.4-15.9-13.3-34.2-17.2-52.3c-0.2-5.1,2.6-8.2,6.8-10.4c26.7-14.2,54.5-26.2,81.5-39.8c2.8-1.4,5.9-2.2,9.2-1.1
		c3.9,1.7,5.1,5.4,6.6,8.8c9.3,20.3,18.1,40.8,26,61.7c3.9,13,4,25.5-5.1,36.6c-5.5,4.2-11.9,3.3-18.1,3.6c-1,0.3-1.9,0.5-2.9,0.7
		C323.6,858.8,317.2,857,311.1,857.5z"/>
	<path class="st6" d="M622.1,840.8c-5.6,3-11.5,4.6-17.9,3.8c-1.2-0.1-2.7-0.4-3.7,0c-9.5,4.4-19.4,3.3-29.3,2
		c-0.9,0.3-1.6,1-2.5,1.2c-1.1,0.2-2.3,0.3-3.4,0.5c-1.5,1.1-3,0.8-4.6,0.3c-10.6-1-21.3-0.1-31.9-0.5c-1-0.1-2-0.3-2.9-0.8
		c-3.2-12.2,2.2-21.8,9.8-30.4c3.1-3.5,7.3-6,11.3-8.3c5.3-2.2,9.5-6.2,13.8-9.9c8.9-7.7,19.1-13.4,30-17.8
		c6.9-2.9,14.1-1.8,21.2-1.6c9.8,2,14.3,9.6,18.3,17.7c5.6,12.3,5.6,24.7-0.4,36.8C628.2,837,626.8,840.9,622.1,840.8z"/>
	<path class="st7" d="M525.6,846.2c0.5,0.3,1.1,0.4,1.7,0.4c11.4,2,23-0.7,34.3,1.4c1.2,0.1,2.4,0.2,3.7,0.3
		c-1.7,1.7-3.9,1.7-6.1,1.7c-14,0.1-28.1,0.1-42.1,0.2c-2.5,0-5,0.2-6.9-2c0.7-0.7,1.4-1.3,2.2-2
		C516.7,843.5,521.2,842.3,525.6,846.2z"/>
	<path class="st8" d="M568.7,847.8c0.8-0.4,1.7-0.8,2.5-1.2C570.6,847.5,569.7,847.9,568.7,847.8z"/>
	<path class="st9" d="M705.5,550.4c0.9,9,2.5,17.9,5.3,26.4c-0.4,10.9,2,21.6,2.6,32.4c-0.1,9.1-0.1,18.3-0.2,27.4
		c-0.2,10.7-1,21.4-4.2,31.7c-1.2,1-2.4,2.2-4,2.3c-17.1,1.2-34.2,2.6-51.2-0.9c-5.2-5.6-0.8-10.8,1.3-15.5
		c9.4-21.5,15.5-43.9,19.3-66.9c4.2-25,4.2-50,0.7-75.1c-0.5-2.4-0.8-4.8-1.2-7.2c-0.3-1.3-0.5-2.7-0.7-4c-0.4-2.1-0.6-4.2-0.8-6.4
		c-0.1-1.6-0.4-3.2-0.8-4.8c-0.4-1.5-0.7-3.1-1.1-4.6c-0.3-1.1-0.6-2.3-0.9-3.4c-0.4-1.5-0.6-3-0.8-4.6c-0.2-1.5-0.5-3-1-4.4
		c-0.4-1.1-0.7-2.3-1-3.4c-0.4-1.2-0.6-2.5-0.5-3.8c0.2-1.4,0.9-2.5,2.4-2.9c4.3,0.6,6.1,4.2,8,7.4c6.7,11,13.5,21.9,15.3,35.1
		C696.5,520.2,701,535.3,705.5,550.4z"/>
	<path class="st10" d="M584.6,222c7.3,8.4,10.3,19.1,15.1,28.8c2.9,12.6,6,25.1,7.4,37.9c-0.2,10-0.4,20-0.6,30
		c-0.4,0.7-1,1-1.8,0.8c-0.7-0.3-1.4-0.6-2.1-1c-1.2-0.4-2.4-0.7-3.6-1.1c-15.4-6.4-30.1-14.2-45.6-20.2
		c-15.8-6.1-31.9-11.6-48.2-16.2c-3.9-1.1-8-1.8-10.9-5.1c-2.2-3.5-2.2-7.4-1.9-11.3c4.1-5.2,10.7-7.2,15.3-11.7
		c11.2-9.1,24.3-15.1,37-21.7c9.4-4.3,19-7.8,29.1-9.9C577.5,220.4,581.1,219.4,584.6,222z"/>
	<path class="st11" d="M604.8,317.1c0.2,0.5,0.3,1.1,0.3,1.6c0.6,0.7,1.2,1.4,1.8,2.1l0,0c0.5,0.5,0.9,1.1,1.2,1.8
		c0.5,0.4,0.8,1,0.8,1.7c0.4,0.8,0.9,1.5,1.4,2.2c0.4,0.2,0.6,0.6,0.5,1.1c0.1,1.2,0.9,2.1,1.8,2.8l-0.1-0.1c0.5,0.6,1,1.3,1.4,2
		c0.5,0.2,0.7,0.6,0.6,1.2c0.1,1.2,0.9,2,1.7,2.7l0,0c0.6,0.5,1,1.1,1.3,1.8c0.5,0.4,0.8,0.9,0.7,1.6c0.3,0.9,1,1.5,1.5,2.3
		c0.4,0.2,0.6,0.6,0.5,1.1c0.1,1.2,0.8,2,1.7,2.8l0,0c0.5,0.5,1,1.1,1.3,1.8c0.5,0.4,0.7,0.9,0.7,1.6c0.4,0.8,0.9,1.5,1.4,2.3
		c0.5,0.3,0.7,0.8,0.6,1.4c0.2,1,0.9,1.7,1.4,2.4c0.4,0.3,0.6,0.7,0.5,1.3c0.2,1,0.8,1.7,1.4,2.5c0.4,0.3,0.6,0.8,0.5,1.4
		c0.2,1,0.9,1.6,1.3,2.4c0.5,0.4,0.6,0.9,0.5,1.5c0.3,0.9,1.1,1.5,1.3,2.4l0.7-0.1c0.4,0.6,0.6,1.2,0.7,1.9
		c-0.1,1.5,0.5,2.7,1.8,3.5c0.3,0.6,0.4,1.3,0.3,2c-0.1,0.7,0,1.4,0.4,2c0.4,0.5,0.6,1.1,0.5,1.7c0.9,1.2,0.6,2.9,1.6,4
		c0.4,0.5,0.5,1,0.3,1.6c0.8,1.3,0.6,2.9,1.6,4.1c0.3,0.5,0.4,1,0.3,1.6c0.9,1.2,0.6,2.8,1.4,4c0.2,1.1,0.4,2.1,0.6,3.2
		c0.6,1.4,0.5,3.1,1.5,4.4c0.3,0.5,0.4,1.1,0.3,1.7c1.5,1.7,0.2,4.2,1.6,5.9c0.1,1.1,0.3,2.1,0.4,3.2c0.6,1.4,0.6,3,1.3,4.3
		c0.2,1.8,0.4,3.6,0.6,5.5c-7.5,2.2-14.2,6.5-21.6,8.7c-4.1,1.2-6.6-4-7.9-8c-1.8-5.7-2.8-11.6-4.7-17.3c-1.3-4.1-3.3-7.8-8.3-7.6
		c-4.9,0.2-7.2,3.7-7.8,8.1c-1.2,8.2-5.9,12.7-13.8,14.8c-5.3,1.4-8.5,5.3-9.2,10.9c-0.6,5.2,2.9,8.1,6.9,10.3
		c10.2,5.5,19.7,11.4,22,24.2c0.4,2.3,2,4,4.8,3.5c3.1-0.5,5.1-2.3,5.7-5.5c0.9-4.9,0.4-10.1,1.9-15c3.5-11.2,8.6-13.1,17.7-6
		c3.9,3.1,8.5,5.6,10.2,10.8c0.8,9.7-4.6,17.5-8.8,25.4c-17.9,33.7-43.2,60.8-74,82.8c-1.8,1.3-3.5,2.6-5.2,4
		c-16.3,11.4-33.7,20.7-51.7,29c-5.7,2.3-10.9,6.3-17.6,4.6c-13.1-12.8-14.4-21.7-4.3-36.4c4.9-7.1,9.5-13.7,2.3-22
		c-1.7-2-1.6-4.9-0.4-7.3c3.8-7.3,7.8-14.4,12.3-21.2c1-1.6,2.9-3.2,4.7-2.9c8.7,1.2,14.6-3.9,21-8.5c5.7-4.2,12.6-2.8,19.3-2.2
		c3.4,0.3,7.5,3.9,10.3-0.8c2.6-4.4,5.1-9.5,2.3-14.3c-7-11.7-8.4-24.9-11.3-37.8c-1.5-6.7-0.7-11.7,4.6-16c3.4-2.8,6.4-6.1,9.8-8.9
		c10.1-8.3,10.5-16.7,1.1-25.9c-0.4-0.8-0.6-1.7-0.6-2.6c0.1-0.9,0.4-1.7,0.7-2.4c0.2-0.3,0.5-0.7,0.7-1c0.5-0.6,1-1.2,1.5-1.8
		c0.2-0.3,0.5-0.5,0.8-0.8c0.5-0.6,1-1.1,1.5-1.6c0.2-0.3,0.5-0.5,0.7-0.8c0.4-0.6,0.8-1.1,1.2-1.7c0.8-1.2,1.6-2.3,2.5-3.4
		c0.4-0.6,0.8-1.1,1.3-1.6c0.2-0.3,0.4-0.5,0.6-0.8c0.4-0.6,0.8-1.1,1.2-1.7c0.8-1.1,1.6-2.2,2.4-3.2c0.4-0.5,0.8-1.1,1.3-1.6
		c0.2-0.3,0.4-0.5,0.6-0.8c0.3-0.6,0.7-1.1,1.1-1.7c0.3-0.6,0.7-1.2,1-1.8c0.5-0.9,1-1.8,1.6-2.7c0.5-0.9,1.1-1.8,1.7-2.7
		c0.6-0.9,1.2-1.8,1.8-2.7c0.6-0.9,1.2-1.8,1.8-2.6c0.6-0.9,1.1-1.7,1.7-2.6c0.3-0.6,0.6-1.2,1-1.8c0.3-0.6,0.6-1.3,0.9-1.9
		c0.3-0.6,0.6-1.3,0.9-1.9c0.3-0.6,0.6-1.3,0.9-1.9c0.3-0.6,0.6-1.3,0.9-1.9c0.3-0.6,0.6-1.2,0.9-1.9c0.3-0.6,0.6-1.2,0.9-1.8
		c0.3-0.6,0.6-1.2,0.9-1.8c0.3-0.6,0.6-1.2,0.9-1.8c0.4-0.9,0.9-1.8,1.3-2.7c0.2-0.6,0.5-1.3,0.7-1.9c0.3-1,0.7-2,1-3
		c0.6-1.8,1.3-3.5,2-5.2c0.4-1.1,0.9-2.1,1.3-3.2c0.5-1.1,1.1-2.1,2-2.9C603.5,316.3,604.2,316.4,604.8,317.1z"/>
	<path class="st12" d="M555.7,563.6c1.4-2.6,3.7-4.1,6-5.8c28.5-20.7,52.4-45.5,69.5-76.6c4.8-8.8,9.8-17.5,11.8-27.4
		c0.7-8,1.8-15.8,9.3-20.7c2.9,1.7,3,5.5,5.7,7.4c1.3,3.7,2.6,7.4,4,11.1c0.5,0.6,0.9,1.3,1.3,2c0.3,1.1,0.5,2.1,0.8,3.2
		c0.2,1.1,0.9,1.9,1.7,2.6l0,0c1.2,1,0.7,2.8,2,3.7c0,0,0.2-0.2,0.2-0.2c-0.1,1.3-0.2,2.6-0.3,3.9c0.6,0.6,1.1,1.3,1.7,1.9
		c0.1,1.3,0.1,2.5,0.2,3.8c1.2,1,0.7,2.7,1.7,3.8c0.1,1.9,0.2,3.7,0.2,5.6c0.5,0.7,1.1,1.3,1.6,2c0.1,1.9,0.2,3.8,0.2,5.7
		c1.1,1,0.7,2.7,1.7,3.8c0.1,2.5,0.2,5,0.2,7.5c0.6,0.7,1.1,1.3,1.6,2c0.1,2.5,0.2,5,0.2,7.6c2,7.6-0.9,12.7-7.8,15.9
		c-10.1,4.6-17.6,14.4-29.9,15.2c-3.7,0.2-4.8,4.6-6.1,7.8c-1.9,4.7-2.5,9.8-4.6,14.4c-4.2,9.4-7.5,11.1-17.5,8.5
		c-7.3-1.9-13.6,0.8-20.1,3C574.2,580.9,566.2,578.3,555.7,563.6z"/>
	<path class="st13" d="M652.3,433c-3.1,6.9-6.2,13.8-9.3,20.7c-3.3-5.6-9.5-8-14-12.5c-2.7-2.7-5.6-2.1-7.4,1.9
		c-2.5,5.6-3.5,11.3-3.4,17.4c0.2,8-3,11.4-10.7,12.5c-1.8,0.3-3.1-0.3-3.9-1.8c-0.7-1.4-1.8-2.8-1.9-4.3
		c-0.7-12.3-9.3-17.8-18.9-22.7c-1.1-0.6-2.2-1.2-3.4-1.7c-4.9-2.1-7.6-6.1-7.2-11.2c0.5-5.7,2.4-11.2,8.5-13.7
		c0.3-0.1,0.6-0.2,0.9-0.3c9.5-1.2,14.6-5.9,14.3-16.1c-0.1-4,5.8-8,10.3-8.3c4.2-0.3,8.7,2.4,10.1,6.8c2.1,6.6,3.7,13.3,5.4,20
		c0.5,1.8,0.5,3.7,1.6,5.4c2.3,3.4,4.6,3.7,7.8,1.1c0.2-0.2,0.5-0.4,0.7-0.7c3.8-8,9.5-8.2,16.3-4c0.1,0,0.4-0.4,0.7-0.6
		C651.3,424.7,649.8,429.4,652.3,433z"/>
	<path class="st13" d="M646.5,408.1c-1.9-1.6-1.7-3.7-1.6-5.9C646.5,403.9,646.8,405.9,646.5,408.1z"/>
	<path class="st13" d="M648.2,415.6c-1.3-1.2-1.5-2.7-1.3-4.3C648.2,412.5,648.5,414,648.2,415.6z"/>
	<path class="st13" d="M644.7,400.5c-1.5-1.1-1.6-2.7-1.5-4.4C644.5,397.2,644.8,398.8,644.7,400.5z"/>
	<path class="st13" d="M642.6,392.8c-1.3-1.1-1.5-2.5-1.4-4C642.4,389.9,642.8,391.3,642.6,392.8z"/>
	<path class="st13" d="M640.9,387.2c-1.4-1.1-1.7-2.5-1.6-4.1C640.5,384.2,641,385.6,640.9,387.2z"/>
	<path class="st13" d="M639,381.5c-1.4-1-1.6-2.5-1.6-4C638.6,378.5,639.1,379.9,639,381.5z"/>
	<path class="st13" d="M635.6,373.3c0.5,0.2,1.1,0.5,1.6,0.8c-0.1,0.5-0.2,1.1-0.3,1.6C636.4,374.9,636,374.1,635.6,373.3z"/>
	<path class="st13" d="M635.5,370.2c-0.1,0.6-0.2,1.2-0.3,1.9c-1.3-0.9-1.6-2.3-1.7-3.7c0.9-0.5,1.4-0.2,1.6,0.8
		C635,369.5,635.1,369.9,635.5,370.2z"/>
	<path class="st14" d="M635.1,369.1c-0.6-0.2-1.1-0.5-1.6-0.8c0.1-0.7,0.1-1.3,0.2-2C634.2,367.2,634.6,368.1,635.1,369.1z"/>
	<path class="st13" d="M633,366.5c-0.4-0.8-0.9-1.6-1.3-2.4C632.1,364.9,632.6,365.7,633,366.5z"/>
	<path class="st13" d="M631.2,362.5c-0.4-0.8-0.9-1.6-1.3-2.4C630.3,360.9,630.7,361.7,631.2,362.5z"/>
	<path class="st13" d="M629.4,358.7c-0.5-0.8-0.9-1.7-1.4-2.5C628.9,356.8,629.3,357.6,629.4,358.7z"/>
	<path class="st13" d="M627.5,354.9c-0.5-0.8-0.9-1.6-1.4-2.4C626.5,353.3,627,354.1,627.5,354.9z"/>
	<path class="st13" d="M625.5,351.1c-0.5-0.8-0.9-1.5-1.4-2.3C625,349.4,625.5,350.1,625.5,351.1z"/>
	<path class="st13" d="M623.4,347.3c-0.4-0.6-0.9-1.2-1.3-1.8C622.6,346.1,623,346.7,623.4,347.3z"/>
	<path class="st13" d="M622.1,345.5c-0.6-0.9-1.1-1.9-1.7-2.8C621.5,343.3,622,344.3,622.1,345.5z"/>
	<path class="st13" d="M619.9,341.7c-0.5-0.8-1-1.5-1.5-2.3C618.9,340.2,619.4,340.9,619.9,341.7z"/>
	<path class="st13" d="M617.7,337.8c-0.4-0.6-0.9-1.2-1.3-1.8C616.9,336.6,617.3,337.2,617.7,337.8z"/>
	<path class="st13" d="M616.4,336c-0.6-0.9-1.1-1.8-1.7-2.7C615.8,333.9,616.3,334.8,616.4,336z"/>
	<path class="st13" d="M614.1,332.2c-0.5-0.7-0.9-1.3-1.4-2C613.6,330.5,614.1,331.2,614.1,332.2z"/>
	<path class="st13" d="M612.8,330.3c-1.1-0.6-1.7-1.5-1.8-2.8C612,328.1,612.6,329.1,612.8,330.3z"/>
	<path class="st13" d="M610.4,326.5c-0.5-0.7-1-1.5-1.4-2.2C609.8,324.7,610.4,325.4,610.4,326.5z"/>
	<path class="st13" d="M608.2,322.6c-0.4-0.6-0.8-1.2-1.2-1.8C607.4,321.4,607.8,322,608.2,322.6z"/>
	<path class="st13" d="M607,320.8c-0.6-0.7-1.2-1.4-1.8-2.1c0.4,0.1,0.9,0.1,1.3,0C606.7,319.4,606.8,320.1,607,320.8z"/>
	<path class="st15" d="M707.2,681.3c-4.5,13-8,26.4-14.3,38.8c-9.1,18.1-19.7,35-35.2,48.4c-3.3,1-5.4-1.2-7.4-3.1
		c-11.6-10.9-22.1-22.9-34.5-33c-1.2-1-1.9-2.4-2.3-4c-0.4-3.4,1.3-6.1,3.3-8.6c11.4-14,21.1-29.1,29.3-45.3
		c1.4-2.8,2.7-5.8,6.4-6.3c18.8,0,37.6,0,56.4,0C708.4,672.6,707.8,677,707.2,681.3z"/>
	<path class="st16" d="M163.7,848.7c-3.2-1.4-6.3-2.6-9.9-2.1c-5,0.6-10-0.3-14.8-1.8c-5.8,0-8-4.1-9.7-8.6
		c-2.9-8-3.8-16.3-2.1-24.8c4.7-13.9,11.1-26.3,26.9-30.3c7.2,0.1,14.4-0.3,21.7,1c13,2.3,23.9,7.4,31.6,18.7
		c4.1,6,10,10.5,14.9,15.8c7.7,8.3,10.9,18.2,10.5,29.4c-0.5,1-1.3,1.7-2.2,2.2c-7.4,2.2-15.2,0-22.7,2c-8.5-0.7-17.1-0.7-25.6-1.4
		C176.2,848.7,169.9,848.7,163.7,848.7z"/>
	<path class="st17" d="M531.3,785.8c-4.9-2-9.6-2-14.2,1.1c-2.3,1.6-5,2.6-7.6,3.7c-2.5,1-5.3,1.2-7-0.9
		c-3.9-4.6-11.1-6.2-11.7-13.8c-0.2-2.9-3.1-3.7-5.8-1.7c-2.3,1.7-4.4,3.4-6,5.8c-5,7.6-13.5,8-20.1,1.3c-4.1-4.2-5.6-3.9-7.4,1.6
		c-1.5,4.5-2.5,9.1-5.4,13c-9.1,12.3-23.4,16.8-40,12.6c-0.6-0.5-0.9-1.1-0.9-1.8c0.1-1.1,0.5-2.1,0.9-3.1c0.2-0.7,0.5-1.3,0.7-2
		c0.3-1,0.7-2,1-3c0.2-0.7,0.4-1.4,0.7-2c0.3-1,0.7-2,1.1-3c0.2-0.7,0.5-1.3,0.8-2c0.4-1,0.9-1.9,1.3-2.9c0.2-0.6,0.5-1.3,0.8-1.9
		c0.4-1,0.7-1.9,1.1-2.9c0.2-0.7,0.5-1.3,0.7-1.9c0.4-0.9,0.8-1.9,1.3-2.8c0.2-0.6,0.5-1.2,0.8-1.9c0.3-0.9,0.7-1.9,1-2.8
		c0.2-0.6,0.4-1.3,0.7-1.9c0.4-0.9,0.8-1.8,1.3-2.7c0.2-0.6,0.6-1.2,0.9-1.7c0.4-0.9,0.8-1.7,1.2-2.6c0.2-0.6,0.5-1.2,0.7-1.8
		c0.3-0.9,0.6-1.8,0.9-2.7c0.2-0.6,0.4-1.2,0.7-1.8c0.4-0.9,0.8-1.7,1.2-2.6c0.2-0.6,0.5-1.1,0.9-1.7c0.4-0.8,0.9-1.7,1.3-2.5
		c0.2-0.6,0.5-1.2,0.8-1.7c0.4-0.9,0.8-1.8,1.2-2.7c0.2-0.7,0.4-1.3,0.6-2c0.2-1.1,0.5-2.2,0.7-3.4c2.1-7,5.5-13.6,7.9-20.5
		c4.4-10.1,8.8-20.1,13.2-30.2c9.5-18.3,21.2-35.4,31.1-53.5c1.8-3.3,3.8-6.5,7.7-7.9c10-0.3,19,4.1,28.3,6.6
		c22.1,6,44.4,11.9,66.4,18.4c10.9,3.3,12.1,6,7.3,16.3c-3,6.3-6,12.5-9.2,18.6c-11.4,20.5-22.2,41.4-33.8,61.8c-0.6,1-1.3,2-1.9,3
		c-0.3,0.6-0.7,1.2-1.1,1.8c-0.5,0.9-1,1.8-1.5,2.7c-0.3,0.6-0.6,1.2-0.9,1.8c-0.4,0.9-0.9,1.8-1.3,2.6c-0.2,0.6-0.5,1.2-0.7,1.9
		c-0.3,1-0.7,2-1,2.9c-0.6,1.7-1.2,3.4-2,5c-0.4,1-0.9,2-1.4,3c-0.3,0.7-0.6,1.3-0.9,2c-0.4,1-0.8,2.1-1.2,3.1c-0.3,0.7-0.6,1.4-1,2
		c-0.5,0.6-1,1.1-1.7,1.5C532.1,785.6,531.7,785.7,531.3,785.8z"/>
	<path class="st18" d="M412.2,791.2c-0.3,0.5-0.5,1.1-0.4,1.8c-1,1.1-0.7,2.8-1.6,3.9c-0.3,0.5-0.5,1-0.4,1.6
		c-0.9,1.3-0.6,3-1.7,4.1c-0.3,0.4-0.4,0.9-0.3,1.4c-0.2,0.9-0.9,1.6-1.3,2.4c-0.2,0.7-0.3,1.3-0.5,2c-1.1,1.9-2.2,3.8-3.2,5.7
		c-8.6-0.3-16.5,4.4-25.1,4.1c-9.3,4.8-17.1,0.3-25-4.1c-10.1-22.7-18.5-46.2-29.9-68.4c-6.2-5-8.1-12.3-9.8-19.6
		c0.6-7.6,5.5-7.7,10.8-5.7c10.6,4,21.8,6,32.5,9.7c11.2,6.5,11.3,6.5,8,19.5c-0.9,3.5-0.1,6.2,3.3,7.8c1.7,0.8,3.5,1.4,5.3,2
		c2.9,1.1,6.6,1.5,8.7,3.4c9.9,9.2,22.9,14.6,31.2,25.7C412.8,789.5,412.6,790.4,412.2,791.2z"/>
	<path class="st19" d="M534.8,778.1c0.2-0.6,0.2-1.1,0.3-1.7c0.8-0.7,1.7-1.3,2.7-1.7c9.5-4.5,19.7-3.5,29.7-4.1
		c10.9,0.3,21.7,0.8,32.4,2.8c5.2,1,11.6,1,12.9,8.3c-7.6,0.4-15.4-0.8-22.8,2c-17.1,3.8-32.9,9.6-41.7,26.6
		c-14.2,7.8-19.6,21.1-22.6,35.9c-4.4,0-8.8,0-13.3,0c10.4-18.9,14-39.9,19-60.4c0,0-0.1,0-0.1,0c0.5-0.6,1.1-1.3,1.5-2
		c0.1-0.7,0.2-1.3,0.3-2C534.3,780.8,533.8,779.1,534.8,778.1z"/>
	<path class="st20" d="M402,835.1c-2.5-5.2-2.5-10.4,0-15.5C402,824.8,402,829.9,402,835.1z"/>
	<path class="st21" d="M352.8,814.1c4.2-0.4,8.1,0.2,12,1.7c4.1,1.6,8.5,2.2,12.9,2.4c-1,7.8,2.3,15.3,1.9,23.1
		c-0.2,3.7,0,7.4-1.9,10.9c0,0,0,0,0,0c-8.6,1.9-17.3,0.5-25.9,0.8c-1.8,0.1-2.9-0.8-2.6-2.8C355.8,838.5,356.6,826.5,352.8,814.1z"
		/>
	<path class="st22" d="M315.2,726.8c3,6.1,5.7,12.4,7.7,18.9c-2.6-0.1-4.9,0.7-7.2,1.8c-27.3,13.4-54.7,26.7-82,40
		c-3.3,1.6-6.1,3.4-5.6,7.6c-7.9-3.5-5.8-12.4-9.6-18.1c-6.5-16.8-15.7-32.4-23.8-48.5c-1.9-3.7-5.2-7.5-2-12.2
		c4.1-2.8,9.3-1.5,13.6-3.5c4.5-2.1,6.3-3.8,1.8-8.8c-10.8-12.2-12.2-27.7-12.4-43.2c-0.1-4.1,3.1-7,6.9-8.2
		c21.3-6.6,42.5-13.3,64.6-16.8c9.5,3.3,10.4,13.5,15.9,20c8.5,16.1,18.5,31.3,25.9,48C311.9,711.1,315.4,718.5,315.2,726.8z"/>
	<path class="st23" d="M220.5,776.1c4.4,5.6,3.9,13.1,7.5,19c3.1,11.5,6.3,23,9.4,34.5c1.6,6.1,4.3,11.8,7.5,17.1
		c-4.3-0.1-8.7-0.3-13-0.4c-1.6-5.7-3.3-11.5-4.8-17.2c-1-3.8-2.9-6.8-5.7-9.6c-7.4-7.3-15-14.2-21.1-22.8c-3.1-4.4-7.7-7.1-13-8.8
		c-10.9-3.4-22.1-4.5-33.4-4.7c1.1-5.4,5.8-6.1,9.9-7.4c9.4-2.9,19.1-3.2,28.8-3.1c4,0,8.2,0.8,12-1.2
		C210.4,771.3,215.8,772.5,220.5,776.1z"/>
	<path class="st24" d="M612.7,781.7c-4.7-4.1-10.5-5.2-16.5-5.7c-8.1-0.7-16.1-2.1-24.3-1.6c-1.9,0.1-3.8-0.2-4.9-2
		c0.2-2.8,2-4.5,3.9-6.1c13.6-11.5,27.5-22.8,38.7-36.8c0.6-0.7,1.5-1.1,2.4-1.5c0.9-0.2,1.8-0.1,2.6,0.4
		c13.2,9.6,23.9,21.9,35.6,33.1c2.5,2.4,5,4.7,7.5,7c-4.5,7.4-11.8,12.3-17.2,18.9c-4.4,2.9-8.7,5.8-13.1,8.8
		C623.2,790.8,619.8,784.4,612.7,781.7z"/>
	<path class="st25" d="M548.2,810.3c0.9-5.4,4-9.8,6.5-14.5c1.5-2.7,3.8-5.1,6.9-6.1c9.2-3.1,18.3-6.6,28.2-6
		c-11.5,5.8-22.6,12.1-32,21.2C555.4,807.3,552.3,810,548.2,810.3z"/>
	<path class="st8" d="M561.6,848c-11.5,0.1-23,1.2-34.3-1.4C538.7,846.3,550.2,845,561.6,848z"/>
	<path class="st26" d="M614.6,728.4c-0.6,0.2-1.3,0.4-1.9,0.6c-10.8-12.7-23.1-24.2-32.3-38.3c2.2-8.3,7.2-15.3,10.6-23.1
		c2.8-6.3,2.8-6.6-3.6-8.4c-13.6-3.8-27.2-7.4-40.8-11.2c-19-5.3-38-10.7-57-16c-2.2-4,0.7-7,2.1-10.3c4.3-9.9,10.7-18.9,12.9-29.7
		c4-4.3,9.9-5,14.8-7.6c12.4-6.5,23.9-14.4,36.3-20.8c4.1,2,8.1,3.6,11.3,7.8c4.9,6.5,12.7,4.2,19.2,2.4c5.1-1.4,10.1-3.4,15.2-4.9
		c4.6-1.4,8.7-1.4,12.6,1.3c4.6,3.1,6.8,1.1,9.7-2.9c4.8-6.4,4.3-14.3,7.5-21.2c3.1-6.6,4-8.7,11.4-8.7c5.2,0,8.9-2,12.6-5.2
		c4.4-3.9,8.9-7.4,15-9.2c5.2-1.5,6.8-7,6.9-12.4c2.9,8.3,3.2,17.1,3.6,25.7c1.8,33.9-4,66.9-14.7,98.9
		c-3.8,11.3-8.9,22.1-13.4,33.1c-9.8,19.7-21,38.4-35.1,55.3C616.3,725,615.6,726.8,614.6,728.4z"/>
	<path class="st26" d="M674.9,493.4c-1.3-0.9-1.6-2.3-1.7-3.8C674.6,490.6,675,491.9,674.9,493.4z"/>
	<path class="st26" d="M671.2,476.4c-1.3-0.9-1.7-2.3-1.7-3.8C670.8,473.5,671.2,474.8,671.2,476.4z"/>
	<path class="st26" d="M669.3,468.8c-0.6-0.6-1.1-1.3-1.7-1.9C668.2,467.5,668.7,468.1,669.3,468.8z"/>
	<path class="st26" d="M673.1,483.9c-0.5-0.7-1.1-1.3-1.6-2C672,482.6,672.5,483.3,673.1,483.9z"/>
	<path class="st26" d="M676.8,502.9c-0.5-0.7-1.1-1.3-1.6-2C675.7,501.6,676.3,502.3,676.8,502.9z"/>
	<path class="st26" d="M667.6,463.1c-1.5-0.8-1.9-2.2-2-3.7C667,460.3,667.6,461.5,667.6,463.1z"/>
	<path class="st26" d="M663.2,453.5c-0.4-0.7-0.8-1.3-1.3-2C662.4,452.2,662.8,452.8,663.2,453.5z"/>
	<path class="st26" d="M665.6,459.3c-0.6-0.9-1.1-1.7-1.7-2.6C664.5,457.6,665.1,458.5,665.6,459.3z"/>
	<path class="st27" d="M495.3,88c9-8.3,18-16.5,27-24.8c0.5-0.1,1-0.4,1.3-0.7c0.7-0.4,1.3-0.9,1.9-1.5l-0.1,0
		c0.6-0.8,1.4-1.5,2.5-1.8c0.5,0,1-0.2,1.3-0.6c0.7-0.4,1.3-0.9,1.9-1.5l-0.1,0c0.7-0.9,1.4-1.5,2.5-1.7c0.5,0,0.9-0.1,1.2-0.4
		c0.7-0.6,1.4-1.2,2.4-1.5c0.5,0,1-0.2,1.4-0.5c0.8-0.5,1.4-1.1,2.3-1.4c0.6-0.1,1.3-0.1,1.9-0.3c14.4-5.3,21.4-0.9,26.4,14.8
		c0.8,2.7,1.4,5.5,1.5,8.3c0.8,15,1.5,30.1,2.3,45.1c1.1,27.9,1.3,55.8-0.1,83.8l0,0c-8.8,0-9.9-6.2-10.5-12.9
		c-1.9-14.2,2.1-28.1,1.3-42.3c-0.6-11.6-0.3-23.3,0-34.9c1.7-13.9,0-27.7-2.8-41.3c-2.6-12.5-8.5-14.8-19.8-8.7
		c-13.6,7.3-24.1,18.1-34,29.7c-12.3,14.4-26.3,27.1-39.7,40.5c-1.3,1.3-2.9,2.4-4.8,2.9c-4.8,0.5-9-0.3-10.7-5.7
		c-0.3-2.7,0.9-4.9,2.6-6.8c11.2-12.8,24.6-23.3,37.1-34.7C492.6,88.2,494.1,88.3,495.3,88z"/>
	<path class="st28" d="M565.1,191.7c-0.1,5.7,3.6,8.9,7.9,11.6c3.5,6.4,8.9,11.7,11.6,18.6c-13.9,2-26.8,7.4-40.1,11.7
		c-6.7-5.3-9.1-13.7-5.3-22.6c3.7-8.7,8.1-17.1,15.5-23.4C559.3,186,562.4,188.5,565.1,191.7z"/>
	<path class="st28" d="M573,203.3c0-27.9,0.1-55.8,0.1-83.8c1.8,2.5,1.5,5.4,1.5,8.2c0,23.2,0,46.3,0,69.5
		C574.6,199.3,574.7,201.6,573,203.3z"/>
	<path class="st29" d="M586.2,355c-0.7,1.3-1.3,2.5-2,3.8c-0.6,0.6-1.2,1.2-1.7,1.9c-0.7,1.3-1.4,2.5-2.1,3.8
		c-0.6,0.6-1.2,1.2-1.7,1.9c-0.1,0.6-0.2,1.2-0.2,1.7c-0.6,0.8-1.2,1.5-1.9,2.1l0,0c-0.6,0.6-1.2,1.3-1.9,1.9
		c-0.7,1.2-1.3,2.4-2,3.6c-0.6,0.8-1.2,1.5-1.9,2.1l0,0c-0.6,0.6-1.2,1.3-1.8,1.9c-0.7,1.2-1.4,2.4-2,3.6c-0.6,0.8-1.2,1.5-1.9,2.1
		l0,0c-0.6,0.7-1.2,1.3-1.9,2l0,0c-0.6,0.7-1.2,1.3-1.8,1.9l-0.1,0.1c-0.7,0.6-1.3,1.2-1.8,1.8l0,0.1c-4.6,12.4-16.3,17.7-25.7,25.1
		c-4.1,3.2-8.3,0.4-11.8-2.8c-0.5-0.4-1.1-0.8-1.2-1.4c-2.9-13.5-13.9-16.9-25-20.2c-0.9-0.2-1.7-0.5-2.5-0.8
		c-1.2-0.5-2.4-1.1-3.5-1.7c-2.7-1.5-5.5-2.9-7.9-4.8c-1.8-1.6-3.3-3.3-2.8-5.9c9.6-6.1,15.4-14.4,15.7-26.2c0.1-2.7,6.5-5,0.3-8.3
		c-1.1-0.6-0.3-3.6,0.5-5.4c7.5-4.6,5.8-9.7,0.9-15.1c-5.3-5.8-11.1-11.2-16.5-16.9c-2.8-2.9-6.2-5.4-6.7-10
		c0.2-1.4,0.9-2.5,1.8-3.4c3.6-2.7,7.9-4.6,10.8-8.3c3.8-2.4,3.3-8.7,8.5-9.9c32.1,7.3,62.4,19.5,92.2,33c5.4,2.4,9.9,6.8,16.3,7
		c0.5,0.3,0.7,0.7,0.6,1.1c-0.1,0.4-0.3,0.6-0.4,0.6c-0.1,1.2-0.1,2.4-0.2,3.5c-0.5,0.7-1,1.4-1.7,2.1c-0.7,2.5-1.4,5-2.1,7.4
		c-0.5,0.7-1.1,1.4-1.7,2.1c-0.1,0.6-0.2,1.2-0.2,1.8c-0.6,0.7-1.1,1.3-1.7,2c-0.1,0.6-0.2,1.2-0.2,1.8c-0.6,0.7-1.1,1.3-1.7,2
		c-0.1,0.6-0.2,1.2-0.2,1.8c-0.6,0.6-1.1,1.3-1.7,1.9c-0.1,0.6-0.2,1.2-0.2,1.9c-0.6,0.6-1.1,1.3-1.7,1.9c-0.1,0.6-0.2,1.2-0.2,1.9
		c-0.6,0.6-1.2,1.3-1.7,1.9c-0.1,0.6-0.2,1.2-0.2,1.8C587.4,353.6,586.9,354.4,586.2,355z"/>
	<path class="st30" d="M556,187.7c-3.6,5.9-6.9,12-10.8,17.6c-6.4,9.4-6.1,18.7-0.7,28.3c-3.1,3.2-7.4,4.6-11.3,6.3
		c-8.9,3.8-16.1,10.4-24.7,14.5c-0.5-8.4-3-15.8-8.7-22.6c-4.1-4.8-3-11.9-0.1-17.1c4.5-8.3,4.5-16.1,1.2-24.4
		c-0.8-2-1.3-4.2-0.6-6.5c1-2.1,2.8-3.5,4.8-4.3c10.2-4,19.9-9.5,31.1-10.7C545.3,172.5,553.6,177,556,187.7z"/>
	<path class="st31" d="M500.9,184.3c4.2,7.9,8,16.2,4.8,25c-1.8,4.8-4.9,8.9-5.3,14.5c-0.2,4.3,0.5,7.8,3.6,9.9
		c8.3,5.7,8.6,12.7,4.4,20.8c-3.6,4.8-8,8.6-14.3,9.5c-4.5-0.9-4-5.6-6.3-8.1c-1.8-5.2-6.1-8.2-9.9-11.5c-4.6-4.8-11.7-2.9-16.8-6.3
		c-1-1.4-0.5-3-0.4-4.5c0.6-9.9-1.8-13.1-11.6-16c-0.9-0.3-1.7-0.8-2.2-1.7c0.8-8.2,7.9-11.6,13-16.3c9.5-8.7,21.9-11.8,33.7-15.8
		C496.2,182.9,498.7,182.2,500.9,184.3z"/>
	<path class="st32" d="M490,254.5c3.1,2.4,3.1,6.2,4.2,9.6c0.5,3.7,1,7.5,0.4,11.2c-2.2,3.9-2.7,8.9-7,11.6
		c-1.5-1.5-1.7-3.4-1.1-5.1c2.8-8.2,1.6-16.3,0.3-24.6C487.2,255.5,488.3,254.6,490,254.5z"/>
	<path class="st13" d="M603.3,317.1c-0.1-0.6-0.1-1.1-0.2-1.7c0.6,0.6,1.1,1.2,1.7,1.7C604.3,317.1,603.8,317.1,603.3,317.1z"/>
	<path class="st33" d="M504.6,592.1c3.9,0.6,3.4,2.8,2.1,5.4c-4.4,8.7-8.7,17.4-13,26.1c-1.4,2.8-2.8,5.7-4.1,8.5
		c-12,20.3-24,40.6-35.9,60.8c-6.6-3.6-12.8-3.9-19.1,1.3c-3.1,2.6-7.5,2.8-10.1-1c-4.7-6.7-8.9-13.8-11-21.9
		c-1.3-5.2,1.2-7.9,6-5.5c14.6,7.3,22.9-3.2,32.1-10.9c4.4-3.7,4.1-7.7-1.7-10.1c-12-5-24-9.4-37.5-4.5c-15.5,5.7-31.8,4-47.8,3.7
		c-4.9-0.1-9.2-2.3-13.1-5c-9.3-6.5-18.2-5.8-28.5-1.5c-14.2,5.9-28.7,11-41.9,19.1c-4-2.1-4.7-6.5-6.7-9.9
		c-1.9-3.3-3.8-6.5-6.5-9.2c-3-2.3-4.8-5.4-5.9-8.9c-0.4-1.1-0.8-2.1-1.1-3.2c-0.3-0.6-0.6-1.3-0.9-2c-0.5-0.9-1.1-1.9-1.6-2.8
		c-0.8-1.2-1.4-2.5-1.9-3.8c-0.4-0.9-0.7-1.9-1-2.8c-0.3-0.6-0.5-1.2-0.7-1.8c-0.4-0.9-0.8-1.7-1.2-2.6c-0.3-0.5-0.6-1.1-0.9-1.7
		c-0.5-0.9-0.9-1.7-1.4-2.6c-0.4-0.6-0.7-1.2-1.1-1.9c-0.6-1-1.2-2-1.7-3.1c-0.4-0.8-0.7-1.6-0.9-2.5c-0.6-3.9,0.3-6.8,4.6-7.7
		c3.9-0.4,7.5,1.1,10.9,2.5c36,15,73.9,21.5,112.5,22.1c32.5,0.5,64.7-4,95.9-14.3c3.3-1.1,6.6-2.1,10-2.8c2.1-0.8,4.1-0.2,6.2,0.1
		C493.3,596,499,594,504.6,592.1z"/>
	<path class="st13" d="M487.7,597.9c-1,1.3-2.3,1.7-3.9,1.7c-12.7-7.4-16.9-21.1-10.4-34c1.4-2.8,3.4-5.3,5.3-7.8
		c2.2-2.9,3.5-6.1,2-9.7c-2.8-6.6-1.8-13,0.8-19.3c2.3-5.3,1.9-10.1-0.8-15.3c-4.7-9.1-3.5-13,4.3-19.7c1.9-1.6,4-3.1,5.9-4.7
		c4.5-3.7,9.4-4.3,13.7-0.4c9.1,8.3,17.1,1.1,25.3-1.6c2.4-0.8,2.5-2.8,0.7-4.4c-6-5.6-11.4-11.8-17.1-17.6
		c-2.4-2.5-5.2-1.5-7.7,0.3c-3.3,2.4-6.4,5.2-9.7,7.6c-6.4,4.7-13.2,6.7-21.3,4.9c-8.5-1.9-10.9-0.3-14.7,7.8
		c-0.8,1.7-1.3,3.6-2.7,5c-3.3,3.4-7.7,3.1-10.5-0.8c-0.6-0.8-1.1-1.6-1.2-2.6c-0.7-11.8-7.1-19.6-16.7-25.9
		c-4.2-2.7-5.1-7.2-0.4-11.1c8.6-3.4,17.6-5.2,26.8-5.5c0.9,0.2,1.8,0.6,2.5,1.2c4.1,8.4,10.3,14.7,18.6,19.2
		c5.6,3,10.7,2.9,15.8-0.9c3.7-2.9,7.4-5.8,11.2-8.5c0.8-0.5,2.2-1.3,2.1-1.8c-2.3-11.1,8.4-18.2,8.8-28.4c3-4.6,7.1-8.4,9.1-13.7
		c7.2,4.6,7.2,4.6,12.7-0.4c7.7-6.9,16.3-12.7,23.3-20.4c0.1,0.3,0,0.7,0.2,0.9c3.3,3,7,11.3,8.5,16.2c1.6,5.5,0.1,9.2-4.7,11.8
		c-6.8,3.6-10.9,10.4-17.1,14.8c-1.8,1.2-2.6,3.4-1.7,5c4.9,8.5,2.4,18.6,6.2,27.4c1.7,4,2.4,8.5,5.3,11.9c4,4.7,4.2,9.6,1.2,14.8
		c-0.3,0.5-0.5,1.2-0.8,1.7c-1.4,2.7-0.2,6.5-3.7,8.3c-3.6,1.9-5.7-2.1-8.6-2.4c-9.9-1-20.4-3.5-26.9,7.6c-2.2,3.7-5.6,3.4-9.2,2.9
		c-8.3-1.2-8.3-1.3-11.7,6.5c-2,4.7-5,8.7-8,12.8c-2.8,3.9-2.9,6.9,0.8,10.7c5.2,5.4,5,7.7,1,14.1c-3,4.8-6,9.6-9.2,14.3
		c-3.8,5.4-3.1,10.6-0.1,15.9C483.4,590.2,485.5,594.1,487.7,597.9z"/>
	<path class="st13" d="M576.6,370.2c0.6-0.7,1.3-1.4,1.9-2.1C577.9,368.8,577.2,369.5,576.6,370.2z"/>
	<path class="st13" d="M570.9,377.7c0.6-0.7,1.2-1.4,1.9-2.1C572.2,376.4,571.5,377,570.9,377.7z"/>
	<path class="st13" d="M569.1,379.6c0.6-0.6,1.2-1.3,1.8-1.9C570.3,378.4,569.7,379,569.1,379.6z"/>
	<path class="st13" d="M565.2,385.3c0.6-0.7,1.3-1.4,1.9-2.1C566.5,383.9,565.8,384.6,565.2,385.3z"/>
	<path class="st13" d="M578.7,366.3c0.6-0.6,1.2-1.3,1.7-1.9C579.8,365.1,579.3,365.7,578.7,366.3z"/>
	<path class="st13" d="M563.3,387.2c0.6-0.7,1.3-1.3,1.9-2C564.6,385.9,564,386.6,563.3,387.2z"/>
	<path class="st13" d="M561.6,389.1c0.6-0.6,1.2-1.3,1.8-1.9C562.8,387.9,562.2,388.5,561.6,389.1z"/>
	<path class="st13" d="M559.7,391c0.6-0.6,1.2-1.2,1.8-1.8C560.9,389.8,560.3,390.4,559.7,391z"/>
	<path class="st13" d="M582.5,360.6c0.6-0.6,1.2-1.3,1.7-1.9C583.6,359.4,583.1,360,582.5,360.6z"/>
	<path class="st13" d="M586.2,355c0.6-0.7,1.2-1.4,1.8-2C587.4,353.6,586.8,354.3,586.2,355z"/>
	<path class="st13" d="M588.2,351.1c0.6-0.6,1.1-1.3,1.7-1.9C589.3,349.9,588.7,350.5,588.2,351.1z"/>
	<path class="st13" d="M590.1,347.3c0.6-0.6,1.1-1.3,1.7-1.9C591.2,346.1,590.7,346.7,590.1,347.3z"/>
	<path class="st13" d="M592,343.6c0.6-0.6,1.1-1.3,1.7-1.9C593.1,342.3,592.5,342.9,592,343.6z"/>
	<path class="st13" d="M593.9,339.8c0.6-0.7,1.1-1.3,1.7-2C595,338.4,594.4,339.1,593.9,339.8z"/>
	<path class="st13" d="M595.7,336c0.6-0.7,1.1-1.3,1.7-2C596.9,334.7,596.3,335.3,595.7,336z"/>
	<path class="st13" d="M597.6,332.2c0.6-0.7,1.1-1.4,1.7-2.1C598.7,330.8,598.2,331.5,597.6,332.2z"/>
	<path class="st13" d="M601.4,322.7c0.6-0.7,1.1-1.4,1.7-2.1C602.5,321.3,602,322,601.4,322.7z"/>
	<path class="st13" d="M574.8,372.1c0.6-0.6,1.2-1.3,1.9-1.9C576,370.8,575.4,371.4,574.8,372.1z"/>
	<path class="st34" d="M56.3,723c-0.9-3.1-1.9-6.2-2.8-9.3c4.4-17.4,16.6-23,30-17.1c11.6,5.1,15.2,2.6,20.8-8.6
		c2.6-5.2,2.6-12,8.6-15.2c0.8-0.2,1.7-0.3,2.6-0.2c1.2,0.4,2.2,1.2,3,2.1c0.5,0.6,1,1.2,1.4,1.8c0.4,0.6,0.8,1.2,1.2,1.8
		c0.4,0.6,0.7,1.2,1,1.8c0.5,0.9,0.9,1.8,1.5,2.7c0.4,0.5,0.9,1.1,1.3,1.6c0.8,0.8,1.6,1.6,2.4,2.5c6.9,8.5,12.2,18.1,19.3,26.5
		c1.8,2.1,3.1,4.7,3,7.7c-0.6,4.3-3.4,7.3-6.3,10.2c-12.9,13.3-26.5,25.9-38.3,40.1c-2.9,3.4-5.8,7.8-11.4,7
		c-13.6-13.5-23-29.9-32.1-46.5C59.6,729,58,726,56.3,723z"/>
	<path class="st35" d="M93.3,778.5c11.1-8.8,19-20.7,29.1-30.5c9-8.7,18-17.3,26-27c0.4,0,0.9,0,1.3-0.1c0.9,0.1,1.7,0.4,2.6,0.7
		c15.8,16.1,31,32.8,49.4,46.2c1.5,1.1,2.7,2.6,3,4.6c0.1,4.2-3.1,3.1-5.3,3.2c-10.3,0.3-20.6-0.1-30.8,2.2
		c-5.1,1.2-10.5,1.8-14.8,5.3c-9.4,3.1-15.4,9.9-19.7,18.4c-1.5,3-3,6-4.5,9.1c-7.2-2.9-12.4-8.6-18.3-13.2
		c-2.7-2.1-5.4-4.3-8.1-6.4C100.7,786.4,95.6,783.6,93.3,778.5z"/>
	<path class="st36" d="M281.1,656.7c3.7-6.7,10.3-10.1,16.7-12.7c10.2-4.2,20.9-6.8,30.8-11.8c6.9-3.4,13.7-2.6,19.7,1.7
		c8.6,6.1,17.9,7.8,28.3,7.7c14.6-0.1,28.8-0.9,42.5-6.6c5.3-2.2,10.6,0.4,15.6,1.3c7,1.4,13.7,4.5,20.4,7.2
		c4.2,1.7,5.4,5.6,2.7,9.2c-6.8,9.1-16.3,14.6-26.3,19.4c-2.5,1.2-5-0.2-7.3-1.1c-2.9-1.1-5.5-2.9-8.9-4.7c0.9,10.2,8,17.2,11,25.9
		c0.5,1.5,2.4,1.9,4.1,1.3c2.4-0.9,4.4-2.4,6.3-4c7.1-6.1,11.4-5.2,16.9,3.3c-3.4,10.5-8.7,20.2-13,30.3
		c-18.5,6.2-36.6,13.8-56.5,14.5c-9.5,0.3-18.8,0.2-27.3-5c-12.1-2.5-24.2-5.3-35.6-10.3c-4.8-2.1-6.2-0.1-6.1,4.4
		c-5-11.5-9.2-23.3-15.3-34.3c-4.6-8.3-9.3-16.4-13.9-24.6C284,664.3,281.7,660.9,281.1,656.7z"/>
	<path class="st37" d="M580.4,690.7c11.6,8.4,19.4,20.5,29.2,30.5c1.9,2,3,4.8,3.2,7.7c-12.7,17.1-29,30.5-45.7,43.4
		c-1.1,0.5-2.3,1.3-3.4,1.4c-8.9,0.8-17.9,1.4-26.8,2.1c-0.4-0.3-0.6-0.7-0.4-1.1c0.1-0.4,0.3-0.6,0.4-0.6c0.7-2.5,1.4-5,2.1-7.6
		c0.6-0.6,1.2-1.3,1.8-1.9c0-0.6,0.1-1.3,0.1-1.9c0.6-0.6,1.2-1.2,1.8-1.9c0-0.6,0.1-1.3,0.1-1.9c0.6-0.6,1.2-1.2,1.8-1.9
		c0-0.6,0.1-1.3,0.1-1.9c0.6-0.6,1.2-1.2,1.8-1.9c7.4-15.9,16.3-31.1,24.9-46.4C574.1,701.5,576,695.4,580.4,690.7z"/>
	<path class="st38" d="M356.9,732.7c25.5,4.9,49.8,0.1,73.5-9.5c3.4-1.4,6.9-3.8,10.3,0c-1.9,7.6-6.8,14.1-8.2,22
		c-0.2,1-0.9,1.7-1.4,2.4c-0.3,0.5-0.4,1-0.4,1.5c-0.3,0.8-0.9,1.5-1.4,2.3c-0.3,0.5-0.5,1.1-0.4,1.7c-0.5,0.7-0.9,1.4-1.4,2.1
		c-0.2,0.6-0.3,1.2-0.5,1.9c-0.5,0.6-1,1.2-1.3,1.9c-0.2,0.7-0.4,1.4-0.6,2c-1.2,1-0.7,2.7-1.7,3.7c-0.3,0.4-0.4,0.9-0.3,1.4
		c-0.2,1-0.9,1.6-1.4,2.4c-0.3,0.5-0.4,1-0.4,1.6c-0.5,0.7-0.9,1.4-1.4,2.2c-0.2,0.6-0.3,1.2-0.5,1.9c-1.1,1.1-0.7,2.8-1.7,3.9
		c-0.3,0.4-0.4,0.9-0.3,1.5c-0.3,0.9-0.9,1.5-1.4,2.3c-0.1,0.6-0.3,1.2-0.4,1.8c-1,1.1-0.7,2.7-1.6,3.9c-0.3,0.5-0.4,1-0.4,1.5
		c-0.3,0.8-0.9,1-1.7,0.6c-3.2-4.2-9.6-9-13.9-9.5c-5.1-0.6-8.2-2.8-8.9-8c-0.4-3.3-2.5-4.7-5.4-5.7c-5.4-1.7-10.6-3.9-16-5.5
		c-3.9-1.2-6.9-2.4-7.1-7.3c-0.2-3.5-1.2-6.6,3.1-8.7c3-1.4,2.6-4.1,0.4-6.2C361.7,736.6,359.3,734.7,356.9,732.7z"/>
	<path class="st3" d="M527.4,745.5c-1.1,6.2-1.9,14.4-8,20.6c-5.7,5.8-18.4,5.6-23.8-0.3c-3.1-3.4-3.2-7.8,0.9-10.6
		c6.9-4.8,12.4-10.3,15-18.5c1.1-3.5,8.4-6.4,11.2-5.2c4.1,1.7,4.9,5.3,4.7,9.4C527.3,741.8,527.4,742.8,527.4,745.5z"/>
	<path class="st3" d="M534.8,778.1c0,1.5-0.4,2.8-1.7,3.7C533.1,780.3,533.5,779,534.8,778.1z"/>
	<path class="st3" d="M417.7,778c-0.1-1.6,0.5-2.9,1.7-3.9C419.4,775.6,419,777,417.7,778z"/>
	<path class="st3" d="M410.2,796.9c-0.1-1.6,0.4-2.9,1.6-3.9C411.8,794.5,411.5,795.9,410.2,796.9z"/>
	<path class="st3" d="M423.4,764.7c0-1.5,0.5-2.8,1.7-3.7C425.1,762.5,424.7,763.8,423.4,764.7z"/>
	<path class="st3" d="M408.1,802.7c-0.1-1.6,0.4-3,1.7-4.1C409.9,800.2,409.6,801.6,408.1,802.7z"/>
	<path class="st3" d="M414,787.4c-0.1-1.6,0.4-2.9,1.6-3.9C415.6,785.1,415.3,786.5,414,787.4z"/>
	<path class="st3" d="M431,747.6c0.5-0.8,1-1.6,1.4-2.4C432,746,431.5,746.8,431,747.6z"/>
	<path class="st3" d="M429.2,751.4c0.5-0.8,0.9-1.5,1.4-2.3C430.2,749.9,429.7,750.6,429.2,751.4z"/>
	<path class="st3" d="M427.4,755.2c0.5-0.7,0.9-1.4,1.4-2.1C428.3,753.8,427.9,754.5,427.4,755.2z"/>
	<path class="st3" d="M546.2,753.4c-0.6,0.6-1.2,1.3-1.8,1.9C545,754.6,545.6,754,546.2,753.4z"/>
	<path class="st3" d="M425.7,758.9c0.4-0.6,0.9-1.3,1.3-1.9C426.5,757.6,426.1,758.3,425.7,758.9z"/>
	<path class="st3" d="M544.3,757.2c-0.6,0.6-1.2,1.3-1.8,1.9C543.1,758.4,543.7,757.8,544.3,757.2z"/>
	<path class="st3" d="M542.5,760.9c-0.6,0.6-1.2,1.3-1.8,1.9C541.3,762.2,541.9,761.6,542.5,760.9z"/>
	<path class="st3" d="M540.6,764.7c-0.6,0.6-1.2,1.3-1.8,1.9C539.4,766,540,765.4,540.6,764.7z"/>
	<path class="st3" d="M421.6,768.5c0.5-0.8,1-1.6,1.4-2.4C422.5,766.9,422.1,767.7,421.6,768.5z"/>
	<path class="st3" d="M419.8,772.2c0.5-0.7,0.9-1.4,1.4-2.2C420.7,770.8,420.3,771.5,419.8,772.2z"/>
	<path class="st3" d="M536.7,774.2c0.1,0.5,0.1,1.1,0,1.6c-0.6,0.2-1.1,0.4-1.7,0.5C535.6,775.6,536.1,774.9,536.7,774.2z"/>
	<path class="st3" d="M416,781.7c0.5-0.8,0.9-1.5,1.4-2.3C416.9,780.2,416.5,781,416,781.7z"/>
	<path class="st3" d="M532.8,783.8c-0.5,0.7-1,1.3-1.5,2C531.8,785.1,532.3,784.4,532.8,783.8z"/>
	<path class="st3" d="M411.9,789.5c0.6-0.2,1.1-0.4,1.7-0.6c-0.5,0.8-0.9,1.5-1.4,2.3C412.1,790.7,412,790.1,411.9,789.5z"/>
	<path class="st3" d="M406.6,806.4c0.4-0.8,0.9-1.6,1.3-2.4C407.4,804.8,407,805.6,406.6,806.4z"/>
	<path class="st39" d="M254.5,607.3c0,0.6,0,1.3,0.1,1.9c0.6,0.6,1.2,1.2,1.8,1.9c0,0.6,0.1,1.3,0.1,1.9c0.6,0.6,1.2,1.2,1.8,1.9
		c0.7,1.9,1.3,3.8,2,5.7c0.6,0.6,1.2,1.2,1.8,1.9c0,0.6,0.1,1.3,0.1,1.9c0.6,0.6,1.2,1.2,1.8,1.9c1.3,3.8,2.6,7.6,3.9,11.4
		c-19.7,5.2-39.5,10.4-59.2,15.7c-1.5,0.4-3,1.1-4.5,1.5c-5.4,1.2-7.2,4.9-6.3,9.9c1.3,6.8,1.5,13.8,3.9,20.3
		c1.2,3.3,2.7,6.5,3.2,9.9c0.6,4.3,2.7,6.4,6.7,8c6.4,2.6,6.3,5.6,1.2,10.1c-6.2,5.5-13.5,4.2-20.7,4.3
		c-9.3-6.4-11.5-17.5-17.4-26.3c-7.5-15.3-14.8-30.6-20.9-46.4c-1.2-3.2-2.2-6.6-2.3-10.1c0.1-2.3,0.1-4.6,0.6-6.9
		c0.3-1.3,0.7-2.5,1.1-3.8c0.4-1.2,0.8-2.4,1.2-3.6c0.4-1.2,0.8-2.4,1.2-3.6c1.3-3.5,2.3-7.1,3.9-10.5c0.4-1.1,0.9-2.1,1.4-3.2
		c0.4-1,0.8-2.1,1.2-3.1c0.4-1,0.9-2,1.4-2.9c0.3-0.7,0.7-1.3,1.1-1.9c0.6-0.9,1.4-1.7,2.2-2.5c1.1-1,2.4-1.9,3.7-2.8
		c1-0.7,2-1.4,3.1-2c1.6-0.9,3.3-1.3,5.2-1c4.9,3.6,9,8.1,15.2,10.3c5.9,2.1,5.3,11.3-0.3,15.9c-2,1.7-4.5,2.3-6.8,3.1
		c-2.2,0.8-4.2,1.9-3.9,4.6c0.3,2.7,1.8,4.5,4.5,5.5c10.5,4,21.1,1,27.6-7.8c3.7-5.1,7.5-10.1,11.9-14.7c7.1-7.4,14.3-8.5,23.8-4.1
		c0,0.6,0,1.2,0.1,1.9c0.7,0.6,1.2,1.3,1.8,1.9c0,0.6,0,1.3,0.1,1.9C253.3,606,253.9,606.6,254.5,607.3z"/>
	<path class="st40" d="M177,690.7c5.6,8.5,10.5,17.4,15.1,26.6c9,19.8,21.7,37.8,28.4,58.8c-5.7,0.7-10.9-0.4-15.7-3.6
		c-19-12-34.6-27.6-49.5-44.2c-1.7-1.9-3.4-3.7-5.1-5.5c-0.5-0.8-0.8-1.6-0.8-2.6c-0.7-3.2,1-5.5,2.9-7.6
		c6.4-6.9,13.4-13.4,19.7-20.5C173.3,690.8,174.9,689.6,177,690.7z"/>
	<path class="st41" d="M463.3,134.8c4.3-4.6,8.3-9.5,12.9-13.7c15.4-14,28.1-30.6,42.8-45.2c7-6.9,15-12.5,23.6-17
		c11.2-5.9,16.6-2,20.5,9.3c2.8,8.1,2.6,16.7,3.6,25.1c0.7,5.6,0.2,11.3,0.3,17c-8.8,1-15.4,6-22.1,11.4c-12.8,10.5-25,21.6-37,33
		c-9.1-1.7-17-6.7-25.6-9.6c-4.4-1.6-8.7-3.5-13.2-5.1C466.8,139,463.9,138.2,463.3,134.8z"/>
	<path class="st42" d="M508.5,153.7c6.6-13.1,18.8-20.8,29.6-29.5c4.9-3.9,9.4-8.3,14.4-12c5-3.8,9.3-4.7,14.6-1.8
		c1,27.2,0,54.3-2,81.5c-3.6,0.1-6.2-2.5-9.1-4c-5.4-6.7-11.8-12.3-19.2-16.8C526.4,166.8,515.8,163,508.5,153.7z"/>
	<path class="st43" d="M463.3,134.8c6.8,2.7,13.7,5.4,20.5,8c2.5,3.5,0.3,6.3-2,8.1c-11.9,9.6-21.8,21.3-33.4,31.3
		c-0.9,0.8-2.1,1.3-3.3,1.6c-4-0.1-7.9,0.3-9.7,4.8c-0.3,0.7-0.7,1.4-1.1,2c-0.3,0.7-0.7,1.3-1.1,1.9c-0.4,0.7-0.8,1.3-1.2,1.9
		c-0.4,0.6-0.8,1.2-1.3,1.9c-0.2,0.3-0.4,0.6-0.6,0.9c-0.4,0.7-0.8,1.3-1.3,2c-0.5,0.7-1,1.3-1.6,1.9c-0.7,0.6-1.4,1-2.2,1.3
		c-0.9,0.2-1.7,0.2-2.6,0.1c-6.1-2.5-4.7-7.3-3.6-11.9c2.6-11.4,7.8-21.7,13.2-32c2.8-5.3,5-10.5,3.1-16.9
		c-1.3-4.4,1.5-8.4,3.3-12.4c5-0.4,9.9,3.8,14.9,0.1C454.9,134.5,459.5,133.8,463.3,134.8z"/>
	<path class="st44" d="M438.4,129.4c0.8,0.9,2.6,2.2,2.4,2.7c-1.5,4.5-5.7,7.6-1.6,13.8c2.9,4.4-2.8,9.7-5.1,14.4
		c-5.3,11-10.9,21.8-13.4,34c-1,4.5,0.1,6.6,4.5,7.2c2.4,9.6,0,16.4-7.4,21.3c-5.1-2.9-5.4-8.4-6.6-13.1
		c-6.2-23.8-21.3-43.7-29.7-66.4c-2.3-6.3-6.4-12.6-2.1-19.8c0,0,0.3-0.5,0.3-0.5c11.5,1.2,23.2,0.5,34.8,2.2
		C422.4,126.4,430.5,127.3,438.4,129.4z"/>
	<path class="st45" d="M375.9,123.6c0.6-0.2,1.2-0.5,1.7-0.7c0.6,0.2,1.2,0.4,1.8,0.6c0.6,11.6,6,21.7,10.6,32
		c3.6,8,7.9,15.7,12.3,23.4c7.7,13.5,11.2,28.5,15.4,43.3c2.9,8.6,3.3,17.5,2.9,26.5c-1.5,4.8-5.6,4.9-9.2,4.1
		c-10.3-2.4-21.2-3.9-28.9-12.2c-3.7-4-5.8-2.2-9.2,0.4c-10.6,8.1-22.3,13.3-36.2,9.8c-3.1-5.6-2.5-11.6-1.7-17.5
		c3-21.6,8.6-42.4,19.4-61.6c7.1-12.6,13.7-25.5,16.8-39.8C372.2,128.7,373.4,125.8,375.9,123.6z"/>
	<path class="st46" d="M457.3,445.9c-9.3,3-18.8,4.8-28.5,5.9c-7.9,6.3-17.7,5.9-26.8,6.7c-13.4,1.2-26.8,1-40.2,0
		c-17.1-1.5-34.3-2.5-51.3-5.5c-4.9-0.9-9.9-1.6-14.3-4.2c-0.9-0.5-1.6-1.1-2.3-1.8c-3.6-7,1.3-12.6,3.1-18.7c0.6-2.1,1.8-4,2.4-6.1
		c0.9-3.4,5.2-7.6,1.6-10.1c-4-2.8-9.6-2.2-14.1,1.2c-0.8,0.6-1.4,1.3-2.2,1.8c-2.7,1.9-6,5.8-8.8,2.2c-2.5-3.2,1.7-6,4.1-8.3
		c0.9-0.9-0.2,0.2,0.7-0.6c0.7-0.6,1.5-1.2,2.2-1.8c-1,0.6-1.8,1.4-2.9,1.8c-2.1,0.7-4.3,1.4-6.6,1.5c-4.8-0.3-9.1-2.2-13.6-3.8
		c-6.9-2.5-7.4-6.1-1-10.9c-4.8,1.7-7.4,5.8-11.5,7.3c-2.1,0.7-4.3,1.9-5.9-0.5c-1.2-1.8,0.2-3.6,1.3-5.1c1.7-2.6,5.2-3.7,5.7-7.3
		c6.4-5.1,13.8-9,18.1-16.3c15,4,30.5,4.5,45.7,6.8c6,4.7,12.2,0.7,18.1-0.1c12.2-1.5,22.6-7.5,31.6-15.8c2.7-2.5,5.1-5.9,9.7-4.1
		c2.2,5-1.9,7.5-4.5,10.2c-10.2,10.5-22.1,18.7-33.9,27.2c-8.4,6-8.5,8-0.4,14.7c24.2,19.7,69.8,18.9,90.3-1.4c5-5,6-8.1-0.9-12
		c-6.6-3.7-12.5-8.6-18-13.7c-2.3-2.1-6.2-4-3.1-8.3c4.5-2.1,8.6,0.1,12.8,1.1c9.1,2.3,18.2,4.2,27.6,3.8
		c11.7-2.7,23.2-7.9,35.4-2.4c2,2,3.8,4.1,7,4.2c2.5,1.3,5,2.6,7.5,3.9c0.6,0.7,1.3,1.3,2,1.8c0.6,0,1.2,0,1.8,0.1
		c2,1.5,2.5,2.2,0.5,4.9c-5.2,7.1-12.3,5-19.3,4.4c0.4,5.2,4.4,6.5,5.6,9.6c0.7,1.8,1.6,3.8,0,5.2c-1.6,1.6-3.5,0.3-5.1-0.6
		c-3.2-1.7-5-5.1-7.9-7.2c-0.4,5.3-4.7,4.1-7.8,4.5c-11.2,1.7-10.7,1.5-7.4,12.8C456,430.3,462.4,437.4,457.3,445.9z"/>
	<path class="st47" d="M478.1,381.5c-10.8-3.7-21.2-1.5-31.5,2.1c-1.7,0.6-3,0.2-4.4-0.2c-0.5,0-1,0-1.5,0c-1,0-2,0-2.9,0
		c-5.7-2-11.7-2-17.5-3.3c-12.3-2.9-22.7-8.9-32.5-16.5c-10.1-7.9-14.9-17.7-11.9-30.6c5.5-6.1,7.3-15.3,15.5-19.2
		c0.8-0.4,1.6-0.7,2.4-1c4.1-1,5.6-4.9,8.2-7.6c0.8-0.4,1.6-0.7,2.5-0.7c5.1,0.7,9.1,4,13.4,6.3c12.6,6.9,12.6,7,22.8-2.6
		c2.7-2.5,5.2-5.5,9.3-5.6c11.1,6.1,23.7,9.4,34.1,16.7c5.4,3.8,10.1,8.4,12.6,14.7c0.3,0.9,0.4,1.8,0.4,2.8
		c-0.1,0.5-0.1,0.9-0.2,1.4c0.7,3.1-1.5,7,2.5,9.3c0.5,0.3,0.8,0.8,1.3,1.2c-6.4,3.1-3,9.5-4.5,14.2c-2.3,7.2-6.5,12-13.2,15
		c-1.1,0.5-2.1,1.3-3.1,1.9C479.5,380.4,479.3,381.4,478.1,381.5z"/>
	<path class="st48" d="M457.3,445.9c-0.2-9-4.5-16.9-7.1-25.3c-0.6-1.8-1.6-3.4-2.2-5.2c-1.8-5.6-1-7.2,4.7-7.1
		c4.7,0,9.1-2.3,14-0.9c1.4-3.2-3.9-3.9-2.6-7.2c6.9,2.1,10.7,8.2,16.5,12c-1.4-5.8-6.8-8.5-10.8-13c6.5-4.6,13-4.7,19.6-0.8
		c0.8-2.3-0.6-2.7-1.5-3.4c-1.4-1-2.4-2.4-1.4-4c1.1-1.8,2.7-0.3,4.2-0.3c1.5,0,5.2,5.5,4.6-1.4c6.7,1.7,13.1,4,19.5,6.7
		c3.2,1.4,5.6,2.8,5.1,6.7c-0.5,3.9,2.1,6.4,3.8,9.3c-2.1,3.1,2.5,3.7,2.3,6.6c-2.1,3.4-7.4,3.2-9.9,6.7c-0.4,0.5-0.8,1-1.2,1.5
		c-0.7,0.6-1.5,1.1-2.4,1.6c-0.5,0.3-1.1,0.6-1.7,0.9c-0.6,0.3-1.1,0.6-1.7,0.9c-0.6,0.3-1.2,0.6-1.7,0.9c-0.9,0.5-1.7,0.9-2.6,1.4
		c-0.6,0.4-1.2,0.7-1.8,1c-0.9,0.5-1.9,1-2.9,1.5c-2.1,0.9-4.3,1.7-6.6,0.8c-3.8-2.7,0.4,2.7-1.7,1.7c-1.7,1.8-3.9,2.6-6.1,3.5
		c-1.1,0.4-2.2,0.8-3.3,1.1c-1.1,0.4-2.1,0.7-3.2,1c-1,0.4-2.1,0.7-3.2,1c-1.4,0.4-2.8,0.7-4.3,1c-1.1,0.3-2.1,0.6-3.2,0.9
		c-1.1,0.4-2.2,0.8-3.3,1.1c-1.1,0.4-2.3,0.7-3.5,0.8c-1.8,0.1-3.3-0.4-4.5-1.7L457.3,445.9z"/>
	<path class="st49" d="M476.3,294.5c-0.6,0.6-1.3,1.2-1.9,1.8c-9.6,5.4-18.9,4.7-27.8-1.5c-9-12.9-12.9-26.7-6.6-42
		c1.8-2.9,4.3-5,7.8-5.6c2.3-0.1,4.2,0.8,5.4,2.9c1,1.9,1.3,3.9,1.4,5.9c-0.3,3.8-0.3,7.5,1,11.1c1.5,5.6,2,11.6,6,17.2
		c7.1-7.3,4.6-17.1,7.5-25.1c2.8-2.9,6.5-5,8.5-8.7c0.8-0.5,1.7-0.6,2.6-0.4c0.8,0.5,1.5,1.2,2,2
		C486.9,267.2,487.2,281.6,476.3,294.5z"/>
	<path class="st50" d="M447.7,293c8.3,5.7,17.6,3.3,26.7,3.3c5.9,7.9,13.4,14.1,20.2,21.1c3.6,3.6,6.6,7.6,9.3,11.9
		c3.6,5.8,2.7,7.4-4.1,8.7c-0.9,0.2-1.9,0.1-2.8,0.1c0,0,0,0,0,0c-0.6-0.6-1.1-1.3-1.7-1.9c-5-10.1-13.1-16.9-23.4-20.5
		c-8.1-2.9-15.3-6.9-22.2-11.7c-10.4-2.9-14.2-7.5-13.3-15.8C442,285.6,444.6,289.9,447.7,293z"/>
	<path class="st51" d="M476.3,294.5c-1-1-1-2.3-0.3-3.4c8.2-11.7,6.8-24.6,4.2-37.5c-0.2-0.9-0.2-1.8-0.3-2.8
		c5.8-2.7,7.2,0.8,7.9,5.4c5.3,7.4,4.3,15.4,2.2,23.5c-0.6,2.4-1.6,4.7-2.5,7.1C484.8,290.8,481.2,293.5,476.3,294.5z"/>
	<path class="st48" d="M478.1,381.5c0.6-0.6,1.2-1.3,1.8-1.9c1.3,1.3,2.6,2.5,4,3.8C481.3,384.9,479.3,384.5,478.1,381.5z"/>
	<path class="st48" d="M493.4,389c-0.7-0.6-1.4-1.2-2-1.8C492,387.8,492.7,388.4,493.4,389z"/>
	<path class="st52" d="M419.5,248.8c-1.2-1.1-1.8-2.5-1.9-4.1c-0.1-5.3,0.1-10.5-1.7-15.7c-0.8-2.3-0.5-5,1.7-6.9
		c5.3-5.9,5.2-13.8,7.6-20.7c0,0,0,0,0,0c0.6-0.6,1.2-1.3,1.8-2c0.1-0.6,0.1-1.1,0.2-1.7c0.5-0.8,1.1-1.5,1.8-2.1l0,0
		c0.6-0.6,1.2-1.3,1.8-2c0.1-0.5,0.2-1.1,0.2-1.7c0.5-0.8,1.1-1.5,1.8-2.1l0,0c2.6-4.3,6.7-6.2,11.2-7.7c4.9-3,8.3-7.7,12.4-11.5
		c6.9-6.5,13.2-13.5,20.9-19.2c2.9-2.2,6.3-4.5,6.6-8.8c8.3,3.4,17.1,5.7,24.7,10.9c9.8,5.2,19.9,9.9,28.4,17.3
		c-12.5,3.2-24,8.7-36,13.3c-8.8,1.8-16.4,7.5-25.8,8.2c-4.1,0.3-5.8,6.1-10.1,7.9c-7.6,3.2-12.4,9.7-17.3,16.1
		c-6.4,11.8-15.9,21.2-24.1,31.6C422.8,249.3,421.1,249.6,419.5,248.8z"/>
	<path class="st53" d="M419.5,248.8c7.3-5.3,10.4-14,16.5-20.4c3.9-4.1,7.2-8.7,11.9-12c5.2-2.9,10.1-2.6,12.7,3.1
		c2.4,5.5,8.2,11.4,0.6,17.5c-2,3.6-6,3.6-9.1,5.1c-0.7,0.4-1.4,0.7-2.1,1c-1.5,0.7-2.8,1.6-4.1,2.5c-6.5,4-11,9.7-14.4,16.4
		c-0.8,1.4-1.7,2.7-2.1,4.3c-0.2,0.8-0.4,1.5-0.7,2.3c-0.8,1.9-0.8,3.8,0.4,5.5c1.2,2.1,2.8,3.9,4.2,5.8c1.6,2.4,3.9,4.5,3.4,7.8
		c-0.4,4.4,2.9,6.6,5.5,9.2c2.4,2.4,5.1,4.5,7.6,6.8c-5.4,3.4-9.4,8.4-13.7,12.9c-3.5,3.7-6.6,3.9-10.7,1.4c-7-4.3-14-8.3-21.1-12.5
		c-9.4-9.8-24-14.5-28.2-29.4c-1.1-3.8-4.3-5.3-7.7-6.2c-7.9-2.1-15.8-3.7-23.8-5.6c-4.2-1-7.2,0.3-9.4,4.1
		c-1.6,2.8-2.2,6.8-6.6,7.1c-4.4-4.4-3.8-11.1-7.3-15.9c-3.6-7.5-9.7-12.5-16.8-16.3c-1.8-0.9-3.6-1.7-5.6-2.3
		c-0.8-0.2-1.6-0.5-2.4-0.8c-2-0.8-4.2-1.5-5.7-3.2c-4-10.2,0.5-18.4,6.2-26.3c5.5-2.7,8.9,1.2,12.2,4.3
		c11.3,10.4,21.4,21.9,29,35.4c6.7-1.5,13.5-3,20.2-4.5c7.4-1.7,13.2-5.7,17.3-12.1c0.8-1.3,1.5-2.8,3.9-2.9
		c6.1,15.8,21.7,15.3,34.8,19.5C416.1,251.1,418.1,250.5,419.5,248.8z"/>
	<path class="st54" d="M426.7,267.6c0.2-0.5,0.3-1.1,0.5-1.6c1-1.1,0.6-2.9,1.6-4c3.7-8,8.2-15.3,16.8-18.9c1.2-1,3-0.7,4.2-1.9
		l-0.1,0c10.6-4.4,20.9-3.7,30.9,1.8c4.5,2.7,7.3,6.8,9.4,11.5c-0.7,0.6-1.4,1.2-2.1,1.8c-2.1-2.6-4.2-5.1-7.9-5.4
		c0,0-0.1-0.1-0.1-0.1c-1-1.3-2.4-0.6-3.6-0.7c-0.9-0.1-1.7-0.4-2.5-0.8c-8.6-2.6-17.3-1.9-25.9-0.4c-1.9,1.3-3.7,2.6-5.6,4
		c-5.4,7-10,14.2-8.1,23.7c0.4,2.2-0.1,4.4-2.4,5.6c-1.6-2.2-3.2-4.5-4.8-6.7C425.5,272.8,425.9,270.2,426.7,267.6z"/>
	<path class="st55" d="M480.6,243c-10.2-3.2-20.4-4.2-30.9-1.8c3.2-2.9,7.5-2.8,11.4-4.1C468,237.7,475.3,237.2,480.6,243z"/>
	<path class="st56" d="M360.7,455.6c6.6,0,13.2-0.3,19.7,0c16.3,0.9,32.3-1.9,48.4-3.8c-3.3,5.8,1,8.1,5.1,9.9
		c6.5,3,10.2,8.2,12.8,14.5c1.3,3.1,0.9,6.2,1.1,9.3c0.2,2.7,1,5.2,4.1,5.5c3.7,0.4,4.6-2.2,5.3-5.3c2.5-10.6,8.7-14.3,18.3-10.7
		c6.4,2.4,11.9,0.6,16.9-2.9c4.1-2.9,8.2-5.8,11.8-9.4c5-5,8.7-4.8,12.6,0.5c5.4,7.5,11.9,13.8,19.1,19.4c3.4,2.6,2.7,5.2-1.6,6.6
		c-3,1-6.5,1-9,2.6c-8.9,5.9-16.8,5.6-24.1-2.6c-2-2.2-4.6-1.7-6.8,0.2c-1.2,1-2.3,2.2-3.4,3.2c-3.7,3.3-9.2,5-10.6,10.4
		c-1.4,5.6,3.2,9.2,5.5,13.6c1.5,2.7,1.6,5.2,0.2,8.1c-1.5,3.1-2.5,6.5-3.8,9.7c-1.6,4.1-1.9,8.4,0.8,11.8c3.9,5,1.7,8.8-1.4,12.7
		c-1,1.2-2.2,2.2-3.2,3.5c-6.9,8.4-7.6,16.9-2.1,26.2c2.3,3.8,4.9,7.3,7.3,11c-27,10.1-54.9,15.3-83.7,17.5
		c-35.2,2.6-69.6-1.4-103.7-9.7c-15.7-3.8-30.4-10.4-45.6-15.4c-13.1-2-23.6-9.9-34.8-16.1c-4.1-2.3-7.9-5.1-11.9-7.8
		c-6.4-4.6-12.7-9.6-19.1-14.3c-18.1-14.5-33.8-31.2-47.7-49.7c-3.2-5.4-8.7-9.7-8.6-16.8c3.2-4.6,3.1-9.3,0.7-14.2
		c-2-4.3-3.7-8.7-5.5-13c-3.5-8.7-5.9-17.4,1.3-25.7c2-2.3,1.8-5.3,1.6-8.1c-0.4-6.5,2.4-11.4,6.8-15.9c5.3-5.5,11.4-9.8,17.8-13.9
		c3.6-2.4,6.4-5,5.1-10c-2.2-8.6,1.6-14.6,8.6-19.1c2.6-1.7,4.8-4,7.8-5.2c3.6-0.1,4.7,2.5,5.7,5.2c1.1,2.9-1.8,7.9,4.3,8.3
		c0.8,0.2,1.5,0.6,2.2,1c1.4,0.8,2.5,1.9,3.5,3.2c0.5,0.6,0.9,1.2,1.3,1.8c0.4,0.6,0.8,1.2,1.1,1.8c0.2,0.3,0.4,0.6,0.6,0.8
		c0.4,0.5,0.8,1.1,1.2,1.6c0.2,0.2,0.4,0.5,0.6,0.8c0.4,0.5,0.8,1,1.1,1.6c0.1,0.3,0.2,0.6,0.3,0.9c0.2,0.6,0.2,1.1,0,1.7
		c-0.1,1.4,1.2,0.2,1.6,0.7c0.7,0.2,1.4,0.4,2,0.8c0.6,0.5,1.1,1.1,1.5,1.8c0.3,0.8,0.3,1.6,0,2.5c-0.2,0.4-0.5,0.7-0.7,1.1
		c-6,4-12.6,7.1-17.9,12.2c-2.8,2.7-6.5,3.8-10.4,3.8c-5.4-0.1-9.6,2.6-13.9,5.4c-4.6,3-6.2,6.3-4,11.9c3.2,8.2,2.1,17.5,6.5,25.5
		c3.8,6.9,7.9,12.9,15.7,15.5c7.4,2.5,10.5,7.6,8.5,15.4c-0.5,2.1-0.8,4.4-0.5,6.6c0.7,5.3,3.1,6.6,7.6,3.2
		c7.5-5.8,13.7-13.1,20.6-19.4c13.1-11.8,6.8-27.6,10.2-41.3c0.9-3.6-3.8-4.4-6.3-6.1c-8.5-5.5-8.6-12.8-0.6-19.7
		c0.9-0.3,1.7-0.4,2.6-0.4c1.3,0.1,2.5,0.5,3.7,1c2.5,1.2,5,2.6,7.2,4.3c0.6,0.4,1.2,0.9,1.7,1.4c0.3,0.2,0.6,0.5,0.8,0.7
		c0.6,0.4,1.1,0.8,1.7,1.2c0.6,0.4,1.1,0.8,1.6,1.2c0.5,0.4,1.1,0.8,1.6,1.2c0.3,0.2,0.5,0.4,0.8,0.6c0.5,0.3,1.1,0.7,1.6,1.1
		c0.6,0.3,1.1,0.6,1.6,1c0.8,0.5,1.7,0.9,2.6,1.3c0.6,0.2,1.2,0.5,1.8,0.8c0.6,0.2,1.2,0.6,1.8,0.9c0.6,0.3,1.2,0.6,1.8,0.9
		c0.6,0.3,1.2,0.6,1.8,0.9c0.6,0.3,1.2,0.6,1.7,0.9c0.8,0.4,1.7,0.9,2.5,1.3c0.6,0.2,1.1,0.5,1.7,0.8c0.9,0.3,1.8,0.5,2.8,0.7
		c1,0.1,2,0.3,3,0.6c0.7,0.2,1.3,0.5,2,0.8c1.5,0.9,3,1.9,4.6,2.7c1,0.4,1.9,0.9,2.9,1.2c1,0.3,2,0.7,3,1c1,0.3,2,0.6,3,0.8
		c1.4,0.3,2.8,0.6,4.2,1c1.1,0.3,2.1,0.6,3.1,0.9c1.1,0.3,2.1,0.6,3.2,1c1.4,0.5,2.9,0.8,4.3,1.3c1.1,0.5,1.9,1.3,2.8,2l0,0.1
		c3.3,3.2,1.9,7,1.6,10.7c-0.5,4.4-0.5,8.8,1.2,13c2.2,5.2,4.8,9,11.3,5.5c2.8-1.5,6.1-1.8,9.2-0.9c4.7,1.3,9.5,3.4,9.7,8.9
		c0.2,5.9-5.8,4.3-9.2,6c2.9,8.5,6,16.5,17.3,16.1c4.8-0.2,8.1-0.9,7.8-6.7c-0.2-3.6,1.1-6.9,3.7-9.4c4.9-4.7,3.9-8.6-0.8-12.6
		c-3.7-3.1-7.7-6.4-5.7-11.9c2-5.7,7.3-6.2,12.4-6.9C355.5,457.6,358.5,457.8,360.7,455.6z"/>
	<path class="st22" d="M205.4,565.5c11.6,8.1,23.8,15.1,36.6,21.2c3.1,1.5,6.5,2.5,8.9,5.1c-3.2,2.5-1.1,5.2-0.1,7.8
		c-22-3.5-28.5,14.2-37.6,27.9c-1.8,2.7-3,5-6.1,4.1c-6.5-1.8-13-1.6-19.6-1.7c-6.2-0.1-7.9-4.5-8.5-9.4c-0.7-5.9,2.7-7.8,8-7.7
		c6.1,0.1,8.4-4.2,8.6-9.2c0.3-5.8-3.9-6.3-8.5-5.4c-3.6,0.7-5.2-1.8-6-4.6c-0.7-2.4-0.8-5.1-4.1-5.4c-0.5-4.9,3.6-6.2,6.6-8.1
		C190.8,575.4,198.2,570.6,205.4,565.5z"/>
	<path class="st22" d="M252.7,603.5c-0.6-0.6-1.2-1.3-1.8-1.9C251.4,602.2,252,602.9,252.7,603.5z"/>
	<path class="st22" d="M254.5,607.3c-0.6-0.6-1.2-1.3-1.8-1.9C253.3,606,253.9,606.7,254.5,607.3z"/>
	<path class="st22" d="M256.4,611.1c-0.6-0.6-1.2-1.3-1.8-1.9C255.2,609.8,255.8,610.5,256.4,611.1z"/>
	<path class="st22" d="M258.3,614.9c-0.6-0.6-1.2-1.3-1.8-1.9C257.1,613.6,257.7,614.2,258.3,614.9z"/>
	<path class="st22" d="M262.1,622.5c-0.6-0.6-1.2-1.2-1.8-1.9C260.9,621.2,261.5,621.8,262.1,622.5z"/>
	<path class="st22" d="M264,626.3c-0.6-0.6-1.2-1.2-1.8-1.9C262.8,625,263.4,625.6,264,626.3z"/>
	<path class="st11" d="M510.3,427.2c0.6,0,1.3-0.1,1.9-0.1c0.6-0.6,1.2-1.2,1.8-1.7c0.7,0,1.3-0.1,2-0.1c2,4.8,3.7,8.7-2.8,12.4
		c-6.8,3.8-4.8,10.6-2.2,16.3c-4.6,3.3-9.1,6.2-13.2,9.5c-11.6,9.4-13.6,10-26.3,1.9c-6.9-4.4-14.7-8.9-14.3-19.2
		c1.9,0,3.7-0.1,5.6-0.1c0.6-0.6,1.4-1.1,2-1.8c1.3,0,2.5,0,3.8,0c0.6-0.6,1.3-1.2,1.9-1.8c1.9,0,3.8-0.1,5.6-0.1
		c0.6-0.6,1.4-1.1,2-1.8c1.2,0,2.5-0.1,3.7-0.1c0.7-0.6,1.3-1.2,1.9-1.8c2.5-0.7,5-1.3,7.5-2c0.6-0.6,0.9-1.7,2-1.9
		c2.5-0.6,5-1.3,7.5-1.9c0.7-0.6,1.4-1.1,2-1.8c0.6,0,1.3-0.1,1.9-0.1c0.6-0.6,1.3-1.2,1.9-1.8c0.6-0.1,1.2-0.1,1.8-0.1
		C509,428.4,509.7,427.8,510.3,427.2z"/>
	<path class="st57" d="M42.3,675.6c-3.8-8.7-3.8-18.1-5.6-27.2c-1.8-9.2-1.8-18.6-2.3-27.9c0.2-9.1,0.4-18.2,0.7-27.3
		c0.1-3.1-0.4-6.3,1.5-9.1c3.4,3.2,7,3.7,11.9,3c10.2-1.5,20.7-1,27.5-11c2.1-3.1,3.1-6.9,6.3-9.3c1-0.2,1.9,0.1,2.7,0.8
		c1.6,2.1,2.1,4.5,2,7.1c2.7,19.4,7.6,38.4,14,56.9c1.2,3.6,3,7,3.3,10.8c0,1-0.2,2-0.6,2.9c-17.6,10-35.3,20.1-53.4,29.3
		C47.8,676,45.2,677.3,42.3,675.6z"/>
	<path class="st58" d="M82.3,567.4c-0.7,7.8-11.4,20.6-18.7,22.3c-0.9,0.2-2,0.3-2.7,0c-5.4-2.5-10.3-0.5-15.4,1
		c-7.5,2.3-7.6,2.2-8.9-6.5c0-2.5-0.1-4.9-0.1-7.4c2.2-6.2,1.2-13,4-19.1c1.4-1.2,2.7-2.8,4.6-3.1c12.5-2.6,25.1-4.3,37.5,0.7
		C85.6,559.4,85.5,563.4,82.3,567.4z"/>
	<path class="st59" d="M42.3,675.6c17.2-8.1,33.3-18.2,50.2-26.9c3.3-1.7,6.4-3.9,10.5-3.5c2,0.3,3.4,1.5,4.4,3.1
		c3.9,7,7,14.3,9.6,21.9c0.4,1.2,0,2.4-0.7,3.5c-2.8,0.2-5,1.5-5.3,4.4c-0.6,5.5-3.9,9.9-5.8,14.8c-3.5,8.7-9,11.3-17.9,8.6
		c-3-0.9-5.8-2.4-8.7-3.4c-8.4-2.8-10.6-2.2-16.4,4.4c-3.1,3.5-4.7,8.1-8.5,11.1C47.7,701.6,44.2,688.8,42.3,675.6z"/>
	<path class="st60" d="M116.2,673.7c-4.4-9.5-8.8-19-13.2-28.5c0.1-0.6,0.2-1.2,0.2-1.8c0.9-3,3.3-4.6,5.7-5.9
		c10.3-5.4,20-11.7,30.6-16.5c2.9-1.3,5.7-2.7,9-1.3c4.6,3.6,3.1,9.6,5.6,14c1.1,7.8,4.1,14.9,7.3,22c5.3,11.6,10.4,23.2,15.7,34.9
		c-8.2,8.5-16.3,17-24.5,25.5c-1.4,1.4-2.1,3.1-2.4,5c-0.5,0.5-1.1,0.5-1.6-0.1c0,0-0.1-0.1-0.1-0.1c-8.2-11.4-16.4-22.7-24.6-34.1
		c-0.6-0.7-1.4-1.4-1.7-2.4c0-0.6-0.2-1-0.6-1.5c-0.5-0.7-0.9-1.4-1.4-2.1c0-0.6-0.3-1.2-0.7-1.7c-0.3-0.7-0.7-1.3-1.3-1.8l0,0
		C117.1,676.5,117.6,674.7,116.2,673.7L116.2,673.7z"/>
	<path class="st59" d="M116.2,673.8c1.4,0.8,1.9,2.1,2,3.7C116.8,676.6,116.3,675.3,116.2,673.8z"/>
	<path class="st59" d="M118.2,677.5c0.4,0.6,0.9,1.2,1.3,1.8C119.1,678.7,118.6,678.1,118.2,677.5z"/>
	<path class="st59" d="M120.2,681c0.5,0.7,1,1.4,1.4,2.1C121.2,682.4,120.7,681.7,120.2,681z"/>
	<path class="st59" d="M122.2,684.6c0.6,0.8,1.1,1.6,1.7,2.4C123.3,686.2,122.7,685.4,122.2,684.6z"/>
	<path class="st34" d="M148.6,721.2c0.5,0,1,0,1.6,0.1c0.1,0.5,0.2,1,0.1,1.6C149.7,722.2,149.1,721.7,148.6,721.2z"/>
	<path class="st61" d="M154.1,633.8c-3.3-3.8-5.6-8-5.6-13.2c-5.2-5-6.5-12.1-9.4-18.3c-2.6-5.7-5-11.6-7.1-17.5
		c-2.8-7.4-3.8-7.8-12-7.2c-8.1,0.6-16.2,2.6-24.4,2.4c-4.4-0.1-9,0.1-11.3-4.9c-0.1-2.5-0.2-5-0.2-7.5c-1.6-1.9-0.8-4,0.5-5.1
		c9.2-8.2,18.1-17.4,32-15.5c6.1,0.8,7.2-1.3,6.4-6.6c-0.6-3.7-1.2-7.5-1.7-11.2c-2.4-15.8,1.9-22,18.1-26.3
		c8.3,7.6,13.6,17.8,21.9,25.4c8.5,7.8,16.4,16.2,25.2,23.6c-4.1,14-10.2,27.1-17.6,39.7c-1.2,1.3-2.2,2.8-3,4.4
		c0,0.6-0.1,1.3-0.1,1.9c-0.6,0.6-1.2,1.2-1.7,1.9c-0.1,1.3-0.1,2.5-0.2,3.8c-0.6,0.6-1.2,1.3-1.7,1.9c-1.3,4.4-2.6,8.9-3.9,13.3
		c-0.6,0.6-1.2,1.2-1.7,1.8c-0.1,1.3-0.1,2.5-0.2,3.8c-0.6,0.6-1.2,1.2-1.8,1.9C154.2,628.8,154.2,631.3,154.1,633.8z"/>
	<path class="st62" d="M167.4,592.2c3.8-12.3,10-23.5,15-35.3c0.9-2.1,2.1-3.8,4-5.1c6.3,4.6,12.7,9.1,19,13.7
		c-0.1,4.1-3.1,5.8-6,7.8c-7.5,5.1-15.8,8.9-22.5,15c-1.3,0.7-2.5,1.3-3.8,2c-0.7,0.6-1.3,1.2-2,1.7c-1.2,0.6-2.4,1.2-3.6,1.8
		c-0.6-0.3-0.9-0.6-0.7-1C167,592.4,167.2,592.2,167.4,592.2z"/>
	<path class="st22" d="M167.4,592.2c0.1,0.6,0.2,1.1,0.2,1.7c-0.6,0.7-1.3,1.4-1.9,2C165.7,594.4,166,593.1,167.4,592.2z"/>
	<path class="st22" d="M171.2,592.1c0.7-0.6,1.3-1.2,2-1.7C172.5,590.9,171.8,591.5,171.2,592.1z"/>
	<path class="st22" d="M163.8,599.7c0.6-0.6,1.2-1.3,1.7-1.9C165,598.4,164.4,599.1,163.8,599.7z"/>
	<path class="st22" d="M161.9,605.4c0.6-0.6,1.2-1.3,1.7-1.9C163.1,604.1,162.5,604.7,161.9,605.4z"/>
	<path class="st22" d="M156.3,620.5c0.6-0.6,1.2-1.2,1.7-1.8C157.4,619.3,156.8,619.9,156.3,620.5z"/>
	<path class="st22" d="M154.3,626.2c0.6-0.6,1.2-1.3,1.8-1.9C155.5,625,154.9,625.6,154.3,626.2z"/>
	<path class="st44" d="M443.9,182.3c-3.1,3.5-7.1,5.6-11.2,7.7c0.1-2,1.3-3.4,2-5.1C436.9,179.9,440,180,443.9,182.3z"/>
	<path class="st44" d="M426.9,199.4c-0.6,0.7-1.2,1.3-1.8,2C425.7,200.7,426.3,200.1,426.9,199.4z"/>
	<path class="st44" d="M428.9,195.7c-0.6,0.7-1.2,1.4-1.8,2.1C427.7,197.1,428.3,196.4,428.9,195.7z"/>
	<path class="st44" d="M430.7,193.7c-0.6,0.7-1.2,1.3-1.8,2C429.5,195,430.1,194.4,430.7,193.7z"/>
	<path class="st44" d="M432.7,190c-0.6,0.7-1.2,1.4-1.8,2.1C431.5,191.4,432.1,190.7,432.7,190z"/>
	<path class="st63" d="M338.1,250.6c-3.4,1.8-3.5-1.5-4.5-3c-7.6-10.7-16-20.7-25.6-29.8c-3-2.8-6.1-5.4-9.8-7.1
		c-5,0.1-8.8-3-12.6-5.6c-9.9-6.7-20.4-11.8-31.8-15.3c-8.9-3.7-17.8-7.2-26.9-10.2c-3.4-1.1-7.3-1.8-8.9-5.9
		c1.2-6.5,6.9-8.3,11.5-11.1c4.4-2.8,9.3-4.8,13.9-7.5c6.7-4.2,13.7-7.7,21.7-8.4c13.7,7.8,24.4,19.2,35.8,29.8
		c4,3.7,7.3,8.8,13.7,8.7c0.9-0.1,1.8,0.1,2.6,0.3c2.5,0.7,4.5,4.5,7.4,1.7c2.7-2.5,1.7-5.7,0.6-8.8c-5.2-15.5-13.2-29.6-20.3-44.2
		c-0.1-0.9,0.1-1.8,0.5-2.6c9.9-1.7,19.8-3.5,29.8-5.1c13.4-2.1,26.9-3.7,40.5-2.9c-0.8,10.8-4.5,20.9-8.8,30.7
		c-5.2,11.9-12.9,22.4-17.3,34.6C342.4,208.9,336.7,229.1,338.1,250.6z"/>
	<path class="st27" d="M229.9,58.6c9,6.4,16.8,14.1,25.2,21.3c6.1,8,13.5,14.9,20.9,21.6c10.4,9.6,20.3,19.6,29.7,30.2
		c-0.1,0.4-0.1,0.7-0.1,1.1c-2.9,4.2-7,5.4-11.8,4.8c-16.1-11.5-28.2-27-40.5-42.1c-8-9.8-16.4-19-26.6-26.7
		c-17.9-13.4-26-10.2-29.4,11.7c-3.6,23.1-4.9,46.4-4.2,69.7c0.1,3.5,0,6.9,0.1,10.4c0.3,8.5-1,17.1,1.6,25.4
		c0.5,2.9,0.3,5.7-0.6,8.5c-1.6,2.8-3.5,5.8-7.1,4.6c-3.1-1-2.9-4.5-3.1-7.3c-0.8-11.5,1.5-23.2-1.9-34.6
		c-1.2-25.4-1.6-50.8,6.1-75.4c0.8-6.5,1.7-13.1,4.2-19.3c3.4-8.4,9-13.5,18.6-12.8c5.8,2.5,11.6,4.9,17.4,7.4c0,0,0,0,0,0
		C228.6,57.8,229.2,58.2,229.9,58.6z"/>
	<path class="st64" d="M188.3,383.3c-0.1-0.6-0.2-1.2-0.3-1.9c-0.7-1.7-2-2.8-3.5-3.7l-0.1,0c-4.4-1.8-6.1-5.6-7.4-9.7
		c-1.2-2-1.9-4.2-3.9-5.6c-1.9-0.5-3.3-1.8-4.3-3.4C162,348.7,155.7,338,152,326c-0.9-2.9-2-5.9-0.8-9.1
		c12.5-12.4,29.1-17.7,44.4-25.1c5.2-2.5,10.6-5.5,16.8-4.9c1.2,0.3,2.6,0.7,3.2,1.8c9,16.2,22.7,29,32.1,44.8
		c-0.5,4.3-0.1,7.8,5.5,8.1c1.8,0.1,3.4,1.3,3.8,3.5c-0.3,0.9-0.8,1.7-1.5,2.2c-12.2,2.2-24.7,2.6-36.4,6.7
		c11.6-3.8,23.7-5.1,35.8-5.8c1.3,0.2,2.6,0.9,2.7,2.2c1.2,8.5,5.2,15.9,8.2,23.7c0.8,5.8-1.7,9.6-7,12c-3.4,1.5-6.7,3.3-10,5
		c-0.5,0.9-1.2,1.5-2,1.9c-1.7,1-3.4,2-5.3,2.3c-11.2,1.4-22.8-0.3-33.5,5.1c-4.3,0.5-7-1.5-8.6-5.4l0-0.1c-0.5-0.7-1.1-1.3-1.7-1.8
		l-0.1-0.1c-1.2-1.3-2.4-2.6-3.7-3.8l0-0.1c-0.6-0.7-1.2-1.3-1.8-1.9l0,0c-0.6-0.7-1.2-1.3-1.8-1.9l0,0
		C189.5,384.7,188.9,384,188.3,383.3z"/>
	<path class="st65" d="M265.9,374c-8.6-6.1-9.8-15.1-9.5-24.7c-1-1.3-0.9-2.6,0.1-3.8l0,0c-1.6-13,4.9-21.6,15.4-27.7
		c9.8-5.7,20.6-9.5,31-13.8c5.3-0.6,9,2.5,11.9,6.1c5.8,7.5,12.2,7.2,19.5,2.7c2.6-1.6,5.3-3.3,8.1-4.6c3.3-1.5,6.5-2.2,9.6,0.4
		c2.2,1.3,4,3.1,6.4,4.1c0.8,0.3,1.6,0.7,2.4,1.2c8,4.1,10.6,12.4,14.8,19.4c4.9,23.1-12.6,31.6-27.5,40.9
		c-10.3,6.4-22.1,10-34.7,7.5c-12.3,1.3-24.3-1.9-36.5-2.7C272.9,378.8,269.3,376.3,265.9,374z"/>
	<path class="st66" d="M400.4,377.8c8.7,8.2,18.1,15.6,28.4,21.7c5.9,3.5,5.6,3.3,1.1,8.7c-12.8,15.1-29.6,20.4-48.7,20.8
		c-14.4,0.3-28.4-1.1-41.1-8.6c-5.9-3.5-11.8-7.1-15.9-13c-2.6-3.8-2.2-6.2,1.6-8.3c10.4-6,19.4-14,28.9-21.2
		c6.6-4.9,12.4-10.7,17.4-17.2c0.3-4.6,3.1-8.5,6.9-4.8C386.3,363,395.4,368.4,400.4,377.8z"/>
	<path class="st67" d="M360.7,455.6c-0.5,4.3-4.4,4.1-7.1,5.1c-2,0.7-4.4,0.5-6.5,1.1c-2.4,0.7-4.8,1.7-5.1,4.8
		c-0.2,2.5,0.8,4.4,2.8,5.6c3.1,1.7,5.5,4.2,7.8,6.8c2.9,3.4,3.4,6.6-0.7,9.6c-4.6,3.3-7.9,7.1-5.3,13.6c1.5,3.7-0.8,5.9-4.6,6.5
		c-6.7,1-13.1-1.2-19.5-2.4c-2.8-0.5-3.6-3.4-3.5-6c0.2-4.7-1.3-8-6.2-9.1c-1.3-0.3-2.3-1.4-2.3-2.7c0.1-2,1.8-2.3,3.4-2.3
		c2.8-0.1,5.7,0,8.5-0.2c1.2-0.1,2.6-0.2,3-1.8c0.3-1.4-0.5-2.4-1.4-3.3c-4.2-4.4-10-5.4-15.4-2.5c-1.7,0.9-3.2,2-4.9,2.8
		c-2.2,1-4.1,1-5.5-1.6c-4.6-8.4-8.2-16.9-4.6-26.8c0.7-2,0.5-4.4,0.6-6.5c17.2,4.4,34.7,7.3,52.5,7.5
		C351.6,453.7,355.9,456.1,360.7,455.6z"/>
	<path class="st68" d="M247,391.1c0.6,0,1.2,0,1.9,0c1.6,0.3,3.6,0.9,1.5,2.7c-2.8,2.3-6.1,3.9-8.3,8.3c7.2-2.3,11.1-7.5,16.4-10.4
		c1.9-1,3.6-3.2,5.5-0.2c1.8,2.9-1,3.8-2.5,5c-1.7,1.4-3.5,2.6-6.1,4.4c5.9,3.8,12.6,4.3,18.2,7.3c0.4,0.9,0.8,1.9,0.3,2.7
		c-5.5,8-12,15-20.3,20.1c-0.8,0.5-1.8,0.4-2.7,0c-0.6,0-1.3-0.1-1.9-0.1c-0.6-0.6-1.3-1.2-1.9-1.8c-0.6,0-1.2-0.1-1.9-0.1
		c-0.6-0.6-1.3-1.2-1.9-1.8c-0.6,0-1.2-0.1-1.8-0.1c-0.6-0.6-1.4-1.2-2-1.8c-0.6,0-1.2,0-1.8-0.1c-0.6-0.6-1.3-1.2-2-1.9
		c-0.6-0.7-1.3-1.2-1.9-1.9c-0.6,0-1.2-0.1-1.8-0.1c-0.7-0.6-1.4-1.2-2-1.8l0,0c-0.6-0.6-1.2-1.2-1.9-1.8c-2.5-1.3-5.1-2.6-7.6-3.9
		c-0.6-0.6-1.2-1.2-1.9-1.8c-0.6-0.1-1.2-0.1-1.8-0.2c-5.5-2.7-12.1-4.5-9.4-13.1c5.3-4.4,11.4-6,18.1-5.8c5.9,0.2,11.8,0,17.7,0
		C244.2,391.8,246,392.2,247,391.1z"/>
	<path class="st69" d="M294.4,445.9c-1.3,0-2.5,0.1-3.8,0.1c-1-1.2-2.8-0.7-3.8-1.8c-1.3,0-2.5,0-3.8-0.1c-0.6-0.6-1.3-1.2-1.9-1.8
		c-1.9,0-3.7-0.1-5.6-0.1c-0.6-0.6-1.4-1.1-2-1.8c-1.2,0-2.5,0-3.7-0.1c-0.6-0.6-1.4-1.2-2-1.8c-2.7-0.2-4.6-1.4-5.7-3.9
		c-0.6-2.3-1.2,0.1-1.9,0c-1.3,0-2.5,0-3.8,0c-0.6-0.7-1.3-1.2-1.9-1.9l0,0c-0.6-1.3-0.2-2.4,0.7-3.3c7.9-7.8,15.2-16.4,24-23.3
		c4.2-1.4,7.2-4.9,11.7-6.4c-5.5,4.7-11,9.4-16.7,14.3c4.3,3.7,5.7,2.1,6.3,1c5.5-9.2,14.3-7.2,22.5-6.9c3.6,0.1,4,1.8,2.9,5
		C302.3,424.1,295.9,434.2,294.4,445.9z"/>
	<path class="st70" d="M400.4,377.8c-9.4-5.5-16.6-13.4-23.5-21.5c-2.8,0.3-2.8,3.4-4.8,4.4c-6.8,1.1-10.2,7.2-15,11
		c-8.6,6.8-18.3,9.7-28.5,11.5c-4.3,0.7-8.5,2.2-13,2.2c-2.8,0-3.1-1.4-2.2-3.6c18.7-0.5,34.3-8.4,48.7-19.7
		c9.8-7.7,14.1-17.2,11.9-29.6c1.4-1.2,2.7-1.2,4,0.1c-2.1,13.2,3.2,22.5,13.9,30.5c14.6,10.9,30.6,16.7,48.4,18.6
		c0.7,0.6,1.3,1.1,2,1.7c0,0,0,0,0,0c-2,2.3-4.4,1.7-6.9,1.3c-10.8-1.6-21.5-3.7-32.1-6.7C402.3,377.7,401.4,377.9,400.4,377.8z"/>
	<path class="st67" d="M279.3,406.2c-5,6.8-11.7,12-17.4,18.2c-2.5,2.7-5.6,4.9-7.4,8.4c-1.5-0.1-2.9-0.5-3.7-1.8
		c8.3-6.9,15.9-14.5,22.8-22.8C275.5,407.5,277.4,406.8,279.3,406.2z"/>
	<path class="st71" d="M351.3,311.3c-2.5-2.9-5.1-2.7-8.1-0.7c-4.9,3.3-10.3,5.6-15.5,8.4c-3.8,2.1-6.3,1.5-9-1.3
		c-2.6-2.7-5.3-5.3-7.9-7.9c-2-2-3.9-4.1-7-4.2c-1.2-4.4,2.5-6,4.8-8.3c4.7-4.6,9.2-9.4,12.1-15.5c2-2.8,3-7,7.8-6.5
		c8.5-15.7,8.5-15.7,26.9-11.3c4.9,1.2,9.8,2.3,14.7,3.4c6.1,1.4,10.5,4.2,9.7,11.6c-0.3,2.7,0.3,5.4,3.2,6.2
		c10.6,3.2,15.2,12.7,21.4,20.4c-0.7,0-1.4,0.1-2.2,0.1c-1.6,0.9-3.2,0.2-4.8-0.2c-1.6-0.5-3.3-0.6-5-0.6
		c-8.9,0.8-17.8,2.5-26.9,0.5C359.5,304.1,355.6,308.3,351.3,311.3z"/>
	<path class="st72" d="M398.5,303.5c1.2,0.7,2.4,1.5,3.6,2.2c0.7,5.6-2,8.5-7.3,9.4c-0.7-0.5-1.7-1.5-1.6,0.5c-1.8,2-5.3,1.4-6.3,5
		c-1.3,5.1-5.4,8.3-9,11.8c-1.3,0-2.7-0.1-4-0.1c-3.3-2.5-6.1-5.6-7.6-9.5c-1.5-3.8-4.5-5.8-7.8-7.5c0.3-2-0.7-0.8-1.3-0.5
		c-2.8,0.1-3.9-2.5-5.9-3.6c-0.6-3.9,0.9-6.5,4.7-8c2.7-1.1,5.5-1.9,8.2-1.2c10.2,2.7,20.4,0.2,30.6-0.1
		C395.8,303,397.4,302.6,398.5,303.5z"/>
	<path class="st73" d="M393.2,315.7c-0.9-0.1-1.8-0.3-2.7-0.4c-1.2-0.2-2.7-0.7-2.4-2.2c0.5-1.8,2.2-1.9,3.8-1.3
		c1.6,0.5,2.3,1.9,2.9,3.4C394.3,315.4,393.7,315.6,393.2,315.7z"/>
	<path class="st48" d="M442.2,383.4c-0.7-0.6-1.3-1.1-2-1.7C440.9,382.2,441.5,382.8,442.2,383.4z"/>
	<path class="st29" d="M495.3,336.1c0.6,0.6,1.1,1.3,1.7,1.9C496.5,337.3,495.9,336.7,495.3,336.1z"/>
	<path class="st13" d="M493.3,434.7c-0.7,0.6-1.3,1.3-2,1.9C491.8,435.8,490.7,433.3,493.3,434.7z"/>
	<path class="st13" d="M514.1,425.4c-0.6,0.6-1.2,1.2-1.8,1.7C512.9,426.5,513.5,425.9,514.1,425.4z"/>
	<path class="st13" d="M510.3,427.2c-0.6,0.6-1.3,1.2-1.9,1.8C509,428.4,509.7,427.8,510.3,427.2z"/>
	<path class="st13" d="M506.5,429c-0.6,0.6-1.3,1.2-1.9,1.8C505.3,430.3,505.9,429.6,506.5,429z"/>
	<path class="st13" d="M502.7,430.9c-0.7,0.6-1.3,1.2-2,1.8C501.4,432.1,502.1,431.5,502.7,430.9z"/>
	<path class="st13" d="M483.8,438.5c-0.6,0.6-1.3,1.2-1.9,1.8C482.5,439.7,483.2,439.1,483.8,438.5z"/>
	<path class="st13" d="M478.1,440.4c-0.7,0.6-1.3,1.2-2,1.8C476.8,441.6,477.5,441,478.1,440.4z"/>
	<path class="st13" d="M470.5,442.3c-0.6,0.6-1.3,1.2-1.9,1.8C469.3,443.5,469.9,442.9,470.5,442.3z"/>
	<path class="st13" d="M464.9,444.2c-0.7,0.6-1.3,1.2-2,1.8C463.6,445.4,464.2,444.8,464.9,444.2z"/>
	<path class="st74" d="M452,256.4c0-1.9,0-3.8,0-5.7c5.5-6.6,11.6-4.5,17.8-1.4c2,3,2,6.3,1.2,9.7c-0.4,11.3-1.5,22.3-9.3,33.2
		c-5.2-8.2-7.2-16.1-8.3-24.3C451.5,264.2,453.6,260.1,452,256.4z"/>
	<path class="st75" d="M431.8,282c0.6-1.5,0.5-3,0.2-4.6c-3-13.6-1.5-17.2,10.3-24.7c-3.6,12.2-2.9,23.9,3.3,35.1
		c0.9,1.6,1.5,3.4,2.2,5.1c-4.2-0.7-7.2-3.8-11.1-5.1C435,285.9,433.4,284,431.8,282z"/>
	<path class="st76" d="M468.8,250.6c-5.6-3-11.2-2.6-16.8,0.1c-0.8-1.9-2.5-1.9-4.1-2c8.6-5.5,21.5-5.5,28.5-0.1
		C474.4,251.4,471.8,252.1,468.8,250.6z"/>
	<path class="st77" d="M468.8,250.6c2.2-1.9,4.9-2,7.6-2c0,0,0.2,0.4,0.2,0.4c0.7,0.6,1.9,0.7,1.8,2c1.4,6.3-1.3,8.6-7.4,7.9
		C468.1,256.7,468.1,253.8,468.8,250.6z"/>
	<path class="st76" d="M452,256.4c2.3,3.6,1.6,7.6,1.3,11.5C451.1,264.3,451.4,260.3,452,256.4z"/>
	<path class="st51" d="M478.3,251c-0.6-0.7-1.2-1.3-1.8-2c1.6-0.4,2.6,0.5,3.4,1.7C479.3,250.8,478.8,250.9,478.3,251z"/>
	<path class="st78" d="M254.7,187.9c7,0.6,13.2,3.8,19.3,7.1c8.5,4.6,17,9.2,24.2,15.7c-1.7,7.2-6.4,13.4-6.8,21.1
		c-0.1,2,0.3,3.6,1.1,5.3c-1.6,3.1-4.9,2.5-7.4,3.5c-0.7,0.3-1.5,0.5-2.3,0.7c-1.9,0.5-3.7,1.2-5.3,2.3c-4.2,2.7-8.1,5.7-10.2,10.4
		c-3.5,3.6-2.9,9.5-7.1,12.8c-8.7,0.4-13.2-5.6-17.4-11.9c-12-18.6-8.5-37,0.6-55.3C245.8,194.5,248.3,189.2,254.7,187.9z"/>
	<path class="st79" d="M265.3,252.4c2.5-5.2,6.5-8.7,11.5-11.2c1.7-1.7,4.5,0,6.1-2.1l-0.1,0c5.1-1.2,10.2-1.4,15.3,0.2l-0.1,0
		c1.7,1.7,4.4,0.3,6.2,1.9c8.6,3,15.2,8.2,18.7,16.8c0.9,1.6,0,2.3-1.3,2.8c-3.7-0.1-5.7-3.3-8.7-4.7c-1-0.7-2-1.4-3-2.1
		c-1.7-1.2-3.3-2.4-5-3.6c-8.3-4.1-16.6-3.8-25.1-0.5c-0.7,0.5-1.4,1-2.1,1.4c-0.7,0.5-1.4,0.9-2.2,1.2c-2.7,1.1-5.2,2.8-8.4,2.6
		C265.9,254.7,265,253.9,265.3,252.4z"/>
	<path class="st80" d="M321.4,260c0.6-0.7,1.1-1.4,1.7-2c3.9,5.1,6,10.8,5.4,17.3c-1.9,2.5-3.8,5.1-5.7,7.6
		c-0.9,0.6-1.7,0.6-2.4-0.1C320.2,275.1,320.7,267.6,321.4,260z"/>
	<path class="st81" d="M298.2,239.3c-5.1-0.1-10.2-0.1-15.3-0.2c2.7-3,6.5-1.1,9.6-2.1C294.5,237.7,296.8,237.4,298.2,239.3z"/>
	<path class="st82" d="M426.7,267.6c0.1,2.6,0.2,5.2,0.3,7.7C424.1,272.9,424.1,270.3,426.7,267.6z"/>
	<path class="st81" d="M304.4,241.2c-2.4,0.3-4.5,0-6.2-1.9C300.6,238.7,302.6,239.4,304.4,241.2z"/>
	<path class="st83" d="M428.8,262c0.4,1.7-0.3,3-1.6,4C426.7,264.2,427.4,263,428.8,262z"/>
	<path class="st55" d="M449.8,241.2c-0.9,1.7-2.4,2.1-4.2,1.9C446.6,241.6,447.9,240.9,449.8,241.2z"/>
	<path class="st67" d="M207.4,398.7c0.5,6.3,7.1,8.1,9.4,13.1c-3.8,2.2-6.7,5-5.3,9.9c1.2,4.2,3.4,7.3,8.5,7.4
		c4.4,0.1,6.6,3.7,5.6,7.1c-2.1,7,0.3,14.7-4,21.2c-1.6,2.4-0.5,4.5,1.3,6.8c4.2,5.1,4.1,5.4-1.9,8.4c-2.3,1.2-4.6,2.5-5.9,4.6
		c-6.3,10.2-16.2,16.6-24.7,24.5c-3.7,3.4-6.5,2.8-8.9-1.6c-2.5-4.6-1.1-9.3-0.4-13.9c1.2-8.2,1.3-9.3-5.6-11.3
		c-16.5-4.9-20.1-18.7-22.9-32.8c-1-4.9-0.5-10.1-4-14.2c-2.2-2.5-1.4-4.9,0.9-6.5c7-4.8,12.7-12.7,23-10.4c2.6,0.6,5.2-0.9,6.7-2.8
		c5.5-6.5,13-9.7,20.3-13.4C202.2,396,204.1,398.9,207.4,398.7z"/>
	<path class="st84" d="M139.2,502.8c-0.9,1.7-2.2,2.9-3.9,4c-13.6,8.3-14,8.4-11.1,23.4c1.1,5.5,1,11.2,2.4,16.7
		c1.2,4.6-0.4,6.1-4.7,4.4c-5.9-2.4-12-3.1-17.1-0.1c-7.6,4.4-16,8.4-20.9,16.5c-0.6-0.1-1.2-0.1-1.7-0.2c0-3.8-0.1-7.5-0.1-11.3
		c-2.6-2.6-3.4-5.9-3.4-9.4c-0.1-12.1-0.9-24.3,0.7-36.3c3-24.1,6.2-48.2,15.3-71c2.1-5.3,3.9-10.9,11.1-11.2
		c8,6.7,6.7,17.3,10.6,25.7c0.4,1.2,0.7,2.4,1,3.5c0.3,0.7,0.5,1.4,0.7,2.1c0.4,1,0.8,1.9,1.2,2.9c0.3,0.6,0.6,1.2,0.9,1.8
		c0.4,0.9,0.8,1.8,1.2,2.7c0.4,0.9,0.6,1.8,0.9,2.7c0.3,0.9,0.6,1.7,1,2.5c0.3,0.5,0.6,1.1,0.9,1.6c0.3,0.5,0.7,1,1,1.5
		c0,0,0.5,0.8,0.5,0.7c0.4,0.5,0.7,1,1,1.5c0.4,0.5,0.6,1.1,0.9,1.6c0.4,0.8,0.8,1.6,1.2,2.5c0.3,0.5,0.6,1.1,0.8,1.7
		c0.4,0.9,0.8,1.7,0.9,2.7c0.1,0.7-0.1,1.3-0.6,1.7C133,492.7,136.1,497.7,139.2,502.8z"/>
	<path class="st5" d="M129.9,487.7c-0.2-0.5-0.3-1.1-0.3-1.6c-0.6-0.7-1.1-1.3-1.7-2c-0.2-0.5-0.2-1.1-0.2-1.7
		c-0.5-0.8-1-1.5-1.7-2.1c-0.1-0.5-0.2-1.1-0.2-1.6c-0.5-0.8-1.1-1.6-1.8-2.2l0,0c-0.6-0.5-1.1-1.1-1.5-1.7
		c-0.1-0.7-0.2-1.4-0.4-2.1c-0.6-0.5-1.1-1.1-1.5-1.7c-0.2-1.2-0.3-2.4-0.5-3.6c-0.5-0.8-1-1.5-1.7-2.2c-0.1-0.6-0.2-1.1-0.2-1.7
		c-0.5-0.7-1.1-1.4-1.6-2.1c-0.1-0.6-0.2-1.2-0.2-1.8c-0.5-0.6-1.1-1.3-1.5-1.9c-3.1-9.4-6.6-18.6-8.1-28.5c-4.3-4-2.3-9.3-2.6-14.1
		c-0.2-1.6,0-3.1,0.3-4.7c5.5-17.7,10.5-35.5,19-52c8-14.9,17.3-29,26.5-43.2c1.7-0.6,2.6-0.2,2.4,1.8c3.2,14.5,10.6,27.2,18.1,39.7
		c1.1,1.9,2.6,3.5,2.8,5.8c-0.1,4.3-3.5,5.5-6.5,7.2c-8.2,4.9-10,9-6.5,17.8c2,4.9-0.4,6.9-3.8,9.1c-7.9,5.1-16,10-22.2,17.3
		c-1.2,1.4-2.6,2.8-3.7,4.3c-4,5.6,4.2,13.5-2.8,18.1c-7.3,4.8-4.3,11.5-3.2,17c1.2,6.3,4.7,12.2,7.4,18.2
		C136.4,481.5,136.5,481.5,129.9,487.7z"/>
	<path class="st67" d="M177,368.1c3.5,2.5,5.1,6.4,7.4,9.7c-0.9,0-1.8,0-2.8,0c-6.6-0.6-6.6-0.6-5.2-7
		C176.7,369.9,176.9,369,177,368.1z"/>
	<path class="st67" d="M260.3,434.7c1.5-2.7,3.5-4.9,7.2-6.9c-0.8,4.1-3,5.5-5.4,6.9c0,0-0.9,0-0.9,0L260.3,434.7z"/>
	<path class="st67" d="M184.5,377.8c2.3,0.1,3.7,1.2,3.5,3.7C186.4,380.7,185.2,379.5,184.5,377.8z"/>
	<path class="st67" d="M193.9,389.2c2.4,0.1,3.7,1.3,3.7,3.8c-0.6,0-1.2-0.1-1.8-0.1c-0.5-0.7-1.8-0.7-1.9-1.9
		C194,390.4,194,389.8,193.9,389.2z"/>
	<path class="st67" d="M286.8,444.2c1.6,0,2.9,0.5,3.8,1.8C289.1,446,287.7,445.6,286.8,444.2z"/>
	<path class="st5" d="M194,391c0.6,0.6,1.3,1.3,1.9,1.9C195,392.5,192.6,393.6,194,391z"/>
	<path class="st67" d="M254.6,432.8c0.6,0.6,1.3,1.2,1.9,1.9C255.9,434,255.2,433.4,254.6,432.8z"/>
	<path class="st67" d="M188.3,383.3c0.6,0.7,1.2,1.3,1.9,2C189.6,384.7,188.9,384,188.3,383.3z"/>
	<path class="st67" d="M190.2,385.3c0.6,0.6,1.2,1.3,1.8,1.9C191.4,386.6,190.8,386,190.2,385.3z"/>
	<path class="st67" d="M192.1,387.3c0.6,0.6,1.2,1.2,1.8,1.9C193.3,388.5,192.7,387.9,192.1,387.3z"/>
	<path class="st67" d="M197.8,393.1c0.6,0.6,1.2,1.2,1.7,1.8C198.9,394.3,198.3,393.7,197.8,393.1z"/>
	<path class="st67" d="M218.6,412c0.6,0.6,1.3,1.2,1.9,1.8C219.9,413.2,219.2,412.6,218.6,412z"/>
	<path class="st67" d="M228.1,417.7c0.6,0.6,1.2,1.2,1.9,1.8C229.3,418.9,228.7,418.3,228.1,417.7z"/>
	<path class="st67" d="M230,419.5c0.7,0.6,1.3,1.2,2,1.8C231.3,420.7,230.6,420.1,230,419.5z"/>
	<path class="st67" d="M233.8,421.4c0.6,0.6,1.3,1.3,1.9,1.9C235,422.7,234.4,422,233.8,421.4z"/>
	<path class="st67" d="M235.7,423.3c0.7,0.6,1.3,1.2,2,1.9C237,424.5,236.3,423.9,235.7,423.3z"/>
	<path class="st67" d="M239.4,425.2c0.7,0.6,1.3,1.2,2,1.8C240.8,426.4,240.1,425.8,239.4,425.2z"/>
	<path class="st67" d="M243.2,427.2c0.6,0.6,1.3,1.2,1.9,1.8C244.5,428.4,243.9,427.8,243.2,427.2z"/>
	<path class="st67" d="M247,429.1c0.6,0.6,1.3,1.2,1.9,1.8C248.3,430.3,247.7,429.7,247,429.1z"/>
	<path class="st67" d="M267.9,438.5c0.7,0.6,1.3,1.2,2,1.8C269.2,439.7,268.5,439.1,267.9,438.5z"/>
	<path class="st67" d="M273.5,440.4c0.7,0.6,1.3,1.2,2,1.8C274.9,441.6,274.2,441,273.5,440.4z"/>
	<path class="st67" d="M281.1,442.3c0.6,0.6,1.3,1.2,1.9,1.8C282.4,443.5,281.8,442.9,281.1,442.3z"/>
	<path class="st85" d="M106.6,413.9c0,5,0,10.1,0.1,15.1c-4.4,1.6-6.8,4.7-8.4,9.3c-7.5,20.8-12.3,42.1-14.1,64.1
		c-0.2,2.3-1,4.3-1.9,6.3c-5.5,7.5-13.5,10.8-22,12.8c-4,1-8.1,0.4-10.8-3.5c0.8-8,5.2-14.8,6.7-22.6c2-14,8.3-26.2,14.8-38.5
		c7.9-12.5,15.4-25.3,25.2-36.5C98.9,417.3,101.1,412.8,106.6,413.9z"/>
	<path class="st86" d="M49.4,518c7.7,2.5,14.5,0.1,21.3-3.4c3.8-2,6.9-5.4,11.5-5.9c0,15.8,0,31.6,0,47.4
		c-13.9-0.2-27.9-0.4-41.7,1.7C41.7,544.1,44.7,530.8,49.4,518z"/>
	<path class="st87" d="M84.3,575c6.3,3.3,13.2,2.7,19.4,1.4c6.8-1.4,13.8-0.4,20.5-2.9c3.1-1.1,6.8-0.7,7.9,3
		c4.7,15,13.6,28.3,16.4,44c-8.6,2.5-16,7.2-23.7,11.4c-7.2,3.9-14.4,7.6-21.6,11.4C95,629,91.8,613,88.1,597.2
		C86.4,589.9,84,582.7,84.3,575z"/>
	<path class="st88" d="M190.4,159.4c-1-27.1-0.1-54.1,3.8-81c3.3-22.5,13.1-26.9,31.8-13.8c10.1,7.1,19,15.5,26.5,25.3
		c12.6,16.6,27.4,31.2,41.8,46.2c-7.8,8.2-17.9,10.8-28.6,11.8c-6.9,3.2-14.2,5.1-20.6,9.3c-5.7-3.9-3.9-10.2-4.6-15.5
		c-1-7.2-3.9-10.8-11.6-10c-10.5,1.1-17.6-5.5-24.7-11.8c-2.1-1.8-4.1-5.1-7-3.9c-2.8,1.2-1.9,5-2,7.7c-0.1,8.2,0,16.4-0.1,24.5
		c-0.1,3.7,0.3,7.6-2.2,10.9C192.1,160.1,191.3,160.1,190.4,159.4z"/>
	<path class="st89" d="M254.7,187.9c-9.3,10.1-13.1,22.7-16.5,35.5c-1.9,7.3-0.2,14.3,2.9,21.1c1.6,3.4,4,6.5,3.9,10.5
		c-0.7,0.4-1.4,0.5-2.1,0.4c-1.1-0.3-2.1-0.7-3.1-1.3c-1.4-0.7-2.7-1.5-4-2.3c-1.1-0.5-2.2-1.1-3.3-1.7c-16.2-9.6-33.4-17-51.9-21.2
		c-3-0.7-6.1-1.4-8.8-3.2c-0.8-0.6-1.3-1.3-1.7-2.3c-0.3-1-0.3-1.9-0.2-2.9c0.2-1,0.5-1.9,1-2.8c0.2-0.4,0.5-0.9,0.7-1.3
		c0.5-0.9,1-1.7,1.5-2.6c0.5-0.9,1-1.8,1.6-2.6c5-5.7,6.7-12.4,6.5-20c-0.2-7.8-0.2-15.6,0-23.5c0.1-3.7-0.2-7.6,3.4-10.2
		c2.5,3,1.6,6.5,1.6,9.9c0.1,9.9,0,19.9,0,29.9c3.8,0.6,4.6-2.1,5.9-4c5.3-6.7,11.2-12.8,18.2-17.6c2.3-1.6,4.5-4.9,8.1-2.3
		c9.9,3.6,19.8,7.2,29.7,10.8C250.6,185.2,253,185.9,254.7,187.9z"/>
	<path class="st90" d="M218.5,173.5c-7.2,3.9-12.8,9.6-18.7,15c-2.2,2.1-3.9,4.9-7.5,4.9c-0.1-2.4-0.2-4.8-0.3-7.2
		c-1.3-8.9-1.4-17.7,0.1-26.6c0-14.1,0-28.3,0.1-42.4c0-2.4-0.6-5.3,2.5-6.5c2.7-1,4.8,0.4,6.8,2.2c4.5,4.3,8.8,8.9,14.1,12.4
		c5.1,3.3,10,4.6,15.9,3.2c6.6-1.5,11.1,2.2,11.8,9.4c0.6,6.4,1.2,12.9,1.8,19.4C236.1,162.6,226.4,166.6,218.5,173.5z"/>
	<path class="st91" d="M265.6,148c9-5.3,19.1-7.8,28.6-11.8c3.7-1.1,7.5-2.2,11.2-3.4c9.9,11.8,14.8,26.2,20.8,40
		c1,2.3,1.7,4.7,2.8,7c2.1,4.6,0.1,8.1-3,10.9c-2.2,2-5,3-7-0.7c-0.9-1.7-2.1-3.1-4-3.9l0,0c-0.3,1.5-0.6,3.5-2.7,2.9
		c-1.7-0.5-3.4-1.7-4.7-2.9C293.7,173.5,279.7,160.7,265.6,148z"/>
	<path class="st92" d="M192,159.7c0,8.9,0,17.7-0.1,26.6c-3.4-8.8-1.3-17.9-1.6-26.8C190.9,159.5,191.5,159.6,192,159.7z"/>
	<path class="st93" d="M237.4,250.1c1.3,0.8,2.7,1.7,4,2.5c0.5,0.6,1,1,1.7,1.4c0.6,0.3,1.3,0.7,1.9,1c4.4,4.3,9,8.3,14.9,10.5
		c3.4,2.4,3.1,5.7,1.9,9.1c-0.6,1.1-1.5,2.2-2.7,2.5c-15.4,3.9-30.1,10.4-46.2,11.4c-18,5.3-34.4,14-50.6,23.1
		c-3.3,1.8-6.7,3.6-10,5.3c-0.3-0.6-0.6-1.1-1.1-1.5c-3.8-2-3.8-5.7-4-9.3c0.8-7.3,0.4-14.5,0.3-21.8c-0.8-13.1,3.5-25.1,7.8-37.2
		c0.3-1.3,0.8-2.5,1.5-3.7c0.2-0.4,0.4-0.7,0.5-1.1c0.2-0.3,0.4-0.7,0.6-1c0.5-1,1.1-1.9,1.7-2.8c0.3-0.6,0.7-1.2,1-1.8
		c0.5-0.8,0.9-1.7,1.4-2.5c0.2-0.6,0.5-1.1,0.9-1.7c0.4-0.9,0.8-1.7,1.2-2.6c0.2-0.6,0.5-1.2,0.8-1.8c0.3-0.6,0.6-1.2,0.9-1.8
		c0.3-0.6,0.8-1.2,1.2-1.7c0.5-0.5,1.1-0.9,1.8-1.3c0.4-0.1,0.7-0.1,1.1-0.2c0.3,0.1,0.7,0.2,1,0.3c23.1,4.8,44.7,13.1,64.9,25.3
		C236.2,249.4,236.7,249.8,237.4,250.1z"/>
	<path class="st94" d="M212.9,288.5c15.1-6.8,30.9-11.1,47.3-13.3c2.3,0.3,3.3,2.1,4.2,3.9c0.5,1,1.1,2.1,1.8,3
		c0.7,1,1.5,1.9,2.2,2.8c4.6,4.6,9.2,9.2,16.6,8.1c4.3,0.2,8.7-0.5,12.6,2c2,4.8-2.1,5.6-4.6,5.4c-15.8-1.3-23.2,10.4-32.1,20
		c-4.4,4.7-6.8,11.5-13.8,13.6C234,320.2,222,305.4,212.9,288.5z"/>
	<path class="st95" d="M247,334.1c6.8-10.2,14.8-19.4,23.2-28.3c5.4-5.7,11-8.9,18.9-7.8c3,0.4,6.3,0.8,9-1.5c2.3-5.2,8.1-5,12-7.7
		c4.1-1.3,6.4-6,11.2-6c0.4-0.1,0.9-0.1,1.3,0c-2.7,7-7.6,12.3-13.2,17c-2.1,1.8-4.4,3.2-5.8,5.8c-8,5.8-17.6,7.9-26.3,12.1
		c-10.8,5.3-18.3,12.8-19.5,25.4c-0.1,0.8-1,1.5-1.5,2.3c-2.4-2.7-5.7-1.6-8.6-1.9c-5.8-0.6-6.3-1.7-2.9-6.5
		C245.7,336.1,246.3,335.1,247,334.1z"/>
	<path class="st95" d="M256.5,345.5c0,1.3-0.1,2.5-0.1,3.8c-13.3,0.1-26.2,3.7-39.5,4.9c9.4-4.6,19.5-5.5,29.6-6.8
		C249.9,347.1,253.4,347.3,256.5,345.5z"/>
	<path class="st46" d="M247,391.1c-0.9,1.4-2.3,1.8-3.8,1.8C244.1,391.5,245.5,391.1,247,391.1z"/>
	<path class="st96" d="M357.3,314.9c0.7-1,1.2-2.4,2.2-2.9c1.6-0.8,4-1.3,4.4,1.3c0.3,2.1-2,1.8-3.5,2c-0.6,0.1-1.2,0.1-1.9,0.2
		C358.1,315.3,357.7,315.1,357.3,314.9z"/>
	<path class="st53" d="M398.5,303.5c-1.5,0.1-2.8-0.4-3.7-1.6C396.2,301.9,397.6,302.3,398.5,303.5z"/>
	<path class="st97" d="M376.6,313.1c2.3,4.3,1.6,7.9,0,12.4C373.1,321,372.6,317.4,376.6,313.1z"/>
	<path class="st98" d="M262.8,281.4c-0.9-2-1.8-4.1-2.7-6.1c-0.1-3.2-0.2-6.5-0.3-9.7c0.7-4.8,1.9-9.5,5.5-13.1
		c0.8,0.7,1.6,1.4,2.4,2C265.2,263.3,268.2,273.1,262.8,281.4z"/>
	<path class="st81" d="M283,239.1c-1.6,2-3.8,2.2-6.1,2.1C278.4,239.1,280.5,238.5,283,239.1z"/>
	<path class="st99" d="M311.6,290.8c-3.8,3.5-8.8,4.2-13.4,5.8c-5.1-0.2-10.2-0.4-15.3-0.7c-15.4-9.3-19.3-32.2-7.6-45.5l-0.1,0
		c1.9-0.5,3.3-2,5.1-2.6c2.6-0.8,4.7-0.3,6.1,2.1c2.3,5.4,1.2,11.1,1.5,16.6c0.2,5.9,0.7,11.7,4.5,17.4c7-7.1,4.8-17.2,10.1-24.1
		c3.1-2.3,5.7-5.3,8.9-7.4c0.7,0.5,1.4,0.9,2.1,1.4c7.6,7.8,4.7,16.8,2.7,25.6C315.3,283.5,313.3,287.1,311.6,290.8z"/>
	<path class="st100" d="M275.3,250.4c-4.6,12.3-5.5,24.4,1,36.4c1.8,3.4,4.7,5.9,6.6,9.1c-7.4-0.5-13.2-3.7-17-10.1
		c-0.3-1.3-1.2-2.2-2.2-3c-0.6-0.3-0.9-0.7-1-1.4c0.9-1.4,1.3-2.9,0.7-4.4c-3.3-8.4-1-15.7,4.1-22.6
		C269.9,252.4,272.1,250.6,275.3,250.4z"/>
	<path class="st101" d="M311.6,290.8c-3.5-3.8,0.1-7.1,1.1-10.3c2.9-8.9,3.6-17.6,0.8-26.6c3.4,1,5.6,3.6,7.9,6.1
		c5.3,7.6,2,15.2,0,22.9C319,286.6,315.9,289.4,311.6,290.8z"/>
	<path class="st102" d="M285.2,250.7c-1.4-2.6-3.7-2.1-5.9-1.6c-0.8,0.6-1.5,0.4-2-0.5c10.2-5.9,20.3-5.4,30.3,0.4
		c-2.2,3.1-2.2,7.6-5.9,9.8C294.4,252.7,294.4,252.7,285.2,250.7z"/>
	<path class="st103" d="M301.9,258c-1.3-5-0.3-8.5,5.6-9c1.3,1.2,2.6,2.3,3.9,3.5c0.1,5.2-2,8.1-7.6,7.5
		C302.7,259.8,302,259.2,301.9,258z"/>
	<path class="st100" d="M277.2,248.6c0.7,0.2,1.3,0.3,2,0.5c-1.1,1.2-2.4,1.6-4,1.4C275.9,249.8,276.6,249.2,277.2,248.6z"/>
	<path class="st56" d="M114.7,457.5c0.5,0.6,1,1.3,1.5,1.9C115.8,458.8,115.3,458.2,114.7,457.5z"/>
	<path class="st56" d="M116.5,461.3c0.5,0.7,1.1,1.4,1.6,2.1C117.6,462.7,117.1,462,116.5,461.3z"/>
	<path class="st56" d="M118.3,465c0.6,0.7,1.1,1.5,1.7,2.2C119.4,466.5,118.9,465.8,118.3,465z"/>
	<path class="st56" d="M120.5,470.8c0.5,0.6,1,1.2,1.5,1.7C121.5,472,121,471.4,120.5,470.8z"/>
	<path class="st56" d="M122.4,474.6c0.5,0.6,1,1.2,1.5,1.7C123.4,475.8,122.9,475.2,122.4,474.6z"/>
	<path class="st56" d="M123.9,476.4c0.6,0.7,1.2,1.5,1.8,2.2C125.1,477.9,124.5,477.1,123.9,476.4z"/>
	<path class="st56" d="M125.9,480.2c0.6,0.7,1.2,1.4,1.7,2.1C127,481.6,126.4,480.9,125.9,480.2z"/>
	<path class="st56" d="M127.9,484c0.6,0.7,1.1,1.3,1.7,2C129,485.4,128.4,484.7,127.9,484z"/>
	<path class="st78" d="M243.1,254c-0.6-0.5-1.1-0.9-1.7-1.4C242,253,242.5,253.5,243.1,254z"/>
	<path class="st78" d="M237.4,250.1c-0.5-0.4-1-0.9-1.6-1.3C236.3,249.2,236.9,249.7,237.4,250.1z"/>
	<path class="st104" d="M171.4,220.7c0.6-0.8,1.1-1.5,1.7-2.3C172.5,219.2,172,219.9,171.4,220.7z"/>
	<path class="st104" d="M173.1,218.4c0.5-0.6,1-1.2,1.5-1.8C174.1,217.2,173.6,217.8,173.1,218.4z"/>
	<path class="st63" d="M315.2,186.2c-0.4-0.6-0.9-1.2-1.3-1.8C316,183.8,314.7,185.6,315.2,186.2
		C315.2,186.2,315.2,186.2,315.2,186.2z"/>
	<path class="st98" d="M263.8,282.8c1.2,0.6,1.8,1.7,2.2,3C265.2,284.8,264.5,283.8,263.8,282.8z"/>
	<path class="st105" d="M301.9,258c0.6,0.7,1.3,1.3,1.9,2c-3,10.4-3.3,21.7-10.7,31.6c-9.7-12.9-9.5-26.8-8-40.9
		C296,246.8,297.1,247.3,301.9,258z"/>
</g>
</svg>
