<?xml version="1.0" encoding="utf-8"?>
<!-- Generator: Adobe Illustrator 27.4.0, SVG Export Plug-In . SVG Version: 6.00 Build 0)  -->
<svg version="1.1" id="Layer_1" xmlns="http://www.w3.org/2000/svg" xmlns:xlink="http://www.w3.org/1999/xlink" x="0px" y="0px"
	 viewBox="0 0 720 720" style="enable-background:new 0 0 720 720;" xml:space="preserve">
<style type="text/css">
	.st0{fill:#896B6B;}
	.st1{fill:#EEC44A;}
	.st2{fill:#FBD330;}
	.st3{fill:#3A6D63;}
	.st4{fill:#F4E8D4;}
	.st5{fill:#2E8472;}
	.st6{fill:#2F8372;}
	.st7{fill:#917980;}
	.st8{fill:#C6A59C;}
	.st9{fill:#FEA58F;}
	.st10{fill:#F1E3CF;}
	.st11{fill:#F3E7D5;}
	.st12{fill:#2A514D;}
	.st13{fill:#437C71;}
	.st14{fill:#538E81;}
	.st15{fill:#A8BDAB;}
	.st16{fill:#A99A92;}
	.st17{fill:#BFB9A8;}
	.st18{fill:#31806B;}
	.st19{fill:#F5E9D8;}
	.st20{fill:#F9F0E3;}
	.st21{fill:#F6EBDC;}
	.st22{fill:#A9CBB5;}
	.st23{fill:#795D6B;}
	.st24{fill:#E0E1CA;}
	.st25{fill:#0D0B08;}
	.st26{fill:#A8B4A7;}
	.st27{fill:#DA7C7D;}
	.st28{fill:#39281D;}
	.st29{fill:#C0A9A2;}
	.st30{fill:#C5BCB2;}
	.st31{fill:#B9A9A2;}
	.st32{fill:#C1B5A2;}
	.st33{fill:#CA896F;}
	.st34{fill:#8D6D75;}
	.st35{fill:#D2B7A0;}
	.st36{fill:#626458;}
	.st37{fill:#9C5A4B;}
	.st38{fill:#A66656;}
	.st39{fill:#328F7D;}
	.st40{fill:#FEAB96;}
	.st41{fill:#4D9784;}
	.st42{fill:#3E8373;}
	.st43{fill:#336A60;}
	.st44{fill:#AEA68A;}
	.st45{fill:#9D9884;}
	.st46{fill:#A29584;}
	.st47{fill:#6C655B;}
	.st48{fill:#787267;}
	.st49{fill:#8CC1A9;}
	.st50{fill:#95C5B1;}
	.st51{fill:#1B3B38;}
	.st52{fill:#F8CD88;}
	.st53{fill:#2D6159;}
	.st54{fill:#B49D91;}
	.st55{fill:#A49384;}
	.st56{fill:#F18D76;}
	.st57{fill:#F9CA74;}
	.st58{fill:#F9DCAD;}
	.st59{fill:#599F86;}
	.st60{fill:#A5D4BC;}
	.st61{fill:#9FADA1;}
	.st62{fill:#F6EBDA;}
	.st63{fill:#E7DFCA;}
	.st64{fill:#2A5652;}
	.st65{fill:#B0B19D;}
	.st66{fill:#F1E5D2;}
	.st67{fill:#CCC2AC;}
	.st68{fill:#725454;}
	.st69{fill:#84857F;}
	.st70{fill:#978A7A;}
	.st71{fill:#9A897C;}
	.st72{fill:#988E7F;}
	.st73{fill:#385C57;}
	.st74{fill:#30534F;}
	.st75{fill:#AEA894;}
	.st76{fill:#A18F83;}
	.st77{fill:#FBF2E6;}
	.st78{fill:#B6CEB5;}
	.st79{fill:#7ABAA3;}
	.st80{fill:#EBE3D2;}
	.st81{fill:#7BBCA4;}
	.st82{fill:#8E3E37;}
	.st83{fill:#78B49F;}
	.st84{fill:#CABEAF;}
	.st85{fill:#D0BDAB;}
	.st86{fill:#C39B8B;}
	.st87{fill:#AD8279;}
	.st88{fill:#A1A899;}
	.st89{fill:#7B937C;}
	.st90{fill:#9FC5AF;}
	.st91{fill:#373837;}
	.st92{fill:#0E0D0A;}
	.st93{fill:#292725;}
	.st94{fill:#464343;}
	.st95{fill:#636461;}
	.st96{fill:#829889;}
	.st97{fill:#675B44;}
	.st98{fill:#EAB442;}
	.st99{fill:#947028;}
	.st100{fill:#6A7630;}
	.st101{fill:#67B188;}
	.st102{fill:#7FB47F;}
	.st103{fill:#F2CA82;}
	.st104{fill:#2A5A56;}
	.st105{fill:#F1E3D0;}
	.st106{fill:#F1C473;}
	.st107{fill:#3B7A6E;}
	.st108{fill:#355C52;}
	.st109{fill:#8EBDA5;}
	.st110{fill:#F7C05C;}
	.st111{fill:#868A62;}
	.st112{fill:#6CB39A;}
	.st113{fill:#C2B57F;}
	.st114{fill:#536C51;}
	.st115{fill:#4E584E;}
	.st116{fill:#F8EDDE;}
	.st117{fill:#B3BB98;}
	.st118{fill:#D9D2B4;}
	.st119{fill:#7EBCA5;}
	.st120{fill:#83B8A4;}
	.st121{fill:#458075;}
	.st122{fill:#E6CC9B;}
	.st123{fill:#57806D;}
	.st124{fill:#A38C8C;}
	.st125{fill:#B19D95;}
	.st126{fill:#CBBD77;}
	.st127{fill:#4D796D;}
	.st128{fill:#ADC5B0;}
	.st129{fill:#CFD3BF;}
	.st130{fill:#C0AB97;}
	.st131{fill:#312C25;}
	.st132{fill:#7A7F78;}
	.st133{fill:#7E827B;}
	.st134{fill:#E4B13E;}
	.st135{fill:#615E58;}
	.st136{fill:#57A893;}
	.st137{fill:#F6C05D;}
	.st138{fill:#71AC96;}
	.st139{fill:#AEBB72;}
	.st140{fill:#A9C7B1;}
</style>
<rect x="0" y="0.5" class="st0" width="720" height="720"/>
<path class="st1" d="M-1462.8-612.6c-0.9,0.6-1.8,1.2-2.7,1.8C-1464.9-611.8-1464-612.5-1462.8-612.6z"/>
<path class="st1" d="M-1471.4-606.8c-0.7,0.5-1.4,1-2,1.6C-1472.8-605.8-1472.1-606.3-1471.4-606.8z"/>
<path class="st1" d="M-1468.9-608.6c-0.9,0.6-1.7,1.2-2.6,1.9C-1470.9-607.8-1470.1-608.5-1468.9-608.6z"/>
<path class="st1" d="M-1455.1-616.7c-0.8,0.5-1.6,1-2.4,1.5C-1456.7-615.7-1455.9-616.2-1455.1-616.7z"/>
<path class="st1" d="M-1465.4-610.8c-0.7,0.5-1.4,1-2.1,1.6C-1466.8-609.8-1466.1-610.3-1465.4-610.8z"/>
<path class="st1" d="M-1459-614.7c-0.8,0.5-1.7,1.1-2.5,1.6C-1460.7-613.6-1459.8-614.1-1459-614.7z"/>
<path class="st2" d="M-1783.2-609.4c-0.6-0.5-1.3-1-1.9-1.5C-1784.4-610.4-1783.8-609.9-1783.2-609.4z"/>
<g>
	<path class="st3" d="M166.4,894.9c-3.1-1.9-6.5-2.5-10-2.4c-4.1,0.3-8.2,0.3-12.4,0.1c-2.7-0.3-5.2-1.3-7.8-1.7
		c-3.3-0.7-6.6-1.1-9.9-1.5c-2.7-0.3-5.3-1-7.9-1.5c-3.5-0.7-6.9-1.2-10.5-0.9c-5.3,0.8-10-1.2-14.9-2.5c-9.2-2.3-18.4-4.4-28.1-3.2
		c-1.7,0-3.4,0.1-5.1,0.1c0,0.3,0.1,0.5,0.1,0.8c1.4,27.9,25.3,52.8,43.6,72.3c0.8,0.3,1.6,0.7,2.4,1.4c1.1,0.9,2.2,1.9,3.3,2.8
		c-6.1-6.8-11.9-13.9-17.5-21.2c-1.3-1.6-2.9-3-4.6-4.4c-0.2-0.1,0.4-0.9,0.4-0.9s1,0.2,0.9,0.2c2.3,0.3,4.4-0.2,6.2-1.9
		c2.9-8.2-3.1-15.9-1.2-24c0.1-4.6-2-10.6,7.2-7.5c12.4,4,25.2,6.3,38.5,5.4c7.7-0.5,11.9,4.1,13.7,11.1c1.2,4.4,1.7,9,3.3,13.3
		c0.6,1.2,1.3,2.4,2.2,3.4c3.8,3.3,7.6,6.5,13,3.1C169.7,921.7,166.8,908.5,166.4,894.9z"/>
	<path class="st4" d="M147.3,237.9c1.1-1.8,2.2-3.6,3.4-5.4c0.9-1,1.8-2,2.6-3l0.1-0.1c1-0.7,1.8-1.5,2.5-2.5c1-1.1,2.1-2.2,3.1-3.3
		c0.9-0.8,1.6-1.8,2.1-2.9c0.8-0.9,1.8-1.6,3-2.1c1.8-0.7,3.6-1,5.5-1.1c13.7-0.5,18.2-11.1,23.7-20.5c0.8-1,1.9-1.7,3-2.3
		c3.8-1.3,7,1.4,10.7,1.5c1.8,0.5,0.6-0.5,0.3-0.4c-3.3,0.4-6.1-1.1-8.7-3.1c-0.8-1.1-1-2.2-0.9-3.5c0.9-4.7,11.6-0.2,8.4-8.7
		c4.6-2.6,9.7-3.6,14.7-4.7c4.9-2.8,10.9-3.2,15.8-6.2c1.1-0.5,2.3-0.9,3.5-1.3c6.4-0.3,10.9-4.6,16.2-7.3c3.4-1.5,6.3-3.8,9.7-5.5
		c1.2-0.6,2.4-0.9,3.7-1.3c8,0.6,11.7-5.9,16.8-10c4.5-2.8,9.4-4.6,14.6-4.6c21.1-0.1,42.1-2.6,63.1-2.6c10.9,0,21.6,0.8,31.6,5.6
		c3.1,2.9,3.8,6.7,3.5,10.7c-6.7,16.2-21.7,14.9-35.5,16c-5.8,0.4-11.7-2.8-17.8,0.2c2.3,4.7,7.1,6.1,10.5,9
		c12.1,10.1,18.1,21.9,12.6,37.7c-4.5,12.8-1.2,26.5-4.4,39.5c-1.4,5.8,3.1,10.3,6.8,14.5c7.8,9.1,11.2,19.2,6.5,30.6
		c-2.3,5.6-1.2,9.4,3.2,13.4c3.5,3.2,8.8,6.2,5.5,12.5c-1.1,0.8-2.4,1.3-3.8,1.5c-2.7,0.2-5.4-0.2-8.1-0.3
		c-10.5-0.4-20.8-0.3-29.1,7.5c-1.3,0.5-2.6,0.7-3.9,0.7c-15.1-8.5-26.1,3.2-39,7c-16.3,4.8-21.7,15.1-20.7,30.6
		c5,2.3,16.6-2,16.8,6c0.2,7.8-11.3,6.5-17.5,7.2c-26,2.7-51.1,10.6-77.3,12.1c-1.9-0.9-3.2-2.4-3.8-4.4
		c7.1-12.1,20.8-7.8,29.2-12.1c3.8,0.1,3.1-2,3.2-0.1c0,0-0.4,0.1-1.1,0.1c-32.2,2-62.7,10.3-92.2,22.7c-5.3,2.2-12.1,4.1-10.3,12.4
		c0.8,5.4-2.6,8.3-6.8,10.7c-0.6,0.2-1.2,0.4-1.8,0.7c-1.3,0.2-2.6-0.1-3.7-0.8c-18.9-39.1-14.9-78.9-3.3-118.7
		c4.1-14,9.9-27.6,14.9-41.3c4.6-8.2,9.1-16.4,13.7-24.6c0.8-1.1,1.7-2.1,2.6-3.1l0-0.1C145.8,239.8,146.6,238.9,147.3,237.9z"/>
	<path class="st5" d="M43.4,563.1c0.7-9.8,6.5-18.1,8.2-27.5c0.6-0.6,0.8-1.2,0.6-2c1.1-2,0.8-4.5,2.6-6.3c1-0.9,2-1.9,2.9-2.8
		c1.6-1.5,1-4,2.6-5.6l0,0c12.8-2.2,8-11.9,8.6-19.2l0,0c1.7-1.6,1.2-4.1,2.7-5.8c-0.1-0.9,0.1-1.8,0.8-2.5c7.4-2.5,14.9-4.6,21-10
		c3.5-3,8.5-4.6,12.9-1.2c5.3,4,3,9,0.9,13.7c-2.1,4.6-5.1,8.8-7.9,13c17,3,17.8,3.1,28.4-8.8c8.5-9.5,19.1-9.5,29.4-5.9
		c6.8,2.3,14.1,4.9,19.9,9.9c3,7.3-0.9,13.4-3.6,19.7c-0.6,1.2-1.4,2.3-2.2,3.4c-0.4,0.5-0.9,1-1.3,1.5
		c-6.6,10.7-17.9,16.8-26.4,25.6c3.3,5.6,8.7,9.5,12,15c7.7,12.8,3.4,20.9-11.5,21.8c-3.7,0.2-7.4,0-11.1,0.7
		c-24.8-1.4-49.2-4.5-72.5-13.5C53.4,573.7,46.8,570.3,43.4,563.1z"/>
	<path class="st6" d="M175.9,502.5c-5.8,0.4-11.6-0.3-15.9-4.1c-4.2-3.6-8.7-2.3-13.1-3.2c-9.7-2-14.1,1.9-18,8.7
		c-4.8,8.5-12.7,10.6-21.6,9.2c-5-0.8-9.6-2.2-15.1,2.3c1.8-11,8.8-17,12.3-24.8c1.3-2.8,3.9-5.9,0.2-8.6c-2.7-1.9-5.5-0.1-7.8,1.3
		c-2.4,1.4-5.3,2.9-6.5,5.1c-4.9,9-11.3,6.4-18.1,3c10.2-24.3,21.5-47.7,44.6-63.2c0.8,0.5,1.7,0.5,2.5,0
		c6.8,4.7,8.6,12.9,13.8,18.8c11.9,13.5,22.6,28.1,38.9,37.2c4,2.2,7.8,5.2,8.9,10.1C181.3,498.3,180,501.3,175.9,502.5z"/>
	<path class="st6" d="M68.8,499.8c0.8,1.5,1.3,3.9,2.5,4.5c5.8,2.5,7.3,6.9,5,12c-2.4,5.3-7.4,3.9-12,3c-1.3-0.3-2.7-0.2-4.1-0.2
		C62,512.1,64.7,505.7,68.8,499.8z"/>
	<path class="st6" d="M71.5,494c0,2.3-0.6,4.4-2.7,5.8C68.8,497.4,69.6,495.5,71.5,494z"/>
	<path class="st6" d="M60.3,519c0,2.2-0.6,4.2-2.6,5.6C57.6,522.3,58.5,520.4,60.3,519z"/>
	<path class="st7" d="M158.7,144.1c0.1-17.9,3.6-35.2,8.7-52.3c5.9-6.5,11.6-13.2,20.7-4.1c-6.7,25.2-13.4,50.4-13.6,76.7
		c-0.1,6.8,0.9,11.9,9.1,12.5c2.6,0.3,5.1,1,7,2.9c0.8,0.9,1.4,1.9,1.9,3c1.7,3,4.8,4.9,6.4,8l0,0c1.2,3.1-1.5,4.2-3.2,5.8l0,0
		c-3.3,3.6-7.2,2.2-11.1,1.3c-1.8-0.4-3.2-1.3-4.4-2.7c0.5,1.8,2.7,1.4,3.7,2.6c7.5,3.1,5,7.6,0.9,11c-4.6,3.6-10.1,6.2-16.4,4.2
		c-6.1-1.4-7.5-6.4-9.3-11.2c-0.1-2.7-0.1-5.4-0.2-8.1c4.1-2.9,8.8-0.2,12.2-1.5c-3.5-0.3-8,1.2-12.3-1c-0.1-1.9-0.3-3.7-0.4-5.6
		C157.1,171.8,156.9,157.9,158.7,144.1z"/>
	<path class="st8" d="M158.7,144.1c0,13.8-0.1,27.7-0.1,41.5c-0.8-0.1-1.6-0.2-2.3-0.2c0-9.9,0-19.8,0-29.7
		C156.3,151.7,155.7,147.5,158.7,144.1z"/>
	<path class="st8" d="M159.2,201.8c2.7,2.8,5.5,5.7,8.2,8.5c-0.1,0.6-0.2,1.2-0.2,1.8c-0.8,3.6-2.5,6.8-5.3,9.3l-0.1,0.7
		c-1.1,0.3-2-0.1-2.7-0.9C159.2,214.7,159.2,208.3,159.2,201.8z"/>
	<path class="st8" d="M159,191.1c3.5,0.2,7.1-0.8,11.4,1.1c-4,2.2-7.8,0.8-11.3,1.5C159,192.9,158.9,192,159,191.1z"/>
	<path class="st9" d="M144.9,240.6c-0.9,1-1.8,2.1-2.6,3.1C143.1,242.7,144,241.6,144.9,240.6z"/>
	<path class="st9" d="M147.3,237.9c-0.8,0.9-1.6,1.7-2.4,2.6C145.7,239.6,146.5,238.8,147.3,237.9z"/>
	<path class="st9" d="M153.2,229.5c-0.9,1-1.7,2-2.6,3C151.5,231.5,152.4,230.5,153.2,229.5z"/>
	<path class="st9" d="M155.9,226.9c-0.8,0.8-1.7,1.7-2.5,2.5C154.2,228.5,155,227.7,155.9,226.9z"/>
	<path class="st9" d="M159.1,221.2c0.9,0.3,1.8,0.6,2.7,0.9c-0.9,0.5-1.9,1-2.8,1.5C159,222.8,159.1,222,159.1,221.2z"/>
	<path class="st10" d="M297.1,1048.6c-3.7-0.1-7.3-0.2-11-0.3c-5.4-0.8-7-4.9-8.3-9.1c0.2,2.2,0.6,4.3,0,6.4
		c-8.6,11.4-13,11.5-20.6,0.8c-0.7-2.4-1.6-4.7-2.9-6.2c0.3,1.5,2.2,3.1,2.2,5.4c-1.6,6.8-7,6.6-12.1,5.6
		c-12.5-2.6-24-7.1-30.8-18.8c-1.4-3.2-1.7-6.6-1-10.1c0.1-0.5,1.7-1.6-0.2-1.7c-0.6,0-1.4,1-2.2,1.3c-1.2,0.3-2.4,0.3-3.7,0.1
		c-3.4-1.6-7-2.6-10.8-2.6c-14.7-3.4-29.3-7.2-42.7-14.4c-7.1-4.9-11.5-12.7-19.3-16.8l0,0c-0.7-1.3-1.7-2.2-3.1-2.8
		c-16.1-13.9-30.5-29.2-42.2-46.9c-3.2-8.4,4.9-6.1,8.2-8.4c6.9-3.1,13.7-1,20.4,0.7c18.9,4.6,38.1,7.3,57.5,9
		c1.6-0.1,3.2,0,4.8,0.4c6.1,1.9,12.2,3,18.6,1.4c14,0,28-1.1,42,0.6c11.3-0.1,22.4-1.8,33.6-2.5c3.2,0.1,6.4,0,9.5,0
		c5.5,0.3,11.1-0.5,16.4,1.6c5.1,2.6,8.1,6.9,10.4,11.9c4.5,12.5,11,24.2,17,36.1c6.1,12.2,7.9,24.3,0.6,36.7
		c-0.6,3.1-0.6,6.4-2,9.3c-2.4,5.2-5.4,9.8-12,9.8c-6.2,0-8.9-4.1-10-9.5c0-2.1-0.9-4.3-0.2-5.4c-1.6,4,2,9.1,0.3,14.2
		C301.9,1046.9,300.8,1049.6,297.1,1048.6z"/>
	<path class="st11" d="M58.5,882.3C47.1,853.9,39,824.5,32,794.8c-1.5-2-1.3-4-0.2-6.1c3.7-3.5,8.3-3.2,12.8-2.7
		c1.5,0.2,2.9,0.6,4.3,1.2c13,5.6,26.6,7.1,40.6,6.1c21.5,3.8,43,7.4,64.8,8.5c1.5,0.1,2.9,0.4,4.3,0.8c2.7,0.8,5.3,2.1,8.3,2
		c7,1,14,2.3,20.9,4c1.4,0.5,2.5,1.4,3.6,2.4c3.9,18.7,8.6,37,16.8,54.7c5.4,11.6,11.6,20.6,24.4,24.2c1.9,1.5,3.2,3.5,3.4,5.9
		c-0.5,1.6-1.5,2.9-3,3.7c-14.2,3.6-28.8-0.1-43,2.5c-7.9,0.1-16,1.6-22.6-4.6c-3.6-0.2-7.2-0.5-10.8-0.7c-4.5-2-9.2-0.6-13.8-1
		c-2,0-4,0.1-5.9-0.7c-3.7-0.3-7.5-0.6-11.2-0.9c-1.7-1.1-3.7-1.1-5.5-1.6c-3.8-0.4-7.6-0.8-11.4-1.2c-4.5-2.5-9.7,0.2-14.3-2
		c-9.2-1.8-18.5-3.5-27.9-3.7C64.2,883.2,60,886.4,58.5,882.3z"/>
	<path class="st12" d="M167.3,897.2c7.4-1.2,14.8,0,22.2,0.1c16.7,1.6,33.4,1.6,50.1-0.2c3.8,0.8,6.7,3.2,3.7,6.4
		c-6.7,7.1-2.5,13.2,0.5,19.7c3.7,8.2,5.8,16.3-3,22.9c-14.8,0-29.7,0-44.5,0c-5.7-2.6-12.1,0.5-17.8-2.1c-0.8-0.2-1.5-0.4-2.2-0.7
		c-1.6-0.8-3.5-1.3-4.8-2.7c-1-1.6-1.3-3.4-1.1-5.2c-0.5-2.1-0.2-5.1-1.5-6.3C157.6,918.8,162.8,908,167.3,897.2z"/>
	<path class="st13" d="M91.4,907.8c1.8-7.8-6.7-8.7-10.8-14.6c9.7-1.3,17.9,0.6,25.8,2.8c9.8,2.7,19.4,4.4,29.8,3.9
		c16.2-0.9,17.6,0.9,21.6,16.6c1.2,4.5,1.1,9,1.1,13.6c-1.8,1.7-4.2,2.7-6.4,1.9c-16.3-5.6-33.9-6.1-49.8-13.1
		C97.6,916.5,92.7,914,91.4,907.8z"/>
	<path class="st14" d="M91.4,907.8c12.7,7.8,26.4,13.3,41.5,13.7c9.7,0.3,16.6,7.9,26.1,8.5c0,0,0,0,0,0c3.7,5.1,10,6.7,14.4,10.8
		c0.9,0.9,1.9,1.7,2.8,2.6c-19.8,0.3-39.1-2.8-58.3-7.3c-6.8-1.6-13.5-3.9-20.7-3.7c-1.2-0.7-3-0.8-3.2-2.7
		c-4.3-6.5-2.2-14.4-5.3-21.2C89.6,908.3,90.5,908.1,91.4,907.8z"/>
	<path class="st13" d="M173.4,940.7c-6.8-1.1-12-4.1-14.4-10.8c3.8,1.8,7.6,3.6,11.4,5.4C172.4,936.6,173.1,938.6,173.4,940.7z"/>
	<path class="st15" d="M94,929.7c1.1,0.9,2.1,1.8,3.2,2.7c-4.2,0.4-8.2,1-9.1,6.1c-3.5-1.8-4.8-4.9-5.3-8.5c0.8-1.2,1.8-1.4,2.9-0.4
		C88.6,929.6,91.3,929.6,94,929.7z"/>
	<path class="st16" d="M141.6,894.5c5.2-0.8,10.3-1.3,14.9,1.9c-4.7,0.1-9.5,0.2-14.2,0.3c-0.9-0.3-1.2-0.7-1.2-1.3
		C141.2,894.8,141.4,894.5,141.6,894.5z"/>
	<path class="st13" d="M94.4,889.1c4.9-0.6,9.8-0.6,14.3,2C103.7,891.1,98.7,892.6,94.4,889.1z"/>
	<path class="st14" d="M85.8,929.5c-1,0.1-2,0.3-2.9,0.4c-1.2-0.6-2.7-2.1-1.8-2.9C83.9,924.9,84.6,928.1,85.8,929.5z"/>
	<path class="st13" d="M141.6,894.5c0.2,0.7,0.5,1.5,0.7,2.2c-2.1,0.1-4.1-0.3-5.5-2C138.4,894.6,140,894.6,141.6,894.5z"/>
	<path class="st13" d="M120,892.2c2.1-0.5,3.9,0.3,5.5,1.6C123.4,894.1,121.5,893.9,120,892.2z"/>
	<path class="st17" d="M130.4,985.3c1.7,0.2,2.7,1.1,3.1,2.8C131.8,987.9,130.8,986.9,130.4,985.3z"/>
	<path class="st18" d="M158.4,806.3c-23.7,0-46.9-3.7-69.9-8.8c-14.1-2.6-28.5-3.7-42.2-8.4l0,0c-4.3-2.5-9-0.5-13.4-1.4
		c-1.9-0.9-2.6-2.8-3.4-4.5c-0.2-7.4,0.4-14.9-2.7-22c0.3-20.1-3.9-40-3-60.1c0.4-11,0.8-21.9,2-32.8c0.4-3.2,0.6-6.4,3.7-8.4
		c1-1,2.3-1.5,3.7-1.7c2.2-0.1,4.3,0.3,6.4,0.8c15.3,4.3,30.3,9.5,44.8,15.8c31.5,13.5,64.9,20.2,98.6,25.6c4,1.2,7.9,2.5,11.8,3.7
		c3.5,2,6.7,4.3,9.6,7.2c0.6,1.2,0.7,2.5,0.2,3.8c-16.1,18.9-31.1,37.8-29.7,64.8C175.3,790.6,174.3,803.6,158.4,806.3z"/>
	<path class="st19" d="M184.2,704.6c-33.6-3.8-66.5-10.9-97.6-24.2c-17.2-7.3-35.2-12.4-52.7-18.9c-0.4-0.6-1-0.9-1.7-0.9
		c-0.9-0.3-1.8-0.5-2.7-0.8c-2.6-22.1,3.3-43.3,6.8-64.8c1.7-10.7,4.8-21.3,7.2-31.9c27.8,15.7,58.6,20.1,89.9,22.3
		c7.5,1.7,15.1,2.6,22.8,2.6c4.1,1,8.3,1.6,12.5,2.4c7.2,3.4,15.4,0.2,22.7,3.2c7.6,7.2,8.6,16.7,9.3,26.3c0.9,0.8,1.7,1.6,2.5,2.4
		c0.9,0.8,1.6,1.8,2.2,2.8c0.6,1.1,0.9,2.3,1,3.5c0,1.2-0.3,2.4-0.8,3.6c-0.7,1.1-1.5,2-2.5,2.8c-5.3,4.9-0.5,10.1-0.1,15.1
		c0.7,10.2,3.9,20.3,2,30.7c-3.3,8.1,5.8,17.4-2.5,25C196.2,706.3,190.2,704.9,184.2,704.6z"/>
	<path class="st20" d="M342.3,334.4c0.7,0,1.3,0.1,2,0.1c1-0.1,2.1-0.1,3.1,0c0.5,0.1,1,0.3,1.5,0.4c1.5,0.5,2.9,1.2,4.3,1.9
		c2,0.9,3.8,2.1,5.3,3.7c0.8,0.8,1.4,1.7,2,2.6c0.7,0.9,1.2,1.9,1.7,3c0.8,1.6,1.5,3.2,2,4.9c0.3,1.2,0.4,2.4,0.4,3.6
		c0.3,10.2-6.7,18.1-9,27.5c-0.3,1.2-0.9,2.2-1.7,3.2c-1.4,1.2-3.2,1.6-4.9,2.4c-1.1,0.5-2.1,1-3.2,1.5c-1.6,0.6-3.2,1.4-4.7,2
		c-1.2,0.5-2.5,0.8-3.6,0.9c2.4-0.1,4.3-1.1,6.3-1.9c0.9-0.4,1.9-0.6,2.6-1.1c12.5-10.3,24.8-11.3,38.3-0.9c5.3,4.1,13,3.7,17.4,2.6
		c-12.6,1.1-25.2-2.4-33.9-15.6c-0.6-1.9-0.8-3.8-0.6-5.7c0.6-3.4,1.7-6.9,0.3-10.4c-0.5-2.4-0.6-4.8-0.2-7.2
		c0.2-1.2,0.5-2.4,0.9-3.6c1.2-11.5,13.4-12.4,19.3-19.4c4.5-4,10.3-5.8,15.4-8.9c15-7.1,25.8,1.5,34.7,10.7
		c9.6,10,17.5,21.3,30.9,27.2c3.9,1.8,6.6,5.8,4.3,10.3c-2.5,4.9-6.3,0.3-9.5,0.5c-1.8-0.4,0.5,2.8,0,1c-0.2-0.6,0.2-1,1.1-0.7
		c3.1,1,6.2,1.1,9.5,1.4c14.1,1.2,28.6,0.6,37.8,15.6c4.6,7.5,15.1,10.4,23.5,14.6c17.1,8.6,33.2,18.8,49.1,29.3
		c5.3,3.5,10.2,8.1,13.1,14.1c1,4.6-0.4,7.9-5.1,9.5c-3.5-0.7-4.3-4.7-7.4-5.9c-1.5-1.2-2.8-2.7-4.3-3.8c-3.1-2.7-7.7-3.1-10.4-6.3
		c2.6,3.1,7,3.6,10.1,6.1c1.6,1.1,2.9,2.5,4.3,3.9c2.9,1.6,4.7,4.4,6.8,6.8c0.3,13.8-7.5,22.8-18.7,29.7c-2.2,0-3.3-1.7-4.7-2.9
		c-1.9-1.7-1.7-4.6-3.6-6.3c-1.3-1.3-2.7-2.6-3.8-4.1c-4.5-6.2-10.7-10.8-15.8-16.5c5.2,5.7,11.4,10.3,15.9,16.6
		c1.1,1.5,2.4,2.8,3.8,4c1.8,1.7,1.6,4.6,3.5,6.2c1.3,1.3,2.9,2.4,3.1,4.5c-7.6,15.5-24.3,20.8-36.3,31.4c-6,3.9-12.3,7.1-18.9,10
		c-46.2,19.3-94.6,25-144.4,21.5c-2.2-0.5-4.4-0.6-6.6-0.9c-1.4-0.1-2.8-0.5-4.2-0.9c-2.7-0.8-5.4-1.1-8.2-1.3
		c-9.8-1.6-19.8-2.1-29.6-3.8c-3.5-1.1-6.8-2.3-9.4-5c0.8-14.1,1.4-27.8-9.3-39.8c-4.5-5.1,0.5-11.2,3.4-16.4
		c9.6-17.2,9.2-18.8-7.3-29.2c-7.1-4.5-12.5-11.1-20.4-14.5c-12.5-5.3-17.1-4.2-24.7,6.9c-1.6,2.3-2.7,4.9-4.7,6.8
		c-5.1,4.9-7.9,15.7-18.4,8.8c-9.8-6.5-11.8-20.9-4.3-29.1c13-14.2,28.5-26.2,46.1-33.3c26.7-10.8,42.9-29.5,53.7-54.4
		C330.5,336.3,335,332.6,342.3,334.4z"/>
	<path class="st21" d="M342.3,334.4c-6.3,2.6-10.4,6-12.1,13.6c-2,9.3-10.7,15.8-15,24.3c-5.6,11.1-15.5,16-25.8,21.1
		c-20.6,10.1-40,21.8-56.4,38c-7.3,7.2-8.1,9.3-3.3,17.5c2,3.6,4.4,6.9,7,11c7.3-5.3,11.5-12.3,15.4-19.4c7.1-12.7,12.3-14.7,26-9.4
		c7,2.7,13.7,5.7,18.7,11.6c3.3,3.9,7.3,6.5,12.7,7.9c9.1,2.4,11.7,7.7,9.7,16.7c-1.6,7.3-5.7,13.5-10.1,19.4
		c-3.4,4.5-2.9,7.3,1.2,11.6c11.9,12.7,12.6,23.8,4,37.1c-2.9,4.4-7.7,4-12.1,4.3c-3.5,0.2-6.8-0.5-9.6-2.6c-1-1.7-2-3.6-4.6-2.3
		c-2.9,0.5-5.6-0.3-8.3-1.2c-2.9-0.9-5.9-0.7-8.9-0.7c-29.3-6.7-56.9-17.8-83.6-31.2c-3.5-1.7-5.6-4.7-7.9-7.7
		c-18.7-10.8-34.3-25.1-47.5-41.8c-5.6-7.1-12.6-13.8-12.2-23.9c0,0,0.1-0.1,0.1-0.1c9.5-5.8,19.5-10.3,28.3-14.3
		c-5.9-0.1-11.2,9-19.5,6.1c-1.9-1.4-3.9-2.6-5.5-4.2c-3-3-2.6-5.7,1.3-7.6c5.8-2.9,11.5-6.3,17.6-8.6c29.8-11.2,60.1-20.8,92.5-21
		c4.3,0,9.5-1.8,12.9,3.9c-15,5.8-31.3,5.5-45.7,12.2c-2.2,3.2-6.7,0.6-9,3.6c-7.4,1-14.1,4.9-24.8,5.9c11.3-1.3,18.8-4.5,26.4-6.9
		c3.4-0.9,6.7-1.4,10,0.5c18.3-5.7,37.2-8.5,55.9-12.7c6.1-1.4,12.7,3.1,18.9-1.4c5.1-3.7,11.7-1.7,17.6-5.2c-6.5,0-13.1,0.1-19.6,0
		c-2.8,0-6.1-0.2-6.5-3.7c-0.4-3.7,2.9-4,5.6-4.6c1.7-0.4,3.4-1.3,4.8-1.9c0.2-1.4,0.8-2.5,0.4-3.1c-6.1-9.7-5.9-9.4,2.9-16.6
		c5.5-4.5,11.1-8.2,18.5-9.1c3.7-0.4,7-2.5,10-4.8C326.2,324.2,326.8,324.2,342.3,334.4z"/>
	<path class="st22" d="M396,144.1c12.2-0.3,24.4-1,35.6,5.1c3.5,1.9,5.7,0.9,8.3-1.9c13.1-14.3,27.6-27.3,42.5-39.8
		c8.9-7.5,18.2-14.3,28.8-19.3c0.9,0.6,1.5,1.5,1.6,2.6c-0.1,1.1-0.4,2.1-0.9,3c-0.6,0.9-1.3,1.7-2,2.5c-1.5,1.4-3.3,2.6-5,3.7
		c-0.8,0.6-1.6,1.2-2.4,1.8c-0.4,0.3-0.8,0.6-1.2,0.9c-0.7,0.7-1.6,1.3-2.4,1.8c-1.6,1.2-3.2,2.3-4.9,3.3c-0.8,0.6-1.6,1.1-2.4,1.7
		c-0.4,0.3-0.8,0.6-1.2,0.9c-0.7,0.7-1.5,1.3-2.2,1.9c-0.3,0.3-0.7,0.7-1.1,1c-0.7,0.8-1.4,1.4-2.2,2.1c-0.4,0.4-0.8,0.7-1.1,1.1
		c-0.8,0.8-1.6,1.5-2.4,2.1c-1.2,1-2.6,1.9-3.9,2.7c-0.8,0.6-1.7,1.1-2.5,1.7c-0.4,0.3-0.8,0.5-1.2,0.8c-0.7,0.6-1.5,1.2-2.2,1.8
		c-0.3,0.3-0.7,0.6-1,0.9c-0.6,0.7-1.3,1.3-2,1.9c0,0-1,0.9-1,0.9c-0.6,0.7-1.3,1.3-2,1.9c0,0-1,0.9-1,0.9c-0.6,0.7-1.3,1.3-1.9,1.9
		c0,0-1,1-0.9,1c-0.6,0.7-1.2,1.4-1.7,2.1c0,0-0.8,1.1-0.8,1.1c-0.5,0.8-1,1.6-1.5,2.3c-0.5,0.8-1.1,1.6-1.7,2.4
		c-0.6,0.8-1.2,1.5-1.9,2.3c-0.3,0.4-0.7,0.7-1,1.1c-0.6,0.8-1.3,1.5-2,2.2c-0.3,0.4-0.7,0.7-1,1.1c-0.6,0.8-1.3,1.5-1.9,2.2
		c-0.2,0.4-0.5,0.7-0.8,1.1c-0.7,1.6,0.5,2.1,1.7,2.7c1.1,0.4,2,1,2.8,1.7c1.4,2,0.6,6.2,2,6.1c10.5-0.2,18.5,6.8,28.1,8.6
		c2-0.3,3.9-0.2,5.8,0.6c1.1,0.7,1.9,1.6,2.2,2.9c0.1,1.2-0.2,2.3-0.6,3.3c6.1,2.7,12.4,5.2,13.5,13c1.1,5.8,5.9,7.4,10.7,8.9
		c2.7,0.7,5.3,1.4,8.1,0.5c2.2-0.7,4.4-1.3,6.8-1.2c1.2,0.2,2.2,0.8,3.2,1.5c0.6,1.1,0.7,2.3,0.6,3.5c-0.7,2.2-2,4.1-3,6
		c-0.2,0.8-0.3,1.6-0.1,2.4c0.1-0.1,0.7,0.9,0.8,0.9c0.8,0.4,1.5,0.8,2.4,1.1c1,0.2,2,0.5,3,0.8c4.1,1.1,8,1.8,11.9-0.4
		c2.5-1.8,2.7-5,4.4-7.3c0.8-1,1.9-1.7,3.2-2c1.4,0.2,2.5,0.8,3.4,1.9c2.8,5,3.7,10.2,2.1,15.8c-8.9,9.7-20.7,13.8-33.4,15.8
		c-8.5,1.3-16.6-0.7-21.5-7.5c-10.3-14.3-27.1-14.8-41.7-19.9c-2.5-0.9-5.5-0.7-8.3-1.1c-5.7-0.9-10.7-9.5-16.3-4.2
		c-7.3,6.8-11.4,17.3-9.1,26.4c3,12-0.4,20.4-7.6,29c-5,6-7.2,12.8-5.4,20.6c-4,7.2-5.6,17.3-18,14.7c-10.2-29.7-15.5-59.5-7.1-90.9
		c4.5-16.7-0.4-34.6,3.6-51.8C395.9,151.5,396,147.8,396,144.1z"/>
	<path class="st23" d="M184.3,180.2c-15,1.1-14.3,0.2-14.6-13.2c-0.4-22.3,6.2-43.4,8.9-65.1c0.8-6.2,3.5-10.2,8.7-13.1
		c4.2-3.6,7.9-0.5,11.6,1c29.5,12.2,52.3,33,73.9,55.3c6.2,6.4,3.8,10.3-4.1,12.4c-0.8,0.2-1.6,0.4-2.3,0.6c-2.5,1.3-5.2,2.6-8,2.1
		c-3.6-0.7-5.5-0.5-3.4,3.6c-9.7,6.9-18.2-0.8-27.3-2.3c3.8,4.1,15.1-1.4,12.9,10c-0.8,0.2-1.6,0.3-2.4,0.5
		c-12.2,5.3-22.4-4.1-33.8-4.6c-2.5-1.3-5.4-1.8-7.5-3.8c0.8,2.3,4.1,1,5.3,3c6.2,1.1,12.2,3,18.1,5.1c3.2,1.1,6.9,3.2,2.9,7.5
		c-5.5,0.4-10.4,4-16.2,3.1C199.1,185.6,192.3,177,184.3,180.2z"/>
	<path class="st24" d="M395.9,155.1c1.7,1.7,2.7,3.8,2.6,6.2c-0.4,20.5,1.9,41-4.1,61.3c-3.9,13.6-1.1,28.2-1.2,42.4
		c0,0.5,0.1,0.9,0.2,1.4c2.1,6.2,8.9,9.6,10.3,16c1.2,5.6-6.6,10.7-1.5,16.8c6.2,1.4,13.2,0.8,18,6.2c1.7,2.2,2.8,4.5,2,7.4
		c-3.3,7.9-14.9,2.3-17.9,10.6c-3.3,5.2-10.6,4-14.4,8.6c-4.2,0.2-6.6-1.2-5.2-5.8c2-6.7-4.5-6.7-7.7-9.4c-2.9-2.4-6.1-4.5-7.6-7.9
		c-2.1-4.7,2.9-6,4.8-8.8c4.3-6.4,3-18.6-4.5-25.2c-10.1-8.9-13.5-18.2-7-30.3c1.4-2.6-0.2-5.4-0.3-8.1c-0.3-6.4-0.5-12.7,1.6-19
		c6.1-19.3,2-29.2-15.9-40c-3.2-1.9-6.5-3.6-9.6-5.6c-1.6-1-2.8-2.8-2.3-4.7c0.5-1.8,2.3-3,4.2-3.1c7.5-0.5,14.8-0.1,22.3,0.8
		C374.7,166.2,386.5,163.9,395.9,155.1z"/>
	<path class="st25" d="M263.8,262.5c1.5,0.2,2.9,0.4,4.4,0.6c2.4,0.9,4.9,1,7.3,1.9c3.4,1.1,6.7,2.1,10.1,3.2
		c1.9,1.5,4.6,1.1,6.4,2.6c13.6,6.4,25.8,14.5,33.6,27.6c1.6,3.2,2.3,6-3.1,5.6c-3.7-4-7.6-3.8-11.5-0.2c-2.5,0.5-3.6-1-4.3-2.9
		c-0.7-2.1-0.2-4.5-2.2-7.1c-5.3,6.9-9.7,14.7-19.3,16.3c-3.4,0.4-6.7,0.5-10-0.2c-13.7-4.9-17-15.2-15.1-28.2
		c0.5-3.5,0.2-3.6-3.8-5c-4.7,6.1-2.4,12.5-1.2,18.8c0.2,2,0,4-0.7,5.9c-1.1,1.9-2.5,3.3-5,2.5c-3.2-2.8-4.7-6.6-6-10.4
		c-3.6-10.3-8-20-17.3-26.9c-1.4-1-2-3,0.3-4.3C238.7,260.5,251.3,260.6,263.8,262.5z"/>
	<path class="st26" d="M268.8,157.6c3.5-2.4,7.5-4.6,2.8-9.3c-0.3-0.3-0.6-0.7-0.9-1c-23.7-25-50-46.5-83.3-58.4
		c-7.8-6.3-13.5,0.7-19.9,3c6.1-12.8,10-14.5,22.5-9.6c5.6,2.2,10.6,6,16.8,6.8c1,0.8,1.9,1.6,2.9,2.3c2.6,1.4,5.1,3.1,8.2,3.3
		c1.2,0.7,2.2,1.6,3.2,2.5l0.1,0.1c1.4,1.8,4.1,1.1,5.5,2.9l0,0c1,0.8,1.9,1.8,2.9,2.7l0,0c0.8,0.9,1.7,1.6,2.7,2.3
		c1.8,1.1,3.7,2.1,5.5,3.2c1.1,0.8,2.1,1.7,3.1,2.6l0.1,0.1c0.8,0.9,1.6,1.7,2.6,2.4c0.8,0.3,1.7,0.5,2.5,0.6
		c10.8,10.7,21.6,21.5,32.3,32.2c2,2,4.4,3.3,7.2,4C281.9,156.9,276.3,159.4,268.8,157.6z"/>
	<path class="st27" d="M384.7,326.1c1.7,1.9,3.5,3.9,5.2,5.8c-1.4,2.9-3.7,6.4-6.5,6.6c-8.3,0.5-9.1,7.3-12.3,12.2
		c-4.4,0.8-7.6-0.9-9.7-4.6c-2.1-6.4-6.1-10-13.3-9.3c-1.3-0.8-2.6-1.5-3.8-2.3c0.3-5.4,4.1-7.3,8.8-8.8c7.6-2.5,15.3-2.3,23-2.2
		c1.5,1.5,3.8,1.1,5.6,2C382.7,325.6,383.7,325.8,384.7,326.1z"/>
	<path class="st28" d="M308.4,301.1c0.9,1,1.7,1.9,2.6,2.9c-17.7,22.9-46.1,23-61.7,0.2c1.1-1.2,2.3-2.4,3.4-3.6c3.6-0.7,6.5,1,9,3
		c12.7,10.4,25.1,10.8,37.7-0.1C301.8,301.3,304.8,299.6,308.4,301.1z"/>
	<path class="st8" d="M181.6,196.5c4.7,0,9.5,0,14.2,0c-2.6,17.2-11.5,24.9-28.3,24.5c-2.7-3.6,5.5-7.2,0.1-10.9
		c0,0-0.1,0.1-0.1,0.1c4.5-0.2,9,0.1,13.1-2.2c6.2-3.5,6.5-4.8,1.1-11.7L181.6,196.5z"/>
	<path class="st29" d="M184.3,180.2c-1-1.5-0.2-2.7,1.2-2.8c7.7-0.4,14.9,1.2,21.6,5.1c-0.5,2.2,6.5,6.4-1.9,6.4
		c-2.2,0-4.5-0.1-6.2,1.8c-2.6-0.9-5.2-1.8-7.8-2.6c-1.8-0.6-1.9-1.7-0.9-3.1c0.8-0.5,1.1-1,0.8-1.5c-0.3-0.4-0.6-0.7-0.9-0.7
		C188.8,180.6,186.7,180.1,184.3,180.2z"/>
	<path class="st30" d="M240.7,171.6c-2.3-8.1-10.9-6.4-18.2-10.3c12.1-1.6,21.8,5.8,32.1,1.9c1.4-0.9,2.6-0.7,3.7,0.6
		C252.6,166.9,248.2,172.6,240.7,171.6z"/>
	<path class="st31" d="M201.3,166.2c12.7-0.6,24.2,6.3,36.9,5.9c-3.3,5.8-10.8,3.2-15,7.3c-3.6-10.1-15.9-6.8-21.8-13.3L201.3,166.2
		z"/>
	<path class="st32" d="M128.3,419.9c8-0.9,14-8.2,25.8-7.9c-13.3,6.4-22.9,13.2-34.6,16.1C120.6,423.5,126,423.3,128.3,419.9z"/>
	<path class="st32" d="M78,349.4c8,1.3,15.8-4.1,27.1-0.6c-14.6,2.6-25.8,6.5-37.8,6.1C69.6,350.8,74.8,352,78,349.4z"/>
	<path class="st33" d="M263.8,262.5c-12.5,0-25,0.1-37.5,0.1C238.7,258,251.2,258.5,263.8,262.5z"/>
	<path class="st34" d="M167.5,210.2c5.8,3.7,3.5,7.3-0.1,10.9c-1.8,0.1-3.7,0.2-5.5,0.4C162.1,216.9,160.3,211.4,167.5,210.2z"/>
	<path class="st8" d="M195.8,196.5c1.1-1.9,2.2-3.9,3.2-5.8c5.4,2.2,10.9,4.3,17.5,7C208.3,201.4,202.3,195.8,195.8,196.5z"/>
	<path class="st26" d="M258.2,163.7c-1.2-0.2-2.5-0.4-3.7-0.6c-1.5-1.4-3.1-2.7-5.7-5c6.7,0,12.1,0,17.6,0
		C264.5,161.2,261.8,163.2,258.2,163.7z"/>
	<path class="st35" d="M203.8,397.6c-3.7,0-7.3,0.1-11,0.1l0.1,0.1c2-3.1,5.3-2.7,8.4-3.2C202.2,395.6,203,396.6,203.8,397.6z"/>
	<path class="st36" d="M322.4,304.2c3.1-0.8,2.6-3.5,3.1-5.6c2.4,1.8,4.1,4.3,2.1,7C325.7,308,323.7,306.4,322.4,304.2z"/>
	<path class="st24" d="M381.6,325.4c-2.2,0.2-4.1-0.4-5.6-2C378.2,323.3,380.1,323.8,381.6,325.4z"/>
	<path class="st37" d="M291.9,270.9c-2.8,0.6-4.6-0.9-6.4-2.6C288.3,267.5,290.2,268.9,291.9,270.9z"/>
	<path class="st38" d="M275.4,265c-2.8,0.7-5.2,0.1-7.3-1.9C271,262.3,273.4,262.7,275.4,265z"/>
	<path class="st39" d="M179.1,493.9c22.1,10.4,44.8,19.3,67.8,27.8c9.1,3.3,18.1,6.9,27.8,8c2-1.1,3.9-1.3,5.5,0.6
		c2.6,1.8,5.3,2.9,8.5,2.3c1-1,1.8-0.9,2.5,0.3c2.4,2.2,5.5,2.3,8.4,2.8c7.4,3.1,15.6-0.7,23,2.2c11.3-0.5,22.5,1.1,33.5,3.3
		c1.7,1.4,4.1,1,5.9,2.1l0.2,0c1.1,1.5,2.7,3,2.7,4.7c-0.1,18.9,4.8,37.7,2.7,56.7c-0.7,1.6-1.7,2.9-3,4c-7.9,4.4-16.3,3.3-24.7,2.2
		c-8.4-2.8-17.1-2.8-25.8-2.3c-7.3,0.1-14.3-2.1-21.4-3.4c-16.1-4.2-32.5-2.2-48.8-1.6c-7.4,0.7-14.8,0.4-22.2-1
		c-20.9-10.1-43.2-12.5-66.1-11.8c-7.8-1-15.6-1.7-22.6-5.7c5.6-0.1,11.3-0.1,16.9-0.4c4.9-0.3,6.4-3.5,5.5-7.7
		c-1.2-5.6-4.9-9.7-8.8-13.8c-4.1-4.2-9.9-7.3-10.4-14.2c0.4-0.3,0.8-0.5,1.1-0.8c5.9-6.5,16,6.4,20.7-4.2
		c2.9-6.7,5.8-13.3,9.2-19.8l0.1-0.1c0.9-0.8,1.6-1.6,2.3-2.5c2-6.5,4-13,6-19.5C176.9,499.7,178,496.8,179.1,493.9z"/>
	<path class="st6" d="M167.4,524.6c-2,8.8-3.6,17.6-6,26.3c-1.7,6.3-4.6,7.5-9.7,3.3c-4.7-3.8-9.5-5.2-15.2-4.8
		c0.5-0.8,0.9-2,1.5-2.2C151.2,543.8,159.1,534,167.4,524.6z"/>
	<path class="st6" d="M148.9,505.7c5,0.6,8.4,3.4,9.3,8.3c0.7,3.4-2,4.9-5.1,4.7c-5.2-0.2-8.9-2.8-9.7-7.9
		C142.9,507.7,145.7,506.3,148.9,505.7z"/>
	<path class="st6" d="M169.8,522c-0.8,0.8-1.5,1.7-2.3,2.5C168.3,523.7,169.1,522.8,169.8,522z"/>
	<path class="st40" d="M226.7,100.1c-2.2-0.2-4.2-0.9-5.5-2.9C223.5,97.3,225.5,98,226.7,100.1z"/>
	<path class="st40" d="M243.5,113.3c-0.9-0.8-1.7-1.6-2.6-2.4C241.8,111.8,242.6,112.6,243.5,113.3z"/>
	<path class="st40" d="M240.8,110.9c-1-0.9-2.1-1.7-3.1-2.6C238.8,109.2,239.8,110,240.8,110.9z"/>
	<path class="st40" d="M232.2,105.1c-0.9-0.8-1.8-1.6-2.7-2.3C230.4,103.5,231.3,104.3,232.2,105.1z"/>
	<path class="st40" d="M229.5,102.7c-1-0.9-1.9-1.8-2.9-2.7C227.6,100.9,228.6,101.8,229.5,102.7z"/>
	<path class="st40" d="M221.1,97.1c-1.1-0.8-2.1-1.7-3.2-2.5C218.9,95.4,220,96.3,221.1,97.1z"/>
	<path class="st40" d="M209.7,91.3c-1-0.8-1.9-1.5-2.9-2.3C207.7,89.8,208.7,90.5,209.7,91.3z"/>
	<path class="st8" d="M181.7,196.4c-0.9-0.2-1.9-0.1-2.7-0.5c-0.9-0.5-0.5-1.4,0.7-1.1c0.7,0.1,1.3,1.2,1.9,1.8
		C181.6,196.5,181.7,196.4,181.7,196.4z"/>
	<path class="st23" d="M190.1,182.8c1.3,0.4,2.5,0.8,3.8,1.1c-0.9,1.4-2.3,1.1-3.7,1C190.2,184.3,190.1,183.5,190.1,182.8z"/>
	<path class="st41" d="M305.8,954.5c-2.1-3.6-4.2-7.1-6.3-10.7c-0.2-0.7-0.4-1.4-0.6-2.1c-4.8-9.8-7.5-20.3-10-30.9
		c-1.5-6.5-1.6-12.7,5.3-16.7c27.1-0.8,54.3-4.9,81.4-0.7c7.7,7.4,8.7,11,4.4,18.5c-2.3,3.9-5.3,7.4-8.4,10.8
		c-3.8,4.1-6.7,8.6-8.6,13.9c-3.4,9.8-3.2,10,7.9,11.2c1.4,0.1,2.8,0.1,4.2,0c6.4-0.8,12.6-0.8,18,3.5c0.9,1.6,0.8,3.1-0.4,4.6
		c-4.4,3.5-9.4,4-14.8,3.3c-21.8,0-43.6,3.2-65.3-0.9C310.2,957.2,307.8,956.1,305.8,954.5z"/>
	<path class="st42" d="M282.9,943.4c-2.8,0-5.5,0-8.3-0.1c-3.2-6-8.7-5.2-14.4-5.3c-15-0.4-20.6-9.5-13.8-22.8
		c2.9-5.6,4.8-11.8,8.8-16.8c1.4-1.6,3-2.8,4.9-3.7c1.9-0.9,3.9-1.4,6-1.7c6.3,0.8,12.1-1.9,18.2-2.7c1.4,0.5,2.6,1.3,3.4,2.5
		c0.7,16.6,9.6,31.6,10.3,48.2C293.4,944.1,287.6,940.7,282.9,943.4z"/>
	<path class="st43" d="M257.8,899.5c-3.6,5.3-2.2,12.6-7.6,17.4c-4.3,3.7-5.7,9.5-1.9,13.5c3.6,3.8,9.5,6.7,15.2,3
		c7-4.5,10.2,2,14.2,4.8c2.1,1.5-2.2,3.2-3.1,5.1c-11.1,3.4-22.4,4.4-33.9,2.8c5.4-14.6-1.3-26.2-10.4-37.2c2.6-6,11.5-2.5,13.3-8.9
		C248.1,895.1,252.9,895.3,257.8,899.5z"/>
	<path class="st44" d="M305.8,954.5c1.8,0.1,3.6,0.2,5.3,0.2c12.3,15.5,19,33.7,26.7,51.5c0.1,1.4-0.4,2.6-1.5,3.6
		c-6,5.6-0.9,14.9-7.2,20.6c-4.4,0.4-2.6-5.4-6.1-5.9c9.3-13.8,3.2-26.4-3-39C314.9,975.2,309.3,965.3,305.8,954.5z"/>
	<path class="st45" d="M215.3,1029.4c-2.7-2.8-5.5-5.7-8.2-8.5c5.3-1.7,6.9-8.1,14.3-10.4C217.8,1017.4,214.4,1022.9,215.3,1029.4z"
		/>
	<path class="st46" d="M279.9,1029.8c-4.4,3.6-0.5,10-4.7,13.7c-0.1-5.3-0.4-10.6-0.3-15.9c0-1.9,1-3.4,3.4-2.4
		C280.2,1026.1,280.1,1028,279.9,1029.8z"/>
	<path class="st47" d="M305.2,1032.4c-3.7,2.6-1.1,8-4.8,10.7c0-5.7,0-11.4,0-18C304.2,1026.7,305.1,1029.3,305.2,1032.4z"/>
	<path class="st48" d="M257.5,1043.3c-1.3-0.1-2.5-0.2-3.8-0.4c-2.9-3.6-4.2-7.6-4.1-13.6C255,1033.5,256.4,1038.3,257.5,1043.3z"/>
	<path class="st49" d="M282.9,943.4c4.3-3.4,9.6-2.1,14.5-2.9c2.5-0.5,3.5,0.7,3.3,3c0,0-1.3,0.3-1.3,0.3
		C293.9,943.7,288.4,943.5,282.9,943.4z"/>
	<path class="st50" d="M178.5,944c6.1-0.7,12.1-0.7,17.8,2.1C190.1,946.9,184,947.7,178.5,944z"/>
	<path class="st51" d="M190.6,812.1c-1.1-0.4-2.2-0.8-3.3-1.1c-9-4.1-10.6-12.8-11-20.6c-0.5-10.3-0.9-20.8,0.7-31.2
		c1.7-11.3,5.5-20.4,15.9-27c6.7-4.3,10.3-11.9,11.5-20.1l-0.1-0.1c-2.4-1.6-5.3-3-2.2-6.4c2.9-0.5,5.2-2.4,8-2.9
		c7.8-1.1,15.2,0.2,22.6,2.5c2.9,0.7,5.7,2.1,8.8,0.7c1.2-0.4,2.4-0.6,3.7-0.6c0.6,0.2,1.2,0.4,1.9,0.6c1,0.9,1.8,1.9,2.4,3.1
		c1.2,4.7,2.6,9.3,4.2,13.9c5.1,26.5,8.2,53.3,10.9,80.1c-2.8,11.6-13.7,8.4-21.3,11.2c-2.9,0.6-5.9,0.7-8.9,0.5
		c-3.5-0.2-7.1-0.1-10.6,0.5c-8.2,0.8-16.4,1.4-24.6,0.2C195.9,815.2,193,814.3,190.6,812.1z"/>
	<path class="st52" d="M190.6,812.1c2.8-0.7,5.6-0.4,8.3,0.4c2.1,9.4,7.4,17.5,14.1,23.9c5.7,5.5,9.1,11.2,10,18.6
		c1.6,12.2,8.6,22.8,10.2,35c-0.4,0.5-0.8,1.1-1.2,1.6c-12.2,1.7-19.5-4.5-24-14.7c-4.6-10.4-8.7-21-13.8-31.2
		C189.3,835.5,188.6,823.7,190.6,812.1z"/>
	<path class="st53" d="M204.3,712c3.4,0.7,10.4-0.5,4,5.9c-2.6,2.6-6.5,3.6-3.1,8.3c1.6,2.3,0,4.2-2.6,5.1
		c-22.6,8.2-22.5,25.7-22.2,45.6c0.2,12.3,2.2,23.1,6.8,34c-7.8,1-15.1-1.5-22.5-2.9c-1.9-1-4.1-0.9-6-1.9c0,0-0.3,0.1-0.3,0.1
		c9.3-6.7,12-16,12.3-26.9c0.2-9.5,0.9-19.1,3.3-28.2c1.6-6.1,3.6-12.8,10.2-17c4.5-2.8,9-6.4,9.2-12.9
		C193.6,714.8,201.2,715.8,204.3,712z"/>
	<path class="st54" d="M257.8,899.5c-4.7,0.2-9.5,0.4-14.2,0.5c-13.1-0.1-26.1-0.1-39.2-0.3c-5.1-0.1-10.3,0.7-14.9-2.5
		c15.1-0.2,30.2-0.5,45.4-0.7c1.2-1.3,2.6-2.3,4.2-3c7.8-1.9,15.5-3.1,21.9,3.5C259.9,897.8,258.8,898.7,257.8,899.5z"/>
	<path class="st18" d="M158.8,806.2c2.4-0.5,4.4,0,6,1.9C162.5,808.4,160.3,808.4,158.8,806.2z"/>
	<path class="st52" d="M234.8,894.4c-0.9-0.9-1.8-1.9-2.7-2.8c0,0,0.5-0.6,0.5-0.6c1.4-0.1,2.4,0.5,3,1.7
		C235.4,893.3,235.1,893.9,234.8,894.4z"/>
	<path class="st52" d="M238,896.5c-1.1,0-2.1,0-3.2,0.1c0.1-0.7,0-1.4-0.1-2.1c0,0,0.7-0.6,0.7-0.6
		C237.5,893.6,238.5,894.3,238,896.5z"/>
	<path class="st55" d="M209.9,706.2c-2.9,0.2-5.7,0.5-8.6,0.7c-1.8,1.4-3.6,1.4-5.5,0.1c-3.9-0.9-8.3,0.8-11.6-2.5
		c6.3-0.4,12.7-0.8,19-1.3C206.6,701.6,209.2,701.9,209.9,706.2z"/>
	<path class="st53" d="M195.8,707c1.8-0.1,3.7-0.1,5.5-0.2c1,1.7,1.9,3.4,2.9,5.1C200.3,712.1,196.5,712.2,195.8,707z"/>
	<path class="st56" d="M32.2,660.6c0.9-0.2,1.5,0.1,1.8,0.9C33.1,661.7,32.5,661.4,32.2,660.6z"/>
	<path class="st57" d="M209.9,706.2c-1.8-2-4.3-2.4-6.7-2.9c-1.4-5.2-2.7-10.5-4-15.7c-0.8-3.2-0.8-6.3,2.2-8.6
		c6.3-8,3.7-16.9,2.7-25.8c-0.7-7-5-14.1,0.1-21.1l0,0c2.2-1.9,1.5-3.7,0-5.6l0,0c-1-0.9-1.9-1.8-2.8-2.8l0,0
		c-2-9.3-4.6-18.5-5.3-28c9.1-5.4,16.3,4.3,24.8,3.1c7.4,0.2,14.8,0.4,22.2,0.7c11.5,2.2,23.2,0.4,34.7,1c5.5,0.3,11.2-1,16.6,1
		c6.4,1.2,12.7,2.4,19.1,3.6c8.5,2.4,17.4-0.9,25.9,1.9c8.4,0.1,16.9,0.3,25.3,0.4c2.8,0.5,4.6,2.2,5.8,4.6c3.3,8.7,4.3,17.9,4.7,27
		c1,20.6-0.6,41.3,3.4,61.8c0.8,4,0.6,8.3-2,12c-5.9,5-13.5,2.3-20.1,4.2c-9.6,0.7-19.1,0.5-28.6-0.9c-9.9-3.3-20.2-2.4-30.5-2.7
		c-15.3-0.4-30.8,1.5-46-1.3c-2.5-1.2-3.9-3.3-4.9-5.7l0,0c-3.4-3-2.9-7.1-3.1-10.9c-1.2-16.3-4.7-32.5-4.2-46.5
		c-0.9,2.8,0.2,8.3,0.5,13.8c0.8,15.3,6.1,30.5,1.8,46.1c-1.8,2.3-4.2,1.9-6.5,1.2C226.9,708,218.6,706.2,209.9,706.2z"/>
	<path class="st58" d="M204.2,632.2c1.7,7.8,4.1,15.6,5.1,23.6c1,8.7,1.7,17.8-7.9,23.3c-0.3-12.3-1.2-24.6-4.7-36.5
		C193.8,633.2,193.6,633.2,204.2,632.2z"/>
	<path class="st59" d="M221,598.8c-8.6,1.5-16.6-3.4-25.1-2.2c-0.7-0.3-1.4-0.6-2-0.9c-8.7-2.4-17.8,0.8-26.5-1.8
		c-3.9-0.6-8.1,0.1-11.4-2.9c17.3-5,34.7-5.7,51.3,2C211.7,595.2,217.3,595,221,598.8z"/>
	<path class="st58" d="M195.9,596.6c3.8,3.1,5.8,6.9,5.5,12c-0.3,5,0,10.1,0,15.2c-3.1-0.1-8.9-0.8-7.4-3.3
		c5.2-8.7-3.2-15.7-1.5-23.6c0.5-1.5,1.5-1.7,2.8-0.9L195.9,596.6z"/>
	<path class="st60" d="M195.4,596c-0.9,0.3-1.9,0.6-2.8,0.9c-8.3-1.7-17.3,1.6-25.3-2.9C176.7,594.4,186.3,591.4,195.4,596z"/>
	<path class="st58" d="M204.2,626.6c1.6,0.6,3.4,1.5,3.6,3.2c0.2,2.3-1.9,2.2-3.6,2.3C204.2,630.3,204.2,628.4,204.2,626.6z"/>
	<path class="st58" d="M201.4,623.8c0.9,0.9,1.8,1.9,2.8,2.8C203.3,625.6,202.4,624.7,201.4,623.8z"/>
	<path class="st61" d="M556.5,125c0,27.5,1.2,55-0.4,82.5c-0.8,0.1-1.6,0.1-2.3,0.1c-6.7-5.1-3.2-12.9-5.3-19.3
		c0.2-24.3,2.3-48.6-3-72.7c-1-4.5-1.6-9-2.8-13.5c-3.8-14.2-5.5-15.1-20.3-10.9c-3.6,1-7.1,2.5-10.8,0.4c-0.1-1.1-0.2-2.2-0.3-3.3
		c4.8-5.2,11.3-7.8,17.8-10.2c10.9-3.9,14.8-2.2,18.8,8.9c3.1,8.5,5.6,17.2,6,26.4C554,117.3,553.6,121.5,556.5,125z"/>
	<path class="st62" d="M667,882.2c-2.1,1.1-4.3,2.1-6.4,3.2c-2.9,4.5-7.6,4.7-12.3,5c-5.1-0.9-10.1-0.1-15,1.5
		c-2.8,0.7-5.7,1.1-8.6,1.2c-3.7,0-7.2,1.5-10.8,2.2c-15.3,3.9-31.2,3.8-46.7,5.8c-6.7,2.1-13.5-0.3-20.2,0.4
		c-27.3,0.4-54.6,3.6-81.8-1.9c-7.9-5.7-7.1-14.3-5-21.4c4.9-16.3,6.4-33.4,12.8-49.3c0.5-1.6,1.1-3.1,1.8-4.6
		c1.8-2.8,3.5-5.7,6.8-7.2c15.9-4.1,32.4-3.4,48.6-5c44.2-4.5,88.4-8.4,131.5-19.9c7.3-1.9,14.7-3.2,21.7,1.2
		c3.7,3.6,4,8.1,3.4,12.7c-2.5,21.2-5.6,42.4-11,63.1C674.5,874.4,673,879.8,667,882.2z"/>
	<path class="st63" d="M510.7,1039.8c-0.9-0.1-1.7,0.3-2.2,1c-1.1,0.7-2.2,1.3-3.4,1.8c-0.8-0.2-1.6,0.1-2.2,0.6
		c-1.1,0.8-2.3,1.2-3.6,1.1c-3.2,0-6.5,0.2-9.7-0.3c-1.1-0.7-1.9-1.7-2.4-2.9c-0.3-1.9,0.1-3.8,0.3-5.7c0.6-4.4-0.8-8.8,0.3-13.2
		c3.2-4.4,6-2,9.4,0.1c7.2,4.4,10.8-1.2,12.2-6.3c2.1-7.4-7.7-23.7-15.3-26.5c-10.4-3.8-19.1-7.8-14.4-21.6c2.1-6.1-4.5-7-8.8-8.1
		c-5.9-1.5-12.2-0.2-18.1-1.8c-4.5-1.2-9.8-2.7-3.9-8.7c10.4-3.9,21.2-2.8,31.7-1.4c9.3,1.3,18.5,1.5,27.7-0.1
		c19.6-0.9,39.3-1.5,58.7-4.7c14.1-2.8,28.4-4.7,42.5-7.3c4.9-0.9,10.2-2,14.5,2c4,0.4,8.2-1.5,12.3,0.7c0.7,5.1-3.1,7.9-6,11.2
		c-7.5,3-9.3,11.2-15,15.8c-9.4,9.9-19.7,19.1-27.4,30.5c-16.8,6-34.9,8.4-50.8,17c-9.3-1.6-5.4,7.6-9,10.6
		c-3.6,5.8-9.3,9.5-14.1,14C513.1,1038.5,512.2,1039.6,510.7,1039.8z"/>
	<path class="st64" d="M624.2,937.9c-18.4,3.9-36.9,7.3-55.7,8.9c-4.8,2.3-6.2,0.1-7.5-4.3c-4.9-16.3-1.8-31.2,6.9-45.4
		c15.6-4,31.9-2.7,47.6-6.3c3-1.4,6.5-0.1,9.4-1.8c2.5-0.2,5.1-0.4,7.6-0.6c4.6-2.7,10.2,0.4,14.8-2.3c4.5-0.2,8.9-0.5,13.4-0.7
		c4.3,1,7,3.3,4.7,7.8c-6.4,12.8-12.9,25.4-19.5,38.1c-1.6,3.2-4.8,4-8.3,4C632.9,935.3,628,934.1,624.2,937.9z"/>
	<path class="st65" d="M615.5,965.5c3.4-6.7,4.7-15.4,15-15.8C626.6,956,622.3,961.9,615.5,965.5z"/>
	<path class="st66" d="M446.6,952.2c5.3,4.4,11.6,2.1,17.5,2.6c5,0.4,10-0.1,14.9,2.6c10,5.4,10.3,5.2,3.7,14.6
		c-3.4,4.8-0.9,7.5,2.9,10c4,2.7,8.9,2.6,13.2,4.1c9,3,11.2,6.4,11.2,15.8c0,0.9-0.4,1.8-0.3,2.7c0.7,6,12.7,10.1,4,17.3
		c-4.8,4-10.8,6.9-14.6,11.7c-6.2-1.3-3.5-6.1-5-9c-1.4-2.8-3.2-2.8-4.8,0c1.6,7.2,0.4,13.5-5.6,18.5c-1.1,1.1-2.2,2.2-3.3,3.2
		c-1,0.8-2.1,1.4-3.2,1.8c-4.6,0.3-9.2,0.9-11.1-4.8c-3-5.3,0.9-11.6-2.6-16.8l0,0c-1.2-2-1.9-1.1-2.5,0.4c-0.3,3.4-0.6,6.8-1,10.3
		c-1.6,2.6,0.4,6.3-2.4,8.6c-11.2,0.3-11.2,0.3-14.4-13.2c-1-1.8-1.2-5.1-4.7-2.6c-0.6,3.1-1.1,6.3-2,9.3c-0.3,1.2-1.4,2.2-2.2,3.5
		c-10.5-2-13.8-10-16.7-18.3c-2.2-1.5-4.4-3-4.9-5.8c-3.4-10.2-1.4-19.1,4.1-28.6c7.1-12.1,11.1-26,19.7-37.4c2-1.7,4.4-2.1,6.9-2
		C444.8,950.7,445.8,951.2,446.6,952.2z"/>
	<path class="st67" d="M440.6,952.1c-9.3,14.4-14.7,30.6-23.3,45.4c-3.4,5.7-6.3,13.5-1.8,20.9c-1.6,1.9,0,6.9-5.3,5.1
		c-0.1-3.1-0.4-6.2-0.4-9.3c0.1-3.6-2.1-4.4-5.2-4.6c-1-0.9-1.5-2-1.4-3.4c5.2-12.7,13-24.2,17.9-37.2c1.8-4.8,4-9.3,1.9-14.5
		c-0.1-1.4,0.3-2.6,1-3.8c1.6-1.5,3.4-2.4,5.5-2.9C433.6,948.2,439.5,944.1,440.6,952.1z"/>
	<path class="st68" d="M403.8,1007.7c0.2,0.7,0.5,1.4,0.9,2c-22.8,0-45.5,0-68.3,0.1c0.3-0.6,0.5-1.1,0.7-1.8c6-7.7,14.4-6,22.5-5.5
		c9.8-0.3,19.5-1.3,29.3-0.5C394.4,1002.4,400.1,1002.4,403.8,1007.7z"/>
	<path class="st69" d="M410.2,1023.5c1.8-1.7,3.5-3.4,5.3-5.1c0.8,2,1.5,4,2.3,5.9c-2.4,1.3-1.2,6.2-4.3,5.7
		C411.1,1029.7,409.9,1026.4,410.2,1023.5z"/>
	<path class="st70" d="M463.6,1026.4c3.9,5.2,3.2,11,2.6,16.8C462.7,1038,463,1032.2,463.6,1026.4z"/>
	<path class="st71" d="M438.6,1029.8c-0.2-2.1-0.5-5.3,2.4-4.8c4.3,0.7,2.7,4.6,2.3,7.4C441.7,1031.5,440.2,1030.7,438.6,1029.8z"/>
	<path class="st72" d="M457.7,1045.6c0.3-3-0.3-6.2,2.4-8.6C460.8,1040.3,461.7,1043.6,457.7,1045.6z"/>
	<path class="st70" d="M461,1026.8c-0.3-1.6-1-3.7,1.6-3.7c1.3,0,1.5,1.9,1,3.3C462.7,1026.5,461.9,1026.6,461,1026.8z"/>
	<path class="st73" d="M477.2,1048c0.7-1.3,1.8-1.8,3.3-1.8c0,0.8,0,1.5-0.1,2.3C479.3,1048.4,478.2,1048.2,477.2,1048z"/>
	<path class="st74" d="M339.5,1081.6c-0.3-0.2-0.9-0.4-0.9-0.5C338.7,1080.3,339.1,1080.5,339.5,1081.6
		C339.5,1081.6,339.5,1081.6,339.5,1081.6z"/>
	<path class="st73" d="M483.8,1043c1.6-6.2,5.2-11.9,5.6-18.5c4.5,3.6,2,8.3,1.9,12.6c-0.5,1.2-1.6,2.2-1.6,3.6
		c-0.2,0.5-0.2,1.1-0.1,1.7c1.3,1.3,1.1,2.3-0.4,3.2C487.3,1044.7,485.5,1043.9,483.8,1043z"/>
	<path class="st75" d="M528.3,1023.6c0-4.8,0-9.6,0-14.7c2.9,1.3,6,2.7,9,4.1C532.6,1015.1,533.8,1022.1,528.3,1023.6z"/>
	<path class="st76" d="M489.1,1045.6c0.1-1.1,0.3-2.2,0.4-3.2c3.7,0.2,7.3,0.5,11,0.7c0.5,1.2,0.1,1.9-1.1,2.1
		C495.9,1045.3,492.5,1045.5,489.1,1045.6z"/>
	<path class="st73" d="M510.7,1039.8c0.7-1.4,1.8-2.1,3.4-2.1C513,1038.4,511.9,1039.1,510.7,1039.8z"/>
	<path class="st73" d="M505.1,1042.5c0.7-1.3,1.9-1.9,3.4-1.8C507.4,1041.3,506.2,1041.9,505.1,1042.5z"/>
	<path class="st73" d="M499.4,1045.2c0.4-0.7,0.8-1.4,1.1-2.1c0.8-0.2,1.6-0.2,2.4,0.1C501.7,1043.9,500.6,1044.5,499.4,1045.2z"/>
	<path class="st77" d="M519.2,473c-7.4,2-10.6-7.3-17.4-4.3c-1.2,5.1,2.7,8.5,4.5,12.5c3.1,7,14.5,15.3-4,17.9
		c-2.7,0.4-2.1,4.7-2.1,7.4c0,8.7-5,14.3-12.9,16c-30.3,6.5-60.2,16.9-92,10.3c-2.7-0.6-6-1-7.8-2.7c-16.6-15.4-39.5-24.7-49-47
		c-3.6-8.4-6.4-17.1-1.8-26.4c2.4-4.9,5.4-8.6,11.3-9c19.8-1.1,25.8-21,40.7-28.7c-0.3-17.8,14.1-18.3,26.3-21
		c3.3-0.7,8.3-3.3,10.2,1.1c2.2,5.2,4.3,11.2,1.1,17c-1.8,3.4-8,4.9-5.3,10c3.3,6.2,8.8,3,13.7,2.3c15.2-2.1,22.4,9.2,31.4,17.7
		c3.3,3.1,4,8.4,10.3,10.7c-0.5-7-4.9-11.8-7.2-17.2c-4.4-10-4.2-10.6,6-14.3c0.9-0.3,2.1-0.3,2.6-0.9c10.6-12,20-4.8,29.3,1.9
		c6,4.3,11.8,9,17.5,13.7c2.8,2.3,5.6,4.9,6.2,8.9c0.6,4.5-2.2,7.3-6.6,5.8c-6.7-2.3-12.8-5.5-17.9-10.6c-2.7-2.7-4.7-7.1-11.1-5.8
		C501.6,451.1,512.8,460.3,519.2,473z"/>
	<path class="st78" d="M367.3,610c-0.8-0.9-1.7-1.7-2.5-2.6c0,0-0.3-0.7-0.3-0.7c3.6-2,2.9-4.8,2.4-8.2c-1.9-13.9-2.6-27.9-2.1-41.9
		c0.2-4.4-1-9.2,2.8-12.8c10.8,0,21.5-0.6,32.3,0.1c33.2,2.1,64.9-5.1,96.2-14.7c7.1-2.2,14.2-4.6,21.3-6.9c7.1,4.5,8.6,12,5.6,18.2
		c-8.3,17.3-11.8,35.6-14.6,54.2c-0.2,1.4-1.4,2.4-2.2,3.5c-8.9,7.5-20.3,7-30.7,7.9c-31.2,2.8-62.5,5.9-93.8,7.7
		C376.5,614.2,371.5,613.7,367.3,610z"/>
	<path class="st79" d="M570.8,483c8.6-8.8,17.2-17.5,19.6-30.1l-0.1,0.1c3.5-1.7,6-4.1,6-8.2c1.2-0.9,2.5-1.1,3.9-0.9
		c4.6,1.6,8.1,4.8,10.6,8.7c14.8,22.8,30.1,45.4,37.2,72.1c0.3,2.5,0.6,5,1.1,7.4c0.1,1.2,0.1,2.4-0.1,3.6c-0.7,3.5-3.3,6-4.9,9.1
		c-0.9,1.4-2,2.7-3.2,3.8c-0.8,0.8-1.6,1.5-2.5,2.1c-0.4,0.3-0.9,0.6-1.3,1c-0.8,0.7-1.7,1.2-2.6,1.8c-0.9,0.6-1.8,1.1-2.7,1.6
		c-1.3,0.8-2.7,1.6-4,2.4c-1.8,1.1-3.6,2.1-5.6,2.9c-2,0.8-4,1.6-6,2.4c-1,0.5-2.1,0.9-3.2,1.3c-1.8,0.6-3.5,0.7-5.4,0.4
		c-1.2-0.4-2.3-1-3.4-1.7c-11.8-3.2-23.8-2-35.3,0.5c-14.5,3.2-16.5,3.3-22.4-10.3c-3.7-8.4-7.4-16.8-11.5-25.1
		c-2.1-4.4-5.2-9-1.1-14.1c11.3-11.1,26.5-17.8,36.4-30.4L570.8,483z"/>
	<path class="st80" d="M598.6,444.6c-0.8,0.1-1.5,0.2-2.3,0.3c-24.5-22-54.5-35.3-82.8-51.4c-4.3-2.4-9.8-3.4-8.5-10.6
		c0.6-3.4-3.2-3.7-6-4.3c-12.8-2.7-25.6-5.5-38.3-8.3c-2.3-0.5-4.7-0.6-6.4-3.9c5.9-1.5,11.4,3.4,16.8,0.6c0.1-0.6,0.3-1.4,0.2-1.5
		c-20-8.8-30.2-28.6-47.4-40.6c-6.2-4.3-12.7-5.9-19.6-1.7c0.4-4.8,3-7.4,7.9-8.3c3.2-0.6,6.2-1.9,9.3-2.9c2.3-1.4,4.4-0.3,6.5,0.6
		c1.6,0.7,3.1,1.6,4.6,2.4c1.1,0.5,2.1,1.1,3.1,1.8c3.9,3,8.5,4.7,13.1,6.4c11.6,5.1,15.1,17.2,23.1,25.4
		c11.3,9.8,24.4,14.6,39.4,16.3c12.1,1.3,24.1,3.9,35,9.8c11.7,7.5,25.1,12.1,36.9,19.5c3.4,2.2,6.9,1.9,10.7,1.3
		c7.6-1.1,13.8,1.3,16.9,8.9c0.8,2.7,1.1,5.4,0.8,8.1c-1,9.1-2.5,10.2-13.4,10.6c-13.8-5.2-26.7-12.7-41.2-15.6
		c15.7,9.5,33.4,16.3,42.8,33.3C599.9,442.4,599.5,443.5,598.6,444.6z"/>
	<path class="st81" d="M534.1,513.8c6.4,14.6,13.1,29.2,19.2,43.9c2.7,6.4,6.6,5.5,11,2.9c6.4-3.8,12.1-8.5,20-1.9
		c2.7,2.3,6.8-1.8,10.3-3c10.3-3.4,10.7-3.1,13.1,8.3c0,5.7-4.3,8.2-8.8,9.3c-26.7,6.9-51.7,19.2-78.9,24.3
		c-2.8,0.3-5.6,0.7-8.5,0.8c-2.2-0.1-4.1-0.7-5.5-2.6c-0.9-13.8-0.3-27.5,5.4-40.5c0.9-2.1,0.9-5,2.4-6.3c9-8,6.1-17.4,3.8-26.9
		C523,519.5,528.6,516.6,534.1,513.8z"/>
	<path class="st82" d="M361.5,346c3.3,1.4,7.3,1.4,9.7,4.7c0,0-0.5,0.5-0.5,0.5c-2.7,7.3-0.7,14.7-0.7,22c8,14.4,22,16.9,37.1,17.5
		c-12.5,3.7-24.1,2.4-34-5.8c-4.2-3.5-7.1-4.5-11.6-0.3c-5.1,4.8-12,7-19,8.2c-2.8,0.8-6.1,2.2-5.6-3c1.8-0.4,3.7-0.8,5.5-1.2
		c1.1-0.4,2.1-0.9,3.1-1.7c0.9,0.2,1.8-0.1,2.5-0.7c1.2-0.6,2.2-1.7,3.7-1.9c0.8,0.1,1.4-0.2,1.9-0.9c6.5-9.9,11.2-20.4,8.7-32.6
		l-0.1-0.1c-1-0.8-1.5-1.8-1.4-3.1C361,347.1,361.2,346.5,361.5,346z"/>
	<path class="st83" d="M367.7,543.8c-0.1,13.2,0,26.4-0.2,39.6c-0.1,8.7-0.5,17.3,9.8,22.3c-5.3,2-9,1.3-12.7,1
		c0.1-21.1-4.4-42-2.2-63.2C364.2,543.6,365.9,543.7,367.7,543.8z"/>
	<path class="st21" d="M362.3,350.8c4.9,15.9,2.7,24-8.7,32.6c-2.2-4.8-6.8-9.8,2.6-12.6c2.6-0.8,2.6-4.4,3.1-7
		C360,359.4,361.2,355.1,362.3,350.8z"/>
	<path class="st84" d="M562.2,472.5c-10.2-7.3-17.8-17.2-27.9-26.2c9.9,2.6,22.2,14.3,28.2,25.9L562.2,472.5z"/>
	<path class="st77" d="M508.1,419.6c-9.2-5.5-19.9-7.8-25.5-17.2C491.7,407.5,502.1,410.9,508.1,419.6z"/>
	<path class="st85" d="M582.1,445.1c-7.4-1.6-13.5-5.8-21.1-9.6c10.5,0.1,12.4,1,21.4,9.3L582.1,445.1z"/>
	<path class="st82" d="M348.1,336.7c9.6-4.1,14.2-1.2,13.4,9.2c0,0-0.1,0.1-0.1,0.1c-0.8,0.7-1.6,0.6-2.2-0.2l-0.2-0.5
		c-0.9-1.1-2-2.1-2.1-3.6c-1.3-2.3-3.5-2.1-5.7-1.9c-1.2-0.6-2-1.8-3.3-2.1L348.1,336.7z"/>
	<path class="st77" d="M456.9,389.7c5-0.1,9.1,2.1,15.1,6.6C464.1,396.5,460.5,393.3,456.9,389.7z"/>
	<path class="st86" d="M336.9,389.7c1.1,2.4,3.6,2.2,5.6,3c-4.9,3.3-9.7,3.1-15.7-0.3C330.2,388.8,333.6,389.3,336.9,389.7z"/>
	<path class="st87" d="M370,373.1c-3-7.4-4.1-14.8,0.7-22c0.1,2.7,0.2,5.5,0.3,8.2c1.3,2.7,1.3,5.3-0.1,8
		C370.6,369.2,370.3,371.2,370,373.1z"/>
	<path class="st88" d="M322.8,538.1c-7.8,0.4-15.7,2.2-23-2.2c4.8-0.2,9.6-0.3,14.3-0.5C317.1,536.1,320.4,535.8,322.8,538.1z"/>
	<path class="st77" d="M519.9,428.1c7.1,0.8,10.6,5.9,14.1,11l0,0C527,438.3,523.4,433.2,519.9,428.1z"/>
	<path class="st77" d="M519.9,428.1c-5.6-0.4-8.8-3.9-11.3-8.3C514.3,420.2,517.4,423.7,519.9,428.1z"/>
	<path class="st77" d="M370.9,367.3c0-2.7,0-5.3,0.1-8C373.8,362,373.8,364.6,370.9,367.3z"/>
	<path class="st79" d="M584.7,447.5c3.7,0.1,5.6,1.9,5.6,5.6c0,0,0.1-0.1,0.1-0.1C588.6,451.1,586.7,449.2,584.7,447.5L584.7,447.5z
		"/>
	<path class="st21" d="M359.2,345.8c0.7,0.3,1.5,0.3,2.2,0.2c0.3,1.6,0.5,3.1,0.8,4.7C360.1,349.7,359.3,347.9,359.2,345.8z"/>
	<path class="st79" d="M565,475c2.1,1.3,2.6,3.3,2.7,5.5l0.1-0.1c-1.9-1.4-2.7-3.3-2.8-5.5L565,475z"/>
	<path class="st83" d="M362.3,543.5c-2.5,0.6-4.4-0.3-5.9-2.1C358.8,540.8,360.8,541.5,362.3,543.5z"/>
	<path class="st21" d="M351.7,384.3c-0.8,1.5-2,2-3.7,1.9C349.2,385.6,350.5,384.9,351.7,384.3z"/>
	<path class="st21" d="M345.5,386.9c-0.6,1.3-1.6,1.9-3.1,1.7C343.4,388,344.5,387.4,345.5,386.9z"/>
	<path class="st79" d="M567.7,480.6c1,0.8,2.1,1.7,3.1,2.5c0,0-0.3,0.3-0.3,0.3c-0.9-1-1.8-2-2.6-2.9
		C567.9,480.4,567.7,480.6,567.7,480.6z"/>
	<path class="st79" d="M565.1,474.9c-1.6-0.1-2.4-1-2.9-2.4c0,0,0.3-0.3,0.3-0.3c0.8,0.9,1.7,1.9,2.5,2.8
		C565,475,565.1,474.9,565.1,474.9z"/>
	<path class="st21" d="M356.8,341.6c1.5,0.8,2.2,2,2.1,3.6C358.3,344.1,357.6,342.8,356.8,341.6z"/>
	<path class="st21" d="M347.8,337.5c1.1,0.7,2.2,1.4,3.3,2.1C350,339,348.9,338.3,347.8,337.5z"/>
	<path class="st79" d="M582.4,444.8c1.4,0.4,2.2,1.2,2.3,2.7c0,0,0.1-0.1,0.1-0.1c-0.9-0.8-1.8-1.5-2.7-2.3
		C582.1,445.1,582.4,444.8,582.4,444.8z"/>
	<path class="st77" d="M534,439.1c0.3,0.2,0.9,0.4,0.9,0.5C534.8,440.4,534.4,440.2,534,439.1C534,439.1,534,439.1,534,439.1z"/>
	<path class="st89" d="M49.9,384.1c-6.8,4.9-14.8,6.2-22.8,7.4c6.8-5,14.3-7.9,22.9-7.3C50,384.2,49.9,384.1,49.9,384.1z"/>
	<path class="st4" d="M295,360.8c-0.3,0.1-0.7,0.2-1,0.3c-0.1-0.3-0.3-0.8-0.2-0.9C294.7,359.6,295.1,359.8,295,360.8z"/>
	<path class="st20" d="M280.3,530.3c-1.8-0.2-3.7-0.4-5.5-0.6C276.9,527.4,278.7,527.8,280.3,530.3z"/>
	<path class="st20" d="M291.4,533l-1.3,0.2c0,0-1.2-0.5-1.2-0.5c0.7-1.1,1.5-2,3-1.5C291.9,531.1,291.5,532.3,291.4,533z"/>
	<path class="st4" d="M295.3,374.4c-0.3,0.2-0.6,0.5-0.9,0.5c-0.3,0-0.5-0.4-0.8-0.6C294.2,373.5,294.8,373.5,295.3,374.4z"/>
	<path class="st90" d="M468.8,351.6c-2.8-0.8-4.6-2.6-5.4-5.4c-2.7-9-8.8-15.2-16.7-20.2c-2.2-1.5-4.7-2.9-3-6.3
		c2.9-3.1,7.2-3.1,10.7-4.9c11.8-2.4,19.5-9.5,24.7-19.8c0.4-1.2,0.9-2.3,1.5-3.4c1.3-2.2,2.1-4.5,3.2-6.8c1.1-2.5,2.1-5.1,3.3-7.5
		c3.8-7.3,0.3-9.5-6.9-10.3c-17.7-2-33.9,1.6-49.4,10.2c-4.6,2.5-8.8,7.2-15.1,4.5c-1.1-2-5.6-0.1-4.7-5.1
		c1.7-9.5,7.6-16.5,13.4-23.6c3.9-4.8,6.9-8.6,1.3-14.1c-2.4-2.4-2.1-6.2-1.1-9.2c2.9-8.7,5.1-17.7,9.7-25.7
		c3.9-6.8,6.1-7.8,11.8-3.1c6.4,5.4,12.4,9.5,21.4,6.8c2.6-0.8,5.8,0.1,7.8,2.2c4.6,4.6,10,6.1,16.5,6.2c6.1,0,10,3.7,13.2,8.8
		c7.2,11.4,12.2,12.5,25.6,10.5c10.6-1.5,18.2-9.4,28.4-11.3c27,40.4,48,83.2,52,132.2c-0.6,0.6-1.1,1.2-1.7,1.8
		c-17.1,2.8-34.1-0.3-51-1.3c-13.4-0.8-26.8-2.2-40.3-1.8c-15,0.5-29.6-2-44.4-3.9C472,351.2,470.4,351.3,468.8,351.6z"/>
	<path class="st91" d="M511.5,91.6c6.7-3.2,13.3-6.3,20-9.5c5.3-2.5,9-0.8,11.2,4.3c1.6,3.8,3.4,7.5,4.4,11.5
		c6.8,27.2,7.3,54.9,6.6,82.8c-0.1,2.9-1.5,5.2-2.8,7.6c-0.3,0.6-0.6,1.2-0.8,1.8c-5.6,4.7-11.2,9.3-18.9,10.3
		c-1.3,0.1-2.6-0.2-3.7-0.9c-3.9-4.9-4.6-10-0.7-14.9c-5.6,2.5-10.8,8.4-18.4,4c-1.4-3.8,0.9-6.2,3.4-8.6c1.1-0.8,2.9-1.3,3.2-2.3
		c0.7-2-1-0.3-1.2-0.3c-5.3,1-9.7,4.9-15.5,4.5c-2.8-2.2-9.3,2.5-9.4-4.7l0.1-0.1c1.8-1.7,1.8-4.5,3.6-6.2c0.9-0.9,1.8-1.7,2.9-2.3
		c5.7-3.3,12.4-5.1,16.5-10.9c3.2-3.9,7.9-6.5,10.5-12.6c-7.8-2.5-15.5-5.1-23.1-8.1c-1.2-0.3-2.4-0.6-3.6-0.9
		c-11.2,0-13.7,11.1-21.1,15.9c-8,4.1-16.5,6.4-25.6,5.6l-1.1-0.2l-1.1,0.2c-2.8-2.5-2-5.2-0.5-7.9l0.2-0.3c1.1-0.6,1.8-1.4,2.3-2.5
		l0.4-0.4c1.1-0.5,1.9-1.2,2.4-2.3l0.4-0.4c1.1-0.5,1.9-1.3,2.4-2.4l0.3-0.4c2.2-0.8,1.3-4,3.7-4.6l-0.2,0.1c0.4-1.5,1.4-2.4,2.8-3
		l-0.1,0.1c0.5-1.4,1.5-2.3,2.9-3l-0.1,0.1c0.7-1.3,1.6-2.2,3-2.9l-0.1,0.1c0.7-1.3,1.6-2.3,3-2.9l-0.2,0.1c0.6-1.3,1.6-2.3,3.1-2.8
		l-0.2,0.2c0.5-1.5,1.7-2.4,3.2-2.9c1.6-1.3,3.3-2.5,4.9-3.8c1.1-0.4,1.9-1.1,2.5-2.2l0.2-0.2c1.1-0.7,2.1-1.5,3-2.4l0,0
		c1-0.9,1.8-2,3.1-2.6l-0.1,0.1c0.8-1.3,1.9-2.3,3.4-2.7c1.6-1.2,3.3-2.4,4.9-3.7c1.1-0.5,2-1.3,2.7-2.2l0.1-0.1
		c1-0.9,2-1.9,3.3-2.4c1.7-1.2,3.4-2.5,5.2-3.7c1.1-0.5,1.9-1.1,2.6-2C511.3,91.7,511.5,91.6,511.5,91.6z"/>
	<path class="st92" d="M415.8,281.7c19.8-14.1,41.4-22.3,66.4-19.2c1.8,0.2,3.7,0.2,5.6,0.5c10.5,1.9,11.2,3.6,5.4,12.8
		c-2.4,3.8-4.6,7.9-6.9,11.8c-1.9,1.5-1.4,4-2.6,5.8c0.1,0.8-0.2,1.5-0.7,2.2c-7.7-0.7-5.4-8.3-8.8-12c-2.1-3.5-3.6-7.5-10.4-8.9
		c4,9.9,5,19.2-1.1,27.7c-3,4.2-6.4,8-11.6,9.5c-15.8,4.6-20.9-7.7-28.4-19.1c-1.7,5.8,1.3,10.4-0.9,14.3c-1.1,0.9-2.4,1-3.6,0.3
		c-3.6-1.8-7.1-3.6-11.5-3c-3.6,0.5-4.4-2.2-4.4-5.2C405.9,292.7,410.8,287.2,415.8,281.7z"/>
	<path class="st93" d="M497.4,133c10.1-0.3,17.9,8.2,28.9,6.8c4.7-0.6,3.4,5.7,1,8.4c-3.9,4.4-8.5,8.2-12.9,12.2
		c-6,4.8-13.8,6.6-20,11.3l0.2-0.2c-1.7,1.4-3.5,2.3-5.8,2.4c-1.9,0.4-3.8,0.7-5.7,1.1c-2.5,0.3-3.5-1.1-3.6-3.3
		c3.6-7.2,10.1-10.5,17.5-12.4c-0.1,0,1.2,0,1.2,0s-1.1-0.7-1.2-0.7c-6.7-1.1-11.5,3.2-17,5.4c-1.3,0.5-2.5,1.2-3.8,1.6
		c-7.9,2.4-17.8,4.1-20.4-4.7c-2.4-8.1,9.1-6,13.9-9.4c1.1-0.8,2.7-0.6,3.9-0.8c-0.1,0,1,0.3,1,0.3s0.4-1.1,0.4-1
		c-0.7-0.6-0.7-1.2,0-1.8c1.7-7.2,8.4-10.8,12.7-16.2C490.1,129,494.3,129.9,497.4,133L497.4,133z"/>
	<path class="st61" d="M514,182.4c-2.2,1.6-4.8,2.9-5.6,5.8c13.6,2.8,15.1,4.4,14.5,16c-2.6,4.3-5.7,1.6-8.6,0.5
		c-4.6-3.8-10.5-5.9-14.1-11c-0.2-4.3-4.4-6.4-5.8-10.1c-4,1.3-7.8,2.6-11.7,3.6c-0.6,0.2-1.6-0.7-3.2-1.5c1.6-4.4,5.6-6.3,9.2-8.5
		c3,4.2,7.2,2.6,11.1,2.3C504.3,181.6,511,173.4,514,182.4z"/>
	<path class="st61" d="M474.9,148.4c0.9,0.4,1.8,0.8,2.7,1.2c0,0-0.2-0.2-0.2-0.2c-5.7,5-14,4.9-20.4,10c7.6,9.5,15.6,3.2,23.3,0.7
		c3.6-0.3,3.8,1.5,2.3,3.9c-0.9,1.4-2.6,6.9-1.9,7.8c-0.3,1.9,1.1,2.5,2.4,3.2c-2.3,2.6-6,2.2-8.8,3.6c-1.2,0.6-3.1,0.4-2.8-1.3
		c2-10.1-6-7.5-11.1-8.3c-3.2-0.5-6.5-0.4-9.6-1.1c-5.9-1.3-4.8-3.9-1.1-6.9c1.3-1.1,0.2-2.5-0.8-3.5
		C457.6,154.5,466.2,151.4,474.9,148.4z"/>
	<path class="st94" d="M550.9,188.2c5.8,5.7,1.1,13,2.9,19.3c-0.3,0.7-0.5,1.5-0.5,2.3c-10.4,7.3-14.8,6.2-21.5-5.2
		c-0.2-0.8-0.4-1.7-0.4-2.6c0.8-1,1.7-1.8,2.7-2.6c5.2-4.4,11.2-7.8,17-11.4L550.9,188.2z"/>
	<path class="st95" d="M522.9,204.2c-2.3-7.2-6-13.1-14.7-13.8c-0.2,0-0.6-0.7-0.6-1.1c0-0.4,0.5-0.7,0.8-1.1
		c9.9-1.5,17.4-8,26.8-11.8c-4.1,7.7-10.8,14.4-6.6,23.9c0,0.6,0.1,1.2,0.1,1.8C526.8,202.8,524.9,203.5,522.9,204.2z"/>
	<path class="st96" d="M531.8,204.7c6.4,4.8,12.9,9.2,21.5,5.2c0.8,3.5,0.4,6.7-2.6,9.2c-6.6,1.7-13-3.8-19.6-0.6l-1.3,0l-1.3,0
		c-1-0.9-2.1-1.7-3-2.7l0,0c-1.1-0.9-1.9-1.9-2.8-3C524.9,209.1,527.8,206.3,531.8,204.7z"/>
	<path class="st90" d="M531.1,218.5c6.8-8.9,13.1-1.1,19.6,0.6C544.1,223.2,537.6,221.4,531.1,218.5z"/>
	<path class="st90" d="M500.2,193.7c7,0.8,10.5,5.9,14.1,11c-5.2-0.4-9.5-3.2-13.8-5.6C498,197.7,498,195.6,500.2,193.7z"/>
	<path class="st61" d="M446.3,149.5c0.2,2.6,0.4,5.3,0.5,7.9c-1.8,2.2-4.8,4.4-6.4,1.7C437.4,153.8,443,152,446.3,149.5z"/>
	<path class="st61" d="M488.8,173.9c1.2-2.4,3.3-2.8,5.8-2.4c-0.5,3.3-3.3,4.3-5.8,5.5C488.9,176,488.8,175,488.8,173.9z"/>
	<path class="st90" d="M528.8,202.1c0-0.6,0-1.2-0.1-1.8c0.8-0.5,1.7-0.8,2.6-0.9c0.7-0.5,1.5-0.8,2-0.5c1.3,0.8,0.8,1.8,0.3,2.9
		c-0.7,0.4-1.4,0.6-2.2,0.5C530.5,202.1,529.6,202.1,528.8,202.1z"/>
	<path class="st61" d="M458.5,136.2c-0.3,2.2-1.5,3.8-3.7,4.6C455.1,138.5,456,136.8,458.5,136.2z"/>
	<path class="st61" d="M448.9,146.7c-0.2,1.3-1,2.2-2.3,2.5C447.3,148.4,448.1,147.6,448.9,146.7z"/>
	<path class="st61" d="M451.7,144c-0.2,1.4-1,2.1-2.4,2.3C450.1,145.5,450.9,144.7,451.7,144z"/>
	<path class="st61" d="M454.5,141.2c-0.2,1.4-1,2.2-2.4,2.4C452.9,142.8,453.7,142,454.5,141.2z"/>
	<path class="st61" d="M461.2,133.3c-0.3,1.6-1.2,2.6-2.8,3C458.6,134.8,459.6,133.8,461.2,133.3z"/>
	<path class="st61" d="M463.9,130.5c-0.3,1.6-1.2,2.6-2.9,3C461.4,132,462.4,131,463.9,130.5z"/>
	<path class="st61" d="M466.7,127.7c-0.4,1.6-1.4,2.5-3,2.9C464.7,129.7,465.7,128.7,466.7,127.7z"/>
	<path class="st61" d="M469.6,125c-0.4,1.5-1.4,2.5-3,2.9C467,126.4,468,125.4,469.6,125z"/>
	<path class="st61" d="M472.5,122.3c-0.4,1.6-1.5,2.5-3.1,2.8C469.9,123.7,470.9,122.7,472.5,122.3z"/>
	<path class="st61" d="M475.5,119.6c-0.6,1.5-1.6,2.5-3.2,2.9C472.8,120.9,473.9,119.9,475.5,119.6z"/>
	<path class="st61" d="M482.9,113.6c-0.3,1.3-1.1,2.1-2.5,2.2C481.3,115.1,482.1,114.3,482.9,113.6z"/>
	<path class="st61" d="M486.1,111c-0.4,1.5-1.4,2.3-3,2.4C484.1,112.6,485.1,111.8,486.1,111z"/>
	<path class="st61" d="M489.2,108.4c-0.5,1.5-1.5,2.4-3.1,2.6C487.1,110.2,488.2,109.3,489.2,108.4z"/>
	<path class="st61" d="M492.5,105.8c-0.6,1.5-1.7,2.4-3.4,2.7C489.7,107,490.8,106.1,492.5,105.8z"/>
	<path class="st61" d="M500.1,99.9c-0.4,1.3-1.2,2.2-2.7,2.2C498.3,101.4,499.2,100.7,500.1,99.9z"/>
	<path class="st61" d="M503.5,97.5c-0.6,1.4-1.8,2.2-3.3,2.4C501.3,99.1,502.4,98.3,503.5,97.5z"/>
	<path class="st61" d="M511.3,91.7c-0.4,1.3-1.2,2.1-2.6,2C509.6,93.1,510.4,92.4,511.3,91.7z"/>
	<path class="st90" d="M522.9,212.8c0.9,1,1.9,2,2.8,3C524.7,214.8,523.8,213.8,522.9,212.8z"/>
	<path class="st90" d="M525.6,215.7c1,0.9,2,1.8,3,2.7C527.6,217.5,526.6,216.6,525.6,215.7z"/>
	<path class="st31" d="M201.4,166c-0.9,0-1.8,0-2.7-0.1c-1.1-0.2-3.1,0.3-2.8-1.2c0.3-1.3,2.2-0.9,3.4-0.3c0.8,0.4,1.3,1.1,2,1.7
		C201.3,166.2,201.4,166,201.4,166z"/>
	<path class="st97" d="M418.2,307.3c1.1-0.1,2.2-0.3,3.3-0.4c11.1-1.4,19.3,9.4,30.6,6.9c1.9,1,3.1,2.4,3.3,4.5
		c-3.5,3.2-8,1.7-12,2.8c-4.5,2.5-7.2-1.7-10.8-2.7c-0.6-0.6-1.3-0.9-2.1-0.8c-1.4-0.3-2.3-1.3-3.5-1.9c-1.8-1.1-3.6-2.3-5.4-3.4
		C420.4,310.5,419.3,308.9,418.2,307.3z"/>
	<path class="st98" d="M308.4,301.1c-0.8,0.5-1.6,0.9-2.3,1.5c-19.9,18.7-35.4,18.1-53.4-2.1c-0.3-1.5-0.6-3-0.9-4.5
		c-1.8-7.5-1.9-14.9,0.1-22.4c3-6,7.9-7,15-4.6c-2.2,13.4-10,28.4,7.5,38.1c4,1.8,8,1.5,12,0.1c10.5-4.1,13.1-14.4,17.1-23.2
		C314.4,288,310.7,294.7,308.4,301.1z"/>
	<path class="st99" d="M251.9,273.6c0,7.5-0.1,14.9-0.1,22.4C248.1,288.5,247.4,281,251.9,273.6z"/>
	<path class="st100" d="M286.3,307.2c-4,3.5-8,3.5-12-0.1C278.3,307.1,282.3,307.1,286.3,307.2z"/>
	<path class="st6" d="M174.6,523.3c0-9.8,5.6-13.3,15.7-10c3.8,1.2,9.5,1.6,9.2,6.4c-0.4,5.7-5.7,7.6-11.2,7.6
		c-3.2,0-6.5,0.1-9.7-0.2C176.3,526.9,174.3,525.9,174.6,523.3z"/>
	<path class="st101" d="M294.5,601.5c-17.1-0.1-34.3,2.5-51.3-2c14-0.1,28-0.2,42-0.3C288.6,599.1,291.9,599.2,294.5,601.5z"/>
	<path class="st102" d="M339.6,607c-8.7,0-17.5,1.9-25.9-1.9C322.4,604.7,331.2,602.7,339.6,607z"/>
	<path class="st103" d="M379,897.2c-29.2-1.3-58.4-0.5-87.6-0.3c-0.1-0.7-0.2-1.4-0.3-2c3.2-5.1,8.6-4.8,13.7-5.2
		c6.5-0.6,13.1,0.5,20.6-0.9c-0.8-4.6-5.1-6.2-7.6-8.9c-8.3-9.2-7.1-15.8,4.1-21.8c7.7-4.1,16.1-4.6,24.6-3.9
		c11.4,1,18.4-1.9,20.1-14.8c2.1-15.9,4.7-16.3,20.8-13.5c10.1,1.8,20.4,0.1,28.9-6.9c1.2-1,2.5-1.8,3.9-2.4c11.9-3.1,24-2.3,36-1.2
		c3.1,0.2,6.3,0,9.3,1.2c5.8,2.7,10.2,7,4.6,12.6c-11.8,11.7-14.9,27.1-20.5,41.5c-5.8,14.7-15.7,24.5-31.2,28.8
		c-10.9,2.8-22,3-33.1,1.4C382.9,900.2,380.9,898.7,379,897.2z"/>
	<path class="st104" d="M384.5,897.3c10.9-1.9,22.3,1.4,33-2.8c9.1,3.6,18-5.6,27.2-0.6c6.4,3.2,7.5,8.5,3.1,13.3
		c-7.1,7.8-8.7,15.7-6.7,26c1.6,7.9-3.2,14.8-11.5,18.2c-1.8,0.3-3.5,0.5-5.3,0.8c-10.3,5.6-20.6,5.7-31,0.3
		c-6.6-0.3-13.2-0.5-19.8-0.8c-1.1-0.9-2.8-2.2-2.4-3.1C377.4,931.9,375.6,913.3,384.5,897.3z"/>
	<path class="st105" d="M403.8,1007.7c-14.8-0.4-29.6-0.7-44.3-1.1c-3.5-5.6-1.9-11.6-0.8-17.4c0.9-5,3.1-9.7,3.6-14.7
		c1.1-10.3,6-17.1,16.7-19.3c4.7-0.3,9.3-0.5,14-0.8c10.3-1.7,20.7-1.4,31-0.2c2.5,1,8.4-0.6,6.2,4.6c-6.7,15.9-13.2,32-22.9,46.5
		C406.5,1006.3,404.9,1006.9,403.8,1007.7z"/>
	<path class="st106" d="M378.9,955.1c-14.9,9.4-11.9,26.2-16.7,39.7c-1.3,3.6-0.2,8.1-2.7,11.7c-7.5,0.5-15,1-22.4,1.4
		c-0.7-0.5-1.8-0.9-2.2-1.7c-8.8-16.8-18.7-33.1-23.7-51.6C333.7,954.8,356.3,955,378.9,955.1z"/>
	<path class="st107" d="M384.5,897.3c-2.2,8.1-1.3,16.7-4.7,24.6c-2.2,5.2,5.4,6.7,6.3,12c-8.7,2.7-14.2,7.9-12.4,17.8
		c-6.9,0.3-13.7,0.7-21.7-0.6c3.5-7,6.8-12.9,7.7-19.6c0.7-5.4,5.5-8.2,8.9-11.8c5.8-6.4,12.3-12.5,10.7-22.4
		C380.8,897.2,382.7,897.3,384.5,897.3z"/>
	<path class="st108" d="M300.7,943.5c-1.1-1-2.2-2-3.3-3c-2.9-10.5-5.6-21.1-8.9-31.5c-1.8-5.8-3.1-11.4-2.7-17.4
		c0.5-0.3,1.1-0.5,1.6-0.8c2.9,0.5,3.5,3,4.6,5c0,0-0.5,1.2-0.5,1.2c-0.2,11.9,4.1,22.9,7.3,34.1
		C299.9,934.9,304.2,938.8,300.7,943.5z"/>
	<path class="st109" d="M423.9,954.2c-10.3,1.3-20.7,0.5-31,0.2c0.1-0.6,0.3-1.3,0.5-1.9c10.3-0.1,20.6-0.2,31-0.3
		C424.1,952.9,424,953.5,423.9,954.2z"/>
	<path class="st110" d="M238,896.5c-0.9-0.9-1.7-1.8-2.6-2.7c-0.9-0.9-1.9-1.8-2.8-2.8c-8.3-12.3-12.9-25.9-14.6-40.5
		c-0.2-2.2-1.2-4.3-2.1-6.4c-2.3-5.4-10.6-3.3-12-7.7c-1.4-4.6-0.1-10.6-5-13.3c-7.1-4-1.6-7.2-0.1-10.7c9.2-0.5,18.4-1.1,27.6-1.6
		c2-1,4-1.1,5.9,0.1c2.8,0,5.5,0,8.3-0.1c11.3-1.6,23.3-4.6,26.7,11.6c5,15.2,7.2,31.1,12.8,46.3c6.9,18.6,4.9,21.7-14.1,27.6
		c-1.7,0.2-3.5,0.4-5.2,0.7C253.3,896.8,245.6,896.7,238,896.5z"/>
	<path class="st111" d="M266.1,896.4c15-10.6,15.1-10.7,8.7-29.1c-4.8-13.8-7.5-28.2-11-42.3c0.8-2,1.9-3.7,4.5-3.5
		c1.4,0.5,2.4,1.4,3.2,2.6c6.2,19.1,12.8,38.1,16.5,57.9c-0.2,3.8-2.4,6.6-5,9.2C279.2,898.3,272.6,897.2,266.1,896.4z"/>
	<path class="st108" d="M283.1,891.2c-0.2-2.8-0.3-5.5,1.8-7.8c3.6,1.8,3.2,4.5,1.7,7.4c0,0-0.9,0.7-0.9,0.7
		C284.9,891.5,284,891.4,283.1,891.2z"/>
	<path class="st112" d="M328.4,711.8c9.4,0.3,18.8,0.6,28.1,0.9c21.7,1.1,43.3-3.8,65-1.8c1.6-0.1,3.3,0,4.9,0.3
		c7,4,15.8,0.5,22.6,5.2c1,1.1,1.4,2.4,1.1,3.9c-1.4,2-3.5,3.6-5.8,3.5c-25-0.9-47.7,14.5-74.1,8.5c3.4,9.1,9.8,10.5,16.7,11
		c5.6,0.4,11.3,0.4,16.2,3.7c2.8,1.9,6.4,6.5,5.2,7.4c-10.1,7.5,1.2,16.5-2.4,24.1c-1.9,3.9-1.5,7.9-0.8,12.1
		c2.1,14.4-1.3,19-15.7,21.6c-6,1.1-12.2,0.1-18.2,1.6c12.9,4.6,28.2-4.7,39.6,7c-0.3,1.7-1.2,2.8-2.8,3.5
		c-9.1,1.8-18.1,3.7-27.3-0.1c-5.7-2.4-10.5,2.5-16,3c-14,1.3-27.7-0.4-41.4-3.3c-13.7-4.7-27.9-2.8-41.9-2.7
		c-5.1,1.1-9.7-0.8-14.3-2.2c-7.3-3.5-4.1-10.9-6.3-16.3c-4-27.5-8-55-12-82.5c-0.9-3.4-2.3-6.8,1.6-9.4
		C276.4,711.1,302.4,709.6,328.4,711.8z"/>
	<path class="st113" d="M240.9,709.2c1.4-21.8-4.9-43.4-1.1-65.3c2.1,17.3,4.3,34.5,6.4,51.8c-2.6,3.3,0.1,7.6-2.1,11
		c-0.2,0.9-0.3,1.8-0.5,2.7C242.7,710.5,241.8,710.3,240.9,709.2z"/>
	<path class="st114" d="M260.8,802.8c3.8,4,2.2,10.1,5.7,14.2c0.7,0.7,1.2,1.6,1.3,2.6c-0.2,1-0.7,1.9-1.5,2.5
		c-0.9,0.9-1.7,1.8-2.6,2.8c-4.9-13.5-4.9-13.5-23.1-14c3.5-2.9,7.8-2.6,12-2.5C257,808.5,260.1,807.4,260.8,802.8z"/>
	<path class="st115" d="M249.5,712c-0.2,2.8-0.4,5.6-0.7,8.4c-3.5-4.3-2.7-9.1-2.1-14c0.9,1,1.7,1.9,2.6,2.9
		C251,710.1,251.1,711,249.5,712z"/>
	<path class="st115" d="M244.1,706.7c-0.4-3.9-2.3-8,2.1-11c0.2,3.6,0.3,7.1,0.5,10.7C245.8,706.6,245,706.7,244.1,706.7z"/>
	<path class="st115" d="M240.9,709.2c0.9,0.3,1.8,0.4,2.7,0.2c-2.5,3.8-5.4,3.3-8.4,0.6C237.1,709.8,239,709.5,240.9,709.2z"/>
	<path class="st114" d="M232.5,811c-2,0-3.9-0.1-5.9-0.1C228.6,808.6,230.5,808.8,232.5,811z"/>
	<path class="st116" d="M450.2,719.9c-0.2-0.7-0.4-1.3-0.8-1.9c-7.2-3.6-15.3-1.2-22.8-3l-1.2,0l-1.2-0.2
		c-10.8-3.2-21.8-0.5-32.7-1.5c-4.9-0.4-10.1,1.5-14.7-1.5c-4.3-12.7-5.8-25.9-5.8-39.1c0-21-1.3-41.9-3.6-62.8
		c28.7-2.6,57.4-5.4,86.1-7.6c12.1-0.9,24.1-1.4,36.1-3.2c5.6-0.8,11-1.7,16.4-3.3c1.8-0.1,3.6-0.2,5.4-0.3c1.8-1,4.1-0.6,5.9-1.8
		c11.6-1.6,22.4-5.8,33.3-9.5c14.4-4.9,28.8-10.1,43.6-13.9c4.8-1.2,10.2-1.9,13.5-6.4c0.9-0.2,1.8-0.5,2.6-1c1-1.1,2.2-2,3.7-2.5
		c0.7,0.2,1.4,0,2-0.4c1.5-1.6,4.1-0.9,5.6-2.6c1.9-1,3.8-2.1,5.8-3.1c1-0.8,2.1-1.7,3.3-2.3c0.9,0,1.7-0.4,2.5-0.9
		c1-0.5,1.8-1.2,2.5-2l0.1-0.1c1.1-1,2.2-1.9,3.6-2.5c0.8-0.6,1.6-1.2,2.5-1.9c1.9-3.8,4.9-5.5,9.2-4.5
		c11.2,10.5,12.6,25.2,16.4,38.7c2.2,7.9,3.8,16,6.1,23.9c4.1,20.1,6.5,40.4,8.9,60.7c0.6,5.5,0.8,10.9-1.5,16.1
		c-4.3,7.1-12.3,7.7-19.2,10.3c-2.7,0.8-5.4,1.5-8.1,2.6c-1.3,0.6-2.7,0.9-4.1,1.2c-8.6,2.3-17.2,5.1-24.7,9.2
		c-21.1,11.5-43.8,17.6-67.4,21c-20.5,2.2-41,1.5-61.3-2c-1.4-0.3-2.8-0.6-4.2-0.7c-9.8,1.9-20.1-1.1-29.8,2
		C457.4,724,453,724.2,450.2,719.9z"/>
	<path class="st117" d="M249.5,712c-0.1-0.9-0.1-1.8-0.2-2.8c21.4,0,42.9,0,64.3,0.1c5,0,10.3-1,14.8,2.4
		C302.1,711.9,275.8,711.9,249.5,712z"/>
	<path class="st118" d="M376.8,711.9c11.5,0.1,23,0.2,34.4,0.3c4.5,0.1,9.3-1,13,2.7c-20.4-0.1-40.8-0.2-61.1-0.5
		c-2.2,0-4.4-1.2-6.5-1.8C363.3,712.4,370,712.1,376.8,711.9z"/>
	<path class="st119" d="M491.8,718.1c22.4,1.2,44.8,4.1,67.3,2c9.1-3.6,12.2,1.6,12.8,9c1,12.3,0.8,24.6,0,36.7
		c4.4-10.4,8.9-20.9,18.9-28.1c3.7-2.7,7.6-6.6,8.4-10.8c3.5-18,18.2-22.9,32.7-28.4c6.9-2.6,13.9-5.3,20.5-8.6l0,0
		c1.6-1.6,4-1.1,5.7-2.4c6.5-2.3,13-4.6,19.5-6.9c8.9,5.7,6.6,15.1,7.4,23.1c0.6,6.6,0.1,13.5-0.2,20.3c-0.6,20.8,1.3,41.7-1,62.6
		c-0.4,2.7-0.8,5.4-1.3,8.1c-8.5-0.4-16.4,0.9-24.6,3.9c-16.8,6-34.7,7-52.2,9.9c-31.3,5.2-63,7.5-94.5,10.8
		c-10.3,1.1-20.6-1.3-30.8,0.7c-1.6,0.7-2.9,0.4-4.1-0.9c-2.4-3.3-2.4-6.9-1.8-10.7c2.7-5.5,0.9-11.5,1.9-17.2
		c4.5-13.2,8.3-26.6,9.1-40.6c3.1-7.1,1.8-14.7,2.2-22.1C487.7,724.5,488.5,720.8,491.8,718.1z"/>
	<path class="st120" d="M446.6,952.2c-0.9-0.1-1.9-0.2-2.8-0.3c-6.9-10.7-3.2-21.6-0.1-32.3c2.1-7.3,7.8-13.3,8-21.3
		c-0.1-2.9,0.9-5.3,3.3-7.1c4.6-2,3.9,3.4,6.4,4.3c0.9-0.1,1.6,0.2,2.1,1c28.3,0.3,56.6,0.6,84.8,1c1.4,1.2,4,2.9,3.5,4
		c-4.3,8.9,1.1,21.6-12.2,26.9c-12.3,5-18.2,18.4-30.7,23.5c-6.5,3.5-13.8,3.2-20.5,2.1C474.5,951.7,460.5,952.3,446.6,952.2z"/>
	<path class="st121" d="M508.9,951.9c9.3-12.4,19.2-24.2,34.4-30.1c3-1.2,5.3-3.1,2.4-5.9c-3.8-3.6-5.5-5.8,1.1-8.1
		c6.5-2.2,1.2-6.9,1.7-10.4c6.5-0.1,13-0.3,19.5-0.4c2.2,9.3-3.4,17.4-4.8,26.1c-1.5,9,0.2,17.9,5.4,23.6
		C549,952.6,529,952.8,508.9,951.9z"/>
	<path class="st122" d="M463.5,896.5c-0.9,0.2-1.8,0.3-2.8,0.2c-2.7-0.7,0.7-5.5-3.6-5.2c-1.8,1.3-2.2,3.1-2,5.1
		c-2.6,2.7-5.4,2.1-8.3,0.7c-9.6-2.5-19.9,2.1-29.3-2.9c13.5-1.7,21.8-10.1,26.3-21.8c3.2-8.5,7-16.9,9.4-25.8
		c2-7.8,5.8-15.5,14.2-19.6c5.4-2.6,1.4-4.8-0.9-6.9c1-2.2,2.9-2.8,5.1-2.8c5.8,0.9,4.7,5.9,5.9,9.5c-4.7,15.7-5.4,32.3-11.9,47.5
		C462.5,881.8,464.1,889.2,463.5,896.5z"/>
	<path class="st123" d="M477.4,827.2c-3.3-1.7-2.6-5.9-5.4-7.9c-3.7-4.4-2.7-9.2-0.9-13.9c0.9-2.4,2.6-5.8,5.4-4.8
		c3.9,1.4,2.4,5,1.4,8c0.1,3.8,0.2,7.5,0.3,11.3c0.9,1.9,0.8,3.7-0.3,5.4C477.6,825.9,477.4,826.5,477.4,827.2z"/>
	<path class="st124" d="M647.2,886.1c-4.5,3.5-9.7,2.4-14.8,2.3C636.9,884.6,642.1,885.5,647.2,886.1z"/>
	<path class="st125" d="M624.8,888.9c-2.8,2.3-6,2.5-9.3,1.8C618.1,888.1,621.3,887.9,624.8,888.9z"/>
	<path class="st122" d="M478,825.3c0.1-1.8,0.2-3.6,0.3-5.4c0.7-0.1,1.4-0.1,2,0.1C480.3,822,479.8,823.9,478,825.3z"/>
	<path class="st76" d="M489.7,1040.7c-0.2-1.5,0.4-2.7,1.6-3.6C491.5,1038.7,490.9,1039.8,489.7,1040.7z"/>
	<path class="st126" d="M683.8,722.9c0.8,0.1,1.6,0.3,2.4,0.3c0,16.8,0.1,33.6,0.1,50.3c0,4.5,0.9,9.2-2.5,13
		C683.8,765.4,683.8,744.1,683.8,722.9z"/>
	<path class="st127" d="M446.8,897.4c2.8-0.2,5.6-0.5,8.3-0.7c-0.5,9.7-1.1,19.3-8.4,26.9c-2.8,2.9-2.8,6.7-2.8,10.4
		c0,6-0.1,11.9-0.1,17.9c-0.9,2.1-2,1.7-3.2,0.3c-0.8-2.4-2.5-2.3-4.3-1.4c-2.2,1.1-4.4,1.4-6.7,0.8c6.5-8.7,11.8-17.3,4.3-28.4
		c-3.3-4.8,2.2-8,4.8-11.6C441.9,907.1,450,905.3,446.8,897.4z"/>
	<path class="st81" d="M646.8,535.7c1.8,1.2,2.4,3,2.8,5c-2.7,1.4-5.3,2.9-8,4.3C640.6,540.4,644.5,538.5,646.8,535.7z"/>
	<path class="st81" d="M644,527.3c1.8,1.3,2.4,3.2,2.2,5.3C644.5,531.3,644,529.4,644,527.3z"/>
	<path class="st81" d="M621.4,557.7c-1.4,1.7-3.3,2.6-5.6,2.6C617.2,558.4,619.2,557.8,621.4,557.7z"/>
	<path class="st81" d="M613.9,560.7c-1.2,0.8-2.5,1.6-3.7,2.5C611.4,562.3,612.6,561.5,613.9,560.7z"/>
	<path class="st81" d="M630.5,552.3c-1.1,0.8-2.2,1.5-3.3,2.3C628.3,553.8,629.4,553.1,630.5,552.3z"/>
	<path class="st81" d="M635.4,549.4c-0.8,0.7-1.7,1.3-2.5,2C633.8,550.7,634.6,550.1,635.4,549.4z"/>
	<path class="st81" d="M639.1,546.8c-1.2,0.8-2.4,1.7-3.6,2.5C636.7,548.5,637.9,547.7,639.1,546.8z"/>
	<path class="st128" d="M610.2,359.2c-0.1,9.2-0.2,18.3-0.2,27.5c-11.7,5.1-22.5-0.9-33.7-2.5c-10.4-1.5-20.6-3.9-31-5.6
		c-12.3-6-25.7-8.1-39-10c-12-1.7-23.5-3.3-31.6-13.4c-1.4-1.7-3.9-2.4-5.8-3.6c0,0,0.6-0.9,0.6-0.9c22.8-0.2,45.8,0.6,68.4,2.4
		C561.9,355,586.5,352.7,610.2,359.2z"/>
	<path class="st129" d="M545.2,378.6c7.6-3,15.1-2.1,22.9-0.3c13.8,3.2,27.9,5.6,41.8,8.3c-0.2,5.6,1.7,11.5-2.3,16.6
		c-5.7-2.4-11-9.3-17.5-1.1c-0.3,0.4-2.6-0.3-3.8-1C572.6,393.7,558.9,386.2,545.2,378.6z"/>
	<path class="st77" d="M601.9,425.2c3.7,6.4-1.1,11.1-3.4,16.3c-14-13.4-29.9-24.1-47.3-32.8c-2.6-1.3-4.6-3.1-5.6-5.7
		c16.9,0.9,31.1,9.4,46.3,15.4c2.1,0.7,3.1,2.5,4.6,3.9c0.8,0.3,1.6,0.6,2.4,0.8C599.8,423.7,600.9,424.4,601.9,425.2z"/>
	<path class="st130" d="M661,365.2c-16.9-2.1-33.7-4.9-50.8-5.1c0.9-1.7,2.2-3.2,4.2-3.1c16.9,1,34,1,50.3,6.3
		c-0.2,0.5-0.5,1.1-0.7,1.6C663,365,662,365.1,661,365.2z"/>
	<path class="st24" d="M432.6,318.3c3.6,0.9,7.2,1.8,10.8,2.7c1.1,1.7,2.2,3.4,3.3,5C441,325.2,435.9,323.2,432.6,318.3z"/>
	<path class="st24" d="M426.9,315.5c1.5,0,2.8,0.5,3.5,1.9C429.3,316.8,428.1,316.2,426.9,315.5z"/>
	<path class="st78" d="M517.2,593.9c-1.6,1.7-3.6,2.3-5.9,1.8C513,594,515,593.5,517.2,593.9z"/>
	<path class="st89" d="M610.2,359.2c-24.5-3.2-49.3-1.2-73.8-4.8c-5-0.7-10.2-0.4-15.4-0.3c-17.3,0.2-34.5-0.7-51.6-3.4
		c5.9-4.5,12.8-2.8,18.9-1.7c7.9,1.4,15.8,1.9,23.8,1.6c25.4-1.2,50.4,3.6,75.8,3.2c7.4-0.1,14.5,3.7,22.2,2.6
		C610.1,357.3,610.1,358.2,610.2,359.2z"/>
	<path class="st89" d="M188.5,360c-24.5,2.8-48.1,10.9-72.7,13.4c-5.1,0.5-10,2.1-15,3.4c-16.7,4.4-33.6,7.7-50.8,9.3
		c4.5-5.8,11.6-5.9,17.9-6.3c8.1-0.6,15.8-2,23.4-4.3c24.3-7.3,49.8-8.8,74.2-15.4c7.2-1.9,15,0,22.2-2.9
		C187.9,358.2,188.2,359.1,188.5,360z"/>
	<path class="st131" d="M455.4,318.2c-1.1-0.7-2.2-1.5-3.3-2.2c12.3-8.8,20.1-20.8,26-34.2c4.4,3.6,0.5,10,4.7,13.7
		C478.2,308.3,469.3,316.2,455.4,318.2z"/>
	<path class="st131" d="M483.6,293.4c-0.4-2.5,0.4-4.4,2.6-5.8C486.4,290,485.9,292.1,483.6,293.4z"/>
	<path class="st132" d="M514,182.4c-3.9-4.5-10.5,3.1-14.1-3c6.7-5.4,15.4-6.1,23-10.2C526.3,178.8,518.1,179.2,514,182.4z"/>
	<path class="st133" d="M533.5,201.6c-0.8-0.8-1.5-1.5-2.3-2.3c5.9-4.8,11.8-9.8,19.8-11.2C546.9,194.8,539.7,197.6,533.5,201.6z"/>
	<path class="st61" d="M494.4,171.7c4.9-6.6,12.9-8.1,20-11.3C509.1,166.6,502.5,170.4,494.4,171.7z"/>
	<path class="st134" d="M478.1,281.9c-0.7,21.6-5.9,28.4-26,34.2c-11.9,2.4-21.4-3-30.6-9.2c-8.2-14.5-8.2-14.5,2-22.7
		c5,2.4,3.8,7.9,5.7,11.8c5.4,11.1,13,15.7,21.7,12.4c9.4-3.5,15.4-16.9,11.5-26.6c-1.7-4.2-4.6-7.9-6.9-11.8
		C469.4,265.9,470.5,266.5,478.1,281.9z"/>
	<path class="st135" d="M480.7,171.8c-3.1-2.7-10-5.2-0.3-8.5c1.9-0.6,1.1-2.1-0.1-3.2c2-2.8,5.6-3.2,8.3-4.9
		c5.7-3.6,10.1-0.6,14.5,2.7l-0.1-0.1C496,163.1,488.5,167.8,480.7,171.8z"/>
	<path class="st61" d="M477.6,149.6c1.4-3.3,3.6-3,6.8-0.7c-2.8,0.2-4.9,0.3-7,0.5C477.4,149.4,477.6,149.6,477.6,149.6z"/>
	<path class="st135" d="M503.1,157.9c0.2-0.3,0.3-0.7,0.5-1c-0.2,0.3-0.4,0.6-0.6,0.9C502.9,157.8,503.1,157.9,503.1,157.9z"/>
	<path class="st91" d="M497.4,133c-0.2,0.3-0.4,0.6-0.5,0.9C497,133.7,497.2,133.4,497.4,133C497.4,133.1,497.4,133,497.4,133z"/>
	<path class="st136" d="M450.2,719.9c4.4,0.1,8.7,0.2,13.1,0.3c6.7-3.1,11-0.5,12.6,5.9c3.5,14.1,3.9,28.4-5.5,40.5
		c-8.2,10.6-9.6,22.3-8.9,34.7c0.3,6.4,1.8,12.8-3.6,18c-13.2,1.1-26.4-0.6-39.6,1.5c-2.9,1.5-5.5,1.2-8-0.9
		c-13.6-0.1-27.2-0.2-40.8-0.4c-4-0.1-9.4,0.9-9.6-5.2c-0.2-6.1,5-5.4,9.1-5.7c8.8-0.5,17.7,0.9,26.5-2.1c6.7-2.3,9.5-5.1,5.9-12
		c-4.3-8.2-5-16.3,3.8-22.4c-5.9-5.2-13.8,4.6-15.7-2.3c-1.7-6.5,7-8.4,12.4-10.7c5.7-2.3,4.2-5,1-8.1c-2.9-2.9-6.6-3.4-10.4-3.1
		c-10.7,0.8-20.4,0.2-26.4-10.7c-1.3-2.4-5.3-3.4-8.6-5.4c4.4-4.9,9.7-2.9,14.3-3.2c15.2-0.9,30,1.1,45-6.9
		C425.7,717.1,438.9,720.3,450.2,719.9z"/>
	<path class="st137" d="M266.8,819.5c-0.2-0.8-0.3-1.7-0.3-2.5c4.5,0.1,9,0.1,13.6,0.2c14.1,2.9,28.6-0.8,42.7,2
		c28.9,4.3,58,3.3,87.1,2.6c2.9-1.1,5.7-1.4,8.5,0.4c-0.5,1.3-0.9,3.6-1.5,3.7c-11.6,1.4-23.2,8.9-35,1.7c-5.5-3.4-7.3-0.9-9.1,3.7
		c-1.5,4-2.1,7.9-2.3,12.1c-0.6,12.3-7.1,17.7-20,15.9c-9.5-1.4-18.5-2-27.3,2.8c-9.9,5.4-10.4,8.5-1.3,15.7
		c5,3.9,11.8,6.1,12.6,14.9c-13.9,3.9-28.6-1.4-42.4,3.1c-3.4,0.1-3-3.9-5.3-4.9c-0.6-2.5-1.1-4.9-1.7-7.4
		c-5.5-20.3-12.6-40.1-16.5-60.7C267.8,821.6,267.2,820.6,266.8,819.5z"/>
	<path class="st138" d="M457.9,819.4c-0.1-5.9-1.4-11.9-1.4-17.5c0-12.9-3.2-27.1,10.1-37.1c6.9-5.2,5.6-14.2,6.8-21.6
		c0.9-5.6-1-11.7-1.7-17.5c-0.6-4.9-4.8-4.8-8.4-5.3c3-2.6,7-3.5,10.2-2.2c5.5,2.2,10.2-0.7,15.3-0.5c0,23.9-2.1,47.6-9.4,70.6
		c-0.5,1.4,0.3,2.6,1,3.8c-0.4,5.6,1.8,11.6-2.4,16.7c-0.3-1.7-0.6-3.4-1.4-8.1c-2,8.2-3.2,13.5-4.5,18.8c-1.9,0.4-3.8,0.8-5.6,1.2
		C463.6,820.1,460.7,819.7,457.9,819.4z"/>
	<path class="st122" d="M418.3,822.3c-2.8-0.1-5.6-0.3-8.5-0.4c0.1-0.7,0.3-1.3,0.5-1.9c2.7,0.3,5.3,0.6,8,0.9
		C418.4,821.3,418.4,821.8,418.3,822.3z"/>
	<path class="st139" d="M266.8,819.5c0.5,1,1.1,2.1,1.6,3.1c-0.7-0.1-1.3-0.3-2-0.5C266.4,821.3,266.5,820.4,266.8,819.5z"/>
	<path class="st139" d="M322.8,819.3c-14.3,0-28.7,2.7-42.7-2C294.3,817.4,308.7,814.9,322.8,819.3z"/>
	<path class="st118" d="M426.5,715c8.3-4,15.6-0.8,22.8,3C441.8,716.8,433.6,719.8,426.5,715z"/>
	<path class="st140" d="M652.4,690c-9.4,8.8-21.8,11.9-33.3,16.7c-6.2,2.6-10.2,4.7-11.3,13c-1.5,10.8-9.7,19.3-18.9,26
		c-2.6,1.9-6.7,2.8-6.6,6.5c0.3,9.6-7.1,14.2-14.6,22.4c0-16.1-0.2-29.9,0.1-43.7c0.1-6.3-1-11-8.8-10.8c4.7-4.1,10.7-2.7,16.1-3.4
		c20.3-2.8,37.4-13.7,55.9-20.7C638.1,693.5,644.7,689.8,652.4,690z"/>
	<path class="st123" d="M480.4,791.9c-5.2-6.1,0.1-12.2,0.4-18.1c0.9-15.3,3.5-30.5,5.1-45.8c0.4-3.7,1.6-7.1,2.9-10.5
		c1,0.2,2,0.4,3,0.6c-0.1,3.5-0.2,6.9-0.2,10.4c-3.3,7.2,0.4,15-2.2,22.2C488.9,764.9,485.5,778.6,480.4,791.9z"/>
	<path class="st140" d="M658.1,687.6c-1.4,1.9-3.4,2.5-5.7,2.4C653.8,688.1,655.8,687.4,658.1,687.6z"/>
	<path class="st80" d="M593.2,420.7c1,0.1,2,0.3,2.9,0.4c0,0,0.1,1.2,0.1,1.2C595.3,421.8,594.3,421.2,593.2,420.7z"/>
	<path class="st80" d="M601.9,425.2c-1.1-0.7-2.1-1.4-3.2-2.1C600.2,423.1,601.3,423.8,601.9,425.2z"/>
	<path class="st138" d="M489.4,750.6c0.4-7.4-2.2-15.1,2.2-22.2C491.1,735.9,493.8,743.6,489.4,750.6z"/>
	<path class="st127" d="M457.1,891.5c0.7-1.1,1.3-3,2.1-3.1c1.9-0.1,1.1,1.7,1.2,2.8c0.2,1.8,0.2,3.6,0.3,5.5
		c-0.3,0.8-0.3,2-0.9,2.4c-0.9,0.7-1.6,0.1-1.7-1C457.8,895.9,457.5,893.7,457.1,891.5z"/>
</g>
</svg>
