<?xml version="1.0" encoding="utf-8"?>
<!-- Generator: Adobe Illustrator 27.4.0, SVG Export Plug-In . SVG Version: 6.00 Build 0)  -->
<svg version="1.1" id="Layer_1" xmlns="http://www.w3.org/2000/svg" xmlns:xlink="http://www.w3.org/1999/xlink" x="0px" y="0px"
	 viewBox="0 0 720 720" style="enable-background:new 0 0 720 720;" xml:space="preserve">
<style type="text/css">
	.st0{fill:#896B6B;}
	.st1{fill:#EEC44A;}
	.st2{fill:#FBD330;}
	.st3{fill:#F6EFE1;}
	.st4{fill:#F2E8D7;}
	.st5{fill:#F8B79B;}
	.st6{fill:#F6D9B3;}
	.st7{fill:#F58931;}
	.st8{fill:#F2E9D8;}
	.st9{fill:#F5E7D0;}
	.st10{fill:#FCDAC3;}
	.st11{fill:#F8E0CA;}
	.st12{fill:#FBB697;}
	.st13{fill:#FBB496;}
	.st14{fill:#FBB99C;}
	.st15{fill:#171412;}
	.st16{fill:#11100F;}
	.st17{fill:#7F321F;}
	.st18{fill:#EF9886;}
	.st19{fill:#37302C;}
	.st20{fill:#C95F4B;}
	.st21{fill:#B9B1AA;}
	.st22{fill:#B0978A;}
	.st23{fill:#B9A99A;}
	.st24{fill:#A99274;}
	.st25{fill:#BEB6AC;}
	.st26{fill:#CC9D9A;}
	.st27{fill:#BEB4A8;}
	.st28{fill:#D2B5A2;}
	.st29{fill:#659A95;}
	.st30{fill:#C6B7AA;}
	.st31{fill:#D29082;}
	.st32{fill:#7C8073;}
	.st33{fill:#988667;}
	.st34{fill:#AE927C;}
	.st35{fill:#945252;}
	.st36{fill:#9C978D;}
	.st37{fill:#A3968D;}
	.st38{fill:#A39B91;}
	.st39{fill:#A66C69;}
	.st40{fill:#A76C68;}
	.st41{fill:#958266;}
	.st42{fill:#A36A66;}
	.st43{fill:#A96F6D;}
	.st44{fill:#A9756E;}
	.st45{fill:#9E6760;}
	.st46{fill:#837777;}
	.st47{fill:#80766F;}
	.st48{fill:#7A6C6A;}
	.st49{fill:#806A62;}
	.st50{fill:#8B6F6B;}
	.st51{fill:#F75446;}
	.st52{fill:#F6B091;}
	.st53{fill:#F8A070;}
	.st54{fill:#B49F90;}
	.st55{fill:#F4894D;}
	.st56{fill:#F69B76;}
	.st57{fill:#F69D61;}
	.st58{fill:#F3D2AE;}
	.st59{fill:#F6DBBE;}
	.st60{fill:#C0A997;}
	.st61{fill:#F68B54;}
	.st62{fill:#F0C891;}
	.st63{fill:#E6C699;}
	.st64{fill:#7A7057;}
	.st65{fill:#E3C696;}
	.st66{fill:#E2C895;}
	.st67{fill:#F89037;}
	.st68{fill:#F9A168;}
	.st69{fill:#F4D2B1;}
	.st70{fill:#F3DDC1;}
</style>
<rect x="0" y="0.5" class="st0" width="720" height="720"/>
<path class="st1" d="M-1462.8-612.6c-0.9,0.6-1.8,1.2-2.7,1.8C-1464.9-611.8-1464-612.5-1462.8-612.6z"/>
<path class="st1" d="M-1471.4-606.8c-0.7,0.5-1.4,1-2,1.6C-1472.8-605.8-1472.1-606.3-1471.4-606.8z"/>
<path class="st1" d="M-1468.9-608.6c-0.9,0.6-1.7,1.2-2.6,1.9C-1470.9-607.8-1470.1-608.5-1468.9-608.6z"/>
<path class="st1" d="M-1455.1-616.7c-0.8,0.5-1.6,1-2.4,1.5C-1456.7-615.7-1455.9-616.2-1455.1-616.7z"/>
<path class="st1" d="M-1465.4-610.8c-0.7,0.5-1.4,1-2.1,1.6C-1466.8-609.8-1466.1-610.3-1465.4-610.8z"/>
<path class="st1" d="M-1459-614.7c-0.8,0.5-1.7,1.1-2.5,1.6C-1460.7-613.6-1459.8-614.1-1459-614.7z"/>
<path class="st2" d="M-1783.2-609.4c-0.6-0.5-1.3-1-1.9-1.5C-1784.4-610.4-1783.8-609.9-1783.2-609.4z"/>
<path class="st3" d="M555.1,129c-0.2,22.7-0.9,45.5-3.6,68.1c-1,8.4,1.2,15.6,5.7,22.8c16.1,25.5,27.5,52.9,31.5,83
	c-3.3,7.8-10.8,8.7-17.6,9.9c-22.3,3.9-44.6,7.7-66.7,12.1c-5.9,1.1-11.9,1.8-17.6,5.7c4.9,3.2,9.9,1.9,14.2,3.4
	c4.8,2.4,13.1,0.9,13.8,7.8c0.7,7.3-7.2,8.8-12.4,11.9c-8.7,5.2-17.6,9.2-27.4,4.6c-2.3-0.5-0.5,3.2-0.7,1.3
	c10.5,0.1,19,2.1,14.9,15.9c-5.2,4.2-11.3,2.7-17.2,3c-7,0.8-12.8-5.8-21.5-2.7c8.3,8.6,19,12.7,26.6,20.7c3.5,3.7,10,6.5,4.9,13.4
	c-1.2,0.5-2.5,0.7-3.9,0.7c-2-0.2-3.8-0.9-5.6-1.8c-1.2-0.5-2.3-1.2-3.3-1.9c-4.8-3.9-10.7-6.1-16.1-9c-1.1-0.5-2.1-1.1-3.1-1.8
	c-2.7-2.1-5.5-4-8.6-5.4c-1.4-0.7-3-1.1-4.4-1.8c-1-0.3-1.9-0.8-2.8-1.3c-1.3-0.6-2.6-1.3-4-2c-0.9-0.4-1.8-0.8-2.7-1.3
	c-1.4-0.7-2.7-1.4-3.9-2.3c-0.7-0.8-1.4-1.6-2-2.4c-1.3-1-2.9-1.5-4.2-2.6c-1.9-1.6-4.6-0.8-6.4-2.3c-1.9-1.3-4-2-5.9-3.1
	c0.1,0-0.6-0.9-0.6-0.9s0.5,1.1,0.6,1.1c2.6,1.3,5.2,2.6,7.6,4c1.9,0.2,3.8,0.2,5.3,1.7c1.5,1.1,3.3,2,4.1,3.9
	c0.8,6.8,0.3,13.7,5.1,19.7c3,3.8,3.4,8.6,0.4,13.1c-7.6,3.4-11-2.5-14.6-7c-3.2-3.9-5.2-8.8-9.9-10.1c3.2,1.9,8,3.3,6,9.5
	c-4.1,4.2-9.2,5.5-14.9,4.5c-1.3-0.3-2.5-0.8-3.7-1.4c-1.7-1-3.4-2-5.4-2.3c-4.9-0.4-9.8-0.1-14.6-0.5c-28.5-8.1-34-15.3-33.8-44.9
	c0-6.1,0-12.3,0-18.4c0-2.9,1.2-5.6,1.7-8.5c1.3-3.1,3.6-5.4,6.2-7.5c2.4-2.2,6.2-3.1,6.5-7.2c-11.9-6.6-21-5.9-27.9,2
	c2.9,7.3,14.2,8,13.7,17.9c-0.4,5.2-0.2,10.4-0.2,15.6c0,33.3-14.9,49.1-48.2,51.3c0.2,0-1-0.3-0.7-0.3c0.2,0,0.7,0.6,0.8,0.6
	c4,0,7.9,0.2,11.5-1.3c2.2-0.7,4.6-1.1,6.9-1.3c2.1-0.3,4.3-0.3,6.3-1c0.9-0.4,1.9-0.7,2.8-1c1.4-0.6,2.7-1.2,4-1.8
	c0.8-0.5,1.7-1,2.6-1.5c0.8-0.6,1.7-1.1,2.5-1.7c0.4-0.3,0.9-0.6,1.3-0.9c0.9-0.6,1.8-1.1,2.8-1.5c1-0.4,2.1-0.7,3.1-0.8
	c1.1-0.1,2.2,0,3.3,0.1c1.1,0.2,2.1,0.6,3,1.1c0.9,0.5,1.8,1.1,2.6,1.8c0.4,0.3,0.8,0.7,1.2,1c0.8,0.6,1.5,1.3,2.2,1.9
	c0.4,0.3,0.8,0.6,1.1,0.9c0.8,0.5,1.6,1,2.4,1.5c0.9,0.4,1.7,0.8,2.6,1.2c1.4,0.5,2.8,1,4.2,1.4c1.5,0.4,3,0.8,4.6,1.2
	c2.2,0.6,4.4,1,6.8,1c3.9,0.1,7.8-0.1,11.7,0.4c1.4,0.2,2.7,0.7,4,1.3c1.3,0.7,2.3,1.8,3,3.1c3.5,19.6,2.1,22-16.6,24
	c-14.2,1.6-24.4,7.5-31.3,20.9c-15.8,30.6-47.9,41.8-80.9,29.6c-4-1.5-8.3-2.1-12.3-3.5c-11.7-4-15.3-10-11.5-21.6
	c2-6.1,1.3-10.6-1.6-16.1c-6.8-12.8-5.2-15.9,7.4-23.8c8.4-5.3,20.6-6.8,21.6-20.1c0.7-2.9,3-4.4,5.2-6c0.8-0.5,1.6-1,2.4-1.5
	c-0.6,0.1-1,0.5-1.6,0.8c-2.1,1.3-4,2.7-5.6,4.5c-0.6,1-1.3,2-2,2.9c-2.2,1.9-4.6,3.5-7,5.2c-1.9,1.3-3.9,2.4-5.8,3.7
	c-1.9,1.3-3.8,2.7-5.7,4c-2.6,1.6-4.7,3.8-7,5.8c-1,0.9-2,1.6-3.1,2.3c-3.6,1.9-6.7,4.7-10.7,5.8c-17.6,4.4-34.6,5.9-47.1-11.1
	c-1.6-0.5,1.1-6.4-3.7-2.9c-0.9,0.7-1.9,1.2-2.9,1.6c-1.5,0.8-3,1.4-4.6,2.1c-1,0.5-2.1,0.9-3.2,1.3c-2.3,0.8-4.5,1.6-6.8,2.4
	c-1.3,0.4-2.5,0.7-3.9,0.8c-2.1,0.2-4.2,0-6.2-0.7c-8.2-3.9-9.5-10.7-7.9-18.7c3.6-8.9,12.3-9,19.7-11c18.1-5,18.1-4.9,11-22
	c2.1-6.6,8.9-1.4,12.3-4.9c1-0.8,2.1-1.3,3.4-1.4c-2.3,0.2-3.9,1.9-6,2.7c-9.6-0.6-17,6.9-26.6,7c-4.7,0-9.2,1.4-13.4-1.6
	c-5.9-6.5-6.8-15.1-9.7-22.9c-2.4-6.6-0.1-11.8,6.3-15c17.1-4.9,34.7-0.4,52.3-4.4c-14.5-3.9-28.9-8-43.6-11.1
	c-16.5-3.4-33.4-5.5-49.1-12.6c-5.5-7.9-2.9-16.3-1-24.4c2.5-10.5,6.1-20.7,9.6-30.9c3.3-8.8,6-18.3,11.7-25.7
	c14.7-18.8,17.4-40.2,15.6-62.9c-0.4-5.1-0.6-10.4,0.3-15.6c0.7-16.8,0.5-33.5,0-50.3c-1-6.3-0.4-12.6,0.6-18.9
	c0.5-3.6,2.3-6.9,2.8-10.5c0.2-1.4,0.6-2.7,1-4c1-2.6,2-5.1,3.2-7.6c2.3-3.8,5.5-6.2,9.9-7.1c2.1-0.4,4.2-0.4,6.3-0.1
	c1.4,0.2,2.7,0.5,4.1,1c2,0.6,3.8,1.6,5.7,2.5c21.6,12.4,37.7,31.1,55.2,48.2c4.7,4.6,9.7,9,13.9,14.1c9.8,11.7,20.9,18.8,36.9,13.8
	c3.1-1,6.6-0.3,9.8,0.7c6.9,2.7,7.2,9.3,8.9,15.1c9.4,31.8,17.9,63.8,25.9,96c1,4,1.5,8.3,5.8,12.4c0.9-16.5-2-31.7-4-46.8
	c-2.6-19.2-5.8-38.4-9.3-57.5c-1-5.5-2.4-11.2-0.7-16.9c0.6-1.6,1.5-2.8,2.8-3.8c2.1-1.5,4.6-1.9,7.1-2.1
	c12.6-0.7,25.3,0.6,37.9-0.9c6-0.5,11.9-0.2,17.1,3.2c7.3,8.1,4.9,17.8,3.8,27c-3.6,31.4,1.5,63.1-3.1,94.6
	c12.5-37.7,17.4-76.9,25.2-115.5c5.6-7.8,13.6-5.6,20.7-4c16.1,3.6,28.1,0.2,39.4-13.5c11.9-14.4,27.2-25.9,42.3-37.3
	c9.2-6.2,18-12.9,27.9-18.1c1.4-0.6,2.8-1.1,4.3-1.4c1.5-0.5,3-1,4.6-1.4c16.8,0.6,23.8,6.3,25,21.8c0.8,11.2,2.8,22.3,3.1,33.6
	C559.9,119,559.4,124.5,555.1,129z"/>
<path class="st4" d="M489.3,374.3c-2.3-10.2-9.8-14-19.8-15.9c17.5,2.1,28.8-10.3,44.5-15c-4.4-5.2-10.6-1.7-13.4-6
	c3.5-4.8,8.7-5.2,13.9-5.5c8.5-0.6,17-0.2,25.4,1.1c12.6,2,25,4.6,37.9,4.5c5.3,0,10.3,1.4,14.4,4.9c4.3,10.2,1.1,21.1,2.4,31.5
	c0.6,2.4,2.9,3.9,3.7,6.3c3.8,7.3,2.6,15.9,5.7,23.4c7.1,41.5,22.3,80.4,38.6,118.9c-2.1,8.3-8.3,13.6-14.1,19.1
	c-40.8,38.5-88.6,64-143.1,77.2c-27.6,6.6-55,13.8-83.7,13.5c-21.6,0.6-39.2,7.5-50.3,27.9c-4.8,8.8-14.1,11.2-23.3,5.7
	c-5.6-3.4-10.5-1.8-16.2-1c-16.2,2.4-32.2,5-47.2-6.8c-10.9-8.6-22.8-3.7-28.7,9.1c-2.1,4.7-3.7,9.8-9.1,12.1
	c-7.7,2.6-14.9,0.7-22-2.1c-1.4-0.5-2.5-1.3-3.6-2.4c-1.7-15.3,12.8-20.3,20-31.1c-11.3-3.6-19.7-10.7-25.8-20.7
	c-3.3-5.5-9.7-7.4-15.4-9.7c-9.7-3.9-19.5-7.4-28.3-13.1c-7.2-4.7-15.3-8.7-10.2-19.9c1.7-3.8-2-7-3.3-10.5
	c-4.7-12.4,1-20.3,14.3-20.5c15.6-0.2,32.5-0.3,46.4-4.4c15.2-4.4,30.3-5.3,41.5-7.9c-20.8-1-36.1-17-50.4-34.2
	c-3.7-4.5-4-11-0.7-16.2c6-9.4,6.7-18.3,0-27.6c-1.7-2.3-1.7-5.4,0.6-7.9c14.2,2.8,24.3,14.8,24.7,33.1c0.2,10.2,2.1,16.3,13.1,17.5
	c4.4,0.5,8.3,3.1,9.9,7.3c6,15.5,18.8,13.8,30.9,11.9c16-2.5,16.6-2.6,22.3,13.2c7.7,21.6,7.7,21.5-13.8,29.6
	c-10.5,4-19.3,12.3-31.6,11.3c-1.9-0.2-3.5,1.3-4.7,2.9c-5.5,7.1,0.8,31.3,9.2,34.9c6.1,2.6,12.8,5.4,19.3,4.3
	c19.4-3.4,39.9-1.2,57.7-12.2c5.9-3.6,12.6-4.9,19.2-2.8c17.8,5.6,33.5-0.2,48.8-8.5c7.5-4.1,15.7-6.7,23.4-10.3
	c9.3-4.4,17.1-10,21.6-19.6c2.3-4.7,5.3-9.4,10.5-11.1c21.8-7.3,36.4-25.4,55.6-36.7c2.3-1.4,5.9-3.4,2.9-6.5
	c-11-11.5-1.5-21,2.8-30.9c2.3-5.2,6.9-9,10.1-15.3c-6.5-3.9-17.9-2.7-18.1-14.1c-0.1-6.2,3.6-9.3,10.2-9.9
	c-10.6-6-19.5-12.3-28.4-18.6c-4-2.9-9.4-5.4-7.6-12.2c4.7-0.7,4.4-3.5,1.4-5.3c-8.2-4.8-14-12.6-22.6-16.9
	c-5.3-2.7-9.8-7.1-15.8-11.6c7.9-5.2,14.4-8.7,22.4-2.6c1.8,1.3,4.4,1.6,6.6,2.4c6.1,3.1,13-0.6,19.1,2.4c6,3.9,12.9,0.2,19.1,2.3
	c13.5,3.7,27,7.1,40.5,10.8c0.9,0.1,1.7,0.6,2.5,0.8c1,0.2,1.2,2.1,2.6,1.1c-0.5,0.1-1,0.6-1.5-0.2c-0.5-0.7-1.3-1.1-2.1-1.6
	c-13.6-2.7-26.6-8.1-40.4-9.9c-6.1-3.8-13.1-0.2-19.4-2.4C488.6,377,488.2,375.8,489.3,374.3z"/>
<path class="st5" d="M592.3,342.4c-15.2,1.3-30.3,0.8-45.1-2.7c-15.5-3.6-31-2.3-46.6-2.3c-4.7-0.2-9.4-0.2-14.1-0.5
	c-4.1-0.2-9.4,0.5-10-5.2c-0.6-5.1,4.5-5.1,7.8-6.5c15.9-6.6,33.1-7,49.5-10.9c18.2-4.3,37.4-4.1,55-11.6
	C592.8,315.8,591.6,329.2,592.3,342.4z"/>
<path class="st6" d="M401,628c29.6-0.3,58-7.4,86.4-14.5c36.1-9.1,70.1-23.2,100.6-44.9c19.3-13.7,37.6-28.6,52.9-46.8
	c13.2,6.9,14.8,19.5,16.2,32.3c2.7,10.1,7,19.6,11.4,29.1c-0.3,9.6,6.4,17.8,5.9,27.5c-17.5,14.1-39.3,19.5-58.9,29.3
	c-4.2,1.3-8.2,2.8-12.3,4.4c-1.1,0.5-2.2,1-3.3,1.4c-1.6,0.7-3.3,1.3-4.9,2c-1.1,0.5-2.2,0.9-3.3,1.3c-1.8,0.5-3.4,1.4-5.1,2
	c-1.2,0.5-2.5,0.9-3.7,1.2c-13,4.2-26.6,6.3-39.5,10.7c-9,1.9-17.6,5.5-26.8,6.6c-3.6-0.2-7,1-10.4,1.9c-2.1,0.6-4.3,0.7-6.5,1.1
	c-14.6,3.4-29.4,5.7-44.2,8.4c-8.3-1.5-16.4,2.7-24.7,0.6c-13.4-8.6-21.9-21.2-28.7-35.2C399.2,640.1,395.2,634.4,401,628z"/>
<path class="st7" d="M691.6,676.3c-20.4,9.9-41.6,18-63.3,24.8c-5.8,1.8-11.9,2.8-17.2,6.1c-18.3,12.7-38.6,17.3-60.6,14.1
	c-5.2-12.3-3.2-22.7,8.5-28.2c17.8-8.3,30.3-19.6,33-40c0.6-4.5,4.6-6.8,8.5-8.7c3.6-2.9,8.6-3.5,11.6-7.5
	c17.6-8.1,35.2-16.1,52.8-24.3c3.1-1.4,6.1-2.5,9.5-2.3C683.9,631.4,690.9,653.1,691.6,676.3z"/>
<path class="st8" d="M478,408.4c13.4,14.1,32.4,20.7,46.5,34.3c-3.7,3.5-6.5-0.4-9.5,0c-3.9,0.4-7.9,0.3-8.2,5.6
	c-0.2,4.4,2,7.5,6.3,8.1c5.1,0.7,10.3,0.7,15.5,1c2.6,5.4-1.2,8.3-4,11.1c-6.7,6.9-11.2,15.1-14.8,23.9c-2.9,7.1-5.5,12.9,5.9,13.2
	c2.1,0.1,3.8,1.5,3.6,3.5c-0.3,3.5-2.1,6.5-5.4,7.9c-13.8,5.9-23.7,17.1-35.8,25.3c-8.2,5.5-15.2,12.8-26,13.5c-3.7,0.2-5,3.7-6.2,7
	c-5.2,15.3-17.9,23.1-31.8,27.5c-14.7,4.7-26.7,15.1-42.7,17.5c-7.7,1.2-14.5,2.8-21.8-0.3c-7.5-3.2-15.3-3.8-21.5,1.7
	c-9.8,8.6-21.2,9-33,8.6c-3.6-0.1-6.4,1-9.5,2.2c-16,6-30.7,0.4-45.3-5.6c-3.4-1.4-4.6-4.4-4.7-8.1c-0.2-8-0.5-15.9-1.9-24
	c-1.3-7.9,3.7-14.4,12.6-12.6c8.6,1.8,14.8-0.3,20.2-6.5c5.3-6,13.4-3.4,19.7-6.7c9-4.6,9.9-8,1.6-14.2c-3.4-2.6-3.1-4.9-2.7-8.4
	c1.2-10.6-3.5-14.4-12.9-9.1c-11.1,6.3-21.1-1.3-31.6-0.7c-3.4,0.2-5-4.1-5-7.6c0-8.8-5-10.7-12.8-11.4
	c-13.5-1.2-13.2-3.6-12.3-16.5c1.1-15.9-6.8-28.8-20.6-37.4c-0.6,0-1.2-0.1-1.7-0.1c-1.1-0.4-2.2-0.9-3.2-1.5c-0.5-0.3-1-0.7-1.5-1
	c-1-0.7-1.9-1.4-2.9-2.2c-0.5-0.4-0.9-0.8-1.4-1.2c-4.4-4.5-9.1-2.8-14.4-1.5c-13.5,3.3-22.6-5.6-21.9-20.6c1.8-2.2,5.1-1.1,7-3.2
	l0,0c2.3-2.5,6.2-0.2,8.5-2.8l0.1-0.1c1.5-1.6,4.1-1,5.5-2.7l0.3-0.2c2.8-1.7,5.7-2.1,8.4,0.1c9.4,9.8,19.8,16.6,34.5,12.1
	c4.3-1.3,9.3-0.5,13.9-0.7c2.7-1.9,5.5-3.5,8.1-5.4l0.9-0.6c3.2-1.6,5.4-4.4,8.3-6.4c3-0.8,5.3-2.7,7.5-4.8c1.9-1.2,4.4-1.4,5.8-3.4
	c1.9-2.1,4.3-3.3,6.5-5l-0.2,0.1c1.3-1.5,2.3-1.3,3,0.6c5,9,5.1,10.2-2.2,14.6c-7.3,4.4-14.3,9.2-22.2,12.6
	c-8.1,3.5-8.8,6.9-3.7,13.8c1.1,1.5,2.6,2.8,3.9,4.1c5.1,5.3,5,10.3,0.6,16.4c-5.7,7.8-3.5,15.2,5.6,16.5c9.1,1.3,16.8,5.1,25.1,8.4
	c9.1,3.7,19,1.6,27.7-1.8c15.5-6,30.7-12.8,37.3-30.1c6.4-16.7,19.3-23.5,36.5-23.8c11.8-0.3,11.7-0.4,11.6-12.9
	c0-2.2,1.5-4.4,2.3-6.6c-0.3-1.6,0.4-2.7,1.5-3.7c0.7-0.6,1.5-0.9,2.4-0.9c0.9,0,1.5,0.4,1.9,1.1c0.7-0.2,1.4-0.4,2.1-0.7
	c6.3,2.2,11.8-2.5,17.8-2c0.6,0.1,1.1,0.1,1.7,0.2c1.1,0.4,2.1,0.9,3,1.6c0.5,0.4,0.9,0.7,1.4,1.1c1,0.7,1.9,1.4,2.9,2.1
	c4.1,3.6,7.7,7.9,11.7,11.6c3.4,3.6,5,8.5,8.6,11.9c0.8,1.4,1.8,2.7,2.9,3.9c0,0,0,0,0,0c-1.2-1.2-2.1-2.5-3-4
	c-4.1-3.7-5.4-9.4-9.7-13c-1.6-1.8-3.9-3.4-2.7-6.4c0-4.6,1.2-9.9-2.9-12.9c-8.5-6.3-7.7-13.3-2.7-21c0.7-1.9,1.7-2.1,3-0.6
	l-0.3-0.2c1.6,1.8,4.4,1.3,6,3.1l-0.3-0.2c1.6,1.8,4.3,1.3,6,3l-0.3-0.2c1.8,2,4.7,1.2,6.7,2.5c3.2,1.9,6.6,3.5,9.8,5.5
	c0.6,0.3,1.1,0.6,1.5,1.1c5.9,4.5,13.1,6.5,19,10.8l0.2,0.2C473.8,407.4,476.4,406.8,478,408.4L478,408.4z"/>
<path class="st9" d="M190.1,451.2c0.8,2.2,1.1,5,2.6,6.4c9.4,9.1,10.5,17.9,1.8,28.6c-5.8,7.1-2.5,19,6.5,24.2
	c7.1,4.1,12.9,9.4,19.1,14.6c6.6,5.5,14.2,9.3,23.4,9c5.5-0.2,11.5-1,15.4,4.3c-0.3,2.5-2.5,4.2-3.8,3.6c-13.1-5.8-25.6,4-38.8,1
	c-8.5-1.9-11.2,9.6-19.2,10.6c-7.8,1-14.8-9.1-21.4-4.3c-8.8,6.3-16.4,7.2-26,3.7c-3.8-1.4-6.9,2-8.8,5.7c-2.5,4.7,0.2,8.2,2.4,11.8
	c1.9,3,6.8,3.8,6.4,8.7c-0.4,4.3-5.7,5-6.4,9.4c11.6,10.8,26.2,16.3,40.7,21.5c9,3.2,16.1,7.5,19.9,16.6c2.3,5.5,6.3,9.2,12.7,10
	c5.7,0.7,10.6,3.5,15.3,9.5c-15.5,3.7-20.9,17.3-30.3,26.8c-4.8,5.3-10.6,2.8-16,1.9c-15-2.4-29.6-6.5-44.1-11.2
	c-1.9-0.6-3.8-1.4-5.7-2.2c-1.8-0.6-3.6-1.4-5.3-2.1c-1.8-0.6-3.5-1.3-5.3-2c-1.9-0.7-3.6-1.6-5.1-2.8c-1-1-1.7-2.1-2.2-3.3
	c-0.2-1.3-0.1-2.7,0.4-3.9c0.7-1.2,1.6-2.8,2.9-3c8.5-1.7,14.6-5.5,15.9-15.1c1.6-11.7,1-22.7-6.9-32.3c-3.1-3.7-6.9-6.6-11-8.9
	c-16.2-8.8-32-18.7-50.7-21.6c-4.3-0.7-8.8-1.8-11.4-5.3c-6.2-8.1-15.3-12.2-23.1-18.2c-1.4-2.6-1.5-5.4-1.6-8.3
	c0-2.2,0.3-4.3,0.8-6.5c0.7-2.8,1.4-5.6,2-8.4c7.8-31.2,22.7-59.9,32-90.6c4.5-15,5.9-30.5,10-45.5c1.4-3.4,1-7,0.6-10.6
	c-0.7-12.3-1.8-24.7,7.3-35c15.1-4.7,30.2-11.6,45.6-0.5c-4.5,3.2-5.9,6.8-2.6,11.9c4.3,6.5,6.2,13.7,5.3,21.6
	c-0.3,0.5-0.6,1-0.9,1.5c-2.7,0.9-4.9,3.4-8.1,2.5c-2.2-0.7-4.5-0.8-6.7,0c-1.5,0.6-3,1.2-4.3,2.1c-1.1,1.1-2.4,1.3-3.8,1.3
	c0,0-1.1-0.5-1.1-0.5s0.6,1.1,0.7,1.1c2.6-0.8,4.9-2.1,7.2-3.4c6.1-1.4,12.6-0.3,18.5-2.7c9.9,1,19.3-6,29.4-1.7
	c5.1,0.4,6.9,4.3,8.8,8.2c4.4,8.7,3.3,11.8-5.9,14.5c-8.1,2.3-16.4,4.2-24.6,6c-2.4,0.5-4.6,1.1-6.2,3
	c-18.1,6.8-27.2,22.1-35.6,37.8c0.9,0.7,1.8,1.5,2.7,2.2c1.6,1,3.8,1.2,5.1,2.4c17.8,16.1,35.1,19.7,53.6,0.4
	c6.2-6.4,15.1-7.3,22.7-0.1c0.9,1,1.9,1.9,2.8,2.9C188.2,449.3,189.1,450.3,190.1,451.2z"/>
<path class="st10" d="M143.1,173.4c-2.9-28.2-0.8-56.2-1.4-84c-0.1-3.8-0.2-7.7,0.6-11.3c2.2-10.2,5-10.5,13.7-4.6
	c14.5,9.8,28.6,20,41.3,32.1c8.5,8.1,15.9,17.1,25.6,24.1c5.1,3.7,5.8,9.1-1.2,12.1c-21.3,9.1-40.1,22.5-59.1,35.4
	c-2.3,1.6-5,2.7-7.6,3.8C147.1,184.2,140.5,185.5,143.1,173.4z"/>
<path class="st11" d="M544.1,124.3c-4.9,16.9-2.9,34.5-3.6,52c-0.3,8.3-2.7,9.3-11,5.7c-15-6.5-26.7-17.9-40.2-26.5
	c-4.8-3.1-8.8-6.8-15.1-6.7c-2.2,0-4.6-1.2-6.7-2.2c-9.1-4.5-9.8-7.3-2.5-14.3c10.9-10.5,21.2-21.5,32.9-31.3
	c8.5-7.2,15.8-16,25.5-22c10.2-6.3,14.8-4.8,16.3,7C541.3,98.6,541.2,111.4,544.1,124.3z"/>
<path class="st12" d="M367.2,126.8c9.9-1.7,19.2,2.5,28.9,2.7c0.4,18.6-4,36.7-6.9,54.9c-3.2,20.1-8.4,39.8-12.8,59.7
	c-0.4,1.9-0.2,3.9-1,5.6c-1.8,4.1-2.7,10.5-8.7,9.5c-6.3-1-5.4-7.3-4.8-11.7c4.6-33.4,0.4-67.3,5.1-100.7
	C367.9,140.2,367.1,133.5,367.2,126.8z"/>
<path class="st13" d="M273.1,128.9c10.3-4.3,21.1-1.7,31.7-2.2c4.2,25.6,8.9,51.2,12.5,76.9c2.4,16.8,5.3,33.7,4.3,50.8
	c-0.2,2.9-0.3,6.2-3.7,6.8c-3.2,0.5-5.4-2.1-6.3-4.8c-2.5-7.1-5.1-14.3-6.9-21.6c-6.9-28-13.9-56-22.7-83.5
	c-1.6-4.9-3.3-9.9-3.2-15.2C278.9,132.1,276.8,129.8,273.1,128.9z"/>
<path class="st4" d="M98.9,442.6c-2.3,0.2-4.5,0.5-11,1.2c14.7-12.4,20.8-27.3,31.8-38.5c4.6-4.6,10.8-1.9,16.3-2.5
	c0.6,6.8-2.5,15.5,8.5,17.1c1.8,1,1.8,1.9,0,2.9c-0.9,8.5,5.5,12.6,10.6,17.4c3,2.8,6,1,9.2-0.1c11.7-4.1,11.7-4,20.1,5.6
	c-10-3.3-18.3-0.9-25.4,6.8c-2.8,3.1-5.9,6.1-9,8.9c-1.7,1.5-4.3,3.8-5.8,3.4c-10.4-3-23.3,1-30.8-10.4c-2.2-3.4-4.9-5.6-9-6
	c-3.3-0.3-4.9-2.4-5.4-5.5c1.7-1.8,4.4-1.5,6.1-3.2c3.1-2.8,7.3-3.4,10.8-5.3c1.7-1.6,4.4-1.4,6-3.1c1.7-1.4,4.1-1.4,5.7-2.8
	c-0.1,0.1,0.9-0.8,0.9-0.8s1.2,0.5,1.2,0.5c0,0-0.8-1-0.8-1c-0.5,0.9-1.2,1.5-2.1,2c-1.8,1.2-4.1,1.3-5.7,2.8
	c-2,1.2-4.4,1.6-6.2,3.2c-3.6,0.7-6.8,2.4-9.7,4.5C103.4,441.1,100.7,441,98.9,442.6z"/>
<path class="st14" d="M84.9,340.2c3.7-11.2,0-23.6,5.9-34.4c26.1,1.6,50.8,10.2,76.3,14.8c7,1.2,13.8,3.2,20.7,5
	c3.2,0.8,6.9,2,6.6,6.2c-0.4,4.8-4.6,5.7-8.5,5.7c-15.7,0-31.3-0.2-47-0.2c-2.8,0-5.7,0.2-8.5,0.4C115,335.4,100.1,339.9,84.9,340.2
	z"/>
<path class="st15" d="M424.2,280.5c1.6-0.2,3.2-0.5,4.8-0.7c3-1.7,6.6-0.3,9.6-2c9.1,0,18.1,0,27.2,0c3,1.7,6.7,0.2,9.6,2
	c3.5,0.8,7.6-0.1,11,4.7c-6.3,5.1-12.7,9.9-20,13.8c-1-0.6-1.7-1.3-2.3-2.3c-0.7-1.4-1.2-2.9-1.7-4.3c-0.6-1.3-1.5-2.4-2.8-3.1
	c-1.6-0.3-3,0.2-4.2,1.2c-3.6,4.7-0.5,10.8-3.4,15.6c-8.2,2.5-16.4,4.2-25,2.8c-3.1-1.6-3.3-5.3-5.4-7.6c-1.9-2.2-0.8-6.8-5.4-6.7
	c-0.6,0.8-0.8,1.5-0.4,2.4c0.3,0.7,0.4,1.1,0.7,1.1c1.8,2.1,4.5,3.5,5.3,6.4c-0.5,2-1.4,3.4-3.8,2.1c-9.3-1.6-17.9-4.7-26.5-11.1
	c7.6-7.8,17.3-9.2,26.2-12.1C419.7,281.4,422.2,281.7,424.2,280.5z"/>
<path class="st16" d="M223.6,306.2c-4.5-1.3-8.9-2.7-13.4-4c-0.5-1.9,0.4-3.4,1.5-4.8c1.1-1.3,2-2.7,2.5-4.3
	c0.2-3.1,1.2-6.4-2.3-8.4c-4.8,1.9-2.7,7.2-5.1,10.2c-1.1,1.8-2.6,3-4.8,2.9c-6.3-4.1-12.6-8-18.7-12.4c-2.5-1.8-1.8-3.9,0.9-5.3
	c1.8-1.6,4.5-1.2,6.4-2.6c0.7-0.1,1.4-0.3,2.1-0.4c2-1.4,4.5-1.1,6.6-2.3c1.6-0.3,3.2-0.5,4.8-0.8c7.8-1.6,15.5-1.6,23.3,0
	c2.5,0.3,5,0.6,7.6,0.9c2.2,0.9,4.7,0.8,6.9,2c0.9,0.1,1.7,0.4,2.4,0.9c2.9,1,4.6,3.1,5.7,5.9c1.4,6.6-0.9,12.6-2.9,18.6
	c-0.8,1.1-1.7,2.2-2.7,3.3l0.1,0.4C237.5,308,230.5,307.8,223.6,306.2z"/>
<path class="st17" d="M389.6,408.7l-1.3-0.1l-1.3,0.2c-1.9,1.3-4.3,1-6.3,2l-1.1,0.1l-1.1-0.1c-4.6-1.7-9.4-0.5-14.2-0.9
	c-2,0-4.1,0.2-6-1c-1.6-0.2-3.3-0.5-4.9-0.7c-1.4-0.3-2.4-1.3-3.6-1.8c-0.7-0.7-1.5-1-2.4-0.9c-1.3-0.6-2.3-1.6-3.4-2.5l-0.2-0.1
	c-0.7-1-1.6-1.9-2.8-2.5l-0.3-0.3c-0.6-1.1-1.4-2-2.5-2.6l-0.2-0.2c-1.9-2.7-4.3-0.9-6.5-0.6c-1,0-1.6,0.5-1.9,1.4
	c-1.1,0.3-1.9,1-2.3,2l-0.3,0.2c-1.2,0.7-2.1,1.7-3.3,2.4c-1-0.1-1.9,0.2-2.5,0.9c-1.1,0.5-2.2,1.2-3.2,1.9l-1.3-0.1l-1.1,0.6
	c-1.8,1.3-4.3,0.9-6,2.3c-2.8,0.2-5.5,0.4-8.3,0.6c-6.6,1.5-13.1,1.5-19.7,0c-0.8-0.6-1.7-0.8-2.7-0.6c-2-2-2.3-3.8,0.6-5.3
	c15,0.5,29.6-1.2,41.2-12c9.7-9,16.3-19.6,15.1-33.8c-0.5-6.6-0.4-13.3-0.5-19.9c2.5-1.1,3.8-0.3,3.8,2.5c-0.2,7-0.5,14-0.5,21
	c0.3,25.6,8.4,35.5,33.9,42.1c5.4,2.7,11.2,0.6,16.8,1.4c1.6,0.1,2.6,1,2.9,2.6c0,0-0.2,0.6-0.2,0.6c0,0,0,0.1,0,0.1
	C391.6,409,390.9,409.4,389.6,408.7z"/>
<path class="st18" d="M346.7,329.2c-1.2,2.3-2.8,4.2-5.4,5.1c-4.3,3.5-6.9,0.1-9.5-2.4c-4-4-8-7.9-14-8.7c-4.2-7,1.7-9.8,6.1-10.9
	c9-2.3,18.6-2.4,27.7-0.5c5.7,1.2,9.2,5.2,3.7,11.1C352.6,325.2,348.7,325.9,346.7,329.2z"/>
<path class="st19" d="M247.2,283.2c-1-1.8-2-3.6-3-5.4c11.5,2.6,22.4,6.5,32.6,15.9c-10.1,7.6-20.9,10.8-32.4,11.9
	c0.1-1.2,0.3-2.3,0.4-3.5C248.9,296.2,256.8,290.9,247.2,283.2z"/>
<path class="st20" d="M317.8,323.2c6.3-6.1,9.9,0.1,13.2,3.6c3,3.4,4.7,7.8,10.3,7.5c-0.5,2-0.4,4.2-2.4,5.5
	c-1.3-0.8-2.6-1.7-3.8-2.5C329.2,332.8,322.1,329.7,317.8,323.2z"/>
<path class="st21" d="M426.5,414.5c1.1,1.8,2.3,3.6,3.4,5.4c0.8,1.5,0.9,3.1,0.5,4.7c-5-4.5-10-9-15-13.5c-1-1-2.1-1.8-3-2.9
	l0.1,0.1c-1.1-0.9-1.9-2-2.9-3c0,0,0.1,0,0.1,0c-1.3-3.8-6.1-5.4-6.6-11.1C413.1,399.5,418.3,409,426.5,414.5z"/>
<path class="st21" d="M568.7,395c22.2,0.4,43.7,7.9,65.4,11.6c11.3,1.9,22.1,3.2,33.2,6c6.9,1.8,14.4,3.1,21.7,3.9
	c-1.6-2.3-3.6-4.2-6.2-5.7c-6.1-2.7-12.2-5.4-18.2-8.1c-32.4,0-61.9-15.3-98.7-11C566.7,393,567.7,394.1,568.7,395z"/>
<path class="st22" d="M72.7,384.2c-10.4-0.6-20.2,4.5-30.7,3c-1-0.6-1.3-1.1-1-1.6c0.4-0.5,0.7-0.7,1.1-0.7c0,0-0.2-0.8-0.2-0.8
	c9.9,0.4,19.3-2.7,28.9-4.6c4.7-0.9,9.2-1.3,13.9-0.7l0,0C82.3,384.1,75.8,380.6,72.7,384.2z"/>
<path class="st23" d="M241.3,358.8c8.6-5.6,17.9-8.9,28.2-9.4C260.9,354.9,251.3,357.3,241.3,358.8z"/>
<path class="st23" d="M55.8,320.7c10.2-1.2,20-0.1,29.5,4.1C75.2,325.8,65.4,323.7,55.8,320.7z"/>
<path class="st24" d="M452,305.4c-3.9-7.5-4.6-14.9,0.3-22.3c4.6,3.8,4.2,11.1,9.7,14.3c0.9,0.9,1.5,2,1.9,3.2
	C460.4,303.3,456.5,305,452,305.4z"/>
<path class="st25" d="M272.8,237.3c-7.9-0.8-10.8-8-15.8-12.5c8.1,0.6,11.9,6.7,15.7,12.6L272.8,237.3z"/>
<path class="st4" d="M264.1,393.4c5.3-2.4,8.5-8.2,16.6-10.4c-4.4,7-8.5,11.1-13.8,14C265.5,396.2,263.8,395.6,264.1,393.4z"/>
<path class="st4" d="M472.1,405.5c-7.3-1.9-14.7-3.7-19-10.8C460.5,396.3,467.6,398.6,472.1,405.5z"/>
<path class="st26" d="M227.4,274c-7.8,0.5-15.5,1.2-23.3,0C211.9,270.2,219.6,270.3,227.4,274z"/>
<path class="st27" d="M247.2,216.8c-7.4-0.5-10.7-3.9-16.8-6C239,210.7,239,210.7,247.2,216.8z"/>
<path class="st4" d="M281.4,408.9c6.6,0,13.1,0,19.7,0C294.6,412.5,288,412.7,281.4,408.9z"/>
<path class="st28" d="M489.3,374.3c0,1,0,1.9-0.1,2.9l0.1-0.1c-6.5-0.7-13.5,2.4-19.4-2.6C476.4,374.4,482.8,374.3,489.3,374.3z"/>
<path class="st29" d="M223.6,306.2c6.9-0.1,13.9-0.1,20.8-0.2C237.5,310.4,230.5,310.2,223.6,306.2z"/>
<path class="st30" d="M398.1,368.6c5.6-0.5,10.5,0.7,14.3,5.1c0.9,0.5,1.3,1.1,1.1,1.8c-0.2,0.7-0.5,1.1-0.7,1.1
	c-5.2-2.1-10.7-3.5-14.5-8.1L398.1,368.6z"/>
<path class="st31" d="M389.6,405.5c-5.8-0.4-12,1.6-17.2-2.5c5.6,0,11.3-0.1,16.9-0.1c0.8,0.5,1.2,1.1,1,1.7
	C390,405.1,389.8,405.5,389.6,405.5z"/>
<path class="st4" d="M451.5,393.6c-4.2,0.6-7.2-2.2-10.6-3.6c-1.7-1.5-1.7-2.9,0-4.4C444.7,388,449.9,388.5,451.5,393.6z"/>
<path class="st9" d="M173,414.1c-2.8,0-5.6-0.1-8.4-0.1c1.6-2.5,4.2-3.5,6.7-4.6c1.6-0.7,3.9-1.6,4.6,0.4
	C176.2,410.9,174,412.7,173,414.1z"/>
<path class="st32" d="M424.7,299.7c2.9,2.2,1.9,5.6,2.3,8.5c-3.4,1-6.6,0.9-9-2.2c1-0.7,2.1-1.4,3.1-2.1
	C421,301.4,422.2,300,424.7,299.7z"/>
<path class="st33" d="M213,299.5c-0.9,0.9-1.9,1.7-2.8,2.6c-3.2-0.5-6.4-1.1-8.2-4.4c0.9-1.1,1.9-2.3,2.8-3.4
	C209.3,293.2,212.7,294,213,299.5z"/>
<path class="st34" d="M363.6,409c5.1-0.6,10.2-1.6,14.9,1.8c-4.8,0.2-9.6,0.3-14.3,0.5c-0.9-0.3-1.3-0.8-1.2-1.3
	C363.1,409.3,363.3,409,363.6,409z"/>
<path class="st35" d="M346.7,329.2c0.1-6,3.6-7.1,8.7-6.2C353.8,327,350.5,328.5,346.7,329.2z"/>
<path class="st4" d="M238.5,415.7c-2.3,2.2-4.5,4.4-8.1,3.8c1.5-4,4.6-6.3,8.2-8.2C240.2,412.8,240.2,414.2,238.5,415.7z"/>
<path class="st4" d="M229.5,420.1c-1.3,3.9-4.3,5.3-8.1,5.4C223,422.1,225.5,419.9,229.5,420.1z"/>
<path class="st22" d="M175.9,365.7c2.2-3.5,5.2-3.2,10.2-0.9C181.6,365.2,178.7,365.4,175.9,365.7
	C175.8,365.7,175.9,365.7,175.9,365.7z"/>
<path class="st36" d="M238.5,415.7c0-1.5,0-2.9,0.1-4.4c1.9-1.2,3.9-2.5,5.8-3.7c2.1-0.4,4.2-0.2,6.2,0.5
	C246.5,410.6,242.5,413.2,238.5,415.7z"/>
<path class="st37" d="M258.6,399.8c-0.7,3.5-3.8,4.7-6.1,6.8c-2,0.3-3.9,0.1-5.8-0.8C250.7,404,253.5,399.7,258.6,399.8z"/>
<path class="st38" d="M264.1,393.4c1.6,0.7,2.6,1.8,2.8,3.6c-1.8,1.2-3.7,2.3-5.5,3.5c-1-0.2-2-0.4-3-0.6
	C258.9,396.5,262,395.4,264.1,393.4z"/>
<path class="st39" d="M475.5,279.8c-3.5,0.8-6.8,0.4-9.6-2C469.4,276.8,472.7,277.2,475.5,279.8z"/>
<path class="st40" d="M438.6,277.7c-2.8,2.3-6,3-9.6,2C431.8,277.2,435.1,276.8,438.6,277.7z"/>
<path class="st41" d="M464,300.6c-1.5-0.3-3-0.6-4.5-0.9c0.4-3.9,2.3-6,6.4-5.5c0.2,1.4,0.3,2.7,0.5,4.1
	C466.6,300.1,465.3,300.4,464,300.6z"/>
<path class="st4" d="M246.7,405.8c1.9,0.3,3.8,0.5,5.8,0.8c-0.4,0.8-1.1,1.3-1.9,1.6c-2-0.2-4.1-0.3-6.2-0.5
	C245.2,407,245.9,406.4,246.7,405.8z"/>
<path class="st9" d="M158.7,417c-2.1,3.1-5.3,2.8-8.5,2.8C152.3,416.8,155.5,417,158.7,417z"/>
<path class="st9" d="M144.5,422.7c0-1,0-1.9,0-2.9c1.9,0,3.8,0,5.7,0C148.9,421.9,146.8,422.6,144.5,422.7z"/>
<path class="st9" d="M164.3,414.2c-1.2,2.1-3.2,2.7-5.5,2.7C160,414.8,162,414.2,164.3,414.2z"/>
<path class="st34" d="M380.7,410.8c1.7-1.9,3.8-2.5,6.3-2c-1,1-2.1,2-3.1,3C382.8,411.4,381.8,411.1,380.7,410.8z"/>
<path class="st4" d="M363.6,409c0.1,0.8,0.3,1.5,0.5,2.3c-2.3,0.1-4.3-0.5-5.8-2.3C360,408.9,361.8,408.9,363.6,409z"/>
<path class="st4" d="M477.9,408.4c-2.3-0.1-4.3-0.6-5.5-2.8C474.6,405.7,476.6,406.4,477.9,408.4z"/>
<path class="st4" d="M309.4,408.3c1.7-1.7,3.6-2.7,6-2.3C313.9,407.9,311.8,408.5,309.4,408.3z"/>
<path class="st4" d="M279.3,403c-0.2,1.8-0.4,3.5-0.6,5.3C275.5,406.2,275.9,404.5,279.3,403z"/>
<path class="st42" d="M199.3,274.8c-1.8,1.9-3.9,3-6.6,2.3C194.4,275,196.5,273.9,199.3,274.8z"/>
<path class="st43" d="M241.8,276.9c-2.7,0.7-5,0.2-6.9-2C237.7,274.1,240,274.7,241.8,276.9z"/>
<path class="st44" d="M190.5,277.5c-1.7,1.9-3.7,3.2-6.4,2.6C185.9,278.2,187.7,276.7,190.5,277.5z"/>
<path class="st45" d="M424.2,280.5c-1.8,1.8-3.8,3-6.5,2.3C419.4,280.6,421.5,279.7,424.2,280.5z"/>
<path class="st4" d="M331.5,396.6c2.6-4.4,4.6-3,6.5,0.6C335.8,397,333.6,396.8,331.5,396.6z"/>
<path class="st46" d="M441,385.6c0,1.5,0,2.9,0,4.4c-1.9-1.6-5-1.5-5.9-4.4C437,385.6,439,385.6,441,385.6z"/>
<path class="st47" d="M435.3,385.7c-2.5,0.1-4.9-0.1-6-3C431.8,382.7,434.7,382,435.3,385.7z"/>
<path class="st48" d="M429.6,382.9c-2.5,0-5,0-6-3.1C426.1,379.9,429,379.1,429.6,382.9z"/>
<path class="st49" d="M423.9,380c-1,0.2-2,0.4-3,0.6c-1.4-0.8-2.8-1.7-2.7-3.7l-0.2,0.2C420.4,377.1,423.3,376.3,423.9,380z"/>
<path class="st50" d="M412.7,376.6c-0.1-0.9-0.2-1.9-0.4-2.8c2.1,0.7,5.2-0.1,5.6,3.4c0,0,0.2-0.2,0.2-0.2
	C416.3,376.8,414.5,376.7,412.7,376.6z"/>
<path class="st30" d="M398.2,368.5c-0.4-0.2-1.2-0.5-1.1-0.6c0.2-0.9,0.6-0.7,1,0.7C398.1,368.6,398.2,368.5,398.2,368.5z"/>
<path class="st4" d="M327.3,400c0.3-1.2,1-2,2.3-2C328.8,398.7,328,399.3,327.3,400z"/>
<path class="st4" d="M338.2,397.4c1.5,0.3,2.3,1.1,2.5,2.6C339.9,399.2,339,398.3,338.2,397.4z"/>
<path class="st25" d="M272.7,237.5c0.3,0.2,0.6,0.3,0.9,0.5c-0.2-0.2-0.5-0.4-0.7-0.6C272.8,237.3,272.7,237.5,272.7,237.5z"/>
<path class="st4" d="M323.6,402.6c0.6-1.5,1.6-2.4,3.3-2.4C325.8,401,324.7,401.8,323.6,402.6z"/>
<path class="st4" d="M341,400.3c1.5,0.2,2.3,1.1,2.8,2.5C342.8,402,341.9,401.2,341,400.3z"/>
<path class="st4" d="M317.9,405.4c0.7-1.3,1.7-2.1,3.2-1.9C320,404.2,318.9,404.8,317.9,405.4z"/>
<path class="st4" d="M343.9,402.9c1.7,0.1,2.8,1,3.4,2.5C346.2,404.6,345,403.8,343.9,402.9z"/>
<path class="st4" d="M389.6,405.5c0-0.9-0.1-1.8-0.3-2.6c1.6,0.9,2.5,2.2,2.7,4C391.2,406.4,390.4,405.9,389.6,405.5z"/>
<path class="st4" d="M349.8,406.3c1.6-0.2,2.8,0.5,3.6,1.8C352.2,407.5,351,406.9,349.8,406.3z"/>
<path class="st51" d="M526.4,63.2c0.6-1.2,1.4-1.7,2.7-0.8C528.2,62.6,527.3,62.9,526.4,63.2z"/>
<path class="st52" d="M429.4,678.9c8.7-0.1,17-3.9,25.8-2.4c1.1,8.3-5.6,9.8-10.9,12.3c-5.5,2.6-11.6,3.9-16.9,7
	c-4.3,2.5-7,5.3-1.4,9.3c4.5,3.2,7.1,7.5,7.6,12.9c0.5,5.5,2.5,9.8,7.6,12.6c2.6,1.4,4.4,3.7,1.8,6.8c-9.8,6.8-21.3,2.8-31.8,5.1
	c-32.8,7.4-66.1,4.5-99.2,4.8c-7.1,0.1-14.3-0.4-20.5-4.5c-5.7-12-17.7-16-28.4-21.6c-10.2-10.8-24.5-9.6-37.3-12.5
	c-8.3-1.9-17.5-2.4-21.7-11.8c-1.1-7.7-6.3-15.4,0.2-23c7.7-0.4,14.9,3.8,22.7,2.7c16.9-3.8,33.7,0.5,50.5,1.3
	c8.9,0.4,17.9,1.5,26.8,2c6.8,1.2,13.5,1.2,20.3-0.1c19.7-0.7,39.3-0.2,59-0.3c3.9,0.2,7.8,0,11.6-0.9c5.2-0.9,10.4-1.2,15.6-1.2
	c3.6,0.4,7.1-0.6,10.7-1.1C424.4,676.1,427.3,676.4,429.4,678.9z"/>
<path class="st9" d="M429.4,678.9c-2.8,0.1-5.7,0.2-8.5,0.3c-2.3,2.6-6.1,0.3-8.6,2.6c-5.7,0.1-11.4,0.2-17,0.3
	c-2.4,2.5-6.2,0.2-8.6,2.6c-20.9,0-41.8,0.1-62.7,0.1c-6.6-4.6-13.2-2.7-19.8-0.2c-25.9-1.4-51.9-1.5-77.3-8.1
	c3.6-7,7.5-14,8.7-21.9c0.9-5.6,3.9-7.5,8.8-6.1c6.8,2,13.2,5.2,20.4,0.8c2-1.2,2.9,0.7,3.2,2.9c1.4,8.6,8.6,9.6,15,9.7
	c12.6,0.1,25.7,2.7,37.3-4.9c2.5-1.6,4.4-1.5,6.9,1.5c8,9.4,16,8.9,21.9-1.7c4-7.2,9.1-13.1,14.7-18.9c4.5-4.7,9.4-7.7,16.2-7.1
	c7.2,0.7,13.7-3.9,21-2.8c-1.3,7.3,2.5,12.8,6.3,18.2c3.4,5,8.6,8.9,8.2,16c-0.3,4.2,3.4,4.8,6.8,5.8
	C427.4,669.6,432.7,671.6,429.4,678.9z"/>
<path class="st53" d="M204.2,673.9c-0.7,7.7,4.1,14.7,3,22.5c-3.1,3-6.6,2.6-10.3,1.2c-13.8-5-26.5-11.2-42.7-6.7
	c-12.2,3.4-24.6-4.6-36.3-9.3c-3.3-1.3-4.3-4.9-4.6-8.3c-0.5-5.6-3-9.6-7.6-12.9c-7.4-5.4-5-10.1,1.5-14.2c5-1.4,8.9,0.2,11.8,4.4
	l0.1,0.1c0.6,1,1.5,1.7,2.6,2.1c1.7,0.4,3.5,0.8,5.2,1.1c1.3,0.5,2.3,1.4,3.4,2.2c1.8,0.2,3.5,0.4,5.3,0.6c1.1,0.7,2.2,1.4,3.3,2.1
	c20.9,5,41.4,11.4,62.8,14.2C202.4,673.3,203.3,673.7,204.2,673.9z"/>
<path class="st54" d="M552,391.3c-14.9-1.4-29.1-5.3-42.8-11.3l0,0c15.4-0.4,29.4,4.3,42.7,11.5L552,391.3z"/>
<path class="st28" d="M489.2,377.2c6.7,0.9,14-2.8,20,2.8c0,0,0,0,0,0c-6.7-0.5-13.9,2.4-19.9-2.9
	C489.3,377,489.2,377.2,489.2,377.2z"/>
<path class="st3" d="M512.5,354.9c1.5-0.1,3.2,0.1,3.5,1.6c0.5,2.5-1.6,3.2-3.5,3.2c-1.2,0-3.5-0.7-3.6-1.3
	C508.7,356.1,510.6,355.3,512.5,354.9z"/>
<path class="st8" d="M219.9,611.2c0.5-0.6,1.1-1.1,1.6-1.7c0.4,0.7,1,1.3,1.3,2c0.1,0.2-0.5,0.9-0.8,1
	C220.9,612.7,220.2,612.2,219.9,611.2z"/>
<path class="st54" d="M564.3,395.7c-0.4,0.2-0.8,0.5-1.1,0.5c-0.4,0-0.7-0.4-1-0.7C563,394.8,563.7,394.9,564.3,395.7z"/>
<path class="st54" d="M551.9,391.5c1.3,0.3,2.5,0.6,3.8,1c-2.1,2.3-2.8,0.6-3.6-1.1C552,391.3,551.9,391.5,551.9,391.5z"/>
<path class="st55" d="M603.2,645c-2.3,3.5-6.9,4.6-8.2,9.3c-7.6,28.3-7.5,28.8-33.3,41.2c-11,5.3-8.2,15.9-12.6,23.6
	c-1,3.5-3.5,5.7-6.7,6.5c-14.8,3.7-29.5,7.9-45,4.8c-6.2-13.3-18.8-25.9-3-41.1c5.8-5.6,1.4-15,6.4-21.3c1.8-0.1,3.6-0.2,5.5-0.4
	c2.5-2.4,6.1-0.3,8.7-2.4c9.7-1.2,18.4-6.3,28.3-6.5c18.7,1.4,19.3,2.3,12.7,21.1c5.2,0.8,11.3-0.5,10.4-5.3
	c-2.7-14.5,7.3-18.7,16.6-24c1.2-0.7,2.2-1.8,3.2-2.8l0,0c1.5-1.7,4.1-1.1,5.7-2.5c0.8-0.3,1.7-0.4,2.6-0.4c1-0.8,2.1-1.5,3.2-2.1
	c0.9-0.2,1.9-0.3,2.8-0.5C601.7,642.8,602.7,643.7,603.2,645z"/>
<path class="st56" d="M500.8,668.1c6.1,15.4-2,26.1-12.9,36.4c6,6.7,14,13,7,23.2c-5.4,12.2-17.2,7.4-26.3,10
	c-8.7,0.9-17.6,3-24.9-4.2c-13.3-1-13.6-0.9-14.3-14.1c-0.4-6.4-2.4-9.9-9.1-12.1c-8.3-2.7-8.4-7.9-1.2-12.8
	c6.3-4.2,13.5-6.6,20.6-8.9c5.8-1.9,11.9-3.2,15.2-9.2C470.2,672.8,485.5,670.1,500.8,668.1z"/>
<path class="st57" d="M586.2,647.9c-0.7,6.5-5.1,9.2-10.6,11.8c-7.7,3.7-8.4,6.7-2.3,13.5c3.2,3.6,1.4,5.1-0.7,6.5
	c-4.3,2.7-9,4.9-13.7,7.1c-2.6,1.2-5.6,1.5-7.8-0.9c-2.6-2.7-2.1-6.2-1-9.3c1.6-4.1,8.9-5.4,6.5-11.4c-2.1-5.2-9.1-1.2-12.3-5.3
	c-0.3-0.4-0.6-0.7-0.9-1.1C557.1,653.4,571.5,650.1,586.2,647.9z"/>
<path class="st57" d="M603.2,645c-0.9-0.9-1.8-1.8-2.8-2.7c3-3.6,7.5-4,11.6-5.3C611.1,641.9,606.9,643.1,603.2,645z"/>
<path class="st56" d="M515,665.4c-2.4,2.7-5.5,2.7-8.7,2.4C508.7,665.1,511.8,664.9,515,665.4z"/>
<path class="st57" d="M591.9,645.3c-1.4,1.9-3.4,2.6-5.7,2.5C587.6,645.8,589.5,645.1,591.9,645.3z"/>
<path class="st57" d="M597.6,642.8c-1.1,0.7-2.1,1.4-3.2,2.1C595.5,644.2,596.6,643.5,597.6,642.8z"/>
<path class="st58" d="M611.9,804.4c1.5-2,3.6-2.5,5.9-2.4C616.3,803.8,614.3,804.6,611.9,804.4z"/>
<path class="st4" d="M375.9,531c-15,0.2-17.2-3.4-21-18.6c-4-15.7-4.6-31.1-2.9-46.9c0.5-4.4-2.9-6.8-4.1-10.3c-1.8-5.3,1-9,6.2-7.4
	c9.8,3.1,19.1,4,29.1,1c4.9-1.5,18.3,10.3,19.9,16.1c0.8,3.1-0.8,4.4-3.8,4c-6.4-0.8-6.9,3.5-6.8,8.1c0.4,11.2,0.6,22.5,1.5,33.7
	C395,524.8,389.9,530.8,375.9,531z"/>
<path class="st4" d="M430.4,424.7c-0.2-1.6-0.3-3.2-0.5-4.7c5.5,4.5,9.3,10,11,17l0,0C435.5,434.5,432.9,429.7,430.4,424.7z"/>
<path class="st4" d="M466.5,471.2c3.7,1.7,5.6,4.5,5.7,8.5l0,0C468.5,478,466.6,475.2,466.5,471.2L466.5,471.2z"/>
<path class="st4" d="M472.2,479.7c2.2,1.3,4.8,2.4,4.5,5.7c0,0.3-0.8,0.8-1,0.7C472.7,485.1,472.5,482.3,472.2,479.7
	C472.2,479.7,472.2,479.7,472.2,479.7z"/>
<path class="st4" d="M466.5,471.2c-0.3-0.2-0.9-0.4-0.9-0.5C465.7,469.9,466.1,470,466.5,471.2L466.5,471.2z"/>
<path class="st3" d="M409.6,405.5c1,1,1.9,2,2.9,3C411.5,407.4,410.5,406.5,409.6,405.5z"/>
<path class="st4" d="M190.1,451.2c-0.9-1-1.9-1.9-2.8-2.9C188.2,449.3,189.1,450.3,190.1,451.2z"/>
<path class="st4" d="M187.2,448.4c-0.9-1-1.9-1.9-2.8-2.9C185.3,446.5,186.3,447.4,187.2,448.4z"/>
<path class="st3" d="M389.6,408.7c0.5-0.8,1.3-1.1,2.2-1.1C391.7,409,391.2,410,389.6,408.7z"/>
<path class="st3" d="M412.4,408.4c1,1,2,1.9,3,2.9C414.4,410.3,413.4,409.3,412.4,408.4z"/>
<path class="st4" d="M443.7,439.8c0.3,0.2,0.9,0.4,0.9,0.5C444.5,441.1,444.1,440.9,443.7,439.8
	C443.7,439.8,443.7,439.8,443.7,439.8z"/>
<path class="st4" d="M443.7,439.8c-0.9-0.9-1.9-1.9-2.8-2.8c0,0,0,0,0,0C441.8,437.9,442.8,438.9,443.7,439.8L443.7,439.8z"/>
<path class="st59" d="M119,650.6c-4-0.7-7.9-1.4-11.9-2.1c-6.1,3.5-11.9,1.3-17.8-0.7c-15.7-5.4-30.8-12.4-46.5-17.9
	c-19.5-6.9-21.6-10.5-20.7-31.5c0.3-7.5-0.1-15.3,5-21.7c0.3-2.8,0.6-5.5,0.8-8.3c1.3-1.7,1.1-3.8,1.9-5.7c0.3-2.9,0.6-5.8,1-8.7
	c1.4-1.6,1-3.9,2-5.6c0.3-2,0.5-3.9,0.8-5.9c0.5-1.2,1.3-1.4,2.4-0.6c8.9,0.4,15.5,4,19.9,12.4c2.6,5,7.7,7.5,14,8.3
	c23.2,3.1,42.5,15.6,61.3,28.4c6.4,4.3,11.5,11.8,10.5,20.7c-0.8,7.1,6.1,14.7-1.4,21.5c-1.4,1.3-1.3,4.5-1.3,6.8
	c-0.2,6.2-3.3,8.9-9.2,7.1C125,645.6,121.3,645.5,119,650.6z"/>
<path class="st60" d="M133.3,371.8c-0.1,0.8-0.1,1.5-0.1,2.3c-6.3,3.8-13.1,3.3-20,3c0,0,0.1,0.1,0.1,0.1c1-1.1,2-2.2,3-3.3
	c2.7-1.5,5.3-1.3,8.1-0.2C127.3,373.1,130.3,372.4,133.3,371.8z"/>
<path class="st60" d="M113.1,377c-2.7,3.6-6.6,3.4-10.4,2.7c-1.8-0.3-1.9-1.7-0.8-3.1c1.7-1.1,3.5-1.1,5.2-0.1c2,0.2,4,0.4,6,0.6
	C113.2,377.2,113.1,377,113.1,377z"/>
<path class="st3" d="M124.3,373.7c-2.7,0.1-5.4,0.1-8.1,0.2C118.9,370.9,121.5,370.9,124.3,373.7z"/>
<path class="st3" d="M92.6,378.7c0.1-0.3,0.2-0.8,0.3-0.8c0.3,0,0.6,0.2,0.9,0.3c-0.1,0.3-0.2,0.8-0.3,0.8
	C93.2,379,92.9,378.8,92.6,378.7z"/>
<path class="st3" d="M107.2,376.6c-1.7,0-3.5,0.1-5.2,0.1C103.7,374.3,105.4,374.3,107.2,376.6z"/>
<polygon class="st8" points="118.9,573.8 119.8,574.3 119.4,574.8 "/>
<polygon class="st8" points="118.9,573.8 117.9,573.2 118.3,572.8 "/>
<path class="st59" d="M121.6,652.7c-0.9-0.7-1.7-1.4-2.6-2.1C119.9,651.4,120.8,652,121.6,652.7z"/>
<path class="st59" d="M130.2,656.1c-1.1-0.7-2.3-1.5-3.4-2.2C128,654.6,129.1,655.3,130.2,656.1z"/>
<path class="st59" d="M138.8,658.8c-1.1-0.7-2.2-1.4-3.3-2.1C136.6,657.4,137.7,658.1,138.8,658.8z"/>
<path class="st61" d="M167.4,681.7c-1.6-1.4-3.7,0.2-4.8,1.7c-4.5,6.4-10.8,4.9-16.6,3.4c-7.7-2-15.1-5.1-22.8-7.1
	c-4.4-1.1-6.2-2.3-5.4-7.5c1.2-7.6-1.5-13.6-10.2-15.7c-7.8-1.9-0.6-5.3-0.4-8c-8-2.8-16.1-5.3-24-8.3
	c-16.3-6.2-32.5-12.7-48.9-18.8c-7.2-2.7-9.8-7.2-9.6-15.1c0.2-10,4-19.6,2.5-29.6c-0.4-0.1-0.8-0.3-1.2-0.5
	c-1.1,1.7-2.2,3.4-3.2,5.2c1.6,2.5,1.7,5.8-1,8.5c-1,1-1.8,2.2-2.6,3.6c0,15,0,30.1,0,45.1c0,6.1-0.5,12.3,2.9,17.9
	c16.2,9.5,32.4,19,48.7,28.5c0.9,0,1.9,0.2,2.7,0.6c1.1,0.7,2.2,1.5,3.2,2.2c0.8,0,1.7,0.1,2.4,0.4c1.7,1.5,4.2,0.9,5.8,2.5
	c3.8,0.9,7.5,1.8,11.3,2.6c5.1-8.7,12.6-7.5,19.7-3.9c24.7,12.6,51,6.2,76.7,7.5c2.4,0.1,4.4-1.5,6.1-3.3
	C189.1,687.2,176.5,689.2,167.4,681.7z"/>
<path class="st9" d="M104.5,439.7c2.4-4.8,6.6-5.9,11.4-5.7l0.1,0.1c-3,3.5-7,5.1-11.4,5.7L104.5,439.7z"/>
<path class="st9" d="M127.4,428.4c2.2-3,5.4-2.8,8.6-2.8l0,0C133.8,428.6,130.6,428.4,127.4,428.4L127.4,428.4z"/>
<path class="st9" d="M127.4,428.4c-1.3,2.1-3.4,2.7-5.7,2.9l-0.1-0.1C123,429.2,125.1,428.5,127.4,428.4
	C127.4,428.4,127.4,428.4,127.4,428.4z"/>
<path class="st9" d="M136,425.5c0.6-0.6,1.2-1.6,2-1.8c1.2-0.3,1.6,0.6,0.7,1.2C137.9,425.5,136.9,425.4,136,425.5L136,425.5z"/>
<path class="st9" d="M116,434c1.4-2,3.4-2.7,5.7-2.9c0,0,0.1,0.1,0.1,0.1c-1.4,2-3.4,2.7-5.7,2.9C116.1,434.2,116,434,116,434z"/>
<path class="st9" d="M104.7,439.9c-1.4,2-3.4,2.7-5.7,2.8c0,0-0.1-0.1-0.1-0.1c1.3-2,3.4-2.7,5.7-2.9
	C104.5,439.7,104.7,439.9,104.7,439.9z"/>
<path class="st62" d="M465.9,294.2c-2.1,1.8-4.3,3.7-6.4,5.5c-13-0.9-5.2-10.9-7.2-16.6c4.2-0.7,8.7-2.4,11.8,2.4
	c0.4,1.3,1.4,2.3,1.6,3.6C465.8,290.8,465.9,292.5,465.9,294.2z"/>
<path class="st63" d="M424.7,299.7c-1.2,1.4-2.4,2.8-3.6,4.2c-3.2-0.9-7.2,0.3-9.4-3.5c-0.8-3.9-1.8-7.9,0.7-11.6
	C422.5,285.6,422.5,285.6,424.7,299.7z"/>
<path class="st64" d="M412.5,288.8c-0.2,3.9-0.5,7.7-0.7,11.6C408.7,296.3,408,292.4,412.5,288.8z"/>
<path class="st41" d="M465.8,289.1c-1.5-0.8-2.1-2-1.6-3.6C465.6,286.2,466.2,287.4,465.8,289.1z"/>
<path class="st65" d="M213,299.5c-1.8-3.2-5.8-3-8.2-5.2c-0.2-2.3-0.5-4.6-0.5-7c0.2-9.6,0.3-9.6,11.4-9.8
	c3.7,6.3-0.5,13.5,2.6,19.9C217.7,301.1,215.1,299.7,213,299.5z"/>
<path class="st66" d="M247.2,283.2c2.7,0.7,5.6,0.9,7.9,2.2c5.3,3.1,4.7,11.8-1,14.3c-2.9,1.3-6.2,1.6-9.3,2.4
	C243.6,295.6,246.2,289.5,247.2,283.2z"/>
<path class="st33" d="M218.2,297.4c-4.5-6.2-1.4-13.3-2.6-19.9C221.4,283.5,217.6,290.8,218.2,297.4z"/>
<path class="st67" d="M96.1,693.2c-2.8-13.7-1.1-15.3,11.9-11.3c4.5,1.4,9,2.8,13.4,4.4c15.1,5.5,29.9,9.3,46.7,5.4
	c9.5-2.2,20.3,1,30.5,1.8c2.2,2.9,5.5,2.8,8.6,2.9c2,3.5,4.9,5.8,9.1,5.7c3.9,0,7.4,1.2,10.8,3c10.9,8.8,23.4,13.3,37.4,13.7
	c4.9,1.6,9.8,3.2,14.6,4.7c10.6,3.3,10.6,3.3,10.6,15.4c-6.6,0.4-13-0.2-19.5-1.9c-18.3-4.6-37.3-4.9-55.8-7.8
	c-23.7-3.7-46.3-12.4-69.7-17.3c-2.7-0.6-5.5-1-8.3-1.5c-1-0.7-2-1.4-3.1-1.8c-1.9-0.3-3.8-0.6-5.8-0.9c-1.5-1.7-4-1.1-5.7-2.4
	c-1-0.2-1.9-0.3-2.9-0.5c-0.7-0.9-1.7-1.5-2.8-1.8c-1.9-0.7-3.7-1.4-5.6-2.2C105.7,698.3,100.9,695.8,96.1,693.2z"/>
<path class="st68" d="M264.4,718.8c-0.9,0.1-2,0.5-2.8,0.2c-7.5-2.5-12.9,10.2-20.5,3.3c-5.4-5-9.5-11.4-14.2-17.1
	c10.1-0.2,19.5,2.9,29.1,5.2C260.7,711.5,263.7,714,264.4,718.8z"/>
<path class="st8" d="M304.2,684.7c11.1-7.3,11.7-7.3,19.8,0.2C317.4,684.8,310.8,684.8,304.2,684.7z"/>
<path class="st6" d="M386.7,684.8c2.3-2.8,5.4-2.8,8.6-2.6C393,685,389.9,685,386.7,684.8z"/>
<path class="st6" d="M412.3,681.8c2.3-2.7,5.4-2.7,8.6-2.6C418.7,682.2,415.5,682.1,412.3,681.8z"/>
<path class="st69" d="M79,688c2.4-0.2,4.3,0.7,5.8,2.5C82.5,690.6,80.5,690,79,688z"/>
<path class="st69" d="M73.3,685.4c1.1,0.7,2.2,1.5,3.2,2.2C75.5,686.9,74.4,686.2,73.3,685.4z"/>
<path class="st70" d="M121.8,705.4c2.4-0.3,4.2,0.6,5.7,2.4C125.2,707.8,123.2,707.2,121.8,705.4z"/>
<path class="st70" d="M116.1,703.1c0.9,0.6,1.9,1.2,2.8,1.8C118,704.3,117,703.7,116.1,703.1z"/>
<path class="st70" d="M133.2,708.7c1,0.6,2.1,1.2,3.1,1.8C135.3,709.9,134.2,709.3,133.2,708.7z"/>
</svg>
