<?xml version="1.0" encoding="utf-8"?>
<!-- Generator: Adobe Illustrator 27.4.0, SVG Export Plug-In . SVG Version: 6.00 Build 0)  -->
<svg version="1.1" id="Layer_1" xmlns="http://www.w3.org/2000/svg" xmlns:xlink="http://www.w3.org/1999/xlink" x="0px" y="0px"
	 viewBox="0 0 720 720" style="enable-background:new 0 0 720 720;" xml:space="preserve">
<style type="text/css">
	.st0{fill:#E2D7C0;}
	.st1{fill:#B7795E;}
	.st2{fill:#FBD330;}
	.st3{fill:#ADA79C;}
	.st4{fill:#B2ADA5;}
	.st5{fill:#605757;}
	.st6{fill:#C3BCB1;}
	.st7{fill:#565052;}
	.st8{fill:#F6F0E3;}
	.st9{fill:#A49C94;}
	.st10{fill:#110F1E;}
	.st11{fill:#2A2732;}
	.st12{fill:#322F38;}
	.st13{fill:#666064;}
	.st14{fill:#666164;}
	.st15{fill:#24222C;}
	.st16{fill:#696567;}
	.st17{fill:#EEE3D5;}
	.st18{fill:#38353E;}
	.st19{fill:#26232E;}
	.st20{fill:#4E4B50;}
	.st21{fill:#645F62;}
	.st22{fill:#37353F;}
	.st23{fill:#47454A;}
	.st24{fill:#656063;}
	.st25{fill:#4B494D;}
	.st26{fill:#646062;}
	.st27{fill:#706C6F;}
	.st28{fill:#23202B;}
	.st29{fill:#555255;}
	.st30{fill:#47444A;}
	.st31{fill:#FDF4E7;}
	.st32{fill:#27242F;}
	.st33{fill:#48454A;}
	.st34{fill:#454248;}
	.st35{fill:#918787;}
	.st36{fill:#818386;}
	.st37{fill:#939793;}
	.st38{fill:#2A2A37;}
	.st39{fill:#1D1923;}
	.st40{fill:#E19A47;}
	.st41{fill:#16131D;}
	.st42{fill:#17141C;}
	.st43{fill:#EE8869;}
	.st44{fill:#36343D;}
	.st45{fill:#827872;}
	.st46{fill:#847770;}
	.st47{fill:#A9A59F;}
	.st48{fill:#998D87;}
	.st49{fill:#FDF5E9;}
	.st50{fill:#35323B;}
	.st51{fill:#959B9C;}
	.st52{fill:#8F9B9D;}
	.st53{fill:#282631;}
	.st54{fill:#E09643;}
	.st55{fill:#18151E;}
	.st56{fill:#1B171F;}
</style>
<rect x="0" y="0.5" class="st0" width="720" height="720"/>
<ellipse class="st1" cx="632" cy="484.3" rx="82.8" ry="85.4"/>
<path class="st2" d="M-1783.2-609.4c-0.6-0.5-1.3-1-1.9-1.5C-1784.4-610.4-1783.8-609.9-1783.2-609.4z"/>
<path class="st3" d="M610.8,484.3c-3.4-1.6-4-5.4-6.3-7.9c-3.9-4.2,2.1-3.2,2.7-5C610.5,475.2,613.9,478.8,610.8,484.3z"/>
<path class="st4" d="M590.3,440.1c-1.4-1.4-2.8-2.8-4.2-4.2c-2.2-1-3.6-2.6-3.3-5.2c0.4-1.4,1.4-2.2,2.7-2.7
	c0.3-0.2,0.6-0.5,0.9-0.7C588.3,431.4,593.9,434.4,590.3,440.1z"/>
<path class="st4" d="M592.4,444.2c-1-0.5-1.6-1.2-1.5-2.3C592,442.3,592.5,443.1,592.4,444.2z"/>
<path class="st5" d="M583.8,417.3c-0.8,1-1.4,0.3-1.9-0.3C582.6,416.6,583.2,416.7,583.8,417.3z"/>
<path class="st6" d="M623.5,520c-5.6-8.6-11.2-17.1-18-27.5c5,1.8,7,4.7,9.3,7.2c1.3,1.4,1.4,5.1,4.9,3.2
	C622.3,508.3,627.5,513.1,623.5,520z"/>
<path class="st7" d="M609.5,612.4c-0.5-1.9-0.2-3.6,1.5-4.8C611.3,609.5,611.1,611.2,609.5,612.4z"/>
<path class="st6" d="M625.4,524.5c-1-0.6-1.5-1.5-1.4-2.7C625,522.4,625.6,523.2,625.4,524.5z"/>
<path class="st8" d="M624.1,528l-0.5-0.1c0,0,0.3,0.2,0.3,0.2C624,528.1,624.1,528,624.1,528z"/>
<path class="st9" d="M577.7,285.2c1.8-0.3,3.5,0,4.6,1.6c-0.3,0.3-0.5,0.6-0.8,1c-1.6-0.4-3.1-0.9-3.7-2.7L577.7,285.2z"/>
<path class="st9" d="M577.8,285.1c-0.3-0.2-0.9-0.4-0.9-0.5c0.2-0.7,0.5-0.5,0.7,0.6C577.7,285.2,577.8,285.1,577.8,285.1z"/>
<path class="st5" d="M584.2,429.7c-1.2-0.5-1.8-1.1-0.4-2.1c0.6,0,1.2,0.1,1.7,0.4C585.1,428.6,584.7,429.2,584.2,429.7z"/>
<path class="st5" d="M583.2,425.3c-0.6-0.4-1-0.9-1.3-1.5C582.3,424.4,582.7,424.8,583.2,425.3z"/>
<path class="st5" d="M581.5,423.4c-0.6-0.7-1.1-1.4-1.7-2.1C580.8,421.7,581.4,422.3,581.5,423.4z"/>
<path class="st5" d="M579.8,421.3c-0.7-0.7-1.3-1.5-2-2.2C578.9,419.4,579.5,420.2,579.8,421.3z"/>
<g>
	<path class="st10" d="M30.5,620.7c0.5-2.9,0.8-5.9,2.6-8.4c1.1-1.2,0.7-3.1,1.9-4.3l0,0c5.8-2.7,7.6,2.3,9.6,5.5
		c22.4,35.3,57.4,42.2,95.2,42.4c10.8,0.1,12-2.5,8.1-11.6c-9.8-13.9-17.7-28.7-22-45.3c-0.3-2.1-0.7-4.1-1.1-6.2
		c-0.2-1.6,0-3.1,0.6-4.6c3.4-4.2,7.2-1.4,10.7-0.4c16,4.9,29.2,14.4,41.4,25.4c5,4.5,9.9,9.1,15.7,12.8c10.1,6.5,20.3,5,30.6,0.8
		c4.7-1.9,5.3-5.1,3.3-9.4c-2.8-6.3-7.6-11.1-12.1-16.1c-8.6-9.3-8.4-11,2.2-18.5c3.8-2.6,1.7-6.5,2.6-9.7c0.6-3.6,1.4-7.7,5.8-7.6
		c4,0.1,4,4.4,4.5,7.4c1.4,7.4,3.8,14.8,2.7,22.3c2.1-2-1-7.1,3.8-8.4c3.5,1.3,4,4.7,4.5,7.7c2.6,15.7,10.6,29.1,18.2,42.6
		c4,7.1,7.5,14.4,10.6,21.9c3.1,7.6,7,14.7,13.3,20.1c4.5,6.5,4.6,15,9.3,21.3c4.2,5.6,7.4,14.5,17.1,6.4c2.7-2.2,4.5,0.8,6.1,2.4
		c4.1,4,7.2,5.4,7.4-2.5c0.1-2.5,0.5-5.1,3.9-5.4c1.8,0.6,3.1,1.7,3.9,3.3c3.2,6.7,6.4,10.9,11.7,1.4c3.2-5.7,6.5,1.2,10.2,0.4
		c3.8-10.3-3-19.8-2.4-29.9c3.8-14.2,17.8-20.1,30.7-12.7c2.9,1.7,5.2,2.8,8.7,1c15.4-7.9,16.9-7.1,20.5,9.6
		c1.6,10.6-5.7,20.7-2.2,32.4c4-3.6,7.1-4,9.4,1.7c2.6,6.6,6.4,5.5,10.1,0.6c6-7.9,6.1-8,10.2,0.7c1.7,3.5,3.7,3,5.5,0.5
		c3.4-4.7,6.1-11.1,11.1-0.9c1.7,3.5,5,0.9,7.2-0.9c4.8-3.9,8.7-9.1,9.7-15c2.4-14.2,13.7-21.5,22.1-31.1c6.9-0.7,13.4,1.5,19.6,3.7
		c8.1,2.9,14.8,1.3,22.1-2.7c9-4.9,18.1-11.3,29.5-4.8c4,2.3,6.9-2.4,9.9-4.6c8-5.6,17.1-4.8,21.4,2c1,1.5,1.2,3.3-0.3,4.8
		c-2.6,5.1-7.8,8-10.8,12.8c-0.4,1-1,1.9-2.2,2.1l-0.1,0.1c-3.4,7.9-10.7,11.4-17.4,15.8c-4,2.4-7.9,4.9-12,7.1
		c-24.1,13.5-50.2,18.3-77.4,18.7c-4.3,0.1-8.5-0.1-12,3c-2.8,1.5-5.9,1.7-9,1.6c-28.9-0.2-57.7-0.5-86.5-0.2
		c-19.9,0.2-40,2.7-60.1,2.1c-15.3-10.9-33.3-4.8-49.9-7.8c-12.6-2.3-25.1-4.3-36.9-9.2c-7-2.9-13.7-3.3-20.5,0
		c-7.4,3.7-15.7,3.9-23.6,6c-32.4,1.5-64.7,3.1-94.5-13.6c-3.3-2-6.8-3.6-10.1-5.5c-7-5.6-16.8-8-20.3-17.7
		c-6.8-7.8-14-15.4-18.2-25.1c-1.8-4.2-3.3-8.4-3.7-12.9C29.4,632.3,29.3,626.5,30.5,620.7z"/>
	<path class="st11" d="M595.7,661.1c-4.9-9-12.2-10.8-19.3-4.7c-1.3,1.1-2.5,2.5-3.8,3.7c-6,5.7-6.5,6.2-11.9,0.7
		c-3-3-4.9-2.4-8.1-1.3c-7,2.3-13.9,4.6-20,9c-5.9,4.2-12,4.7-18.9,1.3c-6.2-3.1-13.8-2.5-20-6c-2.5-5.1,1.2-8.8,2.9-12.8
		c8.1-18.5,17.9-36,24.9-55.2c4.5-12.1,10.2-23.6,12.2-36.6c0.4-2.5,1.4-5,4.5-5.1c3-0.1,4.1,2.4,5.2,4.6c0.5,1,0.8,2,1.1,3
		c3.6,12.8,4.4,13.8,14.1,6.4c5.8-4.5,12.6-7,18.2-11.9c8.2-7.1,15.1-14.3,11.7-26.1c-2.2-7.5,5.4-9.3,8.5-13.1
		c1.9-2.4,5.3,3.1,5.7,6.7c1.1,10.3-2,19.6-7.3,28.3c-8.5,10.4-14.2,22.8-24.7,31.6c-6.2,5.2-12.3,10.7-18.8,15.6
		c-5.4,4-9.9,8.7-7.2,16c2.8,7.6,10,12.4,16.7,10.4c17.1-5.2,36.6,3.1,52.2-9.5c2.5-2,5.9-2.2,9.1-0.8c1,0.6,1.6,1.4,1.8,2.5
		c0.1,1.1-0.1,2.2-0.6,3.1c-0.6,0.3-0.8,0.9-0.6,1.5c-0.3,1.1-1,1.9-1.6,2.8c-0.6,0.2-0.8,0.7-0.6,1.3c-0.1,1.3-1,2.1-1.8,3
		c0,0-0.1,0.1-0.1,0.1C611.5,640.1,605.6,652.1,595.7,661.1z"/>
	<path class="st12" d="M150.1,642.2c3.1,3.4,7,7.6,5.1,11.8c-2.1,4.6-8.2,5-13.1,5.1c-30,1.1-58-5.2-82.9-22.9
		c-3.3-2.3-5.7-4.9-7.9-8.3c-4.1-6.5-8.8-12.7-13.3-18.9c-0.5-0.7-1.9-0.7-2.9-1c-0.2-3.6,3.4-5.4,4-8.5c0,0,0.2-0.4,0.2-0.4
		c0.8-0.4,1.4-1,1.7-1.8l0.5-0.5c0.8-0.3,1.4-0.8,1.7-1.7l0.4-0.4c0.8-0.5,1.2-1.1,1.5-2c0.2-0.4,0.3-0.8,0.5-1.2
		c0.5-0.8,1-1.5,1.7-2.1c0.4-0.3,0.7-0.6,1.1-0.9c0.8-0.5,1.7-0.9,2.7-1.1c1-0.1,2,0,2.9,0.3c0.9,0.5,1.6,1.2,2.2,2
		c2.6,4.4,3.2,9.4,3.3,14.4c0.1,4.8,1.5,8.1,6.8,9.2c8.1,1.7,15,6.3,22.2,10.2c11.6,12.4,26.5,17,42.9,17.5
		C137.6,641.2,143.9,641.5,150.1,642.2z"/>
	<path class="st12" d="M35.1,608.1c0.3,1.9-0.4,3.3-1.9,4.3C32.8,610.5,33.5,609.1,35.1,608.1z"/>
	<path class="st13" d="M593.6,550.5c4-10.4,9.2-20.6,4.4-33.4c-3.7,4.8,2.1,8.9-1,12.6c-3.6,0.4-2.9-4.6-5.9-5.1
		c-0.2,0.5-0.8,1.2-0.7,1.5c8.2,14.6-2.7,24-10.7,32.9c-1.7,1.9-4.7,3.3-6.2,6.6c-0.6,1.4-2.5-1.5-4.2-2.6c-2.8,2.7,2.7,6.7-1.6,9.2
		c-2.9-1.1-1.6-6-5.2-6.8c-2.3,3.2,0.7,7.8-3.1,11c-3.4-1.2-0.6-5.2-2.9-6.8c-4.8,2.3-1.6,8.8-5.8,11.4c-3.4-1.5-0.5-5.3-2.8-7.1
		c-2,1-1.2,4.2-4.8,4.8c-1.6-7.4,1.7-16.1-5.5-23.4c-2.1,11.3-1.6,23.6-7.6,31.7c-9,12.3-10,27.3-17.9,39.7
		c-7.3,11.6-12.5,24.6-18.5,37c-1.5,2.8-2.9,5.7-4.4,8.5c-0.7,1.3-1.3,3.4-2.1,3.5c-10.5,1.5-9.1,10.8-11.9,17.4
		c-2.6,6.2-5,12.5-10.2,17.2c-3.6,3.2-7.7,6.3-12.2,5.1c-4-1-0.1-6.6-2.8-9.4c-2.2,0.9-3.2,2.9-3.3,5c-0.4,6.4-4.9,6.2-9.2,5.5
		c-4.7-0.8-3-4.8-3.1-7.7c-0.1-1.6,1.5-3.2-0.1-4.7c-2.7,1.3-2.7,4.1-3.6,6.3c-2.5,6-7.1,8.1-13,6c-2-0.7-2.7-2-2.8-3.9
		c-0.1-2.1-0.2-4.1-0.3-6.2c-4.6,0.6-2.9,5.5-5.8,7c-3.8-1.7-4.6-4.9-4.7-8.7c-0.2-6.5,0.8-12.7,2.6-18.9c1.1-3.8,2.5-7.4,1.9-11.4
		c-1.5-10.1-4.6-20.2-0.3-30.3c12.8-15.2,17.9-34.3,25.8-51.9c0.7-1.6,0.8-3.5,0.8-5.2c0.1-1.8,0.3-3.9-1.1-5
		c-2.2-1.7-4,0.2-5.6,1.4c-5.1,4.1-10.7,7-17.2,8c-5.9,1-12.1,0.4-14.9-5.4c-3-6.3,3-9.4,6.9-12.8c3.7-3.2,8.7-4.2,14.5-8.9
		c-10.1,6.6-18.4,7.5-27.3,3.6c-5.7-2.5-9.3-6.4-9.8-12.8c-0.4-6,2.6-10.1,7.6-13c3.4-2,6.6-4.7,10.3-5.4
		c9.6-1.9,12.9-6.9,12.4-16.8c-0.3-4.5-0.5-6.6-4.6-8.9c-5.3-2.9-9.6-7.5-12.8-12.6c-2.9-4.7-6.5-8.1-11.1-11.1
		c-10.4-6.8-10.6-17.5,0.4-22.3c21.5-9.4,41.9-23,67.2-19.9c5,0.6,9.8-1.3,14.2-3.7c18.3-10,36.4-21,56.8-25.8
		c12.6-2.9,18.8-11.4,26-19.9c0.8-0.7,1.6-1.2,2.6-1.5c12.5,1.7,18.1-9.2,26.1-15.1c4.2-3.1,1-8.4-3.7-11c-3.2-1.8-6.4-3.4-9.7-5.1
		c-1.6-0.8-3.1-1.6-4.7-2.4c-1.2-0.5-2.4-1-3.7-1.5c-1.3-0.5-2.5-1.3-3.3-2.4c-0.3-1-0.2-1.9,0.1-2.8c0.8-1.3,2-2.1,3.5-2.4
		c9.6,2,18,7.1,27,10.9c3.5,1.5,6.7,3.7,10.8,2.2c4.4,0.9,6.1,4,7,8c-0.1,1.2-0.9,2-1.9,2.5c0,0-0.5,0.7-0.5,0.7s0.8,0.4,0.9,0.4
		c3.3,3,6,6.7,10,8.9c5,3,4.8,9.1,7.9,13.3c4.8,7.7,10.3,15.1,12.2,24.3c0,1-0.1,1.9-0.2,2.9c1.9,11.7,6.2,22.5,12,32.8
		c2.7,13.9,5.4,27.8,11.7,40.6c0.5,1.9,0.6,3.8,0,5.6c-0.3,0.8-0.8,1.4-1.5,2c-0.6,0.1-1.2,0.2-1.8,0.1c0.2,0.7,1,0.9,1.4,1.5
		c1.8,2.9,2.3,6,1.9,9.3c-1.4,9.3-0.1,19.1-4.1,28.1c1.6,4.6-0.8,8.9-1,13.4c-0.1,1.5-0.4,3-0.8,4.4c-1,2.8-1.4,5.6-1.6,8.5
		c-0.2,1.5-0.6,2.8-1.3,4.1c-1.2,1.4-2.7,2.7-3.2,4.7c-0.2,1.2-0.4,2.5-0.6,3.7c-0.8,1.5-0.7,3.3-1.5,4.8c-0.1,0.7-0.3,1.4-0.4,2.1
		c-1.2,1.2-0.9,3-1.7,4.3c-0.2,0.7-0.3,1.4-0.5,2.1c-1.2,1.2-0.8,3.1-1.8,4.3c-0.4,0.5-0.6,1.1-0.4,1.7c-0.5,0.9-1,1.7-1.6,2.5
		c-0.5,0.6-0.7,1.2-0.5,1.9c-1.1,1.3-0.7,3.3-2,4.6c-0.4,0.3-0.5,0.7-0.2,1.2c-0.1,1.2-0.9,2-1.4,3c-0.4,0.6-0.6,1.2-0.6,1.9
		c-0.4,0.7-1,0.9-1.8,0.6c-0.2-0.7-0.4-1.4-0.6-2.1c-0.8-1.6-2.2-1.3-3.6-1.5c-5.9-0.5-8.6-3.3-8.7-9.6c-0.1-6.4-1-7.2-6.7-4.7
		c-12.8,5.7-20.8-2.5-29.6-8.9c-2.9-2.1-3.3-5.3-1.5-8.6c0.5-0.9,0.9-1.9,1.6-2.7C582.6,571.9,587.5,560.8,593.6,550.5z"/>
	<path class="st14" d="M512.7,98.5c0.7-0.2,1.4-0.5,2.1-0.7c0.8-0.3,1.6-0.8,2.3-1.4c0.7-0.2,1.3-0.5,2-0.7c0.8-0.4,1.6-0.9,2.4-1.4
		c0.7,0.1,1.3-0.1,1.8-0.6c9.8-3.1,19-8,29.1-10c4.9-1,9.6-1,9.2,6.2c-35.1,3.7-56.7,29-83.2,50.2c8.1,3.4,14.2,1.9,20,2.3
		c6.6,0.3,11.8,1.7,16.6,7.4c5.1,6,13.1,9.5,19.9,13.9c7.2,4.7,14.1,10.3,18.8,16.9c3.1,4.4,4.6-0.4,6.2,1.2
		c-0.9,5.5,1.2,10.5,3.4,15.2c2.5,5.1,6.2,9.4,7,15.4c0.6,4.9,6.4,5,9.5,8.3c-1.5,0.8-2.7,1.4-4.4,2.3c0.4,3.7,5.9,5,5.1,9.3
		c0,0-0.3,1-0.3,1c-0.8,0.1-1.4-0.2-1.7-0.9c-0.4,0.5-0.7,0.7-0.7,0.7c0.6-0.8,1.1-0.7,1.6,0.2c0.8,0.8,1.7,1.5,2.5,2.3
		c0.6,0.6,1,1.2,1.5,1.8c0.4,0.7,0.8,1.4,1,2.2c0.2,0.9,0.3,1.7,0.3,2.6c0,1.3-0.2,2.6-0.1,3.9c0.2,0.7,0.3,1.5,0.5,2.2
		c0.4,1,0.7,2,1.2,3c0.3,0.6,0.6,1.2,0.9,1.9c0.5,0.9,0.9,1.9,1.4,2.8c0.4,0.6,0.7,1.2,0.9,1.9c0.5,0.9,0.9,1.9,1.4,2.9
		c0.3,0.7,0.5,1.4,0.7,2.1c0.4,1.1,0.8,2.2,1.1,3.2c0.3,0.8,0.5,1.5,0.7,2.3c0.3,1.2,0.4,2.4,0.5,3.6c0.1,0.8,0.2,1.5,0.3,2.3
		c0.2,1.1,0.4,2.2,0.6,3.3c0.1,0.8,0,1.5-0.1,2.2c-0.7,1.5,0.2,2.8,0.7,4.2c0.1,0.9,0,1.8-0.2,2.7c-0.6,1.4-1.6,2.5-3,3.2
		c-12.3,2.6-24.8,1.5-37.1,0.9c-10.3-0.5-14-9.1-13.8-17.4c0.5-18.2-12.7-24.1-25.5-29.4c-8.5-3.5-17.1-6.8-25.5-10.5
		c-8.6-3.8-14.5-9.5-18.5-18.1c-5.4-11.7-10.2-12.7-21.8-6.3c-4.3,2.4-8.8,5.6-8.6-3.4c0.1-3.3-2.6-3-4.6-2.7
		c-10.1,1.7-20.4,1.7-30.6,3.5c-23.6,4.1-46.8,11.6-71.4,9.3c-11-1-23.1-0.7-30.1,11.3c-1.5,2.5-4.5,3.8-7.5,3.3
		c-11.3-2.1-24-1.6-30.2-14.4c-2.4-5-6.3-4.6-10.8-3.6c-13.7,3.1-28,0.7-41.7,3.9c-2.3-1.8-4.8-3.3-7.2-4.8c-1.2-1.6-1.4-3.4-1-5.3
		c0.2-0.8,0.6-1.6,1.1-2.4c1-1.3,2-2.6,2.7-4.2c0.3-0.7,0.7-1.4,1.2-2.1c0.4-0.7,0.8-1.3,1.3-2c0.2-0.3,0.4-0.7,0.6-1
		c0.5-1,0.9-2.1,1.3-3.2c0.2-0.8,0.4-1.5,0.6-2.2c0.2-1.2,0.3-2.4,0.4-3.6c0.2-0.9,0.5-1.7,1-2.4c0.9-1.1,2.1-1.9,3.4-2.5
		c11.1-5.7,20-14.5,29.9-21.9c14.1-10.4,28.4-18.5,47.2-17.7c-23-23.7-46.9-45.4-80.3-52.8c-0.6-0.5-0.9-1.1-0.8-1.7
		c0-0.7,0.1-1,0.3-1c0.8-0.9,1.6-1.8,2.4-2.7c2.2-1.7,4.4-1.4,6.6,0.1c1.3,0.2,2.7,0.4,4,0.5c0.4-0.1,0.9-0.1,1.3-0.2
		c1.3-0.3,2.7-0.2,4,0.1c0.9,0.2,1.8,0.4,2.7,0.7c1.9,0.6,3.8,1.1,5.5,2c15.1,4.4,29.1,11.2,42.3,19.6c7.4,4.8,14.9,5.6,23.3,4
		c11.5-2.2,22.8-5.4,34.6-5.3c4.6,1,9,2.7,13.8,2.5c1.3-0.1,2.6,0,3.9,0.1c1.6,0.2,3.2,0.4,4.7,0.4c0.8,0,1.5,0,2.3,0.2
		c1.1,0.2,2.1,0.6,3.1,1c0.6,0.2,1.3,0.3,2,0.3c0.7-0.2,1.3-0.5,1.9-0.9c0.7-0.2,1.4-0.3,2.1-0.1c0.7,0.3,1.3,0.7,1.8,1.2
		c0.2,0.3,0.3,0.6,0.5,0.9c0.4,1.3-1.2,1.2,0.2,0.7c0.5-0.2,0.4-1.2,0.7-1.8c0.4-0.7,0.9-1.2,1.5-1.7c1.3-1,2.7-1.7,3.8-2.8
		c0.6-0.6,1.3-1.1,2-1.6c1.4-0.2,3-2.3,4,0.4c-0.3,0.5-0.1,0.9,0.3,1.3c0.5,0.5,1.1,0.9,1.8,1.1c0.7,0.3,1.3,0.6,1.9,0.9
		c1,0.5,2,0.8,3,1.1c0.8,0.2,1.5,0.6,2.1,1c1,0.9,2,0.9,3.2,0.4c0.8-0.3,1.6-0.5,2.5-0.7c3.5-0.4,7.1-0.3,10.6-1.3
		c1.3-0.2,2.7-0.3,4.1-0.2c3.6,0.5,7-0.4,10.5-0.9c1.8-0.2,3.5-0.7,5.3-1.1c1.4-0.3,2.7-0.3,4.1,0c0.8,0.4,1.7,0.8,2.4,1.3
		c0.4,1.3,0.3,2.4-1,3.1c0.1,0-0.9,0.2-0.9,0.2s1,0.2,1,0.2c1.6-0.4,2.7-1.7,4.2-2.2c9.1-0.2,17.9,1.5,26.2,5.2
		c1.4,0.1,2.9,0.2,4.3,0.3c2.8-0.8,5.6,0.6,8.5,0.1c0.8-0.2,1.5-0.5,2.3-0.7c0.8-0.2,1.4-0.7,1.9-1.4l0.1-0.1
		c0.8-0.8,1.7-1.6,2.9-1.8c0.6,0,1.1-0.2,1.4-0.6c0.9-0.5,1.6-1.3,2.6-1.6c0.7,0,1.2-0.2,1.7-0.7c0.8-0.5,1.6-1,2.4-1.5
		c0.7,0,1.3-0.2,1.8-0.8c0.8-0.4,1.6-0.9,2.2-1.4c0.7-0.3,1.4-0.5,2-0.8c0.8-0.3,1.5-0.7,2.1-1.4c0.7-0.3,1.4-0.5,2.1-0.8
		C511.4,99.6,512.1,99.1,512.7,98.5z"/>
	<path class="st15" d="M559.9,181.8c-2,0.6-1.9,2.8-3.4,4.3c-11.6-11.7-24.8-21.5-38.7-30.3c-2.6-1.6-7.5-0.3-6.5-6.6
		c0.4-2.6-4.7-3.5-8-3.6c-6.7-0.2-13.5-0.1-20.2-0.4c-2.6-0.1-6.4,1.4-7.6-1.9c-1.2-3.3,1.6-6,4-8.1c8.8-7.6,17.6-15.4,26.8-22.6
		c12-9.4,24.7-17.7,39.1-23.2c5.6-2.1,10.9-3.1,16.2,0.6c1.5,4,2.5,8.1,2.5,12.4c1.3,13.1,1,26.1,0.1,39.2
		C566.1,155.3,561.2,168.4,559.9,181.8z"/>
	<path class="st16" d="M564.2,141.5c0-13.1-0.1-26.1-0.1-39.2c0.5,0.3,1.1,0.5,1.6,0.7C565.5,115.9,567.9,128.8,564.2,141.5z"/>
	<path class="st17" d="M40.9,597.4c-0.6,0.6-1.1,1.2-1.7,1.8C39.8,598.6,40.4,598,40.9,597.4z"/>
	<path class="st18" d="M410.5,642.4c-0.6,10.6-3.3,21-2.2,31.8c-3.8-2.8-1.1-7.4-2.9-10.9c-2.3-1.2-4.3,2.6-6.8,0.4
		c-2.1-1.9-4.4-0.8-4.8,1.6c-0.7,4.8-5,2.7-7,4.3c-4.6,3.6-4.4-1.9-6-3c-3.9-2.7-7.3-5-11.9-1.7c-0.8,0.6-2.1,0.9-3,0.7
		c-9.1-2-11.2,4.3-13.2,10.9c-3.6,0-3.7-2.8-3.7-5.1c0-12.4-3.6-24.2-5.9-36.2c-1.4-10.8-7.1-19.9-12.1-29.3
		c-1.1-2.1-2.3-4.8-5.3-4.4c-2.5,0.3-3.2,2.7-3.8,4.7c-2.2,8.8-8.4,13.8-16.3,17c-15.4,6.3-22.5,16.6-20.4,33.9
		c0.9,7.6,2.7,16.3-2.8,23.6c-5.1-1.6-8.4-4.9-10.4-9.8c-8.1-20.1-19.4-38.6-29-58c-3.7-7.5-3.9-15.7-6.2-23.9
		c-2.4,2.7-0.4,6.3-2.6,9.3c-5.7-9.7-5.9-20.5-8.1-31.1c-3.7,1.4-3.2,4.4-3.4,7c-6,11.4-9.9,11.8-17.6,1.4c-8-10.9-12.2-23-11-36.8
		c-3,7.8-2.9,8-1.2,20.8c1,7,2.8,15.6-4.8,19.1c-7.1,3.3-15.3,0.6-21.8-4.6c-4.7-3.7-9-7.9-13.7-11.7c-9.8-8-21.4-10.3-33.3-12.3
		c-2.7-1.8-3.4-4.5-3.5-7.5c-0.4-10.5-1-21-0.4-31.6c0.2-1.7,0.7-3.2,1.6-4.6c2-2.2,4.6-2.2,6.8-0.8c4.6,3.2,8.1,2.6,11.8-1.7
		c3.6-4.2,7.5-3.1,10.6,1.1c1.1,1.4,1.7,3.1,2.8,4.5c4.6,6,8.1,14.7,17.2,13.2c15-2.5,25.1-13.1,26.2-24.9c0.5-5.3-2.4-8-6.7-9.5
		c-5.7-2-9.3-5.8-9.2-11.7c0.3-12.8-5.7-24.9-3.6-37.8c1-5.9-1.4-7.6-7.2-5.9c-7.7,2.3-15.4,2.3-22.1-3.2c-1.1-2.4-3.2-2.1-5.2-1.8
		c-0.9-0.2-1.6-0.7-2-1.5c-0.3-0.9-0.4-1.7-0.3-2.6c0.2-1.3,0.7-2.5,1.3-3.7c0.4-0.8,0.8-1.6,1.3-2.3c0.5-0.7,1-1.4,1.6-2.1
		c0.3-0.3,0.6-0.7,0.8-1c0.5-0.7,1.1-1.4,1.7-2c0.3-0.4,0.5-0.7,0.8-1.1c2.3-3.4,3.8-7.4,7.2-9.9c0.7-0.6,1.4-1.2,2.2-1.8
		c0.4-0.3,0.7-0.6,1.1-0.9c5.4-4.8,10.5-10,16.8-13.7c2.6-1.6,5.1-3.5,7.8-4.9c2.7-1,5.4-2,7.5,1.1c6.9,21.5,17.2,30.1,39.6,29.1
		c14.8-0.7,25.8,7.3,37.5,13.2c14.5,7.4,25.9,6.7,37.1-5.4c6.2-6.7,14.7-8.4,24.3-8.2c45.3,1.2,90.6,5.2,136,0.5
		c14.4-1.5,28.1-4.6,36.9-17.8c1.6-2.9,4.3-4.6,7.3-5.6c8.2-2.7,16.1-6.5,24.6-8.5c1.1-0.1,2.2,0,3.2,0.4c4.9,3,10.6,6.4,10.1,12.6
		c-0.5,6-7.4,6.9-12.1,9c-5.5,2.5-11.1,4.8-17,6.2c-13,3-23.4,10-32.5,19.2c-6.5,6.7-13.9,10.7-23.5,10.7c-3.9,0-7.9,0.9-11.3,2.8
		c-12.5,7.3-26.7,9-40.4,12.2c-7.9,1.9-15.9,3.6-23.6,6.6c-13.3,5.1-23.8,13.7-33.1,24.2c-9.3,10.5-10.5,30.2-2.6,41.7
		c7.5,10.8,12.4,23.1,19,34.5c3.2,5.5,3.3,11.3,1,17.4c-2.9,7.9-1.6,11.2,5.2,16.4c2.8,2.2,6,3.8,8.7,6.2c7.9,6.8,8.6,9.2,5.8,19.6
		c7.6-1.2,12.9-6,18.5-10c3.9-2.7,7.4-7.9,12.9-4.1c5.3,3.6,2.7,8.9,1.2,13.6c-1.5,4.7-2.8,9.6-3.3,14.5
		C415,636.2,413.3,639.5,410.5,642.4z"/>
	<path class="st19" d="M126.4,589.6c-4.1-9-4.6-18.8-6.2-28.3c-2-4.3-2.8-8.5-0.3-12.9c17.6-2.3,30.5,7,42.5,17.7
		c5.8,5.2,11.1,9.6,19.5,10.6c6,0.7,7.6-1.3,8.6-5.9c1.2-5.7-1.2-11.1-1.8-16.7c-0.5-4.6-0.5-9.2,0-13.8c0.4-3.4-2.2-9.7,2.8-9.4
		c3.9,0.3,7.9,7.2,6.9,11.4c-3.5,14,4.4,23.7,11.1,33.9c2.7,4.1,6.8,9.1,9.7-0.4c0.4-1.4,2.2-1.6,3.6-1.8c0.4,6.6,0.9,13-9.1,12.4
		c-2.9-0.2-3.5,2.7-2.2,5.6c1.5,3.3,4.1,5.7,6.6,8.2c0.7,0.8,1.5,1.5,2.2,2.3c6.2,6.7,13.4,13.7,11.5,23.5c-1.1,5.6-26.1,9.4-33.7,6
		c-7.5-3.3-14.1-8-19.8-13.9c-13.6-13.9-29.7-23.7-48.2-29.6C128.5,588,127.3,588.4,126.4,589.6z"/>
	<path class="st20" d="M282.4,680.5c0-13.1,0.1-26.2-0.1-39.3c-0.1-5.6,1.8-9.6,7-12c6.4-2.9,11.5-8,18.2-10.5
		c6.4-2.4,11.5-7,11.3-15.1c-0.1-3.9,2.4-6.8,6.2-7.7c4.6-1.2,5.9,2.8,7.6,5.9c5.4,10.3,11.6,20.3,13.7,32c-3.8,1.1-6.3-1.3-8.1-3.7
		c-5.8-8-8.9-3.7-11.5,2.4c-5.1,12-10.1,24-6.2,37.6c1.9,6.8-0.6,13.3-3.2,19.5c-2.4,5.8-3,9.6,5.3,8.9c2.2-0.2,5.4-0.4,4.6,3.7
		c-2.6,1.9-1.5,4.3-0.9,6.7c0.6,2.7,2,6-1.7,7.3c-3.4,1.2-7.1,1.2-9.5-2.4c-1.1-1.7-2.1-3.6-3.4-6c-2.6,1.8-0.9,6-4.2,6.7
		c-3,0.6-5.6-0.5-8.1-1.9c-8.3-4.8-11.2-13.4-14.4-21.6C283.7,687.6,283.2,684,282.4,680.5z"/>
	<path class="st21" d="M327.1,702.1c-3.5-4-7.1,0.6-10.9,0c-4.3-0.7-7.4-1.7-4.9-6.5c5.6-11,6-21.6,4.5-34.3
		c-1.6-13.7,5.2-28.1,13.7-40.2c2.2-3.1,4.6-0.8,6,1.1c3.2,4.2,5.8,8.9,10.6,11.7c3,14.1,6.5,28.1,6.5,42.6c1.5,9,4.9,17.7,4.3,27.1
		c-0.3,4.7-0.2,4.7-4.9,9.5c-3.2-1.4-2.5-5.9-6.6-7.7c-1.7,3.8-1,9.5-7.4,10.4c-3.9,0.5-5.9,0.2-7.1-3.8
		C330.1,708.5,328.4,705.4,327.1,702.1z"/>
	<path class="st22" d="M504,719.3c-2.7,0-5.5,0-8.2,0c-10.7-0.2-21.5-0.4-32.2-0.6c2-3.1,4.1-4.7,8.5-4.6
		c26.8,0.9,52.5-3.6,76.5-16.3c1.5-0.8,3.2-1.5,4.8-2.2c2,3.2,5.5,1.6,8.2,2.4c6,2.1,12.6,2,18.6,4.2c3.7,1.4,7.9,2.9,7.2,7.7
		c-0.6,4.2-4.9,4.8-8.4,5.1c-2.8,0.2-5.6,0.1-8.1,1.8c-18.4,2.8-37.1-0.8-55.5,3.1C511.8,720.6,507.7,720.7,504,719.3z"/>
	<path class="st19" d="M128.8,597.7c-1.5-1.2-1.9-2.7-1.6-4.5C128.7,594.3,129.1,595.9,128.8,597.7z"/>
	<path class="st23" d="M593.6,550.5c-2.9,12.8-9.7,23.5-17.6,33.6c-2.6,3.3-3.1,5.3,1.1,7.2c3.2,1.5,6.1,3.5,8.9,5.7
		c5.1,4.1,10.7,5.3,16.6,1.3c1.2-0.8,2.5-1.4,3.8-1.8c6.4-2.3,8.9-0.5,8.3,6c0,0.4,0,0.7-0.2,1c-3.3,6.9,0.3,9.7,6.4,11.3
		c0.8,0.2,1.4,1.4,2.2,2.2c-4.1-0.7-7.4,0.5-10.9,2.9c-8.3,5.8-17.2,9.4-27.7,5.7c-5.3-1.8-10.4,0.7-15.4,2.4
		c-8.4,2.9-15.8,1-22.8-4.2c-8.4-6.2-8.4-19.4,0.7-25.2c9.3-5.9,17.4-13.2,25.1-21c5.7-5.8,11.5-11.5,14.5-19.3
		C588,554.9,590.3,552.2,593.6,550.5z"/>
	<path class="st24" d="M77.8,582.2c7.8,0.8,15.2,3.1,21.8,7.3c4.5,2.9,8.3,6.5,10.8,11.3c4.1,8.1,2.8,13.5-4.9,19.8
		c-5.3-5.2-11-6.6-17.3-1.6c-2.9,1.3-1,4-1.7,6c-7.3-1.5-12.7-7.4-20-8.9c-9.7-2-10-2.1-9.9-11.4c0.1-5.8-2.2-11-2.5-16.6
		c-0.6-0.5-0.6-1-0.1-1.5l0.3-0.1c0.9-0.6,1.6-1.4,2.7-1.7c0.7,0,1.2-0.2,1.7-0.7c1-0.5,1.8-1.3,2.9-1.4c0.4,0.4,0.8,0.4,1.1,0
		c0.8,0,1.6-0.1,2.3-0.1C69.3,582.5,73.5,582.4,77.8,582.2z"/>
	<path class="st25" d="M410.5,642.4c2.5-10.2,2.3-21.1,7.5-30.7c1.3-2.4,0.8-4.9-1.7-6.5c-2.3-1.5-4.2,0-5.5,1.6
		c-4.7,6.1-11.9,8.8-17.9,13.1c-1.7,1.2-3.7,2.2-5.7,2.7c-3.7,0.8-6.2-1.5-7.5-4.5c-1.3-3,1.8-3.1,3.6-4c3.9-2,3.9-4.7,1-7.6
		c-3.8-3.7-7.1-8-12.2-10.1c-4.5-1.8-7.4-5.2-9.6-9.5c-2-3.9-2.6-7.3,0.4-10.8c4.5-5.2,3.5-10.7,0.3-15.7
		c-7.7-12.3-11.9-26.4-21.6-37.6c-3.8-4.3-4.1-9.8-3.4-15.2c1.3-11.7,3.2-22.6,13-31.7c7.4-6.8,14.7-12.7,23.5-17.4
		c13.4-7.2,28.1-9.4,42.6-12.2c7.9-1.5,15.5-3.2,22.5-7.3c6.5-3.8,13.5-6.2,21.2-5.8c5.7,0.4,10.2-2.1,14.2-6
		c4.1-3.9,8-7.9,12.5-11.5c7.1-5.6,14.7-9.3,23.5-11.7c10.5-2.8,20.8-6.5,30.3-12.3c-2.1-5.2-7.4-7.2-9.4-11.9
		c-6.3-3-6.6-7.5-1.1-10.9c6.7-4.2,12.7-9.8,20.4-12.4c1.3,0.1,2.6,0.2,3.9,0.3c1.1,0.2,1.8,0.9,2.5,1.8c1.6,0.3,3.3,0.5,4.3,2
		c-4.3,6.4-11.3,9.4-17.1,13.9c-2.2,1.7-5.5,3-3.3,6.5c2,3.3,5.2,3.3,8.4,1.7c4.2-2.1,7.3-5.5,10.6-8.7c3.6-3.3,6.5-7.6,11.7-8.7
		c4.3,1.7,9.6,3,8.5,9c-1,5.3-1.3,11.7-9.3,12.2c-3.8,0.2-6,3.5-8.3,6.2c-5.9,7.1-5.9,7.2-14.1,2.1c-0.3-0.4-0.7-0.8-1.1-1.1
		c0.4,0.4,0.7,0.8,1.1,1.1c-1.5,7.2-9.1,10.7-10.9,17.8c-0.2,0.7-1.7,1.6-2.6,1.7c-8.8,0.9-16.2,6-24.4,8.3
		c-9.5,2.7-18.3,6.2-27,11.5c-13.2,8-26.4,16.9-44.2,13.6c-7.3-1.4-16.8,1.1-24.1,5c-9.1,4.9-18.5,8.8-28,12.6
		c-2,0.8-4.1,1.4-5.8,2.6c-7.1,4.8-7.2,11.9,0.2,16c6,3.3,10.2,7.3,14,13.3c4.3,6.8,10,15,23.3,12.6c-7.8,7.6-7.8,14.7-5.2,22.3
		c1,3-0.5,5.7-4.5,5c-10.3-1.8-16.9,5.9-24.4,10.4c-5.6,3.3-2.9,13.2,3.7,16.7c9.5,5.1,17.9,4.1,26.6-2.8c1.9-1.6,3.9-5.6,6.7-2.5
		c2.3,2.6-1,5-2.8,7.1c-2.4,2.8-5.7,4.2-8.9,5.8c-3.2,1.6-6.5,2.9-8.9,5.7c-1.7,2.1-5.5,3.5-4.5,6.6c1,3.3,4.8,4.4,7.9,4.5
		c7.7,0.3,14.6-2.2,20.4-7.3c3.1-2.7,5.9-7.7,10.5-5.2c4.2,2.4,2,7.8,2,11.9c0,4.7-2,8.9-3.9,13.1c-5,11.3-10.3,22.6-15.2,33.9
		C417.1,639,414.8,641.7,410.5,642.4z"/>
	<path class="st26" d="M587.6,358.7l0.3,0.5l-0.4,0.5c0.1,1.4,1,2.3,2,3.1l0-0.1c0.6,0.8,1.3,1.6,2.1,2.2c0,0,0,0,0,0
		c-1.5,2.6-3.3,5.1-6.5,2.8c-9.9-6.8-21.8-9.4-31.9-15.6c-5.1,3-9.5-0.1-14-1.7c-1.3-0.5-2.6-1.1-3.8-1.7c-1.3-0.4-2.6-0.9-3.9-1.3
		c-1.4-0.3-2.7-0.8-4.1-1c-2-0.3-4-0.6-5.9-1.2c-7.2-1.9-14.6-3.3-20.2-8.7c-1.9-1.8-4.5-1.9-6.9-2.6c-2.4-0.7-4.8-1.3-6.7-3
		c-2.2-1.9-3.8-4.2-2.9-7.4c0.9-3.2,3.2-4.4,6.4-4.4c6.7,0,13.4,0.1,18.1,0c-7.8,0.6-17.5-0.5-27.3,1.7c-8.9,1.9-18.3-1.5-27.4,1
		c-1.7,0.5-3.4-0.6-5-1.4c-13-6.5-26.2-12.6-38.8-19.8c-4.1-2.4-7.7-5.2-8-10.5c2.2-7.4,8-7.3,13.8-5.9c7,1.7,13.2,5.4,18.5,10.2
		c10.4,9.4,22.6,12.1,36.4,11.5c13.4-0.6,27.4,1.7,39.1-6.6c8.6-6.1,18-8,27.8-9.5c5-0.7,9.9-0.7,14.5,1.6c3.4,4.1,1.5,9.5,3.2,14.1
		c2.7,7.3,6.6,12.3,15.1,11.8c1.7-0.1,3.5,0.4,5.2,0.7c13,2.4,14.3,4.3,10.6,16.7c-1.3,4.4-2.6,8.6-1.6,13.2l0-0.1
		c1.7,2.1-2.2,4.3,0.1,6.5l-0.1-0.1C586.1,355.6,587,357.1,587.6,358.7z"/>
	<path class="st26" d="M551.1,356.6c-4.1,6.4-10.4,10-17.1,13c-5.6,2.5-5.7,3.6-2.1,10.3c-0.7,0-1.4,0.1-2.1,0.1
		c-3.9,0.2-7.7,0.5-11.5,1.6c-9.9,2.9-19.7,6.1-30.1,6.2c-3.9,0.1-7.6,1.6-11.3,3.1c-17.3,6.9-34.8,8.7-52.7,1.9
		c-7.3-2.7-15-4.2-22.7-5.6c-16.6-3.1-32.1-8.8-46.6-17.4c-9.5-5.6-19.9-9.4-29.6-14.5c-4.7-2.4-9.8-4.5-11.5-10.3
		c6.8-10.1,20.1-14,30.3-8.1c4,2.3,6.4,0.7,9.5-0.8c4.9,0.2,9.9-0.7,14.2,2.6c1.2,5.3-3.7,5.1-6.3,6.9c-2.2,1.6-6,1.9-5.5,5.5
		c0.4,3.1,3.6,4.1,6.2,5.3c2.6,1.2,5.3,1.9,8.1,2.5c5.3,1,10.2,2.9,14.8,5.7c8,4.8,16.6,7.4,25.9,8.8c9.3,1.4,18.2,1.9,27.2-1.3
		c4-1.5,8.3-1.8,12.6-1.7c12.6,0.3,24.6-2,36.1-7.3c9.8-4.5,19.3-4.3,27.3,4.1c0.7,0.5,1.3,1.2,2,1.7c1.1-1.7-0.7-0.7-0.9-0.8
		c-1.3-0.6,0.6-0.1-0.7-0.7c-2.6-4-6.5-6.3-10.6-8.4c-4.5-2.2-8.2-5.3-11.2-9.3c-2.2-2.9-3.8-6.1-1.1-9.6c2.4-3.2,6-3.9,9.5-2.6
		c6.2,2.3,12.6,4.3,19,5.8c1.4,0.4,2.7,1,4.1,1.3c1.3,0.2,2.5,0.7,3.8,1c1.2,0.2,2.4,0.6,3.5,1.1c1.1,0.5,2.2,0.9,3.4,1.1
		c1.2,0.2,2.3,0.7,3.3,1.2c1.1,0.5,2.2,0.9,3.3,1.3c1.1,0.4,2.3,0.8,3.4,1.1c1.1,0.5,2.3,0.8,3.5,1.3c1,0.5,2.5,0.5,2.7,2.1
		C551,355.4,551,356,551.1,356.6z"/>
	<path class="st18" d="M572,365.4c-6,7.4-12.4,14.5-20.5,19.8c-5.8,3.7-13.9,1.1-16-5.2c-0.7-2.2,0.6-3.7,2-4.4
		c8.7-4,14.8-12,24.2-14.9C565.6,361.3,568.9,363.2,572,365.4z"/>
	<path class="st27" d="M525.6,346.2c-1.4-0.2-2.8-0.3-4.2-0.5c-1-1.9-0.1-2.5,1.7-2.7c2.1,0.2,4.2,0.5,6.3,0.7
		c0.8,0.5,1.6,1.1,2.4,1.6c1.4,0.2,2.7,0.3,4.1,0.5c0.7,0.6,1.5,1.1,2.3,1.6c5,1.6,10,3.1,15,4.7c-0.7,0.9-1.4,1.8-2.1,2.6
		c-1.3-0.2-2.7-0.4-4-0.6c-0.7-0.6-1.5-1.1-2.3-1.6c-1.3-0.2-2.7-0.4-4-0.6c-0.8-0.5-1.6-1-2.4-1.6c-1.3-0.2-2.6-0.4-3.9-0.6
		c-0.8-0.5-1.6-1-2.4-1.6c-1.3-0.2-2.7-0.4-4-0.6C527.1,347.3,526.3,346.7,525.6,346.2z"/>
	<path class="st26" d="M557.4,358.6c-0.8-0.6-1.7-1.2-2.5-1.8C555.8,357.5,556.6,358,557.4,358.6z"/>
	<path class="st28" d="M214.5,167.9l0.2-0.7c0,0-0.5-0.6-0.5-0.6c-0.1-2.1,0.1-4.2-0.3-6.2c-0.7-3.4-1-7.3-2.8-10
		c-2.7-3.9,5-3.9,2.1-7.6c-2.2-2.9-0.2-6.9-1.3-10.2c-1.4-9.2-1.4-18.5,0-27.7c0.1-1.3,0.2-2.6,0.3-3.9c1.5-2,0.3-4.7,1.7-6.8
		c0.2-1.2,0.4-2.4,0.6-3.6c0.4-1.1,0.4-2.5,2-2.8c5.3-3.9,10.2-0.8,15,1.2c16.2,6.6,30.6,16.2,44.1,27.1c7.4,6,14.9,11.9,21.4,18.9
		c2.3,2.5,5.7,4.3,5.7,9c-3.1,1.8-6.8,1.5-10.1,1c-10.9-1.7-20.6,2.6-29.1,7.5c-7.3,4.2-14.5,9.7-21.2,15.2
		c-4.6,3.7-9.1,7.5-13.7,11.1c-3,2.3-6,5.1-10.3,4.8c-0.6-0.5-1.1-1.2-1.5-1.9c-0.4-1.1-0.4-2.3-0.4-3.5c0.1-0.8,0.2-1.5,0.5-2.2
		c0.5-1.1,0.2-2.2-0.2-3.2l-0.6,0.2C215.2,171.5,215,169.6,214.5,167.9z"/>
	<path class="st14" d="M216.5,87.8c-0.7,0.9-1.3,1.9-2,2.8c-0.3-1.9-0.2-3.6,1.4-4.9C216.1,86.4,216.3,87.1,216.5,87.8z"/>
	<path class="st29" d="M553.1,292.6c-11-0.5-22.1,0.4-32.2,4.3c-7.2,2.8-12.9,9.2-21.1,10.6c-1,0.2-2,1.2-2.9,1.2
		c-22.9-0.7-47.4,7.1-66.3-13.7c-4-4.4-10.2-6.4-15.8-8.3c-4.1-1.4-8.5-1.1-10.9,3.8c-0.9,2-2.4,3-4.7,2.8c-2-0.5-3.7-1.3-4.5-3.4
		c0.4-2.7-0.1-4.6-3.4-5.2c-2.8-0.5-6.8,0.2-6.9-4.6c8.1-8.5,18.1-9,28.5-6.5c9,2.1,17.8,4.8,26.4,7.9c3.9,1.3,6.1,4.6,9,7.2
		c8.9,7.7,20.2,9.2,29.4,3.9c9.6-5.5,13.7-15.2,11.4-27.1c-0.5-2.8-1.5-5.5-1.1-8.3c2.9-6.1-1.5-9.2-5.5-11.8
		c-9.5-6.1-19.7-6.4-30.2-3c-1.5,0.5-3,0.9-4.6,1.2c-1.1,0.2-2.2,0.2-3.3,0c-6.5-3-13-2.5-20.2-2.3c-13.5,0.5-27.4-0.2-40.7-4.1
		c-14.6-4.2-29.1-8.1-44.7-4c-6.2,1.7-11.5,5.5-17.7,6.8c-4.7,0.7-9.5,0.3-14.2,0.6c-1.5,0.2-2.9,0.3-4.4,0.6
		c-1.4,0.4-2.8,0.7-4.3,1c-1.5,0.4-3,0.7-4.5,0.7c-1.1,0-2.1-0.2-3.1-0.5c-10.5-5.4-19.7-2.8-28.4,4.3c-3.5,2.9-6.9,6.1-10.7,8.7
		c-6.2,4.2-12.7,4.9-18.4-0.5c-5.5-5.1-11.4-6-18.6-4.7c-6.5,1.1-13.5,2.1-18.3-4.7c0.6-2.7-3.5-5.8,0.8-8.2
		c1.1-0.4,1.6-1.3,1.8-2.4c0-1.1-0.2-2.1-0.1-3.2c0.1-0.7,0.1-1.4,0.1-2.1c-0.1-0.4-0.1-0.7-0.2-1.1c0.9-1.8,2.3-3.2,4.1-4.2
		c1.9-1.1,0.8-3.6,2.1-4.9c2.9-2.1,4.4-6.5,9.1-5.6c2.8,3.3,5.3,0.6,7.5-0.6c5.2-2.8,10-4.1,16.2-2.1c6.5,2.1,13.2,0.2,19.8-2
		c8.5-2.8,9-2.4,12.2,5.9c2.1,5.3,5.3,9,11.5,9.6c2.8,0.3,5.5,1.2,8.3,1.9c10.2,2.4,10.3,2.5,16.5-6.6c2.4-3.5,5.8-5.7,9.7-5.7
		c9.4-0.1,18.6-3.5,28.3-0.6c4.2,1.3,9.3,1.1,13.7-0.4c14.2-4.8,29.6-3.7,43.5-8.4c12.4-4.2,25.3-2.1,37.5-5.6
		c2.6-0.8,5.7-0.9,8.2,1.7c1.7,4-4.6,5-3.5,9.4c2.9-0.6,4.4-3.2,6.3-4.9c7.2-6.4,16.2-5.5,21.8,2.4c0.4,0.6,1.1,1.1,1.2,1.7
		c5.7,20.9,24.2,24.3,41,30.2c7.3,2.5,14.9,5,19.8,11.7c1.5,2.1,3.4,3.8,5.8,4.4c6.4,1.6,7,3.8,4.5,10.4c-2.3,6.1,0.1,13.8,4.9,19.6
		c2.5,3,5.6,2.5,8.8,2.5c12.1,0,24.1,0,36.2,0c0.2,0.5,0.4,1.1,0.6,1.6c-0.5,1.1-1.2,1.9-2.3,2.4c-3.8,1.7-7.8,1.2-11.7,1.3
		c-4.9,0.4-9.9,0.1-14.9,0.2c-2.7-0.3-5.3,0.1-7.9,0.5C555.8,294.2,554.3,293.7,553.1,292.6z"/>
	<path class="st30" d="M214.2,213.6c-2.8,2.3-4,6.7-8.7,6.6c-2.2,1-4.1,1.5-4-2.1l-0.1-0.6c0.8-0.5,1.6-1.1,2.5-1.6l0,0.1
		c0.9-1.4,0.4-3.5,2.4-4.3l-0.1,0.2c0.4-1.7,1.2-1.8,2.1-0.4C210.8,210.5,213.8,208,214.2,213.6z"/>
	<path class="st31" d="M581.1,237c0.6,0.9,1.2,1.8,1.7,2.7C582.3,238.8,581.7,237.9,581.1,237z"/>
	<path class="st32" d="M499.9,392.7c-0.3,4.7-3.1,7.6-6.8,10.2c-9.5,6.9-20.2,10.8-31.6,10.9c-23.4,0.2-46.7,4.5-70.1,2.2
		c-21.6-2.1-43.3-0.5-64.7-2.5c-12.5-1.1-20.6,2.5-28.6,11.2c-7.7,8.4-18.8,11.4-28.9,5.3c-5.7-3.5-11.5-7.1-18.5-7.8
		c-0.7-0.1-1.6-0.3-1.9-0.8c-7.2-9.6-17.6-7.6-27.3-7.3c-11.1,0.4-19.8-4.4-27.9-11.1c-7.1-5.9-10.5-13.2-9.1-22.5
		c0.5-5,5-6.2,8-8.8c7.6-3.6,14.7-8.1,22.7-10.8c2.3-0.5,4.6-0.3,6.8,0.5c15.5,8.7,31,17.1,48,22.6c22.9,7.5,46.5,10,70.2,11.3
		c17.3,0.9,34.8,1.3,52.1,0.2c15.8,0.2,31.6-0.7,47.4,1.1c11.5,1.3,23-2,34.4-3.5c4.9-0.6,9.7-1.7,14.6-2.2
		C492.7,390.4,496.6,389.6,499.9,392.7z"/>
	<path class="st33" d="M122.6,471.6c2.3-1.8,0.5-3.7,0.2-5.5c0.1-1.2,0.9-2,1.4-3c0.2-0.7,0.4-1.4,0.5-2.1c1.5-4.5,1.8-9.3,4.5-13.4
		c1.5-3.4,5.2-5.6,5.4-9.7c-0.2-0.9-0.1-1.8,0.4-2.7l0.1-0.2c1.3-1.4,0.4-3.5,1.7-4.9c2.2-1.4,3.6-4.4,6.9-3.4
		c7.2,5.2,14.8,5.8,23,2.6c9.2-3.6,9.9-2.7,9.4,6.9c-0.5,9.1-2.2,18.4,2.8,27c1.5,2.6,0.7,5.4,0.3,8.2c-1.1,7.8,0.9,10.7,8.5,13.8
		c8.6,3.5,10.2,6.8,7.1,15.4c-1.4,4-2.8,8-4.7,11.8c-1.9,3.9-4.7,7.2-9.3,8.1c-5.6,1.1-11,2.5-15.2,6.7c-2.3,2.3-4.3,1.1-6.3-1
		c-6.2-6.7-13.4-12.5-16.4-21.6c-0.3-0.8-1.5-1.3-2.2-2c-4.5,1.4-5.4,5.5-7.4,8.7c-1.5,2.3-3.1,2.5-5.2,0.9c-3-2.3-4.9-6.2-9.4-6.5
		c-0.7-2.3-2.9-4-3.1-6.6c1-7,4.5-12.9,8-18.9c1.3-2.2,4.3-3.9,2.5-7.2l0.2,0.2C124.1,475,122.5,475.3,122.6,471.6z"/>
	<path class="st34" d="M499.9,392.7c-35.9,7.2-72.3,6.6-108.7,6.3c-9.9-2.8-20.1-3.6-30.2-5.2c-3.5-0.5-7.1-0.5-10.4-1.9
		c-27.9-11.5-57.9-16.6-85.7-28.3c-6.2-2.6-11.7-5.4-11.8-13.3c2-6,7.4-6.3,12.3-7.5c2.2-0.1,4.2-0.7,6.2-1.4
		c1.5-0.5,3.1-0.8,4.6-1.3c9.3-2.7,19-7.1,26.3,3.9c0.8,3.1-0.9,4.6-3.6,5.5c5.2-1.5,8.3-8.7,15.1-5.5c4.5,4.7,10.4,7.1,16.1,9.9
		c14.5,7.1,29.2,14.1,43.6,21.5c9,4.6,18.7,6.3,28.3,8.4c9.3,2,18.8,3.7,27.6,7c14.8,5.6,29,3.3,43-1.9c7.4-2.7,14.4-5.4,22.5-5
		c7.6,0.4,14.3-3.7,21.5-5.3c4.8-1,9-1.3,13.3,1.2C520.6,386.3,509.1,386.9,499.9,392.7z"/>
	<path class="st35" d="M154.4,401.2c-0.9-1.6-1.1-3.2,0.3-4.7c3.3-3.5,6.7-7,10-10.4c2,0.4,3.8-1.7,5.9-0.6c0.3,0.3,0.6,0.6,0.9,0.8
		C165.7,391.1,160.9,397.1,154.4,401.2z"/>
	<path class="st36" d="M193.1,374.5c-2.9,2-5.8,4-8.6,6c-2.2,0.3-4.1,2.3-6.5,1.5c-0.1-0.5-0.3-1-0.4-1.5c3.5-6.3,8.4-10.1,16-8.9
		C193.9,372.7,193.8,373.7,193.1,374.5z"/>
	<path class="st37" d="M143.7,426.7c-1.8,1.5-3.6,2.9-5.4,4.4c-2.7,1.9-3.1,0-3.5-2c0.1-0.8,0.2-1.6,0.4-2.4
		c0.7-0.6,1.3-0.6,1.9,0.1c3.2-0.6,4.3-4.6,7.8-4.9C146.2,424,144,425.1,143.7,426.7z"/>
	<path class="st36" d="M177.9,382c-1,3.2-3.4,4.2-6.5,4.2c0,0,0,0,0,0c0-4.6,2-6.2,6.4-4.3L177.9,382z"/>
	<path class="st35" d="M152.3,403.4c0.2-1.2,0.7-2.1,2-2.2C154.3,402.5,153.6,403.2,152.3,403.4z"/>
	<path class="st30" d="M188.6,260.5c0.2-1.4,0.4-2.7,0.6-4.1c3.2-3.2,3.6-8.2,7.2-11.2c7.2,2.2,14.2,3.6,21.7,0.9
		c5.7-2,10.7-0.1,15.2,4.5c7.2,7.3,11.4,7.3,18.8,0.4c4.4-4.1,9.1-7.8,14-11.2c9.4-6.5,18.3-6,26.8,1.6c-0.8,8.6-9.4,8.3-14.2,12.4
		c0.9,5.1,6.9,4.9,8.6,8.9c0.9,2.8,0.2,5.6,0.3,8.4c0.7,19.1,19.6,30.2,36.5,21.3c3.4-1.8,6.3-4.6,10.2-5.6c11-0.6,21.2-4,31.4-7.7
		c5.3-1.9,10.5-2.7,12.7,4.6c0.9,2.6,1.8,5.2,0.7,8c-0.7,1-1.6,1.6-2.8,1.7c-2.1,0.3-4.6-0.7-6.3,0.4c-17.3,10.7-37.9,7.6-56.2,13.8
		c-14.3,4.8-28.4,8.9-43.5,7c-13.3-1.7-26.6-2.1-40-1.4c-5.3-6.8-4.6-16.9-12.3-22.5c-2.5-1.8-4.3-4.9-7.7-5.2
		C195.1,284.1,190,274,188.6,260.5z"/>
	<path class="st38" d="M88.1,619.1c-0.2-6.7,4.2-7,9.2-6.9c5.7,0.1,8.5,2.7,8.1,8.5C96.2,625.3,94.9,625.2,88.1,619.1z"/>
	<path class="st14" d="M201.5,218.1c0.9,1.5,2.4,1.9,4,2.1c0,1.9-0.6,3.3-2.5,3.8c-1-2.7-3.5-1.9-5.5-2.2c-1.9-2.4,0.9-2.8,1.7-4
		C200,217.9,200.7,218,201.5,218.1z"/>
	<path class="st14" d="M201.2,230.3c0,1.5,0.1,3.1,0.1,4.6c-0.6,0.7-1.3,0.9-2.2,0.7c-0.9-1.3-3.2-1.2-3.4-3.3
		c0.9-1.4,0.8-3.6,3-4.1c0.3,0.1,0.7,0.3,0.9,0.6C200.1,229.5,200.6,229.9,201.2,230.3z"/>
	<path class="st30" d="M198.8,234.7c0.8,0.1,1.7,0.1,2.5,0.2c-1.1,1.4-1.3,4.5-4.3,2.2c0-0.7,0.1-1.4,0.1-2.1
		C197.6,234,198.2,233.9,198.8,234.7z"/>
	<path class="st14" d="M218,175.7c-0.6-0.1-1.1-0.3-1.7-0.5c0.1-0.8,0.3-1.5,0.4-2.3C217.9,173.5,218.4,174.4,218,175.7z"/>
	<path class="st13" d="M593.7,288.2c0.7,0.1,1.4,0.1,2,0c0,0,0.1,0.1,0.1,0.1c1,1.4,3,0.8,4.1,2c1.8,0.1,3.6,0.3,5.4,0.4
		c-4.1,4.3-8.2,8.6-9.5,14.7c-0.1,1.7-0.2,3.5-0.3,5.2c1.1,3.1-4.7-2.8-3,2.4c1.2,3.5-1.5,7.5-1,11.4c0.1,1.1,0.2,2.1,0.2,3.2
		c-0.6,2.6-0.3,5.6-2.9,7.3l0.3-0.2c-0.2,1.1-1.1,1.6-1.6,2.5c0,0.7-0.1,1.5-0.1,2.2c0.6,0.9,0.3,1.5-0.6,1.9l0.1-0.1
		c-0.7,1.1-0.3,2.3,0,3.4c-0.6,1.1-1.1,2.2-1.7,3.3c-4.7-6.6-1.1-13.3,0.6-19.6c1-3.8,0.8-5.4-2.9-5.9c-6.3-0.9-12.4-3-18.9-2.3
		c-3.6,0.4-5.8-1-7.2-4.7c-2.7-7.4-9.1-14.1-3.8-22.9c1.4,0,2.9-0.1,4.3-0.1c1.7-1.9,4.4-0.3,6.3-1.8c5.7,0,11.5,0,17.2,0
		c3.5,2.6,5.7,6,6.5,10.7c0.4-5,2.3-8.6,6.3-11.1C593.6,289.5,593.7,288.8,593.7,288.2z"/>
	<path class="st29" d="M589.4,326.6c0.1-1,0.2-1.9,0.3-2.9c1.4-0.8,2.7-0.6,3.9,0.3c1.3,0.2,2.5,0.5,3.8,0.7
		c0.8,0.5,1.7,0.9,2.5,1.2c1.8,0.3,3.7,0.6,5.5,1c1.2,0,2,0.9,3,1.4c2.7,0.8,4.9,3.3,8.1,2.8c1.3,1.9,0.3,2.4-1.5,2.4
		c-1.3-0.3-2.6-0.5-3.9-0.8c-1.5-0.8-3.3-0.6-4.7-1.6c-0.7-0.1-1.4-0.3-2.1-0.4c-1.2-1.1-2.9-0.8-4.2-1.5c-1.4-0.2-2.8-0.4-4.2-0.7
		C594,327.3,591,329.1,589.4,326.6z"/>
	<path class="st29" d="M615.1,333.5c0.8-0.6,1.7-1.2,1.5-2.4c5.1,2.2,10.5,3.7,15.3,10.1C624.6,339.6,619.8,336.7,615.1,333.5z"/>
	<path class="st13" d="M585.4,354.3c-3.5-2.1-0.8-4.3-0.1-6.5C588,349.9,586.6,352.1,585.4,354.3z"/>
	<path class="st13" d="M587.6,358.7c-1.9-1-2.4-2.6-2.3-4.6C586.3,355.5,589.1,356,587.6,358.7z"/>
	<path class="st13" d="M589.5,362.8c-1.2-0.7-1.8-1.7-2-3.1C588.2,360.8,588.8,361.8,589.5,362.8z"/>
	<path class="st13" d="M591.6,364.9c-0.7-0.7-1.4-1.5-2.1-2.2C590.6,363,591.3,363.8,591.6,364.9z"/>
	<path class="st13" d="M546.8,392.7c-0.3-0.1-0.8-0.3-0.8-0.4C546.1,391.7,546.4,391.8,546.8,392.7L546.8,392.7z"/>
	<path class="st13" d="M546.7,392.7c0.7,0.7,1.4,1.4,2.1,2.1c0,0,0,0,0,0C548.2,394.1,547.5,393.4,546.7,392.7
		C546.8,392.7,546.7,392.7,546.7,392.7z"/>
	<path class="st27" d="M399.7,292.5c1.4-0.7,2.8-1.4,4.3-2.1c2.9,4.7,7.1,6.8,12.2,9.2c7.6,3.5,14.6,8.2,22.2,11.9
		c4.5,2.2,10.7,1.7,13.5,7.4c0.7,1.3,3,1.5,3.8,0.7c5.7-5.4,11.9-1.7,18-1.5c12,0.3,24.1,0.1,36.1,0.2c3.3,0,6.9-0.8,10,1.2
		c-1.1,3.9-3.4,2.4-5.1,1.9c-7.7-2-15.5-0.7-23.2-0.9c-2.9-0.1-4.7,1.7-5.1,4.4c-0.4,3,2,5.2,4.2,5.3c12.5,0.2,20.2,12.3,32.4,13
		c-0.6,0.9-1.1,1.8-1.7,2.7c-7.1-2-14.2-4-21.3-5.9c-2.9-0.7-5.8-0.7-7.5,2.3c-1.6,2.9,0.8,4.6,2.5,6.2c3,2.9,5.3,7,9.7,7.9
		c7.3,1.5,10.3,6.6,12.1,13c-2.3-0.8-5-1.1-6.9-2.5c-7.7-5.3-15.5-4.5-23.1-0.5c-11,5.8-22.7,7.7-34.9,7.2
		c-5.8-0.2-11.3,0.5-16.6,2.7c-6.1,2.5-12.3,2.5-18.7,1.6c-13.4-1.9-26.4-4.6-37.6-12.9c-4.5-3.3-10.2-2.3-15.3-3.9
		c-4.9-1.6-9.1-3.9-12.4-7.7c-2.3-2.7-2.8-5.7,1.8-7.4c4.9-1.8,9.6-4,14.5-6c0.1-0.8,0.5-1.5,1.1-2.1c0.9-0.8,1.8-1.6,2.8-2.3
		c1-0.7,2-1.4,3-2c1-0.6,2.1-1.2,3.2-1.8c0.7-0.4,1.4-0.8,2.2-1.1c1.1-0.6,2.3-1.1,3.5-1.5c0.8-0.3,1.7-0.5,2.5-0.6
		c1.7-0.2,3.5-0.2,5.2-0.1c2.2,0.2,4.1,1,6,2.1c1,0.6,2,1.3,2.9,1.9c0.6,0.3,1.3,0.7,1.9,1.1c0.9,0.5,1.8,1.1,2.8,1.5
		c0.6,0.3,1.3,0.6,1.9,0.9c0.9,0.5,1.8,0.9,2.8,1.4c0.7,0.2,1.3,0.5,1.9,0.8c1,0.3,2,0.6,3,0.7c1,0,2.1,0,3.1-0.1c1-0.2,2-0.5,3-0.9
		c0.7-0.4,1.4-0.7,2.1-1.1c0.6-0.4,1.1-0.8,1.7-1.2c0.5-0.3,0.6-0.8,0.3-1.4c-0.7-0.1-1.2-0.2-1.9-0.3c-0.8-0.2-1.5-0.5-2.2-0.8
		c-4-2.6-8,0.2-12,0c-1.5,0-3-0.3-4.4-0.9c-0.9-0.5-1.8-1.1-2.5-1.8c-0.7-0.7-1.3-1.5-1.9-2.4c-2.3-9.6-2.3-9.6,11.3-15.6
		c-8.3,0.9-14.3-2.1-17.8-9.4c-0.5-0.9-0.8-1.8-0.9-2.7c0-1.4,0.4-2.8,1.1-4c0.7-1.2,1.6-2.2,2.7-2.9c0.8-0.4,1.6-0.7,2.5-0.8
		C398.8,292.5,399.2,292.5,399.7,292.5z"/>
	<path class="st13" d="M531.7,345.4c-1.1,0-1.9-0.6-2.4-1.6C530.2,344.3,530.9,344.8,531.7,345.4z"/>
	<path class="st13" d="M538.1,347.5c-0.8-0.5-1.5-1.1-2.3-1.6C536.6,346.4,537.4,346.9,538.1,347.5z"/>
	<path class="st13" d="M314,344.1c-7,3.4-14,6.7-22.2,10.6c2-6.1,7.5-5.5,9.7-9c3.1-4.8,8.2-6.4,13-8.6c5.4-2.4,11.1-4.2,17.5-7.6
		c-5.4-3.4-10.4-4.2-15-3.7c-14.4,1.5-28.9,1.1-43.2,3c-4.3,0.9-8.7,0.7-13,1.4c-1.7,0.3-3.3,0.6-5,0.9c-4.1,0.5-8.2,1-11.7-1.8
		c-0.7-1.1-0.8-2.1-0.2-3.3c6.5-4.4,14.1-4.1,21.3-5.3c1.6-0.3,3.2-0.6,4.9-0.8c4.8-0.9,9.6-0.6,14.4-1.2c1.6-0.3,3.2-0.6,4.8-0.9
		c1.1-0.3,2.2-0.5,3.2-0.6c16.5-1.1,33.3,1.4,49.3-5.7c6.1-2.7,13.3-1,19.9,1c4.1,1.3,7.9,2,11.6-2.1c6.9-7.5,8.8-6.9,12.3,2.5
		c0.6,1.7,1.1,3.4,1.1,5.2c-0.1,4-2.2,6.9-5.3,9.2c-1.1,0.8-2.3,1.5-3.6,2.1c-0.7,0.4-1.5,0.8-2.3,1.1c-1.1,0.6-2.3,1.1-3.4,1.6
		c-0.7,0.4-1.5,0.8-2.3,1.1c-1.2,0.6-2.4,1-3.7,1.2c-1.4,0.1-2.7-0.1-4-0.6c-2.7-1.4-5.3-3.1-8.3-0.9c-1.1,1.3-1.2,3-1.2,4.6
		c-4.2,7.1-6.1,7.8-10,2.3c-3.4-4.9-6.7-5.2-11.5-3.1C325.6,339.5,319.7,341.8,314,344.1z"/>
	<path class="st39" d="M370,330.9c0.7,0,1.4-0.1,2.1-0.4c0.8-0.6,1.6-1.1,2.4-1.7c0.6,0,1.3-0.1,1.9-0.3c0.8-0.6,1.5-1.3,2.4-1.8
		c2.8-1.4,5.1-3.3,6-6.5c2.4-5.2-2.2-10.7,0.5-16c0.5-1,1.4-1.7,2.5-2.1c6.2,0,5.9,4.9,6.4,8.8c0.8,6.8,2.7,12.9,7.7,17.7l0.1,0.1
		c0.5,0.7,1.1,1.2,1.9,1.5c1.3,0.3,2.6,0.6,3.9,0.9c5.1,1.7,10.6,0.2,15.6,2.2c0.7-0.2,1.4-0.4,2.1-0.6c0.8-0.7,1.7-1.3,2.6-1.7
		c2.3,3.6-0.9,4.9-2.9,6.8c-0.7,0.4-1.4,0.9-1.9,1.6c-0.8,0.2-1.6,0.3-2.4,0.5c-0.8,0.5-1.7,1-2.5,1.5c-1.8,0-3.7,0-5.5,0
		c-0.7-0.5-1.5-1-2.3-1.4c-0.8-0.2-1.6-0.4-2.4-0.6c-0.6-0.7-1.2-1.2-2-1.6c-0.6-0.3-1.3-0.5-1.9-0.6c-0.8-0.6-1.6-1.2-2.4-1.8
		c-0.5-0.3-1.1-0.4-1.7-0.4c-1-0.4-1.8-1.1-2.6-1.8c-1.8-1.3-3.7-2.5-6-2.4c-2.3-1-4.5-1.7-6.7,0.2c-0.8,0.2-1.6,0.4-2.4,0.6
		c-0.8,0.3-1.4,0.8-1.9,1.5c-0.8,0.2-1.6,0.5-2.4,0.7c-0.8,0.3-1.3,0.8-1.8,1.4c-1.5,0.8-3,1.7-4.6,2.5c-0.8,0.5-1.4,1.1-2.1,1.7
		c-0.7,0-1.4,0.2-2.1,0.5c-5.1-0.2-10.2,0.4-15-2.1c-1.5-1.9-5.2-3-2.7-6.5c4.5,0.4,9.1,0.7,13.5,2.1c1.4-0.3,2.8-0.6,4.3-0.9
		C368.6,332,369.3,331.5,370,330.9z"/>
	<path class="st13" d="M525.6,346.2c0.8,0.5,1.6,1,2.4,1.6C527.1,347.3,526.3,346.7,525.6,346.2z"/>
	<path class="st13" d="M531.9,348.3c0.8,0.5,1.6,1,2.4,1.6C533.6,349.4,532.8,348.9,531.9,348.3z"/>
	<path class="st13" d="M538.3,350.5c0.8,0.5,1.6,1,2.4,1.6C540,351.5,539.1,351,538.3,350.5z"/>
	<path class="st13" d="M544.8,352.7c0.8,0.5,1.5,1,2.3,1.6C546.3,353.7,545.5,353.2,544.8,352.7z"/>
	<polygon class="st13" points="516.9,369.2 517.7,369.7 517.4,370 	"/>
	<path class="st13" d="M625.6,424.8c0.8-0.3,1.7,0.4,1.4,0.7c-1.5,1.5-1.1-0.2-1.2-0.9C625.7,424.6,625.6,424.8,625.6,424.8z"/>
	<path class="st14" d="M218.1,182c-2.1-1.7-3-3.4-0.2-5.2C218,178.5,218,180.2,218.1,182z"/>
	<path class="st12" d="M376.3,284c-1.6-1.6-1.6-6.1-5.7-3.6c-5,3.1-11,3.3-16.4,6.2c-5.3,2.9-12.3,3.3-18.7,1.3
		c-0.6-7.7,0.9-15,3.1-22.3c4.8-0.9,5.8-2.1,5.1-5.7c-0.6-3.4-2.6-5.8-5-8c-3.7-3.4-7.9-6-12.1-8.6c-2.5-1.5-6.4-1.9-5.8-6.3
		c9.2-5.6,19.1-8.1,29.8-9.2c4.4-0.5,8.2-0.3,12.3,0.8c9.9,2.5,19.9,5.8,29.8,7.3c9.5,1.4,19.4,1.5,29.1,3.3
		c0.7,0.1,1.6,0.2,2.1-0.2c8.4-6.9,15.5-1.6,22.8,2.4c1.3,4.7-2.3,7-4.8,9.6c-3.3,3.5-3,6.6-0.3,10.1c1.1,5.4-1,10.7-0.3,16
		c0.2,1.4,0.3,2.9,0.3,4.3c-0.1,1-0.5,1.8-1.1,2.6c-6.9,0.1-13.3-2.7-19.4-5c-12.8-4.9-24.6-4.6-36.2,2.4
		C382.6,284.7,379.8,285.4,376.3,284z"/>
	<path class="st40" d="M438.3,279.3c-0.5-6.4-0.5-12.8,1.5-19c-0.1-0.7-0.4-1.5-0.2-2.1c4.7-11,13.8-15.6,25-15.7
		c10.4-0.1,20.5,1.6,24.4,13.6c3.7,7.8,6.3,15.7,2.9,24.4c-7.6,19.2-31.5,24.2-46.2,9.6c-2-2-3.7-4.2-5.6-6.3
		c-0.2-0.7-0.4-1.4-0.6-2.2C439.2,281,438.8,280.2,438.3,279.3z"/>
	<path class="st41" d="M320.8,237c7.9,4.4,16.2,8,22.5,14.9c2.9,3.2,5.8,5.9,3.5,10.9c-1.5,3.4,0.8,7.6-2.2,11.7
		c-3.9-2.4-0.9-7.7-4.2-9.9c-2.7-0.7-3.8-3-5.4-4.9c-11.5-13.8-25.8-15.3-40.1-4.2c-1.1,0.9-2.1,1.9-3.1,2.9c-1,1-2,2-3.1,3
		c-0.8,0.6-1.6,0.9-2.6,1.1c-3.3-0.2-6-2.1-8.8-3.5c-2.5-1.3-3.7-3.2-3.1-6.1c0.5-2.5,2.6-4.1,4.5-3.8c6.8,1,9.8-4.6,14.3-7.5
		c0.7-0.2,1.4-0.4,2.1-0.5c0.8-0.5,1.6-1.1,2.3-1.7c1.4-0.2,2.7-0.3,4.1-0.5c0.8-0.5,1.6-1,2.4-1.6
		C309.6,237.1,315.2,237.1,320.8,237z"/>
	<path class="st42" d="M489.1,256.3c-17.3-16.4-33.8-15.1-49.3,4.1c-6.6-3.5-6.8-3.9-3-8.3c3.1-3.7,6.5-7.1,9.7-10.7
		c0.6-0.2,1.2-0.3,1.9-0.3c0.8-0.5,1.6-1.1,2.4-1.7c15.6-4.6,29.8-3.2,41.1,9.9C495.7,253.5,495.7,253.5,489.1,256.3z"/>
	<path class="st43" d="M376.3,284c2.5-1.7,5.4-2.2,8.4-2.7c3.2,0.2,6.3,0.3,9.5,0.5c2.8,0.2,6.3,0,7.1,3.3c1.1,4.3-4.5,2.2-5.5,4.9
		c-0.9,3.5-2.8,6.5-4.6,9.6c-1.5,0.7-2.9,0.8-4.4,0.1c-3.5-2.9-5.8-6.8-8.4-10.5C377.4,287.6,376,286.1,376.3,284z"/>
	<path class="st26" d="M593.6,290.2c-2.7,6.1-4.7,12.4-4.3,20.2c-5.5-2.4-3.4-7-4.6-10c-1.3-3.2-2.5-6.5-3.8-9.8
		C585.1,290.5,589.3,290.4,593.6,290.2z"/>
	<path class="st39" d="M390.9,298.8c0.5-3.5,1-7.1,4.9-8.8c1.6,0.4,3.3,0.6,3.9,2.5c0,0,0,0.2,0,0.2c-0.9,0.5-1.5,1.3-2.3,1.9
		c-0.7,0.7-1.4,1.3-2,2c-0.6,0.7-1.2,1.5-1.8,2.2c-0.1,0.7-0.2,1.4-0.3,2.2C391.2,301.5,390.5,300.8,390.9,298.8z"/>
	<path class="st26" d="M563.7,290.6c-1.6,2.1-4,1.8-6.3,1.8C559,290.2,561.3,290.4,563.7,290.6z"/>
	<path class="st12" d="M450.9,239.3c-0.8,0.6-1.6,1.2-2.4,1.7C449.3,240.5,450.1,239.9,450.9,239.3z"/>
	<path class="st30" d="M297.5,239.2c-0.8,0.6-1.5,1.2-2.3,1.7C296,240.4,296.7,239.8,297.5,239.2z"/>
	<path class="st30" d="M304,237.2c-0.8,0.5-1.6,1.1-2.4,1.6C302.4,238.3,303.2,237.7,304,237.2z"/>
	<path class="st30" d="M201.2,230.3c-0.5-0.5-1-1-1.5-1.5C200.3,229.3,200.7,229.8,201.2,230.3z"/>
	<path class="st44" d="M186.5,326.6c0-0.7,0-1.4,0.1-2c1.6-1.8,0.4-4.5,2.2-6.2c4.5-3.9,10.1-4.6,15.7-5.2c3.5-0.4,7-0.6,10.3-1.8
		c6.3-1.7,12.2,0.8,18.3,1.4c6.3,1.1,5.7,7.8,9.2,11.2c0.4,1,0.4,2,0.1,3c-0.7,1.5-1.9,2.3-3.4,2.7c-2,0.2-4-0.2-5.9,0.6
		c-7.4,2.6-15,4.2-22.3,7.1c7.7-3.2,16-4.5,23.7-7.5c3.2,0.3,6.5-1.1,9.7-0.1c7,4,7.8,10.7,7.4,17.8c-10.1,8.1-22.3,10.9-34.5,13.8
		c-12.1-15.3-12.1-15.3-30.9-5.4c-1.5,0-2.8-0.4-4-1.4c-0.6-0.8-0.7-1.7-0.5-2.6c0.5-0.8,1-1.5,1.6-2.1c1.3-1.1,2-2.9,3.4-4
		l-0.1,0.1c0.9-1.3,0.8-3,1.5-4.4c0.3-0.6,0.7-1.2,1-1.9C191.6,334.7,186.7,331.1,186.5,326.6z"/>
	<path class="st44" d="M188.6,260.5c3.7,0.5,3.9,3.1,4.3,6.1c1.3,9.6,6.5,14.4,15.6,15.2c12.4,1,23.4,17,20.5,29.7
		c-4.9,2.6-10.3,0.2-15.3,1.6c-6.3,1.9-13,1.7-19.4,3.7c-4,1.3-8.5,1.2-10.3-4.1c-1.7-2.3-0.3-6.2-3.9-7.6
		c-0.6-10.9,1.6-21.4,4.3-31.9c1.9-2.7,0.8-6,1.7-8.9c-0.1-0.8,0.2-1.4,0.8-1.8C187.4,261.8,187.9,261.1,188.6,260.5L188.6,260.5z"
		/>
	<path class="st45" d="M168,363.4c-9.2,7.2-18.5,14.4-27.7,21.5c-0.8,0-1.3-0.3-1.7-1c0.1-0.7,0.2-1.3,0.4-2l0.5-0.3
		c0.8-0.4,1.5-1,2.1-1.8l0.1-0.1c0.8-0.6,1.5-1.3,2.3-2c2.6-1,4.5-3,6.4-4.9c0.8-0.3,1.4-0.8,1.7-1.6l0.2-0.2
		c0.8-0.6,1.6-1.2,2.3-1.9c1.4-0.9,2.8-1.9,4.3-2.8c0.8-0.3,1.4-0.8,1.8-1.5c1.5-0.9,3-1.9,4.6-2.8c0.7-0.2,1.4-0.3,2.1-0.2
		C168.1,362.2,168.4,362.7,168,363.4z"/>
	<path class="st37" d="M131.6,448.5c-2.1,4.3-3.8,8.8-6.9,12.6c-1.7-6.5-2.7-12.8,4.5-16.9C131.1,445,132.2,446.2,131.6,448.5z"/>
	<path class="st30" d="M180.2,305.1c2.1-1.6,4.5-4.3,4.4,1.4c0,1.7,0.2,3.4,0.2,5.1c-0.3,3.6,4.1,5.1,4,8.6
		c-0.4,1.7-0.9,3.3-2.3,4.4c-0.8-5.6-5.3-3.6-8.5-4.2l-0.4-0.4C184.9,316.1,181.1,310.4,180.2,305.1z"/>
	<path class="st46" d="M140.3,384.9c-4.1,3.7-8.1,7.5-12.3,11.1c-1.5,1.3-3.1,1.5-3.4-1.2c0,0,0,0,0,0c0.8-0.6,1.4-1.5,2.2-2.1l0,0
		c0.7-0.8,1.4-1.5,2.2-2.2l-0.1,0.1c0.7-0.9,1.5-1.6,2.4-2.1c2.6-1.1,4.5-3.1,6.2-5.2c0.4,0,0.8,0,1.2,0
		C139.3,383.9,139.8,384.4,140.3,384.9z"/>
	<path class="st47" d="M131.6,448.5c-0.8-1.4-1.6-2.9-2.3-4.3c0,0-0.2,0-0.2,0c0.6-0.7,1.1-1.5,1.6-2.2c0.8-1.7,1.7-3.3,2.5-5
		c0.4,0.2,0.8,0.3,1.2,0.5c1.7,0.9,3.1,2.1,1.8,4.1C134.7,443.8,134,446.7,131.6,448.5z"/>
	<path class="st48" d="M182.1,352.1c0.5,1.2,1.4,1.8,2.6,2.1c0.4,4.8-1.9,6.8-6.5,6.6c-0.7-2-2.2-1.9-3.8-1.6
		c-0.5-0.1-0.9-0.1-1.4-0.2c-0.2-1,0-1.9,0.5-2.7c1.5-0.9,3.1-1.8,4.6-2.6c0.8-0.4,1.4-0.9,1.9-1.6l0.1-0.1
		C180.8,351.2,181.5,351.3,182.1,352.1z"/>
	<path class="st30" d="M163.1,324.5c4.2-3.7,9.2-4.8,14.6-4.6c0,0,0.3,0.4,0.3,0.4c-4.7,2.7-9.5,4.9-15.1,4L163.1,324.5z"/>
	<path class="st30" d="M163,324.4c-2.1,3.3-5.3,3.6-10,4.3c3.6-3.4,6.5-4.7,10.1-4.2C163.1,324.5,163,324.4,163,324.4z"/>
	<path class="st30" d="M186.2,264.4c2.1,3.5,1.4,6.4-1.7,8.9C185.7,270.4,182.9,266.8,186.2,264.4z"/>
	<path class="st37" d="M134.9,429.1c0.8,1.3,1.8,2.2,3.5,2c-1.1,1.3-2.2,2.6-3.2,4C134.5,433.1,132.3,431.2,134.9,429.1z"/>
	<path class="st48" d="M174.3,359.3c-1.6,2.1-3.7,3.6-6.4,4.1c-0.5-0.4-0.9-0.8-1.3-1.4c0-0.5,0.1-0.9,0.1-1.4
		c1.6-0.9,3.2-1.9,4.8-2.8c0.5,0,1,0.1,1.4,0.1C173.5,358.4,173.9,358.8,174.3,359.3z"/>
	<path class="st49" d="M131.4,388.6c-0.8,0.7-1.6,1.4-2.4,2.1C129.7,390,130.6,389.3,131.4,388.6z"/>
	<path class="st30" d="M188.6,260.5c-0.5,0.7-1,1.4-1.5,2.1C187,261.5,187.5,260.8,188.6,260.5z"/>
	<path class="st50" d="M254.6,349.7c1.4,6.6,5.3,10.8,12.3,10.9c4.6,0.1,7.7,3.2,11.6,4.6c17.6,6.5,35.5,11.4,53.6,16.1
		c4.1,1,7.9,3.1,11.7,4.8c5.9,2.6,11.7,4.5,18.3,4.5c8.9,0.1,17.2,3.4,25.6,5.9c1.2,0.4,2.2,1.6,3.3,2.5c-17.3,0-34.7,0.8-52-0.1
		c-32.5-1.7-64.5-6.7-94.2-20.9c-8.8-4.2-18-8.2-24.6-16C230.8,355.2,241.9,350.1,254.6,349.7z"/>
	<path class="st51" d="M254.6,349.7c-11.9,2.5-23.1,7.2-34.2,12.2c-2,0.4-4,0.8-5.9,1.3c-0.3-0.3-0.5-0.7-0.8-1
		c0.3-1.4,1-2.3,2.6-2.1c11.4-4.3,22.7-8.5,34.1-12.8c3.3-4.4,8-5.8,13.2-5.9c1,0.1,2,0.3,2.9,0.7c0.4,0.3,0.8,0.6,1.2,0.9
		c0.6,1,0.5,1.8-0.3,2.7C262.8,346.1,258.6,347.4,254.6,349.7z"/>
	<path class="st29" d="M547,316.7c11.7,3.5,23.8,4.7,35.9,5.6c1.9,0.6,3.9,1.2,5.8,1.7c0.1,0.4,0.1,0.8,0.2,1.3
		c-0.9,1.1-2,1.5-3.3,0.6c-12-1.7-24-3.4-36-5.1c-5,2.3-9.8,1.2-14.5-1.1c-0.9-0.6-1.6-1.3-2.2-2.1c-0.2-0.5-0.4-0.9-0.6-1.4
		c-0.1-1.1,0.5-1.8,1.5-2.2C538,316,542.4,316.8,547,316.7z"/>
	<path class="st52" d="M193.1,374.5c-0.1-0.9-0.1-1.8-0.2-2.7c4.7-7.9,11.4-11.5,20.7-9.6c0.3,0.3,0.6,0.7,0.8,1
		C207.8,367.9,200.3,371,193.1,374.5z"/>
	<path class="st18" d="M177.6,515.7c-2.7-0.4-7.9-6-7.4-8.1c0.7-2.8,2.4-5.1,5.7-5.1c2.6,0.1,6.9,5.4,6.5,7.5
		C181.8,512.8,181.1,515.5,177.6,515.7z"/>
	<path class="st26" d="M273.9,326.7c0.5-0.5,1.1-1.3,1.6-1.3c19.3,0.1,38.5-5.4,57.9-0.8c2.3,0.6,4,1.4,4.2,3.9
		c0.2,2.5-1.2,3.8-3.4,4.6c-10.9,4.2-21.7,8.5-32.6,12.7c-7.8-9.9-16.8-4.6-25.7-2.3c-1.1-0.9-2.6-1.4-3.2-2.8
		C271.3,335.9,270.9,331.1,273.9,326.7z"/>
	<path class="st51" d="M273.8,340.9c0.7,0.9,1.4,1.8,2.1,2.7c-1.3,0.2-2.7,0.4-4,0.5c-1.6,0.7-3.1,0.9-4.4-0.5l0.1,0.1
		c-0.8-1-0.8-1.9,0.1-2.9C269.7,339.5,271.7,339.4,273.8,340.9z"/>
	<path class="st26" d="M267.4,343.6c1.5,0.2,2.9,0.3,4.4,0.5c-1.2,1.3-2.7,1.8-4.4,1.7C267.4,345,267.4,344.3,267.4,343.6z"/>
	<path class="st53" d="M213.6,362.2c-7.5,2-14,6-20.7,9.6c-5.2,3.1-11.1,5.1-15.1,10.1c-2.8,0.4-5.2,1.4-6.4,4.3
		c-2.2-0.7-4.6,2.3-6.8-0.2c5.4-5.3,8.3-12.1,11.3-18.7c1.8-1.8-0.1-4.7,2.2-6.3c0,0,0,0,0,0c2.9-1.4,4.6-4.2,6.5-6.6
		c2.3-0.1,4.1-1,5.3-3c3.7-6.3,9.6-9.4,16-6.7c6.1,2.6,11.4,7.4,10.2,15.6C215.4,360.8,214.5,361.5,213.6,362.2z"/>
	<path class="st48" d="M178.1,360.9c0.2,2.4,0.4,4.9-2.2,6.3C175.4,364.7,175.7,362.4,178.1,360.9z"/>
	<path class="st26" d="M212.2,311.8c5.6-0.1,11.2-0.1,16.9-0.2c12.3-2.3,24.4-2.9,36.8-0.2c5.1,1.1,10.6,0.1,15.9,0.3
		c7.5,0.4,14.6-0.3,21.4-4.2c5.5-3.2,12-3.4,18.2-4.7c10.4-2.2,20.6-4,31.2-4.4c4.1-0.2,8.4-2.5,11.3-5.6c5.1-5.6,9.6-4.4,14.6-0.3
		c7,0.2,6.7,6.3,8.5,10.7c-0.8,5.7,1.9,11.8-2.2,17.1c-1.2-4.7-2.1-9.5-4.9-13.4c-2.4,0.3-2.2,1.7-2.6,3c-2.3,7.9-5.8,10.3-13.1,7.2
		c-11.6-5-22.5-4.6-33.3,2c-2.5,1.6-5.5,1.1-8.3,1.1c-10.6,0-21.2-0.1-31.8-0.1c-12.1-4.8-24.8-1.8-37.2-2.7
		c-6.2-0.4-12.7,1.1-18.1-3.5c-7.1,0-14.2,0-21.2,0C212,314.6,211.6,313.7,212.2,311.8z"/>
	<path class="st54" d="M286.1,262.4c0.3-0.6,0.5-1.2,0.5-1.9c0.7-0.6,1.3-1.4,1.6-2.3c6.4-8.5,14.9-13.1,25.6-12.7
		c13,0.5,22.1,6.6,26.6,19.1c0.4,8.2-0.1,16.2-4.9,23.3c-1.9,1.6-3.7,3.2-5.6,4.7c-10.1,7.7-21.7,8.4-32.4,1.8
		c-10.1-6.2-14.3-16.2-12-29C285.6,264.5,285.9,263.4,286.1,262.4z"/>
	<path class="st39" d="M386.9,303.1c-3.5-3-4-8.4-8.5-10.7c0-1,0-2.1,0-3.1c5,1.3,8.1,4.4,8.8,9.6c1,1.5,0.9,3-0.4,4.3L386.9,303.1z
		"/>
	<path class="st26" d="M386.8,303.2c0.1-1.4,0.3-2.9,0.4-4.3c1.2,0,2.5,0,3.7,0c0.8,0.7,1.5,1.4,2.3,2.1c2.7,1.3,4.8,3.2,6.1,5.8
		c1.8,3.8,3.9,4.4,7.4,1.8c2.1-1.5,4.8-1.7,6.9,0.2c1.6,1.4,2.8,3.3,2.3,5.6c-0.4,1.9-2,2.9-3.7,3.3c-1,0.3-2.1,0.2-3.2,0.3
		c-9.4,1.1-9.4,1.1-7.1,10.6c-7.9-2.8-11.1-8.5-11-16.8C390.9,308.7,393.1,303.7,386.8,303.2z"/>
	<path class="st26" d="M423.2,333.3c-5.8,3.7-10.7,0.9-15.6-2.2C413,330.5,419.1,325.1,423.2,333.3z"/>
	<path class="st26" d="M444,328.6c-1.8-0.1-3.7-0.4-4.1-2.3c-0.4-2,1.6-1.7,2.8-1.7c1.7,0,3.7,0.3,4,2.3
		C447.1,328.9,445.2,328.4,444,328.6z"/>
	<path class="st26" d="M384.8,330.9c2.1-2.5,4.4-2.5,6.7-0.2C389.3,330.8,387.1,330.8,384.8,330.9z"/>
	<path class="st26" d="M393.5,298.8c0.6-0.7,1.2-1.5,1.8-2.2C394.7,297.3,394.1,298.1,393.5,298.8z"/>
	<path class="st26" d="M403.7,330.2c-0.6-0.5-1.2-1-1.9-1.5C402.5,329.2,403.1,329.7,403.7,330.2z"/>
	<path class="st26" d="M397.4,294.6c0.8-0.6,1.5-1.3,2.3-1.9C398.9,293.3,398.1,293.9,397.4,294.6z"/>
	<path class="st26" d="M380.6,333c0.6-0.5,1.3-1,1.9-1.5C381.8,332,381.2,332.5,380.6,333z"/>
	<path class="st26" d="M427.9,331c-0.9,0.6-1.8,1.1-2.6,1.7C426.2,332.2,427.1,331.6,427.9,331z"/>
	<path class="st26" d="M376.4,335.1c0.6-0.5,1.2-1,1.8-1.4C377.5,334.2,377,334.7,376.4,335.1z"/>
	<path class="st26" d="M397.6,333.1c0.9,0.6,1.7,1.2,2.6,1.8C399.3,334.4,398.4,333.7,397.6,333.1z"/>
	<path class="st26" d="M401.9,335.4c0.8,0.6,1.6,1.2,2.4,1.8C403.4,336.6,402.7,336,401.9,335.4z"/>
	<path class="st26" d="M369.7,339.4c0.7-0.6,1.4-1.1,2.1-1.7C371.1,338.2,370.4,338.8,369.7,339.4z"/>
	<path class="st26" d="M406.2,337.7c0.7,0.5,1.3,1.1,2,1.6C407.5,338.8,406.8,338.3,406.2,337.7z"/>
	<path class="st26" d="M423.2,339.4c0.6-0.5,1.3-1.1,1.9-1.6C424.5,338.3,423.8,338.9,423.2,339.4z"/>
	<path class="st26" d="M410.5,340c0.8,0.5,1.5,0.9,2.3,1.4C412,340.9,411.3,340.5,410.5,340z"/>
	<path class="st26" d="M418.3,341.4c0.8-0.5,1.7-1,2.5-1.5C420,340.4,419.2,340.9,418.3,341.4z"/>
	<path class="st30" d="M235.4,313.9c15.4,0,30.9,0,46.3,0c4.4,0,8.7,0.2,9,6.2c-0.6,0-1.3,0-1.9,0.1c-0.7,0.8-1.5,1.5-2.6,1.8
		c-5.5,0.1-11.1,0.2-16.6,0.4c-0.7,0.8-1.5,1.5-2.5,1.8c-7.9-1.1-15.2,2.9-23.1,2.5c-0.7,0.6-1.4,0.6-2-0.1
		C237.6,323.6,234.4,319.8,235.4,313.9z"/>
	<path class="st30" d="M273.8,340.9c-2,0.3-4,0.6-6.1,0.9c-0.8,0.6-1.6,1.1-2.5,1.5c-5,1.4-10,2.7-15,4.1c-2.1-5.5-4.2-11-6.3-16.5
		c-0.5-0.5-0.6-0.9-0.5-1.4c0.2-0.5,0.4-0.7,0.5-0.7c4.3-0.1,8.6-0.1,12.8-0.2c0.7-0.7,1.5-1.3,2.4-1.8c4.9,0,9.7-0.1,14.6-0.1
		C273.9,331.4,275.2,336.1,273.8,340.9z"/>
	<path class="st26" d="M363.6,333.3c-5.2,3.5-9.3,0.6-13.5-2.1C358.5,327.6,358.5,327.6,363.6,333.3z"/>
	<path class="st26" d="M244,328.7c0,0.7,0,1.4-0.1,2.1c-3.6,0.1-7.1,0.2-10.7,0.3c-0.6-0.6-0.8-1.1-0.5-1.6c0.2-0.5,0.5-0.7,0.7-0.7
		c2.1-0.1,4.2-0.1,6.3-0.2c0.8-0.6,1.5-1.3,2.2-1.9c0,0,0,0,0,0c0.7,0,1.4,0,2,0.1C244,327.4,244,328.1,244,328.7z"/>
	<path class="st26" d="M286.2,322c0.9-0.6,1.7-1.2,2.6-1.8C287.9,320.8,287.1,321.4,286.2,322z"/>
	<path class="st26" d="M267.1,324.2c0.8-0.6,1.7-1.2,2.5-1.8C268.8,323,267.9,323.6,267.1,324.2z"/>
	<path class="st26" d="M259.3,326.8c-0.8,0.6-1.6,1.2-2.4,1.8C257.7,328,258.5,327.4,259.3,326.8z"/>
	<path class="st26" d="M378.7,326.7c-0.8,0.6-1.6,1.2-2.4,1.8C377.1,327.9,377.9,327.3,378.7,326.7z"/>
	<path class="st26" d="M374.4,328.8c-0.8,0.6-1.6,1.1-2.4,1.7C372.8,329.9,373.6,329.4,374.4,328.8z"/>
	<path class="st26" d="M370,330.9c-0.7,0.5-1.4,1-2.1,1.5C368.5,331.9,369.3,331.4,370,330.9z"/>
	<path class="st29" d="M438.3,279.3c1,0.5,1.5,1.3,1.3,2.5C438.7,281.2,438.2,280.4,438.3,279.3z"/>
	<path class="st55" d="M472.4,267.1c0.1,6,0.2,11.4-2.7,16.2c-2.8,4.8-6.8,4.8-9.9,0.1c-4.5-6.6-4.1-24.6,0.7-30.7
		c3.1-4,6.6-3.8,9.3,0.6C472.5,257.7,472.6,262.7,472.4,267.1z"/>
	<path class="st30" d="M288.2,258.2c0,1.1-0.6,1.9-1.6,2.3C286.6,259.4,287.2,258.6,288.2,258.2z"/>
	<path class="st30" d="M212.2,311.8c0.7,0.7,1.3,1.4,2,2.2c-8,3.8-17.5,1.7-25.3,6.3c-2.6-2.3-5.1-4.6-4-8.6c3.5,3.3,7,5.3,12.2,3.4
		C201.9,313.3,207.1,312.8,212.2,311.8z"/>
	<path class="st30" d="M233.4,328.8c-0.1,0.8-0.1,1.5-0.2,2.3c-8.4,2.8-16.8,5.7-25.2,8.5C215.4,332.8,224.9,332.2,233.4,328.8z"/>
	<path class="st30" d="M241.9,326.7c-0.7,0.6-1.5,1.3-2.2,1.9C240.5,327.9,241.2,327.3,241.9,326.7z"/>
	<path class="st48" d="M182.2,352.1c0-0.7,0-1.4,0.1-2c0.7-0.1,1.4-0.1,2.1,0C184.1,351.3,183.6,352.2,182.2,352.1z"/>
	<path class="st26" d="M265.3,343.2c0.8-0.5,1.6-1,2.5-1.5c-0.1,0.7-0.2,1.3-0.2,2C266.8,343.5,266,343.4,265.3,343.2z"/>
	<path class="st56" d="M322.9,268.5c0.4,4.8-0.8,9.2-2.6,13.5c-1,2.3-2.5,4.4-5.3,4.6c-2.9,0.2-4.6-1.7-5.6-4.1
		c-4.1-9.6-3.9-19.2,0-28.8c1-2.4,2.8-4.2,5.6-4.1c2.9,0.1,4.3,2.2,5.4,4.5C322.6,258.6,323.2,263.5,322.9,268.5z"/>
</g>
</svg>
